<svg xmlns="http://www.w3.org/2000/svg" viewBox="0 0 480 320"><defs><style>.cls-1{fill:#fff;}</style></defs><g id="Lag_2" data-name="Lag 2"><path class="cls-1" d="M445.22,121.27a4.92,4.92,0,0,0,.1-.94c0-5.59-8.94-10.26-20.92-11.47-7.29-3.15-16.29-6.78-26.47-10.88-8.18-3.31-17.46-7-27.06-11-42.39-17.6-54.36-21.48-63.78-24.17l-1.1-.32h0a9.26,9.26,0,0,0-3.19-3.29,13.59,13.59,0,0,0-5.43-2.55,45.42,45.42,0,0,0-14-2.06c-8.25,0-15.5,1.89-19.61,4.73-2.29.16-4.68.34-7.17.57-12.45,1.1-22.47,2-32,2.79-14.34,1.24-27.9,2.4-47,4.17C121.64,72,84.63,77.44,71.83,79.35a45,45,0,0,0-12.67-1.73c-13.07,0-23.77,5-24.75,11.4a5.6,5.6,0,0,0-.18,2.17,31.77,31.77,0,0,0,.08,5.72l0,.28a11.22,11.22,0,0,0,.59,2.58h0a122.45,122.45,0,0,1,4.82,47.53c-.05.49-.07.8-.07.91-.23,9.9,2.22,13.58,5.06,17.85h0c0,.47,0,1,0,1.51,0,1.39.06,2.79.06,3.23,0,2.31,1.28,6.41,9.45,8.8,9.56,13.11,24.92,33,37.83,44.22,3.5,3,7.21,6.63,11.13,10.42,7.33,7.09,14.34,13.85,20.56,17.76,0,.73,0,1.4,0,1.77,0,5.8,7.81,11.65,25.25,11.65,11.81,0,23.95-3.31,25.16-10.69,19.79-2.6,57-7.84,131.37-21.32,45.48-8.24,75.71-15.06,95.78-19.81a38.38,38.38,0,0,0,13.76,2.17c10.47,0,21.26-3.12,21.75-10.11.05-.72.08-1.65.1-2.76a10.49,10.49,0,0,0,3.22-7.2c.05-.58,4.87-58.65,5.13-65.08.05-.31.09-.63.13-1,.17-1.74.2-2.35.23-3.05,0-.5.05-1.07.15-2.29h0A5.22,5.22,0,0,0,445.22,121.27ZM103.61,83l.83-.17,2.17-.22c18.13-2.32,42.26-5.11,71.66-7.83,19.08-1.76,32.62-2.92,47-4.16l3.91-.34,31.62-3.18c2.45,4.47,11.63,7.79,22.58,7.79,8.43,0,15.8-2,19.87-4.9l.57.16,1.11.32c9.19,2.63,20.92,6.43,62.91,23.87,9.64,4,18.94,7.75,27.14,11.06q5.79,2.32,11,4.45c-8.73,2-14.71,5.91-14.71,10.48,0,3.22,3,6.13,7.77,8.26a21.43,21.43,0,0,0,4.4,2.19c-19.22,3.5-50.12,8.77-97.32,15.77-67.12,10-106,14.82-127,17.43l-8.26,1a6.31,6.31,0,0,0,.52-1.19l.4-.25a6.59,6.59,0,0,0,.49-1.68,7,7,0,0,0,.69-3c0-7.48-12.63-13.55-28.22-13.55s-28.22,6.07-28.22,13.55a6.84,6.84,0,0,0,.42,2.32c-3.56-2.39-7.31-5.27-11.16-8.24-3-2.33-6.16-4.75-9.44-7.11-12.84-9.27-31.44-23.83-47.51-44.67a47.18,47.18,0,0,0,10.32,1.11C72.87,102.33,84,96.8,84,90a6.7,6.7,0,0,0-.68-2.89L102.1,83.3l-.53,0ZM150.5,257.42c1.33-.06,2.7-.15,4.1-.26C153.33,257.29,152,257.38,150.5,257.42Zm9.46-16c-12.08,1.64-21.09,1.18-28.34-1.42-5.74-2.07-14.83-10.85-22.85-18.6-3.82-3.7-7.78-7.52-11.44-10.7-19.55-17-45.33-55.21-45.58-55.58l-.39-.59c-2-2.94-3.06-4.65-3.52-8.29a131.15,131.15,0,0,0-.61-27.41c15.5,18.52,32.42,31.71,44.44,40.39,3.17,2.29,6.25,4.66,9.23,7,9.21,7.09,17.16,13.22,25.21,15.23a59.07,59.07,0,0,0,14.62,1.68,136.26,136.26,0,0,0,19.12-1.66l2,59.74Zm7.68-6.14-1.82-54.7c3.58-.48,8.22-1.06,14.3-1.82l7.93-1,.92,53.67ZM366,199.54,195,230.41,194,177.06c22.82-2.89,58.76-7.62,113.24-15.7q35.28-5.24,61.52-9.7Zm49.14-8.86-43.06,7.77,2.75-47.82c18.09-3.08,32.77-5.77,44.12-7.95Zm17.63-2.57h0c-.2,2.35-2.21,3.55-7.95,4.73-1.12.23-2.37.5-3.73.82l-.13,0,4.13-52.14q6.56-1.28,11.26-2.26l.38-.08C435.74,152.24,433.79,176.15,432.8,188.11Z"/><ellipse class="cls-1" cx="176.82" cy="186.87" rx="5.81" ry="5.36" transform="translate(-26.44 344.58) rotate(-84.39)"/><ellipse class="cls-1" cx="178.18" cy="224.59" rx="5.81" ry="5.36" transform="translate(-62.75 379.97) rotate(-84.39)"/><ellipse class="cls-1" cx="177.5" cy="205.63" rx="5.81" ry="5.36" transform="translate(-44.49 362.18) rotate(-84.39)"/></g></svg>