<svg xmlns="http://www.w3.org/2000/svg" viewBox="0 0 480 320"><defs><style>.cls-1{fill:#000;}</style></defs><g id="Lag_2" data-name="Lag 2"><path class="cls-1" d="M444.74,119a1,1,0,0,1,0-.17h0c-.09-3.48-3.07-6.11-8.86-7.83a49.4,49.4,0,0,0-7.43-1.5C420.6,106,410.26,101.8,398.3,97c-8.18-3.3-17.46-7-27.05-11-42.39-17.61-54.36-21.48-63.79-24.17l-1.1-.32L305,61.07c-.74-3.32-5.19-6.78-20.54-6.78-10.8,0-16.2,1.71-18.72,3.88-2.76.18-5.71.41-8.81.68-12.44,1.11-22.47,2-32,2.8-14.34,1.23-27.89,2.4-47,4.17-56.72,5.23-94,10.78-106.27,12.61L68.11,79a72,72,0,0,0-9.18-.51c-15.16,0-20,3.27-21.32,6.14A6.12,6.12,0,0,0,35,87.37a5.33,5.33,0,0,0-.42,2.81,33,33,0,0,0,.08,5.73l0,.28a12.38,12.38,0,0,0,.59,2.58h0a122.65,122.65,0,0,1,4.82,47.53c-.05.49-.08.8-.08.91-.22,9.9,2.22,13.58,5.06,17.84v0c0,.47,0,1,0,1.51,0,1.39.06,2.79.06,3.23,0,2.31,1.28,6.41,9.45,8.8,9.56,13.11,24.93,33,37.83,44.22,3.5,3,7.21,6.62,11.14,10.42,7.32,7.08,14.33,13.85,20.55,17.76,0,.73,0,1.39,0,1.77,0,5.8,7.81,11.65,25.25,11.65,11.81,0,23.95-3.32,25.16-10.69,19.79-2.6,57-7.84,131.37-21.32,45.48-8.24,75.71-15.06,95.78-19.82a38.19,38.19,0,0,0,13.76,2.18c10.47,0,21.26-3.13,21.75-10.12.05-.71.08-1.65.1-2.75a10.49,10.49,0,0,0,3.22-7.2c.05-.58,4.87-58.66,5.14-65.08q.06-.46.12-1c.17-1.74.2-2.35.23-3.05,0-.5.06-1.07.16-2.3h0A5.78,5.78,0,0,0,444.74,119ZM266.14,68.85c2.68,2,8.06,3.57,18.32,3.57,1.53,0,3,0,4.28-.1-1.67,1.56-3.59,3.37-5.84,5.5-2.54,2.4-4.66,4.4-5.6,5.27l-.12.11c-1.88,1.73-5.38,5-5,9,.15,1.59,1,3.88,4.12,5.79,6.76,4.14,27.32,6.52,29.64,6.78,19.6,2.21,67.17,7.45,90.48,10a5.76,5.76,0,0,0-1.21,3.47h0l-.05,3.47a6.2,6.2,0,0,0,.05.86c-32.37-3.21-94.66-9.24-111.93-10-26.55-1.21-43.53,1.6-56.8,9.4-10.65,6.26-41.7,25.6-54.68,33.69-2.1-8.57-22.71-9-27-9-.78,0-2.1,0-3.74.09,5.45-4.19,11.49-8.8,13.89-10.48,25.13-17.53,25-21.43,25-22.9-.15-6.73-9.84-10.86-31.43-13.38-9.16-1.07-44.4-4.81-69.31-7.42a5,5,0,0,0,1.47-3.5v-.28c0-.47,0-1.21,0-2.12,23.05,1.73,72.8,5.44,82.42,6l3.36.19c6.18.36,13.87.81,21.84.81,8.77,0,17.89-.54,25.74-2.35C230.2,87.62,252.51,76.31,266.14,68.85ZM195.32,229.41l-.91-53.35c22.81-2.89,58.75-7.62,113.23-15.7q35.28-5.24,61.52-9.7l-2.75,47.88Zm207.32-100c.37.13.75.26,1.15.38-19.22,3.5-50.11,8.77-97.32,15.77-67.12,10-106.05,14.82-127,17.43l-8.26,1a6,6,0,0,0,.52-1.18c9.94-6.21,46.15-28.8,57.79-35.64,12.19-7.16,28.19-9.73,53.49-8.58C301.74,119.46,374,126.54,402.64,129.4Zm-285,27.77h0c0,1.33,0,2.43,0,3.19v.06C114,158,110.11,155,106.16,152c-3-2.34-6.16-4.75-9.43-7.11C83.23,135.14,63.38,119.58,46.78,97l-.64-.9a60.06,60.06,0,0,0,12.79,1.13c2,0,3.82-.06,5.48-.17,22.83,2.37,72.34,7.61,83.43,8.9,21.83,2.55,25.44,6.28,26,7.29-1.74,2.62-11.43,10.5-22.34,18.11-3.93,2.75-16.73,12.66-22.09,16.83C123.23,149.58,117.6,152.2,117.6,157.17Zm62.89,20.64,7.93-1,.92,53.66L168,234.33l-1.81-54.7C169.77,179.15,174.41,178.57,180.49,177.81Zm235.06,11.87-43.07,7.77,2.75-47.82c18.09-3.08,32.77-5.77,44.12-7.95ZM92,158.26c3.17,2.3,6.25,4.67,9.23,7,9.21,7.09,17.16,13.22,25.21,15.23a59.57,59.57,0,0,0,14.63,1.68,136.25,136.25,0,0,0,19.11-1.66l2,59.74-1.88.25c-12.08,1.63-21.09,1.18-28.33-1.42-5.75-2.07-14.84-10.85-22.85-18.6-3.83-3.7-7.79-7.53-11.44-10.71-19.56-17-45.34-55.2-45.59-55.57l-.39-.59c-1.95-2.94-3.06-4.65-3.51-8.29a131.27,131.27,0,0,0-.62-27.41C63.1,136.4,80,149.58,92,158.26ZM155,256.15c-1.27.14-2.63.23-4.09.26C152.2,256.36,153.57,256.27,155,256.15Zm278.17-69c-.2,2.35-2.2,3.54-7.95,4.73-1.11.23-2.36.5-3.73.81h-.13l4.14-52.14c4.36-.85,8.12-1.61,11.25-2.26l.39-.08c-1,13.09-2.95,37-3.93,48.95Zm-65-93.77c9.63,4,18.93,7.75,27.13,11.06l13,5.27-1.5.27c-15.53-1.71-77.17-8.49-100.19-11.08-5.94-.66-22.41-3-27.17-5.93-.92-.56-1.27-1-1.29-1.27-.08-.73,1-2.09,3.07-4.05l.13-.11L287,82.18c3.7-3.48,9.17-8.64,12.38-11.6a12.46,12.46,0,0,0,3.48-1.8l1.28.37,1.11.32C314.45,72.09,326.18,75.9,368.18,93.33ZM178.64,73.78c19.09-1.76,32.63-2.93,47-4.16,9.43-.82,19.34-1.67,31.57-2.76-13.25,7-31.17,15.56-44.45,18.62-14.15,3.25-33.24,2.13-45.88,1.39l-3.38-.2c-7.22-.4-37.29-2.61-61.52-4.41C120.53,79.83,146.43,76.75,178.64,73.78Z"/><ellipse class="cls-1" cx="177.17" cy="185.86" rx="5.81" ry="5.36" transform="translate(-25.12 344.01) rotate(-84.39)"/><ellipse class="cls-1" cx="178.52" cy="223.58" rx="5.81" ry="5.36" transform="translate(-61.43 379.4) rotate(-84.39)"/><ellipse class="cls-1" cx="177.85" cy="204.61" rx="5.81" ry="5.36" transform="translate(-43.17 361.61) rotate(-84.39)"/></g></svg>