<svg id="Layer_1" data-name="Layer 1" xmlns="http://www.w3.org/2000/svg" viewBox="0 0 480 320"><defs><style>.cls-1{fill:#000;}</style></defs><path class="cls-1" d="M411.19,125.63q0-.42-.06-.84a.57.57,0,0,0,0-.13s0,0,0-.07c-.57-5-4-10.77-12.84-17-29.22-20.39-57.17-42-50.28-62.91,1.34-4.07,1.13-7.76-.63-11-2.92-5.35-9.73-8.27-16.14-10.17,0-.2,0-.41,0-.61v-.3a17,17,0,0,0-.43-3.09c-.68-4.34-7.2-6.73-19.42-7.1-4.28-.12-14.64-.05-18.15,3.36a5.79,5.79,0,0,0-.77,1,4,4,0,0,0-.74,1.51l0,.16c-7,0-14.41.29-22.11,1-26.89,2.38-56.56,2.29-93.36-.28-4.5-.32-9.08-.45-13.66-.42a3.9,3.9,0,0,0-.52-.91,5.47,5.47,0,0,0-.8-1c-3.52-3.42-13.87-3.49-18.15-3.36-12.22.36-18.74,2.75-19.43,7.09a16.86,16.86,0,0,0-.42,3.09c0,.1,0,.2,0,.3s0,.26,0,.38c-7.16,2.55-11.69,5.81-13.48,9.73-.13.29-.24.58-.35.87v0c-1.07,2.38-.94,5.16-.65,8.54a12.52,12.52,0,0,0,1.36,5.64A21.51,21.51,0,0,1,113,59.2c-1,15.74-12.67,32.62-35.53,51.91-5.19,4.38-8,9.06-8.45,14a35.38,35.38,0,0,0,.66,11.31c.09.47.18,1,.26,1.43l.08.43a16,16,0,0,0,1.78,5.83c3.72,6.28,10.54,12.13,20.11,16.45l1,9.26c0,.1,0,.2,0,.3.48,2.6,2,5.88,4.68,10.24L103.15,229q-1.55,2.26-3.1,4.51c-2.66,3.84-5.41,7.8-8,11.86-4.21,6.69-5.88,12.58-5.91,17.7a31.19,31.19,0,0,0,11.22,27.75c13.27,11.09,29.88,16.66,49.59,16.66a126.66,126.66,0,0,0,24.6-2.57l1.69-.34c17.69-3.51,36-7.14,64.16-8.64,29.74-1.57,57.42,1.67,81,4.84,23.81,3.2,43.79-.76,57.76-11.45,12-9.2,17-23.28,13-36.79a39.32,39.32,0,0,0-7-15A58.63,58.63,0,0,0,376.4,231c-.48-.48-.94-.94-1.39-1.41l6.85-51.8a45.67,45.67,0,0,0,3.69-6.79c.06-.15.12-.29.17-.44.8-2.53,1.41-6.91,2.06-13.08,8.24-2.94,15.26-7.23,19.35-13.32a17.15,17.15,0,0,0,2.45-6.16C410.62,132.85,411.34,128.87,411.19,125.63Zm-27.54,24.72a3.94,3.94,0,0,0-1.5.48c-11.67,3.52-26.15,4.68-37.61,4.27a3.93,3.93,0,0,0-1-.21,4.1,4.1,0,0,0-1.06.1,4.53,4.53,0,0,0-.75-.15,4.12,4.12,0,0,0-1.06.06c-2-.14-3.81-.33-5.49-.56-8.51-1.19-17.12-2.11-25.74-2.8h-.07c-18.19-1.46-36.45-1.92-54-1.71,27.18-.59,53.78.05,78.89,2.72,12,1.28,39.78,1.69,58.69-6.18A48.76,48.76,0,0,1,383.65,150.35ZM132.12,185.64l4.63,50.41a2.14,2.14,0,0,1-.59,1.91c-4.53,4.39-11.48,5.78-20.11,4-2.33-.47-3.57-1.69-3.8-3.72l-.92-8.13a4.48,4.48,0,0,0-.12-1l-4.8-42.18a31.65,31.65,0,0,0,10.14,1.49c1,0,2.14,0,3.26-.11A38.73,38.73,0,0,0,132.12,185.64ZM98.94,154.79a3.94,3.94,0,0,0-1.38-1.37c9.38,2.69,20.75,4.09,33.67,4.09,5.94,0,12.22-.29,18.77-.9,18.59-1.72,37.48-3.32,56.36-4.56-22.77,1.75-42.62,4.22-57.3,6.35l-.57.08h-.11a3.69,3.69,0,0,0-.46.08q-4,.54-7.73.84a4.14,4.14,0,0,0-1.79-.29,4,4,0,0,0-1.2,0,3.85,3.85,0,0,0-1.64.63C120.82,160.37,108.48,158.34,98.94,154.79Zm-7.66-3.48c1.42.55,2.9,1.07,4.44,1.55a4.44,4.44,0,0,0-.63,0,4.36,4.36,0,0,0-.52.11C93.42,152.45,92.32,151.89,91.28,151.31ZM322,225.94l-7.33-23.68,7.63-.18a6,6,0,0,0,1.76-.3Zm3.38-39.64-10.07-26.22c4.07.39,8.14.82,12.2,1.32Zm-18.93-27,13.37,34.81-10.55.24a3.23,3.23,0,0,0-.44,0L162,197.72H160a9.11,9.11,0,0,1,.06-1.06c1-7.75,2-15.5,3-23.25l1.17-9C199.55,159.89,253.17,155.29,306.4,159.33Zm-150.81,46a5.87,5.87,0,0,0,1.93.39l-1.23,9.85ZM114.44,249.8a42.29,42.29,0,0,0,8.58.93c8.43,0,14.08-3,17.7-6.11.07.14.13.28.19.42a4.41,4.41,0,0,0,.29.89q.2,3.36.44,6.72c.31,4.43.63,9,.67,13.46,0,2.33-5.92,7-13,8.21s-15.4-1.07-16.17-4.39a94.31,94.31,0,0,1-1.92-14.78c-.17-2.15-.34-4.36-.58-6.68A14.72,14.72,0,0,0,114.44,249.8Zm35.18,2.29c-.16-2.27-.32-4.53-.44-6.8a2.45,2.45,0,0,0,0-.27,10.57,10.57,0,0,0-.42-1.84l-5.72-76L145,167l6,88.1-1.14,0Zm6.48-86.6-.9,6.91q-.6,4.69-1.22,9.39l-1.08-15.85Zm2.94,90s0-.05,0-.08l0-.47a3.9,3.9,0,0,0,.67-1.73l6-47.58,140.7-3.19,13.83,44.7-.24,2.86a3.69,3.69,0,0,0-.37.92l-67.33,2.31a4,4,0,0,0-3.84,3.59l-20.89.6a4,4,0,0,0-3.87-3h-.07Zm169.13-8.38v0l7.23-84.66,1.54.17-8.35,87.67h-.69Zm10.64-6.76a30.37,30.37,0,0,0,18,6A25,25,0,0,0,367.76,244c-.67,4.94-1.3,9.95-1.91,14.8l-.61,4.83a5.39,5.39,0,0,1-2.36,3.57,16.51,16.51,0,0,1-11.41,2.62c-4.53-.7-15-2.91-14.77-8.34A173.52,173.52,0,0,1,338.81,240.36ZM367,229.42a3.93,3.93,0,0,0-.25,1.82l-.23,1.75a11.53,11.53,0,0,1-.72,2.91c-5.16,3.5-15,3.68-22.46-2.15-.41-.32-.74-.69-.59-2L347.4,182c5.21,2.79,11.8,3.63,15.29,3.88.69,0,1.37.07,2.05.07a26,26,0,0,0,8.14-1.28Zm20.4-101.3q-.18,1-.39,2.1a1.31,1.31,0,0,1-.39.83c-12.56,6.68-29.54,3.76-38.7-2.92-.3-.22-.52-.38-.48-1.25,0,0,0,0,0-.07s0,0,0,0c0-.69.07-1.38.09-2.06l.11.06c.6.36,1.22.7,1.86,1l.23.12q1,.48,2,.93l.2.08c.75.31,1.52.6,2.31.88l.06,0c.81.27,1.64.53,2.49.77l.19,0c.79.22,1.6.42,2.42.6l.29.07c.8.17,1.6.33,2.42.47l.31.06c.83.14,1.66.26,2.5.36l.25,0c.89.11,1.79.2,2.69.27H368c.81.06,1.62.1,2.42.12l.77,0h2.35c.78,0,1.54,0,2.3-.1l.45,0c.76-.06,1.51-.13,2.24-.22h0c.74-.1,1.45-.21,2.16-.34l.43-.07c.68-.13,1.35-.27,2-.43l.32-.08c.59-.15,1.16-.31,1.72-.49l.29-.09c.59-.19,1.17-.4,1.72-.62ZM259.62,119a4,4,0,0,0-4-3.76l-31.29.24a4,4,0,0,0-4,4v5.29l-77.89.64,0-1.32,0-1.46,15.44-71,2.72-11.92,76.63.15a4,4,0,0,0,2.24.68h.06l58.78-.9,33.27,67.93h0L339.09,123l-79.35,1.34a3.92,3.92,0,0,0,.12-1.19Zm-146-8c.79,0,1.56,0,2.32,0,8.58,0,14.72,2.11,16.94,4.24a1.89,1.89,0,0,1,.68,1c0,1.86-7.11,6.74-20.29,7.31a41.23,41.23,0,0,1-14.69-1.74A12.91,12.91,0,0,1,94,119.31l-.24-.26a1.51,1.51,0,0,1-.44-.79C93.28,116.39,100.39,111.52,113.58,111ZM94.16,128.63c.5.21,1,.41,1.54.59l.31.12c.62.21,1.25.4,1.9.58l.44.11c.58.16,1.18.3,1.79.43l.33.08c.7.14,1.42.27,2.15.38l.49.07c.67.1,1.34.18,2,.26l.32,0c.76.08,1.54.13,2.33.18l.57,0c.72,0,1.44.05,2.18.06H111q1.15,0,2.34-.06h.32c.92,0,1.84-.11,2.76-.19l.27,0c.85-.08,1.7-.17,2.53-.29l.35,0c.83-.12,1.65-.25,2.45-.41l.32-.06c.84-.16,1.67-.34,2.48-.54l.19,0c.85-.21,1.68-.45,2.5-.7l.19-.06c.77-.25,1.51-.51,2.24-.78l.27-.11c.7-.27,1.38-.56,2-.87l.26-.12c.66-.32,1.29-.65,1.89-1l.12-.06c0,.77,0,1.56.1,2.34s-.13,1-.43,1.17c-9.3,6.42-26.57,8.83-39.36,1.77a1.35,1.35,0,0,1-.48-.95c-.13-.67-.26-1.33-.37-2ZM139.28,31a18.68,18.68,0,0,1-7.94-2.3c0-.38,0-.77,0-1.16l.17,0,1.25.22.44.06c.44.06.88.12,1.31.16l.16,0,1.45.13.43,0,1.2.07H138l1.35,0h2.91l1.08,0h0q1.08,0,2.1-.09l.64,0,1.42-.1.63-.05,1.48-.15.39,0,1.7-.23.44-.07,1.17-.21.51-.1,1.05-.24.41-.1.15,0,0,2v0a25.27,25.27,0,0,1-5.17,1.55A38.51,38.51,0,0,1,139.28,31Zm160.27-5c.36.09.73.18,1.12.26l.46.09,1.25.22.36.06c.56.09,1.15.17,1.75.24l.29,0,1.58.16.57,0,1.51.11.55,0c.7,0,1.41.07,2.15.09l.83,0h3.18l1.34,0,.23,0c.4,0,.81,0,1.22-.07l.41,0,1.48-.13h.07q.71-.08,1.41-.18l.37-.05c.48-.08.95-.15,1.41-.24h.05c0,.39,0,.78,0,1.16A18.77,18.77,0,0,1,315.21,30a36.12,36.12,0,0,1-15.34-1.75c-.29-.11-.59-.22-.87-.34l0-2.05.16,0ZM388,118c0,.34-.46.8-.66,1a5.54,5.54,0,0,1-.68.53c-2.62,1.83-8.34,3.38-16.06,3.14-.68,0-1.37-.06-2.08-.11-13-1-20.06-6.11-20.06-8h0c0-.34.46-.8.65-1,2.05-1.9,7.49-3.7,15.11-3.7,1.19,0,2.43.05,3.72.14C380.94,110.94,388,116.1,388,118ZM340.34,37.58c.42.78.89,2.1.05,4.64-7.32,22.19,12.46,42,38.82,61.6A57.16,57.16,0,0,0,368.49,102c-10.73-.78-20.25,1.4-24.85,5.68a10.49,10.49,0,0,0-1.94,2.4l-3-6.09h0L306.33,37.88l.93.1,1,.08,1.23.08,1,0,1.07,0h.16c.4,0,.79,0,1.19,0s.74,0,1.11,0l1.17-.09,1.09-.1c.39,0,.76-.1,1.14-.15l1.07-.16c.38-.06.74-.15,1.11-.22s.69-.13,1-.22.72-.19,1.07-.29.65-.17,1-.27.7-.26,1.05-.39l.86-.31c.38-.16.73-.34,1.08-.52l.68-.32a17.75,17.75,0,0,0,1.59-1c.19-.13.38-.28.57-.44l.17-.16c.13-.12.27-.24.4-.38s.13-.15.2-.23.23-.27.35-.41l.19-.3a4.53,4.53,0,0,0,.3-.46.35.35,0,0,0,.05-.08C335.81,33.43,339.14,35.39,340.34,37.58ZM175.66,27.15c37.24,2.6,67.31,2.69,94.62.26,7.23-.64,14.17-.94,20.75-.95l0,2.07a6.75,6.75,0,0,0,.58,2.92h0l.12.22-50.09.77a4,4,0,0,0-2.17-.65l-76.25-.14c0-.05,0-.09,0-.13a7.08,7.08,0,0,0,.25-2c0-.66,0-1.32,0-2,0-.26,0-.53,0-.79C167.53,26.73,171.63,26.87,175.66,27.15ZM120.74,62.64a3.86,3.86,0,0,0,.35-1.73q0-.6-.06-1.23a43.55,43.55,0,0,0-3.92-20.82,1.59,1.59,0,0,1-.06-1.48c.58-1.27,2.77-3.09,7.17-4.86,0,0,.06.08.08.13a4.92,4.92,0,0,0,.28.45,3.78,3.78,0,0,0,.22.33l.32.39.23.27.36.34.22.21.43.33.14.11c.51.35,1,.68,1.6,1l.34.16c.46.23.93.47,1.43.67.2.09.43.16.64.24.41.16.83.32,1.26.46.26.09.54.15.81.23s.8.24,1.22.34l.92.19c.4.09.8.18,1.21.25l1,.14,1.21.17c.35,0,.7.06,1.06.09s.79.07,1.2.09l1.1,0c.4,0,.79,0,1.19,0h.16l1.08,0c.34,0,.68,0,1,0l1.26-.08,1-.07c.42,0,.83-.1,1.24-.15l1-.11c.41-.06.81-.14,1.21-.21l1-.16c.37-.07.73-.16,1.1-.24L150,49.8h0v0l-12.73,58.58c-4.94-3.83-14-5.91-24-5.47-7.37.32-14.79,2-20.13,4.89C106.12,95.43,118.48,80,120.74,62.64ZM82.61,117.22q1.86-1.57,3.78-3.24a10,10,0,0,0-.77,1.86,10.32,10.32,0,0,0-.81,5.74c.33,3.12.85,6.44,1.62,10.44a9.09,9.09,0,0,0,4.47,6.43,44.5,44.5,0,0,0,21.56,5.3c10.09,0,19.74-3,26.22-7.48a9.27,9.27,0,0,0,2.71-2.89l83-.69a4,4,0,0,0,4-4v-5.28l23.33-.18a3.61,3.61,0,0,0,0,.81l.25,4.53a4,4,0,0,0,4,3.79h.07l84.26-1.43a9.09,9.09,0,0,0,3,3.67c6.68,4.87,16.79,8.24,27.26,8.24a42.39,42.39,0,0,0,19.9-4.72,9,9,0,0,0,4.5-6.4c.75-4,1.26-7.26,1.6-10.47a10.32,10.32,0,0,0-.79-5.62c10.49,8.06,7.41,12.69,6.05,14.73-4.25,6.36-14.56,11-29.83,13.3a154.35,154.35,0,0,1-36.85.93c-58-6.17-123.54-1.7-185.76,4-42.72,4-64.64-6.24-70.43-16.17C76.38,128.27,75.15,123.52,82.61,117.22ZM130,167.84c1.34,0,2.71,0,4.09-.07,0,.36,0,.72,0,1.12a31.51,31.51,0,0,1-.81,3.46c-.29,1.12-.61,2.32-.88,3.52h0a2.94,2.94,0,0,0-.37.55c-1.06,1.14-4.49,3.31-12.7,3.86-6.49.43-11.4-.66-14.25-3.17-3.13-4.9-4-7.29-4.21-8.34l-.54-5.07A100.79,100.79,0,0,0,130,167.84ZM371.39,275.32c-12.25,9.37-30.17,12.79-51.84,9.88-24-3.22-52.1-6.52-82.53-4.9-28.72,1.52-48.14,5.38-65.27,8.78l-1.71.33c-28.81,5.72-51.77,1.64-68.24-12.13-9.07-7.59-10-16.37-2.93-27.63,1.3-2.06,2.66-4.11,4-6.15a13.79,13.79,0,0,0-.36,4.47c.3,2.7.5,5.28.69,7.78a101,101,0,0,0,2.1,16c1.84,7.92,11.68,10.89,20.06,10.89a32,32,0,0,0,5.24-.41c9.51-1.6,19.74-8.23,19.67-16.17,0-1,0-2-.07-2.92l3.27-.11a3.94,3.94,0,0,0,2,.55h.07l64.33-1.1a4,4,0,0,0,3.89,3.07h.11l28.52-.81a4,4,0,0,0,3.86-3.61l66.91-2.31a4,4,0,0,0,1.78-.5l3.87,0c-.09,1.39-.14,2.39-.16,2.78-.25,4.94,2.22,13.67,21.54,16.66a21.74,21.74,0,0,0,3.35.25,24.35,24.35,0,0,0,14.1-4.39,13.21,13.21,0,0,0,5.47-9l.61-4.83c.65-5.15,1.32-10.48,2-15.7a8.34,8.34,0,0,0,.05-1.67C385.06,255.21,383.6,266,371.39,275.32Zm6.77-107.4a35.47,35.47,0,0,1-3.08,5.61c-.1.11-.18.23-.27.35-.32.44-.64.87-1,1.3-1.34,1.32-5.17,3.09-10.55,2.72-9.11-.65-14.26-3.47-15.19-5.81a20.67,20.67,0,0,1-1.19-5.71l.18-3.21a135.49,135.49,0,0,0,32.4-3.25A62.84,62.84,0,0,1,378.16,167.92Z"/></svg>