<svg id="Layer_1" data-name="Layer 1" xmlns="http://www.w3.org/2000/svg" viewBox="0 0 480 320"><defs><style>.cls-1{fill:#000;}</style></defs><path class="cls-1" d="M457.44,135.7,285.55,19.76c-6.64-4.38-14.3-5.55-22.79-3.47a4.11,4.11,0,0,0-.46.15L228.77,29.21,199.43,40.38h0L177,49C133,65.9,51.13,97.32,28.33,106.66c-10.09,4.14-10.47,11.2-9.8,15A4,4,0,0,0,20,124.12a14.27,14.27,0,0,0,1.89,2.47l17.31,18.47c8,8.57,22.2,2.79,26.86.89l8.49-3.46c8.7-3.55,15.07.33,18.89,4.21l47.73,48.58a12.38,12.38,0,0,0-.74,2.3,3.72,3.72,0,0,0-.23.87,30.85,30.85,0,0,0,5,21.1l.16.2a27.32,27.32,0,0,0,5.69,6.56l.16.16a14.74,14.74,0,0,0,6,3.33l.06,0a8.5,8.5,0,0,0,2.73.46,7.59,7.59,0,0,0,3.94-1.09l5.11-2.42,4.5,5.14a6.18,6.18,0,0,0,6,2.38L189,244a4.07,4.07,0,0,1,.56.67,4.45,4.45,0,0,1-.56,1.07,19.1,19.1,0,0,1-2.93,1.87c-2.42,1.32-5,2.6-7.4,3.84-4,2-8.1,4.09-12,6.5a16.26,16.26,0,0,0-7.88,15.46,50,50,0,0,0,.7,5.4c.15.93.3,1.86.43,2.81a12.44,12.44,0,0,0,3.12,7.22,101.66,101.66,0,0,0,10.29,9.78,25.69,25.69,0,0,0,16.28,6.09q7.41,0,15.48-4.51l60.65-34,29-16.28,3.09,2.9a4,4,0,0,0,4.91.45l6-3.87a4,4,0,0,0,1.82-3.54l-.12-2.94L318,238.6a4.45,4.45,0,0,0,.73-.54l23.22,19.87.19.13a8.83,8.83,0,0,0,1.77,1.22,15.75,15.75,0,0,0,7.45,1.83c9,0,18.4-7,25.07-14.88,7-8.28,12.34-20.63,8.3-29.55A12.29,12.29,0,0,0,383,213.9a9.51,9.51,0,0,0-2.32-2.79L378,208.88l2.82-2a4,4,0,0,0,1.7-3.46l-.12-2.64,3.25-2,4.87-2.74,21.72,16.77.24.16a8.6,8.6,0,0,0,1.72,1,15.4,15.4,0,0,0,6.26,1.24c5.72,0,14.48-2.75,24.75-15.18,8.29-10,11.32-21.18,7.72-28.4a10.93,10.93,0,0,0-1.61-2.38,8.55,8.55,0,0,0-2.35-2.6L446,164.51l10-5.4c2.74-1.48,3.69-4.48,4.42-7.43.13-.53.23-1.07.33-1.6s.15-.84.26-1.25C463.13,140.93,459.68,137.21,457.44,135.7Zm-9,8.4c0,.12,0,.41-.5.85-1.27,1.09-4.34,1.94-8.37,1.36-6.48-.93-10-4.5-10-6.08,0-.12,0-.4.51-.85,1-.84,3.05-1.54,5.81-1.54a17.84,17.84,0,0,1,2.55.19C444.9,139,448.43,142.53,448.43,144.1Zm-171.57-115c4.05.18,6.58,1.57,7.37,2.38-.84.66-3.3,1.66-7,1.49-4-.19-6.58-1.57-7.37-2.39C270.7,29.9,273.17,28.91,276.86,29.08ZM36.08,123.8c0-1.53,3.51-4.79,9.94-5.3,4.4-.36,7.41.85,8.65,2a1.64,1.64,0,0,1,.64,1.12c0,1.53-3.51,4.79-9.93,5.31-4.41.35-7.42-.85-8.65-2A1.62,1.62,0,0,1,36.08,123.8Zm156.5,36.08a4.22,4.22,0,0,0,.87.39,3.92,3.92,0,0,0,1.4.19,4.13,4.13,0,0,0,1.41-.32l1.29-.56,1.71-.74a4,4,0,0,0,2.18-2.33l33.27,31-46.09,20.06-3.13-2.79a4,4,0,0,0-4.45-.6L177,206.27a4,4,0,0,0-.47,6.85l-1.26,8.61L173,219.24a1.62,1.62,0,0,0-.19-.18l-.27-.27-.23-.16a3.21,3.21,0,0,0-.3-.21l-.27-.13-.29-.14-.31-.1-.29-.08a1.88,1.88,0,0,0-.33-.05l-.29,0h-.64l-.3,0L169,218l-.27.09-.27.09c0-.17,0-.35,0-.53s0-.34-.05-.52c-.07-.6-.16-1.22-.28-1.85v0c-.07-.35-.15-.72-.24-1.09,0-.08,0-.16,0-.25-.09-.37-.19-.76-.3-1.16,0-.09-.05-.19-.08-.28-.12-.41-.24-.82-.37-1.24,0-.07-.05-.14-.07-.22-.13-.4-.26-.8-.41-1.21a1.59,1.59,0,0,0-.07-.2c-.15-.44-.32-.88-.5-1.32l-.12-.31c-.17-.44-.36-.88-.55-1.33,0-.1-.08-.19-.13-.29-.2-.46-.41-.93-.64-1.39a.54.54,0,0,0-.05-.11c-.22-.45-.44-.89-.68-1.34l-.13-.25c-.24-.45-.49-.9-.75-1.34l-.16-.28c-.26-.45-.54-.89-.82-1.33l-.13-.2c-.28-.43-.57-.86-.87-1.28a.61.61,0,0,1-.07-.1c-.31-.43-.64-.85-1-1.26l-.18-.23c-.33-.4-.66-.79-1-1.17l-.19-.19c-.35-.39-.72-.77-1.09-1.13l-.08-.07c-.29-.28-.6-.55-.91-.82l3.72-1.5a4,4,0,0,0,1.48-6.39l-4.29-4.77a4,4,0,0,0,.67-6.06l-.79-.83Zm41.84,36.52a.48.48,0,0,1,.09.11,4,4,0,0,0,2.45,1.13l-.49,9.58-44.54,20.29,1-13.07Zm-50.33,28.8a3.83,3.83,0,0,0-1.23-.43l1.5-10.25.54.49Zm-26.4-3.92-.32-.2c-.24-.15-.48-.31-.71-.48l-.27-.19a18.71,18.71,0,0,1-4.46-5.09s0,0,0-.06a28.48,28.48,0,0,1-3.86-12.4c0-.38,0-.73,0-1.07v-.2q0-.42,0-.78v-.1l1.75-1.87c.25.15.5.32.75.5l.11.07q.47.36.93.78l.06.05c.33.29.64.61,1,.95h0a26.17,26.17,0,0,1,3.4,4.72l.06.1c.22.38.44.78.64,1.18a1.62,1.62,0,0,1,.1.18c.2.39.39.77.58,1.16a2.56,2.56,0,0,1,.11.24c.15.32.29.64.43,1,.07.15.14.3.2.45s.19.46.28.69l.29.71.15.42c.12.32.24.64.35,1,0,.05,0,.1,0,.15a29.57,29.57,0,0,1,1,3.7c.08.41.14.81.18,1.18,0,.13,0,.25,0,.38s0,.45,0,.65,0,.27,0,.4v.5c0,.13,0,.24,0,.36s0,.27,0,.39l-.06.31-.06.3c0,.09-.05.17-.08.25s-.05.15-.07.22L160,222l-.07.14-.08.13,0,.05-.05,0a10.86,10.86,0,0,1-1.07-.43l-.27-.14C158.19,221.56,157.94,221.42,157.69,221.28Zm133.74,21.35-29.6,16.61-60.64,34c-8.73,4.89-16,4.62-22.86-.86a93,93,0,0,1-9.45-9,4.83,4.83,0,0,1-1-2.77c-.13-1-.3-2.06-.47-3.09a41.29,41.29,0,0,1-.6-4.55,8.37,8.37,0,0,1,4.07-8.18c3.65-2.24,7.44-4.16,11.46-6.18,2.5-1.27,5.1-2.57,7.63-4a18.2,18.2,0,0,0,5.43-4,3.7,3.7,0,0,0,.21-.33c3-4.33,2.68-8.34-.84-11.93l-2.31-2.35L242,213.5a4,4,0,0,0,2.34-3.44l1-18.85a4,4,0,0,0-.19-4.43,4.1,4.1,0,0,0-.94-1.36l-39.6-36.93a4,4,0,0,0-4.37-.73l-4,1.78a4,4,0,0,0-1.92,1.81,3.94,3.94,0,0,0-2.46.18l-43.15,17.62a4,4,0,0,0-2.49,3.65,3.9,3.9,0,0,0,.3,1.56,4,4,0,0,0,1.59,1.88c0,.06.09.13.15.19l.39.42a4,4,0,0,0-.63,5.91l3.87,4.31-1.92.77a3.47,3.47,0,0,0-.33.18c-.1,0-.2,0-.3.09h0l-.57.23-2.29.94L99.13,141.09c-7.7-7.84-17.76-10-27.61-6L63,138.54c-9.12,3.72-15.17,4.07-18,1.05l-4.55-4.85a25.26,25.26,0,0,0,3.42.24c.7,0,1.4,0,2.12-.09,9.86-.79,17.29-6.5,17.29-13.28a9.49,9.49,0,0,0-3.22-7c-3.29-3-8.79-4.57-14.71-4.1-8.86.72-15.74,5.4-17.05,11.25l-.62-.65c-1.05-1.12-1.47-2.09-1.25-2.88,0-.1,0-.21.05-.31.45-1.2,1.7-2.57,4.86-3.87,22.71-9.31,104.5-40.71,148.44-57.57l22.47-8.64q14.7-5.58,29.34-11.17L264.9,24l.56-.1a9.88,9.88,0,0,0-1.28,1,7.6,7.6,0,0,0-2.52,5.57c0,5.65,6.4,10,15.2,10.45l1.21,0c4.91,0,9.28-1.41,11.84-3.86a8.09,8.09,0,0,0,2.15-3.3L434.54,129.9a16.7,16.7,0,0,0-9.17,3l.29-2.25a4,4,0,0,0-1.58-3.74l-18.73-13.86L386.61,99.23a3.9,3.9,0,0,0-2-.77h0a3.53,3.53,0,0,0-.46,0H384l-.41,0-.14,0a2,2,0,0,0-.35.1l-.19,0-.3.13-.21.09,0,0h0l-30.24,15.66-40.17,19.05-.1,0a3.66,3.66,0,0,0-.7.25h0l-9,4.34-4.63,2.23-18.12,8.31-.07,0-14.51,6.67a4,4,0,0,0-2.32,3.3l-.59,6.91a4,4,0,0,0,1,3l1.44,1.59.79.88-2.05,33.24h0a4,4,0,0,0,1.28,3.19l12.16,11.24,7.78,7.19-.51,6.81A4,4,0,0,0,285,236l6.44,6.26Zm145.26-75.11-.16.07c-.46.19-.92.39-1.37.6l-.14.07c-.42.21-.84.42-1.26.65l-.28.16c-.43.24-.87.5-1.29.77l-.27.17c-.39.25-.78.51-1.16.78l-.18.13c-.42.29-.84.6-1.25.92l-.29.23c-.41.32-.82.65-1.21,1l-.13.11c-.37.31-.73.64-1.09,1l-.28.25c-.38.35-.75.71-1.12,1.07l-.25.24c-.32.33-.65.66-1,1l-.21.21q-.54.57-1.05,1.14l-.27.3q-.53.58-1,1.17l-.1.12c-.32.37-.62.74-.93,1.11a3.76,3.76,0,0,1-.25.31l-.92,1.17c-.07.09-.13.18-.2.26l-.79,1.05-.18.24-.86,1.18c-.06.1-.13.19-.2.29l-.83,1.2c-.4.58-.78,1.16-1.15,1.74l-.45.73c-.19.31-.38.62-.56.93s-.39.66-.57,1l-.32.58c-.22.4-.43.81-.64,1.21l-.09.18a34.78,34.78,0,0,0-2.92,7.79l-16.2-12.51h0l-5.74-4.43h0c-.07-.06-.12-.13-.2-.19l-8.91-6.88a54.6,54.6,0,0,1,1.66-5.79c2.44-6.4,6.51-11.93,12.83-17.39a4,4,0,0,0,1.36-2.68l.2-2.28c3-1.88,9-4,13.91-3.82h.14l.15,0c3.68-.12,4.07,1.24,4.2,3.32a4,4,0,0,0,2.1,3.26,1.8,1.8,0,0,0,.19.2l.18.16.17.14Zm-68.43,43.7a23.18,23.18,0,0,0-2.17.85l0,0a31.31,31.31,0,0,0-5.31,3l-.17.12a42.81,42.81,0,0,0-3.51,2.79l-.05.05c-.53.47-1.06,1-1.6,1.48l-.35.35c-.46.45-.92.92-1.38,1.4l-.32.33c-.56.6-1.11,1.21-1.66,1.85l-.14.16c-.49.57-1,1.16-1.47,1.76l-.48.6c-.39.49-.79,1-1.18,1.52l-.47.63c-.53.71-1.06,1.44-1.59,2.2-.43.61-.83,1.22-1.23,1.83-.09.15-.18.3-.28.45-.3.48-.6,1-.88,1.44l-.22.38c-.33.56-.63,1.11-.93,1.66l0,.09a36.48,36.48,0,0,0-3.46,9l-18.68-16h0l-.24-.21-4.27-3.66-.2-.2-9.62-8.22a53.58,53.58,0,0,1,1.82-6.44c2.58-6.74,6.87-12.42,13.51-17.88a4,4,0,0,0,1.44-2.75l.2-2.36a27.76,27.76,0,0,1,14.18-3.29,2.42,2.42,0,0,0,.47,0l.23,0c3.87.13,4.69,1.65,4.84,4.39a4,4,0,0,0,2,3.22,3.64,3.64,0,0,0,.54.57ZM346.85,179a13.54,13.54,0,0,0-8.41-2.84,3.44,3.44,0,0,0-.46,0l-.21,0a35.68,35.68,0,0,0-20.09,5.29,3.75,3.75,0,0,0-1,1L305,188.86l-31.57-28.53,27.47-12.6h.05l11.45-5.43,35.5,29.19Zm-9.18-26.3-17.33-14.25,15.22-7.21v0a4,4,0,0,0,1.15,3.16l2,2Zm18-31h0l16.36-8.47a3.85,3.85,0,0,0,1-.35l10.77-5.72L417.42,132l-.9,6.79a12.89,12.89,0,0,0-7.77-2.14h0c-7.38-.33-16.31,3-20.31,6.31a3.65,3.65,0,0,0-.68.74l-11.11,6.61-29.53-24.19Zm-51.37,115.5a4,4,0,0,0-2,3.64l.13,3.08-1.43.93-1.64-1.55.14-2.36a4,4,0,0,0-1.2-3.12l-6.43-6.25.51-6.87a1.27,1.27,0,0,0,0-.2,2.9,2.9,0,0,0,0-.51c0-.11,0-.23,0-.34a3.12,3.12,0,0,0-.14-.5c0-.1-.06-.2-.1-.3a4.19,4.19,0,0,0-.27-.51c-.05-.08-.08-.16-.13-.23a4.53,4.53,0,0,0-.54-.62l0,0L282,213l-10.8-10,2-32.11,27.69,25a9.45,9.45,0,0,0,3.52,1.79,4.08,4.08,0,0,0,1.87-.47,45.88,45.88,0,0,0-5.61,10.39.38.38,0,0,0,0,.1s0,.05,0,.08c-1.58,4.82-2.28,7.64-2.32,9.45a6.77,6.77,0,0,0,2.66,5.52l3.19,2.73a3.6,3.6,0,0,0,.24,1.08,3.81,3.81,0,0,0,1,1.48l5.66,5.28Zm66,3.83c-10,11.77-18.5,13.36-22.72,11.15a1.24,1.24,0,0,1-.21-.15v0a1.34,1.34,0,0,1-.19-.26l-.06-.11a.42.42,0,0,1,0-.1,2.72,2.72,0,0,1-.14-.43,6.51,6.51,0,0,1-.14-1.9s0-.06,0-.09c0-.22,0-.45.06-.68s.08-.56.13-.86c0-.1.05-.21.07-.32s.09-.43.14-.66.09-.32.13-.49.1-.35.16-.54.12-.41.19-.62.1-.3.16-.46.17-.48.27-.73.09-.25.14-.37c.11-.29.23-.57.36-.87a.14.14,0,0,0,0-.06c.29-.67.63-1.36,1-2.08.05-.09.09-.18.14-.28.14-.27.29-.54.44-.81l.36-.64L351,238l.54-.88c.13-.19.24-.39.37-.58.33-.51.67-1,1-1.54q2.13-3.06,4.26-5.58c6.16-7.3,12.24-11.23,17.49-11.23h.17a3,3,0,0,1,.53.05h0a2.33,2.33,0,0,1,.47.14l0,0a2.31,2.31,0,0,1,.35.18l.11.08a2.53,2.53,0,0,1,.26.22,3.71,3.71,0,0,1,.78,1.15C378.93,223.31,378.28,231.67,370.31,241.05Zm-16.67-52.36,2.44-18.37a4,4,0,0,0-1.42-3.61L345.3,159l1.4-22.94L373,157.6c.14.11.29.2.43.29a4,4,0,0,0,2.91,1.26,3.8,3.8,0,0,0,.89-.11,45.94,45.94,0,0,0-4.61,9s0,.06,0,.09a.59.59,0,0,1,0,.08c-1.5,4.59-2.16,7.27-2.2,9a6.31,6.31,0,0,0,2.76,5.4l3.38,2.61L374.31,198v0a.34.34,0,0,1,0,.1,3.43,3.43,0,0,0,0,.64s0,.06,0,.09l.14,2.77-2.81,2ZM439,195c-12.55,15.19-20.67,12.14-21.55,11.74a.23.23,0,0,1-.11-.08l-.05-.07a1.31,1.31,0,0,1-.16-.38,9.71,9.71,0,0,1,.46-4.88v0c.08-.3.18-.61.29-.93v0a32,32,0,0,1,1.85-4.3l0,0,.5-.93c.08-.15.17-.3.25-.46l.46-.79c.14-.25.3-.5.45-.75s.25-.41.39-.62q.45-.72,1-1.47c5.45-8,11-13.35,16-15.66a13.12,13.12,0,0,1,4.86-1.26h0a2.93,2.93,0,0,1,.61,0l.14,0a1.64,1.64,0,0,1,.39.14l.11.06a2.18,2.18,0,0,1,.78.95C447.13,178,446.54,185.86,439,195ZM439,159.23l-15.53-11.61.18-1.4c2.81,4,8.27,7.06,14.82,8a25.8,25.8,0,0,0,3.68.26,17.93,17.93,0,0,0,9.95-2.65c-.07.18-.13.32-.17.41Z"/><path class="cls-1" d="M161.25,110.18c-3.44-3.43-6.85-7-10.15-10.52-1.69-1.78-3.38-3.56-5.08-5.32a4,4,0,0,0-2.31-1.19l-17.14-2.47a4.05,4.05,0,0,0-2,.21l-5.28,2-23,8.66A4,4,0,0,0,94,104l-2.31,6.79a3.35,3.35,0,0,0-.16.68,4,4,0,0,0-.11,1.16l1.24,17.07a4,4,0,0,0,1,2.35l6.27,7.15.13.14.13.13,6.93,6.81a2.73,2.73,0,0,0,.25.23c4,3.29,19.29,4,21,4.1h.17a4,4,0,0,0,1.41-.25l21-7.93h0L162,138.21a4,4,0,0,0,2.59-3.72l.11-17.92a3.71,3.71,0,0,0-.18-1.16A11.6,11.6,0,0,0,161.25,110.18Zm-5.65,5.66h0l-7.31,2.78a12.67,12.67,0,0,0,.76-1.63,12.15,12.15,0,0,0,.5-7.35C151.55,111.73,153.56,113.81,155.6,115.84Zm-45.12-3.49c2.64-3.76,8.09-6,16.19-6.76.74-.07,1.46-.1,2.16-.1,6.19,0,11,2.44,12.54,5a3.92,3.92,0,0,1,.24,3.6c-.9,2.3-3.44,4.22-7,5.25-14.24,4.15-21.7.12-23.87-2.92A3.34,3.34,0,0,1,110.48,112.35Zm-9.55-4,3.55-1.34c-.19.23-.37.46-.54.7a11.08,11.08,0,0,0-2,5.49l-1.94-2.1Zm47.12,26.57h0l-20.2,7.64c-5.18-.28-13.47-1.31-15.47-2.28l-6.57-6.46-5.31-6-.34-4.7,7.47,8.07a4,4,0,0,0,2.43,1.26l17,2.16.51,0,.23,0,.28,0a4,4,0,0,0,1.42-.26L156.69,124l-.05,7.71Z"/></svg>