<svg id="Layer_1" data-name="Layer 1" xmlns="http://www.w3.org/2000/svg" viewBox="0 0 480 320"><defs><style>.cls-1{fill:#000;}</style></defs><path class="cls-1" d="M470.89,108.27a17.28,17.28,0,0,0-3.54-7.14,5,5,0,0,0-.88-.84,7.19,7.19,0,0,0-3.05-1.55c-.66-.25-1.39-.51-2.21-.76l-29.87-9.26L432.43,80a4.75,4.75,0,0,0-3.38-5.13L383.6,61.6a4.71,4.71,0,0,0-4.34.91l-5.86,4.86a4.73,4.73,0,0,0-1.66,2.42,5.17,5.17,0,0,0-.17,1h0l-.21,3.24-2.67-.78a4.71,4.71,0,0,0-4.46,1L358,79.77a4.68,4.68,0,0,0-1.55,2.8l-.35,2.2-1.9-.56a4.73,4.73,0,0,0-4.78,1.27l-2.73,2.87L208.06,48.81a27,27,0,0,0-21.48,2.33l-30.24,17.5h0L14.12,151c-2.82,1.65-6.07,5.07-5.45,12l.41,4.59c.55,6.15,6.41,8.39,8.92,9.35l21.68,8.28.56,13.75a4.72,4.72,0,0,0,3,4.21l20.32,8.15a4.83,4.83,0,0,0,1.76.34,4.6,4.6,0,0,0,1.37-.21,4.45,4.45,0,0,0,2.29.11,4.72,4.72,0,0,0,3.71-3.94l9.2-6.28,179.32,68.55a36.64,36.64,0,0,0,13,2.56,24,24,0,0,0,17.68-7.21l11.73-12.13,1,0a4.74,4.74,0,0,0,2.83-1.05l3.19-2.57A3.88,3.88,0,0,0,311,249l7.21-7.41a4.71,4.71,0,0,0,1.34-3.41l-.23-9.85.44-.45,9.48,3.14c9.94,3.29,20.21,6.68,30.27,10.12a11.91,11.91,0,0,0,3.87.65,12.89,12.89,0,0,0,2.45-.25,10.81,10.81,0,0,0,1.86-.5h0l.25-.08a2.83,2.83,0,0,0,.43-.2c7.82-3.22,12.92-12.25,15.29-17.45a61.07,61.07,0,0,0,4.91-17.06l3.25,1.38a9.83,9.83,0,0,0,3.89.83,8.72,8.72,0,0,0,3-.53,4.6,4.6,0,0,0,1.15-.64h.05c7.19-2.58,11.61-10.6,14.66-17.29a59.37,59.37,0,0,0,4.14-13.88l.93.47a13.06,13.06,0,0,0,6,1.74,8.49,8.49,0,0,0,1.78-.19,4.72,4.72,0,0,0,3.43-3c5.72-3.09,9.32-10,11.86-15.84a56.31,56.31,0,0,0,3.19-10.33,9.72,9.72,0,0,0,5.06,1.63,7.4,7.4,0,0,0,3.17-.72,4.67,4.67,0,0,0,2.55-3c5.09-3.07,8.34-9.43,10.65-14.84C470.28,125,472.43,113.83,470.89,108.27Zm-78.42,65.24c-1.29,3.38-4.94,13.64-4.89,22l0,0a25.89,25.89,0,0,0-2.73-5.61,9.6,9.6,0,0,0-5.45-4.34L358,178.3l-9-3,1.19-1a4.78,4.78,0,0,0,1.56-2.67,85.9,85.9,0,0,1,7.47-22.18,4.91,4.91,0,0,0,.48-1.8l.1-1.66a6.79,6.79,0,0,1,2.28-1.26l1.1.31a8.71,8.71,0,0,1,.28.88,4.72,4.72,0,0,0,2.21,2.87l1.43.82a4.48,4.48,0,0,0,3.34.52l.55.19a4.61,4.61,0,0,0,3.48,1.54,4.9,4.9,0,0,0,.93-.1l24.18,7.91A60.22,60.22,0,0,0,392.47,173.51Zm-74.65-3.4-33.05-11.78.78-2.61,35,12.15A17.3,17.3,0,0,0,317.82,170.11Zm12.6-9.24-.35.29-38.29-13.3ZM351.58,101l33,10-.39.29-32.66-10ZM320,127.13l34.64,10.79c-.6.43-1.18.88-1.74,1.34l-33.15-10.67ZM309.8,177.31,269,163.37l.5-.41Zm107.66-17.06a16.32,16.32,0,0,0-2.07-3.4c-.05-.06-.08-.13-.13-.19a13.46,13.46,0,0,0-6.22-3.93l-25.69-8.4a4.71,4.71,0,0,0-.06-4.17c-.05-.1-.12-.17-.17-.26,1.16-8,3.72-13.07,6.9-18.68a4.77,4.77,0,0,0,.61-2.33v-.41h0a1.15,1.15,0,0,1,.29.09,4.7,4.7,0,0,0,3.24,3.09l4.3,1.2a4.75,4.75,0,0,0,4,2.21h.1a4.73,4.73,0,0,0,2-.52l23,6.35C422.47,138.43,418.49,150.88,417.46,160.25Zm26.63-31.41a12.84,12.84,0,0,0-1.67-2.17s0,0,0,0l-.23-.21-.24-.22a12.11,12.11,0,0,0-4.88-2.5l-25.79-7.14a4.63,4.63,0,0,0,.52-1.37,70.68,70.68,0,0,1,5.92-17.93,4.7,4.7,0,0,0,.46-1.32l.37-2.06.15.18.25.22c.13.12.26.24.4.35l.32.2a4.49,4.49,0,0,0,.42.24c.12.06.25.1.38.15l.27.11,32.13,10C448.86,111.44,445.59,120.79,444.09,128.84Zm-394.78,60,11,4.2,1.52,7.33-12.22-4.9Zm21.54,8.5-.06-.29.3.12ZM285,258.59c-6.26,6.48-15.5,4.28-20.45,2.39L83.13,191.62l-.33-.12-15.88-6.07a4.76,4.76,0,0,0-1.77-.68l-18.28-7A4.77,4.77,0,0,0,45,177l-23.6-9a9,9,0,0,1-2.87-1.47l-.4-4.46c-.22-2.37.38-2.72.77-3l5.32-3.08a8.27,8.27,0,0,0,.62,11.76c3.15,3.06,8.82,4.83,15.32,4.83h1.07c10.95-.33,18.89-5.32,18.89-11.86a8.49,8.49,0,0,0-2.78-6.2c-3.32-3.22-9.44-5-16.39-4.81a32.61,32.61,0,0,0-7.85,1.15L191.32,59.33c.43-.25.87-.46,1.31-.67,0,.14,0,.29,0,.43,0,4.58,4.91,9.42,15.87,9.89l1.42,0c5.42,0,10-1.38,12.56-3.79a7.66,7.66,0,0,0,1.52-2L342.34,97l-.09,1.48-3-.94a4.74,4.74,0,0,0-4.43.9l-7.19,6a3.86,3.86,0,0,0-.49.5,4.63,4.63,0,0,0-1.09,1.81,4.78,4.78,0,0,0-.19,1.9l-.16,1.69L324,109.8a4.73,4.73,0,0,0-4.43.87l-7.46,6.17a4.89,4.89,0,0,0-1,6.29l-.44,2.52L306,124.13a4.75,4.75,0,0,0-4.52.9l-7.55,6.44a4.72,4.72,0,0,0-1.65,3.23l-.25,3.23-2.44-.82A4.73,4.73,0,0,0,285,138l-8.29,7.08a4.76,4.76,0,0,0-1.58,4.48,4.69,4.69,0,0,0,.56,1.49,4.74,4.74,0,0,0-1.91,3.35l-3.57-1.28a4.76,4.76,0,0,0-4.64.84l-9.06,7.62a4.76,4.76,0,0,0-1.68,3.32l-.51,7.92a4.75,4.75,0,0,0,3.29,4.83l.79.24-1.85,48.23a1.48,1.48,0,0,0,0,.21,4.36,4.36,0,0,0,0,.51c0,.15,0,.29.07.44a3.6,3.6,0,0,0,.12.44c0,.15.1.29.16.44a3.6,3.6,0,0,0,.2.39c.07.14.15.27.23.4l.28.36a2.35,2.35,0,0,0,.3.33l.34.31.37.28c.12.08.25.15.38.22l.46.22a1.76,1.76,0,0,0,.2.09l7.65,2.71c-6.05.19-11.36,2-14.59,5.06a10,10,0,0,0-3.36,7.35c0,7.43,8.79,13.52,20.44,14.17q1,.06,1.95.06c6.49,0,12.25-1.85,15.66-5.08a10,10,0,0,0,3.36-7.36A10.49,10.49,0,0,0,288,240.8l8.61,3-.16,2.92Zm-252.88-97c1.34-.89,4.36-2.16,9.08-2.3,4.49-.14,7.44.86,8.8,1.62-1.34.9-4.36,2.17-9.08,2.31C36.44,163.3,33.48,162.3,32.13,161.54Zm249.16,86.1c-.24.85-4,3.34-11,3-7.3-.41-11.4-3.67-11.5-4.69.22-.78,3.48-3,9.52-3,.47,0,1,0,1.45,0C277.1,243.37,281.2,246.62,281.29,247.64Zm24.95-7.34a4.72,4.72,0,0,0-3.15-4.2l-37-13.1L268,174.65a4.75,4.75,0,0,0-.26-1.73l39.83,13.61L307,198a4.71,4.71,0,0,0-3.59,3.7c-1.4,7.17-2.57,15.21,1.41,19.94a12.61,12.61,0,0,0,4.95,3.63s0,0,0,.07l0,.88a4.28,4.28,0,0,0,0,.62l.22,9.58ZM323.11,219a5.56,5.56,0,0,0-.54-.66,4.71,4.71,0,0,0-4.84-1.12l-.63-.21a4.59,4.59,0,0,0-1.73-.24,3.6,3.6,0,0,1-3.32-1.25c-.26-.31-.89-1.66-.2-7a4.74,4.74,0,0,0,4.28-3.94c1.93-11.7,3.7-17.74,9.63-24.9a4.73,4.73,0,0,0,.93-4.28s0-.07,0-.11a1.82,1.82,0,0,1,.8-.2,3.39,3.39,0,0,1,2.92,2.15,4.74,4.74,0,0,0,2.85,2.66c7.26,2.47,14.48,4.92,21.71,7.36l12.27,4.17c-7.76,9.51-13,27.72-12.08,38.23-7.68-2.59-15.4-5.14-22.92-7.63Zm51.93.36c-2.81,6.17-6.53,10.84-9.87,12.46-.16-.54-.3-1.15-.39-1.57l0-.11h0c-2.22-9.65,6.43-31.92,12.09-35.15l0,.06a17.46,17.46,0,0,1,2.09,4.67,4.4,4.4,0,0,0,.28,1C379.77,203.75,378.52,211.76,375,219.39ZM406,186.07c-3.07,6.72-5.9,10.67-8.64,12a1.13,1.13,0,0,1,0-.15h0c-1.93-8.38,6.55-29.85,11.22-34.45a15.26,15.26,0,0,1,1.2,3C410.52,169.19,409.27,178.81,406,186.07Zm28-30.59c-1,2.28-3.82,8.81-7.22,11-1.54-7.83,5.36-26.82,9.68-31.94a16.82,16.82,0,0,1,.86,2.34C438,139.14,437.2,148.11,434,155.48Zm24.6-27.23c-2.11,4.93-4.1,8.22-5.94,9.82-.78-7.3,4.85-23.27,8.65-28.69.15.4.3.86.46,1.42C462.34,112.89,461.56,121.32,458.6,128.25Z"/><path class="cls-1" d="M153.57,136.81s0-.05,0-.07a4.85,4.85,0,0,0-.29-1.18l-3.34-8.21a4.73,4.73,0,0,0-3-2.75L128.26,119h0l-12.61-3.82a4.72,4.72,0,0,0-2-.16l-4.74.64a4.65,4.65,0,0,0-2,.72L86.69,129.53a4.72,4.72,0,0,0-2.14,3.85v0l-.31,16.24V160a4.73,4.73,0,0,0,3.9,4.65l20.2,8.26.1,0,.09,0,8.31,3a4.57,4.57,0,0,0,1.6.28l.46,0,11.79-1.16a4.61,4.61,0,0,0,2.39-.93l18.2-13.71a4.76,4.76,0,0,0,1.89-3.68l.43-19.28v-.06C153.6,137.21,153.59,137,153.57,136.81Zm-35.83,3.5c-9,.07-14.3-2.94-15-4.23.69-1.31,5.93-4.39,15.05-4.44s14.3,2.94,15,4.23C132.11,137.18,126.87,140.26,117.74,140.31Zm25.38-4.56-.84.63c0-.17,0-.34,0-.51a9.16,9.16,0,0,0-.5-2.92l.21.06Zm.63,18.48-15.3,11.54-9.41.92-7.22-2.59-18.11-7.4v-6.95l0-1.53.3.11h0l14.37,5.15h0l8.87,3.18a6.38,6.38,0,0,0,.72.19l.12,0a4.74,4.74,0,0,0,.75.06h.47l9-.88,2.75-.27a4.72,4.72,0,0,0,1.84-.58,4,4,0,0,0,.55-.36L143.91,147Z"/></svg>