<svg id="Layer_1" data-name="Layer 1" xmlns="http://www.w3.org/2000/svg" viewBox="0 0 480 320"><defs><style>.cls-1{fill:#000;}</style></defs><path class="cls-1" d="M455.72,146.19c-14.91-21.58-31.22-50.58-24.91-83.5,3.23-16.92-3.14-26-9.06-30.66a48.55,48.55,0,0,0-8.84-5.2c-2.89-4.09-9.35-7.53-19.21-8a38.92,38.92,0,0,0-5.53.09,74.46,74.46,0,0,0-20.44-1.43c-8.67.76-17.17,1.64-26.17,2.57-14.22,1.48-28.92,3-44.19,4-35.7,2.24-72.89,2-117-.69-16.76-1-28.87-2.59-38.61-3.84-8-1-14.24-1.83-19.75-1.88a124.35,124.35,0,0,0-18.27,1.16,37.12,37.12,0,0,0-8.39-.32c-10.4.73-17,4.64-19.62,9.07C66.53,32.56,60.28,39.4,57.59,47.3c-1.38,4.07-.75,8,0,12.55C58.66,66.7,60,75.24,56,89.77,50.75,108.48,42.5,123.92,30.73,137c-9.37,10.41-20.62,26.28-10.08,43.91,3.63,6.07,10.75,11.62,20.19,15.59v3.72s0,0,0,.08a2.85,2.85,0,0,0,0,.4c0,.14,0,.28.06.41a.22.22,0,0,1,0,.08,19.34,19.34,0,0,0,1.51,4.27,44.53,44.53,0,0,0,2.88,4.86q1,5.73,2.06,11.46c.5,2.75,1,5.54,1.51,8.34-1.18,2.07-2.46,4.07-3.82,6.16-1.6,2.48-3.26,5-4.71,7.73-5.9,11-6.07,22.3-.48,31.87,8.83,15.12,25.76,23.22,48.94,23.43,9.06.08,18-1.54,27.5-3.25,3.66-.66,7.44-1.34,11.2-1.91C164,288.59,198.21,286,229.3,286.4c55.57.73,101.93,5.27,141.75,13.89a101.69,101.69,0,0,0,21.49,2.44c14.47,0,27.22-3.7,38.06-11.07,16.56-11.26,21-27.6,12.25-44.84a103.44,103.44,0,0,0-6.12-10.12c-1.55-2.34-3-4.57-4.22-6.78l2.14-15.39c3.63-4.06,4.73-7.44,5-9.66.08-.68.14-2.15.23-4.51,0-.65.06-1.43.09-2.16,12.44-5.91,20-13.73,22.59-23.24C464.94,166.07,462.58,156.12,455.72,146.19ZM406.51,31.49l.06.16a.08.08,0,0,1,0,0h0c0,.05,0,.09.05.1v0h0c-.25.95-4.58,3.71-12.94,3.26-8.59-.46-13.29-4-13.35-5.11v0c.43-.78,2.93-2.52,8.07-3.07h0a28.12,28.12,0,0,1,3-.16c.57,0,1.17,0,1.79.05C401.13,27.18,405.72,30.13,406.51,31.49ZM95.88,26.38c.8-.06,1.57-.08,2.3-.08a25.35,25.35,0,0,1,5.25.51l.16,0A15.49,15.49,0,0,1,107,28a4.41,4.41,0,0,1,1.73,1.32v0l0,0c0,.43-.7,1.2-2,2a24.65,24.65,0,0,1-11.45,3.33c-1,.08-2,.1-2.91.08-6.37-.13-9.73-2.25-10-3h0v0h0v0l0-.11a1.34,1.34,0,0,0,.07-.18C83.32,30,87.93,26.94,95.88,26.38ZM422.06,247c0,.17-.05.31-.08.46s0,.21-.05.31c-.39,2-1,2.65-1.52,3-5,3.7-11.76,2.71-15.9-.18a4.54,4.54,0,0,1-2.3-4.46c0-.13,0-.27.05-.41a4.06,4.06,0,0,0,.13-1.09q1.39-11.92,2.85-23.82l.3-2.49a25.33,25.33,0,0,0,20.21,2.14ZM396.39,268.4c.24-2.87.65-5.71,1.08-8.7q.3-2.06.57-4.11a14.52,14.52,0,0,0,1.89,1.56,22.54,22.54,0,0,0,12.85,4,21,21,0,0,0,10.48-2.76c-.26,2.54-.68,5.06-1.12,7.72-.21,1.24-.42,2.47-.61,3.72-.56,3.64-1.54,4.67-1.93,4.95-6.42,4.52-14.81,4-21.37-1.22C397.31,272.87,396.12,271.53,396.39,268.4Zm31.19-58c-4.38,4.33-14.19,4.36-19.43,0a5.25,5.25,0,0,1-1.21-2.23l1.51-3.41a80.19,80.19,0,0,0,23.39-3.39c0,1.12-.1,2.24-.13,2.54C431.63,204.55,431.11,206.87,427.58,210.36Zm-39.67,46-232.27-3.73a14,14,0,0,0,3.88-7.12,23.94,23.94,0,0,0,.9-4.39L163,223.5c1.37-5.42.81-9.64-1.71-12.88-5.4-7-17.31-11.74-29.65-7.41-5.67,2-8.91,6.94-9.16,14l-3.07,17.4c-.07.43-.16.91-.26,1.4a28,28,0,0,0-.59,3.86,13,13,0,0,0-.2,2.16,14.4,14.4,0,0,0,4.47,10.16l-26.15-.42h-.06a4.07,4.07,0,0,0-.61.06l-.95,0-7.53-50.26c.86-.12,1.73-.26,2.61-.41,44.57-7.86,93.66-12.39,134.69-12.44,54.35-.07,102,3.85,145.66,12,8.25,1.53,16,2.74,23.41,3.46Zm-313.1-42,3.94,27.1a.88.88,0,0,1,0,.16.06.06,0,0,1,0,0c.34,2.51,0,3.45-.76,4.1a15.13,15.13,0,0,1-14.18,3c-3.35-.9-4-2.37-4.26-3.84-.75-4.73-1.57-9.48-2.41-14.2a3.88,3.88,0,0,0-.29-1.62c-.53-3-1.07-5.93-1.6-8.85-.14-.81-.29-1.62-.43-2.43A22.54,22.54,0,0,0,62,219h.26C66.16,218.93,71,217.09,74.81,214.42Zm-13,42.13a25.35,25.35,0,0,0,6.52.86,22.34,22.34,0,0,0,15.1-5.66l0,0c0,.31.1.63.15,1,.19,1.33.41,2.66.63,4,.43,2.58.84,5,1,7.46a6.49,6.49,0,0,1-1.82,5.17c-4.39,5-10,6.5-16.82,4.57-3.13-.89-5.07-2.69-5.46-5.05-.47-2.87-1-5.74-1.56-8.53-.27-1.38-.54-2.76-.82-4.24,0-.23-.07-.46-.11-.68A18.68,18.68,0,0,0,61.78,256.55Zm88.83-13.48a4.93,4.93,0,0,1-1.71,3.58c-2.16,2.09-5.78,3.25-9.73,3.13-6.23-.21-11.7-3.83-11.7-7.75a4.92,4.92,0,0,1,1.71-3.58c2-2,5.43-3.14,9.13-3.14h.6C145.14,235.53,150.61,239.15,150.61,243.07Zm4.54-21.37a3.58,3.58,0,0,0-.09.45l-1.34,9.38a24.68,24.68,0,0,0-14.55-5,25,25,0,0,0-10.59,1.88l1.78-10.1a6,6,0,0,0,.06-.61c.12-5.6,2.81-6.54,3.82-6.9,5.55-1.94,15.62-1.76,20.68,4.76C155.26,216,156.3,217.3,155.15,221.7Zm-81-19.12.12.31A4.08,4.08,0,0,0,73,205.06a2.34,2.34,0,0,1-.55.86c-2.24,2.61-7.13,5-10.27,5-4.12.06-7-1-8.83-3.31a33.34,33.34,0,0,1-3.74-5.88,10.65,10.65,0,0,1-.75-2.1v-.39A88.34,88.34,0,0,0,74.17,202.58Zm361.55,47.87c7,13.83,3.81,25.47-9.62,34.59-14.24,9.69-31.69,12.12-53.36,7.43-40.34-8.73-87.23-13.33-143.33-14.07-31.54-.41-66.22,2.21-103.06,7.8-3.87.58-7.71,1.28-11.42,1.95-9.1,1.64-17.7,3.2-26,3.12-20.22-.18-34.78-6.91-42.11-19.47-5.3-9.06-2.59-18.07.62-24,1.06-2,2.26-3.89,3.53-5.86.23,1.36.45,2.72.67,4.07l-.92,3.92c0,.12,0,.23-.06.36a21.42,21.42,0,0,0,.23,7.38c.26,1.4.53,2.8.8,4.2.53,2.73,1.07,5.55,1.53,8.31.89,5.43,5.06,9.71,11.16,11.44A27.58,27.58,0,0,0,72,282.69a22.75,22.75,0,0,0,17.43-8.07,14.37,14.37,0,0,0,3.81-11c-.09-1.3-.24-2.58-.42-3.84l75,1.23h.06a3.68,3.68,0,0,0,.82-.09l220.16,3.53c-.13,1.1-.26,2.21-.35,3.32-.43,5.06,1.23,9.25,4.81,12.12a26.73,26.73,0,0,0,16.7,6.1,24.65,24.65,0,0,0,14.28-4.59c2.75-1.94,4.46-5.3,5.22-10.28.19-1.2.39-2.4.59-3.6.49-2.88,1-5.85,1.27-8.88a23.39,23.39,0,0,0-.65-7.05l-.69-3.27a1.25,1.25,0,0,0,0-.19l.82-5.85A86.93,86.93,0,0,1,435.72,250.45Zm19.11-77.57c-1.92,7.17-8.1,13.27-18.37,18.13-8.92,4.22-18.84,5.85-30,5.76a4,4,0,0,0-1.2,0c-10.1-.19-21.19-1.74-33.41-4C328,184.62,280.29,180.66,226,180.66h-1.2c-41.47.05-91.06,4.62-136.07,12.56-27.79,4.9-54.07-4.56-61.18-16.45-6-10.1-3.22-20.73,9.16-34.45,12.61-14,21.44-30.47,27-50.4,4.52-16.22,2.94-26.11,1.78-33.34-.6-3.78-1-6.51-.29-8.7,1.52-4.48,4.68-8.59,9.28-12.09,0,.18,0,.36.07.55a.09.09,0,0,0,0,0,11.42,11.42,0,0,0,4.2,7.29h0c.43.34.88.66,1.34,1l.3.19c.46.29.94.57,1.43.82l.23.11q.69.34,1.41.63l.25.1c.53.21,1.07.39,1.62.55l.33.1a26.92,26.92,0,0,0,3.53.73l.32,0c.6.07,1.21.14,1.83.18h.16q.9.06,1.8.06h.23c1,0,2,0,3-.13l.2,0c.43,0,.85-.08,1.27-.14l.36-.05c.38,0,.75-.11,1.12-.18l.38-.06c.39-.07.77-.15,1.16-.24l.29-.06c1-.22,1.92-.48,2.86-.77l.24-.08c.38-.12.74-.25,1.11-.38l.38-.14,1-.38.39-.16,1-.43.32-.15a26.7,26.7,0,0,0,2.37-1.29l.3-.19.79-.52.36-.26c.23-.16.45-.33.67-.5l.35-.27.65-.56.28-.25c.3-.28.58-.55.85-.84h0c.12-.12.21-.26.32-.38s.28-.33.4-.5.18-.3.28-.45.2-.31.28-.47a9.69,9.69,0,0,0,1-3.32,15.82,15.82,0,0,0,.12-2v-.71c0-.55,0-1.1,0-1.65v-.13q0-.9,0-1.8c0-.26,0-.51,0-.76,0,0,0-.08,0-.12l-.06-.58a1.55,1.55,0,0,0,0-.21c0-.15,0-.31-.08-.46l-.06-.25a3.31,3.31,0,0,0-.12-.42,2.41,2.41,0,0,0-.08-.25c0-.14-.1-.28-.16-.41a1.86,1.86,0,0,0-.1-.25l-.22-.44-.12-.22c-.1-.17-.21-.34-.33-.52a.71.71,0,0,0-.1-.14l0-.06c2-.07,4-.11,6-.09,5,.05,11.11.83,18.8,1.82,9.85,1.26,22.12,2.84,39.14,3.89,44.47,2.72,82,2.94,118,.68,15.43-1,30.22-2.5,44.51-4,9-.93,17.44-1.81,26-2.56a50.93,50.93,0,0,1,5.47-.15,2.74,2.74,0,0,0-.23.36,3.28,3.28,0,0,0-.2.31l0,0c-.06.07-.1.15-.16.22l-.25.36c-.08.11-.14.23-.21.34l-.21.35c-.06.11-.11.22-.16.33l-.16.34c-.05.12-.09.23-.13.35a3,3,0,0,0-.12.32c0,.12-.07.25-.1.37s-.06.21-.08.31-.05.27-.08.41,0,.19,0,.29,0,.31-.05.47a2,2,0,0,0,0,.25c0,.2,0,.42,0,.63v.12c0,.61,0,1.22,0,1.83v.6c0,.38,0,.75,0,1.13v.74h0s0,.09,0,.13A11,11,0,0,0,372.7,41,8.4,8.4,0,0,0,374,42.81c.27.28.55.55.85.82l.24.21c.22.2.44.38.67.57l.33.25.67.5.36.25.73.46c.11.08.23.15.35.22.28.18.58.34.88.51l.25.13c.39.21.79.41,1.19.61l.18.07c.34.17.7.32,1.05.47l.41.16.87.34.47.17.87.29.47.15.93.27.43.12,1.21.29.17,0L389,50l.34,0,1.08.17.48.06.95.1.52.05.95.06.5,0,1,0h.38c.63,0,1.26,0,1.88-.06l.37,0c.62,0,1.25-.1,1.86-.18l.18,0c.59-.08,1.17-.19,1.74-.3l.27-.06c.59-.12,1.17-.27,1.74-.44l.34-.1c.58-.18,1.15-.37,1.7-.59l.09,0c.53-.22,1.05-.46,1.57-.72l.27-.13c.51-.27,1-.55,1.48-.86l.26-.18a16,16,0,0,0,1.41-1,12,12,0,0,0,2.7-3.15l.09-.15.09-.16a11.37,11.37,0,0,0,1.29-3.85q.12-.81.18-1.59c.79.5,1.48,1,2.06,1.43,6.07,4.77,8.14,12.46,6.15,22.86-6.86,35.84,10.39,66.69,26.19,89.56C454.7,158.79,456.62,166.24,454.83,172.88Z"/><path class="cls-1" d="M423.16,150.68c-8.61-.73-16.49,1.36-21.09,5.58a13.84,13.84,0,0,0-2.11,2.47,10.6,10.6,0,0,0-2.5,4.49,5.23,5.23,0,0,0-.12.54c-.08.53-.16,1.06-.25,1.59-.18,1.15-.38,2.33-.5,3.57-.37,3.55,0,6.44,1.09,8.59,3.46,6.82,10.21,11.66,19,13.61a37.66,37.66,0,0,0,8.2.9c6.75,0,13.11-1.83,17.43-5.2a14.25,14.25,0,0,0,4.67-7.37,40,40,0,0,0,1.37-8.6,10.39,10.39,0,0,0-1.56-6.63C444,157.24,434.59,151.64,423.16,150.68Zm-3.28,7.86c.85,0,1.73,0,2.61.11,9.08.76,16,5.17,17.05,9,0,.09,0,.18.07.27a4.06,4.06,0,0,1,.08.68,3.23,3.23,0,0,1-.1.76,4.54,4.54,0,0,1-1.43,2.19c-2.53,2.32-7.36,3.66-12.69,3.61-.76,0-1.53,0-2.31-.11a32.45,32.45,0,0,1-3.22-.44l-.35-.06-.27-.06c-7.85-1.64-13.36-5.93-13.36-9.4a3,3,0,0,1,.09-.73.11.11,0,0,0,0-.05,3.65,3.65,0,0,1,.27-.69.59.59,0,0,1,0-.08,5.6,5.6,0,0,1,1.12-1.4C410,159.88,414.66,158.54,419.88,158.54Zm-1.46,24.78a24.32,24.32,0,0,1-8-3.3l.12,0c.4.18.81.35,1.22.51h0c.41.16.83.32,1.26.46l.4.14.94.3.44.13,1.05.29.32.08c.46.12.93.22,1.4.32l.32.07,1.12.21.46.07,1.07.16.43.06q.74.09,1.5.15l.33,0q.68.06,1.35.09h.18c.49,0,1,0,1.47,0h0c.5,0,1,0,1.48,0l.51,0,1-.07.57-.05.9-.1.55-.07.94-.14.47-.08,1.27-.26.08,0c.45-.1.9-.22,1.33-.34l.09,0C430.64,184,424.27,184.62,418.42,183.32Z"/><path class="cls-1" d="M82.2,162c-.09-.53-.18-1.07-.26-1.6a2.57,2.57,0,0,0-.12-.55,10.48,10.48,0,0,0-2.5-4.46,14.1,14.1,0,0,0-2-2.37c-4.58-4.21-12.5-6.3-21.14-5.58-11.41,1-20.76,6.48-23.62,13.37a10.29,10.29,0,0,0-1.57,6.61,38.59,38.59,0,0,0,1.37,8.51,14.06,14.06,0,0,0,4.68,7.3c4.32,3.34,10.67,5.15,17.41,5.15a38,38,0,0,0,8.3-.92c8.74-1.94,15.45-6.71,18.9-13.43,1.1-2.14,1.47-5,1.1-8.54C82.57,164.27,82.38,163.11,82.2,162Zm-25.4-6.59c6.26-.52,12.18.85,15,3.5a5,5,0,0,1,1.08,1.35l0,.06a3.44,3.44,0,0,1,.26.67.09.09,0,0,0,0,.05,3.26,3.26,0,0,1,.09.69c0,3.95-7.36,9-17.2,9.79-6.27.52-12.18-.85-15.06-3.5a6.81,6.81,0,0,1-.59-.62l-.09-.13a3.35,3.35,0,0,1-.79-2.06h0a3,3,0,0,1,.08-.65c0-.1,0-.21.07-.31C40.81,160.46,47.74,156.15,56.8,155.39ZM61,179.63c-5.66,1.27-11.8.8-16.15-1.07l.35.09.79.18.54.11.8.15.56.1.85.12.53.06,1,.1.46,0c.45,0,.9.06,1.35.07h.09c.45,0,.91,0,1.37,0h.09l1.13,0h.48c.54,0,1.09-.06,1.65-.11h.1c.45,0,.89-.08,1.33-.13l.5-.07.94-.13.54-.09.9-.16.5-.1c.36-.07.72-.16,1.08-.24l.28-.06,1.3-.35.42-.12.88-.27.49-.16.79-.28.47-.17.85-.34.29-.12A24.69,24.69,0,0,1,61,179.63Z"/><path class="cls-1" d="M229,218.39l-.23,0-5-.09a14.28,14.28,0,0,0,6.09-11.37c0-8.39-8.09-15.22-18-15.22s-18.05,6.83-18.05,15.22a14.12,14.12,0,0,0,5.48,10.9l-14.93-.28a3.22,3.22,0,0,0-.62,0c-6.27.87-7.92,4.74-8.35,6.85a24.89,24.89,0,0,0-1.07,4.65,3.78,3.78,0,0,0,0,.75l.21,5.5a8.14,8.14,0,0,0,6.73,7.94,4.11,4.11,0,0,0,.6.08,2,2,0,0,1,1.31.58l.08.08a12.1,12.1,0,0,0,8.37,3.24h0l30.68.64h.09l.36,0a13.2,13.2,0,0,0,6.85-2.2l.14-.11a8.68,8.68,0,0,1,1.5-1.07,4.11,4.11,0,0,0,.6-.08c5.32-1.12,6.75-4.73,7.14-6.79a4.52,4.52,0,0,0,.06-.74l.08-9.29a3.44,3.44,0,0,0,0-.46C238.78,224.12,237,219,229,218.39ZM212.61,206.7a4.63,4.63,0,0,1-1.74,0A4.63,4.63,0,0,1,212.61,206.7Zm18.45,29.56a2,2,0,0,1-.58.23,10.8,10.8,0,0,0-5.7,2.78,6.64,6.64,0,0,1-2.54.59l-30.54-.63a4.31,4.31,0,0,1-3.06-1.11,10,10,0,0,0-5.87-2.73l-.23-.09a1.42,1.42,0,0,1-.06-.36l-.19-5.05A14.31,14.31,0,0,1,183,227a4,4,0,0,0,.26-1,.35.35,0,0,1,0-.06,3.33,3.33,0,0,1,1.31-.43l43.94.84c2.26.2,2.54.76,2.63,1.39Z"/><path class="cls-1" d="M276.06,219.46h-.12c-7.46,0-14.28,4-17,9.89-2,4.38-1.93,13.11,3.44,17.47h0a22.08,22.08,0,0,0,14.13,5.43,25.75,25.75,0,0,0,12.41-3.53c5.85-3.23,8.1-9.35,6.17-16.79C293.91,227.3,289.84,219.54,276.06,219.46Zm2.51,14.3a3.49,3.49,0,0,1-2,.57,3.54,3.54,0,0,1-2-.57,3.54,3.54,0,0,1,2-.57A3.49,3.49,0,0,1,278.57,233.76Zm6.49,8c-6.7,3.7-12.14,3.36-17.63-1.1h0c-1.91-1.55-2.1-6-1.21-7.93l.26-.49a7.4,7.4,0,0,0-.17,1.57c0,4.8,4.49,8.57,10.22,8.57s10.23-3.77,10.23-8.57a7.58,7.58,0,0,0-.3-2.08,8.26,8.26,0,0,1,.9,2.25C288.83,239.63,286.09,241.14,285.06,241.71Z"/></svg>