<svg xmlns="http://www.w3.org/2000/svg" viewBox="0 0 480 320"><defs><style>.cls-1{fill:#000;}</style></defs><g id="Layer_1" data-name="Layer 1"><path class="cls-1" d="M458.63,105.79,311.53,80.18a22.69,22.69,0,0,0-5.76-.25L21,104.36a7,7,0,0,0-6.34,7l.68,65.84a6.9,6.9,0,0,0,3.64,6l103.93,56.12a7,7,0,0,0,4.58.71l331.28-62.55a6.94,6.94,0,0,0,5.65-6.81v-58A6.92,6.92,0,0,0,458.63,105.79ZM306.45,87.9a14.86,14.86,0,0,1,3.71.16l125.53,21.86-309.5,39.55L30.26,111.59ZM121.63,189.38,22.92,141.26,22.83,133l98.82,45.58Zm0-19.64L22.74,124.12l-.07-6.92,99,39.09ZM23,150.2l98.61,48.07v9.91L23.1,158.4Zm221-7.72v67.41l-114.39,21.6.08-74.4Zm8-1,108.07-13.81V188L252,208.37ZM23.19,167.41l98.41,49.73v12.4L23.28,176.46ZM126.33,232.1l-1-.52h3.68Zm241.72-45.64V126.63l88.32-11.29v54.44Z"/><path class="cls-1" d="M347.46,140.85a4,4,0,0,0-4.54-3.37l-76.47,11.24a4,4,0,0,0,1.17,7.91l76.46-11.24A4,4,0,0,0,347.46,140.85Z"/><path class="cls-1" d="M308.34,158.09c-7,0-12.72,6.78-12.72,15.11s5.7,15.1,12.72,15.1,12.72-6.78,12.72-15.1S315.35,158.09,308.34,158.09Zm0,24.78c-4,0-7.29-4.34-7.29-9.67s3.27-9.68,7.29-9.68,7.29,4.34,7.29,9.68S312.36,182.87,308.34,182.87Z"/></g></svg>