<svg xmlns="http://www.w3.org/2000/svg" viewBox="0 0 480 320"><defs><style>.cls-1{fill:#000;}</style></defs><g id="Layer_1" data-name="Layer 1"><path class="cls-1" d="M289.66,44.15,21.58,79.51v94.27L146.42,275.85l312-69.54V105.8ZM439,107.24l-291.38,51.2L35.33,85.76,288.76,52.34Zm-391.46-4V184.7l-5.82-4.76V99.45Zm8,5.17,6.85,4.44v84l-6.85-5.6ZM70.43,118l7.16,4.63v86.61l-7.16-5.85Zm15.16,9.81,7.15,4.62v89.19l-7.15-5.84Zm15.15,9.8,7.16,4.64V234l-7.16-5.86Zm15.16,9.81,7.15,4.63v94.36l-7.15-5.84Zm15.15,9.8,11.75,7.61v97.73L131.05,253ZM29.58,91.57l4.18,2.7V173.4L29.58,170ZM150.8,266.68V166l299.62-52.65V199.9Z"/><path class="cls-1" d="M409.58,145.13c-10.33,0-18.74,10-18.74,22.25s8.41,22.24,18.74,22.24,18.73-10,18.73-22.24S419.9,145.13,409.58,145.13Zm0,36.49c-5.92,0-10.74-6.39-10.74-14.24s4.82-14.25,10.74-14.25,10.73,6.39,10.73,14.25S415.49,181.62,409.58,181.62Z"/></g></svg>