<svg xmlns="http://www.w3.org/2000/svg" viewBox="0 0 480 320"><defs><style>.cls-1{fill:#000;}</style></defs><g id="Layer_1" data-name="Layer 1"><path class="cls-1" d="M466.82,101a4.07,4.07,0,0,0-.05-.49c0-.1,0-.2-.07-.3s-.08-.28-.13-.41a2.55,2.55,0,0,0-.13-.29c-.06-.13-.13-.26-.2-.38l-.17-.25c-.09-.12-.18-.23-.28-.34l-.2-.21a3.17,3.17,0,0,0-.35-.29,1.84,1.84,0,0,0-.22-.17,4.5,4.5,0,0,0-.43-.23l-.23-.12a3.92,3.92,0,0,0-.71-.22h0L250.14,53a14.89,14.89,0,0,0-4.42-.24L16.77,74.9a4,4,0,0,0-3.59,4h0v90.5a4,4,0,0,0,2.11,3.53L190.6,267h0a3.92,3.92,0,0,0,1.88.48,4.28,4.28,0,0,0,.87-.09l270.36-59.95a4,4,0,0,0,3.13-3.91V101.21C466.84,101.14,466.82,101.07,466.82,101Zm-8,46.2-22.34,3.09C433,137.93,423.11,129,411.52,129c-14.51,0-26.31,14-26.36,31.15L196.49,197.43v-52.8l262.35-38.79Zm-28.22,13.07c0,13.23-8.57,24-19.1,24s-19.1-10.76-19.1-24,8.57-24,19.1-24S430.62,147,430.62,160.26ZM21.16,107.42l167.33,67v21.69L21.16,121.53Zm167.33,58.41L21.16,98.8V84.55L188.49,144ZM21.16,130.29l167.33,74.6v21.55L21.16,144.26ZM246.5,60.68a6.78,6.78,0,0,1,2,.11L440,100.55,192.89,137.07,35.44,81.13ZM21.16,153.17l167.33,82.18v21.39L21.16,167ZM196.49,258.44V205.58L386,168.13c2.95,13.44,13.27,23.38,25.51,23.38,14.53,0,26.36-14,26.36-31.25,0-.7,0-1.39-.07-2.08l21-2.92v45Z"/><path class="cls-1" d="M412,142.77c-8.4,0-15.24,7.6-15.24,16.93s6.84,16.93,15.24,16.93,15.24-7.6,15.24-16.93S420.4,142.77,412,142.77Zm0,26.6c-4.4,0-8-4.34-8-9.67s3.58-9.67,8-9.67,8,4.34,8,9.67S416.4,169.37,412,169.37Z"/><path class="cls-1" d="M135.85,103.34l74.79,24.86a3.87,3.87,0,0,0,1.26.21,4.19,4.19,0,0,0,.5,0l165.11-20.81a4,4,0,0,0,.31-7.89l-94.89-19.6a4,4,0,0,0-1.24-.06l-145,15.55a4,4,0,0,0-.84,7.77ZM281.93,88l70.68,14.6L212.3,120.32l-56.45-18.76Z"/></g></svg>