<svg xmlns="http://www.w3.org/2000/svg" viewBox="0 0 480 320"><defs><style>.cls-1{fill:#000;}</style></defs><g id="Layer_1" data-name="Layer 1"><path class="cls-1" d="M466.93,101a4.07,4.07,0,0,0-.05-.49c0-.1-.05-.2-.07-.29a4.17,4.17,0,0,0-.13-.42c0-.1-.09-.2-.13-.29s-.13-.25-.2-.37-.11-.18-.17-.26-.18-.23-.28-.34l-.2-.21a3.17,3.17,0,0,0-.35-.29c-.08-.06-.14-.12-.22-.17a3.68,3.68,0,0,0-.44-.23,1.51,1.51,0,0,0-.22-.11,3.93,3.93,0,0,0-.71-.23h0L250.25,53a14.91,14.91,0,0,0-4.42-.24L16.88,74.92a4,4,0,0,0-3.59,4h0v90.5a4,4,0,0,0,2.11,3.53L190.7,267h0a3.92,3.92,0,0,0,1.88.48,4.28,4.28,0,0,0,.87-.09l270.35-60a4,4,0,0,0,3.14-3.91V101.23C467,101.16,466.93,101.09,466.93,101Zm-8,46.2-22.35,3.1C433.09,138,423.22,129,411.63,129c-14.51,0-26.31,14-26.36,31.14L196.6,197.45v-52.8L459,105.87Zm-28.22,13.07c0,13.23-8.57,24-19.1,24s-19.1-10.76-19.1-24,8.57-24,19.1-24S430.73,147.05,430.73,160.28ZM21.27,107.44l167.33,67v21.69L21.27,121.56ZM188.6,165.85l-167.33-67V84.57L188.6,144ZM21.27,130.32l167.33,74.6v21.54L21.27,144.28ZM246.61,60.71a6.78,6.78,0,0,1,2,.1l191.46,39.76L193,137.09,35.54,81.15ZM21.27,153.2,188.6,235.37v21.39L21.27,167ZM196.6,258.46V205.61l189.52-37.45c2.95,13.43,13.27,23.37,25.51,23.37,14.53,0,26.36-14,26.36-31.25,0-.7,0-1.39-.07-2.08l21-2.91v45Z"/><path class="cls-1" d="M412.11,142.8c-8.4,0-15.24,7.59-15.24,16.92s6.84,16.93,15.24,16.93,15.23-7.59,15.23-16.93S420.51,142.8,412.11,142.8Zm0,26.59c-4.4,0-8-4.34-8-9.67s3.58-9.67,8-9.67,8,4.34,8,9.67S416.51,169.39,412.11,169.39Z"/><path class="cls-1" d="M136,103.36l74.79,24.86a3.83,3.83,0,0,0,1.26.21,4.19,4.19,0,0,0,.5,0l165.11-20.81a4,4,0,0,0,.31-7.89L283,80.1A4.29,4.29,0,0,0,281.8,80l-145,15.55a4,4,0,0,0-.84,7.77ZM282,88.06l70.69,14.6L212.41,120.35,156,101.58Z"/></g></svg>