<svg xmlns="http://www.w3.org/2000/svg" viewBox="0 0 480 320"><defs><style>.cls-1,.cls-2{fill:none;stroke:#000;stroke-width:8px;}.cls-2{stroke-linecap:round;stroke-linejoin:bevel;}.cls-3{fill:#000;}</style></defs><g id="Layer_1" data-name="Layer 1"><line class="cls-1" x1="146.59" y1="292.58" x2="146.59" y2="139.81"/><line class="cls-1" x1="65.81" y1="225.98" x2="65.81" y2="88.67"/><line class="cls-1" x1="50.91" y1="215.17" x2="50.91" y2="79.99"/><line class="cls-1" x1="37.03" y1="205.19" x2="37.03" y2="72.13"/><line class="cls-1" x1="81.02" y1="238.46" x2="81.02" y2="99.03"/><line class="cls-1" x1="96.22" y1="250.95" x2="96.22" y2="109.4"/><line class="cls-1" x1="111.44" y1="263.45" x2="111.44" y2="119.78"/><line class="cls-1" x1="126.64" y1="275.91" x2="126.64" y2="130.11"/><path class="cls-1" d="M25.42,64.24l118.24,74.92a8.67,8.67,0,0,0,6.06,1.22L452.46,88.67"/><path class="cls-1" d="M144.82,292,27,195.71a6.11,6.11,0,0,1-2.23-4.65L23.67,66.82A6.08,6.08,0,0,1,29,60.74L287.87,26.32a6.1,6.1,0,0,1,2.9.33l160.4,59.11a6.09,6.09,0,0,1,4,5.7V220.37a6.08,6.08,0,0,1-4.75,5.93L150,293.25A6.07,6.07,0,0,1,144.82,292Z"/><line class="cls-2" x1="213.04" y1="154.34" x2="387.85" y2="124"/><path class="cls-3" d="M412.08,159.25c-10.33,0-18.73,10-18.73,22.25s8.4,22.25,18.73,22.25,18.74-10,18.74-22.25S422.41,159.25,412.08,159.25Zm0,36.5c-5.92,0-10.73-6.39-10.73-14.25s4.81-14.25,10.73-14.25,10.74,6.4,10.74,14.25S418,195.75,412.08,195.75Z"/></g></svg>