<svg xmlns="http://www.w3.org/2000/svg" viewBox="0 0 480 320"><defs><style>.cls-1{fill:#000;}</style></defs><g id="ST60"><path class="cls-1" d="M425,105.91a3.89,3.89,0,0,0-2-.66L241.31,33.67a4.09,4.09,0,0,0-2-.24L56.51,58.76l-.15,0a3.18,3.18,0,0,0-.51.13l-.26.09-.17.06-.24.13-.24.14a4.25,4.25,0,0,0-.43.31l-.14.11a5.91,5.91,0,0,0-.48.52l-.09.15a2.6,2.6,0,0,0-.28.45c0,.07-.07.15-.11.23s-.11.28-.16.43a2.5,2.5,0,0,0-.07.26,3.85,3.85,0,0,0-.08.49l0,.22a4.33,4.33,0,0,0,0,.72l4.82,37.33,4.87,38.19a4.07,4.07,0,0,0,.62,1.68l94.22,144.42a4,4,0,0,0,3.35,1.81h.37A976,976,0,0,0,300.23,266.1c62.08-15.23,111.17-54.58,113.23-56.25a4,4,0,0,0,1.46-2.62l11.84-97.51A4,4,0,0,0,425,105.91Zm-359.5-9L62.71,75.22l87,99.2,2.78,41.29Zm92.36,79.34A1375.82,1375.82,0,0,0,303.11,158a406.14,406.14,0,0,0,114.76-41.43l-5,40.9c-1.95,1.76-8.85,7.64-22.07,15.09-14.6,8.23-40.07,20.11-78.44,29.93a869.58,869.58,0,0,1-151.25,22.32ZM239.35,41.5,413.19,110a398.15,398.15,0,0,1-111.57,40.14,1364.28,1364.28,0,0,1-146.54,18.28L65,65.66ZM67.6,113.28l85.91,117.34,2.5,37.12L70.6,136.83Zm230.8,145a967,967,0,0,1-133.65,20.05l-3.08-45.6a877.64,877.64,0,0,0,152.65-22.54c39.55-10.12,65.82-22.43,80.89-31a166.59,166.59,0,0,0,16.31-10.44l-4.35,35.82C399.11,210.84,353.28,244.85,298.4,258.31Z"/><path class="cls-1" d="M324.33,190.48q11.24-3.18,22.32-7a4,4,0,0,0,1.88-.66c12.36-4.35,24.51-9.3,36.34-14.81a4.16,4.16,0,0,0,.73-.44,23.75,23.75,0,0,0,9.18-15.31l0-.21c.72-6.82-1.44-10-3.38-11.48a7.1,7.1,0,0,0-7.06-.81l-.27.11c-5.74,2.28-20.77,8.15-37,13.7l-.4.14c-8.46,2.89-17.21,5.68-25.13,7.83-9,2.43-19,4.69-29.74,6.73-17.87,3.42-36.39,6-55.37,8.58a3.29,3.29,0,0,0-.69.16c-.6.19-14.7,4.87-14.1,16.92.49,9.93,9.9,13.29,14.91,13.7a13.73,13.73,0,0,0,1.4.07c14.61,0,83.15-16.43,86.18-17.16Zm62.39-43.07a10.57,10.57,0,0,1,.15,3.68,15.85,15.85,0,0,1-5.78,9.84c-9.88,4.59-20,8.77-30.27,12.54l1.11-13.12C367.16,155.07,381,149.69,386.72,147.41ZM237.61,199.67l-.29,0c-.75-.07-7.38-.78-7.65-6.13s6.76-8.23,8.29-8.81c17.24-2.33,34.1-4.7,50.52-7.69L288,190.62C263,196.12,241.33,200.24,237.61,199.67Zm58.47-10.84.45-13.34c9.72-1.92,18.84-4,27.13-6.25,6.35-1.72,13.2-3.84,20-6.09l-1.12,13.25q-10.1,3.45-20.32,6.36C313.67,184.82,304.76,186.88,296.08,188.83Z"/><path class="cls-1" d="M323,210.07h-.05a26.46,26.46,0,0,0-16.09,5.86c-10.22,8-13.22,21.31-6.68,29.66,3.36,4.3,8.6,6.46,14.29,6.46a27.56,27.56,0,0,0,25.66-20c1.44-5.77.42-11.25-2.87-15.45S328.87,210.07,323,210.07Zm9.37,20a18.58,18.58,0,0,1-6.72,9.86c-6.64,5.19-15.42,5.53-19.17.73s-1.32-13.24,5.31-18.44a18.5,18.5,0,0,1,11.18-4.15h0a9.77,9.77,0,0,1,8,3.42C332.65,223.7,333.14,226.75,332.32,230.07Z"/></g></svg>