<svg xmlns="http://www.w3.org/2000/svg" viewBox="0 0 480 320"><defs><style>.cls-1{fill:#000;}</style></defs><g id="Layer_1" data-name="Layer 1"><g id="AVR10_20_30_40" data-name="AVR10 20 30 40"><path class="cls-1" d="M426.38,76v-.73h0a4,4,0,0,0-3.66-3.67l-161-12.69h-.46l-203.8,7.3h-.09l-.49.07h-.3l-.46.17-.28.11a4.92,4.92,0,0,0-.45.28l-.22.14a4.77,4.77,0,0,0-.52.48l-.06.06h0a3.85,3.85,0,0,0-.47.67l-.08.18a3,3,0,0,0-.24.55h0a.52.52,0,0,1-.07.31,3,3,0,0,0-.1.49v.13a3.86,3.86,0,0,0,0,.68h0l9.19,88A3.94,3.94,0,0,0,63.91,161l92.5,98.2a4,4,0,0,0,3.33,1.94h.09a3.85,3.85,0,0,0,2.16-.64l248.61-80a4,4,0,0,0,2.7-3c.06-.28,5.35-27.88,7.82-45.92,2.36-17.26,5-52,5.25-55.39A.4.4,0,0,0,426.38,76Zm-165-9.14,114.88,9-222.8,20.8L80.69,73.33Zm-199.1,9,87,27.84c.86,9.65,3.86,45.32,5.3,85.49,1,28.81,1.3,47.43,1.35,57.74L70.66,156.44Zm350.94,54.6c-2,14.78-6,36.15-7.3,43.16l-242,77.84c0-9-.14-28.82-1.36-62.55-1.38-38.67-4.21-73.2-5.2-84.58L418,80.07c-.81,10.66-2.92,36.4-4.83,50.36Z"/><path class="cls-1" d="M375.62,112.29c-3.18.48-70,12-70.39,12.08H305a8.87,8.87,0,0,0-6.47,6.2,3.46,3.46,0,0,0-.15,1c0,1.77-2.55,40.22-2.71,42.34a6.79,6.79,0,0,0,1.74,5.22,6.35,6.35,0,0,0,4.63,2,3.79,3.79,0,0,0,1-.11l69.67-17.36c1.74-.44,4.76-2,5.52-7.42.23-1.71,3.89-35.41,3.91-35.68.13-1.17.52-4.74-1.82-7A5.46,5.46,0,0,0,375.62,112.29Zm-5.31,43a4.61,4.61,0,0,1-.2.91l-66.3,16.52c.5-7.48,2.3-34.86,2.57-40.16a.86.86,0,0,1,.46-.33c3.71-.68,54.77-9.44,67.27-11.56-.52,4.87-3.64,33.42-3.8,34.6Z"/><ellipse class="cls-1" cx="400.97" cy="132.35" rx="8.46" ry="4.42" transform="translate(168.98 485.16) rotate(-74.94)"/><path class="cls-1" d="M295,152.09a22.28,22.28,0,0,0-8.29-12.57,4.12,4.12,0,0,0-.61-1.08,23.43,23.43,0,0,0-15.72-8.39c-15.07-1.5-30.1,11.59-33.49,29.19-1.85,9.57,0,19,5.14,25.86a23.55,23.55,0,0,0,16.71,9.61c.75.06,1.49.09,2.24.09a22.22,22.22,0,0,0,2.82-.16,18,18,0,0,0,3.73.38,23,23,0,0,0,12.34-3.85A37.2,37.2,0,0,0,295,152.09Zm-50.26,8.66c2.43-12.63,12.16-22.3,22.37-22.79-7.22,3.14-13.74,10-17.28,19.11-3.24,8.38-3.32,17-.84,23.92-.18-.22-.37-.43-.54-.67-3.78-5.06-5.13-12.19-3.71-19.57ZM286,171.07a27.41,27.41,0,0,1-10.42,13.35,15,15,0,0,1-8.26,2.57,4.07,4.07,0,0,0-2.89-.53h-.19c-.21-.07-.43-.12-.64-.2-7.78-3-10.67-15.07-6.31-26.33s14.62-18.23,22.4-15.22c3.61,1.4,6.31,4.76,7.59,9.45A27.37,27.37,0,0,1,286,171.07Z"/></g></g></svg>