<svg xmlns="http://www.w3.org/2000/svg" viewBox="0 0 480 320"><defs><style>.cls-1{fill:#000;}</style></defs><g id="ST60"><path class="cls-1" d="M442.6,97.42c0-.15,0-.3-.07-.45s0-.22-.08-.32a3.29,3.29,0,0,0-.16-.44l-.12-.27c-.08-.15-.18-.3-.27-.44l-.14-.19a3.88,3.88,0,0,0-.39-.42,1.59,1.59,0,0,0-.13-.13,5.48,5.48,0,0,0-.46-.34l-.16-.1a2.86,2.86,0,0,0-.47-.22l-.26-.11a2.73,2.73,0,0,0-.41-.1l-.38-.08-.09,0L292.4,79.7a3.77,3.77,0,0,0-.47,0L41.28,85l-.25,0a3,3,0,0,0-.42,0c-.13,0-.24.06-.36.09a2.7,2.7,0,0,0-.4.14,2.49,2.49,0,0,0-.33.16,2.71,2.71,0,0,0-.37.21l-.3.22-.31.29-.14.12-.13.18s-.1.1-.14.16-.06.11-.1.17a3.79,3.79,0,0,0-.2.34c-.06.13-.12.25-.17.39a2,2,0,0,0-.12.34c0,.14-.07.28-.1.42s0,.24,0,.36a2.06,2.06,0,0,0,0,.43c0,.08,0,.15,0,.22l4.95,60.84a3.88,3.88,0,0,0,.4,1.45l42.86,86.42,0,0v0a3.81,3.81,0,0,0,.33.55l.12.15a3.8,3.8,0,0,0,.33.37l.15.13a2.79,2.79,0,0,0,.43.34l.1.07a4,4,0,0,0,.58.3l.18.06a2.54,2.54,0,0,0,.47.14l.21,0a5.05,5.05,0,0,0,.68.06h.27a1.47,1.47,0,0,0,.29-.05,2.48,2.48,0,0,0,.27,0l341.1-72.15.14,0c3.07-.76,4.15-3.39,5.75-14,.84-5.61,1.76-13.34,2.72-23,1.64-16.35,2.86-32.81,2.87-33a2.43,2.43,0,0,0,0-.27c0-.09,0-.17,0-.25S442.6,97.47,442.6,97.42ZM386,96.73,82.42,113.82,53.36,92.76l238.5-5.08Zm-339.92.62L77.36,120l6.5,96.52L50.24,148.76Zm381.6,63.28L92.88,231.45l-7.4-109.79L434.29,102C432.32,127.43,429.51,154.11,427.66,160.63Z"/><path class="cls-1" d="M189.48,147.73a25.07,25.07,0,0,0-4.08-2.4,4,4,0,0,0-.43-.56,26.56,26.56,0,0,0-20.2-8.28h-.13a37.74,37.74,0,0,0-34.78,32.69c-1.18,8.92,1,17.27,6.19,23.5a26.54,26.54,0,0,0,19.23,9.51h.38a25.75,25.75,0,0,0,10.93,2.39c9.71,0,19.85-5.07,26.59-14.31C203.63,175.91,202,156.83,189.48,147.73Zm-51.69,22.5A29.73,29.73,0,0,1,165,144.49a35.9,35.9,0,0,0-24,35.69,29.09,29.09,0,0,0,1.78,8.08c-.21-.23-.43-.44-.63-.68C138.48,183.08,136.91,176.92,137.79,170.23Zm48.92,15.33c-7.86,10.78-21.51,14.27-30.44,7.77A18.31,18.31,0,0,1,149,179.57a27.78,27.78,0,0,1,20.43-28,21.41,21.41,0,0,1,5-.6,17.41,17.41,0,0,1,10.35,3.27C193.7,160.7,194.57,174.77,186.71,185.56Z"/><path class="cls-1" d="M383.67,121l-.19,0C381.05,121.34,260,134,254,134.6c-4.5.46-8,5.82-8.1,9.08l-.16,6.19c-.16,6.09-.38,14.53-.41,15.47a9.1,9.1,0,0,0,2.88,6.65,6.15,6.15,0,0,0,4.07,1.58,5.18,5.18,0,0,0,1-.08l129.48-20,.38-.08a8.3,8.3,0,0,0,5.75-5.16,4.37,4.37,0,0,0,.24-1l.12-1.23c1.62-15.79,1.76-17.72,1.76-18.37,0-.13,0-.26,0-.37A6.8,6.8,0,0,0,383.67,121Zm-2.41,24.14,0,.44h0L253.35,165.38c0-1.59.25-9.51.39-15.3l.16-6a4.52,4.52,0,0,1,1.22-1.6c6.38-.67,113.05-11.8,127.74-13.38C382.67,131.25,382.23,135.79,381.26,145.16Z"/><path class="cls-1" d="M418.3,125.93c-2.87-.69-6.21,3-7.48,8.23s0,10.05,2.9,10.74,6.21-3,7.48-8.24S421.16,126.62,418.3,125.93Z"/></g></svg>