<svg xmlns="http://www.w3.org/2000/svg" viewBox="0 0 480 320"><defs><style>.cls-1{fill:#000;}</style></defs><g id="ST60"><path class="cls-1" d="M452.36,87.33c0-.12,0-.24,0-.36s0-.25,0-.38,0,0,0,0a2.53,2.53,0,0,0-.07-.38,3.25,3.25,0,0,0-.08-.43l-.07-.16a4.29,4.29,0,0,0-.24-.59.18.18,0,0,1,0-.07,3.45,3.45,0,0,0-.41-.59v0l-.07-.06a3.63,3.63,0,0,0-.49-.47.71.71,0,0,0-.14-.1,3.36,3.36,0,0,0-.51-.32l-.23-.11c-.16-.06-.31-.13-.48-.18l-.34-.07a3,3,0,0,0-.43-.07l-.13,0L290.66,74c-.13,0-.26,0-.4,0L31.44,85.22l-.14,0-.45.07-.33.07c-.14,0-.28.1-.41.15l-.32.14-.38.23-.28.19c-.12.1-.23.21-.34.32s-.13.11-.18.17l-.05.07c-.09.11-.17.23-.25.35a3.7,3.7,0,0,0-.21.33.35.35,0,0,0-.05.08,1.45,1.45,0,0,0-.11.29,2.39,2.39,0,0,0-.15.37,3.15,3.15,0,0,0-.09.42c0,.12-.05.23-.06.35a3.73,3.73,0,0,0,0,.47,2.26,2.26,0,0,0,0,.26l5.75,65.71a4,4,0,0,0,.66,1.88l58.24,87.07.09.11.1.14a4,4,0,0,0,.39.43l0,.05a3.83,3.83,0,0,0,.51.39l.14.09a4.66,4.66,0,0,0,.5.25l.1,0a3.07,3.07,0,0,0,.61.18l.17,0a4.76,4.76,0,0,0,.66.07h0l.32,0h0a2.91,2.91,0,0,0,.58-.09l345.26-84.45a4,4,0,0,0,3-3.46l7.5-70.58h0ZM290.41,82l100,5.64L86.32,112.52,47,92.56Zm-254.18,14,45.48,23.1L90.39,227,41.26,153.56Zm401,58.29L99.22,237l-9.4-116.75,354.07-29Z"/><path class="cls-1" d="M226.58,138.46l10.86-1.77a4.78,4.78,0,0,0,4.25-5,3,3,0,0,0-.07-.32,4.52,4.52,0,0,0-5.54-3.21l-10.81,1.72A4.8,4.8,0,0,0,221,135l.06.24A4.52,4.52,0,0,0,226.58,138.46Z"/><path class="cls-1" d="M226.76,163.71,237.21,162h0a4.52,4.52,0,0,0,4.08-4.93v0a4.53,4.53,0,0,0-5.37-3.48l-10.46,1.81h-.07a4.53,4.53,0,0,0-4.09,4.93l0,.07A4.51,4.51,0,0,0,226.76,163.71Z"/><path class="cls-1" d="M236.31,177.92l-10.55,1.54a4.84,4.84,0,0,0-4.16,5.16s0,0,0,.07a4.52,4.52,0,0,0,5.41,3.42l10.55-1.77a4.79,4.79,0,0,0,4.16-4.89s0-.07,0-.1A4.53,4.53,0,0,0,236.31,177.92Z"/><path class="cls-1" d="M200.13,147.84a24.81,24.81,0,0,0-5.57-3.48,28.08,28.08,0,0,0-21.31-9.72h-.45A37.11,37.11,0,0,0,137.32,167c-.11.6-.2,1.22-.26,1.86a28.78,28.78,0,0,0,24.7,31.47,26.24,26.24,0,0,0,13.44,3.6c9.3,0,19.06-4.47,26-12.86a35.06,35.06,0,0,0,8.31-22.74C209.4,160,206.07,152.74,200.13,147.84ZM145,169.66c.05-.47.12-.94.2-1.41l0-.18a29.14,29.14,0,0,1,27.81-25.43,20.73,20.73,0,0,1,3.35.25,35.52,35.52,0,0,0-18.89,12h0c-7.76,9.39-10,21.31-6.95,31.12A20.68,20.68,0,0,1,145,169.66Zm50,16.27c-8.65,10.45-22.71,13.14-31.36,6s-8.65-21.47,0-31.93h0c7.2-8.71,18.17-12,26.63-8.75a4,4,0,0,0,.67.28A17.21,17.21,0,0,1,195,154a18.63,18.63,0,0,1,6.48,14.4A27.19,27.19,0,0,1,195,185.93Z"/><path class="cls-1" d="M429.15,116.25c-3.1-.76-6.68,3-8,8.3s.16,10.29,3.27,11,6.68-3,8-8.29S432.26,117,429.15,116.25Z"/><path class="cls-1" d="M394,105.52l-.36.06c-4.67.81-123.43,14.61-132,15.6a4,4,0,0,0-1.31.38,9.73,9.73,0,0,0-5.37,7.6,3.83,3.83,0,0,0,0,.47c0,.73-.15,9.18-.32,18.13-.22,12-.47,25.5-.49,28.07a7.48,7.48,0,0,0,7.44,8.22,7.18,7.18,0,0,0,1.59-.18l129.41-27.14c3.51-.67,5.85-5.17,6-7.39,0-.42.37-5.36.74-10.59,1.33-18.78,1.77-25.13,1.83-26.52a6.18,6.18,0,0,0,0-1.21A6.32,6.32,0,0,0,394,105.52Zm-2.76,32.66c-.44,6.25-.66,9.3-.73,10.36a3.67,3.67,0,0,1-.31.51L262.08,175.92c0-2.29.28-16.52.49-28,.18-9.93.3-16.36.32-18a1.72,1.72,0,0,1,.53-.93c10.66-1.23,112.05-13,129.53-15.29C392.65,118.36,391.79,130.43,391.24,138.18Zm3.61-24.7.12,0h0Z"/></g></svg>