<svg xmlns="http://www.w3.org/2000/svg" viewBox="0 0 480 320"><defs><style>.cls-1{fill:#000;}</style></defs><g id="Layer_1" data-name="Layer 1"><g id="AVR10_20_30_40" data-name="AVR10 20 30 40"><path class="cls-1" d="M426.36,76v-.47a1,1,0,0,1,0-.24,0,0,0,0,1,0,0,4,4,0,0,0-3.7-3.69L261.73,58.9h-.46L57.47,66.18h-.09l-.49.07a.54.54,0,0,0-.3.06,3.12,3.12,0,0,0-.46.17l-.28.11a3.35,3.35,0,0,0-.45.27l-.22.14a4.06,4.06,0,0,0-.52.49l-.06.05h0a3,3,0,0,0-.47.67.23.23,0,0,1-.08.17,3,3,0,0,0-.24.56h0a.48.48,0,0,1-.07.3,3.16,3.16,0,0,0-.1.5.29.29,0,0,0,0,.16,3.86,3.86,0,0,0,0,.68h0l9.19,88.06A4,4,0,0,0,63.91,161l92.5,98.2a4,4,0,0,0,3.33,1.94h.09a4.08,4.08,0,0,0,2.16-.65l248.61-80a4,4,0,0,0,2.7-3c.06-.27,5.35-27.88,7.82-45.91,2.36-17.26,5-52.06,5.25-55.39C426.37,76.12,426.36,76.08,426.36,76Zm-165-9.14L376.2,76,153.44,96.66,80.66,73.36Zm-199.1,9,87,27.83c.86,9.65,3.86,45.33,5.3,85.5,1,28.81,1.3,47.42,1.35,57.73l-85.22-90.5Zm350.94,54.61c-2,14.77-6,36.14-7.3,43.16l-242,77.84c0-9-.14-28.83-1.36-62.56-1.38-38.67-4.21-73.2-5.2-84.57L418,80.1c-.83,10.65-2.94,36.4-4.85,50.36Z"/><path class="cls-1" d="M375.6,112.31c-3.18.49-70,12-70.39,12.09H305a8.83,8.83,0,0,0-6.47,6.21,3.37,3.37,0,0,0-.15,1c0,1.78-2.55,40.23-2.71,42.35a6.82,6.82,0,0,0,1.74,5.22,6.37,6.37,0,0,0,4.63,2,4.27,4.27,0,0,0,1-.12l69.6-17.26c1.73-.43,4.76-2,5.52-7.41.23-1.71,3.89-35.41,3.91-35.68.13-1.17.52-4.74-1.82-7A5.52,5.52,0,0,0,375.6,112.31Zm-5.31,43a5.36,5.36,0,0,1-.2.92l-66.3,16.53c.5-7.48,2.3-34.87,2.57-40.17a.81.81,0,0,1,.46-.33c3.71-.67,54.77-9.45,67.27-11.56-.52,4.87-3.64,33.42-3.8,34.59Z"/><ellipse class="cls-1" cx="400.94" cy="132.37" rx="8.46" ry="4.42" transform="translate(168.94 485.15) rotate(-74.94)"/><path class="cls-1" d="M294.94,152.12a22.34,22.34,0,0,0-8.28-12.58,4.61,4.61,0,0,0-.61-1.08,23.38,23.38,0,0,0-15.72-8.38c-15.07-1.51-30.1,11.59-33.49,29.19-1.85,9.57,0,19,5.14,25.86a23.54,23.54,0,0,0,16.71,9.6,21,21,0,0,0,2.24.11,26.67,26.67,0,0,0,2.82-.17,19.35,19.35,0,0,0,3.73.39,23.13,23.13,0,0,0,12.34-3.86A37.22,37.22,0,0,0,295,152.12Zm-50.28,8.66c2.43-12.63,12.16-22.3,22.37-22.79-7.22,3.14-13.74,10-17.28,19.11-3.24,8.37-3.32,17-.84,23.91-.18-.22-.37-.42-.54-.66C244.66,175.28,243.26,168.15,244.66,160.78Zm41.26,10.33a27.48,27.48,0,0,1-10.42,13.34,15.14,15.14,0,0,1-8.26,2.57,4,4,0,0,0-2.89-.52h-.19c-.21-.08-.43-.12-.64-.2-7.78-3-10.67-15.07-6.31-26.33s14.62-18.23,22.4-15.22c3.61,1.4,6.31,4.75,7.59,9.45a27.42,27.42,0,0,1-1.26,16.9Z"/></g></g></svg>