<svg xmlns="http://www.w3.org/2000/svg" viewBox="0 0 480 320"><defs><style>.cls-1{fill:#000;}</style></defs><g id="ST60"><path class="cls-1" d="M431.14,76.92a4,4,0,0,0-3.46-4l-180-23.53a4.28,4.28,0,0,0-.8,0L52.55,63.25l-.13,0a2.57,2.57,0,0,0-.4.07,2.22,2.22,0,0,0-.37.09,2,2,0,0,0-.34.13,3,3,0,0,0-.36.16l-.32.2-.31.22a3.45,3.45,0,0,0-.28.26l-.27.28-.21.29c-.08.12-.16.24-.23.37a1.19,1.19,0,0,0-.09.15.94.94,0,0,0-.06.15,3.52,3.52,0,0,0-.15.42,2.14,2.14,0,0,0-.09.34,2.63,2.63,0,0,0-.06.39,2.8,2.8,0,0,0,0,.4c0,.06,0,.1,0,.16l2.6,96A4,4,0,0,0,52.53,166l96.72,102.69a4,4,0,0,0,3.42,1.94h0a4,4,0,0,0,2.13-.64L414.77,186.4a4,4,0,0,0,2.74-3.3L431.13,77.42A4.21,4.21,0,0,0,431.14,76.92ZM247.05,57.37,397.56,77,152.21,111,68,70.16ZM57,73.71l90.51,43.93,1.07,138.69L59.4,161.65ZM409.9,179.56,156.62,261l-1.09-142.39,267-37Z"/><path class="cls-1" d="M373.1,113.08c-3,.43-65.25,10.52-65.62,10.58l-.18,0a8.42,8.42,0,0,0-6.26,5.73,3.59,3.59,0,0,0-.17,1.08c-.06,1.74-2.37,35.1-2.53,37.05a6.39,6.39,0,0,0,1.64,4.9,6.24,6.24,0,0,0,4.57,2,4,4,0,0,0,.91-.1l65-15.2c2.89-.68,4.86-3.19,5.4-6.89.23-1.55,3.63-31,3.65-31.27.13-1.07.5-4.33-1.72-6.49A5.41,5.41,0,0,0,373.1,113.08Zm-5.21,38a3.53,3.53,0,0,1-.08.44l-61.33,14.35c.51-7.19,2-29.21,2.34-34.31a.51.51,0,0,1,.18-.08c3.43-.58,50.15-8.12,62.36-10.06C370.72,127.1,368,150.1,367.89,151.12Z"/><path class="cls-1" d="M403.79,120.42c-3.32-.89-7.39,3.53-9.1,9.88s-.4,12.21,2.92,13.1,7.39-3.52,9.1-9.87S407.11,121.32,403.79,120.42Z"/><path class="cls-1" d="M250.65,190.53a26,26,0,0,0,2.92-.17,18.89,18.89,0,0,0,3.68.36c10.56,0,21.56-8.45,26.61-21.5,5.4-13.95,2.24-28.59-6.89-35.2a3.91,3.91,0,0,0-.64-1.14,23.83,23.83,0,0,0-16.05-8.56c-15.43-1.54-30.77,11.85-34.24,29.85-1.89,9.79,0,19.43,5.26,26.45a24.11,24.11,0,0,0,17.06,9.81C249.12,190.49,249.88,190.53,250.65,190.53Zm25.75-24.2c-4.57,11.8-14.94,18.83-23.1,15.67-3.74-1.45-6.53-4.92-7.85-9.77a28.2,28.2,0,0,1,1.32-17.37c3.83-9.89,11.72-16.43,19-16.43a11.38,11.38,0,0,1,4.11.76C278,142.35,281,154.53,276.4,166.33Zm-42.51-10.64c2.55-13.23,12.89-23.31,23.6-23.48-7.58,3.1-14.48,10.19-18.18,19.76a36.17,36.17,0,0,0-1.58,22.37c.24.87.51,1.71.82,2.52-.29-.33-.57-.66-.84-1C233.82,170.62,232.43,163.28,233.89,155.69Z"/><path class="cls-1" d="M189,164.1c-2.41-.5-5.37,2-6.61,5.58s-.29,6.9,2.12,7.41,5.37-2,6.61-5.58S191.39,164.61,189,164.1Z"/><path class="cls-1" d="M207.64,161.07c-2.41-.5-5.37,2-6.61,5.58s-.29,6.9,2.12,7.4,5.37-2,6.61-5.58S210.05,161.57,207.64,161.07Z"/><path class="cls-1" d="M181.5,212.83l-9.83,2.82a6.23,6.23,0,0,0-4.27,5.66h0a3.19,3.19,0,0,0,4.31,3.2l9.83-2.82a6.24,6.24,0,0,0,4.27-5.66A3.19,3.19,0,0,0,181.5,212.83Z"/><path class="cls-1" d="M367.29,171.8,251.14,204c-2.77.77-5,3.5-5,6.07s2.33,4.05,5.1,3.28l116.16-32.16c2.77-.76,5-3.5,5-6.07S370.06,171,367.29,171.8Z"/><path class="cls-1" d="M388.19,133.5c-.85-.18-1.91.71-2.35,2s-.1,2.46.75,2.63,1.92-.7,2.36-2S389.05,133.68,388.19,133.5Z"/></g></svg>