<svg xmlns="http://www.w3.org/2000/svg" viewBox="0 0 480 320"><defs><style>.cls-1{fill:#000;}</style></defs><g id="Layer_1" data-name="Layer 1"><path class="cls-1" d="M454.2,189.76V125.24h0c0-7.57-10-10.1-12.27-10.58l-5.16-1.29-.19,0C430,112,276.53,81.6,270.19,80.44a106.68,106.68,0,0,0-12.44-1.5,128.62,128.62,0,0,0-34.33-.07c-4.81-.06-13,1.63-13.95,1.83C208,81,57.22,112,43.13,114.81c-15,3-17.13,8.83-17.32,11.27h0v.48c0,1.57.23,59.16.23,64.43,0,8.11,12.87,10.89,16.94,11.56l1,.2c1,1.37,3.09,2.38,7.25,3.66,4.69,1.44,14.67,1.57,18.25,1.57h.77L208.78,235.6q3.5.69,7,1.17l.42.44c1.17,1.23,6.16,5,22.56,5l2.81,0c13.12-.33,20.89-2.32,23.12-5.91,4.18-.55,6.8-1,7.19-1.1,1.17-.24,90.57-18.69,138-28.55l.54,0h.65c1.41,0,4-.11,8.66-.26,11.89-.38,15.79-3.67,17-5.35l.93-.2c8.39-1.81,13.46-4.26,15.5-7.51A5.91,5.91,0,0,0,454.2,189.76ZM211.09,88.53c2.38-.49,9.24-1.74,12.48-1.66h.36l.35-.06c.16,0,16.39-2.44,32.44.06l.43,0a99.8,99.8,0,0,1,11.59,1.38c5.1.94,109.9,21.7,150.45,29.74-14.65,2.95-123.6,24.87-150,30-27.46,5.31-56.07.35-56.3.31L61.79,119.19C104.89,110.39,209.82,88.79,211.09,88.53ZM44.68,122.66l2.69-.54c3.24,2.78,8.74,4.18,12.52,4.85l151.5,29.24a185.94,185.94,0,0,0,29.75,2.3,157.26,157.26,0,0,0,29.53-2.63c28.25-5.46,150.49-30.08,151.68-30.32,5.65-1.07,9.74-2.57,12.25-4.47l.32.07,5.15,1.28.15,0a15.32,15.32,0,0,1,5.45,2.25,38.57,38.57,0,0,1-9.38,3c-1.35.28-134.82,28.19-165.63,34.15-30.06,5.81-61.38.38-61.61.34l-165.51-33a33.1,33.1,0,0,1-9-2.87C35.81,125.38,38.6,123.85,44.68,122.66Zm-.22,72-.13,0c-4.51-.75-9.41-2.61-10.31-3.89,0-5-.14-39.71-.2-55.95a43.65,43.65,0,0,0,8.24,2.23l165.51,33a197.69,197.69,0,0,0,29.22,2.49l.35,57.59a138.36,138.36,0,0,1-26.8-2.36ZM436,193c-3.19.68-13.35,2.8-27.16,5.67l-3.72.26,0,.51c-48.09,10-133.72,27.66-134.81,27.88a200.8,200.8,0,0,1-25.24,2.58l-.35-57.46a165.09,165.09,0,0,0,27.39-2.8c30.86-6,164.4-33.88,165.68-34.15a50.87,50.87,0,0,0,8.34-2.25v56.05C445.5,189.93,443.07,191.52,436,193Z"/><path class="cls-1" d="M235.74,124.73s24.89.21,26.33-4S240,115.85,240,115.85s-20.64.61-22.23,4.33S235.74,124.73,235.74,124.73Z"/><path class="cls-1" d="M355.13,173l-.7-.1-.69.15a6.58,6.58,0,0,0-4.92,5.38,6,6,0,0,0,4.34,7l.54.1a5.63,5.63,0,0,0,.58,0,6.39,6.39,0,0,0,.85-12.6Z"/></g></svg>