<svg xmlns="http://www.w3.org/2000/svg" viewBox="0 0 480 320"><defs><style>.cls-1{fill:#000;}</style></defs><g id="Layer_1" data-name="Layer 1"><path class="cls-1" d="M305.81,287.44l-.12-6.11v0l-5.17-130.6.05,0a.79.79,0,0,0,.13-.13,1.8,1.8,0,0,0,.31-.4,1.46,1.46,0,0,0,.28-.31l.29-.49.06-.11a3,3,0,0,0,.5-.68,1.18,1.18,0,0,0,.23-.31q.13-.26.24-.51l.23-.18v-.14a3.6,3.6,0,0,0,.57-1.27l.6-.77-.14-.11a3.26,3.26,0,0,0,.18-.63l.58-.57-.2-.17a3.86,3.86,0,0,0,.36-1.34,3.68,3.68,0,0,0,.42-1.76,3.76,3.76,0,0,0,.19-2.07c0-.06,0-.12.05-.17l.19,0v-.86s0,0,0-.08h0l0-.88a1.62,1.62,0,0,0,0-.21l0-.31a1.86,1.86,0,0,0-.07-.34l-.06-.57v-.13a3.58,3.58,0,0,0-.32-1.51,3.78,3.78,0,0,0-.57-1.74,3.71,3.71,0,0,0-.92-1.61,3.88,3.88,0,0,0-1.2-1.37,12.93,12.93,0,0,0-2.83-1.71l1.63-6.82L305.7,85a3.69,3.69,0,0,0-.16-1.56,3.83,3.83,0,0,0-.42-2.71l-4-6.93a1.1,1.1,0,0,0-.2-.27,4.54,4.54,0,0,0-.45-.51,3.91,3.91,0,0,0-.51-.46l-.12-.11-98.67-57-.11-.06a1.44,1.44,0,0,0-.34-.14,3.67,3.67,0,0,0-1-.33h-.23a3.72,3.72,0,0,0-1.29.1l-.16,0a3.81,3.81,0,0,0-1,.43L176.41,29.15a4.19,4.19,0,0,0-2.17,3.42,1.22,1.22,0,0,0-.06.39l1.7,211.17a3.77,3.77,0,0,0,1.8,3.16l0,0a2.8,2.8,0,0,0,.64.52l97,56a1.94,1.94,0,0,0,.55.2,3.65,3.65,0,0,0,2.46,1,3.93,3.93,0,0,0,1.8-.45L303.73,292a3.8,3.8,0,0,0,2-3.76A3,3,0,0,0,305.81,287.44Zm-34.11-10a3.16,3.16,0,0,0,.13.77,2.43,2.43,0,0,0-.08.75l.58,14.29L183.49,242,181.86,39.05l88,50.81c0,.11,0,.22,0,.34ZM289.91,75.56l-14.77,8.53L185.47,32.31l13.78-9.1Zm3.19,80.72,5,125.13.09,4.92-4.37,2.33-.86-132.3Zm.66-37.48L292,126.38h0l-4.16-31,9.66-5.58ZM282.07,88.9l14.2-8.2.42.71-13.84,8Zm-4,59.57.62,1a3.77,3.77,0,0,0,2.46,1.74,1.47,1.47,0,0,0,.07.38,2.58,2.58,0,0,0,.24.52l.12.23a2.28,2.28,0,0,0,.29.49,3.66,3.66,0,0,0,1,1.43,3.81,3.81,0,0,0,1.79,1.48,4.17,4.17,0,0,0,.61.38l.89,136.57-6.1,3.26-.71-17.28a2.28,2.28,0,0,0-.12-.65,2.73,2.73,0,0,0,.09-.64Zm6.55-18.93a3.59,3.59,0,0,0-.57-.11l.24-2.56.36,2.68Zm-7.08-34.48,2,1.28-1.78,18.79Z"/></g></svg>