<svg xmlns="http://www.w3.org/2000/svg" viewBox="0 0 480 320"><defs><style>.cls-1{fill:#000;}</style></defs><g id="Layer_1" data-name="Layer 1"><path class="cls-1" d="M309.36,52.26a7.83,7.83,0,0,0-2.85-6l-4.43-3.66a12.67,12.67,0,0,0-4.3-2.33L204.1,10.92a13.31,13.31,0,0,0-8.37.12L174,18.51a6.63,6.63,0,0,0-4.48,6.27V260.13a8.81,8.81,0,0,0,5.12,8l88.06,40.43a12.6,12.6,0,0,0,5.29,1.15,12.76,12.76,0,0,0,4.48-.81l24.8-9.39a14.42,14.42,0,0,0,6.78-5.3l3.7-5.37a14.93,14.93,0,0,0,2.65-8.6ZM295.3,121.1l-24.15,19.08.09-17a12.56,12.56,0,0,0-.58-3.8l-2.82-9a4.85,4.85,0,0,1-.22-1.47V84.15a5.64,5.64,0,0,1,.39-2.07l2.57-6.43a9.24,9.24,0,0,0,.66-3.45V56.33l23.82,8.5,3.23,9.45a10.65,10.65,0,0,0-3.56-1.07,10.77,10.77,0,0,0-5,.68,10.32,10.32,0,0,0-1.17-.21C281,72.86,274,80.25,273,90.15s4.15,18.63,11.65,19.45a11.46,11.46,0,0,0,1.17.06,11,11,0,0,0,3.88-.73,11.05,11.05,0,0,0,1.15.2,11.48,11.48,0,0,0,1.17.07,12.58,12.58,0,0,0,9.26-4.49l.15-.19ZM281,82.75c0,.09-.08.18-.11.27-.17.39-.33.78-.48,1.18l-.18.52c-.11.34-.22.68-.32,1s-.11.4-.16.6c-.1.36-.18.72-.25,1.09l-.12.56c-.1.55-.19,1.12-.25,1.69s-.09,1.08-.11,1.62c0,.13,0,.26,0,.39,0,.5,0,1,0,1.5l0,.44c0,.37.05.73.09,1.09l.06.53c.06.42.13.84.21,1.24,0,.23.09.45.14.67s.12.5.18.74.19.69.3,1,.14.44.22.66.17.46.26.68.2.48.31.71.27.58.41.87.21.4.32.59l.32.55q.28.47.6.9l.33.44.51.62c.1.12.19.24.3.35-4.52-1.52-7.45-7.72-6.69-14.72.58-5.28,3.11-9.67,6.35-11.72A20.23,20.23,0,0,0,281,82.75Zm10.22,22.41a7.6,7.6,0,0,1-.83-.16l-.31-.09a9.25,9.25,0,0,1-5.51-5.2l-.06-.12c-.13-.28-.25-.57-.37-.86,0-.07-.05-.15-.08-.22-.1-.27-.2-.55-.29-.84l-.09-.31c-.08-.27-.15-.54-.21-.82l-.09-.4-.15-.79c0-.16,0-.33-.07-.49s-.06-.5-.08-.75,0-.41-.05-.61,0-.45,0-.68,0-.53,0-.79,0-.36,0-.54c0-.45.05-.91.1-1.37s.1-.82.17-1.23c0-.13.05-.27.08-.4s.11-.53.17-.8.07-.29.11-.44.14-.51.21-.76l.12-.39c.12-.36.24-.7.37-1l.18-.41c.08-.2.17-.41.26-.6s.16-.34.25-.5l.24-.46c.1-.17.19-.35.3-.52l.19-.32a11.55,11.55,0,0,1,4.85-4.45l.31-.14a7.22,7.22,0,0,1,2.62-.51,6,6,0,0,1,.73,0c5.32.58,9,7.32,8.12,15a17.42,17.42,0,0,1-4.13,9.8C296.19,104.31,293.7,105.43,291.24,105.16Zm3.3-45.83-17.6-6.28,17.6-4.95Zm8.15-8.45a1.83,1.83,0,0,1,.67,1.41l.1,21.66-3.92-11.48V48.27Zm-105-34.17a7.44,7.44,0,0,1,4.63-.06l87.82,27.5-21.44,6L179.9,22.83ZM175.56,260.13V36.77l77.24,24V297.38l-75.62-34.72A2.78,2.78,0,0,1,175.56,260.13Zm83.24,40V56.34L175.56,30.48V26.73l90.68,27.92V72.2a4.37,4.37,0,0,1-.3,1.6l-2.57,6.43a10.51,10.51,0,0,0-.75,3.92V109a10.06,10.06,0,0,0,.45,3l2.82,8.95a7.34,7.34,0,0,1,.35,2.28l-.94,180-.06,0Zm11.59,3.13-.09,0,.81-156.72,23.65-18.69V294Zm32.46-17.86-3.09,4.48V123.46l3.89-10.59.79,167.38A9,9,0,0,1,302.85,285.41Z"/><ellipse class="cls-1" cx="201.99" cy="23.18" rx="6.43" ry="1.85"/><path class="cls-1" d="M217.69,30c3.55,0,6.43-.83,6.43-1.85s-2.88-1.85-6.43-1.85-6.42.83-6.42,1.85S214.14,30,217.69,30Z"/><path class="cls-1" d="M233.12,34.85c3.55,0,6.42-.83,6.42-1.85s-2.87-1.85-6.42-1.85-6.43.83-6.43,1.85S229.57,34.85,233.12,34.85Z"/><path class="cls-1" d="M180.7,45.88V230.46l66.85,27.62V67ZM242.55,250.6,185.7,227.12V52.71l56.85,18Z"/><path class="cls-1" d="M268.12,47.07c.73,0,7.1-.08,7.1-2.75V42.56c0-2.68-6.37-2.75-7.1-2.75s-7.1.07-7.1,2.75v1.76C261,47,267.39,47.07,268.12,47.07Zm4.8-4.51a5.69,5.69,0,0,1-.81.29l-.12,0-.38.1-.21,0-.39.07-.2,0-.48.07-.17,0-.52,0h-.27l-.46,0-.79,0-.79,0-.47,0h-.26l-.52,0-.17,0-.49-.07-.18,0-.41-.07-.2,0-.38-.1-.12,0a5.69,5.69,0,0,1-.81-.29,15.73,15.73,0,0,1,9.6,0Z"/></g></svg>