<?xml version="1.0" encoding="UTF-8"?>
<svg id="Artwork" xmlns="http://www.w3.org/2000/svg" viewBox="0 0 480 320">
  <defs>
    <style>
      .cls-1 {
        fill: #000;
      }
    </style>
  </defs>
  <path class="cls-1" d="m308.09,107.67c1.16-6.76-.18-13-3.18-16.96l1.01-41.35-1.12-.93c-.96-.79-17.88-10.5-19.44-10.99l-84.11-20.29c-2.36-.72-4.94-.67-7.28.13l-18.36,6.32c-2.45.84-4.1,3.15-4.1,5.75v208.65c0,2.9,10.8,22.16,13.89,23.58l.92-2h.01s-.88,2.02-.88,2.02l95.52,41.72,13.92-3.45,9.74-9.86-3.54-168.78c3.46-3.01,6.04-7.96,7-13.59Zm-4.93-.84c-.84,4.9-3.19,9.22-6.14,11.28-1.41.98-2.8,1.36-4.13,1.11-.22-.04-.42-.11-.63-.18l-.21-.08c-1.9-.76-3.58-3-4.45-6.19-.02-.07-.03-.14-.05-.21-.07-.26-.13-.52-.19-.8-.48-2.36-.53-5.08-.06-7.86,0-.02,0-.05,0-.07,0,0,0,0,0,0,.1-.55.21-1.1.35-1.63.02-.09.04-.17.06-.26.13-.51.28-1,.44-1.49.03-.1.07-.2.1-.3.17-.48.35-.95.55-1.41.03-.08.07-.15.1-.23.2-.45.41-.89.64-1.31.02-.03.03-.06.05-.09.24-.44.49-.85.75-1.25.04-.06.08-.13.13-.2.26-.38.54-.75.82-1.09.04-.05.09-.11.13-.16.29-.34.6-.67.91-.96.03-.03.06-.05.09-.08.33-.3.67-.58,1.02-.83.24-.17.49-.31.73-.45.11-.06.22-.11.34-.17.77-.37,1.52-.57,2.26-.57.27,0,.54.02.8.07,4.32.8,6.88,7.85,5.59,15.39Zm-14.73,188.49l-5.63,1.39-7.47-14.29,13.86-118.79-.76,131.69Zm-21.21-178.3l20.39,8.47-14.12,121.02-6.26-129.49Zm-34.51-67.94l-55.15-5.08v-11.9s55.15,16.98,55.15,16.98Zm65.78,37.45c-1.59-.29-3.21-.16-4.79.36-.28-.08-.56-.15-.83-.2-.27-.05-.54-.08-.81-.11l4.27-26.64,3.41-2.76-.72,29.49c-.18-.04-.35-.1-.53-.14Zm-32.12,12.76l13.32-4.59c-1.38,2.47-2.4,5.36-2.93,8.45-.72,4.19-.47,8.18.53,11.55l-10.38-4.31-.54-11.1Zm16.75.55c-.02.08-.04.16-.07.24-.11.38-.21.76-.3,1.14-.03.12-.06.24-.09.37-.1.46-.2.93-.28,1.4,0,0,0,0,0,.01h0c-.9,5.23-.3,10.16,1.4,13.95-2.06-2.85-2.98-7.78-2.1-12.95.44-2.55,1.28-4.94,2.41-6.94-.37.89-.7,1.82-.98,2.78Zm2.93-13.68l-19.98,6.89-1.69-34.98,25.74,2.74-4.06,25.35Zm-27.71-28.69l10.71,221.4-78.5-24.24-10.28-204.35,78.07,7.19Zm-62.41-34.49c1.17-.4,2.45-.42,3.63-.05l83.95,20.25c1.48.71,9.45,5.2,14.17,7.94l-4.88,3.95-28.73-3.06v-.04s-2.29-.21-2.29-.21l-78.9-24.3,13.04-4.49Zm-18.39,92.54l6.78,134.89c-2.89-4.78-6.24-10.86-6.81-12.66l.03-122.22Zm92.63,169.98l4.47,8.54-55.93-24.43,51.46,15.89Zm24.29,6.32l.91-157.32,3.21,153.14-4.12,4.18Z"/>
  <ellipse class="cls-1" cx="200.96" cy="28.01" rx="5.44" ry="1.56"/>
  <ellipse class="cls-1" cx="236.49" cy="38.19" rx="5.44" ry="1.56"/>
  <ellipse class="cls-1" cx="272.24" cy="46.97" rx="5.44" ry="1.56"/>
</svg>