<svg xmlns="http://www.w3.org/2000/svg" viewBox="0 0 480 320"><defs><style>.cls-1,.cls-3,.cls-4{fill:none;stroke:#000;stroke-miterlimit:10;}.cls-1{stroke-width:5px;}.cls-2{fill:#000;}.cls-3{stroke-width:6px;}.cls-4{stroke-width:4px;}</style></defs><g id="Layer_1" data-name="Layer 1"><polyline class="cls-1" points="173.67 23.56 268.19 52.67 299.59 43.84"/><ellipse class="cls-2" cx="203.6" cy="23.55" rx="6.32" ry="1.82"/><ellipse class="cls-2" cx="219.04" cy="28.41" rx="6.32" ry="1.82"/><ellipse class="cls-2" cx="234.21" cy="33.21" rx="6.32" ry="1.82"/><polygon class="cls-1" points="184.14 52.19 184.14 228.73 244.97 253.86 244.97 72.42 184.14 52.19"/><line class="cls-3" x1="255.54" y1="67.05" x2="255.54" y2="301.04"/><line class="cls-1" x1="268.19" y1="70.33" x2="267.32" y2="306.16"/><line class="cls-3" x1="268.29" y1="70.33" x2="175.08" y2="39.58"/><line class="cls-1" x1="267.21" y1="51.68" x2="268.29" y2="68.04"/><path class="cls-3" d="M296.1,143.59l10.23,135.74a11.77,11.77,0,0,1-2.09,6.77l-3.64,5.28a11.24,11.24,0,0,1-5.28,4.14l-24.39,9.23a9.51,9.51,0,0,1-7.33-.25L177,264.73a5.69,5.69,0,0,1-3.31-5.17V25.12a3.59,3.59,0,0,1,2.41-3.38l21.33-7.34a10.3,10.3,0,0,1,6.4-.09l97.84,29.84-1.3,17.67-32.06,8.51"/><line class="cls-3" x1="300.35" y1="61.82" x2="295.76" y2="115.08"/><ellipse class="cls-4" cx="291.84" cy="129.9" rx="15.2" ry="11.07" transform="translate(131.06 405.93) rotate(-83.77)"/><path class="cls-4" d="M280.84,128.7c.68-6.24,4-11.3,8.2-13.17a7.53,7.53,0,0,0-1.41-.3c-6.08-.66-11.74,5.57-12.65,13.91s3.27,15.65,9.35,16.32a8.64,8.64,0,0,0,4.45-.74C283.49,143.17,280,136.38,280.84,128.7Z"/><path class="cls-4" d="M268.29,208.68s0-23.88,9.49-53a102.46,102.46,0,0,1,6.55-16.1"/><path class="cls-4" d="M270.38,70.11a118.28,118.28,0,0,0,5.54,32,105.12,105.12,0,0,0,5.79,13.66"/><line class="cls-4" x1="287.27" y1="144.24" x2="300.68" y2="213.26"/><path class="cls-2" d="M265,44l-16.09-4.91c-1-.31-.63-.83.88-1.16l1.73-.38a11.1,11.1,0,0,1,4.59,0l16.08,4.91c1,.31.63.83-.88,1.16l-1.73.38A11,11,0,0,1,265,44Z"/></g></svg>