<svg xmlns="http://www.w3.org/2000/svg" viewBox="0 0 480 320"><defs><style>.cls-1{fill:#000;}</style></defs><g id="Layer_6" data-name="Layer 6"><path class="cls-1" d="M431.4,132.9l-24.1-15.12c-1.12-2.59-4.11-8.65-10.65-17.42C387.18,87.64,369.26,87,368.5,87l-.81,0-7.77,3-4.08-6.89L223.65,30.51A17.21,17.21,0,0,0,212,30.13L49.41,82.74a8.88,8.88,0,0,0-6.12,8.74l2.77,75.06a8.32,8.32,0,0,0,4.27,6.94L62.12,180v3.44l19.62,10.47v-3l.05,0L227.3,271.41v4.82l18.61,10.48,23.35-11-.47-3.55,122.36-52.73-.15,1.72h5l19-8.63.91-3.8a14.2,14.2,0,0,0,7.25-9.3l12.95-55.2A10.53,10.53,0,0,0,431.4,132.9ZM424.47,138,258.07,205.1l-65.54-55.57,14.4-5.51,61.71,33.37a8.21,8.21,0,0,0,7,.42l97.82-38.63a4.67,4.67,0,0,0,.55-8.42l-10.13-10.65,15.05,10.73a9.07,9.07,0,0,0,5.23,1.66,8.94,8.94,0,0,0,3.48-.7L403.72,125ZM331.74,98l21.88,23L235.76,64.38Zm31.65,36.57-90.72,35.84a.31.31,0,0,1-.23,0l-2.85-1.55,91.75-35.26Zm-252.6-51.6,86.39-28.2,159.2,76.44L265,166.31Zm75.61-33.1L101,77.72l-4-2,87.44-28.29ZM98.88,85.58,197.65,139l-13,4.95-.12-.06L58.37,88.25l27.52-8.91Zm82.46,65.63a12.67,12.67,0,0,1,3.07,1.92l60.73,51.49c-15.66-9-45.7-25.9-85.13-47.1-30.73-16.52-92.28-45-108.2-52.3l-.42-11.31Zm62.19,119.24c-14.69-8.59-69.69-40.69-95.25-54.78-25.18-13.87-78.65-41.51-94.23-49.54l-.2-5.44c15.46,7.54,69.07,33.8,94.27,47.69,25.68,14.15,81.86,47.26,96.41,55.85ZM246,254.93c-16.82-9.75-73-42.3-98.08-56.11-25.27-13.93-79-39.55-94.41-46.82l-.29-7.94c15.52,7.36,69,32.86,94.22,46.73,25.93,14.29,85.27,48.69,99.7,57.05Zm-98.56-55.24c25.21,13.9,82,46.79,98.39,56.3l-1.15,7.18c-15.06-8.9-70.6-41.62-96.09-55.67s-80-40.73-94.8-47.95l-.24-6.42C69.52,160.68,122.46,185.92,147.46,199.69Zm.33,16.86c21,11.56,61.84,35.28,83.9,48.15L77.82,179.55C100.31,191.23,130.64,207.09,147.79,216.55Zm99.53,30.24c-15-8.7-73.63-42.69-99.38-56.88-25.46-14-79.85-39.92-94.74-47l-.33-8.76c16,7.51,69.55,32.81,94.59,46.6,25.76,14.21,86,48.25,101.33,56.9ZM249,236.62c-15.79-8.92-75.41-42.6-101-56.71-25.31-13.95-79.7-39.63-95.11-46.86l-.43-11.74c15.39,7.22,69.77,32.9,95.06,46.83l103.34,57ZM253,211.31,251,224.05l-103-56.78c-25.58-14.1-80.86-40.18-95.58-47.08l-.51-13.86c16.61,7.65,77.27,35.72,107.69,52.07,43.81,23.56,76,41.87,89.79,49.78ZM369,95c3.1.26,15,1.77,21.21,10.1a98.1,98.1,0,0,1,8.5,13.26l-14.25,6a1,1,0,0,1-.95-.11l-8.5-6A57.05,57.05,0,0,0,363.24,104a24.8,24.8,0,0,0-6.76-4.06ZM214.46,37.74a9.1,9.1,0,0,1,2.83-.45,9.29,9.29,0,0,1,3.4.65L342.91,86.59l-9,3.64L198.56,42.88ZM415.32,197.61a6.18,6.18,0,0,1-3.55,4.25l-160.21,69,9.35-58.31,166.67-67.22Z"/><path class="cls-1" d="M296.21,175.66a2.74,2.74,0,0,0-2.47-1.91,3.38,3.38,0,0,0-3.14,1.31,6.85,6.85,0,0,0-1.57.48,3.34,3.34,0,0,0-2.19,2.58c-.22,2.15,2.3,4.12,5.75,4.48.35,0,.7.05,1.05.05A8,8,0,0,0,297,182a3.36,3.36,0,0,0,2.19-2.59C299.29,177.9,298.11,176.5,296.21,175.66Zm.32,5.42a7.43,7.43,0,0,1-3.84.52c-2.79-.29-5-1.83-4.86-3.37a2.45,2.45,0,0,1,1.62-1.79l.45-.17a8.47,8.47,0,0,0-.54,2.77s.58.81,3,1.17a7.39,7.39,0,0,0,4.12-.31,10.63,10.63,0,0,0,.08-2.92c1.05.64,1.7,1.47,1.61,2.32A2.39,2.39,0,0,1,296.53,181.08Z"/><path class="cls-1" d="M324.16,165.72a6.91,6.91,0,0,0-1.31-.73,2.74,2.74,0,0,0-2.48-2,3.43,3.43,0,0,0-3.13,1.3c-2.1.4-3.61,1.55-3.77,3.08-.22,2.15,2.3,4.12,5.75,4.48.35,0,.7,0,1,0a8.11,8.11,0,0,0,3.31-.66,3,3,0,0,0,.58-5.57Zm-1,4.66a7.53,7.53,0,0,1-3.84.52c-2.79-.29-5-1.84-4.85-3.37.08-.86.89-1.56,2.07-2a8.41,8.41,0,0,0-.55,2.78s.58.81,3,1.17a7.39,7.39,0,0,0,4.12-.31,10.69,10.69,0,0,0,.08-2.93c.14.09.28.16.4.25a2,2,0,0,1-.4,3.86Z"/><path class="cls-1" d="M348.92,154.17a2.74,2.74,0,0,0-2.47-1.91,3.4,3.4,0,0,0-3.14,1.31,6.85,6.85,0,0,0-1.57.48,3.34,3.34,0,0,0-2.19,2.59c-.22,2.15,2.3,4.11,5.75,4.47a9.24,9.24,0,0,0,1.05.06,8.11,8.11,0,0,0,3.31-.66,3.39,3.39,0,0,0,2.19-2.59C352,156.42,350.82,155,348.92,154.17Zm.32,5.43a7.53,7.53,0,0,1-3.84.52c-2.79-.3-5-1.84-4.85-3.38a2.39,2.39,0,0,1,1.61-1.78,4.9,4.9,0,0,1,.46-.18,8.37,8.37,0,0,0-.55,2.77s.58.81,3,1.18a7.44,7.44,0,0,0,4.12-.32,10.63,10.63,0,0,0,.08-2.92c1.05.64,1.7,1.48,1.61,2.32A2.42,2.42,0,0,1,349.24,159.6Z"/><path class="cls-1" d="M374.16,144.5a2.73,2.73,0,0,0-2.47-1.91,3.4,3.4,0,0,0-3.14,1.31,7,7,0,0,0-1.57.48,3.34,3.34,0,0,0-2.19,2.59c-.22,2.15,2.31,4.11,5.75,4.47a9.34,9.34,0,0,0,1,.05,8.08,8.08,0,0,0,3.31-.65,3.37,3.37,0,0,0,2.19-2.59C377.24,146.75,376.06,145.34,374.16,144.5Zm.32,5.43a7.6,7.6,0,0,1-3.83.52c-2.8-.3-5-1.84-4.86-3.38a2.39,2.39,0,0,1,1.61-1.78,4.9,4.9,0,0,1,.46-.18,8.37,8.37,0,0,0-.55,2.77s.58.81,3,1.18a7.39,7.39,0,0,0,4.11-.32,10.63,10.63,0,0,0,.08-2.92c1,.64,1.7,1.48,1.61,2.32A2.42,2.42,0,0,1,374.48,149.93Z"/><path class="cls-1" d="M330.24,201.2a9.6,9.6,0,0,0-5.2,8.3c0,3.31,2.41,5,5.31,3.68a9.6,9.6,0,0,0,5.2-8.3C335.52,201.57,333.14,199.92,330.24,201.2Z"/><path class="cls-1" d="M355.45,188.91c-4,1.75-7.17,6.84-7.12,11.38s3.3,6.79,7.28,5,7.16-6.84,7.12-11.37S359.42,187.16,355.45,188.91Z"/><path class="cls-1" d="M381.22,179.72A9.64,9.64,0,0,0,376,188c0,3.31,2.41,5,5.31,3.68a9.6,9.6,0,0,0,5.2-8.3C386.5,180.1,384.12,178.45,381.22,179.72Z"/><path class="cls-1" d="M304.22,226.39c4-1.75,7.17-6.84,7.12-11.37s-3.3-6.8-7.28-5.05-7.16,6.84-7.12,11.38S300.25,228.14,304.22,226.39Z"/><path class="cls-1" d="M393.11,169.58c-2.62-1.39-5.45-.25-7.51.58-2.92,1.18-50.28,20.7-70.5,29-8,3.31-14.82,7.92-19.12,13a24.52,24.52,0,0,0-6.09,18.37,7,7,0,0,0,3.66,5.85,10.28,10.28,0,0,0,4.78,1c7.88,0,18.62-5.73,20.32-6.66l60.8-26.23c6-2.61,13.22-9.29,16-14.89,2.19-4.41,2.93-8.64,2.14-12.26C396.7,173.25,395.24,170.7,393.11,169.58Zm-85.4,37.62a4.67,4.67,0,0,1,2.6.73c1.62,1,2.52,3.09,2.55,5.78.05,5.87-4.07,12.48-9.21,14.74-2.17,1-4.18,1-5.68,0s-2.51-3.1-2.54-5.78a16.06,16.06,0,0,1,1.85-7.29c.32-.42.64-.84,1-1.25a37.81,37.81,0,0,1,7.61-6.65A7.11,7.11,0,0,1,307.71,207.2Zm85.06-18.92c-2.48,5-9.12,11.15-14.51,13.48L317.4,228l-.13.06c-4.49,2.48-17.25,8.32-22.33,5.66a4,4,0,0,1-2.06-3.5,18.61,18.61,0,0,1,0-4.22,8.44,8.44,0,0,0,3.44,4.93,7.65,7.65,0,0,0,4.22,1.22,10.63,10.63,0,0,0,4.29-1c6.24-2.74,11.07-10.44,11-17.52,0-3.67-1.47-6.69-3.92-8.27-.56-.37-.93-.65-1.21-.85,1.75-.93,3.59-1.8,5.51-2.59,20.23-8.34,67.57-27.85,70.48-29,2-.8,3.7-1.4,5-.72s2.27,2.62,3,5.77C395.48,181.71,394.08,185.64,392.77,188.28Z"/></g></svg>