<?xml version="1.0" encoding="UTF-8"?><svg id="TURN_OFF" xmlns="http://www.w3.org/2000/svg" viewBox="0 0 480 320"><defs><style>.cls-1{fill:#000;}</style></defs><path class="cls-1" d="M298.55,124c-.96-1.68-2.14-3.06-3.47-4.13l.85,.04,3.9-75.92-1.11-.92c-.97-.8-2.54-1.21-7.09-2.11-.77-.15-1.73-.34-1.96-.41L208.98,15.28c-2.43-.76-4.98-.72-7.39,.1l-18.68,6.43c-2.42,.83-4.05,3.11-4.05,5.67v234.81c0,3.06,1.79,5.86,4.57,7.13l75.84,34.82c1.48,.68,3.09,1.02,4.69,1.02,1.33,0,2.65-.23,3.89-.7l24.79-8.85c3.47-1.24,5.8-4.55,5.79-8.24l-.33-140.95h-.45c1.72-2.68,2.92-5.97,3.32-9.6h0c.51-4.69-.35-9.27-2.44-12.91Zm-2.31,12.39c-.79,7.22-5.62,12.87-10.5,12.33-.27-.03-.53-.08-.79-.15l-.26-.08c-1.03-.3-1.97-.88-2.8-1.66-.06-.06-.13-.11-.19-.17-.12-.12-.24-.26-.36-.39-.1-.11-.2-.22-.3-.34-.11-.13-.2-.27-.3-.4-.1-.14-.2-.27-.3-.41-.1-.14-.19-.29-.28-.44-.09-.15-.18-.29-.26-.44-.09-.16-.17-.33-.25-.5-.08-.15-.15-.31-.22-.46-.08-.18-.16-.36-.23-.55-.06-.16-.12-.31-.18-.47-.07-.2-.14-.39-.2-.6-.05-.16-.1-.32-.14-.48-.06-.21-.11-.42-.16-.63-.04-.17-.07-.34-.11-.51-.04-.22-.09-.43-.12-.65-.03-.18-.05-.36-.08-.54-.03-.22-.06-.43-.08-.65-.02-.2-.03-.41-.04-.62-.01-.2-.03-.4-.03-.61,0-.25,0-.51,0-.76,0-.17,0-.33,0-.49,.02-.43,.05-.86,.09-1.29,.04-.4,.1-.79,.17-1.18,.03-.18,.07-.35,.1-.53,.04-.18,.08-.36,.12-.53,.58-2.48,1.63-4.73,3-6.47,.04-.05,.08-.09,.12-.14,.47-.58,.97-1.09,1.5-1.55,.06-.05,.12-.11,.18-.16,.14-.11,.29-.22,.43-.33,.08-.06,.16-.12,.25-.17,.14-.09,.28-.18,.43-.27,.09-.05,.18-.11,.27-.16,.14-.08,.28-.15,.42-.21,.93-.44,1.89-.67,2.85-.67,.22,0,.44,.01,.66,.04,2.27,.25,4.32,1.77,5.76,4.29,1.58,2.76,2.24,6.32,1.83,10.02Zm-29.34,20.74l-2.43-7.72c-.11-.34-.16-.7-.16-1.06v-21.35c0-.52,.1-1.03,.29-1.52l2.21-5.54c.41-1.04,.62-2.13,.62-3.24v-41.92l9.14,44.29c-1.47,.76-2.86,1.82-4.11,3.2-2.82,3.1-4.65,7.39-5.16,12.08-.51,4.69,.35,9.27,2.44,12.91,1.67,2.91,3.97,4.97,6.63,6l-9.57,115.14,.63-107.78c0-1.19-.17-2.36-.53-3.49Zm7.44-27.77c-.04,.12-.07,.24-.11,.36-.16,.53-.3,1.08-.42,1.63-.04,.16-.07,.32-.11,.48-.13,.68-.25,1.36-.32,2.06-.07,.64-.11,1.27-.13,1.89-.02,.57,0,1.13,.01,1.68,0,.03,0,.07,0,.1,.17,3.97,1.32,7.58,3.23,10.35-1-.73-1.89-1.75-2.62-3.03-1.58-2.76-2.24-6.32-1.83-10.01,.4-3.65,1.77-6.94,3.87-9.29-.64,1.18-1.16,2.45-1.58,3.78Zm14.81-12.03c-1.72-.19-3.42,.05-5.04,.64-.36-.08-.71-.14-1.04-.18-.31-.03-.61-.03-.92-.04l-13.09-63.43,24.84-6.76-3.6,69.97c-.38-.08-.76-.16-1.15-.2ZM203.46,20.8c1.24-.43,2.56-.45,3.81-.05l75.95,23.78-17.45,4.75-76.15-23.71,13.84-4.76Zm-18.86,241.49V38.19l65.96,20.49v235.25l-64.73-29.72c-.75-.34-1.23-1.1-1.23-1.92Zm71.69,34.27V54.46l-71.69-22.27v-2.18l77.11,24.01v62.69c0,.38-.07,.76-.21,1.12l-2.21,5.54c-.46,1.16-.7,2.39-.7,3.64v21.35c0,.95,.14,1.88,.43,2.78l2.43,7.72c.18,.56,.26,1.14,.26,1.73l-.8,138.09-4.6-2.11Zm34.43-6.26l-20.6,7.36,11.95-143.83c.71-.12,1.4-.3,2.1-.55,.34,.07,.69,.15,1.04,.18,.39,.04,.78,.06,1.16,.06,2.11,0,4.15-.64,6.02-1.76l.32,135.7c0,1.27-.8,2.41-1.99,2.83Z"/><ellipse class="cls-1" cx="207.08" cy="26.11" rx="5.54" ry="1.59"/><path class="cls-1" d="M227.69,33.97c3.06,0,5.54-.71,5.54-1.59s-2.48-1.59-5.54-1.59-5.54,.71-5.54,1.59,2.48,1.59,5.54,1.59Z"/><path class="cls-1" d="M240.97,38.18c3.06,0,5.54-.71,5.54-1.59s-2.48-1.59-5.54-1.59-5.54,.71-5.54,1.59,2.48,1.59,5.54,1.59Z"/><path class="cls-1" d="M188.04,44.68V242.7l59,24.37V63.36l-59-18.67Zm53.27,213.82l-47.54-19.64V52.51l47.54,15.04v190.95Z"/><path class="cls-1" d="M263.01,44.61c3.06,0,5.54-.71,5.54-1.59s-2.48-1.59-5.54-1.59-5.54,.71-5.54,1.59,2.48,1.59,5.54,1.59Z"/></svg>