<svg id="Artwork" xmlns="http://www.w3.org/2000/svg" viewBox="0 0 480 320"><defs><style>.cls-1{fill:#000;}</style></defs><path class="cls-1" d="M464.91,110.12c-.48-3.64-3.74-7-8.1-8.2L289.16,50.2l-.14,0a29.07,29.07,0,0,0-13.57-.34L172.62,73.25V26.79a4.09,4.09,0,1,0-8.18,0V75.11l-37,8.44V35.7a4.09,4.09,0,1,0-8.17,0V85.42L22.31,107.5A9.09,9.09,0,0,0,15,115.66a9.76,9.76,0,0,0,0,1.71V209c0,5.83,3.09,10.77,8.06,12.88l149.25,63.34a33.1,33.1,0,0,0,21.45,1.4l261.87-70c5.42-1.45,9.35-6.29,9.35-11.52v-95ZM24,115.31,277.17,57.63a20.92,20.92,0,0,1,9.7.24l167.64,51.72.14,0a4.5,4.5,0,0,1,1.63.79L191.69,178.78a25,25,0,0,1-16.33-1.08l-151.64-60a1.15,1.15,0,0,1-.72-1.24A1.18,1.18,0,0,1,24,115.31Zm2.19,99.16C23.34,213.25,23,210.2,23,209V126l149.31,59.12a33.39,33.39,0,0,0,6.39,1.94V278.9a25.78,25.78,0,0,1-3.28-1.1Zm427.37-5.6-261.9,70a25.29,25.29,0,0,1-5,.81v-92a32.8,32.8,0,0,0,7-1.11l263.25-68v86.59C457,206.67,455.48,208.37,453.59,208.87Z"/><path class="cls-1" d="M375.18,150.83a7.7,7.7,0,0,0-6.76-1.17L253.7,180.57a11.13,11.13,0,0,0-8,10.23v55.5a7.38,7.38,0,0,0,2.81,5.95,7.31,7.31,0,0,0,4.49,1.47,8.89,8.89,0,0,0,2.26-.3L370,222.51a11.12,11.12,0,0,0,8-10.23v-55.5A7.37,7.37,0,0,0,375.18,150.83ZM372,212.28a5.14,5.14,0,0,1-3.56,4.43L253.7,247.62a1.8,1.8,0,0,1-1.55-.13,1.5,1.5,0,0,1-.45-1.19V190.8a5.17,5.17,0,0,1,3.56-4.44L370,155.45a3.27,3.27,0,0,1,.72-.1,1.32,1.32,0,0,1,.83.24,1.47,1.47,0,0,1,.45,1.19Z"/><path class="cls-1" d="M227.19,207.05a7.55,7.55,0,0,0,5.38-6.84c0-3-2.41-4.73-5.38-3.93a7.54,7.54,0,0,0-5.39,6.83C221.8,206.09,224.21,207.85,227.19,207.05Z"/><path class="cls-1" d="M227.19,228.58a7.54,7.54,0,0,0,5.38-6.83c0-3-2.41-4.74-5.38-3.94a7.56,7.56,0,0,0-5.39,6.84C221.8,227.62,224.21,229.38,227.19,228.58Z"/><path class="cls-1" d="M234.21,239.81,224,242.56a4.65,4.65,0,0,0-3.3,4.19v1.42a2.45,2.45,0,0,0,3.3,2.41l10.21-2.75a4.64,4.64,0,0,0,3.3-4.19v-1.42A2.45,2.45,0,0,0,234.21,239.81Z"/><path class="cls-1" d="M406.76,147.33a7.54,7.54,0,0,0-5.39,6.84c0,3,2.41,4.73,5.39,3.93a7.54,7.54,0,0,0,5.38-6.83C412.14,148.29,409.73,146.53,406.76,147.33Z"/><path class="cls-1" d="M406.76,161.84a7.54,7.54,0,0,0-5.39,6.83c0,3,2.41,4.74,5.39,3.94a7.55,7.55,0,0,0,5.38-6.84C412.14,162.8,409.73,161,406.76,161.84Z"/><ellipse class="cls-1" cx="406.76" cy="181.73" rx="6.16" ry="4.71" transform="translate(2.21 368.33) rotate(-48.84)"/><ellipse class="cls-1" cx="392.25" cy="170.97" rx="6.16" ry="4.71" transform="translate(5.36 353.73) rotate(-48.84)"/><ellipse class="cls-1" cx="421.26" cy="163.15" rx="6.16" ry="4.71" transform="translate(21.15 372.89) rotate(-48.84)"/><path class="cls-1" d="M395.08,198.85a4.51,4.51,0,0,0-4-.67,6.68,6.68,0,0,0-4.8,6.14,4.14,4.14,0,0,0,4.23,4.33,4.84,4.84,0,0,0,1.35-.19,6.66,6.66,0,0,0,4.81-6.13A4.32,4.32,0,0,0,395.08,198.85Zm-4,6.72a1.52,1.52,0,0,1-1.35-.16,1.34,1.34,0,0,1-.45-1.09,3.7,3.7,0,0,1,2.58-3.24,2,2,0,0,1,.58-.08,1.24,1.24,0,0,1,.78.23,1.35,1.35,0,0,1,.45,1.1A3.71,3.71,0,0,1,391.12,205.57Z"/><path class="cls-1" d="M433.55,186.61a7.55,7.55,0,0,0-5.38,6.84c0,3,2.41,4.73,5.38,3.93a7.54,7.54,0,0,0,5.39-6.83C438.94,187.57,436.53,185.81,433.55,186.61Z"/></svg>