<?xml version="1.0" encoding="UTF-8"?><svg id="Layer_1" xmlns="http://www.w3.org/2000/svg" viewBox="0 0 480 320"><defs><style>.cls-1{fill:#000;fill-rule:evenodd;}</style></defs><g id="Plan_1"><path class="cls-1" d="M189.58,198.33l4.99,5.88c3.56,3.92,5.88,7.12,10.51,11.4l5.88,5.16c3.38,2.85,8.55,6.77,13.36,8.9,6.41,3.03,10.33,3.92,18.34,2.85,11.93-1.6,24.75-4.81,36.15-7.66,4.1-1.07,1.96-.53,7.48,2.32,2.85,1.6,6.23,.18,9.08-.71,19.41-5.7,40.25-11.58,59.84-17.1,2.32-.53,6.95-1.78,8.55-2.67,2.49-1.25,3.38-3.38,4.63-6.23,.89-2.14,.89-1.6,3.21-2.32l39.36-10.33c3.03-.71,33.12-8.9,35.08-9.08,0,14.42,1.6,12.47-9.26,15.32-19.77,5.34-39.54,10.86-59.12,15.85-26.18,6.95-52.54,14.42-78.89,21.19-13,3.38-26.36,7.12-39.36,10.69-13,3.56-26.18,6.95-39.18,10.51-6.59,1.96-13.18,3.56-19.77,5.34-12.82,3.38-11.04,4.99-11.04-9.26,0-4.45-.36-46.66,.18-50.04Zm-155.65-12.47c0-17.45-.18-39.36,0-56.81,1.6,.53,74.26,30.99,74.44,30.99,12.29,5.34,24.58,10.51,37.04,15.67,6.23,2.49,12.29,5.16,18.7,7.84,3.03,1.25,6.23,2.49,9.26,3.74,1.6,.71,8.37,3.38,9.26,4.1-1.25,6.59-.89,10.33-.89,17.1v45.59l-37.04-16.92c-9.08-3.92-18.52-8.55-27.6-12.64-6.41-2.67-12.29-5.7-18.52-8.55-12.29-5.34-24.75-11.58-37.04-16.92l-26.71-12.29c-.53-.36-.89-.18-.89-.89Zm412.09-9.26c-1.96,.89-6.77,1.78-8.9,2.32l-26.89,7.12c-12.11,3.38-23.86,6.41-35.97,9.44-7.12,1.96-6.23,1.07-7.66,3.92-1.25,3.03-1.78,5.16-5.16,6.05-5.88,1.78-11.75,3.38-17.63,5.16l-52.89,15.14c-1.6,.53-2.85,.36-4.27-.53-5.34-3.38-3.92-3.38-7.66-2.49-9.62,2.49-34.01,8.55-42.56,8.19-8.19-.18-17.45-6.05-23.33-10.86l-14.25-13.89q-.71-.71-1.42-1.6l-3.92-4.45c-.89-1.42-1.96-2.49-2.49-3.74-.89-2.85-.53-6.05,3.56-8.73,2.67-1.96,13.53-4.1,17.63-5.16,6.05-1.6,11.93-3.21,17.99-4.63l108.63-27.6c24.04-6.05,48.08-12.11,72.12-18.34,3.03-.71,25.47-6.77,27.43-6.77,3.38-.36,6.05,1.78,6.95,3.92,1.42,3.03,.71,20.66,.71,25.11v22.44ZM43.01,124.42c1.42-.89,9.97-2.67,12.29-3.21,28.67-6.41,57.34-13.71,86.02-20.12,40.78-9.08,81.56-19.23,122.34-28.85,4.63-.89,8.19-2.14,13.36-.89,3.38,.71,7.84,2.49,11.22,3.74,14.96,4.99,30.27,9.97,45.59,15.14l90.47,30.1h0l.18,.18c-9.79,2.85-20.12,5.16-30.1,7.66-10.15,2.67-20.12,5.16-30.27,7.66-19.95,5.16-40.07,10.33-60.01,15.32-30.1,7.48-60.19,15.49-90.47,22.97-4.99,1.25-9.97,2.49-14.96,3.92-2.85,.53-4.81,1.07-6.95,2.32-3.56,1.96-3.56,2.85-5.16,4.27-1.42-.36-15.49-6.59-18.16-7.48-17.99-7.48-35.62-15.14-53.78-22.62-11.93-4.99-23.86-9.97-35.8-14.96l-31.52-13.18c-.71-.36-1.42-.71-2.14-.89-.53-.18-.89-.36-1.25-.53,0,0-.89-.53-.89-.53Zm-16.74,66.43c.18,.71,.53,.53,1.25,.89,.36,.18,.89,.53,1.25,.71,13.71,6.05,28.14,13.18,41.49,19.06,7.66,3.21,14.96,6.95,22.26,10.15,14.07,6.05,30.27,14.25,44.34,20.3,7.3,3.21,14.6,6.95,21.9,10.15,7.66,3.21,14.78,6.95,22.26,10.15,3.74,1.6,1.6,1.42,4.45,3.56,5.16,3.92,11.93,.71,19.06-1.25,33.3-9.62,68.03-18.16,101.87-27.43,33.66-9.44,67.85-17.99,101.51-27.43,8.55-2.32,17.1-4.63,25.47-6.77,4.1-1.07,9.26-2.14,12.82-3.56,3.56-1.25,6.77-4.45,7.3-8.73,.36-2.32,.18-44.17,.18-48.44,0-5.34,.53-12.82-1.96-17.1-1.6-3.38-4.63-6.05-8.9-7.3-3.03-.89-1.78,0-6.59-1.6l-126.98-42.38c-8.19-2.67-16.38-5.34-24.4-8.01-12.82-4.27-13.89-2.85-26.89,0-26,5.88-52.54,12.47-78.54,18.52-6.95,1.6-19.95,4.99-26,6.05V58.17c0-1.6,.18-3.21-.71-4.27-2.14-2.85-5.88-1.42-6.59,1.07-.36,1.6,.18,36.15-.18,36.69,0,.89-2.32,1.07-3.03,1.25l-9.97,2.32c-4.27,.89-8.9,2.32-13.18,3.03-.36-1.96-.18-27.78-.18-32.23,0-1.96,.36-3.38-.71-4.63-.71-1.07-1.96-1.78-3.56-1.42-3.38,.71-3.03,4.1-3.03,7.66v32.23c-.36,.53-9.97,2.49-10.69,2.67-3.74,.89-7.12,1.78-10.69,2.49-7.3,1.78-14.42,3.56-21.73,5.16-7.12,1.6-14.42,3.38-21.55,4.99-5.16,1.25-17.27,4.45-21.37,4.99,0,0,0,70.7,0,70.7Z"/><path class="cls-1" d="M291.26,211.15c0-9.44,.18-19.06,0-28.49,0-3.38,.53-2.85,3.38-3.74l50.22-13.36c2.32-.71,9.26-2.85,11.04-3.03v28.49c0,3.21-.36,3.03-3.21,3.74l-39,10.51c-4.27,1.07-19.23,5.34-22.44,5.88Zm63.58-54.32c-9.08,2.32-17.99,4.81-26.89,7.12-9.08,2.49-17.99,4.81-26.89,7.3-3.56,1.07-10.69,2.32-13,4.27-3.56,3.03-2.49,8.9-2.49,14.6v17.1c0,2.49-.53,5.7,.89,7.66,1.07,1.78,3.21,2.85,6.23,1.96,17.99-4.63,35.8-9.79,53.78-14.42,16.74-4.27,15.32-3.56,15.32-18.88v-17.1c0-2.49,.36-5.7-.89-7.48-1.25-1.96-3.21-2.85-6.05-2.14Z"/><path class="cls-1" d="M408.62,151.31c8.01-1.42,11.75,6.59,9.79,14.07-1.6,6.05-6.41,11.58-12.47,12.82-8.37,1.78-12.29-6.59-10.15-14.25,1.78-5.88,6.41-11.58,12.82-12.64Zm-4.99-4.81c-16.03,2.49-23.15,24.93-13.71,33.48,5.52,4.99,10.15,2.67,14.6,2.49,9.26-.18,17.27-9.79,18.34-18.7,1.07-8.19-3.21-15.67-10.86-16.56-2.85-.53-5.7-1.07-8.37-.71Z"/><path class="cls-1" d="M250.84,192.09c8.19-1.78,12.29,5.88,10.51,13.53-1.42,6.23-6.23,11.75-12.29,13.18-8.01,2.14-12.47-5.7-10.51-13.53,1.42-6.23,6.23-11.75,12.29-13.18Zm-4.1-4.99c-16.03,2.32-23.33,24.4-14.25,33.3,5.16,5.16,10.69,2.85,14.6,2.85,12.29-.36,21.73-15.49,17.81-26.89-.71-2.14-2.32-4.63-3.56-5.52-1.6-1.42-3.74-2.67-6.41-3.03-2.85-.36-5.7-1.07-8.19-.71Z"/><path class="cls-1" d="M213.09,231.27c5.52-1.07,3.92,7.84-1.6,9.08-5.52,1.25-4.45-8.01,1.6-9.08Zm-1.25-2.67c-10.15,3.21-8.37,16.92,.89,14.42,9.79-2.85,8.19-17.27-.89-14.42Z"/><path class="cls-1" d="M369.8,187.64c-1.25-2.85,1.07-3.74,3.38-4.27,1.07-.36,5.52-1.78,6.05-1.42,.89,.53,.36,2.49,0,3.03-.71,.71-1.78,.89-3.03,1.25-1.42,.36-5.16,1.78-6.41,1.42Zm8.01-7.48c-2.49,.71-7.48,1.42-8.9,2.85-2.32,2.32-1.96,7.66,2.67,6.41,2.32-.53,7.66-1.6,8.9-2.85,1.96-2.14,1.78-7.66-2.67-6.41Z"/><path class="cls-1" d="M272.92,209.19c-5.34,2.14-4.27,9.26,.71,7.48,1.42-.53,3.03-2.32,3.38-4.27,.18-2.32-1.6-3.92-4.1-3.21Z"/></g></svg>