<svg id="Artwork" xmlns="http://www.w3.org/2000/svg" viewBox="0 0 480 320"><defs><style>.cls-1{fill:#000;}</style></defs><path class="cls-1" d="M459,119.46a15.5,15.5,0,0,0-8.57-3.23l-168.22-56-.22-.07a29.15,29.15,0,0,0-13.59-.34L148.81,87.86V51.38a3.86,3.86,0,0,0-7.71,0V89.67L113.28,96.2V59.38a3.86,3.86,0,0,0-7.72,0V98L15,119.25v71.59l165.17,75.78a10.1,10.1,0,0,0,2.43,2.71,9.93,9.93,0,0,0,6,2.06,10.18,10.18,0,0,0,2.61-.35l265-71.28A11.77,11.77,0,0,0,465,188.41V131.73A15.46,15.46,0,0,0,459,119.46Zm-2,12.27v43.69l-82.4,21.68L372,202.45a6.17,6.17,0,0,1-3.85,3.27l-75,21.57a4.53,4.53,0,0,1-3.71-.54l-5.56-3.54-.42.11c-.38.1-38.47,10.15-48.33,9.28-18.21-1.61-39-25.84-47.58-36.93a12.09,12.09,0,0,1,8.23-7.2l251.76-64a7.53,7.53,0,0,1,9.4,7.3ZM270.13,67.61a20.89,20.89,0,0,1,9.66.23l155,51.6L193.86,180.72A20,20,0,0,0,183.71,187L32,123.5ZM23,128.43,179.72,194a19.94,19.94,0,0,0-1,6.24v56.95L23,185.71ZM454.21,192l-265,71.28a1.92,1.92,0,0,1-1.7-.33,2,2,0,0,1-.76-1.56V200.2a11.78,11.78,0,0,1,.19-2.15c3,3.85,7.25,8.92,12.16,14,13.52,14,25.61,21.6,35.93,22.51.45,0,.95.06,1.49.06,11.35,0,42.86-8.17,47.11-9.28l4.81,3.07a6.57,6.57,0,0,0,5.34.77l75-21.57a8.12,8.12,0,0,0,5.1-4.33l2.16-4.52,81-21.3v10.92A3.75,3.75,0,0,1,454.21,192Z"/><path class="cls-1" d="M278.58,211.41a3,3,0,0,0-2.67-.45L268.19,213a4.49,4.49,0,0,0-3.24,4.13v1.08a2.78,2.78,0,0,0,2.85,2.91,3.61,3.61,0,0,0,.91-.12l7.72-2.08a4.5,4.5,0,0,0,3.24-4.14v-1.07A2.9,2.9,0,0,0,278.58,211.41Zm-.91,3.41a2.53,2.53,0,0,1-1.76,2.21l-7.72,2.08a1.06,1.06,0,0,1-.93-.11.92.92,0,0,1-.31-.75v-1.08a2.51,2.51,0,0,1,1.76-2.2l7.72-2.08a1.43,1.43,0,0,1,.39-.06.87.87,0,0,1,.54.17.89.89,0,0,1,.31.75Z"/><path class="cls-1" d="M384.74,182.07a4.21,4.21,0,0,0-3.69-.61,6.45,6.45,0,0,0-4.65,5.94,3.82,3.82,0,0,0,3.9,4,4.75,4.75,0,0,0,1.27-.18,6.46,6.46,0,0,0,4.66-5.93A3.94,3.94,0,0,0,384.74,182.07Zm-3.69,7.22a2.22,2.22,0,0,1-1.95-.26,2,2,0,0,1-.7-1.63,4.51,4.51,0,0,1,3.17-4,3,3,0,0,1,.76-.1,1.9,1.9,0,0,1,1.19.37,2,2,0,0,1,.71,1.63A4.51,4.51,0,0,1,381.05,189.29Z"/><path class="cls-1" d="M366.1,157.71a5.75,5.75,0,0,0-5-.9L293.68,175a7.71,7.71,0,0,0-5.62,7.2v32.6a5.44,5.44,0,0,0,5.52,5.6,6.39,6.39,0,0,0,1.66-.23L362.62,202a7.71,7.71,0,0,0,5.61-7.21V162.19A5.55,5.55,0,0,0,366.1,157.71Zm-3.87,37.07a1.85,1.85,0,0,1-1.17,1.42l-67,18V182.17a1.83,1.83,0,0,1,1.18-1.41l67-18Z"/><path class="cls-1" d="M393,161.25a5.57,5.57,0,0,0-4,5,2.93,2.93,0,0,0,4,2.9,5.56,5.56,0,0,0,4-5A2.94,2.94,0,0,0,393,161.25Z"/><path class="cls-1" d="M408.7,157.64a5.56,5.56,0,0,0-4,5,2.94,2.94,0,0,0,4,2.9,5.57,5.57,0,0,0,4-5A2.94,2.94,0,0,0,408.7,157.64Z"/><path class="cls-1" d="M423.42,154a5.57,5.57,0,0,0-4,5,2.94,2.94,0,0,0,4,2.9,5.57,5.57,0,0,0,4-5A2.94,2.94,0,0,0,423.42,154Z"/><ellipse class="cls-1" cx="243.26" cy="194.81" rx="5.32" ry="4.07" transform="translate(-63.51 249.72) rotate(-48.84)"/><ellipse class="cls-1" cx="243.26" cy="207.35" rx="5.32" ry="4.07" transform="translate(-72.96 254) rotate(-48.84)"/><path class="cls-1" d="M243.26,215.24a6.52,6.52,0,0,0-4.65,5.91c0,2.57,2.08,4.09,4.65,3.4a6.53,6.53,0,0,0,4.66-5.91C247.92,216.07,245.83,214.55,243.26,215.24Z"/><path class="cls-1" d="M230.72,205.93a6.54,6.54,0,0,0-4.66,5.91c0,2.57,2.09,4.1,4.66,3.4a6.51,6.51,0,0,0,4.65-5.91C235.37,206.76,233.29,205.24,230.72,205.93Z"/><ellipse class="cls-1" cx="255.8" cy="203.83" rx="5.32" ry="4.07" transform="translate(-66.02 262.24) rotate(-48.84)"/></svg>