<svg id="Artwork" xmlns="http://www.w3.org/2000/svg" viewBox="0 0 480 320"><defs><style>.cls-1{fill:#000;}</style></defs><path class="cls-1" d="M459,119.46a15.5,15.5,0,0,0-8.57-3.23l-168.22-56-.23-.07a29.15,29.15,0,0,0-13.59-.34L148.83,87.86V51.38a3.86,3.86,0,0,0-7.71,0V89.67L113.29,96.2V59.38a3.86,3.86,0,0,0-7.71,0V98L15,119.25v71.59L180.2,266.62a9.94,9.94,0,0,0,8.47,4.77,10.18,10.18,0,0,0,2.61-.35l265-71.28A11.77,11.77,0,0,0,465,188.41V131.73A15.46,15.46,0,0,0,459,119.46Zm-2,12.27v43.69l-82.4,21.68-2.55,5.35a6.19,6.19,0,0,1-3.86,3.27l-75,21.57a4.53,4.53,0,0,1-3.71-.54L284,223.21l-.42.11c-.39.1-38.48,10.15-48.33,9.28-18.21-1.61-39-25.84-47.58-36.93a12.09,12.09,0,0,1,8.23-7.2l251.76-64a7.53,7.53,0,0,1,9.4,7.3ZM270.15,67.61a20.89,20.89,0,0,1,9.66.23l155,51.6L193.88,180.72A20,20,0,0,0,183.72,187L32,123.5ZM23,128.43,179.73,194a20.23,20.23,0,0,0-1,6.24v56.95L23,185.71ZM454.23,192l-265,71.28a2,2,0,0,1-2.47-1.89V200.2a11.78,11.78,0,0,1,.2-2.15c3,3.85,7.24,8.92,12.16,14,13.52,14,25.61,21.6,35.93,22.51.45,0,.95.06,1.49.06,11.35,0,42.85-8.17,47.1-9.28l4.82,3.07a6.57,6.57,0,0,0,5.34.77l75-21.57a8.12,8.12,0,0,0,5.1-4.33l2.15-4.52,81-21.3v10.92A3.75,3.75,0,0,1,454.23,192Z"/><path class="cls-1" d="M388.12,181.73a3,3,0,0,0-2.67-.46l-7.72,2.08a4.5,4.5,0,0,0-3.24,4.14v1.07a2.8,2.8,0,0,0,2.86,2.92,3.16,3.16,0,0,0,.9-.13l7.72-2.08h0a4.49,4.49,0,0,0,3.24-4.13v-1.08A2.9,2.9,0,0,0,388.12,181.73Zm-.91,3.41a2.51,2.51,0,0,1-1.76,2.2l-7.72,2.08a1.06,1.06,0,0,1-.93-.11.89.89,0,0,1-.31-.75v-1.07a2.53,2.53,0,0,1,1.76-2.21L386,183.2a1.89,1.89,0,0,1,.39,0,.87.87,0,0,1,.54.16.92.92,0,0,1,.31.75Z"/><path class="cls-1" d="M216.15,231a6.52,6.52,0,0,0-5.72-.95,10.06,10.06,0,0,0-7.25,9.24,5.92,5.92,0,0,0,6,6.21,7.67,7.67,0,0,0,2-.27,10.08,10.08,0,0,0,7.25-9.24A6.09,6.09,0,0,0,216.15,231Zm-5.72,11.33a3.51,3.51,0,0,1-3.12-.43,3.17,3.17,0,0,1-1.13-2.61,7.13,7.13,0,0,1,5-6.34,4.83,4.83,0,0,1,1.21-.17,3,3,0,0,1,1.9.6,3.17,3.17,0,0,1,1.14,2.61A7.14,7.14,0,0,1,210.43,242.28Z"/><path class="cls-1" d="M427.3,149.18a12.93,12.93,0,0,0-8.35-2.6l.07,0a14.21,14.21,0,0,0-8.43-.19c-9.5,2.52-17.14,13-17.06,23.41s7.85,16.81,17.36,14.29l.67-.21-.46-.07a14,14,0,0,0,1.59.1,15.74,15.74,0,0,0,4-.54c9-2.38,16.19-12.26,16.11-22C432.79,156.26,430.77,151.83,427.3,149.18Zm1.23,12.18c.06,7.93-5.73,15.93-12.92,17.83a9.36,9.36,0,0,1-8.23-1.34c-2.44-1.87-3.81-5-3.84-8.77-.06-7.92,5.74-15.92,12.92-17.83a11.35,11.35,0,0,1,2.9-.39,8.67,8.67,0,0,1,5.33,1.74C427.14,154.46,428.5,157.57,428.53,161.36Z"/><path class="cls-1" d="M366.12,157.71a5.75,5.75,0,0,0-5-.9L293.69,175a7.7,7.7,0,0,0-5.61,7.2v32.6a5.44,5.44,0,0,0,5.52,5.6,6.44,6.44,0,0,0,1.66-.23L362.64,202a7.71,7.71,0,0,0,5.61-7.21V162.19A5.55,5.55,0,0,0,366.12,157.71Zm-3.87,37.07a1.85,1.85,0,0,1-1.17,1.42l-67,18V182.17a1.83,1.83,0,0,1,1.18-1.41l67-18Z"/><ellipse class="cls-1" cx="275" cy="216" rx="4.54" ry="3.47" transform="translate(-68.62 280.86) rotate(-48.84)"/><path class="cls-1" d="M261.74,192a13,13,0,0,0-8.35-2.6h.08a14.25,14.25,0,0,0-8.44-.19c-9.5,2.51-17.14,13-17.05,23.41s7.85,16.81,17.35,14.29c.23-.06.45-.15.67-.22a2.12,2.12,0,0,1-.45-.07,13.82,13.82,0,0,0,1.58.1,15.74,15.74,0,0,0,4-.54c9-2.37,16.19-12.25,16.11-22C267.23,199.11,265.22,194.69,261.74,192ZM263,204.21c.07,7.93-5.73,15.93-12.91,17.84a9.32,9.32,0,0,1-8.23-1.35c-2.45-1.86-3.81-5-3.84-8.76-.07-7.93,5.73-15.93,12.91-17.83a11.35,11.35,0,0,1,2.9-.39,8.72,8.72,0,0,1,5.33,1.73C261.58,197.32,262.94,200.43,263,204.21Z"/></svg>