<svg id="Artwork" xmlns="http://www.w3.org/2000/svg" viewBox="0 0 480 320"><defs><style>.cls-1{fill:#000;}</style></defs><path class="cls-1" d="M459,119.46a15.5,15.5,0,0,0-8.57-3.23l-168.22-56-.23-.07a29.15,29.15,0,0,0-13.59-.34L148.83,87.86V51.38a3.86,3.86,0,0,0-7.71,0V89.67L113.29,96.2V59.38a3.86,3.86,0,0,0-7.71,0V98L15,119.25v71.59L180.2,266.62a9.94,9.94,0,0,0,8.47,4.77,10.18,10.18,0,0,0,2.61-.35l265-71.28A11.77,11.77,0,0,0,465,188.41V131.73A15.46,15.46,0,0,0,459,119.46Zm-2,12.27v43.69l-82.4,21.68-2.55,5.35a6.19,6.19,0,0,1-3.86,3.27l-75,21.57a4.53,4.53,0,0,1-3.71-.54L284,223.21l-.42.11c-.39.1-38.48,10.15-48.33,9.28-18.21-1.61-39-25.84-47.58-36.93a12.09,12.09,0,0,1,8.23-7.2l251.76-64a7.53,7.53,0,0,1,9.4,7.3ZM270.15,67.61a20.89,20.89,0,0,1,9.66.23l155,51.6L193.88,180.72A20,20,0,0,0,183.72,187L32,123.5ZM23,128.43,179.73,194a20.23,20.23,0,0,0-1,6.24v56.95L23,185.71ZM454.23,192l-265,71.28a2,2,0,0,1-2.47-1.89V200.2a11.78,11.78,0,0,1,.2-2.15c3,3.85,7.24,8.92,12.16,14,13.52,14,25.61,21.6,35.93,22.51.45,0,.95.06,1.49.06,11.35,0,42.85-8.17,47.1-9.28l4.82,3.07a6.57,6.57,0,0,0,5.34.77l75-21.57a8.12,8.12,0,0,0,5.1-4.33l2.15-4.52,81-21.3v10.92A3.75,3.75,0,0,1,454.23,192Z"/><path class="cls-1" d="M278.59,211.41a3,3,0,0,0-2.66-.45L268.21,213a4.49,4.49,0,0,0-3.24,4.13v1.08a2.8,2.8,0,0,0,2.85,2.91,3.48,3.48,0,0,0,.9-.12l7.73-2.08h0a4.5,4.5,0,0,0,3.24-4.14v-1.07A2.88,2.88,0,0,0,278.59,211.41Zm-.9,3.41a2.53,2.53,0,0,1-1.76,2.21l-7.72,2.08a1.06,1.06,0,0,1-.93-.11.92.92,0,0,1-.31-.75v-1.08a2.52,2.52,0,0,1,1.75-2.2l7.73-2.08a1.43,1.43,0,0,1,.39-.06.89.89,0,0,1,.54.17.92.92,0,0,1,.31.75Z"/><path class="cls-1" d="M384.75,182.07a4.22,4.22,0,0,0-3.68-.61,6.46,6.46,0,0,0-4.66,5.94,3.82,3.82,0,0,0,3.91,4,4.75,4.75,0,0,0,1.27-.18,6.45,6.45,0,0,0,4.65-5.93A3.92,3.92,0,0,0,384.75,182.07Zm-3.68,7.22a2.21,2.21,0,0,1-1.95-.26,2,2,0,0,1-.71-1.63,4.52,4.52,0,0,1,3.18-4,2.94,2.94,0,0,1,.76-.1,1.9,1.9,0,0,1,1.19.37,2,2,0,0,1,.7,1.63A4.5,4.5,0,0,1,381.07,189.29Z"/><path class="cls-1" d="M366.12,157.71a5.75,5.75,0,0,0-5-.9L293.69,175a7.7,7.7,0,0,0-5.61,7.2v32.6a5.44,5.44,0,0,0,5.52,5.6,6.44,6.44,0,0,0,1.66-.23L362.64,202a7.71,7.71,0,0,0,5.61-7.21V162.19A5.55,5.55,0,0,0,366.12,157.71Zm-3.87,37.07a1.85,1.85,0,0,1-1.17,1.42l-67,18V182.17a1.83,1.83,0,0,1,1.18-1.41l67-18Z"/><path class="cls-1" d="M393,161.25a5.57,5.57,0,0,0-4,5,2.93,2.93,0,0,0,4,2.9,5.56,5.56,0,0,0,4-5A2.94,2.94,0,0,0,393,161.25Z"/><path class="cls-1" d="M408.72,157.64a5.55,5.55,0,0,0-4,5,2.94,2.94,0,0,0,4,2.9,5.57,5.57,0,0,0,4-5A2.94,2.94,0,0,0,408.72,157.64Z"/><path class="cls-1" d="M423.44,154a5.56,5.56,0,0,0-4,5,2.94,2.94,0,0,0,4,2.9,5.57,5.57,0,0,0,4-5A2.94,2.94,0,0,0,423.44,154Z"/><ellipse class="cls-1" cx="243.28" cy="194.81" rx="5.32" ry="4.07" transform="translate(-63.51 249.74) rotate(-48.84)"/><ellipse class="cls-1" cx="243.28" cy="207.35" rx="5.32" ry="4.07" transform="translate(-72.95 254.02) rotate(-48.84)"/><path class="cls-1" d="M243.28,215.24a6.53,6.53,0,0,0-4.66,5.91c0,2.57,2.09,4.09,4.66,3.4a6.52,6.52,0,0,0,4.65-5.91C247.93,216.07,245.85,214.55,243.28,215.24Z"/><path class="cls-1" d="M230.73,205.93a6.53,6.53,0,0,0-4.65,5.91c0,2.57,2.08,4.1,4.65,3.4a6.51,6.51,0,0,0,4.66-5.91C235.39,206.76,233.31,205.24,230.73,205.93Z"/><ellipse class="cls-1" cx="255.82" cy="203.83" rx="5.32" ry="4.07" transform="translate(-66.01 262.26) rotate(-48.84)"/></svg>