<svg id="Artwork" xmlns="http://www.w3.org/2000/svg" viewBox="0 0 480 320"><defs><style>.cls-1{fill:#000;}</style></defs><path class="cls-1" d="M168.54,177.43a6.68,6.68,0,0,0-2.33-1l-.1,0a8.06,8.06,0,0,0-7.23,2.19,8.86,8.86,0,0,0-2.78,6.59,7.47,7.47,0,0,0,1.77,4.67,6.59,6.59,0,0,0,1.2,1.1,7.12,7.12,0,0,0,4.14,1.31c.21,0,.42,0,.62,0a8.19,8.19,0,0,0,4.14-1.57,9,9,0,0,0,3.68-7.31A7.2,7.2,0,0,0,168.54,177.43Z"/><path class="cls-1" d="M160,165.12a5.5,5.5,0,0,0,2.95.86,6,6,0,0,0,3.6-1.24,6.42,6.42,0,0,0,2.56-5.26,5.64,5.64,0,0,0-2.64-4.7,5.73,5.73,0,0,0-6.52.45,6.41,6.41,0,0,0-2.53,5.24A5.65,5.65,0,0,0,160,165.12Z"/><path class="cls-1" d="M451.81,72.06a4.6,4.6,0,0,0-1.93-2.39,3.48,3.48,0,0,0-2.27-1.43L266.49,37a2.28,2.28,0,0,0-.27,0,1.27,1.27,0,0,0-.28,0h-.49L31.1,54.45h0l-.45.08-.23,0a4.62,4.62,0,0,0-.47.19l-.16.06a4.28,4.28,0,0,0-.57.37h0a3.6,3.6,0,0,0-.65.7,3.9,3.9,0,0,0-.25.36h0c0,.08-.06.16-.09.23a3.42,3.42,0,0,0-.17.4,2.1,2.1,0,0,0-.09.42,2.38,2.38,0,0,0-.05.26,2.9,2.9,0,0,0,0,.51,1,1,0,0,0,0,.17h0l9.7,109.07a3.41,3.41,0,0,0,.88,2l98.07,109.49a3.47,3.47,0,0,0,.44.57h0l1.84,2c.1.1.21.17.31.26a2.05,2.05,0,0,0,.23.2l0,0a5.28,5.28,0,0,0,3.29,1.14,5.53,5.53,0,0,0,1.06-.11,3.73,3.73,0,0,0,.46-.09L433.34,204h0a5.35,5.35,0,0,0,3-2.26,6.31,6.31,0,0,0,1-2.76h0l6.69-56.48v-.05s0,0,0-.05l5-42.56s0,0,0,0a.09.09,0,0,1,0-.05l3-25h0A5.81,5.81,0,0,0,451.81,72.06ZM44.44,165.57l-9-101.43,95.71,52.25L135.24,267Zm90.8-54.91L43.44,60.55,265.63,44,423.8,71.23Zm4.23,41L285,128.44l-12.49,44.85L141.38,200.5Zm243.25-7.51a22.06,22.06,0,0,0,2.84,5.73L279.12,171.92l12.39-44.51L388.23,112a41.86,41.86,0,0,0-6.81,19.3A31.92,31.92,0,0,0,382.72,144.1Zm47.78,53.42-286.17,78-2.67-68L393.18,155.4l7.44,2.57h0a15.55,15.55,0,0,0,2,.54h.07c.28.06.57.1.86.14l.2,0,.86.08h.07c.3,0,.61,0,.92,0a16.65,16.65,0,0,0,3.18-.32H409a16.73,16.73,0,0,0,1.69-.43l.44-.14c.41-.13.82-.28,1.22-.44.14-.05.29-.1.42-.16.51-.21,1-.44,1.51-.69h0a27.7,27.7,0,0,0,6.41-4.62h0l.38-.37h0c.23-.22.45-.46.67-.69l.29-.29c.42-.44.83-.9,1.24-1.37l.12-.13,13.18-2.73Zm-33.09-66.45a34.32,34.32,0,0,1,6.13-13.9,24.29,24.29,0,0,1,5.22-5.21A16.14,16.14,0,0,1,412,110.1a11.19,11.19,0,0,1,2.88-.82,7.88,7.88,0,0,1,5.54,1.1,9.44,9.44,0,0,1,1.13.87l0,0a9.32,9.32,0,0,1,1,1,1.13,1.13,0,0,0,.1.13,10.85,10.85,0,0,1,.78,1.14l.11.19a13.12,13.12,0,0,1,.72,1.4,18.56,18.56,0,0,1,1.33,4.89,1.11,1.11,0,0,1,0,.19c.07.54.13,1.09.16,1.65,0,.08,0,.15,0,.22,0,.51,0,1,0,1.54v.28c0,.5,0,1-.06,1.51l0,.35q-.06.73-.15,1.5c0,.12,0,.24,0,.36-.07.5-.16,1-.25,1.51,0,.13-.05.26-.08.39q-.15.73-.33,1.47c0,.11-.05.22-.08.33-.14.52-.28,1-.44,1.55l-.07.22c-.17.55-.36,1.09-.56,1.63a.76.76,0,0,1,0,.11c-.21.56-.43,1.11-.67,1.65a.42.42,0,0,1,0,.1c-.23.54-.48,1.07-.74,1.59l-.08.15c-.25.5-.51,1-.79,1.48a2.39,2.39,0,0,1-.13.21c-.26.46-.54.92-.82,1.36l-.17.25q-.42.65-.87,1.26l-.16.21c-.33.44-.66.87-1,1.28,0,.07-.11.13-.17.2-.35.41-.7.8-1.06,1.17l-.17.17a21,21,0,0,1-2.53,2.24,17.05,17.05,0,0,1-3.15,1.92,12.57,12.57,0,0,1-2.83,1,8.13,8.13,0,0,1-5.75-.82,10.1,10.1,0,0,1-4-4.71,19.24,19.24,0,0,1-1.63-6.94A29.38,29.38,0,0,1,397.41,131.07Zm40,8-8.7,1.8c.22-.46.43-.93.64-1.41,0-.05.05-.1.07-.16.28-.64.54-1.3.79-2l.06-.16c.11-.28.22-.56.32-.84s.22-.7.33-1.05l.12-.39c.18-.56.34-1.13.48-1.7.06-.21.12-.43.17-.64.12-.5.23-1,.33-1.49l.09-.39c0-.15,0-.29.07-.44.09-.49.17-1,.24-1.45l.12-.9c.05-.46.1-.92.14-1.38l.06-.88c0-.49.05-1,.06-1.44,0-.25,0-.5,0-.75,0-.52,0-1,0-1.55,0-.11,0-.21,0-.31s0-.16,0-.24c-.05-.68-.11-1.35-.2-2,0-.12,0-.25-.05-.37s0-.39-.07-.57h0l0-.26h0l0-.26h0a25.43,25.43,0,0,0-2.31-7.27l0-.07,0,0c-.14-.28-.31-.56-.47-.84s-.27-.49-.42-.73-.26-.36-.38-.55-.44-.64-.67-.94-.24-.29-.37-.44q-.41-.49-.84-1l0,0,14.82-2.36Zm5.06-42.69-26.93,4.29a14.4,14.4,0,0,0-3.26-1.23h0a15.48,15.48,0,0,0-3.73-.44c-.15,0-.3,0-.44,0a17.07,17.07,0,0,0-2.24.19,22.46,22.46,0,0,0-10,4.52l-257,40.9-.74-27.29,301.3-41.16,5.09-.65.4.08Z"/><path class="cls-1" d="M196.69,150.75a7,7,0,0,0-8,.58,8,8,0,0,0-3.19,6.59,6.84,6.84,0,0,0,3.12,5.65,6.57,6.57,0,0,0,3.55,1,7.39,7.39,0,0,0,4.45-1.54,8.12,8.12,0,0,0,3.22-6.59A6.81,6.81,0,0,0,196.69,150.75Z"/><path class="cls-1" d="M213.61,147.57a7,7,0,0,0-8,.58,8.07,8.07,0,0,0-3.18,6.59,6.86,6.86,0,0,0,3.11,5.66h0a6.68,6.68,0,0,0,3.56,1,7.45,7.45,0,0,0,4.45-1.53,8.18,8.18,0,0,0,3.22-6.6A6.84,6.84,0,0,0,213.61,147.57Z"/><path class="cls-1" d="M230.4,145.16a7,7,0,0,0-8,.58,8.07,8.07,0,0,0-3.18,6.59,6.86,6.86,0,0,0,3.11,5.66,6.71,6.71,0,0,0,3.56,1,7.45,7.45,0,0,0,4.45-1.53,8.18,8.18,0,0,0,3.22-6.6A6.84,6.84,0,0,0,230.4,145.16Z"/><path class="cls-1" d="M247.17,142.16a7,7,0,0,0-8,.58,8.1,8.1,0,0,0-3.19,6.59,6.87,6.87,0,0,0,3.12,5.66h0a6.65,6.65,0,0,0,3.55,1,7.36,7.36,0,0,0,4.45-1.53,8.19,8.19,0,0,0,3.23-6.6A6.82,6.82,0,0,0,247.17,142.16Z"/><path class="cls-1" d="M256.16,152.37h0a6.58,6.58,0,0,0,3.56,1,7.41,7.41,0,0,0,4.45-1.54,8.17,8.17,0,0,0,3.22-6.59,6.82,6.82,0,0,0-3.2-5.72,7,7,0,0,0-8,.58,8.1,8.1,0,0,0-3.19,6.59A6.86,6.86,0,0,0,256.16,152.37Z"/><path class="cls-1" d="M196.69,168.76a7,7,0,0,0-8,.59,8,8,0,0,0-3.19,6.58,6.86,6.86,0,0,0,3.12,5.66,6.65,6.65,0,0,0,3.55,1,7.38,7.38,0,0,0,4.45-1.53,8.15,8.15,0,0,0,3.22-6.6A6.81,6.81,0,0,0,196.69,168.76Z"/><path class="cls-1" d="M213.61,165.58a7,7,0,0,0-8,.59,8,8,0,0,0-3.18,6.58,6.85,6.85,0,0,0,3.11,5.66,6.61,6.61,0,0,0,3.56,1,7.39,7.39,0,0,0,4.45-1.54,8.07,8.07,0,0,0,3.22-6.6A6.84,6.84,0,0,0,213.61,165.58Z"/><path class="cls-1" d="M230.4,163.17a7,7,0,0,0-8,.59,8,8,0,0,0-3.18,6.58,6.85,6.85,0,0,0,3.11,5.66,6.63,6.63,0,0,0,3.56,1,7.39,7.39,0,0,0,4.45-1.54,8.16,8.16,0,0,0,3.22-6.59A6.84,6.84,0,0,0,230.4,163.17Z"/><path class="cls-1" d="M247.17,160.17a7,7,0,0,0-8,.59,8.08,8.08,0,0,0-3.19,6.58,6.86,6.86,0,0,0,3.12,5.66,6.58,6.58,0,0,0,3.56,1,7.36,7.36,0,0,0,4.44-1.54,8.17,8.17,0,0,0,3.23-6.59A6.83,6.83,0,0,0,247.17,160.17Z"/><path class="cls-1" d="M264.19,157.56a7,7,0,0,0-8,.59,8.07,8.07,0,0,0-3.19,6.58,6.88,6.88,0,0,0,3.12,5.66,6.66,6.66,0,0,0,3.56,1,7.4,7.4,0,0,0,4.45-1.53,8.21,8.21,0,0,0,3.22-6.6A6.82,6.82,0,0,0,264.19,157.56Z"/><path class="cls-1" d="M416.64,177.79a7,7,0,0,0-8,.58,8.07,8.07,0,0,0-3.18,6.59,6.85,6.85,0,0,0,3.11,5.66h0a6.68,6.68,0,0,0,3.56,1,7.45,7.45,0,0,0,4.45-1.53,8.18,8.18,0,0,0,3.22-6.6A6.84,6.84,0,0,0,416.64,177.79Z"/></svg>