<svg xmlns="http://www.w3.org/2000/svg" viewBox="0 0 480 320"><defs><style>.cls-1{fill:#000;}</style></defs><g id="Layer_1" data-name="Layer 1"><path class="cls-1" d="M437.36,104.35a4.73,4.73,0,0,0,.7-1.57,4.57,4.57,0,0,0-.69-3.62,11.66,11.66,0,0,0-2.87-2.53l-.4-.28-.09.11L262.77,28.55l-.53-.17c-3.45-.83-5.3,1.83-6,2.83a4,4,0,0,1-1.87,1.7L52,37.48l-2.92-2h0c-2.86-1.87-5-.9-6-.1-1.25,1-2,2.54-3,4.82L40,40.5c-5,8.08-12.87,33-12,59.38.93,29.58,7.65,56.85,10.18,67.12.37,1.52.64,2.62.78,3.26l.14.7.38.61a17.53,17.53,0,0,0,2,2.67,14.61,14.61,0,0,0,1.91,1.55L148.1,286.28l.24,0c.18.15.41.41.69.7,1.37,1.44,3.43,3.62,5.84,4.57a15.43,15.43,0,0,0,5.57.79c.66,0,1.34,0,2,0,.48,0,.87,0,1.12,0l.24-.18L424.3,274.33h.27l.66-.05A12.42,12.42,0,0,0,431,272.9a9.38,9.38,0,0,0,3.33-4.71c.06-.15.09-.26.06-.22s.61-1.94,1-3c11.88-31.23,18-59.08,18.22-82.78C453.69,165.86,451,139.19,437.36,104.35ZM251.91,41s6.57,1.12,10.11-4.11L419.41,99.28l-256.23,10.9a7.84,7.84,0,0,0-1.56.13c-.53-.19-1.46-.56-2.77-1.12l-95.29-64ZM46.83,44.54l.11.05c.08-.15.19-.39.32-.68l107.45,72.14.32.21.35.15.06,0c-.05.13-.1.26-.16.4q-1.46,3.75-2.76,7.37L44.35,49.61A28.73,28.73,0,0,1,46.83,44.54Zm108,237c-.5-.52-.89-.93-1.29-1.27l-.07.08-104.19-110,.11-.14-.69-.48,0,0L47.07,168l-.21.2-.27-.37c-.16-.69-.39-1.62-.67-2.75C43.45,155,36.87,128.36,36,99.63a135.21,135.21,0,0,1,5.66-42.18l108.2,74.61C140.05,161.89,138,185,138.08,199.85c.2,23.54,5.9,51.07,16.92,81.84Zm290.72-99.35c-.2,22.76-6.16,49.68-17.69,80-.7,1.84-.95,2.5-1.09,3l.09,0,0,.05c-.08.21-.23.58-.37.87-.57.1-1.41.16-1.83.19l-.88.08v0L164.37,284.08l-.58-1.58c-11.55-31.36-17.51-59.19-17.71-82.71-.15-16.61,2.63-44,16.66-80.06.26-.67.45-1.19.59-1.55l266.41-11.33C443,140.7,445.69,166.43,445.55,182.16Z"/><g id="dp_path025" data-name="dp path025"><path class="cls-1" d="M220.11,193.68a8.08,8.08,0,1,1-8,8.07,8,8,0,0,1,8-8.07Z"/></g><g id="dp_path026" data-name="dp path026"><path class="cls-1" d="M246,194a5.43,5.43,0,1,1-5.17,5.43A5.3,5.3,0,0,1,246,194Z"/></g><g id="dp_path027" data-name="dp path027"><path class="cls-1" d="M357.5,187.89a5.18,5.18,0,1,1-4.92,5.18,5.05,5.05,0,0,1,4.92-5.18Z"/></g><g id="dp_path028" data-name="dp path028"><path class="cls-1" d="M385.43,183.86c4.32,0,7.82,3.78,7.82,8.45s-3.5,8.45-7.82,8.45-7.83-3.78-7.83-8.45,3.5-8.45,7.83-8.45Z"/></g><path class="cls-1" d="M410.44,192.42c.09-9.92-6.55-20.07-21.59-20.4v0l-171.43,8.58h0c-9.14.19-16.35,3.94-20.3,10.7a22.45,22.45,0,0,0,.06,22.11c4,6.95,11.19,10.95,19.8,11h0L391.85,213v-.11C403.38,212.61,410.35,202.34,410.44,192.42ZM303.5,208.88c-6.63,0-12-5.06-12-11.27s5.4-11.27,12-11.27,12,5.06,12,11.27S310.13,208.88,303.5,208.88Zm-99.37.59a14.32,14.32,0,0,1-.11-14.1c2.57-4.4,7.61-6.77,14.2-6.75v0l70.1-3.51a18.64,18.64,0,0,0,1.5,26.56l-73.18,4.77C211.06,216.29,206.63,213.84,204.13,209.47Zm187.28-4.56v1.42l-.08-1.31L319,209.73a18.67,18.67,0,0,0-1.8-26.1L389.15,180c6.56.29,13.37,3.65,13.29,12.31C402.37,200.48,396.7,204.88,391.41,204.91Z"/></g></svg>