<svg xmlns="http://www.w3.org/2000/svg" viewBox="0 0 480 320"><defs><style>.cls-1{fill:#000;}</style></defs><g id="图层_1" data-name="图层 1"><path class="cls-1" d="M462.57,134.5a4,4,0,0,0-3.72-4L264.51,50.09h0A9.64,9.64,0,0,0,257,50l-9.54,2.39V33.17h0a8.54,8.54,0,0,0-8.63-8.62c-3.87,0-7,2.47-8.39,6.61a1.6,1.6,0,0,0-.05.21c0,.15-.07.29-.1.44s-.05.32-.06.48,0,.12,0,.19l-.57,24.47C171.8,72,120.32,88.11,52.44,112.23V95h0a8.54,8.54,0,0,0-8.63-8.62c-3.87,0-7,2.47-8.39,6.61,0,.07,0,.13,0,.2a2.13,2.13,0,0,0-.08.27c0,.08,0,.16,0,.24s0,.27,0,.41a1.38,1.38,0,0,0,0,.2l-.58,24.28c-4.58,1.65-9.22,3.33-14,5.06l-.06,0a3.75,3.75,0,0,0-.41.19l-.31.17a2.92,2.92,0,0,0-.28.21,3.17,3.17,0,0,0-.35.29.1.1,0,0,0,0,0l-.59.59a4.6,4.6,0,0,0-.45.54s-.07.11-.11.17a3.75,3.75,0,0,0-.24.44l-.09.21a5.76,5.76,0,0,0-.18.59.24.24,0,0,0,0,.09,4.17,4.17,0,0,0-.08.71v61.94a4,4,0,0,0,1.18,2.84,4.5,4.5,0,0,0,2.51,2.08l187.5,99.92h0l0,0a3.82,3.82,0,0,0,.55.24l.15,0a5.23,5.23,0,0,0,.54.12l.07,0a5.73,5.73,0,0,0,1.78.29,4.65,4.65,0,0,0,2.67-.83c13.49-3.17,59.33-18.31,59.84-18.48,5.07-1.69,10.32-3.63,15.4-5.52l5.3-1.95a4,4,0,0,0,3.83-3.84l.07-2.07,74.54-26.9,3.88.9a4,4,0,0,0,2.94,1.29,4.11,4.11,0,0,0,1.32-.22c20.21-7.06,49.47-18.34,74.08-31.94.6-.33,1-.56,1.21-.66a4.65,4.65,0,0,0,.56-.34l.2-.08.25-.1.42-.22.16-.09.05,0A3.48,3.48,0,0,0,459,204a.1.1,0,0,1,.05,0v0s0,0,0,0,.09-.12.14-.18a2.55,2.55,0,0,0,.26-.3l.05-.07.05-.06s.05-.1.08-.15.12-.21.18-.33a1.59,1.59,0,0,0,.08-.18l0,0a.43.43,0,0,0,0,0,3.31,3.31,0,0,0,.14-.41l.06-.23a.14.14,0,0,1,0-.06v0a3.12,3.12,0,0,0,.05-.44,1,1,0,0,0,0-.17l2.36-66v-.73Zm-79.82,28.29-6.64-1h-.2l-.24,0h0l-.15,0a2.75,2.75,0,0,0-.41,0l-.35.05-.45.11-.17.05L294,191.43a1.76,1.76,0,0,0-.2.09l-.21.08-.15.1-.36.22-.3.23a3.7,3.7,0,0,0-.28.28,3.58,3.58,0,0,0-.26.29,3.46,3.46,0,0,0-.22.31c-.07.11-.13.22-.19.33s-.11.23-.16.35l-.12.36c0,.12-.06.25-.09.38s0,.25,0,.37,0,.26,0,.39,0,.26,0,.39,0,.26.07.38a2.6,2.6,0,0,0,.1.4l0,.11c-34.68,12.75-66.74,23-79.16,25.34h-.94l-4.18-2.16,234.83-87.38,7.64,3.16C437.24,141.73,411.51,152.27,382.75,162.79ZM25.43,134.86,192.9,221.22s0,.08,0,.12L192,276.78,25.43,188Zm175.4,90.45,5.71,2.94v56.3L199.9,281Zm58.4-167.64a4.07,4.07,0,0,0,.82-.31,1.85,1.85,0,0,1,1.14,0l.13,0,.13.07,169.85,70.3L197.72,214.7,30.64,128.55C122.08,95.42,182.65,76.66,259.23,57.67Zm27.65,205.46c-5,1.86-10.21,3.79-15.15,5.43-12.08,4-45.71,14.83-57.19,17.86V229.57c13.07-2.57,44.46-12.61,78.4-25L291,258.76a4,4,0,0,0-.08,2.16l0,.73Zm14.26-64.23v0c0-.07,0-.12,0-.19a2.55,2.55,0,0,0,0-.39,1.5,1.5,0,0,0,0-.2,1.6,1.6,0,0,0,0-.21,2.24,2.24,0,0,0-.1-.37s0-.06,0-.1l70.37-25.87-2,57.33-70.08,25.29ZM385,228.12l2.06-58.39c29.66-10.89,54.72-21.22,67.26-27.63l-2,56.49-.55.31C430,210.93,404.42,221.13,385,228.12Z"/><path class="cls-1" d="M241.93,256.82c-3.58-1.37-7.7.68-9.18,4.56a7.88,7.88,0,0,0-.13,5.37,6.69,6.69,0,0,0,3.93,4.15,6.4,6.4,0,0,0,2.32.43,7,7,0,0,0,3.38-.9,7.93,7.93,0,0,0,3.48-4.09C247.21,262.46,245.51,258.19,241.93,256.82Z"/><path class="cls-1" d="M430.77,177.92a13.11,13.11,0,0,0-5.16-3.59c-7.52-2.87-16.26,1.65-19.48,10.08a17.4,17.4,0,0,0-.25,12.06,13.82,13.82,0,0,0,8.05,8.45,13.28,13.28,0,0,0,4.7.86,14.82,14.82,0,0,0,7.95-2.42,15.23,15.23,0,0,0,8.47-8.88C437.56,187.9,435.62,180.93,430.77,177.92Z"/></g></svg>