<svg xmlns="http://www.w3.org/2000/svg" viewBox="0 0 480 320"><defs><style>.cls-1{fill:#000;}</style></defs><g id="Layer_1" data-name="Layer 1"><path class="cls-1" d="M432.51,155.43a5.92,5.92,0,0,0-1.24-.71l0-.1L259.87,84.2a12.58,12.58,0,0,0-8.58-.34l-15.76,5.3V21.71A5.78,5.78,0,0,0,233.24,17a6,6,0,0,0-5.35-.83,7.68,7.68,0,0,0-5.33,7.06V93.53L107.67,132.18V63a5.81,5.81,0,0,0-2.29-4.73,6,6,0,0,0-5.35-.82,7.67,7.67,0,0,0-5.33,7.06v72L51,151.23A10.19,10.19,0,0,0,43.89,161L44.35,206a11,11,0,0,0,5.52,9.49l149.71,85.25a7.71,7.71,0,0,0,2.24,2.34,6.49,6.49,0,0,0,3.6,1.08,6.66,6.66,0,0,0,2.31-.41L359,248.42l.71-.26,9.7-8.6,30.16-11,6.48,2.68,20.11-7.35c4.25-1.55,6.71-6.9,6.94-11.38l2.54-49C435.81,160,434.67,157,432.51,155.43Zm-178.75-64a4.56,4.56,0,0,1,3.07.13L418,157.78l-8.54,3.12-6.47-2.67L365.19,172l-9.7,8.59L201.71,236.85a7.89,7.89,0,0,0-2.08,1.16L57.75,157.42ZM204.07,259.64l139.79-51.11a4,4,0,0,1,0,.51v12.75a5.77,5.77,0,0,1-1.41,4L205,276ZM52.35,205.92l-.44-42.62L195.67,245a14,14,0,0,0-.23,3.44l2.32,42L53.83,208.51A3,3,0,0,1,52.35,205.92Zm303.18,35.24-148.8,54.41-.7-.4s0-.06,0-.1l-.59-10.69L345.3,233.23c4.33-1.58,6.6-6.95,6.59-11.44V209c0-3.42-1.26-6.26-3.46-7.8a6.35,6.35,0,0,0-5.89-.73L203.61,251.29l-.19-3.32a5.07,5.07,0,0,1,1.11-3.64L358.6,188l0,49.82h.67Zm11.1-9.1,0-50.59,2.77-2.45,33.4-12.21,1.5.62-1.75,53.66L399.75,220Zm61-69-2.54,49a6.6,6.6,0,0,1-1.7,4.29l-12.89,4.71L411.3,197a6.76,6.76,0,0,0,1.95,2.16,5.84,5.84,0,0,0,3.38,1.07,6,6,0,0,0,2.12-.38c3.89-1.42,5.92-6.21,5.92-10.2,0-3.11-1.16-5.69-3.18-7.1a5.91,5.91,0,0,0-5.5-.69,8.35,8.35,0,0,0-4.33,4l.57-17.42,15.42-5.63C427.65,162.86,427.64,163,427.64,163.09Z"/><path class="cls-1" d="M391.56,181.58a10.61,10.61,0,0,0-10-1.21c-7.82,2.86-13.93,14.23-13.93,25.88,0,7.43,2.47,13.41,6.75,16.4a10.42,10.42,0,0,0,6,1.93,11.39,11.39,0,0,0,3.92-.72c7.82-2.86,13.94-14.23,13.93-25.89C398.3,190.55,395.84,184.57,391.56,181.58Zm-9.93,34.77a2.65,2.65,0,0,1-2.63-.26c-1.53-1.07-3.32-4.29-3.33-9.84,0-8.95,4.57-16.87,8.68-18.37a3.51,3.51,0,0,1,1.17-.23,2.46,2.46,0,0,1,1.46.49c1.53,1.07,3.32,4.29,3.32,9.84C390.31,206.93,385.74,214.84,381.63,216.35Z"/></g></svg>