<?xml version="1.0" encoding="UTF-8"?><svg id="Layer_1" xmlns="http://www.w3.org/2000/svg" viewBox="0 0 480 320"><defs><style>.cls-1{fill:#000;}</style></defs><path class="cls-1" d="M463.14,143.91c0-2.12-1.65-3.83-3.73-3.97L264.57,59.29h0c-3.23-1.49-6.3-.6-7.52-.11-6.42,1.59-12.72,3.19-18.95,4.78V22.82c0-4.56-3.57-8.13-8.13-8.13-3.59,0-6.39,2.15-7.78,5.9-.02,.05-.04,.1-.06,.15-.03,.08-.07,.15-.09,.23-.02,.06-.03,.13-.04,.19-.04,.14-.07,.27-.09,.41-.02,.14-.04,.27-.05,.41,0,.07-.02,.13-.02,.2l-.56,46.17c-53.13,14.11-101.74,29.34-163.92,51.32v-44.88c0-4.56-3.57-8.13-8.13-8.13-3.57,0-6.37,2.14-7.76,5.86-.02,.03-.03,.07-.05,.1-.02,.04-.03,.08-.04,.12-.02,.07-.06,.13-.08,.2-.02,.06-.02,.11-.04,.17-.02,.08-.06,.17-.07,.25-.01,.07-.02,.14-.03,.2-.02,.12-.03,.25-.04,.37,0,.06-.02,.12-.02,.18l-1.12,51.76c-6.47,2.32-13.08,4.71-19.87,7.18-.02,0-.04,.02-.06,.03-.14,.05-.27,.12-.4,.19-.11,.06-.22,.1-.32,.17-.1,.06-.18,.14-.28,.21-.12,.09-.25,.18-.36,.29-.02,.02-.03,.03-.05,.04l-.59,.59h0c-.17,.17-.31,.35-.44,.54-.04,.06-.08,.12-.11,.18-.09,.14-.17,.29-.24,.44-.03,.07-.06,.14-.09,.21-.07,.19-.14,.38-.18,.58,0,.03-.02,.06-.03,.09-.05,.23-.07,.47-.07,.71,0,.03,0,.05,0,.08v62.02c0,1.11,.45,2.11,1.18,2.84,.54,.98,1.43,1.72,2.52,2.08l187.98,100.18h0l.04,.03c.18,.1,.36,.17,.55,.24,.05,.02,.1,.03,.15,.05,.18,.06,.36,.1,.54,.13,.02,0,.05,.01,.07,.02,.65,.21,1.24,.29,1.78,.29,1.15,0,2.04-.39,2.68-.83,13.52-3.18,59.48-18.35,59.99-18.53,5.08-1.69,10.35-3.65,15.44-5.53,1.83-.68,3.6-1.33,5.31-1.96,2.07-.08,3.76-1.74,3.83-3.84l.07-2.09,74.74-26.97,3.9,.9c.75,.82,1.82,1.3,2.94,1.3,.44,0,.88-.07,1.32-.22,20.26-7.08,49.6-18.38,74.27-32.02,.6-.33,1-.56,1.21-.66,.2-.1,.39-.21,.56-.34,.07-.02,.14-.06,.21-.08,.08-.03,.17-.06,.25-.1,.14-.06,.28-.14,.42-.22,.07-.04,.13-.07,.2-.12,.18-.12,.34-.25,.5-.4,.01-.01,.03-.02,.05-.04,.17-.16,.32-.34,.45-.53,.04-.06,.07-.12,.11-.18,.09-.14,.17-.28,.25-.43,.04-.07,.07-.15,.1-.23,.06-.15,.11-.29,.15-.45,.02-.08,.04-.16,.06-.25,.03-.17,.06-.34,.07-.51,0-.06,.02-.11,.02-.17l2.36-66.16s0-.05,0-.07c0-.03,0-.05,0-.07v-.59Zm-203.87-77.04c.34-.08,.49-.12,.78-.28,.16-.06,.76-.25,1.2-.03,.04,.02,.09,.03,.14,.05,.04,.02,.08,.05,.12,.07l188.86,78.17c-12.59,6.31-38.4,16.88-67.24,27.43l-6.66-1.02c-.07-.01-.14,0-.2-.01-.08,0-.16-.03-.24-.03h-.02c-.05,0-.1,0-.16,0-.13,0-.26,0-.39,.02-.08,0-.16,.01-.25,.02h-.02s-.06,.02-.09,.03c-.15,.03-.29,.07-.43,.11-.06,.02-.12,.02-.18,.05l-80.33,29.53c-.07,.03-.13,.07-.2,.1-.07,.03-.14,.05-.21,.08-.05,.03-.1,.07-.15,.1-.12,.07-.24,.14-.35,.22-.1,.07-.21,.15-.3,.23-.1,.09-.2,.18-.29,.28-.09,.09-.17,.19-.25,.29-.08,.1-.15,.21-.22,.31-.07,.11-.14,.22-.19,.33-.06,.11-.11,.23-.15,.35-.05,.12-.09,.24-.13,.36-.04,.12-.06,.25-.09,.38-.02,.13-.04,.25-.06,.38-.01,.13-.01,.25-.01,.38,0,.13,0,.27,.02,.4,.01,.12,.04,.25,.06,.37,.03,.14,.06,.27,.11,.41,.01,.04,.02,.08,.03,.12-34.77,12.78-66.92,23.08-79.38,25.4-.05,0-.09-.01-.14-.01h-.8L30.07,137.95c7.98-2.89,15.71-5.67,23.25-8.35h.02c.95,0,1.81-.34,2.5-.9,77.81-27.62,134.07-44.63,203.43-61.83ZM24.86,144.26l182.79,94.25v56.48L24.86,197.59v-53.32Zm262.14,128.63c-5.03,1.86-10.23,3.79-15.19,5.44-11.72,3.91-43.69,14.18-56.17,17.59v-56.94c13.74-2.92,44.38-12.77,77.44-24.87l-1.94,54.39c-.22,.69-.26,1.43-.08,2.17l-.03,.73c-1.32,.48-2.66,.98-4.04,1.49Zm14.29-64.41v-.05c0-.06,0-.12,0-.18,0-.13,0-.26-.02-.4,0-.07,0-.14-.02-.2-.01-.07-.04-.14-.05-.21-.03-.12-.06-.25-.1-.37-.01-.04-.02-.07-.03-.11l70.58-25.95-2.05,57.5-70.28,25.36,1.98-55.41Zm84.07,29.31l2.07-58.56c29.75-10.93,54.88-21.28,67.45-27.71l-2.02,56.66c-.17,.09-.36,.2-.56,.31-21.83,12.07-47.46,22.29-66.94,29.3Z"/><path class="cls-1" d="M288.44,111.43h2.36c1.18-.59,1.77-.59,2.95-1.18,.59-.59,1.18-.59,1.18-1.18-.59-.59-1.18-.59-1.77-1.18-.59,0-1.18-.59-2.36-.59s-1.77,.59-2.36,.59c-.59,.59-1.77,.59-2.36,1.18q-.59,.59,0,1.18c1.18,.59,1.77,.59,2.36,1.18Z"/><path class="cls-1" d="M160.26,155.14c5.91,4.13,11.81,8.86,17.72,12.99,1.18,.59,2.36,1.18,4.13,1.77,1.77,.59,4.13,.59,6.5,.59s4.73-1.18,6.5-1.77c2.36-1.18,5.32-1.77,7.68-2.95s4.13-2.36,4.13-4.13c0-.59-1.18-1.77-2.36-2.36-6.5-4.13-12.99-8.27-18.9-12.4-.59-.59-1.77-.59-2.95-.59-.59,.59-1.77,.59-2.36,1.18,0,0,0,.59,.59,1.18l18.9,12.4c.59,.59,1.18,1.18,1.18,1.77-.59,.59-1.77,.59-2.36,1.18l-8.86,2.95c-1.18,0-2.36,.59-3.54,.59s-2.36-.59-2.95-1.18c-5.91-4.13-11.81-8.27-17.72-12.4-.59-.59-1.18-1.18-2.36-1.18-1.77-.59-2.36,0-3.54,.59-.59,0-1.18,.59,.59,1.77Z"/><path class="cls-1" d="M312.65,109.06c.59,1.18,1.77,1.77,2.95,2.36,1.18,.59,2.95,.59,4.73,1.18,3.54,1.18,7.68,1.77,11.22,2.36,2.36,.59,4.13,.59,5.91,.59,1.77-.59,2.95-.59,4.13-1.18l6.5-2.36c.59-.59,1.77-.59,1.77-1.18s-.59-.59-1.18-1.18c-1.18-.59-2.36-.59-2.95-.59-1.18,0-1.77,.59-2.36,.59-2.36,.59-4.13,1.77-6.5,2.36h-2.95c-3.54-.59-7.09-1.18-10.63-1.77-1.18-.59-2.95-.59-3.54-1.18-1.18-.59-1.18-1.18-1.77-1.77-1.18-1.18-2.36-2.95-2.95-4.13-.59-.59,0-1.18,.59-1.18,1.77-1.18,4.13-1.77,5.91-2.36,1.18,0,1.77,0,2.36-.59,0,0,.59,0,0-.59,0,0-1.18-.59-1.77-.59-1.18-.59-1.77,0-2.36,0l-4.73,1.77c-1.77,0-2.95,.59-4.13,1.18-1.18,0-1.77,.59-1.77,1.18s0,1.77,.59,2.36c1.18,1.77,1.77,2.95,2.95,4.73Z"/><path class="cls-1" d="M290.21,115.56c0,.59,1.18,1.18,1.18,1.77,.59,0,1.77-.59,2.36-.59,1.77,0,2.95-.59,4.13-1.18l12.99,6.5-3.54,1.18c-.59,.59-1.18,.59-1.18,1.18s1.18,1.18,2.36,1.18,2.36-.59,2.95-.59c3.54-1.77,7.09-2.95,10.63-4.13,1.18-.59,1.77-.59,1.77-1.18s-1.18-1.18-2.36-1.18c-.59,0-1.77,.59-2.36,.59-1.18,.59-2.36,.59-3.54,1.18l-13.59-6.5c-.59-.59-1.18-1.18-2.36-1.18-1.18-.59-1.77,0-2.36,0-1.77,.59-3.54,1.18-5.32,1.77-.59,.59-1.77,.59-1.77,1.18Z"/><path class="cls-1" d="M221.69,158.09c1.18,0,2.36-.59,2.95-1.18,.59,0,0-.59-.59-1.18-4.73-2.95-8.86-5.32-12.99-8.27l1.18-.59c8.86,1.18,17.72,2.36,26.58,3.54h2.95c.59,0,1.18-.59,1.77-.59,2.95-1.18,5.91-1.77,8.27-2.95,.59,0,1.18-.59,1.18-1.18,.59-.59,0-1.77,0-2.36,0-1.18-.59-1.77-.59-2.95,3.54-1.18,6.5-2.36,10.04-3.54,1.77,1.18,3.54,1.77,5.32,2.95,.59,.59,1.77,.59,2.36,.59,1.77,0,2.95-.59,2.95-1.18s0-.59-.59-1.18c-8.27-4.73-16.54-8.86-24.81-13.59-.59,0-1.18-.59-1.77-.59-1.18,0-1.77,0-2.36,.59-1.18,.59-.59,1.77-.59,2.36,1.18,5.91,2.95,11.81,4.73,18.31-2.36,.59-4.13,1.77-6.5,2.36-7.68-1.18-15.36-1.77-23.04-2.95,1.77-.59,3.54-1.18,5.32-1.77,1.18-.59,2.95-1.18,3.54-1.77,1.18-1.18,1.18-1.77,.59-2.95-.59-1.18-2.36-1.77-3.54-2.36-1.77-.59-4.13-1.18-5.91-1.18-2.95,0-5.32,0-7.09,1.18l-17.72,5.91c8.27,5.32,16.54,10.63,25.99,15.95,.59,.59,1.77,.59,2.36,.59Zm36.62-23.04c-2.95,1.18-5.32,1.77-7.68,2.95-.59-2.95-1.77-5.32-2.36-8.27,3.54,1.77,6.5,3.54,10.04,5.32Zm-56.7,6.5l12.4-3.54c.59,0,1.77-.59,2.95-.59,.59,0,1.18,.59,1.77,.59s1.77,.59,2.36,1.18v.59c-.59,.59-1.18,.59-2.36,1.18l-11.81,4.13-5.32-3.54Z"/><path class="cls-1" d="M143.72,184.67c.59,.59,1.77,.59,2.36,.59,2.36,0,1.77,0,2.95-.59,1.18-.59,.59-1.18,.59-1.77,0-1.18-.59-2.95-1.18-4.13l14.18-5.32c1.77,1.18,4.13,1.77,6.5,2.36h4.73c1.18-.59,2.36-1.18,2.36-1.77,0,0,0-.59-.59-.59-11.81-4.13-23.04-7.68-34.26-11.81-1.18-.59-1.77-.59-2.95-.59s-1.77,0-2.36,.59c-.59,0,0,1.77-1.18,2.95,2.95,6.5,5.91,12.4,8.86,20.08Zm8.86-14.77c1.77,.59,3.54,1.18,4.73,1.77l-10.04,3.54c-1.18-2.36-2.36-4.73-3.54-7.09,0-.59-.59-1.18-1.18-1.77,2.95,1.18,7.09,2.36,10.04,3.54Z"/><path class="cls-1" d="M300.25,128.55c.59-.59,1.18-.59,1.18-1.18s-1.18-1.18-2.36-1.18c-.59,0-1.77,.59-2.36,.59l-15.36,5.32c-7.68-4.13-15.36-8.27-22.45-12.4-.59-.59-1.77-.59-2.36-.59-1.18,.59-1.77,.59-2.36,1.18-.59,.59,0,1.18-.59,1.18,8.27,4.73,17.13,10.04,25.99,14.77,7.09-2.95,14.18-5.32,20.67-7.68Z"/><path class="cls-1" d="M235.02,266.94c-2.81-.52-5.95,1.51-7.02,4.53s.33,5.89,3.14,6.4c2.81,.52,5.95-1.51,7.02-4.53,1.07-3.02-.33-5.89-3.14-6.4Z"/><path class="cls-1" d="M400.48,208.73c-2.81-.52-5.95,1.51-7.02,4.53-1.07,3.02,.33,5.89,3.14,6.4,2.81,.52,5.95-1.51,7.02-4.53,1.07-3.02-.33-5.89-3.14-6.4Z"/><path class="cls-1" d="M414.25,203.72c-2.81-.52-5.95,1.51-7.02,4.53-1.07,3.02,.33,5.89,3.14,6.4,2.81,.52,5.95-1.51,7.02-4.53,1.07-3.02-.33-5.89-3.14-6.4Z"/><path class="cls-1" d="M428.03,198.4c-2.81-.52-5.95,1.51-7.02,4.53s.33,5.89,3.14,6.4c2.81,.52,5.95-1.51,7.02-4.53,1.07-3.02-.33-5.89-3.14-6.4Z"/><path class="cls-1" d="M440.87,193.07c-2.81-.52-5.95,1.51-7.02,4.53-1.07,3.02,.33,5.89,3.14,6.4,2.81,.52,5.95-1.51,7.02-4.53,1.07-3.02-.33-5.89-3.14-6.4Z"/></svg>