<svg xmlns="http://www.w3.org/2000/svg" viewBox="0 0 480 320"><defs><style>.cls-1{fill:#000;}</style></defs><g id="Õ_1" data-name="Õº≤„ 1"><path class="cls-1" d="M462,148.3c-5.64-7.6-22.24-27.47-37.84-40.77-16.49-14-34.47-24.66-46.58-31.43-7.67-4.25-21.8-11.57-35.46-18.66S315.64,43.72,310.73,40.9c-10.07-5.67-17.8-11.13-19.05-12.4-3-3.17-7.88-2.5-9.35-2.21L58.62,50.39c-9.15.21-10.69,2.79-11.28,3.77a4.87,4.87,0,0,0-.12,4.75c3.44,6.7,4.11,12,4.07,15.32-.1,7.26-.47,10.91-2.35,17l-.48,1.59c-2.13,7-7.13,23.44-8.53,27.17l-.45,1.18c-11.43,29.78-16.7,52.57-19.11,66.45C14.76,220,16.58,246.47,17.14,250c.64,4.05,2.78,6.65,6.36,7.71a10.38,10.38,0,0,0,2.3.4c-.27,5.83-.74,18-.15,22.35l.08.57c.83,6.2,1.25,9.34,3.21,11.36.58.62,1.56,1.6,4.39,1.6a26.5,26.5,0,0,0,7.35-1.34l399.86-104.5a7.41,7.41,0,0,0,4.44-3c.58-.93,1.94-3.12-2-9.45-.5-.79-1-1.55-14.35-10.06l28.08-6.49c1.36-.25,5.26-1.26,6.53-4.62A6.21,6.21,0,0,0,462,148.3ZM33.79,258.5l56.77-13.24,2.7,5.23,299.26-72.9.5-2.88,25.54-6,4.83,3.05-386.23,104-.11,0c-1.24.37-2.61.71-3.65.92C33.26,272.09,33.55,263.8,33.79,258.5Zm402.92-77.65L38.59,284.9l-.15,0a32.85,32.85,0,0,1-3.88.9c-.07-.32-.14-.69-.21-1.09a46.27,46.27,0,0,0,4.94-1.21L432.43,177.66c1.92,1.26,3.36,2.25,4,2.76C436.54,180.56,436.63,180.7,436.71,180.85ZM28.1,250a7,7,0,0,1-2.33,0,2,2,0,0,1-.39-.15,3.09,3.09,0,0,1-.34-1.15c-.45-2.79-2.19-28.45,3.22-59.74C30.6,175.45,35.75,153.2,47,124c.2-.54.36-1,.47-1.24,1.49-4,6.35-20,8.69-27.65l.48-1.58c2.19-7.09,2.59-11.47,2.7-19.23A39.14,39.14,0,0,0,55.91,58.6c1-.11,2.05-.2,3.05-.22h.17L283.39,34.23l.44-.08a5.88,5.88,0,0,1,2.17,0c2.31,2.28,10.84,8.13,20.78,13.73,5,2.88,18,9.59,31.65,16.69s27.69,14.35,35.25,18.54c19,10.63,33,20,45.28,30.53,14.1,12,29.06,29.61,35.41,37.87Z"/><path class="cls-1" d="M239,103.3a1.74,1.74,0,0,0-.78-.91,1.7,1.7,0,0,0-1.49.11c-.67.35-.8,1.19-1,1.92q-1.77,8.33-3.53,16.66l-4.07.76c-3.55-2.18-7.1-4.38-10.66-6.54,1.06-.22,2.13-.4,3.19-.61a6.27,6.27,0,0,0,2.48-1,2.55,2.55,0,0,0,1.13-2.28,10.18,10.18,0,0,0-1-2.62,4.6,4.6,0,0,0-2.53-2.26,7.43,7.43,0,0,0-4-.39l-10.67,2,8.25,17.53a1.49,1.49,0,0,0,1.16.84,2.49,2.49,0,0,0,1.77-.41c.31-.24.25-.74,0-1.17l-4.16-8.82.71-.13q6.16,3.76,12.34,7.57a4.32,4.32,0,0,0,1.4.68,3,3,0,0,0,1.15,0l4.92-.92a1.32,1.32,0,0,0,1-.73,5.06,5.06,0,0,0,.62-1.8c.19-.8.39-1.6.58-2.41l6.45-1.21c.57,1.08,1.12,2.17,1.68,3.25a1.73,1.73,0,0,0,1.08.87,1.69,1.69,0,0,0,1.9-.49.92.92,0,0,0,.1-1Q243,111.57,239,103.3Zm-27,10.41c-.58-1.24-1.17-2.49-1.76-3.73l7.39-1.39a3.83,3.83,0,0,1,1.78,0,1.24,1.24,0,0,1,.79.66c.27.56.54,1.13.79,1.69a.64.64,0,0,1-.09.75,3.26,3.26,0,0,1-1.59.63Zm24.4,2c.54-2.46,1-5,1.57-7.41,1.09,2.17,2.13,4.35,3.2,6.52Z"/><path class="cls-1" d="M298.73,108.54a7.53,7.53,0,0,0-1.74.23c-1.61.28-3.18.64-4.81.86a2.11,2.11,0,0,1-1.6-.56c-1.65-1.31-3.29-2.65-4.94-4a3.83,3.83,0,0,1-1.32-1.54,3.42,3.42,0,0,1-.14-2.08c.24-1.59.45-3.18.7-4.76a1.1,1.1,0,0,1,1-.92l4.52-.85a7,7,0,0,0,1.68-.43.9.9,0,0,0,.51-.85,1.55,1.55,0,0,0-.71-1.09,2.23,2.23,0,0,0-1.59-.23L287,93a22.76,22.76,0,0,0-2.91.63,3.76,3.76,0,0,0-1.56.92,3.65,3.65,0,0,0-.87,2.11c-.23,1.7-.48,3.39-.71,5.09a4.28,4.28,0,0,0,.43,2.5,6.37,6.37,0,0,0,1.88,2.26c1.69,1.37,3.38,2.72,5.07,4.08a6.75,6.75,0,0,0,2.86,1.42,7.33,7.33,0,0,0,2.69,0l4.71-.88a2.73,2.73,0,0,0,1.4-.48.92.92,0,0,0,.12-1.2A1.71,1.71,0,0,0,298.73,108.54Z"/><path class="cls-1" d="M266.74,99.32a1.38,1.38,0,0,0,1.18.7,13,13,0,0,0,2-.3c.48-.1,1-.18,1.22-.66s-.2-.88-.39-1.31a2.38,2.38,0,0,0-.82-1.19,2.32,2.32,0,0,0-1.63-.09,10.51,10.51,0,0,0-1.88.44.72.72,0,0,0-.36,1C266.28,98.39,266.5,98.86,266.74,99.32Z"/><path class="cls-1" d="M175.72,115.1a2.5,2.5,0,0,0-1.36-.82,2.44,2.44,0,0,0-1.65.25,1.29,1.29,0,0,0-.54,1.29q.36,8.75.73,17.46c0,.33.33.61.63.73a2.64,2.64,0,0,0,2.2,0,1.39,1.39,0,0,0,.76-1.29c0-1.07,0-2.13,0-3.2l7.49-1.41c.92.91,1.83,1.83,2.75,2.73a2.72,2.72,0,0,0,2.05.78,1.8,1.8,0,0,0,1.57-.89.59.59,0,0,0-.15-.68Q182.95,122.57,175.72,115.1Zm.61,11.87c-.08-2.06-.18-4.13-.27-6.19a5.07,5.07,0,0,1,0-.87c1.35,1.28,2.69,2.58,4,3.91.65.67,1.24,1.38,1.83,2.11Z"/><path class="cls-1" d="M281.79,112.18a2.7,2.7,0,0,0-1.59-.16l-2.49.47-4.08-8.65a3.36,3.36,0,0,0-1-1.44,2,2,0,0,0-1.37-.23c-1.26.17-2.48.45-3.71.67a2.55,2.55,0,0,0-1.55.68c-.3.38,0,1.17.57,1.48a2.66,2.66,0,0,0,1.54.22c.93-.13,1.83-.33,2.74-.5q2,4.17,3.91,8.31l-2.57.48a2.07,2.07,0,0,0-1.19.61c-.33.41,0,1.28.69,1.55a3.29,3.29,0,0,0,1.83.09l7.53-1.43a1.93,1.93,0,0,0,1.37-.7C282.72,113.22,282.36,112.44,281.79,112.18Z"/><path class="cls-1" d="M266.2,114.92a2.33,2.33,0,0,0-1.53-.09l-10.21,1.92c-2.37-5-4.73-10.07-7.12-15.1a1.52,1.52,0,0,0-1.23-.9,2.65,2.65,0,0,0-1.63.35.82.82,0,0,0-.17,1.09q4.11,8.76,8.24,17.51c4.52-.86,9.06-1.7,13.59-2.55a1.23,1.23,0,0,0,.9-.65A1.46,1.46,0,0,0,266.2,114.92Z"/><path class="cls-1" d="M200.87,110.35a1.55,1.55,0,0,0-1.32-.89,2.47,2.47,0,0,0-1.59.41.91.91,0,0,0-.08,1.14q3.17,6.69,6.32,13.41c.22.47.4,1,.14,1.4a2.45,2.45,0,0,1-1.39.59l-4.88.91a3.08,3.08,0,0,1-1.75,0,2.73,2.73,0,0,1-1.12-1.37l-6.09-13a2,2,0,0,0-.89-1.1,2.44,2.44,0,0,0-1.92.07.83.83,0,0,0-.4,1.22c2,4.38,4.13,8.75,6.18,13.13a5.86,5.86,0,0,0,1.49,2.19,6.53,6.53,0,0,0,3.15,1.37,11.36,11.36,0,0,0,3.58-.34l4.35-.83a3.63,3.63,0,0,0,3-2.43,3.44,3.44,0,0,0-.39-2.39Q204.06,117.1,200.87,110.35Z"/></g></svg>