<svg xmlns="http://www.w3.org/2000/svg" viewBox="0 0 480 320"><defs><style>.cls-1{fill:#000;}</style></defs><g id="Layer_1" data-name="Layer 1"><path class="cls-1" d="M458.42,144.79h0v-.53a4,4,0,0,0-3.72-4L264.07,61.38h0a9.6,9.6,0,0,0-7.42-.11c-6.25,1.55-12.37,3.1-18.43,4.66V25.78a8,8,0,0,0-8-8c-3.55,0-6.32,2.13-7.69,5.83a.94.94,0,0,0-.06.15c0,.08-.07.15-.1.23s0,.13,0,.19a2.84,2.84,0,0,0-.09.42,2.73,2.73,0,0,0,0,.4c0,.07,0,.14,0,.2l-.54,45.12C169.66,84.06,122.13,99,61.37,120.43V76.64a8,8,0,0,0-8-8c-3.53,0-6.3,2.12-7.67,5.8a.59.59,0,0,1,0,.08s0,.09,0,.13a1.67,1.67,0,0,1-.08.2c0,.06,0,.11,0,.17s0,.16-.07.24l0,.22c0,.12,0,.24,0,.36s0,.12,0,.18l-1.1,50.59q-9.47,3.39-19.39,7a5.45,5.45,0,0,0-2.1,6.89v43.83a3.76,3.76,0,0,0-.64.87,4,4,0,0,0,.64,4.61v8.82a2.84,2.84,0,0,0,.09.66,4,4,0,0,0,2.08,4l184.31,98.22h0l0,0a4.25,4.25,0,0,0,.54.24l.16.05a5,5,0,0,0,.53.12l.07,0a6,6,0,0,0,1.77.29,4.68,4.68,0,0,0,2.65-.82c13.28-3.13,58.19-18,58.69-18.13,5-1.65,10.13-3.56,15.11-5.41l5.19-1.91a4,4,0,0,0,3.82-3.84l.07-2,73.05-26.37,3.76.87a4,4,0,0,0,2.92,1.28,4.06,4.06,0,0,0,1.32-.22c19.83-6.93,48.54-18,72.68-31.34l1.19-.65a3.81,3.81,0,0,0,.55-.33l.2-.08.24-.1a4.23,4.23,0,0,0,.42-.22l.19-.11a4.54,4.54,0,0,0,.48-.39l.07-.05a4.65,4.65,0,0,0,.45-.53s.07-.11.11-.17.17-.28.25-.43a2.29,2.29,0,0,1,.1-.23,3,3,0,0,0,.15-.45l.06-.24a3,3,0,0,0,.07-.51c0-.06,0-.11,0-.17L458.41,145s0,0,0-.07,0,0,0-.07Zm-260,91.69L28.59,147.65l-.12-.05v-3.43l170,87.64Zm0,9V274l-170-90V156.61ZM28.62,196.21l-.15-.06v-3.07l170,90v3.65Zm177.81,39.72.67.35v55l-.67-.36Zm8.62-6.5L291,201.58l0,.06a3.54,3.54,0,0,0-.19.33,3.73,3.73,0,0,0-.16.35,2.53,2.53,0,0,0-.12.36,2.34,2.34,0,0,0-.09.38l-.06.37c0,.13,0,.26,0,.39s0,.26,0,.39l.06.38a3,3,0,0,0,.11.4s0,0,0,0C258.35,216.86,228.47,226.51,215.05,229.43Zm165-57.49-5.76-.89,71-26,.39.16C433.26,151.36,408.12,161.66,380,171.94ZM258.88,69a2.34,2.34,0,0,0,.77-.27,1.59,1.59,0,0,1,1.1,0l.14,0,.12.07,173.31,71.73L203.19,225.26,34.81,138.44q11.6-4.2,22.55-8.1h0a4,4,0,0,0,2.49-.89C136,102.44,191,85.79,258.88,69ZM286,270.38c-4.92,1.82-10,3.71-14.86,5.32-11.81,3.94-44.66,14.49-56,17.49v-55.6c12.85-2.55,43.55-12.36,76.75-24.52L290,266.14a3.92,3.92,0,0,0-.08,2.15l0,.65Zm14.1-62.94v0c0-.06,0-.12,0-.18s0-.26,0-.4a1.41,1.41,0,0,0,0-.2c0-.07,0-.14-.05-.21s-.06-.25-.1-.37v0l68.87-25.32-2,56.08-68.59,24.75ZM382.32,236l2-57.11c29-10.65,53.48-20.74,65.82-27l-2,55.24-.51.28C426.38,219.15,401.36,229.13,382.32,236Z"/><path class="cls-1" d="M404.93,207.88a5.78,5.78,0,1,0,3.33,7.46A5.77,5.77,0,0,0,404.93,207.88Z"/><path class="cls-1" d="M416.85,203.79c-1.73-.58-4,1.15-5.2,3.47s0,5.2,1.73,5.77,4.05-.57,5.2-3.46C419.74,207.26,418.58,204.37,416.85,203.79Z"/><path class="cls-1" d="M430.27,198.39a5.78,5.78,0,1,0,1.78,8A5.79,5.79,0,0,0,430.27,198.39Z"/><path class="cls-1" d="M441.25,192.87a5.78,5.78,0,1,0,3,7.61A5.76,5.76,0,0,0,441.25,192.87Z"/><path class="cls-1" d="M235.81,265.34a5.78,5.78,0,1,0,3.34,7.46A5.78,5.78,0,0,0,235.81,265.34Z"/><path class="cls-1" d="M162,155.24c5.78,4,11.56,8.67,17.34,12.71a27.92,27.92,0,0,0,4,1.74,21.64,21.64,0,0,0,6.36.58c2.31,0,4.62-1.16,6.36-1.74,2.31-1.15,5.2-1.73,7.51-2.89s4-2.31,4-4c0-.58-1.16-1.74-2.32-2.31-6.35-4-12.71-8.1-18.49-12.14-.58-.58-1.73-.58-2.89-.58-.58.58-1.73.58-2.31,1.16a1.78,1.78,0,0,0,.58,1.15L200.7,161c.58.58,1.16,1.16,1.16,1.73-.58.58-1.74.58-2.32,1.16l-8.67,2.89c-1.15,0-2.31.58-3.46.58a4.4,4.4,0,0,1-2.89-1.16l-17.34-12.14a3,3,0,0,0-2.31-1.15c-1.74-.58-2.31,0-3.47.58C160.82,153.51,160.24,154.08,162,155.24Z"/><path class="cls-1" d="M299,129.23c.58-.58,1.16-.58,1.16-1.15s-1.16-1.16-2.32-1.16c-.57,0-1.73.58-2.31.58l-15,5.2c-7.52-4-15-8.09-22-12.14a3.49,3.49,0,0,0-2.31-.57c-1.15.57-1.73.57-2.31,1.15s0,1.16-.58,1.16c8.09,4.62,16.76,9.82,25.43,14.45C285.66,133.86,292.59,131.54,299,129.23Z"/><path class="cls-1" d="M222.08,158.13A4.38,4.38,0,0,0,225,157c.58,0,0-.57-.57-1.15-4.63-2.89-8.67-5.2-12.72-8.09l1.16-.58,26,3.47h2.89c.58,0,1.16-.58,1.74-.58,2.89-1.16,5.78-1.74,8.09-2.89a1.24,1.24,0,0,0,1.15-1.16c.58-.58,0-1.73,0-2.31,0-1.15-.57-1.73-.57-2.89,3.46-1.15,6.35-2.31,9.82-3.47,1.74,1.16,3.47,1.74,5.2,2.89a3.49,3.49,0,0,0,2.32.58c1.73,0,2.88-.58,2.88-1.15s0-.58-.57-1.16c-8.09-4.62-16.19-8.67-24.28-13.29-.57,0-1.15-.58-1.73-.58-1.16,0-1.73,0-2.31.58-1.16.57-.58,1.73-.58,2.31,1.16,5.78,2.89,11.56,4.62,17.91-2.31.58-4,1.74-6.35,2.32-7.52-1.16-15-1.74-22.54-2.89l5.2-1.74a18.9,18.9,0,0,0,3.47-1.73c1.15-1.16,1.15-1.73.57-2.89s-2.31-1.73-3.46-2.31a20.54,20.54,0,0,0-5.78-1.16c-2.89,0-5.21,0-6.94,1.16L194.34,142c8.09,5.2,16.18,10.4,25.43,15.6A3.47,3.47,0,0,0,222.08,158.13Zm35.84-22.54c-2.89,1.16-5.21,1.73-7.52,2.89-.58-2.89-1.73-5.2-2.31-8.09C251.56,132.12,254.45,133.86,257.92,135.59ZM202.43,142l12.14-3.47a24.87,24.87,0,0,1,2.89-.58c.58,0,1.16.58,1.73.58a4.4,4.4,0,0,1,2.32,1.16v.57c-.58.58-1.16.58-2.32,1.16l-11.55,4Z"/><path class="cls-1" d="M287.39,112.47h2.31c1.16-.58,1.74-.58,2.89-1.15.58-.58,1.16-.58,1.16-1.16-.58-.58-1.16-.58-1.74-1.16-.57,0-1.15-.57-2.31-.57s-1.73.57-2.31.57c-.58.58-1.73.58-2.31,1.16s-.58.58,0,1.16C286.24,111.89,286.81,111.89,287.39,112.47Z"/><path class="cls-1" d="M289.13,116.52c0,.58,1.15,1.15,1.15,1.73.58,0,1.73-.58,2.31-.58a8.34,8.34,0,0,0,4.05-1.15l12.71,6.36L305.89,124c-.58.58-1.16.58-1.16,1.16s1.16,1.15,2.31,1.15a24.87,24.87,0,0,0,2.89-.58,78.71,78.71,0,0,1,10.4-4c1.16-.58,1.74-.58,1.74-1.16s-1.16-1.15-2.31-1.15c-.58,0-1.74.58-2.32.58-1.15.57-2.31.57-3.46,1.15l-13.3-6.36a3,3,0,0,0-2.31-1.15c-1.15-.58-1.73,0-2.31,0l-5.2,1.73C290.28,115.94,289.13,115.94,289.13,116.52Z"/><path class="cls-1" d="M145.79,184.14a3.49,3.49,0,0,0,2.32.58c2.31,0,1.73,0,2.89-.58s.57-1.16.57-1.74a10.64,10.64,0,0,0-1.15-4l13.87-5.2a20.81,20.81,0,0,0,6.36,2.31h4.62c1.16-.58,2.31-1.16,2.31-1.74a.56.56,0,0,0-.58-.57c-11.55-4-22.54-7.52-33.52-11.56a5.18,5.18,0,0,0-2.89-.58c-1.15,0-1.73,0-2.31.58-.58,0,0,1.73-1.15,2.89C140,170.84,142.91,176.62,145.79,184.14Zm8.67-14.45a39.88,39.88,0,0,1,4.63,1.73l-9.83,3.47q-1.72-3.46-3.47-6.94c0-.57-.57-1.15-1.15-1.73C147.53,167.38,151.57,168.53,154.46,169.69Z"/><path class="cls-1" d="M311.09,110.16a5.75,5.75,0,0,0,2.89,2.31c1.15.58,2.89.58,4.62,1.16a75.34,75.34,0,0,0,11,2.31,21.62,21.62,0,0,0,5.78.58c1.73-.58,2.89-.58,4.05-1.16l6.35-2.31c.58-.58,1.74-.58,1.74-1.16s-.58-.57-1.16-1.15a6.25,6.25,0,0,0-2.89-.58c-1.15,0-1.73.58-2.31.58-2.31.58-4.05,1.73-6.36,2.31h-2.89l-10.4-1.73c-1.16-.58-2.89-.58-3.47-1.16-1.15-.58-1.15-1.16-1.73-1.73a17.52,17.52,0,0,1-2.89-4.05c-.58-.58,0-1.16.58-1.16a24.32,24.32,0,0,1,5.78-2.31c1.15,0,1.73,0,2.31-.57,0,0,.58,0,0-.58a5.84,5.84,0,0,0-1.74-.58c-1.15-.58-1.73,0-2.31,0l-4.62,1.73a8.38,8.38,0,0,0-4,1.16c-1.15,0-1.73.58-1.73,1.15a3.49,3.49,0,0,0,.58,2.32C309.35,107.27,309.93,108.43,311.09,110.16Z"/></g></svg>