<svg xmlns="http://www.w3.org/2000/svg" viewBox="0 0 480 320"><defs><style>.cls-1{fill:#000;}</style></defs><g id="Layer_1" data-name="Layer 1"><path class="cls-1" d="M461.28,111.62l-.27-.17L261.3,27.9c-17.59-8.2-22.45-6.85-38.2-.43l-9.56,3.83L187.8,42.17,20.89,113.62l-.21.1c-5.46,2.73-6.47,6.46-6.51,8.72H13.9v51.45h0c0,8,1.83,10.67,6.69,13,.52.24,1.05.49,1.61.81L217.79,291.74l.22.11c7.41,3.36,13.12,6,20,6,5,0,10.72-1.38,18.17-4.83L457.45,187.79c7.47-3.22,8.52-5.56,8.47-12.39,0-.92,0-2,0-3.23H466V120.42c0-.2.07-.4.08-.6C466.26,118,465.84,114.47,461.28,111.62ZM223.84,47.83a9.79,9.79,0,0,1,2.73,1.61c-1.25.4-4.14.66-8.93-1l-12.17-5L209,41.9ZM24.16,120.93,190.93,49.54l4.15-1.76,19.64,8.06.16.06a27.92,27.92,0,0,0,9.36,1.83c5.58,0,9.14-2.4,10.33-5.46,1.33-3.41.13-8.55-7.63-11.82l-.07,0-7.29-2.92,5.6-2.23.94-.39c14.44-5.89,16.66-6.79,31.87.31l199.3,83.37a4.21,4.21,0,0,1,.77.67c-.29.45-48.17,25.61-48.17,25.61-64,5.7-96.51,33-105.39,55.35l-50.09,26.16c-14,7.27-20,5.38-32.08.42l-.73-.3h-.39L26.59,126.32l-.35-.16c-2.62-1-4-2.87-4.07-3.56C22.16,122.39,22.64,121.71,24.16,120.93Zm290.11,77.42C317.86,192,325,182.91,339,174.13c3-1.86,6.09-3.59,9.34-5.22-3.37,4.94-5.34,12.69-5.74,22.83A148.9,148.9,0,0,1,314.27,198.35Zm43.55-27.41c3-1,7.76,1.85,13.09,7.79a144.94,144.94,0,0,1-20.08,10C351.76,177.21,355,171.92,357.82,170.94Zm19.9,3.43C372.15,167.9,366.89,164.1,362,163a181.49,181.49,0,0,1,39.57-9.26A136.24,136.24,0,0,1,377.72,174.37Zm80.09,4.19c-.16.21-.85.74-3.65,1.94l-.14.06L252.77,285.76c-14.23,6.59-19.28,4.33-31.33-1.15L26.11,180.67c-.82-.46-1.54-.8-2.13-1.08-.36-.17-.85-.4-1.05-.53s-1-1.37-1-5.17h0V133c.39.2.79.39,1.18.55l196.19,101H220c6.62,2.69,12.19,4.67,18.43,4.67,5.6,0,11.74-1.59,19.64-5.69L308.82,207c20.17-1.54,68.78-10.07,105-55.12l42-21.78Q457,129.55,458,129V169.8c-.12,2.33-.11,4.18-.1,5.66A17.44,17.44,0,0,1,457.81,178.56Z"/><path class="cls-1" d="M274,96.72a12.85,12.85,0,0,0,2.86,1.72c.57,0,1.14-.58,1.71-.58,1.15,0,1.72-.57,2.86-1.14l10.29,5.15L288.83,103c-.57.57-1.14,1.14-.57,1.71a6.21,6.21,0,0,0,3.43-.57c2.28-1.14,5.14-2.28,7.43-3.43.57-.57,1.71-1.14.57-1.71-1.71-.57-2.86-.57-3.43,0s-1.71.57-2.29,1.14l-10.86-5.71c-.57,0-1.14-.58-2.28-.58-.57-.57-1.14,0-1.72,0a29.61,29.61,0,0,0-4,1.72C274.54,96.15,274,96.15,274,96.72Z"/><path class="cls-1" d="M288.26,86.43c1.14,1.72,1.71,2.86,2.86,4.58a7.87,7.87,0,0,0,2.28,1.71,8.31,8.31,0,0,0,4,1.14c2.86.58,5.15,1.15,8,1.72a14.22,14.22,0,0,0,4.57.57c1.14-.57,2.29-.57,2.86-1.14l4.57-2.29c.57,0,1.14,0,1.14-.57s0-1.14-.57-1.14H315.7c-.58,0-1.15.57-1.72.57a34,34,0,0,1-4.57,2.28h-2.29l-8.57-1.71c-1.15,0-2.29,0-2.86-.57-1.14-.57-1.14-1.15-1.72-1.72-.57-1.14-1.71-2.86-2.28-4,0-.57,0-1.14.57-1.14a11.51,11.51,0,0,1,4.57-2.29c.57-.57,1.15-.57,1.72-1.14,0-.57.57-.57,0-1.14-.57,0-1.15-.58-1.72-.58-1.14,0-1.71.58-2.28.58l-3.43,1.71c-1.15,0-1.72.57-2.86,1.14-.57,0-1.14.58-.57,1.15C287.69,85.29,287.69,85.86,288.26,86.43Z"/><path class="cls-1" d="M271.68,93.29h1.72c1.14-.57,1.71-.57,2.28-1.14s1.15-.57,1.15-1.14c-.57-.58-1.15-.58-1.72-1.15-.57,0-1.14-.57-1.71-.57-1.15,0-1.72.57-2.29.57-.57.57-1.14.57-1.71,1.15a1.77,1.77,0,0,0,.57,1.14C270.54,92.72,271.11,92.72,271.68,93.29Z"/><path class="cls-1" d="M180.23,153.31a2.09,2.09,0,0,0,1.71.57c2.29,0,3.43-1.14,3.43-1.71-1.14-1.15-2.28-1.72-3.43-2.86l8.58-4A19.81,19.81,0,0,1,198,147c1.71,0,3.43-.57,3.43-1.71,0-.57,0-.57-.57-.57-10.86-2.29-21.72-4-33.16-6.29H164.8c-1.15,0-1.72,0-2.29.57-.57,0,0,.57,0,1.14C168.8,144.74,174.51,148.74,180.23,153.31ZM180.8,143c1.71.57,2.86.57,4.57,1.14L179.09,147c-2.29-1.71-4-2.86-6.29-4.57,0-.57-.57-.57-1.15-1.14C174.51,141.88,177.94,142.45,180.8,143Z"/><path class="cls-1" d="M199.09,140.16a8.28,8.28,0,0,0,4,1.15c1.72.57,3.43,0,5.15,0a19.79,19.79,0,0,0,4.57-1.72c1.71-.57,3.43-1.71,5.14-2.29s2.29-1.71,1.72-2.85c0-.57-1.15-1.15-2.29-1.72-6.29-2.28-13.14-5.14-20-8h-2.86c-.57.57-1.72.57-1.72,1.14A1.24,1.24,0,0,0,194,127l20,8c.57.57,1.15.57,1.15,1.14A1.24,1.24,0,0,1,214,137.3l-5.71,2.29c-.58,0-1.15.57-2.29.57s-2.29,0-2.86-.57c-6.86-2.86-13.14-5.14-20-8a3.47,3.47,0,0,0-2.29-.57c-1.14,0-1.71,0-2.29.57-.57,0,0,.57,0,.57C185.94,135,192.23,137.3,199.09,140.16Z"/><path class="cls-1" d="M231.1,132.73c.57-.57,1.71-.57,1.71-1.14a1.23,1.23,0,0,0-1.14-1.14c-4-1.72-8.57-3.43-12.57-5.15l.57-.57c7.43.57,14.29,1.14,21.72,1.71h2.28c.58,0,1.15-.57,1.72-.57,1.71-.57,3.43-1.71,5.14-2.28.58-.58.58-.58.58-1.15a2.07,2.07,0,0,0-.58-1.71c-.57-1.14-.57-1.72-1.14-2.29l6.86-3.43c1.71.57,2.86,1.15,4.57,1.72a2.11,2.11,0,0,0,1.72.57c1.14,0,1.71-.57,1.71-1.14a.57.57,0,0,0-.57-.58c-7.43-3.43-14.86-6.85-22.86-10.28a2.83,2.83,0,0,0-3.43,0c-.57.57,0,1.14.57,1.71,3.43,4.57,6.29,9.72,9.14,14.29a17.32,17.32,0,0,1-4.57,2.29c-6.29,0-12.57-.58-18.86-1.15l3.43-1.71a7.9,7.9,0,0,0,2.29-1.72,1.41,1.41,0,0,0-.58-2.28,18.73,18.73,0,0,0-3.43-1.72c-1.14-1.14-3.43-1.14-5.14-1.14a14.41,14.41,0,0,0-5.72,1.14L202,120.73c8.57,4,17.15,7.43,26.86,12Zm12-22.86c2.86,1.14,6.29,2.86,9.15,4-1.72.57-3.43,1.71-5.15,2.29C246,113.87,244.25,112.15,243.1,109.87Zm-34.29,10.86,8.57-4.57a6.12,6.12,0,0,1,3.43-.58l3.43,1.72c0,1.14-1.14,1.14-1.71,1.71l-8,4Z"/><path class="cls-1" d="M269.4,114.44a107.54,107.54,0,0,0,14.29-6.29c.57-.57,1.14-1.14,0-1.71-1.72-.57-2.86-.57-3.43,0l-10.86,5.14c-6.29-3.43-13.15-6.28-20-9.71a3.39,3.39,0,0,0-2.29-.58,2.07,2.07,0,0,0-1.71.58,4.41,4.41,0,0,0,.57,1.71C254,107,262,111,269.4,114.44Z"/></g></svg>