<svg xmlns="http://www.w3.org/2000/svg" viewBox="0 0 480 320"><defs><style>.cls-1{fill:#000;}</style></defs><g id="Layer_1" data-name="Layer 1"><path class="cls-1" d="M432.66,155.57a5.88,5.88,0,0,0-1.24-.7l0-.1L260,84.35a12.58,12.58,0,0,0-8.58-.34l-15.76,5.3V21.85a5.81,5.81,0,0,0-2.29-4.73A6,6,0,0,0,228,16.3a7.66,7.66,0,0,0-5.32,7.06V93.67l-114.9,38.66V63.16a5.79,5.79,0,0,0-2.29-4.73,6,6,0,0,0-5.35-.82,7.67,7.67,0,0,0-5.33,7.06v72L51.2,151.38A10.2,10.2,0,0,0,44,161.17l.47,44.94a11,11,0,0,0,5.51,9.5l149.71,85.24A7.64,7.64,0,0,0,202,303.2a6.49,6.49,0,0,0,3.6,1.08,6.91,6.91,0,0,0,2.31-.41l151.26-55.31.71-.26,9.7-8.59,30.17-11,6.47,2.68L426.3,224c4.25-1.56,6.71-6.91,6.94-11.38l2.54-49C436,160.11,434.82,157.17,432.66,155.57ZM253.91,91.62a4.5,4.5,0,0,1,3.07.13L418.1,157.93l-8.54,3.12-6.47-2.68-37.75,13.81-9.7,8.59L201.87,237a7.83,7.83,0,0,0-2.09,1.17L57.9,157.57ZM204.22,259.79,344,208.68a3.89,3.89,0,0,1,0,.51v12.75a5.67,5.67,0,0,1-1.41,3.95L205.12,276.17ZM52.51,206.07l-.45-42.62,143.76,81.67a14,14,0,0,0-.23,3.44l2.32,42.05L54,208.65A2.93,2.93,0,0,1,52.51,206.07Zm303.17,35.24-148.8,54.41-.7-.4a.38.38,0,0,0,0-.1l-.59-10.7,139.87-51.14c4.33-1.58,6.6-6.95,6.59-11.44V209.18c0-3.42-1.27-6.26-3.46-7.8a6.38,6.38,0,0,0-5.9-.73L203.76,251.44l-.19-3.32a5.07,5.07,0,0,1,1.11-3.64l154.07-56.33,0,49.82h.67Zm11.1-9.1,0-50.59,2.77-2.45L402.91,167l1.5.62-1.75,53.66-2.76-1.14Zm61-69-2.54,49a6.6,6.6,0,0,1-1.7,4.29l-12.88,4.71.78-24.09a6.76,6.76,0,0,0,1.95,2.16,5.89,5.89,0,0,0,3.38,1.07,6.28,6.28,0,0,0,2.12-.38c3.89-1.42,5.92-6.21,5.92-10.21,0-3.1-1.16-5.69-3.18-7.09a5.94,5.94,0,0,0-5.5-.7,8.41,8.41,0,0,0-4.32,4l.56-17.41,15.42-5.64C427.8,163,427.8,163.12,427.79,163.23Z"/><path class="cls-1" d="M391.71,181.73a10.56,10.56,0,0,0-10-1.21c-7.81,2.86-13.93,14.23-13.93,25.88,0,7.43,2.47,13.41,6.75,16.4a10.42,10.42,0,0,0,6,1.93,11.48,11.48,0,0,0,3.93-.72c7.81-2.86,13.93-14.23,13.92-25.89C398.45,190.69,396,184.72,391.71,181.73Zm-9.93,34.76a2.63,2.63,0,0,1-2.63-.25c-1.53-1.07-3.32-4.29-3.33-9.84,0-9,4.57-16.87,8.68-18.37a3.51,3.51,0,0,1,1.17-.23,2.52,2.52,0,0,1,1.46.48c1.53,1.07,3.32,4.3,3.32,9.85C390.46,207.08,385.89,215,381.78,216.49Z"/></g></svg>