<svg xmlns="http://www.w3.org/2000/svg" viewBox="0 0 480 320"><defs><style>.cls-1{fill:#000;}</style></defs><g id="Layer_1" data-name="Layer 1"><path class="cls-1" d="M450.24,124.27a4,4,0,0,0-3.69-4L263.21,44.42h0A9.35,9.35,0,0,0,256,44.3C181.66,62.74,123.26,81,33,113.84l-.06,0a3.86,3.86,0,0,0-.41.2l-.31.16a1.93,1.93,0,0,0-.28.22,3.07,3.07,0,0,0-.35.28l-.05,0-.56.56a4.42,4.42,0,0,0-.44.53l-.11.18a3.75,3.75,0,0,0-.24.44l-.09.21a3,3,0,0,0-.18.58l0,.09a5.85,5.85,0,0,0-.07.72s0,0,0,.07v58.37a4,4,0,0,0,1.16,2.82,4.46,4.46,0,0,0,2.46,2l176.88,94.26h0l0,0c.18.09.36.16.54.23l.15.05a5,5,0,0,0,.53.12l.07,0a5.77,5.77,0,0,0,1.74.28,4.54,4.54,0,0,0,2.6-.8c12.88-3,56-17.27,56.44-17.43,4.8-1.6,9.76-3.43,14.56-5.21q2.57-1,5-1.83a4,4,0,0,0,3.78-3.84l.07-1.8,70.12-25.31,3.53.82a3.95,3.95,0,0,0,4.21,1c19.08-6.66,46.7-17.31,69.93-30.15l1.14-.62a4.15,4.15,0,0,0,.53-.32l.19-.08.23-.09a4.13,4.13,0,0,0,.42-.22l.2-.12a3.94,3.94,0,0,0,.45-.36l.09-.08a4.41,4.41,0,0,0,.45-.52,1.4,1.4,0,0,0,.1-.16,4,4,0,0,0,.26-.45l.09-.22a4,4,0,0,0,.16-.45l.06-.25c0-.16.05-.33.07-.51s0-.11,0-.16L450.23,125v-.07s0-.05,0-.08ZM37.76,137l162.11,84.79v27.07L37.76,163Zm162.11,75.76L37.76,127.94v-3l162.11,83.58ZM37.76,172.05l162.11,85.82V261L37.76,174.64Zm170.11,40.64.34.18v52.6l-.34-.18Zm80.83-33-.15.35a3.82,3.82,0,0,0-.13.36c0,.12-.06.24-.08.37a2.5,2.5,0,0,0-.06.38c0,.13,0,.25,0,.38s0,.27,0,.4a2.2,2.2,0,0,0,.06.37,2.82,2.82,0,0,0,.07.31c-29.14,10.7-56.28,19.54-70.08,22.86l70.37-25.8Zm86-29-4.92-.75,67.62-24.8C426.31,130.66,404.19,139.93,374.67,150.73ZM258.2,52a2.43,2.43,0,0,0,.77-.27,1.35,1.35,0,0,1,.92,0l.14.05.12.07,166.34,68.84L204.6,202,43,118.69C129,87.54,186.08,69.88,258.2,52Zm26,193.44c-4.74,1.75-9.64,3.57-14.3,5.12-11.29,3.77-42.6,13.82-53.66,16.77V214.16c12.4-2.48,41.75-11.87,73.5-23.49l-1.81,50.81a3.92,3.92,0,0,0-.08,2.1l0,.5Zm13.75-60.38V185c0-.06,0-.11,0-.17s0-.27,0-.4,0-.14,0-.21,0-.13-.05-.2a2.44,2.44,0,0,0-.06-.26l65.89-24.22-1.92,53.61-65.66,23.69Zm79.13,27.23L379,157.67c27.66-10.16,51.06-19.79,63-25.85l-1.88,52.79-.42.23C419.28,196.12,395.33,205.69,377.05,212.28Z"/><path class="cls-1" d="M415.34,161.17a13.22,13.22,0,0,0-11.17.89,16.62,16.62,0,0,0-7.51,8.76c-3.08,8.07.28,16.88,7.5,19.64a12.63,12.63,0,0,0,4.51.83,14.09,14.09,0,0,0,7.21-2.07,14.45,14.45,0,0,0,7.75-8.29,14,14,0,0,0-1-12.61A13.16,13.16,0,0,0,415.34,161.17Z"/><path class="cls-1" d="M287.25,97.59c0,.55,1.11,1.11,1.11,1.66.56,0,1.67-.55,2.23-.55a8.11,8.11,0,0,0,3.89-1.11l12.23,6.11-3.34,1.11c-.55.56-1.11.56-1.11,1.11s1.11,1.12,2.22,1.12a23.32,23.32,0,0,0,2.78-.56,73.73,73.73,0,0,1,10-3.89c1.11-.56,1.67-.56,1.67-1.11s-1.12-1.11-2.23-1.11c-.55,0-1.66.55-2.22.55-1.11.56-2.22.56-3.34,1.11l-12.78-6.11a2.88,2.88,0,0,0-2.22-1.11c-1.12-.56-1.67,0-2.23,0l-5,1.66C288.36,97,287.25,97,287.25,97.59Z"/><path class="cls-1" d="M308.37,91.47a5.55,5.55,0,0,0,2.78,2.22c1.12.56,2.78.56,4.45,1.12A72.49,72.49,0,0,0,326.16,97a20.73,20.73,0,0,0,5.56.56c1.67-.56,2.78-.56,3.89-1.12l6.12-2.22c.55-.56,1.67-.56,1.67-1.11s-.56-.56-1.12-1.11a6,6,0,0,0-2.78-.56c-1.11,0-1.66.56-2.22.56-2.22.55-3.89,1.66-6.11,2.22h-2.78l-10-1.67c-1.11-.55-2.78-.55-3.33-1.11-1.12-.56-1.12-1.11-1.67-1.67a16.77,16.77,0,0,1-2.78-3.89c-.56-.55,0-1.11.55-1.11a23.22,23.22,0,0,1,5.56-2.22c1.11,0,1.67,0,2.23-.56,0,0,.55,0,0-.56a5.73,5.73,0,0,0-1.67-.55c-1.11-.56-1.67,0-2.22,0l-4.45,1.67a8,8,0,0,0-3.89,1.11c-1.11,0-1.67.55-1.67,1.11A3.3,3.3,0,0,0,305.6,87C306.71,88.69,307.26,89.8,308.37,91.47Z"/><path class="cls-1" d="M285.58,93.69h2.23c1.11-.55,1.66-.55,2.78-1.11.55-.55,1.11-.55,1.11-1.11-.56-.56-1.11-.56-1.67-1.11-.56,0-1.11-.56-2.22-.56s-1.67.56-2.23.56c-.55.55-1.66.55-2.22,1.11s-.56.56,0,1.11C284.47,93.14,285,93.14,285.58,93.69Z"/><path class="cls-1" d="M165,134.83c5.56,3.89,11.12,8.34,16.68,12.23a26.86,26.86,0,0,0,3.89,1.67,21.08,21.08,0,0,0,6.12.55c2.22,0,4.44-1.11,6.11-1.66,2.23-1.12,5-1.67,7.23-2.78s3.89-2.23,3.89-3.89c0-.56-1.11-1.67-2.22-2.23-6.12-3.89-12.23-7.78-17.79-11.67-.56-.56-1.67-.56-2.78-.56-.56.56-1.67.56-2.23,1.11a1.73,1.73,0,0,0,.56,1.12l17.79,11.67c.56.56,1.11,1.11,1.11,1.67-.55.55-1.67.55-2.22,1.11L192.75,146c-1.11,0-2.22.55-3.34.55a4.24,4.24,0,0,1-2.78-1.11L170,133.72a2.88,2.88,0,0,0-2.23-1.11c-1.66-.56-2.22,0-3.33.55C163.84,133.16,163.29,133.72,165,134.83Z"/><path class="cls-1" d="M149.39,162.63a3.37,3.37,0,0,0,2.22.55c2.23,0,1.67,0,2.78-.55s.56-1.12.56-1.67a10.4,10.4,0,0,0-1.11-3.89l13.34-5a20.1,20.1,0,0,0,6.11,2.23h4.45c1.11-.56,2.22-1.12,2.22-1.67a.55.55,0,0,0-.55-.56c-11.12-3.89-21.68-7.22-32.24-11.11a5,5,0,0,0-2.78-.56c-1.12,0-1.67,0-2.23.56-.55,0,0,1.66-1.11,2.77C143.83,149.84,146.61,155.4,149.39,162.63Zm8.34-13.9a37,37,0,0,1,4.45,1.67l-9.46,3.33-3.33-6.67c0-.56-.56-1.11-1.11-1.67C151.06,146.5,155,147.62,157.73,148.73Z"/><path class="cls-1" d="M222.77,137.61a4.29,4.29,0,0,0,2.78-1.11c.55,0,0-.56-.56-1.11-4.45-2.78-8.34-5-12.23-7.79l1.11-.55,25,3.33h2.78c.55,0,1.11-.55,1.67-.55,2.77-1.11,5.55-1.67,7.78-2.78a1.2,1.2,0,0,0,1.11-1.11c.56-.56,0-1.67,0-2.23,0-1.11-.56-1.67-.56-2.78,3.34-1.11,6.12-2.22,9.45-3.33,1.67,1.11,3.34,1.67,5,2.78a3.35,3.35,0,0,0,2.22.55c1.67,0,2.78-.55,2.78-1.11s0-.55-.56-1.11c-7.78-4.45-15.56-8.34-23.34-12.79-.56,0-1.12-.55-1.67-.55-1.11,0-1.67,0-2.22.55-1.12.56-.56,1.67-.56,2.23,1.11,5.56,2.78,11.12,4.45,17.23-2.23.56-3.89,1.67-6.12,2.22-7.22-1.11-14.45-1.66-21.68-2.78l5-1.66a19.1,19.1,0,0,0,3.34-1.67c1.11-1.11,1.11-1.67.56-2.78S226.1,117,225,116.49a19.63,19.63,0,0,0-5.56-1.12c-2.78,0-5,0-6.67,1.12L196.08,122c7.79,5,15.57,10,24.46,15A3.34,3.34,0,0,0,222.77,137.61Zm34.46-21.68c-2.78,1.11-5,1.67-7.22,2.78-.56-2.78-1.67-5-2.23-7.78C251.12,112.59,253.9,114.26,257.23,115.93ZM203.87,122l11.67-3.33a24.2,24.2,0,0,1,2.78-.56c.56,0,1.11.56,1.67.56a4.24,4.24,0,0,1,2.22,1.11v.56c-.55.55-1.11.55-2.22,1.11l-11.12,3.89Z"/><path class="cls-1" d="M296.7,109.82c.56-.56,1.11-.56,1.11-1.12s-1.11-1.11-2.22-1.11c-.56,0-1.67.56-2.22.56l-14.46,5c-7.22-3.89-14.45-7.78-21.12-11.67a3.34,3.34,0,0,0-2.23-.56c-1.11.56-1.66.56-2.22,1.11s0,1.11-.55,1.11c7.78,4.45,16.12,9.45,24.45,13.9C283.92,114.26,290.59,112,296.7,109.82Z"/><path class="cls-1" d="M241,241.14a5.56,5.56,0,1,0,3.21,7.18A5.55,5.55,0,0,0,241,241.14Z"/><path class="cls-1" d="M256.74,235.86A5.56,5.56,0,1,0,260,243,5.54,5.54,0,0,0,256.74,235.86Z"/></g></svg>