<svg xmlns="http://www.w3.org/2000/svg" viewBox="0 0 480 320"><defs><style>.cls-1{fill:#000;}</style></defs><g id="Layer_1" data-name="Layer 1"><path class="cls-1" d="M463.14,143.91a4,4,0,0,0-3.73-4L264.57,59.29h0a9.71,9.71,0,0,0-7.52-.11c-6.42,1.6-12.72,3.19-19,4.79V22.82A8,8,0,0,0,230,14.69c-3.59,0-6.39,2.15-7.78,5.9l-.06.15L222,21c0,.06,0,.13-.05.19l-.09.42a2.71,2.71,0,0,0,0,.4,1.62,1.62,0,0,0,0,.2l-.55,46.18C168.14,82.47,119.52,97.7,57.35,119.68V74.8a8.05,8.05,0,0,0-8.14-8.13c-3.57,0-6.37,2.14-7.76,5.86a1,1,0,0,0,0,.1l0,.12a1.67,1.67,0,0,1-.08.2s0,.11,0,.17-.05.16-.07.25l0,.2c0,.13,0,.25,0,.37s0,.12,0,.19L40,125.88q-9.71,3.48-19.87,7.19l-.06,0a2.93,2.93,0,0,0-.4.19,2,2,0,0,0-.32.17l-.27.2a3.58,3.58,0,0,0-.36.3l-.05,0-.59.59h0a3.64,3.64,0,0,0-.44.53l-.12.18c-.08.14-.16.29-.23.44a2,2,0,0,0-.1.21,5.58,5.58,0,0,0-.18.58s0,.06,0,.09a3.51,3.51,0,0,0-.07.72s0,0,0,.08v62A4,4,0,0,0,18,202.28a4.48,4.48,0,0,0,2.52,2.08l188,100.18h0l0,0a3.7,3.7,0,0,0,.54.24l.16.05a4.27,4.27,0,0,0,.54.13h.06a5.78,5.78,0,0,0,1.78.29,4.66,4.66,0,0,0,2.68-.83c13.52-3.18,59.48-18.35,60-18.52,5.08-1.7,10.35-3.65,15.44-5.54l5.32-1.95a4,4,0,0,0,3.83-3.85l.07-2.08,74.74-27,3.9.9a4,4,0,0,0,2.94,1.3,3.83,3.83,0,0,0,1.32-.23c20.27-7.08,49.6-18.38,74.27-32,.6-.33,1-.56,1.22-.66a4.73,4.73,0,0,0,.56-.35l.2-.08.25-.09.42-.22L459,214a3.25,3.25,0,0,0,.5-.4l.05,0A4.54,4.54,0,0,0,460,213l.11-.18a3.7,3.7,0,0,0,.25-.43,1.6,1.6,0,0,0,.1-.23,3.26,3.26,0,0,0,.15-.44,1.29,1.29,0,0,0,.06-.25,3,3,0,0,0,.07-.51l0-.17,2.36-66.15s0-.05,0-.07,0-.05,0-.08Zm-203.87-77a2.77,2.77,0,0,0,.78-.27,1.68,1.68,0,0,1,1.2,0l.13.05.13.07,188.86,78.17c-12.59,6.3-38.4,16.87-67.25,27.43l-6.66-1h-.2l-.24,0h-.18l-.39,0-.25,0h0l-.09,0a3.54,3.54,0,0,0-.44.11l-.17,0L294.14,201c-.07,0-.13.07-.2.09l-.2.08-.16.1c-.12.07-.24.14-.35.22s-.21.15-.3.23a3.83,3.83,0,0,0-.29.28,4,4,0,0,0-.47.6c-.07.11-.14.22-.2.33l-.15.35c-.05.12-.09.24-.13.36s-.06.25-.08.38a2.32,2.32,0,0,0-.06.38c0,.12,0,.25,0,.38a2.68,2.68,0,0,0,0,.4,2.38,2.38,0,0,0,.06.37,3.11,3.11,0,0,0,.11.41.53.53,0,0,0,0,.12c-34.78,12.78-66.92,23.08-79.38,25.4h-.94L30.07,138c8-2.89,15.71-5.67,23.25-8.35h0a3.94,3.94,0,0,0,2.5-.9C133.65,101.09,189.91,84.07,259.27,66.87ZM24.86,144.26l182.79,94.25V295L24.86,197.59ZM287,272.89c-5,1.87-10.23,3.79-15.19,5.45-11.72,3.9-43.68,14.17-56.16,17.58V239c13.73-2.92,44.38-12.76,77.44-24.87l-1.95,54.39a4,4,0,0,0-.07,2.17l0,.73Zm14.29-64.4v-.05c0-.06,0-.12,0-.18s0-.26,0-.4,0-.13,0-.2a1.6,1.6,0,0,0-.05-.21c0-.12-.06-.24-.1-.37a.38.38,0,0,0,0-.1L371.65,181l-2.06,57.5-70.28,25.36Zm84.07,29.3,2.08-58.56c29.75-10.93,54.88-21.28,67.45-27.71l-2,56.66-.57.31C430.48,220.55,404.84,230.78,385.36,237.79Z"/><path class="cls-1" d="M408.21,209a5.91,5.91,0,1,0,3.41,7.63A5.92,5.92,0,0,0,408.21,209Z"/><path class="cls-1" d="M420.75,204.75c-1.78-.59-4.14,1.18-5.32,3.55s0,5.31,1.77,5.9,4.14-.59,5.32-3.54C423.7,208.3,422.52,205.34,420.75,204.75Z"/><path class="cls-1" d="M434.52,199.08a5.91,5.91,0,1,0,1.81,8.16A5.91,5.91,0,0,0,434.52,199.08Z"/><path class="cls-1" d="M445.31,193.5a5.91,5.91,0,1,0,3,7.78A5.91,5.91,0,0,0,445.31,193.5Z"/><path class="cls-1" d="M235.66,267.93a5.91,5.91,0,1,0,3.41,7.63A5.91,5.91,0,0,0,235.66,267.93Z"/><path class="cls-1" d="M288.44,111.43h2.36c1.18-.6,1.77-.6,2.95-1.19.59-.59,1.18-.59,1.18-1.18-.59-.59-1.18-.59-1.77-1.18-.59,0-1.18-.59-2.36-.59s-1.77.59-2.36.59c-.6.59-1.78.59-2.37,1.18s-.59.59,0,1.18C287.25,110.83,287.84,110.83,288.44,111.43Z"/><path class="cls-1" d="M160.26,155.14c5.91,4.13,11.81,8.86,17.72,13a28.76,28.76,0,0,0,4.13,1.77,22.23,22.23,0,0,0,6.5.59c2.36,0,4.73-1.18,6.5-1.77,2.36-1.18,5.31-1.77,7.68-2.95s4.13-2.37,4.13-4.14c0-.59-1.18-1.77-2.36-2.36-6.5-4.13-13-8.27-18.9-12.4-.59-.59-1.77-.59-3-.59-.59.59-1.77.59-2.36,1.18a1.83,1.83,0,0,0,.59,1.18l18.9,12.4c.59.59,1.19,1.18,1.19,1.77-.6.59-1.78.59-2.37,1.19L189.79,167c-1.18,0-2.36.59-3.54.59a4.56,4.56,0,0,1-3-1.18L165.57,154a3.07,3.07,0,0,0-2.36-1.18c-1.77-.59-2.36,0-3.54.59C159.08,153.36,158.49,154,160.26,155.14Z"/><path class="cls-1" d="M312.65,109.06a6,6,0,0,0,3,2.37c1.18.59,2.95.59,4.72,1.18A76.27,76.27,0,0,0,331.55,115a22.24,22.24,0,0,0,5.91.59c1.77-.59,3-.59,4.14-1.18l6.49-2.36c.59-.59,1.78-.59,1.78-1.19s-.59-.59-1.19-1.18a6.42,6.42,0,0,0-2.95-.59c-1.18,0-1.77.59-2.36.59-2.36.59-4.14,1.78-6.5,2.37h-2.95l-10.63-1.78c-1.19-.59-3-.59-3.55-1.18-1.18-.59-1.18-1.18-1.77-1.77a17.93,17.93,0,0,1-3-4.13c-.59-.59,0-1.19.59-1.19a24.66,24.66,0,0,1,5.9-2.36c1.18,0,1.78,0,2.37-.59,0,0,.59,0,0-.59a6,6,0,0,0-1.78-.59c-1.18-.59-1.77,0-2.36,0L315,99.61a8.53,8.53,0,0,0-4.14,1.18c-1.18,0-1.77.59-1.77,1.18a3.56,3.56,0,0,0,.59,2.37C310.88,106.11,311.47,107.29,312.65,109.06Z"/><path class="cls-1" d="M290.21,115.56c0,.59,1.18,1.18,1.18,1.77.59,0,1.77-.59,2.36-.59a8.6,8.6,0,0,0,4.14-1.18l13,6.5-3.54,1.18c-.59.59-1.18.59-1.18,1.18s1.18,1.18,2.36,1.18a25.55,25.55,0,0,0,3-.59,79.44,79.44,0,0,1,10.63-4.13c1.19-.59,1.78-.59,1.78-1.19s-1.19-1.18-2.37-1.18c-.59,0-1.77.59-2.36.59-1.18.59-2.36.59-3.54,1.19L302,113.79a3.07,3.07,0,0,0-2.36-1.18c-1.18-.59-1.77,0-2.36,0L292,114.38C291.39,115,290.21,115,290.21,115.56Z"/><path class="cls-1" d="M221.69,158.09a4.51,4.51,0,0,0,2.95-1.18c.59,0,0-.59-.59-1.18-4.72-3-8.86-5.32-13-8.27l1.18-.59,26.58,3.54h3c.59,0,1.18-.59,1.77-.59,3-1.18,5.91-1.77,8.27-2.95a1.27,1.27,0,0,0,1.18-1.19c.6-.59,0-1.77,0-2.36,0-1.18-.59-1.77-.59-2.95,3.55-1.18,6.5-2.36,10-3.55,1.77,1.19,3.54,1.78,5.31,3a3.55,3.55,0,0,0,2.36.59c1.78,0,3-.59,3-1.18s0-.59-.59-1.18c-8.27-4.73-16.54-8.86-24.81-13.59-.59,0-1.18-.59-1.77-.59-1.18,0-1.78,0-2.37.59-1.18.59-.59,1.77-.59,2.36,1.18,5.91,3,11.82,4.73,18.31-2.36.59-4.14,1.78-6.5,2.37-7.68-1.18-15.36-1.78-23-3l5.32-1.77A20.12,20.12,0,0,0,227,141c1.18-1.18,1.18-1.77.59-3s-2.37-1.78-3.55-2.37a21,21,0,0,0-5.91-1.18c-2.95,0-5.31,0-7.08,1.18l-17.72,5.91c8.27,5.32,16.54,10.63,26,15.95A3.55,3.55,0,0,0,221.69,158.09Zm36.62-23c-2.95,1.18-5.32,1.77-7.68,3-.59-3-1.77-5.32-2.36-8.27C251.81,131.51,254.77,133.28,258.31,135.05Zm-56.7,6.5L214,138a25.18,25.18,0,0,1,3-.6c.59,0,1.18.6,1.78.6a4.47,4.47,0,0,1,2.36,1.18v.59c-.59.59-1.18.59-2.36,1.18l-11.82,4.13Z"/><path class="cls-1" d="M143.72,184.67a3.55,3.55,0,0,0,2.36.59c2.37,0,1.77,0,3-.59s.59-1.18.59-1.77a11,11,0,0,0-1.18-4.14l14.17-5.31a21.2,21.2,0,0,0,6.5,2.36h4.72c1.19-.59,2.37-1.18,2.37-1.77a.58.58,0,0,0-.59-.59c-11.82-4.14-23-7.68-34.26-11.82a5.34,5.34,0,0,0-3-.59c-1.18,0-1.77,0-2.36.59-.59,0,0,1.77-1.18,3C137.81,171.08,140.77,177,143.72,184.67Zm8.86-14.77a41.59,41.59,0,0,1,4.73,1.77l-10.05,3.55-3.54-7.09c0-.59-.59-1.18-1.18-1.77C145.49,167.54,149.63,168.72,152.58,169.9Z"/><path class="cls-1" d="M300.25,128.55c.59-.59,1.18-.59,1.18-1.18s-1.18-1.18-2.36-1.18c-.59,0-1.77.59-2.37.59l-15.35,5.32c-7.68-4.14-15.36-8.27-22.45-12.41a3.55,3.55,0,0,0-2.36-.59c-1.18.59-1.77.59-2.36,1.19s0,1.18-.59,1.18c8.27,4.72,17.13,10,26,14.76C286.66,133.28,293.75,130.92,300.25,128.55Z"/></g></svg>