<?xml version="1.0" encoding="UTF-8"?>
<svg id="Artwork" xmlns="http://www.w3.org/2000/svg" viewBox="0 0 480 320">
  <defs>
    <style>
      .cls-1 {
        fill: #000;
      }
    </style>
  </defs>
  <path class="cls-1" d="m323.49,193.9l-100.64,5.24c-1.44.08-2.55,1.31-2.48,2.75.07,1.4,1.23,2.48,2.61,2.48.05,0,.09,0,.14,0l100.64-5.24c1.44-.08,2.55-1.31,2.48-2.75-.07-1.44-1.31-2.55-2.75-2.48Z"/>
  <path class="cls-1" d="m401.06,178.68c-4.18,0-7.58,3.4-7.58,7.59s3.39,7.59,7.58,7.59,7.58-3.4,7.58-7.59-3.39-7.59-7.58-7.59Z"/>
  <path class="cls-1" d="m322.94,177.59l2.53-.18-.02-33.21-.02-1.16-1.67-1.56-101.13,4.36-2.54.18.03,34.22.02,1.16,1.67,1.56,101.14-5.36Z"/>
  <path class="cls-1" d="m41.01,93.87c-3.81.11-6.89,3.31-6.86,7.13l-.14,75.08c.03,3.02,1.31,5.95,3.43,7.97l48.39,48.2c2.02,2.01,4.76,3.14,7.6,3.14.19,0,.38,0,.57-.02l5.05-.27c2.12,1.51,8.09,2.89,24.95,2.89,26.12,0,26.12-3.31,26.12-5.29,0-.1,0-.21,0-.31l228.6-12.14c1.46,1.65,6.51,3.29,24,3.29,24.6,0,24.6-3.25,24.6-5.19,0-.21,0-.44-.03-.68l12.24-.65c3.1-.16,5.55-2.72,5.58-5.82l.89-90.28c.01-3.9-2.59-7.38-6.33-8.48l-97.74-29.66c-1.94-.57-3.95-.84-5.98-.77m.24,8c1.18-.04,2.35.12,3.49.45l83.19,25.39-334.82,16.73v.27s-38.92-31.23-38.92-31.23l287.07-11.62ZM42.01,175.99l.21-69.19,40.27,32.04.55,79.33-40.02-39.86c-.63-.6-1-1.45-1.01-2.33Zm51.57,51.39c-.79.04-1.54-.25-2.1-.8l-.39-.39-.58-85.15.47-.52,347-17.01-.84,85.64-343.55,18.24Z"/>
  <path class="cls-1" d="m129.3,190.26c-4.18,0-7.58,3.4-7.58,7.59s3.39,7.59,7.58,7.59,7.58-3.4,7.58-7.59-3.39-7.59-7.58-7.59Z"/>
</svg>