<?xml version="1.0" encoding="UTF-8"?>
<svg id="Artwork" xmlns="http://www.w3.org/2000/svg" viewBox="0 0 480 320">
  <defs>
    <style>
      .cls-1 {
        fill: #000;
      }
    </style>
  </defs>
  <path class="cls-1" d="m145.42,98.64l-104.98,3.16c-3.81.11-6.89,3.31-6.86,7.13l.86,78.08c.03,3.02,1.31,5.95,3.43,7.97l48.4,48.2c2.02,2.01,4.76,3.14,7.6,3.14.19,0,.38,0,.57-.02l5.05-.27c2.12,1.51,8.09,2.89,24.95,2.89,26.12,0,26.12-3.31,26.12-5.29,0-.1,0-.21,0-.31l228.6-12.14c1.46,1.65,6.51,3.29,24,3.29,24.6,0,24.6-3.25,24.6-5.19,0-.21,0-.44-.03-.68l12.24-.65c3.1-.16,5.55-2.72,5.58-5.82l.89-91.28c.01-3.9-2.59-7.38-6.33-8.48l-97.74-28.66c-1.95-.57-3.96-.83-5.98-.77l-56.82,1.65-5.25.16-123.63,3.72m-107.22,90.77c-.63-.6-1-1.45-1.01-2.33l-.79-72.19,41.27,30.04.55,84.33-40.02-39.86Zm5.09-79.69l288.07-8.62c1.17-.04,2.35.12,3.49.45l83.18,24.39-334.82,12.73v.27s-39.92-29.23-39.92-29.23Zm389.02,110.52l-343.55,18.24c-.78.04-1.54-.25-2.1-.8l-.39-.39-.58-90.16.47-.52,347-13.01-.84,86.64Z"/>
  <path class="cls-1" d="m409.28,208.49c.2,0,.41,0,.61-.02,4.88-.31,8.83-4.44,8.81-9.19h0c-.01-2.31-.94-4.44-2.61-6-1.74-1.62-4.07-2.43-6.53-2.27-4.88.31-8.83,4.44-8.81,9.19.01,2.31.94,4.44,2.61,6,1.6,1.49,3.68,2.29,5.92,2.29Zm.54-13.48c.12,0,.23-.01.34-.01,1.22,0,2.35.43,3.2,1.22.86.8,1.33,1.9,1.34,3.09.01,2.67-2.26,4.99-5.07,5.17-1.36.09-2.61-.34-3.54-1.21-.86-.8-1.33-1.9-1.34-3.09-.01-2.67,2.26-4.99,5.07-5.17Z"/>
  <path class="cls-1" d="m122.43,220.33c3.85-.25,6.96-3.46,6.94-7.18-.02-3.72-3.16-6.53-7.01-6.28-3.85.25-6.96,3.46-6.94,7.18.02,3.72,3.15,6.53,7.01,6.28Z"/>
  <path class="cls-1" d="m321.87,213.2l-104.41,3.86c-1.76.06-3.2-1.32-3.2-3.07h0c0-1.75,1.43-3.24,3.19-3.31l104.41-3.86c1.76-.06,3.2,1.32,3.2,3.07h0c0,1.75-1.43,3.24-3.19,3.31Z"/>
  <path class="cls-1" d="m216.4,196.51l105.99-3.96c1.17-.04,2.13-.93,2.16-1.99l.45-31.87c.03-1.05-.9-1.87-2.06-1.83l-105.99,3.96c-1.17.04-2.13.93-2.16,1.99l-.45,31.87c-.03,1.05.9,1.87,2.06,1.83Z"/>
  <path class="cls-1" d="m181.52,167.91c-1.67-1.22-3.54-2.22-5.54-2.96-11.55-4.23-24.77,1.15-29.47,12-4.7,10.85.87,23.12,12.42,27.36,2.53.93,5.2,1.41,7.9,1.44,1.11.01,2.23-.06,3.34-.2.21,0,.42.02.63.02,11.51.12,21.19-8.73,21.58-19.73.27-7.77-4.17-14.57-10.86-17.93Zm-10.59,33.84c-9.27-.1-16.56-7.41-16.25-16.3.31-8.89,8.11-16.05,17.38-15.95s16.56,7.41,16.25,16.3c-.31,8.89-8.11,16.05-17.38,15.95Z"/>
  <path class="cls-1" d="m379.48,158.48c-1.67-1.22-3.54-2.22-5.54-2.96-11.55-4.23-24.77,1.15-29.47,12-4.7,10.85.87,23.12,12.42,27.36,2.53.93,5.2,1.41,7.9,1.44,1.11.01,2.23-.06,3.34-.2.21,0,.42.02.63.02,11.51.12,21.19-8.73,21.58-19.73.27-7.77-4.17-14.57-10.86-17.93Zm-10.59,33.84c-9.27-.1-16.56-7.41-16.25-16.3.31-8.89,8.11-16.05,17.38-15.95,9.27.1,16.56,7.41,16.25,16.3-.31,8.89-8.11,16.05-17.38,15.95Z"/>
</svg>