<?xml version="1.0" encoding="UTF-8"?>
<svg id="Layer_1" data-name="Layer 1" xmlns="http://www.w3.org/2000/svg" viewBox="0 0 480 320">
  <defs>
    <style>
      .cls-1 {
        fill: #000;
      }
    </style>
  </defs>
  <path class="cls-1" d="m323.02,198.83l-100.64,5.24c-1.44.08-2.55,1.31-2.48,2.75.07,1.4,1.23,2.48,2.61,2.48.05,0,.09,0,.14,0l100.64-5.24c1.44-.08,2.55-1.31,2.48-2.75-.07-1.44-1.31-2.55-2.75-2.48Z"/>
  <circle class="cls-1" cx="128.83" cy="206.67" r="5.48"/>
  <path class="cls-1" d="m338.61,193.33c-1.72,0-3.12,1.4-3.12,3.12s1.4,3.12,3.12,3.12,3.12-1.4,3.12-3.12-1.4-3.12-3.12-3.12Z"/>
  <path class="cls-1" d="m350.5,192.88c-1.72,0-3.12,1.4-3.12,3.12s1.4,3.12,3.12,3.12,3.12-1.4,3.12-3.12-1.4-3.12-3.12-3.12Z"/>
  <path class="cls-1" d="m362.68,192.24c-1.72,0-3.12,1.4-3.12,3.12s1.4,3.12,3.12,3.12,3.12-1.4,3.12-3.12-1.4-3.12-3.12-3.12Z"/>
  <path class="cls-1" d="m374.78,191.56c-1.72,0-3.12,1.4-3.12,3.12s1.4,3.12,3.12,3.12,3.12-1.4,3.12-3.12-1.4-3.12-3.12-3.12Z"/>
  <path class="cls-1" d="m386.87,191c-1.72,0-3.12,1.4-3.12,3.12s1.4,3.12,3.12,3.12,3.12-1.4,3.12-3.12-1.4-3.12-3.12-3.12Z"/>
  <path class="cls-1" d="m155.05,202.27c-1.72,0-3.12,1.4-3.12,3.12s1.4,3.12,3.12,3.12,3.12-1.4,3.12-3.12-1.4-3.12-3.12-3.12Z"/>
  <path class="cls-1" d="m167.72,201.75c-1.72,0-3.12,1.4-3.12,3.12s1.4,3.12,3.12,3.12,3.12-1.4,3.12-3.12-1.4-3.12-3.12-3.12Z"/>
  <path class="cls-1" d="m180.39,200.82c-1.72,0-3.12,1.4-3.12,3.12s1.4,3.12,3.12,3.12,3.12-1.4,3.12-3.12-1.4-3.12-3.12-3.12Z"/>
  <path class="cls-1" d="m193.16,200.43c-1.72,0-3.12,1.4-3.12,3.12s1.4,3.12,3.12,3.12,3.12-1.4,3.12-3.12-1.4-3.12-3.12-3.12Z"/>
  <path class="cls-1" d="m205.86,199.9c-1.72,0-3.12,1.4-3.12,3.12s1.4,3.12,3.12,3.12,3.12-1.4,3.12-3.12-1.4-3.12-3.12-3.12Z"/>
  <path class="cls-1" d="m410.9,187.61c-2.91,0-5.26,2.36-5.26,5.26s2.36,5.26,5.26,5.26,5.26-2.36,5.26-5.26-2.36-5.26-5.26-5.26Z"/>
  <path class="cls-1" d="m322.46,188.52l2.53-.18-.02-28.21-.02-1.16-1.67-1.56-101.13,5.36-2.54.18.03,28.22.02,1.16,1.67,1.56,101.14-5.36Z"/>
  <path class="cls-1" d="m439.19,122.37l-97.74-28.66c-1.94-.57-3.95-.84-5.98-.77l-194.2,5.81v-25.05c0-1.45-1.18-2.62-2.62-2.62s-2.62,1.18-2.62,2.62v25.21l-96.48,2.89c-3.81.11-6.89,3.31-6.86,7.13l.86,78.08c.03,3.02,1.31,5.95,3.43,7.97l48.39,48.2c2.02,2.01,4.76,3.14,7.6,3.14.19,0,.38,0,.57-.02l5.05-.27c2.12,1.51,8.09,2.89,24.95,2.89,26.12,0,26.12-3.31,26.12-5.29,0-.1,0-.21,0-.31l228.6-12.14c1.46,1.65,6.51,3.29,24,3.29,24.6,0,24.6-3.25,24.6-5.19,0-.21,0-.44-.03-.68l12.24-.65c3.1-.16,5.55-2.72,5.58-5.82l.89-91.28c.01-3.9-2.59-7.38-6.33-8.48Zm-103.48-21.43c1.18-.04,2.35.12,3.49.45l83.19,24.39-334.82,7.73v.27s-39.92-24.23-39.92-24.23l288.07-8.62ZM41.53,186.92l-.79-72.19,41.27,25.04.55,89.33-40.02-39.86c-.63-.6-1-1.45-1.01-2.33Zm51.57,51.39c-.79.04-1.54-.25-2.1-.8l-.39-.39-.58-95.15.47-.52,347-8.01-.84,86.64-343.55,18.24Z"/>
</svg>