<?xml version="1.0" encoding="UTF-8"?>
<svg id="Layer_1" data-name="Layer 1" xmlns="http://www.w3.org/2000/svg" viewBox="0 0 480 320">
  <defs>
    <style>
      .cls-1 {
        fill: #000;
      }
    </style>
  </defs>
  <path class="cls-1" d="m386.34,154.93c-2.22-1.66-4.67-3-7.3-3.98-15.11-5.64-31.95,1.93-37.53,16.89-2.7,7.24-2.39,15.12.87,22.17,3.27,7.05,9.09,12.44,16.42,15.17,3.3,1.23,6.78,1.86,10.27,1.86,1.44,0,2.88-.11,4.31-.32.27,0,.55.02.82.02,14.87,0,26.97-12.28,26.97-27.37,0-10.66-6.04-19.92-14.83-24.43Zm-12.14,46.56c-11.98,0-21.72-9.92-21.72-22.12s9.75-22.12,21.72-22.12,21.72,9.92,21.72,22.12-9.75,22.12-21.72,22.12Z"/>
  <path class="cls-1" d="m190.24,165.3c-2.21-1.64-4.65-2.97-7.25-3.95-15.08-5.63-31.88,1.93-37.44,16.85-5.57,14.92,2.17,31.63,17.25,37.26,3.3,1.23,6.76,1.85,10.25,1.85,1.42,0,2.85-.11,4.27-.32.28,0,.57.02.85.02,14.84,0,26.92-12.26,26.92-27.32,0-10.65-6.04-19.9-14.83-24.4Zm-12.09,46.47c-11.95,0-21.67-9.9-21.67-22.07s9.72-22.07,21.67-22.07,21.67,9.9,21.67,22.07-9.72,22.07-21.67,22.07Z"/>
  <circle class="cls-1" cx="125.93" cy="206.29" r="5.5" transform="translate(-44.03 34.45) rotate(-13.28)"/>
  <path class="cls-1" d="m247.72,197.67c-1.73,0-3.13,1.4-3.13,3.13s1.4,3.13,3.13,3.13,3.13-1.4,3.13-3.13-1.4-3.13-3.13-3.13Z"/>
  <path class="cls-1" d="m259.22,197.21c-1.73,0-3.13,1.4-3.13,3.13s1.4,3.13,3.13,3.13,3.13-1.4,3.13-3.13-1.4-3.13-3.13-3.13Z"/>
  <path class="cls-1" d="m270.91,196.75c-1.73,0-3.13,1.4-3.13,3.13s1.4,3.13,3.13,3.13,3.13-1.4,3.13-3.13-1.4-3.13-3.13-3.13Z"/>
  <path class="cls-1" d="m282.08,196.03c-1.73,0-3.13,1.4-3.13,3.13s1.4,3.13,3.13,3.13,3.13-1.4,3.13-3.13-1.4-3.13-3.13-3.13Z"/>
  <path class="cls-1" d="m293.84,195.5c-1.73,0-3.13,1.4-3.13,3.13s1.4,3.13,3.13,3.13,3.13-1.4,3.13-3.13-1.4-3.13-3.13-3.13Z"/>
  <circle class="cls-1" cx="409.13" cy="192.79" r="5.28" transform="translate(-16.49 345.77) rotate(-45)"/>
  <path class="cls-1" d="m323.72,158.35l-1.67-1.57-101.44,5.37-2.55.18.02,28.3.02,1.18,1.69,1.55,101.43-5.37,2.54-.18-.02-28.3-.02-1.16Z"/>
  <path class="cls-1" d="m439.19,122.37l-97.74-28.66c-1.94-.57-3.96-.84-5.98-.77l-194.2,5.81v-25.05c0-1.45-1.18-2.62-2.62-2.62s-2.62,1.18-2.62,2.62v25.21l-96.48,2.89c-3.81.11-6.89,3.31-6.86,7.13l.86,78.08c.03,3.02,1.31,5.95,3.43,7.97l48.39,48.2c2.02,2.01,4.76,3.14,7.6,3.14.19,0,.38,0,.57-.02l5.05-.27c2.12,1.51,8.09,2.89,24.95,2.89,26.12,0,26.12-3.31,26.12-5.29,0-.1,0-.21,0-.31l228.6-12.14c1.46,1.65,6.51,3.29,24,3.29,24.6,0,24.6-3.25,24.6-5.19,0-.21,0-.44-.03-.68l12.24-.65c3.1-.16,5.55-2.72,5.58-5.82l.89-91.28c.01-3.9-2.59-7.38-6.33-8.48Zm-103.48-21.43c1.18-.04,2.35.12,3.49.45l83.19,24.39-334.82,7.73v.27s-39.92-24.23-39.92-24.23l288.07-8.62ZM41.53,186.92l-.79-72.19,41.27,25.04.55,89.33-40.02-39.86c-.63-.6-1-1.45-1.01-2.33Zm51.57,51.39c-.78.04-1.54-.25-2.1-.8l-.39-.39-.58-95.16.47-.52,347-8.01-.84,86.64-343.55,18.24Z"/>
</svg>