<?xml version="1.0" encoding="UTF-8"?>
<svg id="Artwork" xmlns="http://www.w3.org/2000/svg" viewBox="0 0 480 320">
  <defs>
    <style>
      .cls-1 {
        fill: #000;
      }
    </style>
  </defs>
  <g>
    <path class="cls-1" d="m145.42,87.71l-104.98,3.16c-3.81.11-6.89,3.31-6.86,7.13l.86,78.08c.03,3.02,1.31,5.95,3.43,7.97l48.4,48.2c2.02,2.01,4.76,3.14,7.6,3.14.19,0,.38,0,.57-.02l5.05-.27c2.12,1.51,8.09,2.89,24.95,2.89,26.12,0,26.12-3.31,26.12-5.29,0-.1,0-.21,0-.31l228.6-12.14c1.46,1.65,6.51,3.29,24,3.29,24.6,0,24.6-3.25,24.6-5.19,0-.21,0-.44-.03-.68l12.24-.65c3.1-.16,5.55-2.72,5.58-5.82l.89-91.28c.01-3.9-2.59-7.38-6.33-8.48l-97.74-28.66c-1.95-.57-3.96-.83-5.98-.77l-56.82,1.65-5.25.16-123.63,3.72m-107.22,90.77c-.63-.6-1-1.45-1.01-2.33l-.79-72.19,41.27,30.04.55,84.33-40.02-39.86Zm5.09-79.69l288.07-8.62c1.17-.04,2.35.12,3.49.45l83.18,24.39-334.82,12.73v.27s-39.92-29.23-39.92-29.23Zm389.02,110.52l-343.55,18.24c-.78.04-1.54-.25-2.1-.8l-.39-.39-.58-90.16.47-.52,347-13.01-.84,86.64Z"/>
    <path class="cls-1" d="m404.31,187.02c.2,0,.41,0,.61-.02,4.88-.31,8.83-4.44,8.81-9.19h0c-.01-2.31-.94-4.44-2.61-6-1.74-1.62-4.07-2.43-6.53-2.27-4.88.31-8.83,4.44-8.81,9.19.01,2.31.94,4.44,2.61,6,1.6,1.49,3.68,2.29,5.92,2.29Zm.54-13.48c.12,0,.23-.01.34-.01,1.22,0,2.35.43,3.2,1.22.86.8,1.33,1.9,1.34,3.09.01,2.67-2.26,4.99-5.07,5.17-1.36.09-2.61-.34-3.54-1.21-.86-.8-1.33-1.9-1.34-3.09-.01-2.67,2.26-4.99,5.07-5.17Z"/>
    <path class="cls-1" d="m235.21,185.7c-2.02,0-3.65,1.64-3.65,3.65s1.64,3.65,3.65,3.65,3.65-1.64,3.65-3.65-1.64-3.65-3.65-3.65Z"/>
    <path class="cls-1" d="m249.13,185.16c-2.02,0-3.65,1.64-3.65,3.65s1.64,3.65,3.65,3.65,3.65-1.64,3.65-3.65-1.64-3.65-3.65-3.65Z"/>
    <path class="cls-1" d="m263.41,184.42c-2.02,0-3.65,1.64-3.65,3.65s1.64,3.65,3.65,3.65,3.65-1.64,3.65-3.65-1.64-3.65-3.65-3.65Z"/>
    <path class="cls-1" d="m277.58,183.62c-2.02,0-3.65,1.64-3.65,3.65s1.64,3.65,3.65,3.65,3.65-1.64,3.65-3.65-1.64-3.65-3.65-3.65Z"/>
    <path class="cls-1" d="m291.75,182.96c-2.02,0-3.65,1.64-3.65,3.65s1.64,3.65,3.65,3.65,3.65-1.64,3.65-3.65-1.64-3.65-3.65-3.65Z"/>
    <path class="cls-1" d="m223.57,177.64l79.55-3.24c.87-.04,1.59-1.04,1.6-2.25l.1-20.14c0-1.21-.7-2.15-1.57-2.12l-79.55,3.24c-.87.04-1.59,1.04-1.6,2.25l-.1,20.14c0,1.21.7,2.15,1.57,2.12Z"/>
    <path class="cls-1" d="m124.43,201.4c3.85-.25,6.96-3.46,6.94-7.18-.02-3.72-3.16-6.53-7.01-6.28-3.85.25-6.96,3.46-6.94,7.18.02,3.72,3.15,6.53,7.01,6.28Z"/>
    <path class="cls-1" d="m180.12,157.43c-1.61-1.18-3.4-2.14-5.33-2.84-11.11-4.07-23.83,1.11-28.35,11.55-4.52,10.44.84,22.24,11.95,26.31,2.43.89,5,1.35,7.6,1.38,1.07.01,2.14-.06,3.21-.19.2,0,.41.02.61.02,11.07.12,20.38-8.4,20.75-18.98.26-7.48-4.01-14.01-10.44-17.24Zm-10.18,32.54c-8.92-.09-15.93-7.13-15.63-15.68.3-8.55,7.8-15.43,16.71-15.34s15.93,7.13,15.63,15.68c-.3,8.55-7.8,15.43-16.71,15.34Z"/>
    <path class="cls-1" d="m370.52,148.37c-1.61-1.18-3.4-2.14-5.33-2.84-11.11-4.07-23.83,1.11-28.35,11.55-4.52,10.44.84,22.24,11.95,26.31,2.43.89,5,1.35,7.6,1.38,1.07.01,2.14-.06,3.21-.19.2,0,.41.02.61.02,11.07.12,20.38-8.4,20.75-18.98.26-7.48-4.01-14.01-10.44-17.24Zm-10.18,32.54c-8.92-.09-15.93-7.13-15.63-15.68.3-8.55,7.8-15.43,16.71-15.34,8.92.09,15.93,7.13,15.63,15.68-.3,8.55-7.8,15.43-16.71,15.34Z"/>
  </g>
  <path class="cls-1" d="m320.07,203.3l-104.79,5.76c-1.76.1-3.21-1.25-3.22-3h0c0-1.75,1.43-3.25,3.2-3.35l104.79-5.76c1.76-.1,3.21,1.25,3.22,3h0c0,1.75-1.43,3.25-3.2,3.35Z"/>
</svg>