<?xml version="1.0" encoding="UTF-8"?>
<svg id="Artwork" xmlns="http://www.w3.org/2000/svg" viewBox="0 0 480 320">
  <defs>
    <style>
      .cls-1 {
        fill: #000;
      }
    </style>
  </defs>
  <path class="cls-1" d="m409.06,183.68c-4.18,0-7.58,3.4-7.58,7.59s3.39,7.59,7.58,7.59,7.58-3.4,7.58-7.59-3.39-7.59-7.58-7.59Z"/>
  <path class="cls-1" d="m41.01,93.87c-3.81.11-6.89,3.31-6.86,7.13l-.14,75.08c.03,3.02,1.31,5.95,3.43,7.97l48.39,48.2c2.02,2.01,4.76,3.14,7.6,3.14.19,0,.38,0,.57-.02l5.05-.27c2.12,1.51,8.09,2.89,24.95,2.89,26.12,0,26.12-3.31,26.12-5.29,0-.1,0-.21,0-.31l228.6-12.14c1.46,1.65,6.51,3.29,24,3.29,24.6,0,24.6-3.25,24.6-5.19,0-.21,0-.44-.03-.68l12.24-.65c3.1-.16,5.55-2.72,5.58-5.82l.89-90.28c.01-3.9-2.59-7.38-6.33-8.48l-97.74-29.66c-1.94-.57-3.95-.84-5.98-.77m.24,8c1.18-.04,2.35.12,3.49.45l83.19,25.39-334.82,16.73v.27s-38.92-31.23-38.92-31.23l287.07-11.62ZM42.01,175.99l.21-69.19,40.27,32.04.55,79.33-40.02-39.86c-.63-.6-1-1.45-1.01-2.33Zm51.57,51.39c-.79.04-1.54-.25-2.1-.8l-.39-.39-.58-85.15.47-.52,347-17.01-.84,85.64-343.55,18.24Z"/>
  <path class="cls-1" d="m125.3,195.26c-4.18,0-7.58,3.4-7.58,7.59s3.39,7.59,7.58,7.59,7.58-3.4,7.58-7.59-3.39-7.59-7.58-7.59Z"/>
  <path class="cls-1" d="m221.94,201c-2.07,0-4.11-.8-5.66-2.23-1.69-1.57-2.66-3.79-2.66-6.09l-.03-35.62c0-4.42,3.45-8.08,7.86-8.33l95.71-4.43c2.24-.13,4.5.7,6.16,2.26,1.66,1.56,2.61,3.77,2.61,6.05l.03,34.15c0,4.35-3.39,8-7.73,8.32l-95.71,5.9c-.19.01-.39.02-.58.02Zm-1.35-43.95l.03,35.62c0,.5.27.83.43.97.16.15.51.38,1,.35l95.71-5.9c.66-.05,1.2-.63,1.2-1.33l-.03-34.14c0-.5-.26-.82-.42-.97-.16-.15-.49-.38-.99-.36l-95.71,4.43c-.67.04-1.22.62-1.22,1.33h0Z"/>
  <path class="cls-1" d="m183.57,155.31c-1.93-1.41-4.09-2.56-6.4-3.41-13.34-4.89-28.6,1.33-34.03,13.86-5.43,12.53,1.01,26.7,14.34,31.59,2.92,1.07,6,1.62,9.12,1.66,1.28.01,2.57-.07,3.86-.23.24,0,.49.02.73.03,13.29.14,24.46-10.08,24.91-22.78.32-8.97-4.81-16.82-12.53-20.7Zm-12.22,39.07c-10.7-.11-19.12-8.55-18.76-18.82s9.36-18.53,20.06-18.42,19.12,8.55,18.76,18.82c-.36,10.27-9.36,18.53-20.06,18.42Z"/>
  <path class="cls-1" d="m383.93,145.18c-1.93-1.41-4.09-2.56-6.4-3.41-13.34-4.89-28.6,1.33-34.03,13.86-5.43,12.53,1.01,26.7,14.34,31.59,2.92,1.07,6,1.62,9.12,1.66,1.28.01,2.57-.07,3.86-.23.24,0,.49.02.73.03,13.29.14,24.46-10.08,24.91-22.78.32-8.97-4.81-16.82-12.53-20.7Zm-12.22,39.07c-10.7-.11-19.12-8.55-18.76-18.82.36-10.27,9.36-18.53,20.06-18.42,10.7.11,19.12,8.55,18.76,18.82-.36,10.27-9.36,18.53-20.06,18.42Z"/>
  <path class="cls-1" d="m234.87,163.27l.02,10.2c0,1.86,1.58,3.32,3.43,3.19l63.39-3.91c1.68-.12,2.97-1.52,2.97-3.2l-.02-9.22c0-1.84-1.55-3.3-3.38-3.19l-63.39,2.93c-1.7.1-3.02,1.5-3.02,3.2Z"/>
  <path class="cls-1" d="m241.38,180.4c-2.02,0-3.65,1.64-3.65,3.65s1.64,3.65,3.65,3.65,3.65-1.64,3.65-3.65-1.64-3.65-3.65-3.65Z"/>
  <path class="cls-1" d="m255.3,179.86c-2.02,0-3.65,1.64-3.65,3.65s1.64,3.65,3.65,3.65,3.65-1.64,3.65-3.65-1.64-3.65-3.65-3.65Z"/>
  <path class="cls-1" d="m269.58,179.12c-2.02,0-3.65,1.64-3.65,3.65s1.64,3.65,3.65,3.65,3.65-1.64,3.65-3.65-1.64-3.65-3.65-3.65Z"/>
  <path class="cls-1" d="m283.75,178.32c-2.02,0-3.65,1.64-3.65,3.65s1.64,3.65,3.65,3.65,3.65-1.64,3.65-3.65-1.64-3.65-3.65-3.65Z"/>
  <path class="cls-1" d="m297.92,177.66c-2.02,0-3.65,1.64-3.65,3.65s1.64,3.65,3.65,3.65,3.65-1.64,3.65-3.65-1.64-3.65-3.65-3.65Z"/>
</svg>