<?xml version="1.0" encoding="UTF-8"?><svg id="Artwork" xmlns="http://www.w3.org/2000/svg" viewBox="0 0 480 320"><defs><style>.cls-1{fill:#000;}</style></defs><ellipse class="cls-1" cx="344.94" cy="169.5" rx="4.65" ry="4.19" transform="translate(-15.41 303.15) rotate(-46.52)"/><path class="cls-1" d="M440.09,139.45l-97.74-28.66c-1.95-.57-3.96-.83-5.98-.77l-55.82,1.65-.97-54.93c-.03-1.29-.91-2.49-2.19-2.71-1.66-.29-3.1,.98-3.1,2.58l-1,55.21-41.65,1.26-.95-55.02c-.03-1.29-.91-2.49-2.18-2.71-1.66-.29-3.1,.98-3.1,2.58l-.98,55.36-184,5.57c-3.81,.11-6.89,3.31-6.86,7.13l.86,78.08c.03,3.02,1.31,5.95,3.43,7.97l48.4,48.2c2.02,2.01,4.76,3.14,7.6,3.14,.19,0,.38,0,.57-.02l5.05-.27c2.12,1.51,8.09,2.89,24.95,2.89,26.12,0,26.12-3.31,26.12-5.29,0-.1,0-.21,0-.31l228.6-12.14c1.46,1.65,6.51,3.29,24,3.29,24.6,0,24.6-3.25,24.6-5.19,0-.21,0-.44-.03-.68l12.24-.65c3.1-.16,5.55-2.72,5.58-5.82l.89-91.28c.01-3.9-2.59-7.38-6.33-8.48ZM43.45,206.33c-.63-.6-1-1.45-1.01-2.33l-.79-72.19,41.27,30.04,.55,84.33-40.02-39.86Zm5.09-79.69l288.07-8.62c1.17-.04,2.35,.12,3.49,.45l83.19,24.39-334.82,12.73v.27s-39.92-29.23-39.92-29.23Zm389.02,110.52l-343.55,18.24c-.78,.04-1.54-.25-2.1-.8l-.39-.39-.58-90.16,.47-.52,347-13.01-.84,86.64Z"/><path class="cls-1" d="M344.94,192.3c2.44-.26,4.41-2.45,4.41-4.88s-1.98-4.2-4.41-3.94-4.41,2.45-4.41,4.88,1.98,4.2,4.41,3.94Z"/><path class="cls-1" d="M344.94,210.7c2.44-.26,4.41-2.45,4.41-4.88s-1.98-4.2-4.41-3.94-4.41,2.45-4.41,4.88,1.98,4.2,4.41,3.94Z"/><path class="cls-1" d="M344.94,229.09c2.44-.26,4.41-2.45,4.41-4.88s-1.98-4.2-4.41-3.94c-2.44,.26-4.41,2.45-4.41,4.88s1.98,4.2,4.41,3.94Z"/><path class="cls-1" d="M404.59,180.63c-4.66,.3-8.36,4.19-8.27,8.7,.09,4.5,3.95,7.91,8.61,7.61,4.66-.3,8.36-4.19,8.27-8.7-.09-4.5-3.95-7.91-8.61-7.61Z"/><path class="cls-1" d="M111.77,232.47l79.3-4c1.84-.09,3.35-1.68,3.35-3.52v-42.78c0-1.84-1.51-3.27-3.35-3.18l-79.3,4c-1.84,.09-3.35,1.68-3.35,3.52v42.78c0,1.84,1.51,3.27,3.35,3.18Z"/><path class="cls-1" d="M364.84,211.44s0,0,0,0c1.49,3.18,3.58,6.07,6.22,8.54,5.48,5.11,12.64,7.86,20.38,7.86,.7,0,1.41-.02,2.12-.07,17.09-1.1,30.92-15.44,30.84-31.97-.03-6.13-1.96-11.88-5.49-16.63h0c-3.18-6.75-9-12.08-16.56-14.67-3.85-1.32-7.92-1.85-12.12-1.58-17.08,1.1-30.92,15.44-30.84,31.97,.01,2.87,.44,5.67,1.28,8.35,.94,3.01,2.36,5.77,4.17,8.21Zm28.47,12.34c-7.44,.48-14.36-1.91-19.51-6.72-4.87-4.54-7.57-10.76-7.6-17.51-.07-14.45,12.08-26.99,27.1-27.96,.62-.04,1.24-.06,1.86-.06,6.72,0,12.93,2.37,17.66,6.78,4.87,4.54,7.57,10.76,7.6,17.51,.07,14.45-12.08,26.99-27.1,27.96Zm20.31-50.02c.13,.1,.26,.21,.39,.31-.13-.11-.26-.21-.39-.31Zm3.72,3.48s-.05-.05-.07-.08c.02,.03,.05,.05,.07,.08Zm-5.27-4.62s-.04-.03-.06-.04c.02,.01,.04,.03,.06,.04Zm-1.78-1.11c-.12-.07-.24-.14-.36-.2,.12,.07,.24,.13,.36,.2Zm-2.12-1.12s-.02,0-.03-.01c0,0,.02,0,.03,.01Zm-1.96-.83c-.09-.03-.18-.07-.27-.1,.09,.03,.18,.07,.27,.1Zm-15.73-2.66c.62-.04,1.24-.06,1.85-.06,2.48,0,4.9,.35,7.24,1,0,0,0,0,0,0-2.13-.3-4.32-.39-6.54-.25-13.56,.87-25.06,10.08-29.19,22.11,.05-.15,.1-.3,.15-.45,2.61-11.95,13.47-21.51,26.5-22.34Zm11.39,1.35c-.06-.01-.12-.03-.19-.04,.06,.01,.13,.03,.19,.04Zm-39.66,29.86c-.02,.48-.03,.96-.03,1.45,0-.48,0-.97,.03-1.45Zm1.15-6.95c-.06,.22-.13,.44-.19,.66,.06-.22,.12-.44,.19-.66Zm-.36,1.34c-.06,.23-.11,.47-.16,.71,.05-.24,.11-.47,.16-.71Zm-.29,1.37c-.05,.25-.09,.5-.13,.75,.04-.25,.09-.5,.13-.75Zm-.23,1.39c-.04,.27-.07,.54-.1,.82,.03-.27,.06-.54,.1-.82Zm-.17,1.41c-.03,.31-.05,.62-.07,.94,.02-.31,.04-.63,.07-.94Zm1.92,13.38s0-.02-.01-.03c0,.01,0,.02,.01,.03Zm-.52-1.39s-.02-.06-.03-.09c0,.03,.02,.06,.03,.09Zm-.44-1.4c-.01-.05-.03-.1-.04-.15,.01,.05,.03,.1,.04,.15Zm-.36-1.41c-.02-.08-.04-.16-.05-.23,.02,.08,.04,.16,.05,.23Zm-.29-1.43c-.02-.1-.04-.21-.06-.31,.02,.1,.04,.21,.06,.31Zm-.22-1.46c-.02-.12-.03-.24-.05-.37,.01,.12,.03,.24,.05,.37Zm-.15-1.52c0-.12-.02-.24-.03-.37,0,.12,.02,.24,.03,.37Z"/></svg>