<?xml version="1.0" encoding="UTF-8"?><svg id="Artwork" xmlns="http://www.w3.org/2000/svg" viewBox="0 0 480 320"><defs><style>.cls-1{fill:#000;}</style></defs><path class="cls-1" d="M452.63,226.24h0V126.44s-110.3-26.01-110.3-26.01v.03s0-.03,0-.03l-51.44,1.47v-25.99c0-1.57-1.27-2.84-2.84-2.84s-2.84,1.27-2.84,2.84v26.16l-33.95,.97v-27.13c0-1.57-1.27-2.84-2.84-2.84s-2.84,1.27-2.84,2.84v27.29l-218.22,6.23v5.67h.03s.14,71.28,.14,71.28h.06s-.05,.05-.05,.05l51.1,49.32,.15-.15c1.95,4.81,6.68,8.22,12.18,8.22h3.23c.18,.13,.37,.27,.6,.39,.53,.29,1.2,.55,2.05,.77,1.36,.36,3.25,.68,5.62,.95,3.29,.37,7.32,.63,11.71,.75,1.85,.15,3.78,.25,5.77,.25s3.93-.09,5.78-.25c4.39-.12,8.42-.37,11.71-.75,2.37-.27,4.26-.59,5.62-.95,.85-.23,1.53-.48,2.05-.77,1.57-.87,1.89-2.13,1.95-2.81l234.01-11.61s.07,.04,.1,.06c.53,.29,1.2,.55,2.05,.77,1.36,.36,3.25,.68,5.62,.95,3.29,.37,7.32,.63,11.71,.75,1.85,.15,3.78,.25,5.77,.25s3.93-.09,5.78-.25c4.39-.12,8.42-.37,11.71-.75,2.37-.27,4.26-.59,5.62-.95,.85-.23,1.53-.48,2.05-.77,1.46-.81,1.84-1.95,1.93-2.65l19.21-.95Zm-374.76-.7l-43.54-42.02-.55-66.94,44.59,28.75-.5,80.22Zm1.33-87.78l-35.85-23.11,298.47-8.52,88.78,20.82-351.4,10.81Zm5.44,92.91l-.54-84.75,.34-.52,362.52-13.08v88.25h0s-348.71,16.44-348.71,16.44h-7.27c-3.5,0-6.34-2.85-6.34-6.34Z"/><path class="cls-1" d="M352.83,167.2c2.09,0,3.78-1.7,3.78-3.78s-1.7-3.78-3.78-3.78-3.78,1.7-3.78,3.78,1.7,3.78,3.78,3.78Z"/><path class="cls-1" d="M350.57,177.96c.66,.49,1.44,.75,2.25,.75,.18,0,.37-.01,.55-.04,1-.15,1.88-.67,2.49-1.48,1.25-1.67,.9-4.05-.77-5.29h0c-1.67-1.25-4.05-.9-5.29,.77-1.25,1.67-.9,4.05,.77,5.29Z"/><path class="cls-1" d="M352.83,184.26c-2.09,0-3.78,1.7-3.78,3.78s1.7,3.78,3.78,3.78,3.78-1.7,3.78-3.78-1.7-3.78-3.78-3.78Z"/><path class="cls-1" d="M352.83,195.96c-2.09,0-3.78,1.7-3.78,3.78s1.7,3.78,3.78,3.78,3.78-1.7,3.78-3.78-1.7-3.78-3.78-3.78Z"/><path class="cls-1" d="M399.92,207.25c7.49,0,14.52-2.96,19.81-8.33,5.28-5.36,8.18-12.49,8.18-20.07s-2.91-14.7-8.18-20.07c-5.29-5.37-12.32-8.33-19.81-8.33s-14.52,2.96-19.81,8.33c-5.28,5.36-8.18,12.49-8.18,20.07s2.91,14.7,8.18,20.07c5.29,5.37,12.32,8.33,19.81,8.33Zm-15.77-44.49c4.21-4.28,9.81-6.64,15.77-6.64s11.55,2.36,15.77,6.64c4.23,4.3,6.55,10.01,6.55,16.09s-2.33,11.79-6.55,16.09c-4.21,4.28-9.81,6.64-15.77,6.64s-11.55-2.36-15.77-6.64c-4.23-4.3-6.55-10.01-6.55-16.09s2.33-11.79,6.55-16.09Z"/><path class="cls-1" d="M409.54,178.92c3.79,0,6.87-3.08,6.87-6.87s-3.08-6.87-6.87-6.87-6.87,3.08-6.87,6.87,3.08,6.87,6.87,6.87Zm0-10.91c2.23,0,4.04,1.81,4.04,4.04s-1.81,4.04-4.04,4.04-4.04-1.81-4.04-4.04,1.81-4.04,4.04-4.04Z"/><path class="cls-1" d="M114.58,218.11s0,0,.01,0l103.71-4.53s.06-.01,.08-.03c.02-.02,.03-.04,.03-.07l-.11-52.62s0-.05-.02-.07c-.02-.02-.05-.04-.09-.04h0l-103.56,4.07s-.06,.01-.08,.03c-.02,.02-.03,.04-.03,.07l-.05,53.1s.01,.05,.04,.07c.02,.02,.04,.02,.06,.02Z"/><path class="cls-1" d="M237.66,190.76s.09,0,.13,0l98.2-4.56c1.56-.07,2.77-1.4,2.7-2.96-.07-1.56-1.4-2.77-2.96-2.7l-98.2,4.56c-1.56,.07-2.77,1.4-2.7,2.96,.07,1.52,1.32,2.7,2.83,2.7Z"/></svg>