<svg id="Artwork" xmlns="http://www.w3.org/2000/svg" viewBox="0 0 480 320"><defs><style>.cls-1{fill:#000;}</style></defs><g id="Layer_5" data-name="Layer 5"><path class="cls-1" d="M464,126.45h0a8.24,8.24,0,0,0-1.09-3.89,5.54,5.54,0,0,0-2.3-2L333.43,63.8a18.32,18.32,0,0,0-10.15-1.39l-298,43.67a9.76,9.76,0,0,0-8.46,9.51L16,173.73a16.93,16.93,0,0,0,9.59,15.5l20.08,9.6s-1,6.38,9.41,9.54a20.72,20.72,0,0,0,11.3.44l75.05,35.87.71.26,2,.56,2.42.56,2.59.48,2.66.42,1.5.19v1.06l.14,1,.15.59.68,1.41.42.57.68.72h0l.73.67h0l.55.47.77.54.59.34,1.06.51,1.6.62,1.77.54,1.94.46,2.05.36,2.18.3,2.27.21,2.3.15,2.53.06H178l2.33-.07,2.3-.17,2.21-.22,2.12-.31,1.94-.35,1.89-.46,1.66-.51,1.59-.63,1.33-.71,1.22-.86-.08-.09.31-.21.06.05.73-.67h0l.21-.2.52-.57.78-1.26.24-.58.28-1.21v-4.2l199.9-29.91.28.43.72.82.09.09h0l.73.7h0l1.17.92,1.56.86,1.72.72,1.76.54,1.91.47,2.05.37,2.12.3,4.58.38,2.38.06H423l2.32-.06,2.36-.17,2.21-.22,2.12-.28,2-.38,1.81-.43,1.69-.58,1.55-.59,1.4-.71,1.27-.81.43-.36h0l.73-.7h0l.45-.45.79-1.06.29-.58.42-1.43v-4.57l4.32-.64.37-.07,2.12-.52,2.11-.64,2-.71,1.74-.75,1.63-.86,1.46-1,1.22-1.05.59-.7.52-.77.54-1.15.24-.77.16-.93v-.27Zm-281.4,112V176.84l261.75-39.11v61.69ZM324.51,70.82a9.86,9.86,0,0,1,5.49.75l118.82,53v.12h.3l1.06.45v0l-.5.36-.78.39-1.14.46-1.42.46-1.5.4L308,147.73,174.86,167.62l-2.34.16-2.48.08H164.9l-2.48-.1-2.51-.17-2.37-.23-2.26-.3-2.11-.34-1.93-.4-1.46-.37L32.9,113.48Zm-300,103,.73-51.36,113.81,51v60.75L29.26,181.58A8.46,8.46,0,0,1,24.46,173.82ZM150.64,238.3l-2.26-.42-.92-.21V176.09l1.7.31,2.66.43,2.83.35,2.89.28,3.08.2,2.95.14,3.17.06h3l3.08-.08,1.41-.08v61.77l-1.64.07-2.87.07h-5.76l-2.8-.12-2.8-.19-2.68-.27-2.55-.3Zm40.57,8.53h0l-.87.34-1.2.36-1.42.36-1.61.31-1.78.25-1.89.2-2,.15-2.12.08h-4.23l-2.11-.11-2-.16-1.87-.23-1.73-.28h3.42l3.05-.08,2.9-.13,3-.24H179l12.16-1.82Zm245.23-36.67-.18.11-.9.34-1.21.34-1.49.35-1.63.3-1.8.25-2,.2-2,.14-2.11.07H421l-2.12,0-2.11-.13h-.28l19.81-3Zm17.67-13.32-1.22.52h-.07v-61.3l1.06-.32,1.66-.6v60.71l-.58.5Z"/><path class="cls-1" d="M92.5,128.28l.38,1.05.62,1.06.58.65.73.6,1.57.94.17.07,18.92,8.46.16.06,1.11.43,2.36.65,4.35.64,4,.2h2.77l4.59-.43h.11l32.77-4.9h.12l2.22-.41,1.6-.45,1.41-.49,1.3-.65,1.06-.69.63-.58.75-1,.5-1.06.28-1.56-.11-1.25-.38-1-.64-1.06-.57-.64-.91-.75-1.39-.79-.16-.07-18.93-8.46-.16-.06-.49-.19-2.11-.69-2.5-.51-2.8-.35-3.89-.19h-2.75l-4.59.42h-.11l-32.77,4.9h0l-2.34.43-2.25.65-1.46.61-1.48.91-.91.84-.58.8-.51,1.06-.28,1.2v.22Z"/><path class="cls-1" d="M280.63,101.45l.58.89.19.23,1.06,1,1.58.93.17.09,18.92,8.46.15.07,1.11.42,3.18.81,3.59.48,3.95.2h1l3.68-.16,2.78-.32h0l32.76-4.89h.13l3-.63,2.12-.7,1.33-.66L363,107l.63-.58.75-1,.49-1.06.3-1.58-.06-.92-.56-1.68-.4-.63-.7-.8-.69-.59-1.6-.93-.16-.08-18.93-8.46H342l-.46-.19-2.21-.69-2.5-.52-3.64-.42-3.05-.11-3.72.08-3.61.37h-.12l-32.77,4.91h0l-1.6.26-1.73.42-2,.66-1.26.61-.79.52-1.06,1-.6.82-.49,1.05-.29,1.22v.23l.12,1.37Z"/><path class="cls-1" d="M368.85,160.25a7.9,7.9,0,0,0-8-7.79,6.8,6.8,0,0,0-1.1.09l-94.62,14.64a7.93,7.93,0,0,0-6.68,7.91l.51,40.35a7.88,7.88,0,0,0,7.9,7.79,8.08,8.08,0,0,0,1.2-.09l94.63-14.65a7.93,7.93,0,0,0,6.69-7.9Zm-7.22,41.43L267,216.33a1.07,1.07,0,0,1-.79-.22,1,1,0,0,1-.35-.75L265.33,175a1.07,1.07,0,0,1,.85-1l94.62-14.64H361a1,1,0,0,1,.64.23,1.06,1.06,0,0,1,.35.75l.51,40.35A1,1,0,0,1,361.63,201.68Z"/><polygon class="cls-1" points="346.06 187.4 357.68 185.62 357.68 177.35 346.06 179.14 346.06 187.4"/><polygon class="cls-1" points="279.94 210.64 332.66 202.59 332.66 166.41 279.94 174.44 279.94 210.64"/></g></svg>