<svg id="Artwork" xmlns="http://www.w3.org/2000/svg" viewBox="0 0 480 320"><defs><style>.cls-1,.cls-2,.cls-3{fill:#000;}.cls-1,.cls-2{fill-rule:evenodd;}.cls-2{stroke:#000;stroke-width:3px;}</style></defs><path id="Fill-1" class="cls-1" d="M216.42,176.6a1.79,1.79,0,0,1-1.78-1.79V162.94a1.79,1.79,0,0,1,1.78-1.79h96.37a1.79,1.79,0,0,1,1.79,1.79v11.87a1.79,1.79,0,0,1-1.79,1.79Z"/><path id="Fill-3" class="cls-1" d="M312.79,160.59H216.42a2.35,2.35,0,0,0-2.35,2.35v11.87a2.35,2.35,0,0,0,2.35,2.35h96.37a2.35,2.35,0,0,0,2.35-2.35V162.94a2.35,2.35,0,0,0-2.35-2.35m0,1.12a1.23,1.23,0,0,1,1.23,1.23v11.87a1.23,1.23,0,0,1-1.23,1.23H216.42a1.23,1.23,0,0,1-1.22-1.23V162.94a1.23,1.23,0,0,1,1.22-1.23h96.37"/><path id="Fill-17" class="cls-2" d="M317.07,154.24H212.14a6.08,6.08,0,0,0-6.07,6.08v35.06a6.08,6.08,0,0,0,6.07,6.08H317.07a6.08,6.08,0,0,0,6.08-6.08V160.32a6.08,6.08,0,0,0-6.08-6.08m0,1.12a5,5,0,0,1,4.95,5v35.06a5,5,0,0,1-4.95,5H212.14a5,5,0,0,1-4.95-5V160.32a5,5,0,0,1,4.95-5H317.07"/><path id="Fill-32" class="cls-1" d="M389.54,156.34a21.1,21.1,0,1,0,21.09,21.1,21.1,21.1,0,0,0-21.09-21.1"/><path id="Stroke-36" class="cls-3" d="M219.54,194.52a6.31,6.31,0,1,1,6.31-6.31A6.32,6.32,0,0,1,219.54,194.52Z"/><path id="Stroke-43" class="cls-3" d="M295.21,191.1a3.54,3.54,0,1,1,3.54-3.53A3.53,3.53,0,0,1,295.21,191.1Z"/><path id="Stroke-47" class="cls-3" d="M310.48,191.1a3.54,3.54,0,1,1,3.54-3.53A3.53,3.53,0,0,1,310.48,191.1Z"/><path id="Stroke-50" class="cls-3" d="M266.67,186.49a2.46,2.46,0,1,1-2.45-2.46A2.45,2.45,0,0,1,266.67,186.49Z"/><path id="Stroke-43-2" data-name="Stroke-43" class="cls-3" d="M239.88,191.1a3.54,3.54,0,1,1,3.53-3.53A3.54,3.54,0,0,1,239.88,191.1Z"/><path id="Stroke-50-2" data-name="Stroke-50" class="cls-3" d="M188.72,197.62A6.63,6.63,0,1,1,182.1,191,6.63,6.63,0,0,1,188.72,197.62Z"/><path id="Stroke-50-3" data-name="Stroke-50" class="cls-3" d="M352.91,197.62a6.63,6.63,0,1,1-6.63-6.63A6.63,6.63,0,0,1,352.91,197.62Z"/><g id="layer2"><g id="text2997"><path id="path3820" class="cls-3" d="M120.48,193a4.44,4.44,0,0,1-.27.44c-.19.24-.45.23-.45.35s0,0,.08,0,.3,0,.57,0,.55,0,.58,0,.09,0,.09,0-.51-.15-.51-.33a.77.77,0,0,1,.07-.17l.66-1.2c0-.09.08-.11.28-.11l.79,0c.14,0,.17,0,.17.06l.16,1a2.06,2.06,0,0,1,0,.28c0,.19-.15.24-.29.26s-.23,0-.23.12,0,.08.11.08.24,0,.61,0,.57,0,.71,0,.11,0,.11,0-.23-.12-.36-.15a.16.16,0,0,1-.12-.13l-.6-3.28c0-.07,0-.3,0-.37a.11.11,0,0,0-.12-.11c-.13,0-.18.14-.29.31L120.48,193m2-1.24-.53,0-.5,0,.69-1.3s0-.09.07-.09,0,.08.06.16l.21,1.23"/></g><g id="text3001"><path id="path3817" class="cls-3" d="M127.4,194.68a.2.2,0,0,0-.21.2c0,.18.08.24.24.24.78,0,1.49-1.32,1.68-1.63a8.06,8.06,0,0,0,.74-2.19c0-.09,0-.16-.12-.16s-.15.1-.15.27a4.22,4.22,0,0,1-.53,1.86,1,1,0,0,1-.16.29s0,0,0,0,0-.28,0-.64c0-.93-.17-1.75-.51-1.75s-.69.79-.69.9a.07.07,0,0,0,.06.07c.07,0,.19-.57.53-.57.17,0,.28,1.09.28,1.91,0,.62-.57,1.35-.86,1.35-.09,0-.14-.12-.31-.12"/></g><g id="text3005"><path id="path3814" class="cls-3" d="M133.51,193.59a1,1,0,0,0,0,.12c0,.09.1.11.14.11a.11.11,0,0,0,.11-.06c.1-.2,1.08-2.17,1.34-2.17.1,0,0,.3.18.3s.25-.23.25-.38,0-.31-.25-.31c-.38,0-.94,1.21-1.12,1.52,0,0,0,0,0,0v0s.06-.18.1-.31a5.31,5.31,0,0,0,.21-1c0-.13,0-.21-.16-.21s-.91.91-.91,1,0,.08,0,.08.39-.58.54-.58.08,0,.08.1a.38.38,0,0,1,0,.13l-.46,1.66"/></g><g id="text3009"><path id="path3811" class="cls-3" d="M140.1,191.2c-.59,0-1.35,1-1.35,1.9,0,.42.15.76.54.76s1-.79,1-.85,0-.06-.05-.06-.37.52-.74.52-.38-.1-.38-.46a.87.87,0,0,1,0-.31c1.09-.18,1.33-.78,1.33-1s-.11-.49-.39-.49m0,.12c.16,0,.2.12.2.24s-.26.76-1.07,1c.24-.9.71-1.24.87-1.24"/></g></g><g id="layer3"><path id="rect3794" class="cls-3" d="M141.85,160.39H118.36v28.69l9.89-12.1h-9.88V175.2H129.7ZM129.7,175.2,128.25,177H141.9V175.2Z"/><path id="rect3799" class="cls-3" d="M118.36,189v6.83h23.49V189Zm.23.23h23v6.37h-23Z"/></g><path class="cls-3" d="M450.81,138H447l-52.95-37.8a13.24,13.24,0,0,0-9.41-4l-350.92.9c-3.58,0-7.06.74-9.13,2.49a7.42,7.42,0,0,0-2.41,5.49l-.33,65.16v.15a15.32,15.32,0,0,0,4.06,10.07l.18.19,39.35,33.42a7.34,7.34,0,0,0,6.67,4.29h47.12v.89c2.47,5.44,20,4.31,20,4.31,11.39.1,17.75-4.82,17.75-4.82v-.38H364.28v.38s6.36,4.92,17.75,4.82c0,0,17.55,1.13,20-4.31v-.89h48.77a7.34,7.34,0,0,0,7.33-7.33V145.38A7.34,7.34,0,0,0,450.81,138Zm-66.19-33h0a4.47,4.47,0,0,1,3.28,1.48l.31.34,42,30L260.79,138H74.73l-38-32.1Zm-354,65.28.59-57.54,34.46,29.09a7.32,7.32,0,0,0-.89,3.51v56.69L32.21,174.41A6.53,6.53,0,0,1,30.63,170.32Zm418.74,39.35H73.73l-.18-.15V148.13l187.24-1.32H449.37Z"/></svg>