<svg id="Artwork" xmlns="http://www.w3.org/2000/svg" viewBox="0 0 480 320"><defs><style>.cls-1,.cls-2{fill:#000;}.cls-2{fill-rule:evenodd;}</style></defs><path class="cls-1" d="M131.3,195.36a11,11,0,1,0-11-11h0A11,11,0,0,0,131.3,195.36Z"/><path class="cls-1" d="M160.06,195.36a11,11,0,1,0-11-11,11,11,0,0,0,11,11Z"/><circle class="cls-1" cx="313.93" cy="184.53" r="5.14"/><path class="cls-1" d="M457.34,127.61c0-.12-.08-.25-.12-.36a2.72,2.72,0,0,0-.11-.34,3.24,3.24,0,0,0-.17-.32,3.37,3.37,0,0,0-.19-.32c-.08-.11-.16-.2-.24-.3s-.15-.17-.23-.26l-.29-.23-.29-.23a1.59,1.59,0,0,0-.29-.15,1.79,1.79,0,0,0-.39-.2h0L340.9,82a27.83,27.83,0,0,0-9.81-1.78H26.16a2.87,2.87,0,0,0-.5.07l-.26.06a3.39,3.39,0,0,0-.41.15l-.24.1-.39.22-.2.13a5,5,0,0,0-.42.37l-.09.08c-.15.17-.29.35-.42.53l-.09.18a4.23,4.23,0,0,0-.22.42l-.09.26a.84.84,0,0,0-.09.25v.17a.52.52,0,0,0,0,.27,3.69,3.69,0,0,0,0,.47.82.82,0,0,1,0,.18l2.25,86.34a3.8,3.8,0,0,0,1.33,2.8l76.57,65.58.19.13.27.19a3.9,3.9,0,0,0,.35.19l.27.12a3.22,3.22,0,0,0,.44.14,1.05,1.05,0,0,0,.24.06,3.53,3.53,0,0,0,.72.08H453.53a3.82,3.82,0,0,0,3.81-3.81V128.36a3.08,3.08,0,0,0,0-.43A1.14,1.14,0,0,0,457.34,127.61ZM101.47,227.67,32.53,168.61l-2-77.92,71,40ZM41,87.83H331.09a20.18,20.18,0,0,1,7.13,1.3l94.45,35.52H106.23Zm67.14,76.42H352a27.68,27.68,0,0,0-8.72,20.18l0,0a27.74,27.74,0,0,0,8.57,20H108.12Zm341.69-7.62v75.52H109.09V212.08h259.2a26.26,26.26,0,0,0,2.8.15,27.8,27.8,0,1,0,0-55.6h-262V132.27H449.81Z"/><path class="cls-1" d="M290.73,173.13H273.79a11.42,11.42,0,0,0,0,22.83h16.94a11.42,11.42,0,1,0,0-22.83Zm-17.15,17.66a6.25,6.25,0,1,1,6.24-6.24A6.24,6.24,0,0,1,273.58,190.79Zm17.37,0a6.25,6.25,0,1,1,6.24-6.24A6.24,6.24,0,0,1,291,190.79Z"/><path id="Fill-3" class="cls-2" d="M234.63,176.8H183.45a2.2,2.2,0,0,0-2.2,2.19V190.1a2.2,2.2,0,0,0,2.2,2.2h51.18a2.2,2.2,0,0,0,2.2-2.2V179a2.2,2.2,0,0,0-2.2-2.19"/></svg>