<svg id="Artwork" xmlns="http://www.w3.org/2000/svg" viewBox="0 0 480 320"><defs><style>.cls-1,.cls-2{fill:none;}.cls-1{stroke:#000;stroke-width:8px;}.cls-3{fill:#000;}</style></defs><g id="Page-1"><g id="SVGS"><g id="signal_path_ayre_ex_8_icon-copy" data-name="signal path ayre ex 8 icon-copy"><g id="Page-1-2" data-name="Page-1"><path id="Stroke-1" class="cls-1" d="M445.73,208.54a5.61,5.61,0,0,1-5.61,5.62H95a5.61,5.61,0,0,1-5.61-5.62l-.84-74a5.62,5.62,0,0,1,5.62-5.62H441a5.62,5.62,0,0,1,5.62,5.62Z"/><path id="Stroke-3" class="cls-1" d="M90.12,130.63,33.18,101.22c-1.74-1.41,1.61-3.55,3.16-3.55H385c1.55,0,59.75,32.72,59.75,32.72"/><path id="Stroke-29" class="cls-1" d="M366.51,216.6c0,2.19,7.85,4,17.54,4s17.55-1.77,17.55-4"/><path id="Stroke-35" class="cls-1" d="M131.7,216.6c0,2.19,7.86,4,17.55,4s17.55-1.77,17.55-4"/></g></g><path class="cls-2" d="M306,162.9H291.68a7.41,7.41,0,0,0,0,14.82H306a7.41,7.41,0,0,0,0-14.82Zm-13,11.58a4.18,4.18,0,1,1,4.18-4.17A4.17,4.17,0,0,1,293,174.48Zm11.61,0a4.18,4.18,0,1,1,4.18-4.17A4.17,4.17,0,0,1,304.63,174.48Z"/><path class="cls-3" d="M123.08,165.87a4.69,4.69,0,1,0,4.69,4.68A4.69,4.69,0,0,0,123.08,165.87Z"/><path class="cls-3" d="M107.77,164a6.53,6.53,0,1,0,6.52,6.52A6.52,6.52,0,0,0,107.77,164Z"/><path class="cls-3" d="M138,164a6.53,6.53,0,1,0,6.52,6.52A6.52,6.52,0,0,0,138,164Z"/><path class="cls-3" d="M332.73,163.94a6.69,6.69,0,1,0,6.69,6.69A6.7,6.7,0,0,0,332.73,163.94Z"/><path class="cls-3" d="M376.84,143.89a27,27,0,1,0,27,27A27,27,0,0,0,376.84,143.89Z"/><rect class="cls-3" x="152.13" y="160.94" width="69.91" height="18.76" rx="2.27"/><path class="cls-3" d="M306,160.67H291.68a9.64,9.64,0,1,0,0,19.28H306a9.64,9.64,0,0,0,0-19.28ZM291.5,175.58a5.27,5.27,0,1,1,5.27-5.27A5.28,5.28,0,0,1,291.5,175.58Zm14.66,0a5.27,5.27,0,1,1,5.27-5.27A5.28,5.28,0,0,1,306.16,175.58Z"/></g><g id="layer2"><g id="text2997"><path id="path3820" class="cls-3" d="M414.87,186.77c-.05.06-.12.23-.25.39s-.4.22-.4.33,0,0,.07,0,.27,0,.52,0,.5,0,.52,0,.09,0,.09-.05-.47-.13-.47-.29A.46.46,0,0,1,415,187l.6-1.1c0-.08.07-.09.26-.09h.72c.12,0,.15,0,.15.06l.15.94a1.58,1.58,0,0,1,0,.26c0,.18-.14.22-.27.23s-.2,0-.2.12,0,.07.1.07.22,0,.56,0,.51,0,.64,0,.1,0,.1,0-.2-.11-.32-.15a.13.13,0,0,1-.11-.11l-.55-3c0-.06,0-.28,0-.34a.1.1,0,0,0-.11-.1c-.12,0-.17.13-.26.28l-1.6,2.69m1.83-1.13h-.94l.64-1.19s0-.08.06-.08,0,.07.06.14l.18,1.13"/></g><g id="text3001"><path id="path3817" class="cls-3" d="M421.19,188.32a.18.18,0,0,0-.2.18c0,.16.07.22.22.22.71,0,1.36-1.2,1.53-1.49a7.16,7.16,0,0,0,.68-2c0-.08,0-.14-.11-.14s-.14.09-.14.25a3.93,3.93,0,0,1-.48,1.69,1,1,0,0,1-.15.27s0,0,0,0,0-.26,0-.59c0-.85-.15-1.59-.47-1.59s-.62.72-.62.81,0,.07.05.07.18-.52.49-.52c.15,0,.26,1,.26,1.74,0,.57-.52,1.23-.79,1.23-.09,0-.13-.1-.28-.1"/></g><g id="text3005"><path id="path3814" class="cls-3" d="M426.76,187.32a.89.89,0,0,0,0,.11c0,.09.09.1.13.1a.11.11,0,0,0,.1-.05c.09-.19,1-2,1.22-2,.09,0,0,.27.17.27s.22-.21.22-.35,0-.28-.22-.28c-.35,0-.86,1.1-1,1.38,0,0,0,0,0,0s0,0,0,0,.06-.16.1-.29a5.35,5.35,0,0,0,.19-.92c0-.11,0-.19-.14-.19s-.84.83-.84.92,0,.06,0,.06.35-.52.49-.52.07,0,.07.08a.61.61,0,0,1,0,.13l-.42,1.51"/></g><g id="text3009"><path id="path3811" class="cls-3" d="M432.77,185.14c-.53,0-1.23,1-1.23,1.74,0,.38.14.68.49.68s.9-.72.9-.77,0,0,0,0-.34.47-.67.47-.35-.09-.35-.42a.72.72,0,0,1,.05-.28c1-.16,1.21-.71,1.21-.93s-.1-.44-.36-.44m0,.11c.15,0,.19.11.19.22s-.24.69-1,.91c.21-.82.65-1.13.79-1.13"/></g></g><g id="layer3"><path id="rect3794" class="cls-3" d="M434.37,157H412.94v26.18l9-11h-9v-1.62h10.34Zm-11.09,13.52L422,172.17h12.45v-1.62Z"/><path id="rect3799" class="cls-3" d="M412.94,183.11v6.23h21.43v-6.23Zm.21.21h21v5.81h-21Z"/></g></g><path class="cls-1" d="M32.7,100.5v66.6a11.43,11.43,0,0,0,6.18,10.15l51,34.35"/></svg>