<svg id="Artwork" xmlns="http://www.w3.org/2000/svg" viewBox="0 0 480 320"><defs><style>.cls-1{fill:#000;}</style></defs><g id="Layer_4" data-name="Layer 4"><path class="cls-1" d="M438.25,94.8l-83.88-13H42.23a14.65,14.65,0,0,0-14.6,14.57v75.06a15.37,15.37,0,0,0,8.88,13.87l10.22,4.77a7.79,7.79,0,0,0-.09,1v15.14a6,6,0,0,0,5.94,6H94.06l24.51,11.43.07-.15a14.47,14.47,0,0,0,7.65,2.22h2.17v6.77a5.71,5.71,0,0,0,5.7,5.71h48.6a5.73,5.73,0,0,0,5.71-5.71v-6.77h190v6.77a5.71,5.71,0,0,0,5.7,5.71h48.6a5.71,5.71,0,0,0,5.71-5.71h0v-6.8a14.64,14.64,0,0,0,13.94-14.59V109.4A14.63,14.63,0,0,0,438.25,94.8ZM179.59,229.23H137.33V225.9h42.26ZM437.74,103.65a5.73,5.73,0,0,1,5.69,5.22H120.6a5.74,5.74,0,0,1,5.69-5.22ZM380,94.77H126.29a14.57,14.57,0,0,0-9,3.14L65.7,90.64H353.35ZM36.51,171.44V96.38a6.11,6.11,0,0,1,.09-.86l75.46,10.61a13.86,13.86,0,0,0-.39,3.27V210.58L57.55,185.36V185h-.64l-16.65-7.76A6.45,6.45,0,0,1,36.51,171.44Zm19,31.89v-9.11L75,203.33Zm374.07,25.9H387.3V225.9h42.25Zm8.19-12.47H126.29a5.76,5.76,0,0,1-5.74-5.75V117.8h322.9V211a5.76,5.76,0,0,1-5.71,5.75Z"/><path class="cls-1" d="M396.66,125.13H179.87a37.84,37.84,0,0,0-1.3,75.67H396.66a37.84,37.84,0,0,0,0-75.67Zm0,66.79H179.87A29,29,0,1,1,178.73,134H396.66a29,29,0,0,1,0,57.91Z"/></g></svg>