<svg xmlns="http://www.w3.org/2000/svg" viewBox="0 0 480 320"><defs><style>.cls-1{fill:#000;}</style></defs><g id="Layer_4" data-name="Layer 4"><path class="cls-1" d="M454.09,148.74l.06-.41c.7-5.65-6.1-9-12.85-11.61-20.67-7.87-76.1-29.76-84.25-33.59-9-4.23-24.94-5.79-48.78-4.78l-235.62,20c-.42,0-10.31.75-20.56,2.38-20.35,3.22-23.85,7.14-24.59,10.9a6.2,6.2,0,0,0-.1,1.71c0,47.94.1,48.51.25,49.15a12.16,12.16,0,0,0,6.73,8c2,1.2,30.39,19,49.38,31,2.23,1.82,16.32,12.32,47.89,14.38,5.73,1.65,13.29,9.23,19.79,10.16,6.28.89,12-8.49,20.37-11.86,39.52-4.87,162.68-16.87,223.74-22.76,5.74,1.69,13.37,8.2,19.63,8.69,6,.47,10.81-8.13,18.18-12.4,14.64-2,18.32-4.94,19.84-7.32a6.09,6.09,0,0,0,.89-4.47ZM73.27,126.37l235.42-20c22.16-.93,37.29.42,44.95,4,8.29,3.91,64.05,25.93,84.81,33.84a35.18,35.18,0,0,1,6.65,3.14c-1.92.86-6.22,2.23-15.38,3.31-2.11.2-211.47,20.13-261,26.39-30.18,3.82-50.34.53-61.93-2.89-12.48-3.69-18-8.32-18-8.35l-.24-.21-.28-.18C38.9,134.36,38.3,134.06,38.08,134a17,17,0,0,1-1.78-1C41.05,130.41,56.77,127.55,73.27,126.37Zm-37.82,54.4,0-.1,0,.15Zm53.32,34.54-.24-.22-.28-.17c-49.35-31-49.95-31.35-50.17-31.46-1.95-1-2.42-2-2.57-2.48-.08-2.84-.11-22.53-.11-39.31C41,145.14,66.33,161.07,83.76,172c2.47,2,19.55,14.73,58.94,14.73a215.46,215.46,0,0,0,27-1.79c7.7-1,19.29-2.28,33.37-3.79v41.47c-14.52,1.55-26.48,2.9-34.38,3.9-30.17,3.81-50.33.52-61.92-2.9C94.28,220,88.81,215.34,88.77,215.31Zm341-15.15c-.6.06-18.23,1.74-44.25,4.25V162.93l45.1-4.33a77.26,77.26,0,0,0,15.52-3.08v40.83C444.91,197.07,441,198.83,429.72,200.16Z"/><ellipse class="cls-1" cx="363.65" cy="145.1" rx="28.34" ry="5.62"/></g></svg>