<svg xmlns="http://www.w3.org/2000/svg" viewBox="0 0 480 320"><defs><style>.cls-1{fill:#000;}</style></defs><g id="Layer_4" data-name="Layer 4"><path class="cls-1" d="M24,122.79v44.42a3.34,3.34,0,0,0,2,3l67.35,30.21a28.06,28.06,0,0,0,11.6,2.52h.41l14.4-.21a53.28,53.28,0,0,1,8.31,5.56c4,3.06,7.51,5.75,11.16,5.75a7.34,7.34,0,0,0,1.31-.12c4.1-.74,8.4-3.8,12.55-6.75a45.59,45.59,0,0,1,8.14-5.05c44.81-.66,102-1.5,124.4-1.81,18-.24,54.57-2.52,89-4.93a47.16,47.16,0,0,1,9.79,5.5c4,2.7,7.53,5.08,11,5.08a7.56,7.56,0,0,0,1.76-.21c4.05-1,8.15-4.31,12.11-7.51,3.21-2.59,6.28-5.06,9-6,20.54-1.54,35-2.7,35.44-2.73a3.33,3.33,0,0,0,3.06-3.32V141.77a.41.41,0,0,0,0-.11,2.85,2.85,0,0,0,0-.41l0-.22a2.8,2.8,0,0,0-.13-.41l-.06-.17a3,3,0,0,0-.29-.53.39.39,0,0,0-.08-.1,2.69,2.69,0,0,0-.3-.37l-.16-.14a2.34,2.34,0,0,0-.3-.25l-.21-.14-.31-.16-.27-.11-.17-.07L347.8,106.39a32.42,32.42,0,0,0-10.59-1.34L29,117.7a4.21,4.21,0,0,0-3.69,2.49A3.3,3.3,0,0,0,24,122.79Zm411.58,17c-36.61,2.83-119.87,9-150.07,9.44-33.87.47-146.55,2.13-180.28,2.63A21.21,21.21,0,0,1,96.09,150l-56.84-26L337.48,111.7a25.43,25.43,0,0,1,8.4,1.06Zm-56.84,30.92a13.27,13.27,0,1,1-13.27-13.27A13.27,13.27,0,0,1,378.76,170.75Zm71.44,12.37c-8.65.68-34.52,2.71-63.85,4.81l-1-37.69c29.39-2.1,55.55-4.14,64.84-4.87ZM30.67,165.06V127.32L93.31,156A28.17,28.17,0,0,0,105,158.56h.4l84.85-1.25-.45,37.78-84.5,1.25a21.24,21.24,0,0,1-9.16-1.93Z"/></g></svg>