<svg xmlns="http://www.w3.org/2000/svg" viewBox="0 0 480 320"><defs><style>.cls-1{fill:#000;}</style></defs><g id="Layer_4" data-name="Layer 4"><path class="cls-1" d="M453,136.58c0-.14,0-.27.07-.41.7-5.65-6.11-9-12.86-11.61C419.52,116.69,364.1,94.8,355.94,91c-9-4.23-24.93-5.79-48.78-4.78l-235.62,20c-.41,0-10.31.75-20.56,2.37-20.35,3.23-23.84,7.15-24.59,10.91a6.19,6.19,0,0,0-.09,1.71c0,47.94.1,48.5.25,49.15a12.17,12.17,0,0,0,6.72,8c2,1.2,30.39,19,49.39,31,2.22,1.82,16.32,12.31,47.89,14.37,5.73,1.65,13.29,9.24,19.78,10.17,6.29.89,12-8.49,20.38-11.86,39.51-4.87,162.68-16.87,223.73-22.76,5.75,1.69,13.37,8.2,19.64,8.69,6,.47,10.8-8.14,18.18-12.4,14.63-2,18.31-4.94,19.84-7.32a6.08,6.08,0,0,0,.88-4.47ZM72.17,114.21l235.42-20c22.16-.94,37.28.42,45,4,8.29,3.9,64,25.93,84.8,33.84a35.38,35.38,0,0,1,6.66,3.14c-1.93.86-6.23,2.23-15.38,3.31-2.11.2-211.47,20.13-261,26.39-30.18,3.82-50.33.53-61.92-2.89-12.48-3.69-18-8.32-18-8.35l-.24-.22-.28-.17C37.8,122.2,37.2,121.9,37,121.79c-.78-.39-1.35-.73-1.78-1C39.94,118.25,55.67,115.39,72.17,114.21ZM34.35,168.6l0-.1s0,.09,0,.16Zm53.32,34.55-.24-.22-.28-.17C37.8,171.71,37.2,171.41,37,171.3c-1.94-1-2.41-2-2.57-2.48-.08-2.85-.11-22.53-.1-39.31,5.58,3.47,30.92,19.4,48.36,30.37,2.47,2,19.54,14.73,58.93,14.73a215.23,215.23,0,0,0,27-1.79c7.71-1,19.3-2.28,33.38-3.79v41.46c-14.53,1.56-26.48,2.91-34.38,3.9-30.18,3.82-50.33.53-61.93-2.9C93.18,207.81,87.7,203.18,87.67,203.15Zm341-15.15c-.61.06-18.24,1.74-44.25,4.25V150.77l45.09-4.33A76.42,76.42,0,0,0,445,143.35v40.84C443.81,184.9,439.9,186.67,428.62,188Z"/><ellipse class="cls-1" cx="362.55" cy="132.94" rx="28.34" ry="5.62"/></g></svg>