<svg id="Artwork" xmlns="http://www.w3.org/2000/svg" viewBox="0 0 480 320"><defs><style>.cls-1{fill:#000;}</style></defs><path class="cls-1" d="M450.81,137.53H447L394.06,99.72a13.27,13.27,0,0,0-9.41-4l-350.92.9c-3.58,0-7.06.73-9.13,2.48a7.44,7.44,0,0,0-2.41,5.5l-.33,65.16v.14A15.32,15.32,0,0,0,25.92,180l.18.2,39.35,33.42a7.36,7.36,0,0,0,6.67,4.29h47.12v.88c2.47,5.44,20,4.31,20,4.31,11.39.11,17.75-4.82,17.75-4.82v-.37H364.28v.37s6.36,4.93,17.75,4.82c0,0,17.55,1.13,20-4.31v-.88h48.77a7.34,7.34,0,0,0,7.33-7.34V144.86A7.34,7.34,0,0,0,450.81,137.53Zm-66.19-33h0a4.46,4.46,0,0,1,3.28,1.47l.31.35,42,30-169.45,1.2H74.73l-38-32.11Zm-354,65.28.59-57.55,34.46,29.1a7.25,7.25,0,0,0-.89,3.5v56.69L32.21,173.89A6.53,6.53,0,0,1,30.63,169.81Zm418.74,39.34H73.73l-.18-.15V147.62l187.24-1.33H449.37Z"/><circle class="cls-1" cx="395.15" cy="179.73" r="21.05"/><circle class="cls-1" cx="261.76" cy="183.64" r="13.36"/><circle class="cls-1" cx="435.42" cy="160.11" r="6.32"/><path class="cls-1" d="M361.13,182.32a13.33,13.33,0,0,1,4.41-9.9,9.88,9.88,0,0,0-9.77-8.51H298.31a9.87,9.87,0,0,0-9.86,9.82,13.34,13.34,0,0,1,0,17.18v.26a9.87,9.87,0,0,0,9.87,9.88h57.46a9.87,9.87,0,0,0,9.81-8.8A13.31,13.31,0,0,1,361.13,182.32ZM311,188.8a6.32,6.32,0,1,1,6.32-6.32A6.33,6.33,0,0,1,311,188.8Zm29.31,0a6.32,6.32,0,1,1,6.33-6.32A6.32,6.32,0,0,1,340.26,188.8Z"/><circle class="cls-1" cx="435.42" cy="192.26" r="6.32"/><circle class="cls-1" cx="87.14" cy="160.11" r="6.32"/><circle class="cls-1" cx="87.14" cy="192.26" r="6.32"/><path class="cls-1" d="M179.37,182.32a13.34,13.34,0,0,1,6.09-11.2,9.86,9.86,0,0,0-9.49-7.21h-50.8a16.53,16.53,0,0,0-16.53,16.54v1.26A19.33,19.33,0,0,0,128,201.05h48a9.86,9.86,0,0,0,9.56-7.49A13.34,13.34,0,0,1,179.37,182.32Z"/><rect class="cls-1" x="218.96" y="163.91" width="21.11" height="37.62" rx="7.56"/></svg>