<svg id="Artwork" xmlns="http://www.w3.org/2000/svg" viewBox="0 0 480 320"><defs><style>.cls-1{fill:#000;}</style></defs><path class="cls-1" d="M450.81,137.53H447L394.06,99.72a13.27,13.27,0,0,0-9.41-4l-350.92.9c-3.58,0-7.06.73-9.13,2.48a7.44,7.44,0,0,0-2.41,5.5l-.33,65.16v.14A15.32,15.32,0,0,0,25.92,180l.18.2,39.35,33.42a7.36,7.36,0,0,0,6.67,4.29h47.12v.88c2.47,5.44,20,4.31,20,4.31,11.39.11,17.75-4.82,17.75-4.82v-.37H364.28v.37s6.36,4.93,17.75,4.82c0,0,17.55,1.13,20-4.31v-.88h48.77a7.34,7.34,0,0,0,7.33-7.34V144.86A7.34,7.34,0,0,0,450.81,137.53Zm-66.19-33h0a4.46,4.46,0,0,1,3.28,1.47l.31.35,42,30-169.45,1.2H74.73l-38-32.11Zm-354,65.28.59-57.55,34.46,29.1a7.25,7.25,0,0,0-.89,3.5v56.69L32.21,173.89A6.53,6.53,0,0,1,30.63,169.81Zm418.74,39.34H73.73l-.18-.15V147.62l187.24-1.33H449.37Z"/><circle class="cls-1" cx="395.15" cy="179.73" r="21.05"/><circle class="cls-1" cx="435.42" cy="160.11" r="6.32"/><circle class="cls-1" cx="435.42" cy="192.26" r="6.32"/><circle class="cls-1" cx="87.14" cy="160.11" r="6.32"/><circle class="cls-1" cx="87.14" cy="192.26" r="6.32"/><circle class="cls-1" cx="328.87" cy="183.24" r="6.32" transform="translate(-25.1 55.04) rotate(-9.22)"/><circle class="cls-1" cx="303.38" cy="183.24" r="6.32"/><circle class="cls-1" cx="225.09" cy="176.84" r="5.23"/><circle class="cls-1" cx="225.09" cy="192.15" r="5.23"/><circle class="cls-1" cx="203.92" cy="192.15" r="5.23"/><circle class="cls-1" cx="182.75" cy="192.15" r="5.23"/><circle class="cls-1" cx="161.57" cy="192.15" r="5.23"/><path class="cls-1" d="M338.6,162.51H133.35a20.84,20.84,0,1,0,0,41.67H294.11l.35,0h23.4v0H338.6a20.84,20.84,0,1,0,0-41.67ZM117.41,183.24a15.85,15.85,0,0,1,15.94-15.73H284.11a13.1,13.1,0,0,0-2.89,8.21v15.47a12.76,12.76,0,0,0,2.82,8H133.35A16,16,0,0,1,117.41,183.24ZM338.6,199.18H294.1a8.12,8.12,0,0,1-7.88-8V175.72a8.33,8.33,0,0,1,8.24-8.21H338.6a15.84,15.84,0,1,1,0,31.67Z"/></svg>