<svg id="Artwork" xmlns="http://www.w3.org/2000/svg" viewBox="0 0 480 320"><defs><style>.cls-1{fill:none;}.cls-2{fill:#000;}</style></defs><path class="cls-1" d="M260.66,42.82c9.38,7,14.61,18.56,15.54,34.34,1.4,20.9,1.26,162.59-.17,178.34l0,.2a39.27,39.27,0,0,1-10.71,21.82l10-1.31v0c2.2-.59,6.69-10.74,6.69-21.1V69.24a79.83,79.83,0,0,0-8.13-26.72Z"/><path class="cls-1" d="M312,70.06v.06a5.16,5.16,0,0,0,.19-1.52,4.61,4.61,0,0,0-1.35-3.4,4.65,4.65,0,0,0-3.4-1.36h-8.13V66a2,2,0,0,0,2,2.05h6.22A6,6,0,0,1,312,70.06Z"/><path class="cls-1" d="M308,74.62h-6.61a2,2,0,0,0-2,2v2.11h8.13v.07A4.62,4.62,0,0,0,312.29,74a5.31,5.31,0,0,0,0-1.38A5.89,5.89,0,0,1,308,74.62Z"/><path class="cls-1" d="M268.07,254.67c1.41-16.11,1.53-156.25.15-177-1-16-6.53-26.26-17.07-31.3l-9.85-3.09L105.56,46.4a6,6,0,0,0-5.87,6V258.78a6,6,0,0,0,5.23,6l130.16,16.91v.05A31.78,31.78,0,0,0,268.07,254.67Z"/><path class="cls-1" d="M282.67,42.46a87.75,87.75,0,0,1,7.23,26.08l0,.46V255.07a53.57,53.57,0,0,1-4,19.5l27.18-4v0l.58-.15c4.28-1.6,6.51-11.51,6.51-20.92,0-4,.2-32.32.44-65.06.33-45.75.75-102.7.75-114.07-.05-11.69-2.85-20.85-8.56-27.93Zm30.68,31.89a5.76,5.76,0,0,1-5.82,6h-9.45V76.6a3.3,3.3,0,0,1,3.3-3.24h6a4.6,4.6,0,0,0,4-2,4.65,4.65,0,0,0-4-2h-6A3.29,3.29,0,0,1,298.15,66V62.72h9.45a5.74,5.74,0,0,1,5.81,6,6.48,6.48,0,0,1-.59,2.71A6.75,6.75,0,0,1,313.35,74.35Z"/><path class="cls-1" d="M368.07,52l-16.36-5.44h-.08a3.8,3.8,0,0,0-2.48,1.16c-4.8,4.17-8.42,16.63-8.42,22.67l-1,181.92c0,7.58,1.38,10.69,2,11.42a7.09,7.09,0,0,0,2.44-1.79c5.76-5.71,20.44-23.32,24.79-28.58a2,2,0,0,0,.46-1.27V53.9A2,2,0,0,0,368.07,52Z"/><path class="cls-1" d="M328.2,249.52c0,3.46-.31,11.3-2.75,18l8.23-2.05c-1.29-3.21-1.95-7.59-1.95-13.16l1-181.92c0-5.73,2.66-17.57,7.95-25l-17.61-1.94c4.15,7.48,6.27,16.51,6.32,27,0,11.42-.42,68.38-.75,114.15C328.4,217.24,328.2,245.51,328.2,249.52Z"/><path class="cls-2" d="M370.59,44.41l-17.12-5.69-.35,0-.13,0h-.05l-.34,0-46.84-4.15-36.21.16L105.37,38.4a14.09,14.09,0,0,0-13.68,14V258.78a14,14,0,0,0,12.2,13.88l130.16,16.91.27.09c.81,0,1.62.08,2.43.08,4.3,0,103.78-16.93,103.86-17,5.2-2,6-2,9.21-5.15,5.86-5.81,19.66-22.33,25.32-29.17a9.94,9.94,0,0,0,2.3-6.37V53.9A10,10,0,0,0,370.59,44.41ZM235.08,281.69v-.05L104.92,264.73a6,6,0,0,1-5.23-6V52.4a6,6,0,0,1,5.87-6L241.3,43.27l9.85,3.09c10.54,5,16.12,15.27,17.07,31.3,1.38,20.76,1.26,160.9-.15,177A31.78,31.78,0,0,1,235.08,281.69Zm46.85-26.62c0,10.36-4.49,20.51-6.69,21.1v0l-10,1.31A39.27,39.27,0,0,0,276,255.7l0-.2c1.43-15.75,1.57-157.44.17-178.34-.93-15.78-6.16-27.29-15.54-34.34l13.14-.3a79.83,79.83,0,0,1,8.13,26.72Zm38.71-70.61c-.24,32.74-.44,61-.44,65.06,0,9.41-2.23,19.32-6.51,20.92l-.58.15v0l-27.18,4a53.57,53.57,0,0,0,4-19.5V69l0-.46a87.75,87.75,0,0,0-7.23-26.08h30.16c5.71,7.08,8.51,16.24,8.56,27.93C321.39,81.76,321,138.71,320.64,184.46Zm2.43-141,17.61,1.94c-5.29,7.45-7.95,19.29-7.95,25l-1,181.92c0,5.57.66,10,1.95,13.16l-8.23,2.05c2.44-6.68,2.75-14.52,2.75-18,0-4,.2-32.28.44-65,.33-45.77.75-102.73.75-114.15C329.34,59.92,327.22,50.89,323.07,43.41Zm46.37,188.68a2,2,0,0,1-.46,1.27c-4.35,5.26-19,22.87-24.79,28.58a7.09,7.09,0,0,1-2.44,1.79c-.64-.73-2-3.84-2-11.42l1-181.92c0-6,3.62-18.5,8.42-22.67a3.8,3.8,0,0,1,2.48-1.16h.08L368.07,52a2,2,0,0,1,1.37,1.9Z"/><path class="cls-2" d="M311.78,64.45a5.76,5.76,0,0,0-4.18-1.73h-9.45V66a3.29,3.29,0,0,0,3.23,3.23h6a4.65,4.65,0,0,1,4,2,4.6,4.6,0,0,1-4,2h-6a3.3,3.3,0,0,0-3.3,3.24v3.7h9.45a5.76,5.76,0,0,0,5.82-6,6.75,6.75,0,0,0-.53-3,6.48,6.48,0,0,0,.59-2.71A5.72,5.72,0,0,0,311.78,64.45ZM307.6,68h-6.22a2,2,0,0,1-2-2.05V63.84h8.13a4.65,4.65,0,0,1,3.4,1.36,4.61,4.61,0,0,1,1.35,3.4,5.16,5.16,0,0,1-.19,1.52v-.06A6,6,0,0,0,307.6,68Zm4.69,6a4.62,4.62,0,0,1-4.82,4.83v-.07h-8.13V76.67a2,2,0,0,1,2-2H308a5.89,5.89,0,0,0,4.3-2A5.31,5.31,0,0,1,312.29,74Z"/></svg>