<svg id="Artwork" xmlns="http://www.w3.org/2000/svg" viewBox="0 0 480 320"><defs><style>.cls-1{fill:none;}.cls-2{fill:#000;}</style></defs><path class="cls-1" d="M265.17,42.56c9.39,7,14.61,18.55,15.55,34.33,1.39,20.9,1.25,162.6-.18,178.34l0,.2a39.43,39.43,0,0,1-10.71,21.83l9.95-1.32v0c2.2-.6,6.69-10.75,6.69-21.11V69a80,80,0,0,0-8.12-26.72Z"/><path class="cls-1" d="M316.54,69.79v.07a5.25,5.25,0,0,0,.2-1.52A4.63,4.63,0,0,0,312,63.58h-8.13v2.11a2.05,2.05,0,0,0,2,2h6.21A6,6,0,0,1,316.54,69.79Z"/><path class="cls-1" d="M312.51,74.35H305.9a2.05,2.05,0,0,0-2,2.05v2.12H312v.06a4.62,4.62,0,0,0,4.82-4.82,4.63,4.63,0,0,0,0-1.39A5.88,5.88,0,0,1,312.51,74.35Z"/><path class="cls-1" d="M272.58,254.4c1.41-16.11,1.54-156.25.15-177-1-16-6.53-26.26-17.06-31.3L245.82,43,110.07,46.13a6,6,0,0,0-5.86,6V258.51a6,6,0,0,0,5.22,5.95L239.6,281.37v.05A31.78,31.78,0,0,0,272.58,254.4Z"/><path class="cls-1" d="M287.18,42.2a87.69,87.69,0,0,1,7.23,26.07l0,.46V254.8a53.75,53.75,0,0,1-4,19.5l27.17-4v0l.59-.14c4.27-1.61,6.5-11.51,6.5-20.93,0-4,.21-32.31.44-65.05.34-45.76.75-102.71.75-114.08,0-11.69-2.85-20.85-8.55-27.92Zm30.68,31.89a5.74,5.74,0,0,1-5.81,6h-9.46V76.33a3.31,3.31,0,0,1,3.31-3.23h6a4.68,4.68,0,0,0,4-2,4.63,4.63,0,0,0-4-2h-6a3.31,3.31,0,0,1-3.24-3.24V62.45h9.45a5.76,5.76,0,0,1,5.82,6,6.65,6.65,0,0,1-.6,2.71A6.49,6.49,0,0,1,317.86,74.09Z"/><path class="cls-1" d="M372.58,51.73l-16.36-5.44h-.08a3.81,3.81,0,0,0-2.47,1.17c-4.81,4.16-8.42,16.62-8.42,22.66l-1,181.93c0,7.58,1.37,10.69,2,11.41a7.25,7.25,0,0,0,2.43-1.78c5.77-5.72,20.44-23.33,24.8-28.59a2,2,0,0,0,.45-1.27V53.63A2,2,0,0,0,372.58,51.73Z"/><path class="cls-1" d="M332.71,249.25c0,3.46-.31,11.3-2.75,18l8.23-2.06q-1.94-4.8-1.94-13.16l1-181.92c0-5.73,2.66-17.57,7.95-25l-17.62-1.94c4.16,7.48,6.28,16.51,6.32,27,0,11.41-.41,68.37-.75,114.14C332.92,217,332.71,245.24,332.71,249.25Z"/><path class="cls-2" d="M375.11,44.14,358,38.45l-.36-.05-.13,0h-.05l-.34,0L310.27,34.2l-36.2.15L109.89,38.14a14.07,14.07,0,0,0-13.68,14V258.51a14,14,0,0,0,12.19,13.88l130.17,16.92.26.09c.82.05,1.63.07,2.44.07,4.29,0,103.78-16.93,103.85-17,5.2-1.95,6-2,9.21-5.15,5.86-5.81,19.67-22.33,25.33-29.16a10,10,0,0,0,2.29-6.38V53.63A10,10,0,0,0,375.11,44.14ZM239.59,281.42v-.05L109.43,264.46a6,6,0,0,1-5.22-5.95V52.13a6,6,0,0,1,5.86-6L245.82,43l9.85,3.09c10.53,5,16.11,15.27,17.06,31.3,1.39,20.76,1.26,160.9-.15,177A31.78,31.78,0,0,1,239.59,281.42Zm46.85-26.62c0,10.36-4.49,20.51-6.69,21.11v0l-9.95,1.32a39.43,39.43,0,0,0,10.71-21.83l0-.2c1.43-15.74,1.57-157.44.18-178.34-.94-15.78-6.16-27.28-15.55-34.33l13.15-.31A80,80,0,0,1,286.44,69Zm38.71-70.6c-.23,32.74-.44,61-.44,65.05,0,9.42-2.23,19.32-6.5,20.93l-.59.14v0l-27.17,4a53.75,53.75,0,0,0,4-19.5V68.73l0-.46a87.69,87.69,0,0,0-7.23-26.07h30.17c5.7,7.07,8.5,16.23,8.55,27.92C325.9,81.49,325.49,138.44,325.15,184.2Zm2.43-141.06,17.62,1.94c-5.29,7.45-7.95,19.29-7.95,25l-1,181.92q0,8.35,1.94,13.16L330,267.24c2.44-6.69,2.75-14.53,2.75-18,0-4,.21-32.27.44-65,.34-45.77.75-102.73.75-114.14C333.86,59.65,331.74,50.62,327.58,43.14ZM374,231.82a2,2,0,0,1-.45,1.27c-4.36,5.26-19,22.87-24.8,28.59a7.25,7.25,0,0,1-2.43,1.78c-.65-.72-2-3.83-2-11.41l1-181.93c0-6,3.61-18.5,8.42-22.66a3.81,3.81,0,0,1,2.47-1.17h.08l16.36,5.44a2,2,0,0,1,1.37,1.9Z"/><path class="cls-2" d="M316.29,64.18a5.76,5.76,0,0,0-4.18-1.73h-9.45v3.31A3.31,3.31,0,0,0,305.9,69h6a4.63,4.63,0,0,1,4,2,4.68,4.68,0,0,1-4,2h-6a3.31,3.31,0,0,0-3.31,3.23V80h9.46a5.74,5.74,0,0,0,5.81-6,6.49,6.49,0,0,0-.53-3,6.65,6.65,0,0,0,.6-2.71A5.78,5.78,0,0,0,316.29,64.18Zm-4.18,3.56H305.9a2.05,2.05,0,0,1-2-2V63.58H312a4.63,4.63,0,0,1,4.76,4.76,5.25,5.25,0,0,1-.2,1.52v-.07A6,6,0,0,0,312.11,67.74Zm4.69,6A4.62,4.62,0,0,1,312,78.58v-.06h-8.13V76.4a2.05,2.05,0,0,1,2-2.05h6.61a5.88,5.88,0,0,0,4.29-2A4.63,4.63,0,0,1,316.8,73.76Z"/></svg>