<?xml version="1.0" encoding="UTF-8"?><svg id="Layer_1" xmlns="http://www.w3.org/2000/svg" viewBox="0 0 480 320"><defs><style>.cls-1{fill:#000;}</style></defs><g><path class="cls-1" d="M457.97,126.44c-3.77-9.11-5.49-11.32-15.14-13.98-8.03-2.21-115.63-33.59-119.25-34.64-1.78-.6-22.9-7.59-38.88-5.85-15.53,1.69-246.72,35.26-256.62,36.7-3.56,.58-8.75,3.97-8.47,10.93l2.38,58.1c.17,4.24,2.67,7.99,6.51,9.78l118.5,55.45c7.64,3.58,15.81,5.39,24.09,5.39,3.66,0,7.34-.36,11.01-1.07l263.3-51.4,.57-.16c1.16-.41,11.36-4.28,11.75-13.12,.27-6.01,2.08-33.87,2.26-36.53,.27-1.69,1.55-11.08-1.99-19.62Zm-5.57,13c-14.61,2.87-33.84,6.65-55.22,10.83,.35-.74,.51-1.58,.42-2.46l-1.7-16.75,50.45-8.82c1.69,1.15,2.45,2.97,4.23,7.26,1.4,3.37,1.79,7.03,1.82,9.94Zm-241.32,11.37c-.09-.37,.05-.66,.14-.79s.3-.38,.67-.44l145.93-24.71c1.12-.19,2.26-.21,3.37-.06l13.47,1.84-162.73,28.44-.86-4.28Zm182.54-2.6c.03,.33-.19,.63-.52,.7l-145.99,27.53c-1.03,.2-2.08-.01-2.95-.59l-21.94-14.43,169.73-29.67,1.67,16.47Zm-177.15,14.21l25.49,16.77c.58,.38,1.21,.67,1.86,.89-27.35,5.25-46.41,8.82-48.53,9-7.39,.55-15.04,1.11-28.7-5.32-6.84-3.22-11.33-7.17-14.04-10.17l63.92-11.17ZM29.4,116.56c6.27-.91,240.91-34.97,256.16-36.64,14.56-1.59,35.3,5.42,35.51,5.49l.17,.05c3.8,1.11,79.22,23.1,108.47,31.55l-42.08,7.35-25.92-3.53c-1.52-.2-3.06-.17-4.57,.08l-145.94,24.71c-1.36,.23-2.58,1.03-3.34,2.18-.76,1.16-1.01,2.59-.7,3.86l.82,4.1-63.15,11.04L28.31,117.1c.26-.24,.61-.43,1.09-.54Zm414.11,71.51l-262.97,51.34c-10.26,2-20.7,.72-30.17-3.71L31.88,180.24c-1.12-.53-1.85-1.62-1.9-2.86l-2.12-51.77,115.54,49.29c2.48,3.65,8.44,10.77,19.79,16.11,11.2,5.27,19.26,6.38,25.74,6.38,2.53,0,4.82-.17,6.96-.33,7.4-.55,217.1-41.72,255.95-49.35-.48,7.32-1.88,29.14-2.12,34.53-.12,2.65-4.08,5-6.2,5.84Z"/><path class="cls-1" d="M313.71,160.35c2.56,0,4.64-1.33,4.64-2.96s-2.08-2.96-4.64-2.96-4.64,1.33-4.64,2.96,2.08,2.96,4.64,2.96Z"/><path class="cls-1" d="M324.56,194.64c-3.05-.02-5.73,2.37-5.98,5.34s2.03,5.38,5.08,5.39,5.73-2.37,5.98-5.34-2.03-5.38-5.08-5.39Z"/></g><path class="cls-1" d="M329.08,184.64c.07-.69-.05-1.38-.34-2,.28-.61,.43-1.28,.44-1.96,.03-1.13-.47-2.22-1.35-2.93-.88-.71-2.05-.97-3.15-.69l-7.28,1.17v2.49c-.02,.64,.26,1.25,.76,1.66,.5,.4,1.16,.55,1.78,.4l4.89-.83c1.13-.29,2.33,.09,3.08,.98-.67,1.12-1.79,1.91-3.08,2.15l-4.89,.93c-1.44,.31-2.49,1.56-2.54,3.03v2.49l7.18-1.56c2.54-.54,4.4-2.73,4.5-5.33Zm-4.4-3.67l-4.89,.88c-.4,.09-.81,0-1.13-.27-.32-.26-.49-.65-.48-1.05v-1.61l6.26-1.03c.89-.25,1.84-.06,2.57,.51,.73,.57,1.13,1.45,1.1,2.38,.05,.36,.05,.72,0,1.08-.94-.81-2.21-1.14-3.42-.88Zm-6.35,7.87c.04-.93,.71-1.71,1.61-1.91l4.89-.93c1.32-.31,2.5-1.07,3.32-2.15,.05,.34,.05,.69,0,1.03-.13,2.01-1.59,3.69-3.57,4.11l-6.26,1.47v-1.61Z"/></svg>