<?xml version="1.0" encoding="UTF-8"?>
<svg id="Artwork" xmlns="http://www.w3.org/2000/svg" viewBox="0 0 480 320">
  <defs>
    <style>
      .cls-1 {
        fill: #000;
      }
    </style>
  </defs>
  <path class="cls-1" d="m429.36,106.28l-98.87-56.91c-7.94-4.57-17.27-6.12-26.28-4.38L61.86,93.39c-5.85,1.1-13.74,5.12-17.51,10.69-1.93,2.85-2.66,5.93-2.1,8.89l9.66,60.8c.36,2.26,1.07,4.43,2.12,6.47l41.57,80.85c4.35,8.03,11.99,12.96,22.11,14.27,1.78.23,3.63.34,5.54.34,6.72,0,14.08-1.42,21.26-4.14l271.91-86.14c6.17-1.94,10.76-7.09,11.98-13.44l9.19-47.46c1.47-7.23-1.83-14.56-8.22-18.25Zm-3.64,37.08s0-.08.06-.23c-.03.09-.82,2.12-5.15,3.75-3.08,1.16-65.2,20.76-133.3,41.97-82.78,25.79-135.49,41.87-144.62,44.12-19.62,4.83-36.59-.62-44.3-14.23-6.95-12.22-42.74-78.52-44.13-81.11l-1.95-12.26c10.85,18.96,37.41,62.53,39.37,65.1,9.25,12.75,22.82,19.5,38.44,19.5,4.67,0,9.52-.6,14.49-1.83,18.84-4.64,275.19-77.92,282.78-80.84.58-.22,1.12-.46,1.63-.7l-3.25,16.76h-.06ZM63.39,101.24l242.36-48.41c1.9-.37,3.81-.55,5.72-.55,5.24,0,10.43,1.37,15.04,4.01l98.86,56.91c1.53.88,2.73,2.16,3.51,3.66-.39.62-1.47,1.87-4.34,2.97-5.1,1.93-257.81,74.62-281.83,80.54-18.57,4.57-34.39-.61-44.58-14.66-2.47-3.37-38.4-62.54-42.71-71.32-.14-.28-.3-.59-.47-.91-2.37-4.48-2.96-6.73,1.35-9.44v-.02c2.34-1.37,4.96-2.38,7.1-2.78Zm357.15,69.23c-.66,3.46-3.16,6.26-6.53,7.32l-272.03,86.17-.22.08c-21.69,8.27-34.63,1.52-39.08-6.69l-41.53-80.78c-.66-1.28-1.1-2.65-1.33-4.06l-1.76-11.05c11.55,21.34,28.77,53.1,33.39,61.22,7.33,12.95,21.04,20.03,37.54,20.03,4.99,0,10.24-.65,15.63-1.98,20.82-5.13,268.97-82.66,278.83-86.37.08-.03.14-.06.22-.09l-3.14,16.2Z"/>
  <path class="cls-1" d="m147.37,163.23c2.94,3.9,7.48,6.09,12.2,6.09,1.27,0,2.55-.16,3.82-.48l179.74-45.59c2.9-.75,5.12-3.14,5.66-6.09.53-2.95-.72-5.96-3.21-7.69l-46.63-31.73c-3.35-2.27-7.55-3.08-11.49-2.24l-163.74,34.65-.07.02c-3,.7-5.45,2.83-6.54,5.71-1.09,2.88-.68,6.11,1.11,8.62l29.17,38.74Zm-23.39-44.75c.22-.57.7-1,1.3-1.15l163.71-34.64c2-.43,4.13-.02,5.82,1.13l46.6,31.71c.11.07.16.2.14.33-.02.13-.12.23-.23.26l-179.74,45.59c-3.12.8-6.38-.34-8.32-2.91l-29.07-38.61c-.34-.5-.42-1.14-.2-1.71Z"/>
  <path class="cls-1" d="m299.68,170.11c-.88-.71-2.05-.97-3.15-.69l-7.28,1.17v2.49c-.02.64.26,1.25.76,1.66.5.4,1.16.55,1.78.4l4.89-.83c1.13-.29,2.33.09,3.08.98-.67,1.12-1.79,1.91-3.08,2.15l-4.89.93c-1.44.31-2.49,1.56-2.54,3.03v2.49l7.18-1.56c2.54-.54,4.4-2.73,4.5-5.33.07-.69-.05-1.38-.34-2,.28-.61.43-1.28.44-1.96.03-1.13-.47-2.22-1.35-2.93Zm-3.15,3.22l-4.89.88c-.4.09-.81,0-1.13-.27s-.49-.65-.48-1.05v-1.61l6.26-1.03c.89-.25,1.84-.06,2.57.51s1.13,1.45,1.1,2.38c.05.36.05.72,0,1.08-.94-.81-2.21-1.14-3.42-.88Zm3.47,3.91c-.13,2.01-1.59,3.69-3.57,4.11l-6.26,1.47v-1.61c.04-.93.71-1.71,1.61-1.91l4.89-.93c1.32-.31,2.5-1.07,3.32-2.15.05.34.05.69,0,1.03Z"/>
  <path class="cls-1" d="m294.39,202.61c-2.37.06-4.33,1.85-4.63,4.2-.16,1.06.16,2.13.86,2.94.7.81,1.73,1.27,2.8,1.25,2.35-.11,4.29-1.87,4.63-4.2.18-1.06-.13-2.15-.84-2.96-.71-.81-1.74-1.27-2.82-1.23Z"/>
</svg>