<svg id="Artwork" xmlns="http://www.w3.org/2000/svg" viewBox="0 0 480 320"><defs><style>.cls-1{fill:#000;}</style></defs><path class="cls-1" d="M424.23,88.67a3.66,3.66,0,0,0-.1-.81c-.32-1.38-.52-2.72-.72-4-.75-4.88-1.69-11-9.72-12.8l-.15,0L166.61,24s-1-.21-4.05-.63a8.69,8.69,0,0,0-5.08,1.17l-57,29.27a86.51,86.51,0,0,0-46.84,76.4v59a86.06,86.06,0,0,0,45.17,75.83l54.86,29.43c.6.32,4.09,2.18,5.49,2.11a19.13,19.13,0,0,0,4.84-1l248.9-77.55c9.48-2.91,10.78-11.33,11.83-18.19l1.6-12.23a4.41,4.41,0,0,0,0-.52C426.36,186.58,424.73,111.63,424.23,88.67ZM61.64,189.24v-59A78.55,78.55,0,0,1,95,66.42l0,0a14.93,14.93,0,0,0,1.76-1,7,7,0,0,1,.9-.55l.11-.06c6-3.23,11.09-3.87,15.17-1.89,8.76,4.25,11.39,18.91,11.42,19.06a1.29,1.29,0,0,0,0,.19c1,4.7,2,9.14,2,14l1.06,128.49A62.53,62.53,0,0,1,123,243.6c-2.75,7-7.19,11.67-12.52,13-9,2.26-20.05-6.7-20.05-6.7A78.1,78.1,0,0,1,61.64,189.24ZM113.73,264c7.31-2.35,13.22-8.5,16.72-17.4a69.54,69.54,0,0,0,5.08-21.43c0-.11,0-.23,0-.34L134.48,96.2a70,70,0,0,0-2.21-15.67c-.3-1.7-3.67-18.89-15.76-24.78-.4-.19-.8-.37-1.21-.54l35.93-18.45C147.2,46.39,143,62.2,143,86.1c0,13,.57,51.5,1.13,88.7.51,34.46,1,67,1,77.18a92.68,92.68,0,0,0,5.22,31.63Zm39.36-12c0-10.24-.49-42.81-1-77.29C151.53,137.51,151,99.07,151,86.1c0-21.51,3.63-35.7,6.68-43.81A51.72,51.72,0,0,1,163,31.48L329,63.07V235.8L161,288.15C158.4,283.17,153.09,270.76,153.09,252Zm263.72-53.25c-1.12,7.27-2,10.36-6.27,11.68L337,233.31V64.59L412,78.85c2.43.57,2.77,1.19,3.54,6.21.19,1.26.41,2.67.74,4.18.15,6.65,2,92.5,2.12,97.65Z"/><path id="Shape" class="cls-1" d="M113.53,162.13a41.62,41.62,0,0,0,1.59-11.7c0-14.35-6.38-25.52-15.42-25.52H74.19v13.82c0,7.45,3.72,13.3,8.5,13.83l16,.53a11.93,11.93,0,0,1,10.63,9,11.32,11.32,0,0,1-10.63,8.5l-16-.53c-4.78,0-8.5,5.32-8.5,12.76v13.82l24.45,2.13h.53c9,.53,15.42-9.57,15.42-24.46A30.15,30.15,0,0,0,113.53,162.13ZM99.17,193l-21.26-1.59v-8.51c0-4.78,2.66-8.51,5.31-8l16,1.06h.53c4.79-.53,9.57-3.19,11.7-8a24,24,0,0,1,.53,5.85c0,11.17-5.31,19.67-12.76,19.14Zm12.23-36.68c-2.13-4.79-6.38-8.51-11.7-9l-16.48-.53c-3.19,0-5.31-4.25-5.31-8.51v-8.5H99.7c7.45,0,12.76,8.5,12.76,20.73C111.93,152,111.93,154.15,111.4,156.28Z"/></svg>