<svg id="Artwork" xmlns="http://www.w3.org/2000/svg" viewBox="0 0 480 320"><defs><style>.cls-1{fill:#000;}</style></defs><path class="cls-1" d="M396,48.88,351,33.12a52.06,52.06,0,0,0-15.82-2.92c-9.45-.26-29.93-.43-61,1.34-46.62,2.67-132.87,21-156.8,28C97.61,65.3,71.46,80.92,70.36,81.59l-.16.1C52.1,93.75,44.33,109,47.11,127h0l17.12,110.7A57.21,57.21,0,0,0,68,251.12l9.13,21.82c0,.05,0,.11.07.17,2.76,5.82,8,10.92,15.05,14.75a49.18,49.18,0,0,0,22.63,5.95,33.17,33.17,0,0,0,3.49-.17l.17,0c76.46-11,123.62-24.52,165.37-37.41,42.32-13.06,81.61-31.93,83.94-33.06,6.23-2.62,26.25-12.82,30.14-37l0-.23,11.65-115.5A21.06,21.06,0,0,0,396,48.88ZM268.72,61.82c2,2.2,1.24,3.62.82,4.35C264.72,74.58,233.11,82.64,203,76Zm-77.39,10.6-25-16.22c3.72-.77,7.56-1.56,11.48-2.33a4.8,4.8,0,0,0,1.38,2.68,3.14,3.14,0,0,0,.4.34l11.78,8.24a2.36,2.36,0,0,0,.38.22,21,21,0,0,0,9,2.09,3,3,0,0,0,.6-.06l37.09-7.66a3,3,0,0,0,1.51-.81l.59-.59a3,3,0,0,0,.88-2.12A5.09,5.09,0,0,0,240,52.31a2.92,2.92,0,0,0-.63-.48L227.41,45c3.19-.49,6.35-1,9.46-1.41l24.38,13.68Zm29.34-24.34,11.81,6.75-32,6.6a15.28,15.28,0,0,1-5.84-1.35l-8.34-5.84ZM75.38,248a49.54,49.54,0,0,1-3.24-11.51L55,125.83C52.73,111,59.12,98.71,74.55,88.4c1.6-1,26.81-15.87,45-21.2C127.14,65,141.08,61.6,158,58l31.09,20.18a3.23,3.23,0,0,0,.62.3h0a109.94,109.94,0,0,0,36.75,6.07,114.84,114.84,0,0,0,15.55-1c16.4-2.22,28.94-7.71,32.73-14.32,2.52-4.4,1.35-9.1-3.21-12.9h0a2.69,2.69,0,0,0-.44-.31L246.74,42.27c10.14-1.31,19.6-2.27,27.81-2.74,30.83-1.76,51.06-1.59,60.38-1.33a44.39,44.39,0,0,1,13.4,2.47l33.75,11.81c-18.39,5.84-55.61,15.84-78,21.84-12,3.24-21.55,5.79-25.12,6.86-9,2.7-92.2,14.22-136.92,20.41-19.63,2.72-33.81,4.68-37.22,5.25C79.05,111.48,63.79,123.67,63,140.3,62.48,151,74.92,225.81,81,261.38ZM401.72,69.73,390.08,185c-3.3,20.1-20.27,28.63-25.4,30.77l-.21.1c-.4.19-40.09,19.44-82.91,32.66-43.15,13.32-88.17,26.18-164.06,37.12-6.5.63-14.71-1.23-21.44-4.87A37.27,37.27,0,0,1,92,278.25c-6.07-34.94-21.51-126.82-21-137.57.6-12.58,13.46-22.05,35.23-25.95,3.26-.55,18.13-2.61,37-5.21,65-9,129.29-18,138.12-20.67,3.46-1,12.92-3.58,24.9-6.8,39.94-10.73,76.6-20.72,87.85-25.33A13,13,0,0,1,401.72,69.73Z"/><path class="cls-1" d="M395.76,61.49c-2.38-1.49-5.24-.45-9.67,1.45-22.91,8.89-104.75,28.37-105.58,28.57a3,3,0,0,0-2.3,2.78l-.89,19.1-18.63,4.46-.84-19A3,3,0,0,0,254.36,96c-1.27.21-127.27,21.1-145.73,23-22.27,2.31-33.52,11.61-33.44,27.66,0,4.9,7.19,48.56,15.16,96.74,2.39,14.44,4.28,25.84,4.46,27.33A10.3,10.3,0,0,0,99,277.57c3.69,2.86,9.18,4.34,15.81,4.34a51.65,51.65,0,0,0,6.63-.45c29.54-3.85,112.77-20.79,160.21-37,40.14-11.11,88.67-34.23,96.49-41.35,7.68-6.91,9.38-18.84,10-27.24,1.33-11.37,9.53-92.37,10.36-102.95a3.23,3.23,0,0,0,0-.44c-.09-1.24-.14-2.33-.18-3.29C398.17,65.57,398.05,62.93,395.76,61.49ZM382.18,175.27s0,.09,0,.13c-.82,11.56-3.45,19.17-8,23.29-6.42,5.84-53.3,28.75-94.14,40l-.17.06c-47.08,16.06-129.78,32.9-159.13,36.72-11.23,1.46-16.32-1.39-18-2.68a4.6,4.6,0,0,1-1.95-2.84c-.2-1.6-2-12.49-4.49-27.56-5.26-31.79-15-91-15.08-95.8,0-4.63-.1-18.74,28.06-21.65,17.16-1.78,122.15-19.1,142.75-22.51l.85,19.27a3,3,0,0,0,1.2,2.26,3,3,0,0,0,2.5.53l24.35-5.83a3,3,0,0,0,2.3-2.78l.9-19.1c13.55-3.24,82.84-20,104.21-28.31l.09,0A39.8,39.8,0,0,1,392.19,67c.07.7.11,1.62.15,2.48s.09,2,.17,3.22C391.59,84.13,383.48,164.26,382.18,175.27Z"/><path class="cls-1" d="M275,105.08c.65,0,.65-1.3,0-1.94,0-.65.65-2,.65-2.59,0-2.59-1.94-4.53-3.88-4.53h-1.3l-9.71,2.59v3.23a2.79,2.79,0,0,0,2.59,2.59H264l5.82-1.29c1.3-.65,2.59,0,3.89.64a4.37,4.37,0,0,1-3.89,2.59l-5.82,1.3c-1.94.64-3.24,1.94-3.24,3.88v3.23l9.06-2.58C273,111.55,275,108.31,275,105.08Zm-5.18-3.24-5.82,1.3c-.65,0-1.94,0-1.94-.65V99.9L269.79,98c1.95-.65,3.89,0,4.53,1.94v2.59A5.29,5.29,0,0,0,269.79,101.84Zm-7.11,9.71c0-1.3.64-1.94,1.94-2.59l5.82-1.29c1.94-.65,3.24-1.3,3.88-3.24v1.29a5.87,5.87,0,0,1-3.88,5.83l-7.76,1.94Z"/></svg>