<svg id="Artwork" xmlns="http://www.w3.org/2000/svg" viewBox="0 0 480 320"><defs><style>.cls-1{fill:#000;}.cls-2{fill:none;stroke:#000;stroke-miterlimit:10;stroke-width:2px;}</style></defs><path class="cls-1" d="M441.11,103.45a14,14,0,0,0-5-7.48,2.11,2.11,0,0,0-.31-.21L325,28.25a47.38,47.38,0,0,0-32.22-5.69L52.36,67.77l-.38.09c-3.12.91-7.62,2.56-10.7,6.38C37.43,79,38.59,85.36,38.8,86.35l10.43,88.76a3.68,3.68,0,0,0,.45,1.21l62.39,106.09a30.47,30.47,0,0,0,27.09,15.74,33.54,33.54,0,0,0,10.59-1.73L415,212a18,18,0,0,0,12.2-14.43l13.52-87A11.08,11.08,0,0,0,441.11,103.45Zm-21.76,92.84a10.15,10.15,0,0,1-6.85,8.12L147.21,288.83c-11.1,3.7-22.92-.6-28.14-10.3L57,172.94l-2.59-27.5,53.53,90.5a3.46,3.46,0,0,0,.22.31A38,38,0,0,0,138,250.9a36.71,36.71,0,0,0,14.47-3l271.16-79.06Zm5.62-36.2L149.9,240.34l-.43.16c-12.14,5.31-27.48.59-35.94-10L54.25,133.19l-4.52-32.46,47.26,73c11.33,16.94,31.21,24.54,50.93,18.9l283.6-74.74Zm8.47-52.84-.26,0-.13.83a5.8,5.8,0,0,0-.36.59,2,2,0,0,1-1.61,1.25,4.07,4.07,0,0,0-1,.14L145.78,184.94c-16.44,4.7-32.78-1.6-42.16-15.68l-.07-.09-57-86.86a5.45,5.45,0,0,1,1-3c1.26-1.56,3.28-2.7,6.53-3.66L294.15,30.43a39.34,39.34,0,0,1,26.69,4.66l110.57,67.38a6,6,0,0,1,2,3A3.57,3.57,0,0,1,433.44,107.25Z"/><path class="cls-1" d="M313,164.47a3.84,3.84,0,0,0-.34-2,4.87,4.87,0,0,0,.44-1.95,3.62,3.62,0,0,0-4.5-3.62l-7.28,1.17v2.49a2,2,0,0,0,.76,1.66,2.08,2.08,0,0,0,1.78.4l4.89-.83a3,3,0,0,1,3.08,1,4.58,4.58,0,0,1-3.08,2.15l-4.89.93a3.23,3.23,0,0,0-2.54,3v2.5l7.18-1.57A5.66,5.66,0,0,0,313,164.47Zm-4.4-3.66-4.89.88a1.33,1.33,0,0,1-1.13-.27,1.31,1.31,0,0,1-.48-1v-1.61l6.26-1a2.88,2.88,0,0,1,3.66,2.88,3.91,3.91,0,0,1,0,1.08A3.94,3.94,0,0,0,308.6,160.81Zm-6.35,7.87a2,2,0,0,1,1.61-1.91l4.89-.93a5.89,5.89,0,0,0,3.32-2.15,3.56,3.56,0,0,1,0,1,4.49,4.49,0,0,1-3.57,4.1l-6.25,1.47Z"/><path class="cls-1" d="M308,224.46a8.08,8.08,0,0,0,6.64-6c.62-3-1.35-5.09-4.4-4.76a8.11,8.11,0,0,0-6.64,6C302.94,222.66,304.91,224.8,308,224.46Z"/><path class="cls-1" d="M149.25,141.72a15.28,15.28,0,0,0,12.2,6.09,15.62,15.62,0,0,0,3.82-.48L345,101.74A7.7,7.7,0,0,0,347.45,88L300.82,56.22A15,15,0,0,0,289.33,54L125.59,88.63l-.07,0A9.22,9.22,0,0,0,120.09,103ZM125.86,97a1.88,1.88,0,0,1,1.3-1.15l163.7-34.64a7.57,7.57,0,0,1,5.82,1.13L343.28,94a.33.33,0,0,1,.14.33.31.31,0,0,1-.23.25L163.45,140.19a7.93,7.93,0,0,1-8.32-2.9L126.06,98.68A1.89,1.89,0,0,1,125.86,97Z"/><ellipse class="cls-1" cx="173.17" cy="98.14" rx="3.86" ry="1.98"/><ellipse class="cls-1" cx="199.12" cy="93.57" rx="3.86" ry="1.98"/><ellipse class="cls-1" cx="222.35" cy="88.32" rx="3.86" ry="1.98"/><ellipse class="cls-1" cx="245.87" cy="83.32" rx="3.86" ry="1.98"/><ellipse class="cls-1" cx="268.41" cy="78.36" rx="3.86" ry="1.98"/><ellipse class="cls-1" cx="183.66" cy="110.51" rx="3.86" ry="1.98"/><ellipse class="cls-1" cx="281.45" cy="87.29" rx="3.86" ry="1.98"/><ellipse class="cls-2" cx="238.99" cy="108.95" rx="4.83" ry="2.48"/></svg>