<svg id="Artwork" xmlns="http://www.w3.org/2000/svg" viewBox="0 0 480 320"><defs><style>.cls-1{fill:#000;}</style></defs><path class="cls-1" d="M265.12,91.55a5.59,5.59,0,0,0-.62-3.1c1.86-3.73,0-8.71-3.73-10a4.7,4.7,0,0,0-2.49-.62l-11.18-.62v4.35c0,2.49,1.86,4.35,3.73,4.35h7.45a7.67,7.67,0,0,1,5,2.49,5.67,5.67,0,0,1-5,2.48h-7.45c-2.49,0-3.73,2.49-3.73,4.35v4.35L258.28,99C262,99,265.12,95.28,265.12,91.55Zm-6.84-7.45h-7.45A2.85,2.85,0,0,1,248.34,81V78.5l9.94.62c3.11,0,5.6,3.11,5.6,6.22V87.2A7.42,7.42,0,0,0,258.28,84.1Zm-9.94,11.8c0-1.24,1.24-2.48,2.49-3.1h7.45a7.71,7.71,0,0,0,5-2.49v1.86c0,3.11-2.49,5.6-5,5.6l-9.94.62Z"/><path class="cls-1" d="M439.21,97.21a36.67,36.67,0,0,0-34-35.49l-291-16.83-.27,0a30.53,30.53,0,0,0-15.42,2.3h0L64.14,62.48A38.38,38.38,0,0,0,40.79,97.76V222a38.28,38.28,0,0,0,21.85,34.76l33.12,16a26,26,0,0,0,11.34,2.6c.87,0,1.74-.05,2.61-.13l8.48-.86,287.17-31.47c18.61-2,32.84-17.58,33.85-37.16V97.21Zm-349,135.44v-146c0-16.23,9.39-28.94,21.37-28.94h1.23l292.35,16a24.13,24.13,0,0,1,22.51,23.67v108.5a25.73,25.73,0,0,1-22.23,24.57L112.69,260.71h-2C99.19,260.71,90.19,248.38,90.19,232.65ZM48.79,222V97.76A30.8,30.8,0,0,1,67.34,69.81l17.09-7.62a52.26,52.26,0,0,0-6.25,25.33v146a51,51,0,0,0,6,24.72l-18.09-8.73A30.38,30.38,0,0,1,48.79,222Z"/></svg>