<svg id="Artwork" xmlns="http://www.w3.org/2000/svg" viewBox="0 0 480 320"><defs><style>.cls-1{fill:#000;}</style></defs><path class="cls-1" d="M321.59,51.22l-55.25-25.9-.09,0a25.43,25.43,0,0,0-13.75-1.94L159.08,37.76l-.24.05c-6.52,1.55-11.79,6.69-15.26,14.86a62.72,62.72,0,0,0-4.35,23.81v.13l13.84,157.45a14.75,14.75,0,0,0,2.77,7.8l26.48,44.91.07.11A30.79,30.79,0,0,0,208.2,301.1a30.22,30.22,0,0,0,12.44-2.69l87-31.1.13-.05a37.64,37.64,0,0,0,23.19-33.15l9.81-152.87C341.37,67.78,333.69,55.74,321.59,51.22ZM160.88,238.6a9.13,9.13,0,0,1-1.81-4.68v-.13L145.23,76.35c0-14,4.69-30.14,14.89-32.68l93.26-14.39a19.12,19.12,0,0,1,10.46,1.5l43.9,20.57q-1.25.18-2.49.42l-24-10.87a15.6,15.6,0,0,0-9.87-1.4L192.2,53.34h0c-2.19.39-4.89,3-4.92,3a7.55,7.55,0,0,0,0,10.59l.21.2L197.65,74c-17,4.66-28.15,24.11-28,40.05.11,11.72,8.05,120.44,10.79,157.75l-19.47-33Zm44.9-166.43-14.39-9.66a1.53,1.53,0,0,1-.28-.89,1.5,1.5,0,0,1,.41-1,14.72,14.72,0,0,1,1.88-1.35L272.46,45.4a9.63,9.63,0,0,1,6.15.89L295.52,54c-10,2.11-32.9,6.72-52.09,10.59C228.41,67.57,214,70.48,205.78,72.17Zm129,8.73-9.81,152.89a31.63,31.63,0,0,1-19.41,27.89l-87,31.12-.23.1a24.56,24.56,0,0,1-30.81-9.23l-.15-.26c-.46-6.22-11.54-156-11.67-169.47C175.48,96.51,188.38,82,200.58,79.4c3.29-.76,23.09-4.75,44-9C278,63.69,300,59.23,302.19,58.61A50.67,50.67,0,0,1,319.74,57C329.23,60.62,335.25,70.21,334.74,80.9Z"/><path class="cls-1" d="M324.15,64a14.73,14.73,0,0,0-12.28-3.32C303.21,62.12,211.29,79,201.08,83.35,186.65,88.87,179,100.86,179,118c0,9.87,3.47,55.36,6.53,95.49,2.28,29.9,4.43,58.15,4.43,62.57a13.87,13.87,0,0,0,5.56,11.53,20.31,20.31,0,0,0,12.32,3.63,33.08,33.08,0,0,0,9-1.32c12.66-3.62,80.14-28.59,87.77-31.86,10.33-4.51,16.88-14.1,17.52-25.68.16-3.63,1.07-16.47,2.22-32.71,2.58-36.46,6.49-91.57,7.28-117.31v-.09C331.66,74.92,328.78,67.93,324.15,64Zm-5.76,135.23c-1.2,16.92-2.06,29.15-2.22,32.83a23.23,23.23,0,0,1-13.91,20.48c-7.56,3.24-74.5,28-87,31.59-6.41,1.83-12.57,1.32-16.08-1.33a8,8,0,0,1-3.17-6.74c0-4.65-2.06-31.7-4.45-63-3.05-40-6.51-85.39-6.51-95,0-14.67,6.15-24.45,18.26-29.06l.13-.06c8.68-3.8,98.09-20.39,109.44-22.28a10.23,10.23,0,0,1,1.71-.15,8.65,8.65,0,0,1,5.71,2.13c3.26,2.77,5.38,8.11,5.39,13.62C324.87,107.84,321,162.83,318.39,199.23Z"/><path class="cls-1" d="M220.09,40.73l4.61-.58a9.8,9.8,0,0,1,4,.58c0,.57-.58.57-1.73,1.15l-4.62.58c-1.15,0-1.73.57-.57,1.15-.58-.58-.58-.58.57-.58l4.62-.57c1.15,0,2.3-.58,2.3-1.16l.58.58c1.73,0,1.15,1.15-1.15,1.73l-5.77.58-1.15-.58L223,44.76l6.92-.57c2.31,0,2.88-1.16,1.15-2.31-1.15-.58-1.15-1.15-1.73-1.15a.56.56,0,0,0-.57-.58,15.43,15.43,0,0,0-6.92-1.73,13.2,13.2,0,0,1,6.34,1.73,9.75,9.75,0,0,0-4-.58l-4.61.58a3.46,3.46,0,0,1-2.31-.58L216.05,39l5.77-.58L214.9,39l1.15,1.15A9.75,9.75,0,0,0,220.09,40.73Z"/></svg>