<svg id="Artwork" xmlns="http://www.w3.org/2000/svg" viewBox="0 0 480 320"><defs><style>.cls-1{fill:#000;}</style></defs><path class="cls-1" d="M424.34,107.6a14,14,0,0,0-5-7.48,2.2,2.2,0,0,0-.32-.21L308.2,32.4A47.31,47.31,0,0,0,276,26.71L69.18,65.64l-.38.09c-3.12.91-7.62,2.56-10.7,6.38-3.85,4.76-2.69,11.12-2.49,12.11L72.05,169a3.68,3.68,0,0,0,.45,1.21l61.39,108.09A30.46,30.46,0,0,0,161,294a33.49,33.49,0,0,0,10.59-1.73l226.7-76.15a18,18,0,0,0,12.21-14.43l13.52-87A11.15,11.15,0,0,0,424.34,107.6Zm-21.77,92.84a10.14,10.14,0,0,1-6.84,8.12L169,284.7c-11.1,3.7-22.92-.6-28.14-10.3L79.78,166.81l-3.59-18.5,53.53,83.5.22.32a38,38,0,0,0,29.86,14.64,36.54,36.54,0,0,0,14.47-3L406.83,173Zm5.63-36.2-34.89,10.62v-.12a4,4,0,0,0-5.12-3.84L208.11,217.62a4,4,0,0,0-2.88,3.84V226l-33.51,10.2-.44.16a29.57,29.57,0,0,1-34.93-9L72.07,127.06,66.55,98.6l50.26,71a46.76,46.76,0,0,0,51.93,18.9l246-66.47Zm8.46-52.84-.25,0-.13.83a3.58,3.58,0,0,0-.36.59A2,2,0,0,1,414.3,114a4.07,4.07,0,0,0-1,.14L166.6,180.81a38.82,38.82,0,0,1-43.17-15.68l-.06-.09L63.31,80.18a5.61,5.61,0,0,1,1-3.05c1.27-1.56,3.29-2.7,6.53-3.66L277.38,34.58a39.3,39.3,0,0,1,26.68,4.66l110.57,67.38a5.88,5.88,0,0,1,2,3A3.57,3.57,0,0,1,416.66,111.4Z"/><path class="cls-1" d="M333.67,82l-.18-.13L293,54.31c-2-1.71-4.73-1.71-5.93-1.71a4.14,4.14,0,0,0-.87.09c-5.83,1.3-25.66,5.4-48.62,10.14C198.13,71,149,81.15,129.89,85.51a7.07,7.07,0,0,0-4,2,9.2,9.2,0,0,0-1.37,12,3.39,3.39,0,0,0,.33.42l30.87,35.16c2.05,3.41,5.77,3.41,7.61,3.41a4.33,4.33,0,0,0,.95-.11L330.42,97.7A9.54,9.54,0,0,0,337.13,93C338.45,90.74,339.6,86.51,333.67,82Zm-5.12,8L162.89,130.47l-.57,0a3,3,0,0,0-.27-.35l-31-35.24c-.19-.33-.31-.79.3-1.49,18.86-4.31,68.2-14.51,107.84-22.7C262.6,65.84,281.17,62,287.53,60.6a5.51,5.51,0,0,1,.61,0l.18.13,40.57,27.62a8,8,0,0,1,1.08,1C329.84,89.51,329.55,89.68,328.55,89.92Z"/><polygon class="cls-1" points="188.66 87.12 213.51 111.97 270.43 98.34 242.37 75.09 188.66 87.12"/><path class="cls-1" d="M290.56,236.86a8.65,8.65,0,1,0-6.7-10.24A8.65,8.65,0,0,0,290.56,236.86Z"/><path class="cls-1" d="M296.17,168.62a3.84,3.84,0,0,0-.34-2,4.88,4.88,0,0,0,.44-2,3.62,3.62,0,0,0-4.49-3.61l-7.29,1.17v2.49a2.06,2.06,0,0,0,2.54,2.06l4.89-.83a3,3,0,0,1,3.08,1,4.54,4.54,0,0,1-3.08,2.15L287,170a3.24,3.24,0,0,0-2.54,3v2.5l7.19-1.57A5.66,5.66,0,0,0,296.17,168.62ZM291.78,165l-4.89.88a1.31,1.31,0,0,1-1.13-.27,1.27,1.27,0,0,1-.48-1v-1.61l6.25-1a2.89,2.89,0,0,1,3.67,2.88,3.91,3.91,0,0,1,0,1.08A3.94,3.94,0,0,0,291.78,165Zm-6.36,7.87a2.07,2.07,0,0,1,1.61-1.91l4.89-.93a5.91,5.91,0,0,0,3.33-2.15,3.56,3.56,0,0,1,0,1,4.51,4.51,0,0,1-3.57,4.1l-6.26,1.47Z"/></svg>