<svg id="Artwork" xmlns="http://www.w3.org/2000/svg" viewBox="0 0 480 320"><defs><style>.cls-1{fill:#000;}</style></defs><path class="cls-1" d="M429.36,107.12,330.49,50.21a38.16,38.16,0,0,0-26.28-4.38L61.86,94.23c-5.84,1.1-13.74,5.13-17.51,10.69a11.8,11.8,0,0,0-2.09,8.89l9.66,60.81A21.41,21.41,0,0,0,54,181.08L95.6,261.94c4.35,8,12,13,22.11,14.27a43.22,43.22,0,0,0,5.53.34,60.9,60.9,0,0,0,21.26-4.14l271.91-86.14a17.54,17.54,0,0,0,12-13.44l9.19-47.45A17.13,17.13,0,0,0,429.36,107.12Zm-3.64,37.08a1.16,1.16,0,0,1,.06-.22c0,.08-.81,2.12-5.14,3.75-3.09,1.16-65.21,20.75-133.31,42-82.78,25.79-135.49,41.87-144.62,44.12-19.62,4.83-36.59-.62-44.3-14.23-7-12.23-42.74-78.52-44.13-81.11l-2-12.26c10.85,18.95,37.41,62.52,39.37,65.09a46.12,46.12,0,0,0,38.44,19.5A60.91,60.91,0,0,0,144.63,209c18.83-4.64,275.18-77.93,282.77-80.84.58-.22,1.12-.46,1.63-.7l-3.25,16.77ZM63.39,102.09,305.75,53.68a30.08,30.08,0,0,1,20.75,3.47l98.87,56.9a9.21,9.21,0,0,1,3.51,3.66c-.39.62-1.47,1.87-4.34,3-5.11,1.93-257.82,74.62-281.83,80.54-18.56,4.57-34.38-.61-44.58-14.66-2.47-3.37-38.4-62.54-42.72-71.33-.14-.28-.3-.58-.47-.9-2.38-4.48-3-6.73,1.35-9.44v0A23.48,23.48,0,0,1,63.39,102.09Zm357.15,69.23a9.57,9.57,0,0,1-6.54,7.32L142,264.82l-.22.07c-21.69,8.27-34.63,1.53-39.08-6.69L61.15,177.42a13.45,13.45,0,0,1-1.33-4.06l-1.76-11.05c11.55,21.35,28.77,53.1,33.39,61.22,7.33,12.95,21,20,37.54,20a65.52,65.52,0,0,0,15.64-2c20.81-5.12,269-82.66,278.82-86.36l.22-.09Z"/><path class="cls-1" d="M145.05,162.54a16.58,16.58,0,0,0,13.26,6.62,16.91,16.91,0,0,0,4.15-.52l195.33-49.55a8.36,8.36,0,0,0,2.65-15L309.76,69.62a16.31,16.31,0,0,0-12.48-2.43L119.33,104.85h-.07a10,10,0,0,0-5.91,15.58Zm-25.42-48.63a2,2,0,0,1,1.41-1.25L299,75a8.26,8.26,0,0,1,6.32,1.22l50.64,34.46a.36.36,0,0,1,.15.36.35.35,0,0,1-.25.28L160.48,160.88a8.62,8.62,0,0,1-9-3.15l-31.59-42A2,2,0,0,1,119.63,113.91Z"/><path class="cls-1" d="M210.67,132.9a17.56,17.56,0,0,0,17,4.71l27.52-7.28a17.54,17.54,0,0,0,6.36-30.73L258.27,97a17.52,17.52,0,0,0-14.5-3.37l-28,6A17.52,17.52,0,0,0,206.86,129Z"/><path class="cls-1" d="M299.68,171a3.61,3.61,0,0,0-3.15-.69l-7.28,1.17v2.49a2.05,2.05,0,0,0,2.54,2.06l4.89-.83a3,3,0,0,1,3.08,1,4.54,4.54,0,0,1-3.08,2.15l-4.89.93a3.23,3.23,0,0,0-2.54,3v2.5l7.19-1.57a5.66,5.66,0,0,0,4.49-5.33,3.84,3.84,0,0,0-.34-2,4.87,4.87,0,0,0,.44-2A3.58,3.58,0,0,0,299.68,171Zm-3.15,3.22-4.88.88a1.31,1.31,0,0,1-1.13-.27,1.29,1.29,0,0,1-.49-1.05v-1.61l6.26-1A2.89,2.89,0,0,1,300,174a3.91,3.91,0,0,1,0,1.08A4,4,0,0,0,296.53,174.17Zm3.47,3.91a4.49,4.49,0,0,1-3.56,4.1l-6.26,1.47V182a2.07,2.07,0,0,1,1.61-1.91l4.89-.93a5.85,5.85,0,0,0,3.32-2.15A3,3,0,0,1,300,178.08Z"/><path class="cls-1" d="M294.39,205.45a4.78,4.78,0,0,0-4.62,4.19,3.65,3.65,0,0,0,3.66,4.2,4.89,4.89,0,0,0,4.62-4.2,3.6,3.6,0,0,0-3.66-4.19Z"/></svg>