<svg id="Artwork" xmlns="http://www.w3.org/2000/svg" viewBox="0 0 480 320"><defs><style>.cls-1{fill:none;}.cls-2{fill:#000;}</style></defs><path class="cls-1" d="M266.09,40.72c9.38,7.05,14.61,18.55,15.55,34.34,1.39,20.9,1.25,162.59-.18,178.33l0,.21a39.4,39.4,0,0,1-10.71,21.82l9.95-1.31v0c2.2-.6,6.69-10.74,6.69-21.1V67.14a79.83,79.83,0,0,0-8.13-26.72Z"/><path class="cls-1" d="M317.46,68V68a5.16,5.16,0,0,0,.2-1.52,4.65,4.65,0,0,0-4.76-4.76h-8.13v2.12a2.05,2.05,0,0,0,2.05,2H313A6,6,0,0,1,317.46,68Z"/><path class="cls-1" d="M313.43,72.52h-6.61a2,2,0,0,0-2.05,2v2.11h8.13v.07a4.67,4.67,0,0,0,3.47-1.35,4.62,4.62,0,0,0,1.35-3.48,4.63,4.63,0,0,0,0-1.39A5.86,5.86,0,0,1,313.43,72.52Z"/><path class="cls-1" d="M273.5,252.57c1.41-16.11,1.53-156.25.15-177-.95-16-6.53-26.27-17.07-31.3l-9.84-3.09L111,44.3a6,6,0,0,0-5.86,6V256.67a6,6,0,0,0,5.22,5.95l130.17,16.92v0A31.79,31.79,0,0,0,273.5,252.57Z"/><path class="cls-1" d="M288.1,40.36a87.69,87.69,0,0,1,7.23,26.07l0,.47V253a53.75,53.75,0,0,1-4,19.5l27.17-4v.05l.59-.15c4.27-1.61,6.5-11.51,6.5-20.93,0-4,.21-32.31.44-65,.34-45.76.75-102.7.75-114.07-.05-11.69-2.85-20.85-8.55-27.93Zm30.68,31.89a5.74,5.74,0,0,1-5.82,6h-9.45V74.5a3.31,3.31,0,0,1,3.31-3.24h6a4.6,4.6,0,0,0,4-2.05,4.62,4.62,0,0,0-4-2h-6a3.29,3.29,0,0,1-3.24-3.24v-3.3H313a5.76,5.76,0,0,1,5.82,5.95,6.69,6.69,0,0,1-.6,2.71A6.45,6.45,0,0,1,318.78,72.25Z"/><path class="cls-1" d="M373.5,49.9l-16.36-5.44h-.08a3.78,3.78,0,0,0-2.47,1.16c-4.81,4.17-8.43,16.62-8.43,22.67l-1,181.92c0,7.58,1.38,10.69,2,11.42a7.36,7.36,0,0,0,2.43-1.79c5.77-5.71,20.44-23.32,24.8-28.58a2,2,0,0,0,.45-1.27V51.8A2,2,0,0,0,373.5,49.9Z"/><path class="cls-1" d="M333.63,247.41c0,3.47-.31,11.31-2.75,18l8.23-2c-1.29-3.21-1.95-7.59-1.95-13.16l1-181.92c0-5.74,2.67-17.57,8-25L328.5,41.31c4.16,7.48,6.28,16.51,6.32,27,0,11.42-.41,68.38-.75,114.15C333.83,215.14,333.63,243.4,333.63,247.41Z"/><path class="cls-2" d="M376,42.3l-17.12-5.68-.36,0-.13,0h-.05l-.34,0-46.84-4.15-36.2.15L110.8,36.3a14.08,14.08,0,0,0-13.67,14V256.67a14,14,0,0,0,12.19,13.89l130.16,16.91.27.09c.82.05,1.63.08,2.44.08,4.29,0,103.78-16.93,103.85-17,5.2-2,6-2,9.21-5.15,5.86-5.81,19.66-22.33,25.33-29.17a10,10,0,0,0,2.29-6.37V51.8A10,10,0,0,0,376,42.3ZM240.51,279.59v0L110.35,262.62a6,6,0,0,1-5.22-5.95V50.3a6,6,0,0,1,5.86-6l135.75-3.13,9.84,3.09c10.54,5,16.12,15.27,17.07,31.3,1.38,20.76,1.26,160.9-.15,177A31.79,31.79,0,0,1,240.51,279.59ZM287.36,253c0,10.36-4.49,20.5-6.69,21.1v0l-9.95,1.31a39.4,39.4,0,0,0,10.71-21.82l0-.21c1.43-15.74,1.57-157.43.18-178.33-.94-15.79-6.17-27.29-15.55-34.34l13.14-.3a79.83,79.83,0,0,1,8.13,26.72Zm38.71-70.61c-.23,32.74-.44,61-.44,65,0,9.42-2.23,19.32-6.5,20.93l-.59.15v-.05l-27.17,4a53.75,53.75,0,0,0,4-19.5V66.9l0-.47a87.69,87.69,0,0,0-7.23-26.07h30.17c5.7,7.08,8.5,16.24,8.55,27.93C326.82,79.66,326.41,136.6,326.07,182.36Zm2.43-141,17.62,1.93c-5.29,7.46-8,19.29-8,25l-1,181.92c0,5.57.66,9.95,1.95,13.16l-8.23,2c2.44-6.68,2.75-14.52,2.75-18,0-4,.2-32.27.44-65,.34-45.77.75-102.73.75-114.15C334.78,57.82,332.66,48.79,328.5,41.31ZM374.87,230a2,2,0,0,1-.45,1.27c-4.36,5.26-19,22.87-24.8,28.58a7.36,7.36,0,0,1-2.43,1.79c-.65-.73-2-3.84-2-11.42l1-181.92c0-6.05,3.62-18.5,8.43-22.67a3.78,3.78,0,0,1,2.47-1.16h.08L373.5,49.9a2,2,0,0,1,1.37,1.9Z"/><path class="cls-2" d="M317.21,62.35A5.76,5.76,0,0,0,313,60.62h-9.45v3.3a3.29,3.29,0,0,0,3.24,3.24h6a4.62,4.62,0,0,1,4,2,4.6,4.6,0,0,1-4,2.05h-6a3.31,3.31,0,0,0-3.31,3.24v3.7H313a5.74,5.74,0,0,0,5.82-6,6.45,6.45,0,0,0-.53-3,6.69,6.69,0,0,0,.6-2.71A5.76,5.76,0,0,0,317.21,62.35ZM313,65.91h-6.21a2.05,2.05,0,0,1-2.05-2V61.74h8.13a4.65,4.65,0,0,1,4.76,4.76,5.16,5.16,0,0,1-.2,1.52V68A6,6,0,0,0,313,65.91Zm4.69,6a4.62,4.62,0,0,1-1.35,3.48,4.67,4.67,0,0,1-3.47,1.35v-.07h-8.13V74.57a2,2,0,0,1,2.05-2h6.61a5.86,5.86,0,0,0,4.29-2A4.63,4.63,0,0,1,317.72,71.92Z"/><path id="Shape" class="cls-2" d="M311.18,222.57a3.41,3.41,0,0,1-3.17-3.18h0V106.14a3.18,3.18,0,1,1,6.35,0V219.39A3.05,3.05,0,0,1,311.18,222.57Z"/></svg>