<svg id="Artwork" xmlns="http://www.w3.org/2000/svg" viewBox="0 0 480 320"><defs><style>.cls-1{fill:#000;}.cls-2{fill:none;stroke:#000;stroke-miterlimit:10;stroke-width:2px;}</style></defs><path class="cls-1" d="M429.36,106.28,330.49,49.37A38.16,38.16,0,0,0,304.21,45L61.86,93.39c-5.85,1.1-13.74,5.13-17.51,10.69A11.8,11.8,0,0,0,42.26,113l9.66,60.8A21.64,21.64,0,0,0,54,180.24L95.6,261.1c4.35,8,12,13,22.11,14.26a43.2,43.2,0,0,0,5.53.35,61,61,0,0,0,21.26-4.14l271.91-86.14a17.54,17.54,0,0,0,12-13.44l9.19-47.46A17.11,17.11,0,0,0,429.36,106.28Zm-3.64,37.08a1.35,1.35,0,0,1,.06-.23c0,.09-.82,2.13-5.15,3.76-3.08,1.16-65.2,20.75-133.3,42C204.55,214.65,151.84,230.73,142.71,233c-19.62,4.83-36.59-.62-44.3-14.23-7-12.23-42.74-78.53-44.13-81.11l-2-12.26c10.85,19,37.41,62.52,39.36,65.09A46.14,46.14,0,0,0,130.14,210a60.91,60.91,0,0,0,14.49-1.82c18.83-4.65,275.18-77.93,282.77-80.84.58-.22,1.12-.46,1.63-.7l-3.25,16.76ZM63.39,101.24l242.36-48.4a29.88,29.88,0,0,1,5.72-.55,30.21,30.21,0,0,1,15,4l98.87,56.91a9.11,9.11,0,0,1,3.5,3.66c-.38.62-1.46,1.87-4.33,3-5.11,1.93-257.82,74.62-281.83,80.54-18.56,4.57-34.38-.62-44.58-14.66-2.47-3.37-38.4-62.54-42.72-71.33-.14-.28-.3-.58-.47-.9-2.38-4.49-3-6.73,1.35-9.45l0,0A24.17,24.17,0,0,1,63.39,101.24Zm357.14,69.24A9.54,9.54,0,0,1,414,177.8L142,264l-.22.07c-21.69,8.27-34.63,1.52-39.08-6.69L61.15,176.58a13.26,13.26,0,0,1-1.33-4.06l-1.76-11.05c11.55,21.34,28.77,53.1,33.39,61.22,7.33,12.95,21,20,37.54,20a65.52,65.52,0,0,0,15.64-2c20.81-5.12,269-82.66,278.82-86.37a2,2,0,0,0,.22-.09Z"/><path class="cls-1" d="M147.37,163.23a15.27,15.27,0,0,0,12.2,6.09,15.62,15.62,0,0,0,3.82-.48l179.73-45.59a7.69,7.69,0,0,0,2.45-13.79L298.93,77.73a15,15,0,0,0-11.49-2.24L123.71,110.14l-.07,0a9.23,9.23,0,0,0-5.44,14.33ZM124,118.48a1.88,1.88,0,0,1,1.29-1.15L289,82.69a7.58,7.58,0,0,1,5.82,1.13l46.6,31.71a.33.33,0,0,1-.1.58L161.57,161.7a7.93,7.93,0,0,1-8.32-2.9l-29.07-38.61A1.86,1.86,0,0,1,124,118.48Z"/><path class="cls-1" d="M299.68,170.11a3.61,3.61,0,0,0-3.15-.69l-7.28,1.17v2.49a2,2,0,0,0,.76,1.66,2.08,2.08,0,0,0,1.78.4l4.89-.84a3,3,0,0,1,3.08,1,4.57,4.57,0,0,1-3.08,2.15l-4.89.93a3.23,3.23,0,0,0-2.54,3v2.49l7.19-1.56a5.67,5.67,0,0,0,4.49-5.33,3.83,3.83,0,0,0-.34-2,4.91,4.91,0,0,0,.44-2A3.63,3.63,0,0,0,299.68,170.11Zm-3.15,3.22-4.88.88a1.33,1.33,0,0,1-1.62-1.32v-1.62l6.26-1a2.88,2.88,0,0,1,3.66,2.88,3.91,3.91,0,0,1,0,1.08A3.93,3.93,0,0,0,296.53,173.33Zm3.47,3.91a4.49,4.49,0,0,1-3.56,4.1l-6.26,1.47V181.2a2.06,2.06,0,0,1,1.61-1.91l4.89-.93a5.85,5.85,0,0,0,3.32-2.15A3,3,0,0,1,300,177.24Z"/><path class="cls-1" d="M294.39,202.61a4.78,4.78,0,0,0-4.62,4.19,3.66,3.66,0,0,0,3.65,4.2,4.9,4.9,0,0,0,4.63-4.2,3.6,3.6,0,0,0-3.66-4.19Z"/><ellipse class="cls-1" cx="173.07" cy="119.19" rx="3.86" ry="1.98"/><ellipse class="cls-1" cx="199.02" cy="114.63" rx="3.86" ry="1.98"/><ellipse class="cls-1" cx="222.25" cy="109.38" rx="3.86" ry="1.98"/><ellipse class="cls-1" cx="245.77" cy="104.38" rx="3.86" ry="1.98"/><ellipse class="cls-1" cx="268.31" cy="99.42" rx="3.86" ry="1.98"/><ellipse class="cls-1" cx="183.57" cy="131.57" rx="3.86" ry="1.98"/><ellipse class="cls-1" cx="281.36" cy="108.35" rx="3.86" ry="1.98"/><ellipse class="cls-2" cx="238.89" cy="130.01" rx="4.83" ry="2.48"/></svg>