<svg xmlns="http://www.w3.org/2000/svg" viewBox="0 0 480 320"><defs><style>.cls-1{fill:#000;}</style></defs><g id="Layer_4" data-name="Layer 4"><path class="cls-1" d="M458.14,187l-17.06-46.44a4.4,4.4,0,0,0-3.23-2.65l-64.6-26.11-1.5-.17v-.12L57.14,111.3h0v4l-.05-4a3.67,3.67,0,0,0-.75.08l-.11,0a3.79,3.79,0,0,0-.65.21l-.07,0a4.65,4.65,0,0,0-.62.34,3.84,3.84,0,0,0-.68.54l0,0h0c-.11.12-.2.25-.3.38l0,0L22.26,153.26l.06.05a4.08,4.08,0,0,0-.91,2.56,4,4,0,0,0,.67,2.22l.1.14a3.85,3.85,0,0,0,1.36,1.27l12.68,7.14h0l42.29,23.82.15.18,0,0c.1.1.22.19.33.28l.27.22.4.22.14.07v0l15.29,8.22v.1h.19l.21.12.06-.12,37.64-.05,11.93,11.93a4,4,0,0,0,2.83,1.17h27.12a4,4,0,0,0,2.83-1.17L189.64,200l-.27-.28,174.16-.23,12.23,12.23a4,4,0,0,0,2.83,1.17h27.12a4,4,0,0,0,2.85-1.2l12.05-12.27,23.22,0H444v-.06h0v0l13.28-6.93-.51-1,.58.58.12-.11a4.12,4.12,0,0,0,1.15-2.87v-.14A4,4,0,0,0,458.14,187Zm-16.25,4.33-344.58.45-9.86-5.3,1.22-1.5,360.46,1.18.43,1.16ZM43.75,161.71a.18.18,0,0,0-.07-.05l-12.33-7,27-34.49,54.41,22.56L80.61,182.24l.93.75Zm75.79-24.87L77.27,119.31l292.62.23,44.76,18.26Zm1.7,8.06,313.09,1,13.33,36.28L91.91,181ZM56.89,115.35l0,0-.06,0Zm116.54,89.51h-23.8l-5.12-5.11,34.08-.05Zm230.6,0H380.25l-5.42-5.41,34.56,0Z"/><rect class="cls-1" x="349.27" y="187.17" width="31.27" height="3.18"/><rect class="cls-1" x="388.24" y="187.17" width="31.27" height="3.18"/><path class="cls-1" d="M123.06,178.19a1.88,1.88,0,0,0,1.7,1.08H238.93a1.89,1.89,0,0,0,1.77-2.55L229.94,148a1.88,1.88,0,0,0-1.76-1.23h0l-80.21.31a1.91,1.91,0,0,0-1.46.69l-23.2,28.43A1.87,1.87,0,0,0,123.06,178.19Zm99.47-27-67.71-.15-.4-.25,68.84-.27Zm-66.77,3.62L221,155l-4,20.51H151Zm80.45,20.66H220.79l4.2-21.42,2.39-2.17Zm-87.84-24.05,3.75,2.38-5,21.67H128.74Z"/></g></svg>