<svg xmlns="http://www.w3.org/2000/svg" viewBox="0 0 480 320"><defs><style>.cls-1{fill:#000;}</style></defs><g id="Layer_4" data-name="Layer 4"><path class="cls-1" d="M458.1,190.94a3.84,3.84,0,0,0-.42-1.73h0l-25.08-54-.55-1-.75-.55a3,3,0,0,0-.62-.38,4,4,0,0,0-.89-.34L370,110.47l-16.45-6.22-.13,0,0,0h0a2.43,2.43,0,0,0-.48-.14l-.22,0a3.7,3.7,0,0,0-.66-.07h0l-43.78-.14-1.75-.07,0,1-.2-.31-2.93,1.89-2.89,1.5-3,1.22-3.14.94-3.19.65-3.21.37-3.25,0-1.55-.12-18.5-7v-.21h-1.49v0h0l-6.22,0-192.67-2a3.91,3.91,0,0,0-1.08,0h-.63v.15a4,4,0,0,0-2.07,1.49L22.7,155.9h0a4.1,4.1,0,0,0-.8,2.41v.14a4,4,0,0,0,1.19,2.82h0l10.48,10.79.07,0,0,0,77.49,31.26v0l32.92.11,11.68,11.68a4,4,0,0,0,2.83,1.17H185.7a4,4,0,0,0,2.83-1.17l11.5-11.5,168.87.55,12.16,12.17a4,4,0,0,0,2.83,1.17H411a4,4,0,0,0,2.83-1.17l11.72-11.73-.25-.26,21.33.07,0,0h0v0a4.15,4.15,0,0,0,2.86-1.2l.26-.4.05-.06.08.07,7.26-9.34,0,0a4,4,0,0,0,.92-2.52ZM26,158.48l0,0v0Zm-.07-.25-.11-.12.11.09Zm230.83-46.6,5.69.06,18.21,6.84v.18l.6,0,36.39,13.68-176.21-.59L88.54,111.07ZM352,107.87l0,.06v-.06Zm-.86,4,16,6,39.05,14.76-20.56-.07-55.35-20.78Zm-15.84,28.61-6.68,46.38-223.9-.73,34.91-46.26Zm7.74,2.36,3.13,1.4.3.12,2.59.9.25.08,1.95.55.13,0,3,.73.32.06,2.26.36.27,0,3.44.32.23,0,2.54.09h.33l1.95-.1h.13l2.82-.23.36-.05,2.09-.36.19,0,3-.68.32-.08,2.18-.68.29-.11,2.59-1-2.28,16.13L374,184.21l-2.81.82-2,.45-3,.52-2.06.29-2.88.25-4.75.18-3.7-.09-2.47-.17-5.49-.61-2.81-.47-3.64-.78-1.27-.33Zm42.31,18.65,3-20.8,37.8.12L447.63,187l-65.82-.23ZM105,190.18l226.25.74h0l2.68.77.1,0,2.45.64.17,0,3.81.81.18,0,3,.5.18,0,5.78.64.14,0,2.63.18h.18l3.91.09h.22l5-.19h.18l3.08-.27.22,0,2.22-.32.11,0,3.18-.54.2,0,2.22-.5.24-.06,3.13-.91.27-.09,2.09-.77-.07-.19,70.18.25-4.21,5.46-331.15-1.07ZM299.89,116.6l.36-.12,3.36-1.36L304,115l3.22-1.68.33-.19,1.22-.79,66.59,25-1.77.63-2,.55-3.27.62-2.48.29-1.8.08-3-.09-2.11-.16-3.32-.58-2.44-.58-1.74-.52-2.66-1-1.91-.85L344,134.32,342,133.08l-.05.08a3.48,3.48,0,0,0-.64-.32l0-.08L299,116.86ZM64.68,111h1.79l65.45,25.71L96.27,183.94,31.14,158.11,31,158Zm119.37,97.43H160.24l-4.81-4.81,33.32.11Zm225.3,1.22h-23.8l-5.3-5.3,34.29.11Z"/><path class="cls-1" d="M342.21,169.57l.28,1.68a2.21,2.21,0,0,0,.05.25L343,173l.06.17.59,1.49.12.25.82,1.45a1,1,0,0,0,.14.22l1.31,1.76a2.11,2.11,0,0,0,.19.23l1.63,1.63a2.75,2.75,0,0,0,.26.22l1.72,1.22.28.17,1.95,1,.29.11,2,.64a2,2,0,0,0,.35.07l2.17.27.25,0h.06l1.54,0,.23,0,1.55-.22.18,0,1.49-.36a1.31,1.31,0,0,0,.28-.09l2.48-1,.27-.14,1.4-.86.13-.09,1.32-.95.15-.12,1.54-1.36.15-.15,1.37-1.5.14-.17,1.18-1.64.09-.13,1-1.73a2.12,2.12,0,0,0,.11-.21l.82-1.82a1,1,0,0,0,0-.1l.68-1.77a2.14,2.14,0,0,0,.09-.27l.4-1.77,0-.13.27-1.67,0-.27,0-1.63v-.18l-.09-1.49c0-.12,0-.23-.05-.34l-.32-1.36a.76.76,0,0,0-.06-.2l-.45-1.31a1.66,1.66,0,0,0-.15-.33l-.59-1.05-.09-.14-.68-1a2.43,2.43,0,0,0-.2-.25l-.86-.91a1.78,1.78,0,0,0-.26-.22l-1.41-1.05a2,2,0,0,0-.31-.19l-1.68-.82-.18-.07-1.23-.46-.22-.07-1.41-.33-1.4-.27-.26,0-3-.14h-.18l-1.54.09h-.14l-1.73.23h-.1l-1.72.32-.21,0-1.68.5-.15.05-1.77.68-.19.09-1.68.86-.14.08-1.54.95-.23.17-1.41,1.18-.18.17-1.22,1.31-.19.23-1,1.45-.12.2-.81,1.54c-.05.09-.08.17-.12.26l-.58,1.63a1.29,1.29,0,0,0-.08.26l-.36,1.68a2.34,2.34,0,0,0,0,.26l-.14,1.68v.27l.09,1.72A1.49,1.49,0,0,0,342.21,169.57Zm19.08,9.64-.38.14-1.78.35-.88.07h-.91l-.88-.07-1.83-.35-1.7-.66-.8-.42-.71-.45-.69-.53-.7-.63-.63-.66-.65-.77-.51-.7-.91-1.74-.67-1.8-.34-1.81,0-.92h0v-.89l.12-1,.23-1.1.31-1.08.42-.95.49-.95.65-.92.74-.89.81-.77.8-.66,0,0,1.09-.69,1.12-.63,1.09-.52,1.16-.44,1.11-.32,2.39-.46,2.21-.21h1l2,.13.92.15,1.68.41.77.28,1.43.73,1.11.82.5.5.42.52.58,1,.27.71.22.7.26,1.5v.73l-.12,1.92-.16.93-.23.94-.7,2-.45,1-1,1.91-.59.86-1.42,1.76-.75.75-.81.73-.82.62-1.81,1.11-.83.42-1.11.4,0,.07,0,0Z"/><rect class="cls-1" x="402.72" y="191.95" width="31.27" height="3.18"/><path class="cls-1" d="M156.61,179.43a2,2,0,0,0,1.53.71H272.77a2,2,0,0,0,2-1.77l4-34.45a2,2,0,0,0-2-2.23H164.24a2,2,0,0,0-2,1.65l-6.1,34.45A2,2,0,0,0,156.61,179.43ZM255,150.53H184.78l-11-4.84h92.92Zm-68.9,4h67.07l-2.35,21.61H183.13ZM271,176.14H254.85l2.41-22.22,17.1-7.08Zm-105.23-29.6,16.41,7.21-3.08,22.39H160.52Z"/></g></svg>