<svg id="Artwork" xmlns="http://www.w3.org/2000/svg" viewBox="0 0 480 320"><defs><style>.cls-1,.cls-2{fill:#000;}.cls-1{fill-rule:evenodd;}</style></defs><path class="cls-1" d="M430.08,114.89a4,4,0,0,0-2-4.15l-.16-.09L423.37,108l0-.92a4,4,0,0,0-1.43-3.25,4.91,4.91,0,0,0-.71-.48l-3-1.73a4,4,0,0,0-2.91-.56l-4.63.89a4,4,0,0,0-1.37-2.36,3.9,3.9,0,0,0-.71-.49l-2.14-1.25,0-.68a4,4,0,0,0-1.26-3.09,4.09,4.09,0,0,0-.9-.64l-3.4-2a4,4,0,0,0-2.9-.56l-4.68.9-.07-2.62v-.13A4,4,0,0,0,391,85.66L386.48,83a4,4,0,0,0-3-.61l-4.09.79c0-.1,0-.2,0-.3a4.1,4.1,0,0,0-.55-1.62,4.21,4.21,0,0,0-1.09-1.18,3.68,3.68,0,0,0-.39-.24l-2.46-1.43a3,3,0,0,0-.44-.23h0a3.87,3.87,0,0,0-.92-.27h0a4.21,4.21,0,0,0-.94,0h0a2.65,2.65,0,0,0-.48.07l-1.79.34,0-.82c0-.14,0-.28,0-.41a4,4,0,0,0-.55-1.61,4.08,4.08,0,0,0-1.11-1.2l-.36-.23-3.09-1.8a3.68,3.68,0,0,0-.44-.23h0a3.57,3.57,0,0,0-.46-.16,3.76,3.76,0,0,0-.54-1.59,4,4,0,0,0-1.09-1.19c-.12-.09-.25-.16-.38-.24l-1.83-1.07a3.17,3.17,0,0,0-.41-.21,3.6,3.6,0,0,0-1-.3,4,4,0,0,0-.91,0h0a2.65,2.65,0,0,0-.48.07l-5.13,1a4,4,0,0,0-.37-.84A4.22,4.22,0,0,0,351,66.19l-.35-.22-5-2.95c-.13-.08-.26-.14-.39-.21a3.9,3.9,0,0,0-1-.3h0a3.68,3.68,0,0,0-.75-.06v0a4,4,0,0,0-2-3.77L339,57.17a2.82,2.82,0,0,0-.46-.23h0a4.36,4.36,0,0,0-.9-.26h0a3.55,3.55,0,0,0-1,0,3.11,3.11,0,0,0-.44.06L334.4,57a4,4,0,0,0-2-3.59L328,50.9a4,4,0,0,0-3.45-.27l-1.53.29a4,4,0,0,0-1.86-2.45l-5.4-3.15a4,4,0,0,0-1.84-.55l0-1a3.11,3.11,0,0,0,0-.43,4,4,0,0,0-1.65-2.79,3.34,3.34,0,0,0-.4-.25l-4.79-2.73a4.07,4.07,0,0,0-.67-.31,4.23,4.23,0,0,0-.7-.18h0a4.21,4.21,0,0,0-.62,0H305a5.05,5.05,0,0,0-.68.07l-4.63.86a3.88,3.88,0,0,0-.53-1.53A3.94,3.94,0,0,0,298,35.17l-.36-.23-2.58-1.5a3.81,3.81,0,0,0-.45-.23h0a3.68,3.68,0,0,0-.95-.28,3.88,3.88,0,0,0-.9,0h0l-.33,0a4,4,0,0,0-2-3.2l-4.07-2.38-.41-.21a3.91,3.91,0,0,0-.94-.28,4.23,4.23,0,0,0-1.07,0h0l-.35.05L53.53,71.18a4,4,0,0,0-3.73,3.9v99a2.44,2.44,0,0,0,0,.27,4,4,0,0,0,.42,1.58,4,4,0,0,0,1,1.27h0l.23.18,3.67,2.72a4,4,0,0,0,3.24.69,4.11,4.11,0,0,0,.28,1,4.19,4.19,0,0,0,.89,1.3l0,0,3.06,2.93L62.7,189a4,4,0,0,0,1.43,3l3.15,2.65a3.8,3.8,0,0,0,1.69.84,3.91,3.91,0,0,0,1.6,0l.13,0,3.56-.75a4,4,0,0,0,1.18,2.92l.11.1L78,200.15a3.9,3.9,0,0,0,.38.33l0,.58a4,4,0,0,0,1.2,3.35l6.67,6.4a4,4,0,0,0,2.73,1.11,4,4,0,0,0,1.6,3.12l2.22,2.12a4,4,0,0,0,3.84,1l1.88-.39a4,4,0,0,0,1.46,2.34l.92.88q.14,2.85.31,5.7a4,4,0,0,0,1.59,3l2.06,2A4,4,0,0,0,108,233a4.65,4.65,0,0,0,.9-.13l3.37-.7c0,.34-.05.69-.08,1a4,4,0,0,0,1.58,3.49l2.52,2.43a4.07,4.07,0,0,0,4.22,1.2l.58-.12,0,1a4,4,0,0,0,1.16,2.94.94.94,0,0,1,.1.1l1.75,1.67a4.1,4.1,0,0,0,.67.58,4,4,0,0,0,3.29.6c.13,1.71.26,3.42.41,5.14a3.94,3.94,0,0,0,1.52,2.82l1.38,1.33a3.64,3.64,0,0,0,.7.6,4,4,0,0,0,3.54.51l.73-.16c0,.63,0,1.25.08,1.87a4,4,0,0,0,1.54,3l3,2.88a4.3,4.3,0,0,0,.69.59,4,4,0,0,0,3.62.48l7.53-1.74c.13,1.87.26,3.73.4,5.58a4,4,0,0,0,1.52,2.83l7.65,7.41v3.53a4,4,0,0,0,1.53,3.15l3,2.95a4,4,0,0,0,4.37.81l5.58-1.47,0,1.15a4,4,0,0,0,1.46,3.35l3.16,2.58a4,4,0,0,0,2.37.9h.18a4.14,4.14,0,0,0,1.19-.18l236.5-73.3A14.16,14.16,0,0,0,431.72,210ZM109.13,224.64l-.08-.08q-.14-2.35-.24-4.71c0-.14,0-.27,0-.42-.47-28.7-.53-64.77,3.1-92.06l2.81-.27a4,4,0,0,0-1,2.81c1.41,29.58,1.22,64.3-.5,93.88Zm36,33.34-.07-.07a3.42,3.42,0,0,0,.06-.79c-.44-18-1-62.85,2.86-99.16l7-1.5a4,4,0,0,0-1.63,2.2,3.63,3.63,0,0,0-.16.93A839.66,839.66,0,0,0,152,256.38Zm15.38,1.36a4.27,4.27,0,0,0-.1-.78,3.6,3.6,0,0,0-.27-.78,844.49,844.49,0,0,1,.37-87.57c2.47,24,2.23,51.18,2,77.5-.06,7.38-.12,14.47-.12,21.37l-1.3-1.25C160.86,265,160.66,262.16,160.49,259.34Zm19.21,20.85-8.84,2.32-.49-.47v-3c0-.12,0-.24,0-.36s0-.12,0-.18c-.09-9.78,0-20,.09-30.73.24-26.24.48-53.34-1.95-77.57l9.35-1.8a4,4,0,1,0-1.52-7.86l-11.07,2.14a4,4,0,0,0-2.58,1.74,4,4,0,0,0-2,1.84c.06-1.05.13-2.09.2-3.12l3.53-.68a4,4,0,0,0-1.51-7.86l-5,1a4,4,0,0,0-3-7.3l-11.46,2.45a3.45,3.45,0,0,0-.79.24,3.94,3.94,0,0,0-2.29,2.52,3.63,3.63,0,0,0-.16.81c-3.73,32.57-3.74,72.74-3.38,94.74l-.71.15-.48-6.29a3.9,3.9,0,0,0,0-1.52,4,4,0,0,0-4.44-3.13,4.64,4.64,0,0,0,.06-.92c-1.39-23.08.73-47.54,2.79-71.2.53-6.13,1.08-12.43,1.55-18.61l8.27-1.59a4,4,0,0,0-1.51-7.86l-11.19,2.16a3.8,3.8,0,0,0-.89.26,4,4,0,0,0-1.44,1,3.85,3.85,0,0,0-.83,1.51,3.62,3.62,0,0,0-.16.92c-.52,7.06-1.16,14.39-1.77,21.48-1.9,21.86-3.85,44.4-3.09,66.17l-2.49.53-.26-.25c0-.46.07-.92.11-1.38a3.92,3.92,0,0,0,.55-1.76,944.11,944.11,0,0,0,.94-95.75l5.1-1a4,4,0,0,0-1.52-7.86l-1.57.31a4,4,0,0,0-3.89-5.89l-11.89,1.12a4,4,0,0,0-3.71,3.41c-3.68,25-4.06,57.86-3.75,86l-3.7.78,0-1.17a3.86,3.86,0,0,0,.16-1l2.29-92.39,5.51-1.19a4,4,0,1,0-1.7-7.82l-8.49,1.84a4.15,4.15,0,0,0-.94.31,4,4,0,0,0-1.39,1.08,4.05,4.05,0,0,0-.91,2.52L89.31,202.7l-2.93-2.81.1-2.32A4,4,0,0,0,83.33,193s0-.07,0-.1l.37-93.22,2.54-.55a4,4,0,0,0-1.69-7.82L79,92.52a3.89,3.89,0,0,0-1,.33,3.8,3.8,0,0,0-1.38,1.09,4,4,0,0,0-.78,1.57h0a4.71,4.71,0,0,0-.11,1l-.35,89.91-4.43.93-.28-.23-.06-2.89a4,4,0,0,0-1.49-3l-.68-.65.1-87.81,7.75-1.69a4,4,0,1,0-1.7-7.82L63.76,85.6a3.5,3.5,0,0,0-1,.32A3.78,3.78,0,0,0,61.41,87a3.84,3.84,0,0,0-.76,1.54,4.34,4.34,0,0,0-.12,1l-.09,82.62-2,.41-.65-.48V78.5L283.65,35l.86.5,0,1.09a4,4,0,0,0,1.79,3.73c.13.09.27.17.41.25l.8.45a4.38,4.38,0,0,0,.7.31h0a3.2,3.2,0,0,0,.61.15h0a4.09,4.09,0,0,0,.78,0h0a4.64,4.64,0,0,0,.64-.07l1.42-.27a4,4,0,0,0,2,3.46l2,1.15a4,4,0,0,0,2,.53h0a3.23,3.23,0,0,0,.75-.07l5.88-1.09,1.65.94.08,3a3.88,3.88,0,0,0,.05,1.22,4,4,0,0,0,4.68,3.17l2.33-.45,2.1,1.22,0,.47a4.12,4.12,0,0,0,.11,1.16,4,4,0,0,0,2.3,2.73l0,0a4,4,0,0,0,3.3.84l4.39-.85,1,.61.05,1.78a4,4,0,0,0,2,3.92l.21.12a4,4,0,0,0,3.12.67l3.8-.76,0,1.25a4,4,0,0,0,1.95,4l.55.32a4.13,4.13,0,0,0,2,.54A4.54,4.54,0,0,0,341,71l1.89-.37,1.82,1.07a4,4,0,0,0,2,3.81l1.2.7a4.39,4.39,0,0,0,.66.31,4.15,4.15,0,0,0,2.19.19l5.69-1.09v.58a2.8,2.8,0,0,0,0,.4,3.95,3.95,0,0,0,1.5,2.7,3.82,3.82,0,0,0,1.54.75,3.88,3.88,0,0,0,1.36.09l.4-.06,1.13-.22,0,1.84a4,4,0,0,0,1.92,4.13l.87.51a4.22,4.22,0,0,0,.68.32,4,4,0,0,0,2.18.19l3.44-.66,0,.82a4,4,0,0,0,2,4.17l.35.2a5.51,5.51,0,0,0,.61.28,4,4,0,0,0,2.21.2l6.89-1.33,1.78,1,.1,3.44a4,4,0,0,0,1.89,4.24l1,.59a4.29,4.29,0,0,0,.94.4,4,4,0,0,0,1.95.11L398,99.06l.49.29,0,1a4,4,0,0,0,1.13,2.67,3.91,3.91,0,0,0,.87.68l2.27,1.34v.14a4,4,0,0,0,1.95,4.36l1,.56a3.94,3.94,0,0,0,.73.32,4,4,0,0,0,2.07.15l6.79-1.31.07,1.28a4.06,4.06,0,0,0,.64,2L178.6,171.73a4,4,0,0,0-3,4.51l6.09,104A4,4,0,0,0,179.7,280.19Zm239.73-64.13L190.12,287.13l-6.35-108.45,238.38-59.41,1.57,90.86A6.13,6.13,0,0,1,419.43,216.06Z"/><path class="cls-1" d="M316.05,163.49l-95.67,25.26a2.83,2.83,0,0,0-2.1,2.85l2.76,62a2.83,2.83,0,0,0,3.62,2.58l94.83-27.79a2.84,2.84,0,0,0,2-2.8l-1.92-59.45A2.83,2.83,0,0,0,316.05,163.49Z"/><rect class="cls-2" x="342.66" y="199.03" width="11.29" height="19.2" rx="5.64"/><rect class="cls-2" x="360" y="193.08" width="11.29" height="19.2" rx="5.64"/><rect class="cls-2" x="376.94" y="189.15" width="11.29" height="19.2" rx="5.64"/><rect class="cls-2" x="394.29" y="184.94" width="11.29" height="19.2" rx="5.64"/><path class="cls-1" d="M398.23,161.22l-.16-2.67a7.9,7.9,0,0,0-9.91-7.17l-37.92,10a7.91,7.91,0,0,0-5.86,8.34l.21,2.3a7.9,7.9,0,0,0,9.82,7l37.88-9.65A7.91,7.91,0,0,0,398.23,161.22Z"/></svg>