<svg xmlns="http://www.w3.org/2000/svg" viewBox="0 0 480 320"><defs><style>.cls-1{fill:#000;}</style></defs><g id="svg3771"><rect class="cls-1" x="322.14" y="200.97" width="11.29" height="19.2" rx="5.64"/><rect class="cls-1" x="336.79" y="196.58" width="11.29" height="19.2" rx="5.64"/><rect class="cls-1" x="350.96" y="192.18" width="11.29" height="19.2" rx="5.64"/><rect class="cls-1" x="365.95" y="188.6" width="11.29" height="19.2" rx="5.64"/><path class="cls-1" d="M444.05,196a3.84,3.84,0,0,0,.18-.35c0-.13.08-.26.12-.39s.07-.23.1-.36,0-.3.05-.46,0-.18,0-.27l.21-60.22s0-.07,0-.11,0-.28-.05-.42a2.2,2.2,0,0,0-.05-.37c0-.12-.07-.24-.11-.36a2.46,2.46,0,0,0-.14-.38c-.05-.11-.11-.21-.17-.32l-.2-.34a2.31,2.31,0,0,0-.24-.29,2.61,2.61,0,0,0-.27-.3c-.08-.08-.18-.15-.27-.23l-.35-.26a.71.71,0,0,1-.09-.07l-5.34-3.18,0-1.73v0a3.85,3.85,0,0,0-.07-.49c0-.1,0-.2,0-.3s-.05-.13-.07-.2a4,4,0,0,0-1.08-1.79l-.13-.1a4.49,4.49,0,0,0-.49-.37l0,0L432,120.12c-.08-.05-.17-.08-.25-.12a3.49,3.49,0,0,0-.39-.19,2.59,2.59,0,0,0-.37-.11,2.66,2.66,0,0,0-.38-.1l-.41,0-.36,0a3.41,3.41,0,0,0-.46,0,2.28,2.28,0,0,0-.26,0l-5.27,1.07c0-.15,0-.28-.06-.42a3.06,3.06,0,0,0,0-.32l0-.11a4,4,0,0,0-1.77-2.37l-2.68-1.64,0-1.43s0,0,0,0a2.63,2.63,0,0,0-.06-.47c0-.1,0-.21,0-.32s0-.07,0-.11a4,4,0,0,0-1.76-2.37h0l-4-2.44c-.08,0-.16-.07-.24-.12a3,3,0,0,0-.41-.19,2,2,0,0,0-.35-.11,2.82,2.82,0,0,0-.79-.14l-.38,0a3.27,3.27,0,0,0-.44,0l-.27,0L405,109.21l-.1-3.59v0c0-.16,0-.32-.06-.48s0-.21-.05-.31,0-.11-.05-.17a4,4,0,0,0-1.75-2.31L397.68,99a2.06,2.06,0,0,0-.26-.12,2.69,2.69,0,0,0-.38-.19,2.59,2.59,0,0,0-.37-.11,2.66,2.66,0,0,0-.38-.1l-.41,0-.36,0a3.42,3.42,0,0,0-.45,0l-.27,0-4.73,1v-.54a4,4,0,0,0-.07-.5c0-.1,0-.2,0-.3a1.15,1.15,0,0,0-.06-.17,4,4,0,0,0-1.74-2.31h0L385.41,94c-.08,0-.17-.07-.25-.12s-.26-.13-.4-.18-.24-.08-.37-.12-.24-.07-.37-.09a3,3,0,0,0-.42,0c-.12,0-.24,0-.36,0a3.73,3.73,0,0,0-.46,0,2.13,2.13,0,0,0-.25,0l-2.27.45,0-1.56a0,0,0,0,1,0,0,2.32,2.32,0,0,0-.06-.46,3.11,3.11,0,0,0,0-.32,2.83,2.83,0,0,0-.11-.31,3,3,0,0,0-.14-.42,2.34,2.34,0,0,0-.15-.27c-.08-.13-.14-.27-.23-.39s-.15-.17-.22-.26-.18-.22-.28-.32l-.25-.2a3.8,3.8,0,0,0-.38-.29l-.05,0L374.88,87l-.26-.12a2.26,2.26,0,0,0-.76-.3l-.12,0v-.07a4.46,4.46,0,0,0-.07-.51,2.19,2.19,0,0,0,0-.27c0-.13-.08-.24-.12-.36a4,4,0,0,0-1.68-2.13h0l-2.06-1.26c-.08,0-.16-.08-.24-.12a3.75,3.75,0,0,0-.41-.19,2.35,2.35,0,0,0-.35-.11,2.6,2.6,0,0,0-.4-.1l-.38,0-.39,0a3,3,0,0,0-.43,0,2.4,2.4,0,0,0-.28,0l-5.77,1.16s0-.09,0-.14a4,4,0,0,0-1.81-2.49l-5.48-3.35-.25-.13c-.13-.06-.25-.13-.38-.18s-.26-.08-.39-.12-.24-.07-.36-.09L352,76l-.36,0-.28,0,0-1a0,0,0,0,0,0,0,2.63,2.63,0,0,0-.06-.49c0-.1,0-.21,0-.31a.69.69,0,0,0-.05-.13,4,4,0,0,0-1.78-2.36L346.65,70l-.23-.11-.42-.2-.34-.1-.41-.11-.38,0-.39,0-.43,0c-.1,0-.19,0-.28,0l-2.22.45,0-.78s0,0,0,0a4.26,4.26,0,0,0-.06-.5c0-.1,0-.19,0-.29s-.05-.13-.07-.2a4,4,0,0,0-1.76-2.29l-4.7-2.88-.23-.11-.41-.2-.36-.11c-.13,0-.25-.07-.39-.09a2.57,2.57,0,0,0-.4-.05c-.12,0-.24,0-.37,0a3.42,3.42,0,0,0-.45,0,2.06,2.06,0,0,0-.26,0l-2.66.53a2.72,2.72,0,0,0,0-.3s0,0,0,0a4,4,0,0,0-1.86-2.48l-5.76-3.53-.24-.11-.41-.2-.35-.1-.4-.11-.39,0-.38,0h0l-.05-1.79v0c0-.16,0-.33-.06-.49s0-.2-.05-.3,0-.12-.06-.19a3.94,3.94,0,0,0-1.74-2.29l-5.22-3.2c-.09-.05-.18-.08-.27-.12a2.53,2.53,0,0,0-.37-.18,2.78,2.78,0,0,0-.38-.12,2.22,2.22,0,0,0-.37-.09,2.87,2.87,0,0,0-.41,0l-.37,0-.44.05-.27,0-5.3,1.07v-.12a3.56,3.56,0,0,0-.08-.57,1.66,1.66,0,0,0,0-.22,4,4,0,0,0-1.8-2.49l-2.87-1.75-.24-.12a2.93,2.93,0,0,0-.4-.19,2.26,2.26,0,0,0-.37-.11,2.36,2.36,0,0,0-.38-.1l-.4,0-.37,0a3.42,3.42,0,0,0-.45,0c-.09,0-.18,0-.27,0l-.15,0v-.42c0-.16,0-.32-.06-.47s0-.22-.05-.33l0-.08a3.94,3.94,0,0,0-1.77-2.4h0L290,36.28l-.24-.11-.4-.2-.36-.11-.39-.1-.4,0-.38,0-.44,0-.27,0L38.48,86h0a3.44,3.44,0,0,0-.77.24l-.19.1c-.17.09-.34.17-.49.27s-.23.19-.35.29-.17.13-.24.2-.18.22-.27.33a2.88,2.88,0,0,0-.22.27c-.07.11-.13.23-.19.34a3.65,3.65,0,0,0-.18.34,4.44,4.44,0,0,0-.19.62s0,.08,0,.12a4.26,4.26,0,0,0-.08.8h0V145.8a1.81,1.81,0,0,0,0,.23c0,.14,0,.28,0,.42s0,.25.08.38.07.25.12.37a3.73,3.73,0,0,0,.16.35,2.21,2.21,0,0,0,.18.34,2.57,2.57,0,0,0,.22.32l.25.3a4.11,4.11,0,0,0,.3.29l.17.16,4,3.11c.07.06.15.1.22.15l.32.2.33.15a2.36,2.36,0,0,0,.28.12l.36.1.28.07.46,0h.2a4.26,4.26,0,0,0,.86-.09l.35-.08s0,.09,0,.13a3.8,3.8,0,0,0,.06.59c0,.12.07.23.1.35a3.1,3.1,0,0,0,.13.4,2.47,2.47,0,0,0,.19.36c.06.11.1.22.17.33a5.45,5.45,0,0,0,.38.46,1.49,1.49,0,0,0,.12.14L49.12,159l.07,3.68s0,.05,0,.08a3.32,3.32,0,0,0,.06.44,2,2,0,0,0,.05.34,2.84,2.84,0,0,0,.13.38c0,.12.07.23.12.35l.19.33c.07.11.13.23.2.33a3,3,0,0,0,.23.27c.1.11.19.22.3.32l.07.08,3.39,3,.08.06c.11.09.23.17.35.25l.23.16a3.52,3.52,0,0,0,.39.18l.24.11a4.42,4.42,0,0,0,.52.14l.14,0a4,4,0,0,0,.69.06l.14,0a3.35,3.35,0,0,0,.71-.07h0l4.22-.93v.64a4.07,4.07,0,0,0,.05.61c0,.14,0,.27.08.4a5.16,5.16,0,0,0,.16.52,4.2,4.2,0,0,0,.36.7s0,0,0,.05a3.45,3.45,0,0,0,.45.56v0l2.67,2.67.12.11.39.32a.18.18,0,0,1,.07,0L66,176.56s0,.05,0,.07a3.4,3.4,0,0,0,0,.45c0,.12,0,.23,0,.34s.07.26.1.39.06.24.11.36a2.16,2.16,0,0,0,.17.34,3.84,3.84,0,0,0,.18.35c.06.1.14.18.21.28s.18.23.28.34l.05.06,7.19,7.23.14.11a3.93,3.93,0,0,0,.38.31l.24.16a3,3,0,0,0,.4.21l.26.12a3.94,3.94,0,0,0,.49.14l.2.05a3.55,3.55,0,0,0,.73.08h0l.25,0v.35s0,0,0,0a4,4,0,0,0,0,.49c0,.1,0,.2,0,.3s.07.27.11.4.06.24.1.35l.16.3c.07.13.12.27.2.39l.19.23a3.68,3.68,0,0,0,.31.38s0,0,0,0l2.73,2.74.13.11a3.68,3.68,0,0,0,.38.31l.24.16c.13.08.27.15.41.22l.25.11a4.13,4.13,0,0,0,.5.15l.19.05a3.54,3.54,0,0,0,.73.07h0A4.15,4.15,0,0,0,85,195h0l2.62-.58v.06l0,.31c0,.14.08.27.12.41s.05.23.09.34.12.23.18.34a3.84,3.84,0,0,0,.18.35l.2.27c.1.12.18.24.29.35a.1.1,0,0,1,0,.05l1.51,1.51q.15,3.33.34,6.64c0,.08,0,.16,0,.25a2.63,2.63,0,0,0,.06.39c0,.13.07.26.11.38s.07.23.12.35.13.25.2.37.11.2.17.29a3.93,3.93,0,0,0,.31.38s.09.12.15.18l2.9,2.91.13.11.38.32c.08.05.16.11.24.15a3.23,3.23,0,0,0,.41.22l.25.11a4.13,4.13,0,0,0,.5.15l.19.05a3.54,3.54,0,0,0,.73.07h0a3.46,3.46,0,0,0,.78-.09h0l4.29-.94c0,.6-.08,1.21-.13,1.82a.66.66,0,0,1,0,.14c0,.14,0,.28,0,.42a2.22,2.22,0,0,0,0,.37c0,.13.06.26.09.38a2.26,2.26,0,0,0,.11.37,3.68,3.68,0,0,0,.15.35,3.9,3.9,0,0,0,.19.35c.06.1.14.2.21.3a2.16,2.16,0,0,0,.27.33.48.48,0,0,0,.09.11L107.1,219l.13.11a3,3,0,0,0,.39.31l.24.16.4.22.25.11a4.13,4.13,0,0,0,.5.15l.2.05a4.28,4.28,0,0,0,.72.07h0a4.91,4.91,0,0,0,.77-.09h0l1.4-.31,0,1.78a.43.43,0,0,0,0,.05,2.91,2.91,0,0,0,0,.51,2.66,2.66,0,0,0,0,.28c0,.14.08.28.12.42s0,.22.09.33.11.21.17.32a3.24,3.24,0,0,0,.19.37,2,2,0,0,0,.18.23,3,3,0,0,0,.32.39l0,0,2.09,2.1.13.1a3.79,3.79,0,0,0,.38.32l.24.16a3.17,3.17,0,0,0,.41.21l.25.12a4.1,4.1,0,0,0,.5.14l.19.06a4.4,4.4,0,0,0,.73.07h0a4.13,4.13,0,0,0,.78-.08h0l.51-.11c.16,2.12.31,4.24.48,6.35,0,.08,0,.14,0,.22s0,.25.07.38.07.25.11.37a3.42,3.42,0,0,0,.13.34c.06.13.12.25.19.37l.18.29c.09.13.19.24.29.36s.09.12.15.18l2,2,.13.1.38.32.24.16a3.17,3.17,0,0,0,.41.21l.25.11a2.88,2.88,0,0,0,.5.15l.19.05a3.54,3.54,0,0,0,.73.07h0a3.46,3.46,0,0,0,.78-.09h0l1.63-.36c0,.88,0,1.77.09,2.65a2.36,2.36,0,0,0,0,.28,2.87,2.87,0,0,0,0,.41c0,.13.07.26.11.38l.12.35c.06.13.13.26.2.38s.11.2.17.29a3.19,3.19,0,0,0,.33.4l.14.18,3.77,3.78s.08.06.12.1a4.12,4.12,0,0,0,.4.33l.24.16a3,3,0,0,0,.4.21l.26.11a3.82,3.82,0,0,0,.48.15l.2,0a4.4,4.4,0,0,0,.73.07,4,4,0,0,0,.68-.07l.15,0,.11,0,8.95-2.17c.15,2.29.3,4.57.46,6.81,0,.08,0,.15,0,.22s0,.26.07.39.07.25.11.37a3.62,3.62,0,0,0,.13.35c.06.13.12.24.19.36s.11.2.18.3a3.3,3.3,0,0,0,.28.35c.06.06.09.13.15.19l8.76,8.87v4.21h0a4.15,4.15,0,0,0,.07.79c0,.11.07.21.1.32a3.52,3.52,0,0,0,.13.43,3.13,3.13,0,0,0,.19.36c.06.11.1.22.17.33a4.19,4.19,0,0,0,.5.6h0l3.57,3.58h0l0,0,.09.08a5.32,5.32,0,0,0,.46.37l.22.14a4.1,4.1,0,0,0,.41.22l.25.11a4.34,4.34,0,0,0,.48.14l.21,0a4.17,4.17,0,0,0,.71.07,5.05,5.05,0,0,0,.68-.06l.19,0,.2,0,7-1.93c0,.77.05,1.54.08,2.31,0,0,0,.06,0,.09a3.12,3.12,0,0,0,.06.41c0,.12,0,.24.06.36a3.59,3.59,0,0,0,.12.35c0,.13.08.25.14.37s.12.21.18.32.14.23.22.34l.22.26c.1.11.2.22.31.32l.07.08,3.41,2.92.11.08c.11.09.23.17.35.25l.23.14.36.17.25.1c.14.05.29.08.43.12l.21.05a4.89,4.89,0,0,0,.66.05,3.82,3.82,0,0,0,.75-.08l.22-.05.25-.06L437.82,202A1.56,1.56,0,0,1,438,202l.39-.17a3.9,3.9,0,0,0,.35-.19l.31-.22.34-.28s.09-.07.13-.12l3.92-4.08a2,2,0,0,0,.18-.23c.09-.11.19-.22.28-.35A3.65,3.65,0,0,0,444.05,196ZM165.48,268.8l-.8-.81v-4.22a2.85,2.85,0,0,0,0-.29,3.91,3.91,0,0,0-.05-.48c0-.13-.07-.25-.11-.38s-.07-.25-.11-.36-.14-.27-.21-.4a2.69,2.69,0,0,0-.16-.29c0-.07-.1-.13-.14-.19a4,4,0,0,0,.81-2.44c-.22-20.58-1.5-41.37-3.78-61.87l8.35-1.68a4,4,0,1,0-1.58-7.84L155.73,190a2,2,0,0,0-.23.07,2.64,2.64,0,0,0-.4.12c-.12,0-.23.1-.35.15l-.22.11c.09-1.11.2-2.22.3-3.33l3.9-.79a4,4,0,0,0-1.58-7.84l-6.83,1.38a1.06,1.06,0,0,0-.19.06l-.37.11a2.83,2.83,0,0,0-.4.17l-.28.15a3.19,3.19,0,0,0-.38.26,2.11,2.11,0,0,0-.23.19,3.34,3.34,0,0,0-.33.32l-.2.25-.25.36a3,3,0,0,0-.16.31,3.52,3.52,0,0,0-.17.39c0,.11-.07.22-.1.33a3.43,3.43,0,0,0-.09.44c0,.06,0,.12,0,.18a341.84,341.84,0,0,0-1.11,54.3,4.12,4.12,0,0,0,.32,1.32l-8.66,2.1L136.61,240c-.07-1.93-.14-3.85-.2-5.78h0v-.06c0-.13,0-.24,0-.36s0-.26-.05-.39v0c0-.13-.08-.25-.12-.37s-.08-.27-.14-.4a.33.33,0,0,1,0-.06,4.14,4.14,0,0,0-.41-.67,4,4,0,0,0,.8-2.26c.55-16.1,1.91-32.36,4-48.4l9.73-2.18a4,4,0,0,0-1.74-7.81L136,174l-.07,0a3,3,0,0,0-.5.17,2.5,2.5,0,0,0-.25.09,3.7,3.7,0,0,0-.43.25,1.94,1.94,0,0,0-.24.15,2.73,2.73,0,0,0-.37.32,1.8,1.8,0,0,0-.2.19,3.72,3.72,0,0,0-.3.37l-.17.24c-.07.12-.13.25-.19.38a2.3,2.3,0,0,0-.15.32,2,2,0,0,0-.1.35c0,.14-.08.28-.11.43a.24.24,0,0,1,0,.08,515,515,0,0,0-4.43,52,4.08,4.08,0,0,0,.29,1.64l-.81.18c-.2-2.6-.39-5.2-.56-7.78a3.89,3.89,0,0,0-.81-3.17,4,4,0,0,0,.75-2.32,447.85,447.85,0,0,1,2.37-46.31l9.32-1.88a4,4,0,0,0-1.58-7.84l-12.21,2.46-.17,0-.38.12-.38.16-.3.16a2.92,2.92,0,0,0-.37.24l-.24.21a2.27,2.27,0,0,0-.32.3l-.22.27a4,4,0,0,0-.23.34,2,2,0,0,0-.17.32,2.59,2.59,0,0,0-.17.38,3.37,3.37,0,0,0-.1.34c0,.14-.07.28-.1.43a1.1,1.1,0,0,0,0,.16c-.11,1-.21,2.05-.32,3.08l.36-10.45,5-1a4,4,0,0,0-1.58-7.84l-8.09,1.63a2.29,2.29,0,0,0-.28.09c-.14,0-.28.07-.42.12a3,3,0,0,0-.4.21l-.27.14a4.47,4.47,0,0,0-.41.32l-.19.15c-.12.12-.23.26-.34.39l-.16.2a3.45,3.45,0,0,0-.25.41c0,.09-.1.18-.14.27a3.12,3.12,0,0,0-.15.43l-.1.31a3.78,3.78,0,0,0-.06.47,2.51,2.51,0,0,0,0,.27l-1.81,52.89a4.09,4.09,0,0,0,.3,1.64l-1.42.31-.52-.52c.13-1.8.26-3.59.38-5.38a.85.85,0,0,1,0-.16c0-.13,0-.27,0-.4a2.68,2.68,0,0,0,0-.42c0-.05,0-.1,0-.15s0-.13-.07-.2a3.45,3.45,0,0,0-.14-.42,2.41,2.41,0,0,0-.15-.33,4,4,0,0,0-.2-.35l-.15-.23a4,4,0,0,0,.79-2.11,394.34,394.34,0,0,0,.53-48.62l5.77-1.16a4,4,0,0,0-1.58-7.85l-.79.16a4,4,0,0,0,0-1.7,4,4,0,0,0-4.72-3.13L98.6,141.23l.1-2.66,3.08-.62a4,4,0,1,0-1.58-7.84L94,131.35l-.32.1c-.13,0-.26.07-.38.12a2.58,2.58,0,0,0-.37.19,2,2,0,0,0-.32.17c-.11.07-.21.16-.32.24l-.28.24c-.09.09-.17.19-.25.28a3.76,3.76,0,0,0-.25.31c-.07.1-.12.2-.18.3s-.14.24-.2.37-.08.24-.12.36a2.59,2.59,0,0,0-.11.37,3.4,3.4,0,0,0-.07.46,2.48,2.48,0,0,0,0,.27l-.63,17.62a4,4,0,0,0,2.48,3.83,162.8,162.8,0,0,0-2.56,29.15l-4.58,1,.1-3.67s0,0,0-.07,0-.26,0-.4a3,3,0,0,0,0-.42.2.2,0,0,0,0-.07c0-.08-.06-.16-.08-.25a3.22,3.22,0,0,0-.14-.44c0-.11-.11-.21-.16-.31l-.21-.37-.12-.16a3.93,3.93,0,0,0,.8-2.28L87,132.17l6.23-1.41A4,4,0,0,0,91.43,123l-9.25,2.11a1.89,1.89,0,0,0-.18.06,3.31,3.31,0,0,0-.53.18l-.18.08a4.27,4.27,0,0,0-.51.3l-.14.11a4.19,4.19,0,0,0-.45.39l-.11.13a4.17,4.17,0,0,0-.36.47l-.11.19a4,4,0,0,0-.23.46c0,.1-.07.2-.1.3a3.31,3.31,0,0,0-.12.42,3,3,0,0,0,0,.42,2.51,2.51,0,0,0,0,.27l-1.44,49.23a3.71,3.71,0,0,0,.05.67l-3.6-3.61.13-3.49v-.1c0-.13,0-.26,0-.4a3,3,0,0,0-.05-.42.28.28,0,0,0,0-.09,1.69,1.69,0,0,0-.08-.24,3.09,3.09,0,0,0-.14-.43,2.49,2.49,0,0,0-.16-.33,2.43,2.43,0,0,0-.2-.35l-.13-.19a3.94,3.94,0,0,0,.8-2.19l2.24-44,5.85-1.33a4,4,0,0,0-1.78-7.8l-8.79,2-.1,0A5,5,0,0,0,71,116l0,0a3.56,3.56,0,0,0-.6.34l0-1.49,3.36-.76a4,4,0,0,0-1.77-7.8l-5.84,1.32a4,4,0,0,0-1.89-7.76l-11.62,2.64v-2.9l3-.69a4,4,0,0,0-1.77-7.8L47.8,92.55h0l-.07,0-.26.08-.46.16a3.24,3.24,0,0,0-.32.17c-.12.07-.24.13-.36.21a3.36,3.36,0,0,0-.29.24l-.29.26c-.09.09-.16.19-.24.28l-.25.32-.17.31c-.06.12-.13.24-.18.37s-.08.24-.12.37-.08.24-.1.37a3.44,3.44,0,0,0,0,.45c0,.1,0,.2,0,.3L44.48,143a4,4,0,0,0,.29,1.52l-.51.11-1-.76V93.14L287.18,43.93l1.2.73.05,2.13a.08.08,0,0,1,0,0,3,3,0,0,0,.05.43c0,.12,0,.24.05.35s.07.18.09.27.1.31.16.46.1.16.14.25.15.28.24.41.15.17.22.26.18.22.28.32l.25.19a3.37,3.37,0,0,0,.37.29l.06,0,1,.64.07,0,.19.1.38.17.21.07a3.59,3.59,0,0,0,.41.11l.2,0a3.05,3.05,0,0,0,.6.06h0a4,4,0,0,0,.69-.07h.09l1.94-.39,0,.7v0a3.78,3.78,0,0,0,.06.47c0,.1,0,.21,0,.32s.08.21.11.32.08.27.14.4a2.54,2.54,0,0,0,.16.28,2.88,2.88,0,0,0,.22.38,3,3,0,0,0,.22.26,2.92,2.92,0,0,0,.28.32c.08.08.17.13.25.2a3.8,3.8,0,0,0,.38.29l.05,0,2.11,1.29.07,0,.2.1.37.17.21.07a3.59,3.59,0,0,0,.41.11l.2,0a3.05,3.05,0,0,0,.6.06h0a4,4,0,0,0,.69-.07h.09l6.35-1.28,2,1.24.12,4.35a3.44,3.44,0,0,0,.05.45c0,.06,0,.13,0,.19a0,0,0,0,1,0,0,4.4,4.4,0,0,0,.18.62s0,0,0,0a4,4,0,0,0,3.71,2.56h.11a4,4,0,0,0,1.1-.2l2-.41,2.64,1.61,0,1.16v0c0,.15,0,.3.06.45s0,.22.05.33a1.76,1.76,0,0,0,.1.3,3.09,3.09,0,0,0,.14.43c.05.09.11.17.15.26s.14.27.23.4l.22.26c.1.11.18.22.29.32A2.23,2.23,0,0,0,323,70a2.72,2.72,0,0,0,.38.29l.05,0,1.09.67.08,0,.19.1.38.17.21.07a2.75,2.75,0,0,0,.41.11l.2,0a3.8,3.8,0,0,0,.59.06h0a4.15,4.15,0,0,0,.7-.07h.08l4.66-.94,1.52.93.08,2.95s0,0,0,0a3.29,3.29,0,0,0,.05.44c0,.11,0,.23,0,.34s.07.2.1.3.09.29.15.43a1.91,1.91,0,0,0,.16.27,2.36,2.36,0,0,0,.22.38,2,2,0,0,0,.23.28c.09.1.17.21.27.31a2.73,2.73,0,0,0,.25.2,3.27,3.27,0,0,0,.37.28l.05,0,.52.31.07,0,.19.1a2.59,2.59,0,0,0,.38.17l.21.08.41.11.2,0a4,4,0,0,0,.6,0h0a4.05,4.05,0,0,0,.7-.07H339l4.44-.89.07,2.77v0c0,.14,0,.28.06.43s0,.23,0,.35.06.18.09.28a3.29,3.29,0,0,0,.16.44c0,.09.09.17.14.26a4.1,4.1,0,0,0,.23.4l.22.26a2.89,2.89,0,0,0,.29.32c.07.07.16.13.23.19a3.68,3.68,0,0,0,.39.3l.05,0,.6.36.07,0,.19.1.38.17.21.08a3.06,3.06,0,0,0,.41.1l.2.05a4,4,0,0,0,.6,0h0a4.05,4.05,0,0,0,.7-.07h.09l2.11-.43,2.28,1.4,0,.85v0c0,.15,0,.29,0,.43s0,.24.05.36a2.34,2.34,0,0,0,.09.24,3.86,3.86,0,0,0,.16.48l.12.21a4,4,0,0,0,.26.45,1.5,1.5,0,0,0,.2.23,2.59,2.59,0,0,0,.31.35c.06.07.15.12.22.19s.26.21.4.3l.05,0,1.29.8.07,0,.2.11.38.17.2.07a3.25,3.25,0,0,0,.42.11l.2,0a5.61,5.61,0,0,0,.59.06h0a4.15,4.15,0,0,0,.7-.07h.08l6.45-1.3,0,1.3a2.2,2.2,0,0,0,.05.37c0,.11,0,.21,0,.32s0,0,0,0a2.63,2.63,0,0,0,.09.3,3.45,3.45,0,0,0,.14.42c0,.09.08.17.13.26s.14.26.22.39a1.84,1.84,0,0,0,.17.22c.09.12.18.23.28.34l.21.2.33.27.25.16c.12.08.25.14.38.21l.26.12a4.19,4.19,0,0,0,.47.14l.23.06a3.64,3.64,0,0,0,.74.07H370c.11,0,.21,0,.32,0a2.33,2.33,0,0,0,.37,0l1.39-.28.23.15.09,3.38s0,0,0,0a2.32,2.32,0,0,0,.06.45c0,.11,0,.22,0,.33s.07.2.1.31.09.28.15.41a2.34,2.34,0,0,0,.15.27,3.64,3.64,0,0,0,.23.39,1.88,1.88,0,0,0,.22.26,2.92,2.92,0,0,0,.28.32c.08.08.16.13.24.2l.38.29.06,0,.94.57.07,0,.19.1.38.17.21.08.41.11.2,0a4,4,0,0,0,.6,0h0a4.05,4.05,0,0,0,.7-.07h.09l4-.81.06,2.43v0a3.44,3.44,0,0,0,.05.45c0,.11,0,.22.05.33s.07.19.1.29.09.3.15.44.1.17.14.25.15.28.24.41a2.52,2.52,0,0,0,.21.25c.1.11.19.23.29.33s.16.12.24.19l.38.29.05,0,.37.22.07,0,.2.1a3.14,3.14,0,0,0,.37.18l.22.07.41.11.2,0a3.81,3.81,0,0,0,.59,0h0a4.15,4.15,0,0,0,.7-.07h.08l7.49-1.51L397,108l.14,5.3s0,0,0,0a3.41,3.41,0,0,0,.05.46c0,.11,0,.22.05.32s.07.21.1.32.09.28.15.41a2.49,2.49,0,0,0,.15.28c.08.13.14.26.23.38a2.88,2.88,0,0,0,.22.27,2.8,2.8,0,0,0,.28.31,1.22,1.22,0,0,0,.25.2c.12.1.24.2.37.29l.05,0,1.09.66.07,0,.2.1.37.17.21.08.41.11.2,0a4,4,0,0,0,.6,0h0a4,4,0,0,0,.69-.07H403l7.43-1.5.81.49,0,1.43s0,0,0,0a2.32,2.32,0,0,0,.06.46,3.11,3.11,0,0,0,0,.32c0,.12.08.22.11.33s.08.27.14.4l.16.29a3.28,3.28,0,0,0,.22.37,3,3,0,0,0,.23.27,2.73,2.73,0,0,0,.27.31c.08.08.17.13.25.2a3.8,3.8,0,0,0,.38.29l0,0,2.68,1.64.05,1.65v0a3.4,3.4,0,0,0,.06.46,3.11,3.11,0,0,0,0,.32,2.83,2.83,0,0,0,.11.31,3,3,0,0,0,.14.42c0,.09.1.18.15.27s.14.27.23.39l.22.26c.1.11.18.22.28.32l.25.2a3.8,3.8,0,0,0,.38.29l.05,0,1,.64.07,0,.19.1.38.17.21.08.42.11.19,0a4,4,0,0,0,.6.05h0a4,4,0,0,0,.69-.07h.09l7.38-1.49.31.19,0,1.76a.43.43,0,0,1,0,0c0,.14,0,.28.05.42s0,.25.06.36.07.22.11.33a3.17,3.17,0,0,0,.14.4c.05.1.11.19.17.29s.13.25.21.37.15.17.23.26a2,2,0,0,0,.19.22l-250.1,65.33a.57.57,0,0,0,0-.13,4,4,0,0,0-4.71-3.13l-5,1-.18.06-.4.12-.35.14-.35.19-.32.22a3.36,3.36,0,0,0-.29.24,3.44,3.44,0,0,0-.27.27l-.25.3-.21.31a2.31,2.31,0,0,0-.18.35,2.07,2.07,0,0,0-.15.34c0,.12-.08.25-.12.38s-.06.25-.08.38,0,.25,0,.38a2.81,2.81,0,0,0,0,.41,1.2,1.2,0,0,0,0,.19c1.94,21.76,3.45,43.85,4.46,65.65a4,4,0,0,0,.35,1.46ZM154,242c0-.13,0-.24-.06-.36s0-.23,0-.35v0c0-.15-.1-.29-.15-.43l-.12-.33-.18-.3c-.08-.12-.14-.25-.23-.37a3.94,3.94,0,0,0,.8-2.61c-.64-10.75-.75-21.57-.34-32.37,1.63,16.31,2.61,32.77,2.92,49.13l-1.93-2C154.43,248.69,154.21,245.33,154,242ZM98.86,203.38l-.27-.27c-.12-2.19-.24-4.38-.34-6.58a2.34,2.34,0,0,0,0-.26,3.41,3.41,0,0,0-.06-.43c0-.13-.07-.25-.11-.38a3.4,3.4,0,0,0-.12-.34c-.06-.14-.14-.27-.21-.4l-.17-.28-.1-.15a4,4,0,0,0,.8-2.54,155.49,155.49,0,0,1,4.3-43.15l1-.2a1.55,1.55,0,0,0,0,.23c0,.12,0,.25,0,.37s0,.28,0,.43a.48.48,0,0,1,0,.12,384.67,384.67,0,0,1-.34,51,3.85,3.85,0,0,0,.3,1.79ZM57.71,161.23l-.56-.49-.07-3.53c0-.1,0-.19,0-.29s0-.3-.06-.44a3.47,3.47,0,0,0-.13-.46c0-.09,0-.18-.09-.27a4.25,4.25,0,0,0-.29-.56l-.06-.11-.14-.19a4,4,0,0,0,.8-2.36l.24-42.84,8.07-1.83-.14,0a3.17,3.17,0,0,0-.78.33l-.34.2-.31.25-.28.24-.25.3-.23.3c-.07.11-.12.22-.18.33s-.13.23-.18.35-.08.25-.12.37a2.24,2.24,0,0,0-.1.37,3.15,3.15,0,0,0,0,.43,2.85,2.85,0,0,0,0,.29l-.66,47.05a4,4,0,0,0,.29,1.56Zm379-22.13-.07,20a10.44,10.44,0,0,0-6.38-4.33,2.31,2.31,0,0,0-.14-.62c-2.07-5.53-5.71-9.28-10.31-10.67Zm-18.83,9.07a10.35,10.35,0,0,1,6.47,5.43l-7.27-1.47H417c-7.06-1.14-14.53,5.67-17,15.51-2.4,9.45.62,18.42,6.89,21a2.43,2.43,0,0,0,.81.33l6.82,1.41a10.47,10.47,0,0,1-8.4,1.52c-3.38-1-6-4.06-7.49-8.64-3.2-10.07.57-24.11,8.4-31.28C410.56,148.69,414.43,147.34,417.88,148.17Zm-4.23,36.93-4.54-.93c-4.19-1.33-6.13-8.18-4.32-15.32s6.94-12.51,11.38-11.81l4,.81A24,24,0,0,0,412.61,171,22.39,22.39,0,0,0,413.65,185.1Zm8.72,1.8h0l-2.55-.53a2.41,2.41,0,0,0-.52-1.54c-2.22-2.84-2.9-7.72-1.78-12.73s3.94-9.47,7.33-11.46A2.51,2.51,0,0,0,426,159l3,.6H429l0,0c2.77.45,4.87,3.39,5.48,7.65a21.51,21.51,0,0,1-3.44,14.49C428.53,185.56,425.19,187.51,422.37,186.9ZM403.6,148.29c-9.28,8.51-13.58,24.53-9.79,36.48,2,6.22,5.83,10.45,10.85,11.93a13.62,13.62,0,0,0,3.85.55,17.85,17.85,0,0,0,11.28-4.52,2.55,2.55,0,0,0,.76-1.11l.78.17h0a10,10,0,0,0,2,.22c4.25,0,8.63-2.7,11.82-7.41a25.18,25.18,0,0,0,1.34-2.25l0,9.15a3.83,3.83,0,0,0-1,.17L183.24,271.32l-4.14-64.93,225.38-58.87C404.18,147.77,403.89,148,403.6,148.29Z"/><path class="cls-1" d="M340.73,194a3,3,0,1,0-2.84-3A2.9,2.9,0,0,0,340.73,194Z"/><path class="cls-1" d="M355.38,189.73a3,3,0,1,0-2.83-3A2.91,2.91,0,0,0,355.38,189.73Z"/><path class="cls-1" d="M198.34,246.23c.29,7,5.27,11.3,11.12,9.54l86.68-26c5.85-1.76,10.36-8.88,10.07-15.9l-.82-20c-.29-7-5.27-11.29-11.12-9.54l-87.66,23.77c-5.85,1.75-10.36,8.87-10.07,15.9Z"/><path class="cls-1" d="M322.69,188.26,377,174.43c2.54-.64,4.55-3,4.46-5.2l-.31-8.15c-.08-2.21-2.23-3.49-4.77-2.85l-54.26,13.83c-2.53.65-4.54,3-4.46,5.2l.31,8.15C318,187.63,320.15,188.91,322.69,188.26Z"/></g></svg>