<svg id="Layer_1" data-name="Layer 1" xmlns="http://www.w3.org/2000/svg" viewBox="0 0 480 320"><defs><style>.cls-1{fill:#000;}</style></defs><title>Bowers &amp;amp; Wilkins - Formation Wedge</title><path class="cls-1" d="M418,91.78C389.83,67,332.48,42.69,293.32,33.51c-24.7-5.79-54.77-8.17-76.6-6.07C200.78,29,188.25,32.7,167.05,42.21,133,57.48,93.36,93.58,61,138.78,27,186.15,18.64,203.15,24.37,232.43c1.82,9.3,11.23,17.42,23.41,24.2.21.44.41.87.65,1.34l.94-.48c21.4,11.5,50.43,19,62.41,21.82,10.28,2.41,21.19,4.49,32.45,6.26,0,.05,0,.1,0,.15l.58-.06a582.87,582.87,0,0,0,63,6.24s0,.07,0,.1h2.28c7.83.33,15.62.49,23.3.49,11.94,0,23.62-.4,34.76-1.21q4.13-.3,8.2-.75l1.57,0s0-.08,0-.12a217.94,217.94,0,0,0,54.2-13.47h0a247.91,247.91,0,0,0,43.72-22.42c2.15-1.38,4.18-2.71,6.15-4h.05a.08.08,0,0,1,0,0c8.45-5.68,15.78-11.25,27.35-20.3,3.75-2.93,7.35-6,10.8-9.14l.5.05,0-.37h.07a1.94,1.94,0,0,1,0-.24,166.28,166.28,0,0,0,25.39-29.12l.13,0,.15-.46c7.45-11.22,11.89-21.9,12.06-30.28C459,137.8,446.9,117.22,418,91.78Zm25.07,67.51c-.34,3-.67,6-.9,8.93-2.44-2.21-6-3.82-9.68-5.48-5.29-2.39-11.29-5.1-14.81-10l-.09-.11c-2.69-3.13-3.66-10.7-4.7-18.71-1.05-8.2-2.14-16.59-5.17-22.64A46.58,46.58,0,0,0,418,113.12c5.61.55,11.41,1.12,16.5,4.91,2.2,2.66,4.17,5.27,5.93,7.86C445.71,136.12,444.37,147.89,443.06,159.29ZM380.7,243.17c-1.61-2.43-4.23-4.13-6.68-5.71-3.81-2.46-7.42-4.8-8.35-9.5a12.31,12.31,0,0,0-.2-1.45c-.45-6.28,3.37-13,7.4-20.07,3.31-5.81,6.73-11.82,7.86-17.93a16.79,16.79,0,0,0,.23-4.41c4.12,3.72,9.42,6.14,14.26,8.34,7.33,3.34,13.67,6.23,13.67,12.35,0,8.27-7.81,16-15.37,23.55-5,4.92-9.72,9.66-12.46,14.58ZM209.53,285.24c-2.92-5.59-9.28-9.32-15.49-12.95-7.59-4.43-14.76-8.62-14.87-15.63-.08-5.4,6.61-10.87,13.7-16.66,6.36-5.19,13.37-10.94,16.56-17.74,3,6.29,10,11.62,16.71,16.81,7.52,5.8,14.62,11.27,15,17,.4,5.53-6.91,10.08-14.65,14.9-6.76,4.21-13.68,8.53-16.87,14.23Zm-32-34.58c-2.48-4.88-7.39-9.2-12.52-13.7s-10.64-9.34-13.51-14.81a15.14,15.14,0,0,1,1.12-15.55c3.65-5.37,9.59-9.63,15.34-13.75,5.39-3.86,10.55-7.58,13.18-11.93,2.22,6.71,8.33,12.2,14.28,17.55,6.19,5.56,12,10.81,12.39,16.54a7.1,7.1,0,0,1,0,1c-.81,8.09-9.06,14.84-17.05,21.36C185.31,241.82,180.11,246.08,177.52,250.66ZM145.78,279h0c-3.37-5.95-10.88-10.68-17.71-15-6.42-4-13-8.23-13.15-11.87a12,12,0,0,0,.13-1.51c0-.08,0-.15,0-.23,1.22-7.77,10.47-14.06,18.7-19.65,5.32-3.62,10.44-7.1,13.31-10.89a17.58,17.58,0,0,0,1.47,3.84c3.16,6,8.81,11,14.27,15.78,6.56,5.76,12.75,11.19,13,17.27.24,5.16-6.75,8.3-14.13,11.62C155.51,271.15,148.78,274.18,145.78,279Zm-34.25-27.19c-.88,4.83-6.23,6.95-11.89,9.18-3.76,1.48-7.59,3-9.86,5.45L88.43,266c-3.79-7.3-10.62-12.6-16.79-17.38-6.46-5-12-9.31-12.39-14.47,0-.4,0-.8,0-1.21.36-6.09,6.84-9.28,14.28-12.93,5.21-2.56,10.88-5.35,14.62-9.58,1.2,7.37,6.91,14.1,12.49,20.65s10.94,12.89,11,19.08A14.36,14.36,0,0,0,111.53,251.81Zm-59.42-7.45a12.77,12.77,0,0,0,5.54-4.54c2.45,4.16,7.09,7.76,11.92,11.5s10.28,8,13.94,13.14c-14.11-4.65-25.9-9.75-34.73-15C48.29,246.38,49.91,245.51,52.11,244.36Zm-2.94-31.92C43,203.24,36.57,193.76,38.3,186q1.22-2.34,2.63-4.83c4.78-5.33,13.29-8.46,21.55-11.5,6.47-2.38,12.68-4.67,17-8,0,6,2.57,12.87,5,19.61,2.87,7.79,5.83,15.85,4.18,21l0,.15C87.05,209.64,79.41,213.39,72,217c-5.62,2.76-11.37,5.59-14.26,10C55.92,222.47,52.61,217.54,49.17,212.44Zm41-99.75c4.37-3.16,10.86-5.42,17.17-7.61,5.46-1.89,11-3.83,15.57-6.44-1,4-.49,8,0,11.86.61,5.19,1.25,10.56-1.36,16.07l-.11,0c-2.79,7.35-12.29,11.49-21.47,15.5-5.34,2.33-10.49,4.59-14.28,7.45a58.37,58.37,0,0,0-1-11.57c-1.06-6.8-2.14-13.8.82-19.73C87,116.34,88.61,114.51,90.2,112.69ZM144,63.24l1.35-.92a120.34,120.34,0,0,0,15.78,7c-4.59,5.61-11.13,8.5-17.47,11.3a91,91,0,0,0-9.1,4.44,53,53,0,0,0,1.95-6.63C137.78,73.39,139,68.63,144,63.24ZM380.1,74.5a21.91,21.91,0,0,1,2.62,2.35c4.54,4.87,7,10.54,9.33,16a73.65,73.65,0,0,0,4.28,8.87c-4.75-1.8-10.41-2.91-15.94-4-7.92-1.55-16.1-3.15-20.74-6.68l-.48-.36c-.61-.47-1.23-.93-1.85-1.39-4.2-3-6.92-7.47-9.8-12.14a60.49,60.49,0,0,0-8.88-12,72.69,72.69,0,0,0,13.42,1.64,70.54,70.54,0,0,1,18.7,3c.58.18,1.14.37,1.7.57Q376.38,72.46,380.1,74.5ZM375.5,156c-.58,5.64-1.17,11.4-.62,16.32-.25-.21-.49-.42-.75-.62-5.23-4-12.05-6.72-18.64-9.35-8-3.2-15.62-6.23-18.73-11S334,140,334.24,133.06c.24-6,.48-12.11-1.21-17.89,3.46,1.81,7.79,2.92,12.57,4.14,9.3,2.37,19.84,5.06,27.9,14C377.39,137.56,376.43,146.92,375.5,156Zm-68.67,85c-2.67-5-9.05-8.93-15.73-13-6.15-3.78-12.51-7.7-16-12.48a13.09,13.09,0,0,1-1.94-11.4c1.27-4.31,4.13-8.54,7.15-13,4.21-6.22,8.89-13.16,9.6-21.38,3.77,5,10.28,8.76,17.11,12.66,8.13,4.63,16.52,9.42,19.6,16.44,3.39,7.72-4,18.21-11.07,28.36C312.12,231.92,308.84,236.6,306.83,240.92Zm-52-49c-8.53-5.85-17.34-11.89-17.35-17.92,0-5.32,3.79-10.51,7.82-16,3.72-5.07,7.78-10.64,9.05-16.93,3.91,5,10.52,8.37,17,11.69,7.62,3.92,14.81,7.62,15.23,13,.7,8.87-4.26,16.19-9.05,23.28-3.18,4.7-6.18,9.14-7.59,13.95-.1.32-.15.64-.23,1C266.37,199.86,260.71,196,254.82,191.94Zm-45.55,16.7c-2.45-4.45-6.94-8.49-11.61-12.68-6.84-6.15-13.92-12.51-14-20.15-.08-5.49,5.44-10.65,11.27-16.12,5.09-4.76,10.67-10,13.45-16.38,2.63,5.76,8.09,10.4,13.43,14.93,6.12,5.2,11.91,10.1,12.33,15.91s-5.47,11.67-11.72,17.87C217.13,197.24,211.77,202.59,209.27,208.64ZM182,169.34c-1.58-4.32-4.8-8.25-7.95-12.08-3.52-4.28-7.16-8.71-8.54-13.64A14.78,14.78,0,0,1,167.31,132c3.13-5.08,7.88-8.54,12.48-11.9,3.89-2.83,7.63-5.57,10.11-9.09,1.68,5.15,5.8,9.71,9.58,13.89s7.25,8,7.25,11.15c-.46,8.39-7.42,14.9-14.14,21.2C188.29,161.25,184.17,165.12,182,169.34ZM148.47,207c-1.82-5.46-5.78-11.49-9.65-17.38-4.61-7-9.35-14.21-8.8-18.4,0-.06,0-.11,0-.17.12-.41.21-.81.29-1.21,2.35-7.26,11.1-13,18.88-18.07,4.83-3.15,9.47-6.19,12.54-9.5a15.3,15.3,0,0,0,.44,2.24c1.56,5.62,5.43,10.33,9.17,14.88,4.35,5.29,8.45,10.28,8.16,15.86-.27,5.32-6.73,10-13.57,14.85-6,4.29-12.17,8.72-16.16,14.59A19.3,19.3,0,0,0,148.47,207ZM126.81,170c0,.15,0,.32-.08.48-1.67,5.32-8.92,9.3-16.6,13.51-6.62,3.63-13.39,7.35-17.75,12.45-.56-4.91-2.6-10.46-4.72-16.23-3.09-8.41-6.28-17.1-4.16-22.87a13,13,0,0,0,.83-1.62c2.77-4.31,9.69-7.34,17-10.53,6.88-3,13.9-6.08,18.63-10.63a20.9,20.9,0,0,0,0,3.26c.48,4.78,2.19,9.32,3.84,13.71,2.26,6,4.4,11.73,3.26,17.51C127,169.31,126.89,169.62,126.81,170Zm3.13-77.08c3.93-4.23,9.37-6.66,15.12-9.19,5.11-2.26,10.34-4.58,14.78-8.3a41.53,41.53,0,0,0-.74,10c.09,4.57.17,8.52-3.45,15.46-2.68,5.16-8.12,7.74-14.41,10.74-4.77,2.26-9.69,4.6-14,8.36-.2.17-.38.35-.57.53a46.07,46.07,0,0,0-.4-10.4c-.7-5.93-1.3-11,2.54-16C129.21,93.73,129.58,93.3,129.94,92.87ZM181.81,80.7c.39,4.88,2.44,8,4.33,10.94,2.28,3.5,4.25,6.53,3.17,12.38s-5.89,9.24-11.51,13.34c-4,2.9-8.39,6.13-11.76,10.55-.69-4.1-2.79-7.78-4.73-11.18-2.93-5.12-5.47-9.55-2.71-14.21,3.29-5.56,8.2-9.22,13-12.76C175.18,87.06,178.89,84.3,181.81,80.7ZM127,150.3c-1.58-4.19-3.2-8.52-3.64-12.86a17.55,17.55,0,0,1,6.08-14.91c4-3.46,8.69-5.7,13.25-7.87,4.18-2,8.21-3.91,11.41-6.64.41,3.6,2.36,7,4.28,10.39,3.05,5.32,5.92,10.35,3.78,16.46-.13.37-.24.75-.35,1.13-1.25,4.37-7.64,8.54-14.41,13-6.06,3.95-12.66,8.28-16.83,13.61A56.57,56.57,0,0,0,127,150.3Zm97.42-48c0,.35.05.7.09,1.07,0,4.33-3.67,8.72-7.53,13.37-3.31,4-6.94,8.37-8.88,13.45a56.62,56.62,0,0,0-6.12-7.54c-5.12-5.65-10.41-11.5-9.34-18,.66-4,3.59-7.13,7-10.73,2.91-3.08,6.07-6.45,8-10.83,2,4.25,5.8,7.32,9.27,10.13C220.64,96.17,223.88,98.81,224.42,102.26ZM224,155.67c-6.79-5.76-13.81-11.71-13.85-19.49.55-6.58,5.09-12,9.48-17.33,2.72-3.28,5.34-6.44,6.88-9.74,2.67,4.53,7.58,8.09,12.38,11.56,5.88,4.24,11.44,8.25,12.24,13.54,1.56,8.1-3.56,15.08-8.51,21.82-2.85,3.89-5.59,7.63-7.15,11.55C232.93,163.29,228.53,159.55,224,155.67Zm6.56-64.06c1.54-3.24,3.21-6.8,3.46-11.87,2.69,2.72,6.25,4.39,9.75,6,5.21,2.42,10.15,4.73,12.64,10.32a24,24,0,0,0,.82,2.26c2.57,9,.14,14.06-2.44,19.38A36.41,36.41,0,0,0,251.3,127c-2.66-3.37-6.62-6.22-10.49-9-6-4.35-12.26-8.85-12.94-14.84,0-.33,0-.66-.06-1C227.56,97.9,228.92,95,230.51,91.61Zm52.6-6.77c.33.39.68.79,1.06,1.2,5.85,7.2,6.22,16,6.58,24.59.1,2.37.2,4.67.41,6.88-3.94-3.66-9.14-5.86-14.22-8-7.1-3-13.8-5.82-16.59-12.33a21.35,21.35,0,0,0-.8-2.22c-1.26-4.17-.9-7.8-.55-11.32a28.38,28.38,0,0,0-.19-9.79,49.25,49.25,0,0,0,8.9,3.2C273.15,78.64,278.77,80.27,283.11,84.84ZM344.65,79c1.26,2.05,2.51,4.05,3.86,5.94-6.46-2.5-12.62-3.36-18.11-4.12-6.61-.91-12.32-1.7-16.76-5-4.1-3.08-6.13-6.45-8.29-10a46.19,46.19,0,0,0-7.45-10,111.06,111.06,0,0,0,13.84,2.44c6.33.82,12.31,1.6,17.39,4.24C337,66.48,340.87,72.82,344.65,79ZM331.11,145.2c-4.79-3.71-11.22-6.63-17.52-9.48-8.2-3.71-15.93-7.21-17.63-11.5-1.43-3.8-1.63-8.62-1.84-13.73-.26-6.18-.56-12.95-3.07-19.26a96.05,96.05,0,0,0,12.75,5.52c7.34,2.78,14.93,5.66,20.71,10.79a16.7,16.7,0,0,1,4.14,5.48c2.77,6,2.49,13.09,2.22,19.91A68,68,0,0,0,331.11,145.2Zm-44.43,13.52c-3.22-3.46-8.42-6.15-13.82-8.93-8.17-4.2-16.62-8.55-18.35-15.68a5.51,5.51,0,0,1-.16-1c-.51-5.81,1.4-9.75,3.43-13.93s4.06-8.42,3.85-14.47c3.83,3.61,9,5.79,14,7.91,7.3,3.07,14.19,6,17.21,12.87,3.2,7.3.32,14.25-2.47,21C288.7,150.48,287,154.59,286.68,158.72Zm44.45-49.07c-5.36-5.67-7.49-11.94-9.55-18a65.12,65.12,0,0,0-4.08-10.11,62.28,62.28,0,0,0,12.44,2.58c5.85.8,12.47,1.72,19.24,4.69a24,24,0,0,1,12.66,12.77,85,85,0,0,1,3.75,12.68,90.74,90.74,0,0,0,2.89,10.33c-7.24-4.76-15.25-6.82-22.05-8.55C339.86,114.37,334.19,112.92,331.13,109.65ZM309.41,76.6c5,4.38,6.92,10.09,9,16.14.94,2.78,1.9,5.61,3.17,8.42-5.15-3.23-10.93-5.43-16.57-7.56-7.24-2.74-14.07-5.33-18.3-9.8h0c-.35-.43-.71-.83-1.08-1.22a13.23,13.23,0,0,1-3.3-8.17,18.78,18.78,0,0,0-2.71-8.57,65.12,65.12,0,0,0,9,2.15C295.52,69.31,302.66,70.67,309.41,76.6Zm-.75,102.73c-8.05-4.59-15.65-8.93-18-15.1-1.92-5.13.36-10.64,2.78-16.48,2.12-5.11,4.43-10.71,4.1-16.7,3.76,2.83,9.09,5.24,14.61,7.74,8.95,4.05,18.19,8.23,21.7,14.27,3.69,6.36.05,15.78-3.46,24.9-1.9,4.91-3.73,9.65-4.33,13.84C321.7,186.77,315.1,183,308.66,179.33ZM376,131c-3.95-4.27-5.49-10.7-7.12-17.51A87.78,87.78,0,0,0,365,100.29a26.65,26.65,0,0,0-1.74-3.46c4.84,2,10.75,3.11,16.52,4.24,8.41,1.64,17.1,3.34,21.71,7.35,5.34,4.64,6.8,16,8.09,26a110.32,110.32,0,0,0,2.24,13.42c-5.35-3.51-11.65-5.66-17.76-7.75C386.78,137.6,379.94,135.27,376,131ZM352.25,63.5c-5.89-.34-11.46-.65-18.92-3.41-4.75-1.76-7.81-4.43-11.35-7.52a77.47,77.47,0,0,0-8.07-6.38,376.78,376.78,0,0,1,45.62,17.87C357,63.77,354.6,63.63,352.25,63.5ZM296.11,41.6c12.8,4.06,18.56,9.07,23.65,13.51l1.26,1.1c-2.85-.59-5.81-1-8.84-1.38-7.14-.93-14.5-1.89-22.14-5.46A33.49,33.49,0,0,0,296.11,41.6Zm-8.83,10.28c9.08,5.46,12.19,10.6,15.19,15.57l.69,1.14a59.31,59.31,0,0,0-13.92-3.91c-5.28-1-9.93-1.89-13.8-4.63A76.56,76.56,0,0,0,287.28,51.88Zm-15.22,10c6.09,6.12,6.49,9.43,6.9,12.92a28.88,28.88,0,0,0,.48,3.06,52.55,52.55,0,0,0-10.79-4c-4.67-1.36-8.79-2.57-11.74-5.36A123.24,123.24,0,0,0,272.06,61.88Zm-18.71,7.81c3.18,4.87,2.77,9,2.3,13.62a50.66,50.66,0,0,0-.35,5.55c-3-2.84-6.71-4.57-10.16-6.17-4.65-2.16-8.73-4.06-10.8-8.11A146.12,146.12,0,0,0,253.35,69.69Zm-22.93,5.57c.83,6.88-1.09,11-3,14.91a36.75,36.75,0,0,0-2.39,6,40.68,40.68,0,0,0-6-5.57c-4.49-3.64-9.1-7.4-9.52-13.45A145.89,145.89,0,0,0,230.42,75.26Zm-33.25,16.3a58.78,58.78,0,0,0-4.67,5.37A23.56,23.56,0,0,0,189,89.8c-2.41-3.7-4.69-7.21-3.54-14.36a141,141,0,0,0,20.51,1.66C204.94,83.31,201,87.5,197.17,91.56Zm-27.63-4.5a87.19,87.19,0,0,0-7.49,6,36.17,36.17,0,0,0,.42-7.72,35.6,35.6,0,0,1,2.3-14.83,131,131,0,0,0,16.9,4.28C179,80,174.39,83.45,169.54,87.06ZM103.2,228.93c-6.9-8.12-14-16.51-11.32-25.26,2.61-7.32,11.38-12.12,19.87-16.77,6.2-3.4,12.14-6.66,15.61-10.85,1.5,4.57,5,9.9,8.64,15.44,5.12,7.78,10.92,16.6,10.05,22.35l0,.15c-.3,4.53-7.05,9.12-14.2,14-6.87,4.67-14.4,9.79-18.06,16.17C111.75,239,107.56,234.07,103.2,228.93Zm125,7.47c-8.36-6.44-17-13.1-17-20.85s6.9-14.51,13.57-21.14c4.74-4.71,9.29-9.23,11.44-14,3.32,5.14,10.08,9.8,16.71,14.34,7.63,5.23,15.53,10.65,16.3,15.78,1.49,7.75-6.63,16.17-14.48,24.32-5.07,5.25-9.92,10.29-12.2,15.19C239.63,245.23,234,240.9,228.19,236.4Zm16.35,19.48c-.33-5.3,6.25-12.12,12.61-18.72S270,223.87,272.07,217c.1.14.18.29.28.43,3.91,5.3,10.55,9.4,17,13.36,7.82,4.81,15.2,9.36,15.44,14.88.4,9.17-5.1,12.78-12.08,17.35-6.62,4.33-14,9.18-16.94,19.76-3.46-6.11-10.48-9.91-16.88-13.36C251.7,265.51,244.92,261.86,244.54,255.88Zm50,9.92c4.72-3.1,9.55-6.26,12-11.48,2.45,3.48,7.13,5,11.41,6.32,6.29,2,11.49,3.63,11.61,10a210.87,210.87,0,0,1-50.48,12.77C281.76,274.19,288.23,269.93,294.54,265.8ZM319,257.42c-6.68-2.1-10.77-3.66-10.77-9,0-5,4.9-12.05,10.1-19.47,5.68-8.12,11.51-16.44,12.41-24.06,4.38,4.59,10.69,7.56,16.46,10.26,7.13,3.34,13.86,6.49,15,11.76,0,.48.1.93.18,1.38.35,6.31-6,12.28-13.19,19.13-6,5.66-12.55,11.88-16.74,19.54C330.52,261.08,324.28,259.1,319,257.42Zm29.63-45.28c-7.85-3.68-16-7.48-18.87-14.71-1.58-4.18,1.06-11,3.85-18.26,2.69-6.95,5.62-14.59,5.15-21.24,4.14,3,9.72,5.2,15.52,7.51,6.38,2.54,13,5.17,17.84,8.9a14.08,14.08,0,0,1,5.34,13.56c-1,5.54-4.31,11.3-7.48,16.87-3,5.28-6.08,10.69-7.31,16.08C359.44,217.22,354.12,214.73,348.59,212.14Zm48-22.77c-6.45-2.94-13.13-6-16.71-11.61-2.77-4.73-1.89-13.23-1-21.45.68-6.61,1.37-13.36.24-18.72,4,2.31,8.83,4,13.85,5.68,6.72,2.29,13.68,4.67,19,8.82a13.21,13.21,0,0,1,4.42,6.11c3,8.73.38,16.2-2.68,24.84a86.15,86.15,0,0,0-4.15,14.34C406.63,193.94,401.71,191.7,396.61,189.37Zm20.27-5.2c2.81-7.95,5.47-15.5,3.53-24.08a61.06,61.06,0,0,0,10.68,5.72c6.19,2.8,10.18,4.78,10.8,8.23,0,.13,0,.26,0,.4q0,1,.06,1.92c-.53,9.65-6.6,16.18-12.48,22.5-3.92,4.2-7.92,8.5-10.18,13.67a9.48,9.48,0,0,0-3.92-3c-1.93-1-3.1-1.55-3.1-4.7C412.26,197.19,414.61,190.57,416.88,184.17Zm11.87-72.71a55.29,55.29,0,0,0-10.39-1.69c-5.51-.54-10.71-1-14.83-4.5-3.9-3.26-6.08-8.34-8.39-13.72a75.39,75.39,0,0,0-6-11.86,170.29,170.29,0,0,1,24.38,17.15C419.31,101.92,424.36,106.77,428.75,111.46ZM169.81,48.37c20.7-9.29,32.25-12.75,47.55-14.22,21.17-2,50.38.29,74.42,5.93l1.16.28c-5.15,9-19.59,18.72-37.83,25.17-35.75,12.64-75.31,10.6-106.55-5.34A153,153,0,0,1,169.81,48.37ZM136,69.13a46.2,46.2,0,0,0-2.71,8.46c-1.07,4.33-2.1,8.44-5.68,12.83-.46.49-.91,1-1.33,1.53-4.23,4.48-12.24,7.26-20,10-3.23,1.12-6.51,2.26-9.58,3.55A309.35,309.35,0,0,1,136,69.13ZM66.45,142.71q6.74-9.41,13.87-18.24c-.44,4.68.3,9.49,1,14,.91,5.82,1.77,11.35,0,15.69a11.58,11.58,0,0,0-.83,1.65c-3,4.79-10.84,7.68-19.17,10.74-5.44,2-11,4.05-15.68,6.77C51,164.73,57.81,154.76,66.45,142.71ZM31,231.14c-2.67-13.62-2.19-24.22,4.1-38.49,1.51,7.18,6.6,14.73,11.28,21.67s9.17,13.61,9.5,18.71c0,.37,0,.75,0,1.14-.31,4.59-2.63,5.8-5.32,7.2s-4.84,2.89-5.18,6C37.07,241.92,32,236.39,31,231.14Zm62.62,36.45a37.47,37.47,0,0,1,7.27-3.46c4.58-1.81,9.57-3.79,12.24-7.53,2.46,3.54,7.53,6.73,13.14,10.27,5.46,3.44,11.37,7.18,14.87,11.38-9.63-1.6-18.95-3.43-27.81-5.5Q103,270.32,93.61,267.59Zm55.92,12c2.75-3.26,8-5.64,13.52-8.11s11.3-5.09,14.2-8.9c2.74,5.43,9,9.08,15.09,12.65,5.22,3,10.23,6,13.07,9.83C186.58,284.11,167.62,282.26,149.53,279.57Zm118.14,5a507.11,507.11,0,0,1-54.08.83c3.16-4.31,9-8,14.72-11.52,6.19-3.84,12.11-7.55,14.77-12.11,2.89,4.48,8.6,7.58,14.19,10.59,6.09,3.28,12.32,6.65,15.37,11.77C271,284.27,269.33,284.44,267.67,284.56Zm104.55-35.78a244.62,244.62,0,0,1-36.63,19.41c4-7,10.18-12.93,15.84-18.29,5.84-5.52,11.13-10.53,13.27-15.94,2.05,2.81,4.95,4.7,7.49,6.33s4.65,3.08,5.74,4.76C376.1,246.27,374.23,247.5,372.22,248.78Zm33-24c-5.77,4.51-10.38,8.07-14.52,11.16,1.63-1.71,3.37-3.45,5.14-5.21,6.33-6.28,12.8-12.73,15.3-19.91a11.44,11.44,0,0,0,2.66,1.69,5.78,5.78,0,0,1,2.95,2.43C413.13,218.34,409.27,221.64,405.27,224.78Zm46.56-64.34c-.11,5.26-2.32,11.74-6.13,18.8a19.53,19.53,0,0,1-.39-2.94c0-.43.05-.85.05-1.28a8.49,8.49,0,0,0-.09-1.26,136.65,136.65,0,0,1,1.14-14.08c.82-7.1,1.64-14.34,1-21.39A52.37,52.37,0,0,1,451.83,160.44Z"/></svg>