<svg xmlns="http://www.w3.org/2000/svg" viewBox="0 0 480 320"><defs><style>.cls-1{fill:#000;}</style></defs><g id="Layer_4" data-name="Layer 4"><path class="cls-1" d="M297.1,152.28c0-9.65-.14-19.3-.39-28.67l-.06-2.54c0-1.7-.1-3.38-.15-5s-.11-3.33-.17-5-.12-3.28-.18-4.9c0-.8-.07-1.61-.1-2.41-.06-1.6-.13-3.18-.2-4.75s-.14-3.11-.21-4.64-.14-3-.21-4.52c-.19-3.72-.38-7.3-.57-10.72-.12-2.06-.23-4-.35-6-.5-8.38-1-15.55-1.4-21.07-.07-.85-.13-1.65-.19-2.42-.46-6.14-.77-9.65-.77-9.65h0a6.7,6.7,0,0,0-.23-1.85.29.29,0,0,0,0-.09l-.15-.48a.14.14,0,0,1,0-.06.59.59,0,0,0,0-.08c-.05-.15-.11-.29-.17-.43l-.07-.16-.2-.39-.09-.18c-.08-.13-.15-.26-.24-.39a.75.75,0,0,0-.07-.12l0,0-.37-.53a9.37,9.37,0,0,0-.72-.89c-3.7-4.13-12.23-8.35-26.6-12.57-1-.31-2.08-.61-3.17-.91q-4.35-1.21-8.37-2.14-2.68-.63-5.23-1.14l-2.51-.49c-1.65-.3-3.26-.57-4.82-.81-3.92-.59-7.59-1-11-1.17-1.38-.08-2.73-.14-4-.16l-1.95,0h0c-9,0-18.71,1-32,4.35q-2.85.71-5.92,1.56c-13,3.62-21.79,7.26-26.82,10.84a16.67,16.67,0,0,0-3.79,3.56h0c-.13.17-.25.35-.36.52l-.1.17c-.08.12-.16.25-.23.38a1.62,1.62,0,0,0-.1.18l-.19.38-.08.18c-.06.13-.12.27-.17.4a1.42,1.42,0,0,0-.05.16,4.11,4.11,0,0,0-.15.46l0,.11A6.67,6.67,0,0,0,151.8,40h0s-.06.67-.16,1.94c0,.36-.07.77-.1,1.23-.06.69-.12,1.49-.19,2.38s-.15,1.89-.24,3c-.19,2.54-.42,5.59-.66,9.09q-.21,3-.44,6.41c-.07,1.14-.15,2.31-.22,3.51-.15,2.39-.31,4.92-.46,7.55-.08,1.31-.16,2.66-.24,4-.15,2.73-.3,5.58-.45,8.51s-.3,5.94-.44,9c-.07,1.55-.13,3.11-.2,4.69,0,.8-.07,1.59-.1,2.39-.06,1.6-.13,3.22-.19,4.85-.24,6.52-.44,13.28-.59,20.16q-.09,3.87-.15,7.78l0,2.61c-.06,4.36-.09,8.75-.09,13.14h0c0,7.89.1,15.79.27,23.52l.06,2.58c.14,6,.32,11.88.53,17.58,0,.82.06,1.63.1,2.44.06,1.61.12,3.21.19,4.8,0,.79.07,1.58.1,2.36.84,19.23,1.93,35.74,2.71,46.36h0V252c.14,1.9.27,3.61.39,5.11,0,.34.05.67.07,1,.18,2.32.33,4.06.42,5.15v0c0,.32,0,.59.07.79v.06c0,.29,0,.45,0,.45h0c0,.16,0,.32,0,.48l0,.21,0,.25v0h0a2.21,2.21,0,0,0,.05.25,2,2,0,0,0,0,.24c0,.09.05.18.07.27l.06.22v.06c.05.18.12.35.18.53v0c.07.17.14.35.22.53h0l.06.12c.08.18.17.35.26.53l0,0c.09.18.19.35.3.53h0l.11.18.18.27.18.27.07.11.08.11h0l.23.31.19.25.36.44.15.17a1,1,0,0,0,.13.16l.26.29.1.11,0,.05h0l.17.18.35.37a.57.57,0,0,1,.11.11l.15.15a.8.8,0,0,1,.13.13h0l.27.26.53.49.07.06h0l.06.06h0l.14.12.5.45.27.23.72.59.24.19.5.39.14.11.25.2.43.31.16.13.28.2.25.18.8.57.11.08.1.07.48.33.15.1.39.26h0l.27.18h0l.5.33.5.32.14.09,1.17.74.3.18,1.26.76a103.93,103.93,0,0,0,54.73,15.11h0A108,108,0,0,0,260,288.54c1.15-.44,2.29-.89,3.43-1.37q3.4-1.43,6.75-3.1c2.22-1.12,4.43-2.32,6.6-3.61l1.26-.76.29-.18,1.18-.73v0l.13-.08c.34-.21.67-.43,1-.65l.26-.17,1-.69.22-.15.35-.25.45-.32.25-.18.86-.64.05,0,.21-.16h0l.64-.5a2.11,2.11,0,0,0,.23-.19c.25-.2.49-.39.72-.59h0l.27-.23.51-.45h0l.28-.25.41-.38,0,0,.09-.09.27-.26.17-.16.14-.14.08-.09.36-.37h0l.31-.33h0c.09-.1.17-.2.26-.29h0l.27-.32.36-.44c.07-.08.13-.17.19-.25l.24-.31.14-.21.37-.55.1-.18h0c.11-.17.21-.35.31-.53v0c.1-.18.18-.35.27-.52a.61.61,0,0,1,0-.12h0c.08-.18.16-.36.23-.54v0a4.72,4.72,0,0,0,.18-.53h0l0-.05.06-.22c0-.09.05-.18.07-.27s0-.16.05-.24,0-.16.05-.25h0l0-.27,0-.19,0-.48h0s0-.07,0-.2v0l0-.22v0c.28-3.2,1.84-21.84,3.12-47.12l.12-2.22c.33-6.69.64-13.81.9-21.21.06-1.65.11-3.31.17-5s.1-3.35.15-5l.06-2.55c.25-9.37.39-19,.39-28.66ZM275.35,272l-.13.08-1.08.67-.26.16-1.17.71a101.15,101.15,0,0,1-50.82,14,95.31,95.31,0,0,1-50.64-14l-1.18-.7-.26-.17c-.37-.22-.73-.45-1.1-.69l-.1-.06-.91-.59-.06,0-.17-.12-.91-.61-.08-.06-.11-.08-.7-.5-.09-.06-.13-.09-.74-.55-.13-.11-.08-.06-.54-.42-.11-.09-.08-.06-.58-.49-.22-.18-.42-.37-.19-.17L162,267l-.19-.19-.28-.28-.24-.25-.21-.23-.16-.18c-.06-.06-.11-.13-.17-.2l-.2-.25-.11-.13-.1-.14,0,0-.06-.09-.15-.23,0-.07c-.07-.12-.13-.24-.19-.36l0-.09v-.62c1.19.77,2.6,1.61,4.27,2.59a112.07,112.07,0,0,0,57.84,15.65h0a117,117,0,0,0,58-15.69l2.54-1.47,1.73-1v.53a.8.8,0,0,1,0,.11,2.92,2.92,0,0,1-.18.33l0,.06-.16.24-.06.1-.13.16-.1.13c-.06.09-.13.17-.2.26l-.17.19-.17.19-.2.22-.24.25-.28.28L282,267l-.39.36-.22.2-.4.34-.21.18-.58.49-.08.06-.11.09-.54.42-.09.07-.12.09c-.24.19-.49.37-.74.55l-.12.09-.1.07-.7.49-.11.08-.08.06-.9.61-.19.12-.05,0ZM159.8,40.13l.14-.21c.63-.86,4.85-5.46,26.29-11.41,14.19-3.94,24.89-5.62,35.77-5.62h0c10.45,0,22.17,1.85,35.81,5.64,21.32,5.93,25.54,10.52,26.17,11.38a2.51,2.51,0,0,1,.14.21l-.09,4.44a55,55,0,0,1-9.81,7A104.2,104.2,0,0,1,221.89,66a99.65,99.65,0,0,1-52.18-14.4,55.1,55.1,0,0,1-9.83-7.06Zm7.36,15.8c7,4.16,11.12,6.52,18,8.86l.4.8c0,5.71-3.64,13.89-7.48,22.55-2.26,5.08-4.55,10.25-6.31,15.3-1.49-7.41-3.64-15.81-5.75-24-2.89-11.25-5.62-21.94-6.22-28.36A77.06,77.06,0,0,0,167.16,55.93Zm117-4.93c-.58,6.42-3.33,17.12-6.21,28.39-2.12,8.24-4.27,16.64-5.76,24-1.75-5-4.05-10.22-6.3-15.3-3.85-8.66-7.49-16.84-7.49-22.55V65c7.31-2.41,11.53-5,18.41-9.08A78.16,78.16,0,0,0,284.15,51ZM205,134.52c1.48,4.21,3.51,8.71,5.6,13.35,4.38,9.75,8.92,19.83,8.92,28.1,0,5.71-3.63,13.78-7.48,22.32a173,173,0,0,0-6.93,17,195,195,0,0,0-7-18.26c-3.86-9.14-7.5-17.76-7.5-23.5,0-8.25,4.52-17.63,8.9-26.7C201.49,142.56,203.48,138.44,205,134.52Zm34,0c1.48,3.91,3.46,8,5.51,12.27,4.37,9.07,8.89,18.45,8.89,26.7,0,5.74-3.64,14.36-7.5,23.5-2.57,6.1-5.2,12.33-7,18.26a170.59,170.59,0,0,0-6.93-17c-3.85-8.54-7.48-16.61-7.48-22.32,0-8.27,4.54-18.35,8.93-28.1C235.48,143.23,237.51,138.73,239,134.53Zm-2.68,93.92c0,5.7-3.63,13.77-7.47,22.31A173.31,173.31,0,0,0,222,267.54a173.31,173.31,0,0,0-6.87-16.78c-3.84-8.54-7.47-16.61-7.47-22.31,0-8.28,4.54-18.36,8.92-28.11,2-4.45,4-8.78,5.42-12.85,1.46,4.07,3.41,8.4,5.42,12.85C231.78,210.09,236.31,220.17,236.31,228.45Zm-7.47-82.63A173.31,173.31,0,0,0,222,162.6a173.31,173.31,0,0,0-6.87-16.78c-3.84-8.54-7.47-16.61-7.47-22.32,0-8.28,4.54-18.35,8.92-28.1,2-4.45,4-8.79,5.42-12.85,1.46,4.06,3.41,8.4,5.42,12.85,4.39,9.75,8.92,19.82,8.92,28.1C236.31,129.21,232.68,137.28,228.84,145.82Zm-24,93.43c1.48,4.27,3.54,8.84,5.67,13.56,3.19,7.11,6.46,14.38,8,21a104,104,0,0,1-27.27-4.35c1.44-6.31,4.82-12.74,8.13-19C201.43,246.62,203.4,242.88,204.88,239.25Zm28.52,13.56c2.12-4.71,4.18-9.29,5.67-13.56,1.47,3.63,3.44,7.37,5.47,11.21,3.27,6.21,6.62,12.57,8.09,18.83a108.71,108.71,0,0,1-27.24,4.53C226.93,267.19,230.2,259.91,233.4,252.81ZM273,234.18a72.12,72.12,0,0,0,4.05,6.72c2.7,4.11,5.46,8.34,6.63,13.68a55.4,55.4,0,0,1-5.26,3.21l-2.56,1.48a105.59,105.59,0,0,1-16.19,7.65c1.66-6.16,4.68-12.79,7.63-19.27C269.45,243,271.52,238.42,273,234.18Zm-10.24,11.39a165.45,165.45,0,0,0-7,16.95A124.67,124.67,0,0,0,249,248.13c-3.81-7.23-7.41-14.06-7.41-19.68,0-8.31,4.55-19.09,8.95-29.51,2.05-4.86,4.05-9.59,5.52-13.94,1.45,3.77,3.36,7.73,5.32,11.79,4.37,9.08,8.9,18.46,8.9,26.7C270.24,229.2,266.61,237.15,262.77,245.57Zm3.07-50.95c-3.83-7.94-7.45-15.45-7.45-21.12,0-8.31,4.55-19.08,8.95-29.5,2-4.71,3.92-9.29,5.38-13.53,1.17,3.28,2.63,6.68,4.14,10.15,3.64,8.43,7.41,17.15,7.41,25.45,0,5.84-3,15.06-6.28,24.82-2.06,6.2-4.15,12.52-5.64,18.47A158.71,158.71,0,0,0,265.84,194.62Zm-3.1-52.57c-2.56,6-5.15,12.21-7,18.08a152.82,152.82,0,0,0-6.78-15.5c-3.83-7.95-7.45-15.45-7.45-21.13,0-8.34,4.56-20,9-31.17,2-5.19,4-10.24,5.49-14.83,1.45,4,3.35,8.28,5.3,12.67,4.39,9.88,8.93,20.1,8.93,28.38C270.24,124.29,266.59,132.92,262.74,142.05ZM245.87,90.5c-2.6,6.61-5.24,13.35-7.05,19.64A174.51,174.51,0,0,0,232,93.35c-3.85-8.54-7.48-16.61-7.48-22.32h-5c0,5.71-3.63,13.78-7.48,22.32a174.51,174.51,0,0,0-6.87,16.79c-1.8-6.29-4.45-13-7.05-19.64-3.69-9.38-7.17-18.26-7.49-24.07A104.78,104.78,0,0,0,221.89,71h0a107.3,107.3,0,0,0,31.44-4.79C253.12,72,249.6,81,245.87,90.5Zm-63.23-.33c2-4.39,3.84-8.66,5.29-12.67,1.46,4.59,3.45,9.64,5.49,14.83,4.41,11.22,9,22.83,9,31.17,0,5.68-3.62,13.18-7.45,21.13a152.82,152.82,0,0,0-6.78,15.5c-1.8-5.87-4.4-12-6.95-18.08-3.86-9.13-7.5-17.76-7.5-23.5C173.71,110.27,178.25,100.05,182.64,90.17Zm-6,53.83c4.4,10.42,9,21.19,9,29.5,0,5.67-3.62,13.18-7.45,21.12a158.71,158.71,0,0,0-6.51,14.74c-1.49-6-3.58-12.27-5.63-18.47-3.24-9.76-6.29-19-6.29-24.82,0-8.3,3.77-17,7.42-25.45,1.5-3.47,3-6.87,4.13-10.15C172.68,134.71,174.61,139.29,176.6,144Zm6,52.79c2-4.06,3.87-8,5.32-11.79,1.47,4.35,3.47,9.08,5.52,13.94,4.4,10.42,8.95,21.2,8.95,29.51,0,5.62-3.6,12.45-7.41,19.68a124.67,124.67,0,0,0-6.81,14.39,165.34,165.34,0,0,0-7-16.95c-3.85-8.42-7.47-16.37-7.47-22.08C173.71,215.25,178.23,205.87,182.6,196.79Zm-6,50.86c3,6.54,6,13.24,7.68,19.46a110,110,0,0,1-16.23-7.79c-4.91-2.86-6.7-4.11-7.68-5.38,1.24-5,3.89-9.09,6.48-13a72.12,72.12,0,0,0,4.05-6.72C172.42,238.42,174.49,243,176.63,247.65Zm104.61-9.5c-3.22-4.91-6-9.16-6-14.66,0-8.41,3.81-19.91,7.49-31,2.72-8.2,5.31-16,6.21-22.24-.51,29.58-2.14,57.59-3.35,75.14A78.17,78.17,0,0,0,281.24,238.15Zm7.86-85.87q0,5-.05,9.93c-.88-8-4.29-15.9-7.6-23.57-3.2-7.39-6.21-14.36-6.21-20.09,0-8.5,3.83-23.46,7.54-37.92,1.18-4.62,2.34-9.14,3.35-13.35C287.5,88.82,289.1,120.67,289.1,152.28Zm-134.26,0c0-31.61,1.6-63.46,3-85,1,4.21,2.16,8.73,3.34,13.35,3.71,14.46,7.55,29.42,7.55,37.92,0,5.73-3,12.7-6.21,20.09-3.32,7.67-6.73,15.56-7.61,23.57Q154.85,157.25,154.84,152.28Zm6.37,40.18c3.68,11.12,7.5,22.62,7.5,31,0,5.5-2.79,9.75-6,14.66a78.17,78.17,0,0,0-4.35,7.21c-1.21-17.55-2.84-45.56-3.35-75.14C155.9,176.43,158.49,184.26,161.21,192.46Z"/></g></svg>