<svg id="Layer_1" data-name="Layer 1" xmlns="http://www.w3.org/2000/svg" viewBox="0 0 480 320"><defs><style>.cls-1{fill:#000;}</style></defs><title>Bowers &amp;amp; Wilkins - Formation Duo</title><path class="cls-1" d="M331.5,133.49c-3.16-4.85-8.92-14-10.21-17.57l-.07-.21c-1.84-5-3.73-10.23-4.26-17.37-.55-7.52-1.54-9.7-2.33-11.45l-.17-.39h0c-7.42-16.4-37.5-40.8-61.51-54.24C252,31.72,229.68,19,206.75,14.12s-34.09-.65-40,1.61l-.4.16c-3.63,1.38-15.81,6.78-19.93,18.2a33.51,33.51,0,0,0-2,10.74h0V45c-.09,2.38-.06,5,0,8.33l0,1.35-.06,176.51c0,1.11-.31,10.95,1.44,15.38,2.07,5.27,8.7,17.37,18.89,25.42,6,4.69,36.7,28.39,58,33.63,16.49,4.06,18.19,4.08,24.5,4.14,1.05,0,2.24,0,3.67.05h.79c10.68,0,30.26-4.74,41.46-11.37,12.36-7.33,16.7-12.85,19.29-16.15l.1-.12C317,276.4,317,269.85,317,267.38V209c12.28-15.42,20.59-35.77,20.59-53.49C337.56,146.45,335.44,138.93,331.5,133.49Zm-45.29-14.3-1.53-.86c-1.84-1.41-3-3.87-3.21-7-.59-8.08,5-17.88,12.16-21.4a10.94,10.94,0,0,1,4.8-1.24,6.72,6.72,0,0,1,3.35.84c2.24,1.29,3.61,4,3.87,7.5.59,8.08-5,17.88-12.16,21.4C290.81,119.7,288.27,120,286.21,119.19Zm-10.62-7.48c0,.48.1.94.17,1.4-5.6-3.61-20.38-13.5-26.37-18.45-9.55-7.89-25.14-21.4-30.88-26.76-5.26-4.93-9.95-13.47-9.64-17.58.07-1,.43-1.25.56-1.34,4.41-3,14.62.14,28.58,5.82,16.21,6.59,25.25,10.89,37.18,17.68,5.87,3.34,12.66,7.68,18,11.2a23.37,23.37,0,0,0-2.18.9C281.6,89.21,274.81,101.12,275.59,111.71ZM168.43,21.4l.41-.16c5.36-2,15.34-5.86,36.69-1.35,22,4.64,44.24,17.36,44.49,17.5,25.39,14.22,51.37,36.7,58.46,50.32a12.43,12.43,0,0,0-2.55-2.52l0,0c-.16-.11-15.86-11-27.85-17.79-12.19-6.94-21.4-11.32-37.88-18-17-6.91-27.46-9.78-34.13-5.21A7.3,7.3,0,0,0,203,49.87c-.56,7.38,6.53,17.69,11.5,22.33,5.8,5.43,21.52,19.06,31.15,27,7.14,5.9,26.34,18.59,29,20.17,1.6,1,4.84,2.79,7,4,.24.16.48.34.73.49s.73.37,1.11.54l.38.21,0,0a12.73,12.73,0,0,0,4.77.91l.41,0c-11.32,5.66-28.12,10.47-43.95,7.35-20.93-4.13-39.38-17.12-51.43-26.53-13.05-10.19-31.81-29.87-39.38-43.91a56.44,56.44,0,0,1-4.06-9.23v-8.1a27.72,27.72,0,0,1,1.68-9C155.22,27,165.39,22.55,168.43,21.4ZM307.81,278.52l-.1.13c-2.34,3-6.25,8-17.66,14.72-10.48,6.2-29.65,10.77-39.11,10.54-1.46,0-2.68-.05-3.75-.06-5.92-.06-7.32-.07-23.15-4C208.45,296,184.27,280,168.3,267.35c-9.56-7.54-15.56-19.12-17.07-23-.64-1.62-.93-5.08-1-8.34,3.16,5.56,8.38,13.06,15.36,18.57C171.46,259.29,202,282.81,223,288c16.33,4,18,4,24.17,4.1,1.06,0,2.25,0,3.68.05h.78c10.47,0,29.69-4.65,40.69-11.17,12-7.08,16.23-12.41,18.78-15.65v2.06C311.08,269.47,311.08,274.36,307.81,278.52Zm3.27-18.87a15.43,15.43,0,0,1-2.12,3.59l-.09.12c-2.4,3.06-6.42,8.18-18.07,15.08-10.86,6.43-30,11-39.9,10.74-1.45,0-2.65,0-3.72-.05-5.91-.06-7.5-.07-23.49-4-20.4-5-50.48-28.21-56.31-32.81-9.2-7.26-15.19-18.18-17.18-22.75l.06-168.64c.46.94.94,1.9,1.48,2.9,7.75,14.37,26.87,34.46,40.16,44.83,12.29,9.6,31.12,22.85,52.67,27.1a55.17,55.17,0,0,0,10.92,1c17.85,0,35.14-7.64,43.64-13.83a40.84,40.84,0,0,0,13.16-16.07,85.32,85.32,0,0,0,3.39,10.85l.07.2a52.53,52.53,0,0,0,3.53,7c-7.44-2-16.25-.33-25.39,5-22.44,13.15-40.69,45.24-40.69,71.53,0,13.48,4.66,23.57,13.13,28.43a22.85,22.85,0,0,0,11.52,3c5.9,0,12.37-2,19-5.86a69.07,69.07,0,0,0,14.21-11.33Zm-17.19-37.71c-9.45,5.53-18.2,6.55-24.63,2.86s-10.17-12-10.17-23.31c0-24.43,17-54.23,37.78-66.44,5.71-3.35,11.17-5,16-5a17.18,17.18,0,0,1,8.61,2.17,16.83,16.83,0,0,1,5.14,4.65c.51.79.89,1.36,1.06,1.61h0c2.59,4.32,4,10.12,4,17.07C331.66,179.93,314.72,209.73,293.89,221.94Z"/></svg>