<svg id="Artwork" xmlns="http://www.w3.org/2000/svg" viewBox="0 0 480 320"><defs><style>.cls-1{fill:#000;}</style></defs><path class="cls-1" d="M220.07,23,31.24,132.58l2.25,32.32L256.93,301.05,444.76,187.42l-2.24-35.32ZM36.83,137.15,251.52,263.63l.69,19.18L37.51,152.32ZM220.07,30.06l68.5,39.82c-19.15,9.74-43.26,12.94-66.63,16C204.8,88.17,188.39,90.34,175,95c7.45-7.67,11.08-17,14.87-26.59,4.29-10.95,8.71-22.19,19.24-31.94ZM50.22,128.67c17-6.2,36.64-8.82,55.78-11.3,17.14-2.27,33.55-4.44,46.94-9.11-7.45,7.68-11.09,17-14.87,26.59-5.41,13.79-11,28-28.72,39.17L40.77,134.17Zm114.52-25.75h0c14.26-8.27,35.31-11,57.59-14,19.78-2.61,40-5.31,57.56-11.93C269.15,87,264.64,98.55,260.23,109.77c-5,12.77-9.71,24.83-23.84,33h0c-14.27,8.28-35.32,11.07-57.61,14-19.77,2.61-40,5.3-57.55,11.93,10.78-10.07,15.32-21.6,19.7-32.79,5-12.78,9.74-24.84,23.8-33Zm144.9,82.36c-14.27,8.29-35.31,11.07-57.61,14-19.78,2.61-40,5.32-57.55,12,10.75-10.08,15.27-21.59,19.67-32.81,5-12.77,9.74-24.83,23.8-33h0c14.27-8.28,35.32-11.07,57.6-14,19.77-2.61,40-5.3,57.56-11.93-10.75,10.08-15.28,21.58-19.67,32.79C328.44,165,323.71,177.11,309.64,185.28ZM179.22,159.85c17.14-2.26,33.55-4.44,46.94-9.11-7.45,7.69-11.09,16.95-14.87,26.59-5.41,13.79-11,28-28.72,39.17l-70-40.62c19.15-9.77,43.26-13,66.63-16Zm73.18,42.5c17.14-2.27,33.55-4.45,46.94-9.11-7.45,7.67-11.08,16.95-14.87,26.59-4.3,10.95-8.72,22.2-19.24,31.94l-11,6.37-68.47-39.77C205,208.63,229.07,205.43,252.4,202.35ZM287.33,221c5-12.77,9.74-24.84,23.81-33,14.27-8.29,35.31-11.06,57.61-14,14.66-1.94,29.62-3.93,43.55-7.54L274.19,246.59c6.33-8.19,9.79-17,13.18-25.64Zm136.79-61.42c-17,6.21-36.64,8.82-55.78,11.3-17.14,2.27-33.55,4.45-46.94,9.11,7.45-7.68,11.09-16.95,14.87-26.59,5.41-13.79,11-28,28.72-39.17L433.56,154Zm-129-31.16c-17.14,2.26-33.54,4.45-46.94,9.11,7.45-7.69,11.09-16.95,14.87-26.59,5.49-13.79,11.05-28,28.8-39.12l70,40.62c-19.15,9.7-43.26,12.89-66.63,16ZM187,67.26c-5,12.77-9.74,24.83-23.8,33h0c-14.26,8.28-35.31,11.06-57.6,14C91,116.17,76,118.15,62.06,121.76L200.18,41.63C193.85,49.81,190.4,58.58,187,67.26Zm70.7,196L437.46,158.91l-.09,15.46L258.61,283.7ZM37.37,156,252.54,287l.25,5.38L37.52,160.48ZM259.19,292.62l-.32-5.52L437.94,177.55v6.7Z"/></svg>