<svg id="Artwork" xmlns="http://www.w3.org/2000/svg" viewBox="0 0 480 320"><defs><style>.cls-1{fill:#000;}</style></defs><path class="cls-1" d="M433,27.26a7.68,7.68,0,0,0-2.29.32l-1.91.55v.42l-51.5,26.5c-10.34,5.32-18.84,9.83-27,14.19-4.09,2.17-8.16,4.33-12.43,6.57-7.72,4.06-12,6.4-19,10.28-4.75,2.63-10.79,6-20.09,11-15.72,8.6-32.78,18.24-47.83,26.75-7.11,4-13.89,7.85-20.09,11.33-14,7.83-32.1,18.31-46.67,26.73l-14.44,8.33c-8.39,4.81-16.51,9.84-25.91,15.65-5.23,3.24-11.16,6.91-17.77,10.93-13.17,8-21.17,13.13-31.3,19.59-4,2.58-8.43,5.38-13.62,8.67C64.45,235.63,35.59,254.84,30,258.59l-.35.23-.67.53c-3.51,3.18-3.74,9.63-.61,16.82,4,9.29,12.26,16.57,18.72,16.57a8.78,8.78,0,0,0,1.35-.11l1.81-.55.44-.18L99,267.26c15.32-7.81,71.14-37,79.9-41.93,6.67-3.74,43.59-24.37,68-38l17.6-9.84c14-7.81,58.79-34.32,83.49-49.8,19.84-12.43,50.08-32,66.33-42.51,4.37-2.83,7.61-4.92,9.19-5.93,7.22-4.64,26.7-17.94,26.9-18.07l.25-.19c3.89-3,4.31-9.73,1.06-17.19C447.64,34.55,439.42,27.26,433,27.26Zm14.4,29.56-4.53,3.08a30.43,30.43,0,0,1-7,1.55,36,36,0,0,0-6.51,1.32,51,51,0,0,0,4.26-5.94c2.71-4.2,5.52-8.53,12.27-12.86l1,2C449.2,51.45,448.89,55.65,447.37,56.82Zm-54.2,35.73-18.6,12a110.36,110.36,0,0,1-13,4.39,90.74,90.74,0,0,0-16.3,5.92c5.17-3.69,9.68-8.87,14.4-14.32,6.08-7,12.36-14.25,20.62-19C389,77,396,75.88,402.79,74.8a78.61,78.61,0,0,0,11-2.32c-2.94,2.65-5.8,5.59-8.74,8.62C401.27,84.92,397.47,88.86,393.17,92.55ZM289.44,156.87a71.24,71.24,0,0,1-11,2.32c-5.15.8-10.46,1.62-16,4.27,4.78-3.74,9.4-8.83,14.24-14.16,6.89-7.6,14-15.45,22.3-20.21,8.71-4.55,16.27-5.66,23.59-6.75,6-.88,11.7-1.73,17.39-4.42-5.56,3.79-11.29,9.14-17.3,14.76-5,4.66-10.11,9.42-15.45,13.62C301.14,149.94,295.1,153.55,289.44,156.87ZM200.27,207.3a73.47,73.47,0,0,1-11.59,2.86c-5.13.93-10,1.81-16.22,5.33-5.79,3.26-11.53,8-17.6,13.07-4.4,3.65-8.89,7.36-13.69,10.8-8.43,4.41-17.18,9-24.9,13a80.81,80.81,0,0,1-12.22,2.43,70.64,70.64,0,0,0-10.5,2.07c3.52-3,7-6.58,10.67-10.23,7-7,14.17-14.28,22.35-19,8.72-4.55,16.67-5.63,24.36-6.68,7.22-1,14-1.91,20.55-5.66s11.77-9.91,17.46-16.51c6.23-7.22,12.67-14.69,20.94-19.44,8.71-4.54,17.55-5.79,26.1-7,6.76-1,13.19-1.86,19-4.36-5.43,3.82-11.47,9-17.77,14.33C231.62,187,226,191.82,220.43,196Zm-89.09,5.59a279.85,279.85,0,0,1,27.43-12.34c7.83-3.15,15.23-6.13,21.92-10,6.44-3.7,9.18-7.2,12.08-10.9a52.12,52.12,0,0,1,13.89-13l.3-.17,5-2.91c6.39-3.15,14.15-5.62,21.71-8,9-2.87,18.39-5.84,25.69-10,7.69-4.42,15.79-11.58,23.63-18.51,5.2-4.59,10.17-9,14.4-12l7.29-4.07c6-2.7,12.79-4.5,19.37-6.23,7.83-2.06,15.92-4.2,22.55-7.85.89-.49,1.77-1,2.64-1.56-4.23,3.49-7.9,7.89-11.71,12.48-5.58,6.73-11.36,13.69-19.7,18.87-8.3,4.77-17.71,6.34-26.8,7.85-8.34,1.4-16.21,2.71-22.61,6.39s-12.18,9.94-18.21,16.53c-6.46,7-13.14,14.33-21.49,19.51-8.3,4.77-16.73,6.13-24.89,7.44-7.5,1.21-14.59,2.35-21,6s-11.66,9.66-17.14,15.94c-5.87,6.74-11.94,13.7-20.28,18.88-8.2,4.71-16.87,6.56-25.24,8.35-7.12,1.52-13.88,3-19.83,6.07,5.15-3.34,8.55-7,12.12-10.86A83.46,83.46,0,0,1,111.18,212.89ZM420.33,66.72c-6.1,3.51-11.88,4.43-18,5.4A90,90,0,0,0,389,75a127.72,127.72,0,0,0,10.86-11.09c5.05-5.62,9.83-10.93,16.24-14.29,5.31-2.78,9.87-2.83,14.7-2.88a49.49,49.49,0,0,0,7.79-.5,45.11,45.11,0,0,0-7.21,9.13C428.72,59.47,426.27,63.33,420.33,66.72Zm-79.2,47.6c-6.08,3.5-12.33,4.42-18.94,5.4a94.35,94.35,0,0,0-14.87,3.07,120.76,120.76,0,0,0,12.14-13.24c5-6.08,9.8-11.82,15.87-15.31S348,89.85,355,88.84a101.11,101.11,0,0,0,14.72-2.91,139.38,139.38,0,0,0-12.08,12.82C352.27,105,347.12,110.87,341.13,114.32Zm-84.35,49.8c-6.08,3.49-13.41,4.53-21.17,5.62a114.35,114.35,0,0,0-17.29,3.38,162.55,162.55,0,0,0,13.73-13.8c5.89-6.43,11.45-12.5,17.57-16s13.65-4.77,21.73-6.08a129.84,129.84,0,0,0,17-3.63,174.88,174.88,0,0,0-13.6,13.9c-6.17,6.77-12,13.16-18,16.61ZM83.68,260.73c-6.69,3.69-11.21,3.82-16,4a42.7,42.7,0,0,0-11.14,1.41,74.67,74.67,0,0,0,8.9-9.82c3.62-4.56,7-8.86,14.21-13.19,6-3.62,13.27-5.17,21-6.81a146.72,146.72,0,0,0,14.45-3.62c-4.44,3.76-8.63,8-12.73,12.1C95.92,251.22,89.87,257.31,83.68,260.73ZM48.06,286.61l-.81.27H47a6.63,6.63,0,0,1-2.94-.86h.43a5.12,5.12,0,0,0,.78-.06l1.1-.35.2-.09A4.82,4.82,0,0,0,48.92,282C49.27,284.41,48.79,286.07,48.06,286.61Zm-12.3-12c-1.58-3.77-1.28-6.44-.39-7.29l.27-.21a1.64,1.64,0,0,1,.89-.22c2.41,0,6.61,3.59,8.76,8.74,1.58,3.78,1.31,6.74.13,7.49l-.64.22c-2.33.33-6.79-3.35-9-8.69Zm.77-10.38a4.33,4.33,0,0,0-2.35.66l-.3.21a.53.53,0,0,0-.14.12l-.15.13a5.24,5.24,0,0,0-1.46,2.89c-.28-2.3.11-3.87.72-4.46l.29-.21a1.86,1.86,0,0,1,.87-.18,6.78,6.78,0,0,1,3,.87Zm371-213.84c-6.9,3.54-13.48,5.1-20.45,6.75l-4.46,1.08L420,39l-1,1.35c-2.57,3.51-5,6.79-11.44,10.09Zm-42,16.83c7.69-4,15.05-5.8,22.17-7.49a104.05,104.05,0,0,0,17.44-5.29c-2.51,2.39-4.87,5-7.28,7.67-5.29,5.89-10.76,12-18.87,17-8.28,4.76-16.46,5.94-24.37,7.09-7.22,1-14,2-20.4,5.62,3.82-2.89,7.47-6.12,11-9.3,6.29-5.54,12.81-11.33,20.25-15.26ZM199.27,183.9a146.65,146.65,0,0,0-12.37,13.17c-5.54,6.43-10.78,12.5-16.77,16s-12.64,4.38-19.59,5.33a98.78,98.78,0,0,0-15.62,3,135.77,135.77,0,0,0,12.63-13.2c5.33-6.11,10.37-11.88,16.47-15.39s12.83-4.54,20.09-5.71A110.26,110.26,0,0,0,199.27,183.9ZM63.37,254.63a63,63,0,0,1-14.33,14c-3-4.34-6.74-7.76-10.41-9.42l1.58-1.06c7.16-3.49,13.08-5.91,18.42-8.08a156,156,0,0,0,17.85-8.15C70.11,246.14,66.82,250.27,63.37,254.63Zm-9.1,29.48a22.75,22.75,0,0,0-2.11-9.78c-.48-1.08-1-2.13-1.58-3.15a37.46,37.46,0,0,1,17.15-3.84,38.39,38.39,0,0,0,9.61-1.13c-2,1.75-4,3.57-6,5.44a113.84,113.84,0,0,1-10.38,9ZM444.46,41.6c-4.85,2.41-9.17,2.46-13.72,2.5-4,0-8.18.09-12.77,1.79,1.1-1.26,2.15-2.58,3.12-3.94a33.43,33.43,0,0,1,5.79-6.49l4.22-2.18c.47-.24.87-.44,1.22-.64a3.5,3.5,0,0,1,.65-.07C436,32.55,440.88,36.12,444.46,41.6ZM301.27,101.81c9.31-5.09,15.36-8.44,20.11-11.07,7-3.86,11.2-6.19,18.89-10.19l8.37-4.42c-1.74,1.49-3.44,3-5.13,4.5-6.07,5.38-11.8,10.47-18.29,14s-14,5.5-22,7.62c-1.81.47-3.63,1-5.44,1.46ZM233.4,139.86c6.2-3.48,13-7.32,20.11-11.35l10.34-5.84-2.75,2.43c-7.74,6.84-15.74,13.91-23.19,18.19-7,4.06-16.27,7-25.18,9.8l-5.91,1.9c9.27-5.33,18.61-10.67,26.59-15.13Zm-86.83,50.6c9.36-5.8,17.45-10.8,25.77-15.57l1.47-.85c-1.25,1.41-2.3,2.75-3.31,4-2.85,3.64-5.31,6.79-11.31,10.23-6.52,3.75-13.5,6.56-21.58,9.81-3.36,1.35-6.9,2.79-10.62,4.37l1.78-1.09c6.64-4,12.58-7.67,17.81-10.9ZM84,229.61l10.22-6.5c-1.34,1.36-2.57,2.69-3.76,4-4.09,4.4-7.62,8.21-13.71,11.7a145.93,145.93,0,0,1-19.07,8.86l-3.87,1.58C63.87,242.55,75.48,235,84,229.61Zm12.58,33L71.27,275.48l2-1.9c4.36-4.13,8.49-8,14.13-11.22,5.92-3.33,11.08-4.07,17.06-4.93,1-.13,1.92-.27,2.91-.43-4.51,2.33-8.26,4.26-10.84,5.55Zm79.74-41.86c-3,1.67-11.43,6.17-21.88,11.67l2.19-1.82c6-5,11.64-9.66,17.21-12.8,5.86-3.29,10.28-4.1,15.4-5l2-.37C183.92,216.44,178.43,219.55,176.27,220.75Zm85.63-47.87-17.63,9.84-10.11,5.64,4.72-4c8.39-7.11,16.25-13.81,22.69-17.46,5.92-3.33,11.44-4.18,17.29-5.08l3-.48c-8.59,5-15.73,9.21-20,11.54Zm83.26-49.67c-7,4.38-15.58,9.64-24.62,15.11l4-3.7c7.11-6.64,13.83-12.92,20.16-16.49,5.79-3.26,11.55-4.92,17.64-6.69l2.65-.77c-7.15,4.53-14,8.88-19.86,12.54ZM420.62,74.8l-9.2,6-6.27,4L407,82.9c5.8-6,11.28-11.62,17.55-15.12a28,28,0,0,1,11.65-3.69l.61-.08c-5.85,3.93-12.55,8.47-16.23,10.79Z"/></svg>