<svg id="Artwork" xmlns="http://www.w3.org/2000/svg" viewBox="0 0 480 320"><defs><style>.cls-1{fill:#000;}</style></defs><path class="cls-1" d="M450.6,191.58l-.06-71.81h0c-.32-4.46-5.32-7.53-9.89-7.53l-12.69.25,0-.24L253.5,96l-.22,0L40,99.22h-.3c-7.27.25-10,4-10.12,7.59h0l-.15,64.88h0a7.15,7.15,0,0,0,5.65,6.51l0,.13,17.63,4.23c0,.21,0,.44,0,.68l-.13,6.6c0,3.33,14.77,4.84,47.17,4.84h3.45l46.55,11.16a.36.36,0,0,0,0,.1l.09-.08.38.09h-.47v11.2c0,3.8,27.45,6.89,61.47,6.92,18.24,0,33-2.76,33-6.16l.18-6.07,74.63-4.58c9.32,2.4,33.92,4.39,58.33,4.39,12.53,0,25.18-2.08,25.18-4.13l.24-5.39,37.27-2.29c.4,0,.81,0,1.21-.07l.73-.05v0C446.33,198.9,450.6,195.79,450.6,191.58Zm-91.67-77.73-181.41,3.57h-.32c-4.12.36-5.72,3.89-6.5,7.49L57.17,107,253,104Zm-319-11.17,0,1.54h0l0-.59ZM170,132.93,169,202.08v.15L37.41,170.67l.13-58.73ZM36.9,170.55l-.24,1h-.17v-1.14a.83.83,0,0,1,.67.25Zm-.41,1.17h.12l-.12.52Zm404,20.06L192.66,207l-15.7-.38v-4.45l1.14-72.68h0a28.49,28.49,0,0,1,.75-4.06l261.89-5.16a3.32,3.32,0,0,1,1.85.62l.05,70.08A5.08,5.08,0,0,1,440.45,191.78Z"/><path class="cls-1" d="M211.66,224.05h0Z"/><path class="cls-1" d="M52.63,183.37c0-.05,0-.08,0-.13v-.46Z"/><path class="cls-1" d="M323.53,164a9.84,9.84,0,1,0,10,9.84A9.9,9.9,0,0,0,323.53,164Z"/><path class="cls-1" d="M322.7,147a5.41,5.41,0,1,0-5.41-5.41A5.41,5.41,0,0,0,322.7,147Z"/></svg>