<svg id="Artwork" xmlns="http://www.w3.org/2000/svg" viewBox="0 0 480 320"><defs><style>.cls-1{fill:#000;}</style></defs><path class="cls-1" d="M451.46,164.33c-.13-23.18-.44-23.74-1.06-24.84a6.45,6.45,0,0,0-1.87-2.06,7.86,7.86,0,0,0-2.62-1.17c-.39-.09-1.58-.38-193.88-24.89a70.27,70.27,0,0,0-9.18-.56L40.23,112.05a11.81,11.81,0,0,0-11.72,11.78c0,13,0,35.19,0,38.23s2.43,3.7,3.73,4.13c.65.22,1.6.52,2.82.91,2.41.78,5.88,1.87,10.08,3.19,4.77,1.5,10.49,3.3,16.71,5.24l.09,1,3.45.76-.18.63-3.46.34-3,.21-2.6.46-.31,4.75,2.25,1.09,4.06.8,9.15.54L95,185.87l37.68,11.72a16.66,16.66,0,0,0,5,.75H138l24.17-.51.1.65,3.46.67-.25.67h-3.63l-3.28.29-1.82.47-.48,5.33,1.15.76c5.15.86,9.48,1.33,12.61,1.6,3.5.29,6.25.41,10.43.58,1.74.08,5.58.23,10.55.3,4.62.07,7.77,0,10.91,0,7.86-.09,4-.24,7.09-.25a18.43,18.43,0,0,0,3.09-.26,15.29,15.29,0,0,0,2.67-.71,3.59,3.59,0,0,0,.79-.84c.38-.57.47-1.13.06-3.82-.16-1.07-.21-1.19-.36-1.35s-.77-.69-4.25-1c-.84-.09-1.95-.17-3.27-.21l-.79-.25.24-.55,1.16-.17h1.51l.49-.33.12-2.48.06-.06,174.42-3.64.11.77,3.46.67-.24.67h-3.64l-3.27.29-1.82.47c-.16,1.78-.33,3.55-.49,5.33l1.15.76c5.15.86,9.48,1.33,12.61,1.6,3.5.29,6.26.41,10.43.58,1.74.08,5.58.23,10.55.3,4.62.07,7.77,0,10.91,0,7.86-.09,4-.24,7.09-.25a18.6,18.6,0,0,0,3.1-.26,15.39,15.39,0,0,0,2.66-.71,3.4,3.4,0,0,0,.79-.84c.38-.57.47-1.13.06-3.82-.16-1.07-.2-1.19-.36-1.35s-.77-.69-4.24-1c-.85-.09-2-.17-3.28-.21l-.79-.25.25-.55,1.15-.17h1.51l.49-.33.12-2.48.2-.18,12.11-.25h.36l.35-.07a7.34,7.34,0,0,0,2.5-1,6.53,6.53,0,0,0,1.75-1.67C451.43,187.91,451.59,187.68,451.46,164.33ZM242.9,118.81a62.77,62.77,0,0,1,8.12.49C304,126.05,359.33,133.12,397.18,138L141,140.74a25.77,25.77,0,0,1-6.82-.86L59.11,119.93ZM36.5,159.17c0-7.12,0-24.47,0-35.34a3.62,3.62,0,0,1,.34-1.54l94.76,25.18.21,41.47C92.36,176.68,47.59,162.73,36.5,159.17ZM443.4,184,139.82,190.3l-.21-41.6c.38,0,.76,0,1.13,0h.36l302.1-3.26C443.49,154.14,443.55,176.52,443.4,184Z"/><path class="cls-1" d="M310.42,153.49l-63.76,1.27a2.5,2.5,0,0,0-2.44,2.54l.38,19.11a2.49,2.49,0,0,0,2.54,2.45l63.76-1.27a2.5,2.5,0,0,0,2.45-2.54L313,155.94A2.5,2.5,0,0,0,310.42,153.49Z"/><ellipse class="cls-1" cx="361.72" cy="153.82" rx="4.57" ry="3.62"/><ellipse class="cls-1" cx="361.72" cy="165.4" rx="4.57" ry="3.62"/><ellipse class="cls-1" cx="361.72" cy="176.98" rx="4.57" ry="3.62"/><ellipse class="cls-1" cx="374.48" cy="154.1" rx="4.57" ry="3.62"/><ellipse class="cls-1" cx="374.48" cy="165.68" rx="4.57" ry="3.62"/><ellipse class="cls-1" cx="374.48" cy="177.26" rx="4.57" ry="3.62"/><ellipse class="cls-1" cx="429.84" cy="156.09" rx="6.88" ry="6.4"/><path class="cls-1" d="M350.74,166.59a15,15,0,0,0-.38-3.32.75.75,0,0,0,0-.16c0-.12-.05-.25-.08-.37a10.54,10.54,0,0,0-.42-1.39,12.27,12.27,0,0,0-2.31-4,10.29,10.29,0,0,0-4.87-3.26l-1-.12a8,8,0,0,0-1.11-.14l-.38-.05h-.07c-2-.15-3.53-.21-6.05-.31l-2.93-.12h-.35c-4.51.32-8,5.27-9,9.77a14,14,0,0,0,1.22,9.28c.62,1.28,2.07,4.26,5.27,5.61a12.64,12.64,0,0,0,2.45.62,41,41,0,0,0,7,.82l1.74,0a9.74,9.74,0,0,0,3-.37l.42-.14C347.36,177.45,350.74,172.49,350.74,166.59Zm-10.81,9.31c-4,0-7.3-4.18-7.3-9.31s3.28-9.31,7.3-9.31l.26,0,.81.1c2.73.51,5,2.94,5.83,6.19a11.59,11.59,0,0,1,.33,2.62,12,12,0,0,1-.79,4.36,8.76,8.76,0,0,1-2.34,3.61,7.41,7.41,0,0,1-2.66,1.53A5.75,5.75,0,0,1,339.93,175.9Zm-10.33-1.15c-2-.84-3-2.84-3.47-3.91a10.51,10.51,0,0,1-.95-7c.71-3.22,3.19-6.79,5.72-7l2,.08a13.86,13.86,0,0,0-3.75,9.68,14.17,14.17,0,0,0,2.88,8.69l-.61-.12A15.61,15.61,0,0,1,329.6,174.75Z"/></svg>