<svg id="Artwork" xmlns="http://www.w3.org/2000/svg" viewBox="0 0 480 320"><defs><style>.cls-1{fill:#000;}</style></defs><path class="cls-1" d="M249.26,167.73l69.83-1.39a2.73,2.73,0,0,0,2.67-2.78l-.41-20.93a2.74,2.74,0,0,0-2.79-2.67l-69.82,1.38a2.75,2.75,0,0,0-2.68,2.79l.42,20.93A2.73,2.73,0,0,0,249.26,167.73Z"/><path class="cls-1" d="M251.71,181c-3.12,0-5.65,2.18-5.65,4.87s2.53,4.88,5.65,4.88,5.66-2.19,5.66-4.88S254.84,181,251.71,181Z"/><path class="cls-1" d="M273.81,180.18c-3.12,0-5.65,2.18-5.65,4.87s2.53,4.88,5.65,4.88,5.65-2.19,5.65-4.88S276.93,180.18,273.81,180.18Z"/><path class="cls-1" d="M295,179.49c-3.12,0-5.65,2.18-5.65,4.87s2.53,4.88,5.65,4.88,5.66-2.19,5.66-4.88S298.17,179.49,295,179.49Z"/><ellipse class="cls-1" cx="316.11" cy="182.91" rx="5.65" ry="4.87"/><path class="cls-1" d="M336.15,177c-3.12,0-5.65,2.18-5.65,4.87s2.53,4.88,5.65,4.88,5.65-2.18,5.65-4.88S339.27,177,336.15,177Z"/><ellipse class="cls-1" cx="356.24" cy="181.87" rx="5.65" ry="4.87"/><path class="cls-1" d="M435.63,133.6a3.58,3.58,0,0,0-1.43-.72,3.08,3.08,0,0,0-.8-.1h0a4.26,4.26,0,0,0-3.92,3.82,6,6,0,0,0-.08,1,6.14,6.14,0,0,0,.08,1,4.26,4.26,0,0,0,3.92,3.82h0a3.58,3.58,0,0,0,.8-.1,3.72,3.72,0,0,0,1.43-.72,5.35,5.35,0,0,0,0-7.93Z"/><path class="cls-1" d="M453.48,121.9a7.11,7.11,0,0,0-4.37-4.22l-.54-.15C446,117,302.37,99.48,240.75,92l-1.1-.13a4.08,4.08,0,0,0-.61,0L30.83,94.39a4.82,4.82,0,0,0-4.77,4.31,5.05,5.05,0,0,0,.17,2c0,8.49,0,49.3,0,66.65a12.28,12.28,0,0,0,8.91,11.78l27,9.15.1,5,3.15,1,.15.94-1.62.21-3.78.42-2.73,1L56.23,198l.15,6.57,2.89,1.2a213.21,213.21,0,0,0,23.15,2c6.55.2,10.28,0,17.7-.37a55.63,55.63,0,0,0,10.81-1.47c.79-.19,1.48-.37,2-.52l12,4.05.25.07a32.36,32.36,0,0,0,8.36,1.1c.53,0,1.06,0,1.59,0l23-1.12.13.76-1.8.23-4.18.47-3,1.16-1.4,1.22.18,7.25,3.19,1.33a236.85,236.85,0,0,0,25.58,2.21c7.22.22,11.35,0,19.54-.41a62.73,62.73,0,0,0,12-1.63c1.19-.28,2.17-.55,2.85-.75l1.1-.87.11-7.31-1-1.27-2.67-.87s-4.58-.7-4.75-.7a5,5,0,0,1-.76-.17l.06-.82,2.2-.63,1.11-1.56,184.86-9,.17,1-1.8.23-4.18.46-3,1.16-1.39,1.22.18,7.25,3.19,1.34a236.48,236.48,0,0,0,25.58,2.2c7.22.23,11.35,0,19.54-.41a62.55,62.55,0,0,0,11.95-1.62c1.19-.28,2.17-.56,2.84-.75l1.11-.87.11-7.31-1-1.28-2.67-.87s-4.58-.69-4.76-.69a4.88,4.88,0,0,1-.75-.18l.06-.81,2.2-.64,1.28-1.79,7.53-.37.47,0,.45-.13a6.8,6.8,0,0,0,2.74-1.53,7,7,0,0,0,1.54-2.07c.47-1,.73-1.5,1.13-34.7S453.83,122.79,453.48,121.9ZM238.93,99.81l.85.1c53.17,6.48,111.8,13.65,153.1,18.72l-261.67,1.8-75.4-18.35ZM37.64,171.46l-.23-.07a4.26,4.26,0,0,1-3.14-4.1c0-15.24,0-48.6,0-62.23l94,22.89v74.1l-.91-.2Zm407.6,16-309,15.05V128.4l309.65-2.13C446.1,136.65,445.66,177.8,445.24,187.48Z"/><path class="cls-1" d="M366.1,153.08a17.4,17.4,0,0,0-.43-3.79c0-.06,0-.12,0-.18l-.09-.41a15.91,15.91,0,0,0-.48-1.6,14.23,14.23,0,0,0-2.64-4.57,11.64,11.64,0,0,0-5.55-3.71l-1.14-.14a9,9,0,0,0-1.27-.16l-.44-.06H354c-2.28-.18-4-.24-6.9-.35l-3.34-.14a3.81,3.81,0,0,0-.39,0c-5.14.36-9.12,6-10.25,11.13a16.11,16.11,0,0,0,1.39,10.58c.71,1.45,2.36,4.85,6,6.39a15.54,15.54,0,0,0,2.8.71,46.5,46.5,0,0,0,7.93.92c.75,0,1.4,0,2,0a10.8,10.8,0,0,0,3.39-.42l.47-.16C362.26,165.45,366.1,159.8,366.1,153.08Zm-12.31,10.61c-4.59,0-8.32-4.76-8.32-10.61s3.73-10.6,8.32-10.6l.29,0,.93.1c3.1.59,5.65,3.36,6.64,7.06a13.45,13.45,0,0,1-.52,8,10.08,10.08,0,0,1-2.67,4.12,8.6,8.6,0,0,1-3,1.75A6.89,6.89,0,0,1,353.79,163.69ZM342,162.37c-2.25-1-3.36-3.22-3.95-4.45a12,12,0,0,1-1.08-8c.81-3.67,3.63-7.74,6.52-8l2.24.09a15.79,15.79,0,0,0-4.27,11,16.13,16.13,0,0,0,3.29,9.9l-.71-.13A16.61,16.61,0,0,1,342,162.37Z"/></svg>