<svg xmlns="http://www.w3.org/2000/svg" viewBox="0 0 480 320"><defs><style>.cls-1{fill:#000;}</style></defs><g id="Layer_1" data-name="Layer 1"><path class="cls-1" d="M449.75,131.81l.12-.13-.23-.23a12.63,12.63,0,0,0-4.8-6.24L326.91,43.73a12.29,12.29,0,0,0-9.31-2L42,92.7a15.12,15.12,0,0,0-12.37,14.87l.44,17.25h0v27.84a19.91,19.91,0,0,0,3.63,11.51l73.76,108a14.46,14.46,0,0,0,15.29,5.86l317.33-77.38a12.09,12.09,0,0,0,9.17-11.47L450.38,136A12.83,12.83,0,0,0,449.75,131.81ZM319.06,49.6a4.39,4.39,0,0,1,3.3.71l115.51,79.81-9.39,2L316,50.17Zm-13.93,2.58L418,134.36l-10,2.13L299.19,53.28Zm-16.54,3.06,109.06,83.45-8.48,1.8L283,56.28Zm-16.08,3L379,142.65,165.49,188.1,83.54,93.16ZM74.42,94.84,156.57,190l-7.31,1.56L69,95.84ZM60,97.52l80.44,95.93-6.49,1.38L55.3,98.38ZM113,203.9v38.71l-74.64-106-.74-28.79ZM40.26,159.59a12,12,0,0,1-2.2-6.94v-2.59l75.35,107,0,9.71Zm76.68,43,.07-.06,0,.06Zm1.68-4.49L42.35,100.87a7.59,7.59,0,0,1,1.09-.3l2.9-.54,78.78,96.67Zm322.63-9a4.08,4.08,0,0,1-3.09,3.87L121.44,270.15l0-13.11,320-77Zm.36-17.31L121,248.91V205.75l321.33-68.4Z"/><path class="cls-1" d="M269.21,199.28c0,.15.12.23.28.2l23.09-5.29c7.61-1.73,15.17-3.48,22.69-5.2a.32.32,0,0,0,.25-.3V175.05a.19.19,0,0,0-.25-.2L292.46,180l-23.23,5.2a.34.34,0,0,0-.26.32c0,2.31.08,4.62.12,6.93S269.17,197,269.21,199.28Z"/><path class="cls-1" d="M189.68,207.56c3.23-2.53,4.34-6.55,2.46-8.92s-6-2.24-9.25.32-4.34,6.55-2.49,8.93S186.45,210.12,189.68,207.56Z"/><path class="cls-1" d="M183.1,216.62c-3.21,2.44-4.32,6.37-2.49,8.79s5.91,2.35,9.11-.09,4.33-6.37,2.49-8.77S186.31,214.18,183.1,216.62Z"/><path class="cls-1" d="M399.67,160.23c2.58-2,3.31-5.42,1.63-7.54s-5.14-2.12-7.7-.07-3.31,5.45-1.63,7.55S397.11,162.31,399.67,160.23Z"/><path class="cls-1" d="M400.25,174.54c2.4-2.19,2.6-5.65.75-7.62s-5.26-1.59-7.77.55-2.92,5.37-.93,7.38S397.86,176.74,400.25,174.54Z"/><path class="cls-1" d="M383.5,173.81a2.81,2.81,0,1,0,2.8,2.78A2.8,2.8,0,0,0,383.5,173.81Z"/><path class="cls-1" d="M383.1,163.27a2.81,2.81,0,1,0-2.78-2.81A2.81,2.81,0,0,0,383.1,163.27Z"/><path class="cls-1" d="M59.29,155.79c1.52,0,2.28-3.83,1.7-8.55s-2.26-8.55-3.78-8.55-2.3,3.83-1.72,8.55S57.77,155.79,59.29,155.79Z"/><path class="cls-1" d="M86.56,191.6c1.56,0,2.35-3.77,1.76-8.4s-2.34-8.4-3.89-8.4-2.36,3.75-1.76,8.4S85,191.6,86.56,191.6Z"/><path class="cls-1" d="M233.34,213.89h0c4.13,4.27,11.87,3.7,17.44-1.37s7-13,2.89-17.51a8.74,8.74,0,0,0-2.18-1.75L242,185.78c-6.5-3.55-12.75.85-14.13,2.31-6,6.5-7,12.32-2.88,17.32ZM248.59,212c-5.05,3.73-11.38,3.32-14.13-.92s-.9-10.71,4.16-14.45,11.38-3.33,14.13.92S253.64,208.27,248.59,212Zm-19.22-22.55c1.12-1.18,6.83-5.15,12.4-1.53l4.91,4A15.34,15.34,0,0,0,236,196.13c-3.87,3.5-5.7,8.24-5.2,12.35l-4.27-4.36C223.16,200,224.08,195.16,229.37,189.46Z"/><path class="cls-1" d="M348.8,187.48h0c4.13,4.27,11.87,3.7,17.44-1.37s7-13,2.89-17.51a8.74,8.74,0,0,0-2.18-1.75l-9.46-7.47c-6.5-3.54-12.75.85-14.13,2.31-6,6.5-7,12.32-2.88,17.32Zm15.25-1.88c-5.05,3.73-11.39,3.32-14.14-.92S349,174,354.07,170.23s11.39-3.33,14.14.92S369.1,181.86,364.05,185.6Zm-19.22-22.55c1.12-1.18,6.83-5.15,12.4-1.53l4.91,4a15.42,15.42,0,0,0-10.66,4.22c-3.86,3.5-5.69,8.24-5.19,12.34L342,177.71C338.62,173.55,339.54,168.76,344.83,163.05Z"/></g></svg>