<svg id="Artwork" xmlns="http://www.w3.org/2000/svg" viewBox="0 0 480 320"><defs><style>.cls-1{fill:#000;}</style></defs><path class="cls-1" d="M321.59,94.47,34.16,102.75v68.93l96.7,53.85,315-10.08V133.2Zm98.21,39L134.48,144.12,54.39,110.17l266.1-7.67ZM42.16,113.68,130.29,151l-.86,64.55L42.16,167Zm94.25,103.67.88-66.33,300.55-11.23V207.7Z"/><path class="cls-1" d="M173.9,198.63a5.24,5.24,0,0,0-4.15-1.27,6.39,6.39,0,0,0-5.57,6.31,5.36,5.36,0,0,0,1.76,4.05,5.21,5.21,0,0,0,3.5,1.31,5,5,0,0,0,.66,0,6.4,6.4,0,0,0,5.57-6.3A5.36,5.36,0,0,0,173.9,198.63ZM169.75,206a2.3,2.3,0,0,1-1.81-.53,2.39,2.39,0,0,1-.76-1.82,3.44,3.44,0,0,1,2.91-3.32l.31,0a2.22,2.22,0,0,1,1.5.55,2.38,2.38,0,0,1,.77,1.82A3.45,3.45,0,0,1,169.75,206Z"/><path class="cls-1" d="M222.34,191.61a4.32,4.32,0,0,0-3.73,4.22,3.3,3.3,0,0,0,3.73,3.38,4.34,4.34,0,0,0,3.73-4.23A3.29,3.29,0,0,0,222.34,191.61Z"/><path class="cls-1" d="M202,197a5.43,5.43,0,0,0-4.3-1.31,6.92,6.92,0,0,0-5.95,6.74,5.55,5.55,0,0,0,1.83,4.22,5.37,5.37,0,0,0,3.61,1.35,5.53,5.53,0,0,0,.69,0,6.93,6.93,0,0,0,5.95-6.74A5.59,5.59,0,0,0,202,197Zm.33,4.22a5.39,5.39,0,0,1-4.62,5.25,4,4,0,0,1-3.14-.94,4.08,4.08,0,0,1-1.32-3.1,5.38,5.38,0,0,1,4.62-5.25l.51,0a3.91,3.91,0,0,1,2.62,1,4.12,4.12,0,0,1,1.33,3.1Z"/><path class="cls-1" d="M232.64,191.3a4.34,4.34,0,0,0-3.73,4.23,3.29,3.29,0,0,0,3.73,3.37,4.33,4.33,0,0,0,3.73-4.22A3.3,3.3,0,0,0,232.64,191.3Z"/><path class="cls-1" d="M253.42,190.57a4.33,4.33,0,0,0-3.73,4.23,3.29,3.29,0,0,0,3.73,3.37,4.33,4.33,0,0,0,3.73-4.23A3.29,3.29,0,0,0,253.42,190.57Z"/><path class="cls-1" d="M243,191a4.32,4.32,0,0,0-3.73,4.22A3.3,3.3,0,0,0,243,198.6a4.34,4.34,0,0,0,3.73-4.23A3.29,3.29,0,0,0,243,191Z"/><path class="cls-1" d="M263.85,190.11a4.33,4.33,0,0,0-3.73,4.23,3.29,3.29,0,0,0,3.73,3.37,4.33,4.33,0,0,0,3.73-4.23A3.29,3.29,0,0,0,263.85,190.11Z"/><path class="cls-1" d="M305.47,188.47a4.34,4.34,0,0,0-3.73,4.23,3.3,3.3,0,0,0,3.73,3.38,4.34,4.34,0,0,0,3.73-4.23A3.3,3.3,0,0,0,305.47,188.47Z"/><path class="cls-1" d="M316,187.86a4.34,4.34,0,0,0-3.73,4.23,3.3,3.3,0,0,0,3.73,3.38,4.34,4.34,0,0,0,3.73-4.23A3.3,3.3,0,0,0,316,187.86Z"/><path class="cls-1" d="M274.12,189.76a4.34,4.34,0,0,0-3.73,4.23,3.3,3.3,0,0,0,3.73,3.38,4.34,4.34,0,0,0,3.73-4.23A3.3,3.3,0,0,0,274.12,189.76Z"/><path class="cls-1" d="M284.48,189.46a4.34,4.34,0,0,0-3.73,4.23,3.3,3.3,0,0,0,3.73,3.37,4.33,4.33,0,0,0,3.73-4.23A3.29,3.29,0,0,0,284.48,189.46Z"/><path class="cls-1" d="M294.91,189a4.35,4.35,0,0,0-3.65,3.46,4.26,4.26,0,0,0-.08.8,3.3,3.3,0,0,0,3.73,3.38,4.33,4.33,0,0,0,3.73-4.27A3.29,3.29,0,0,0,294.91,189Z"/><path class="cls-1" d="M240.54,168.44a1.54,1.54,0,0,0-1.74-1.58,2,2,0,0,0-1.75,2,1.54,1.54,0,0,0,1.75,1.58A2,2,0,0,0,240.54,168.44Z"/><path class="cls-1" d="M244.67,170.27a2,2,0,0,0,1.75-2,1.55,1.55,0,0,0-1.75-1.58,2,2,0,0,0-1.74,2A1.54,1.54,0,0,0,244.67,170.27Z"/><path class="cls-1" d="M256.51,166.37a2,2,0,0,0-1.75,2,1.54,1.54,0,0,0,1.75,1.58,2,2,0,0,0,1.74-2A1.54,1.54,0,0,0,256.51,166.37Z"/><path class="cls-1" d="M250.57,170.13a2,2,0,0,0,1.75-2,1.54,1.54,0,0,0-1.75-1.58,2,2,0,0,0-1.74,2A1.54,1.54,0,0,0,250.57,170.13Z"/><path class="cls-1" d="M262.44,169.72a2,2,0,0,0,1.75-2,1.54,1.54,0,0,0-1.75-1.58,2,2,0,0,0-1.74,2A1.54,1.54,0,0,0,262.44,169.72Z"/><path class="cls-1" d="M268.3,166a2,2,0,0,0-1.74,2,1.54,1.54,0,0,0,1.74,1.58,2,2,0,0,0,1.75-2A1.53,1.53,0,0,0,268.3,166Z"/><path class="cls-1" d="M281.85,167.59a2.33,2.33,0,0,0,0-.37,1.54,1.54,0,0,0-1.75-1.58,2,2,0,0,0-1.71,1.62,2.21,2.21,0,0,0,0,.37,1.55,1.55,0,0,0,1.75,1.58A2,2,0,0,0,281.85,167.59Z"/><path class="cls-1" d="M274.21,169.41a2,2,0,0,0,1.74-2,1.54,1.54,0,0,0-1.74-1.58,2,2,0,0,0-1.75,2A1.54,1.54,0,0,0,274.21,169.41Z"/><path class="cls-1" d="M295.36,168.79a2.05,2.05,0,0,0,1.71-1.62,2.45,2.45,0,0,0,0-.38,1.55,1.55,0,0,0-1.75-1.58,2,2,0,0,0-1.71,1.62,1.58,1.58,0,0,0,0,.38A1.54,1.54,0,0,0,295.36,168.79Z"/><path class="cls-1" d="M289.42,165.43a2,2,0,0,0-1.74,2,1.54,1.54,0,0,0,1.74,1.58,2,2,0,0,0,1.75-2A1.54,1.54,0,0,0,289.42,165.43Z"/><path class="cls-1" d="M304.73,168.63a2,2,0,0,0,1.75-2,1.54,1.54,0,0,0-1.75-1.58,2,2,0,0,0-1.74,2A1.54,1.54,0,0,0,304.73,168.63Z"/><path class="cls-1" d="M310.59,164.91a2,2,0,0,0-1.74,2,1.53,1.53,0,0,0,1.75,1.57,2,2,0,0,0,1.74-2A1.54,1.54,0,0,0,310.59,164.91Z"/><path class="cls-1" d="M316.5,168.32a2,2,0,0,0,1.74-2,1.54,1.54,0,0,0-1.74-1.58,2,2,0,0,0-1.75,2A1.54,1.54,0,0,0,316.5,168.32Z"/><path class="cls-1" d="M322.43,164.55a2,2,0,0,0-1.74,2,1.54,1.54,0,0,0,1.75,1.58,2,2,0,0,0,1.74-2A1.54,1.54,0,0,0,322.43,164.55Z"/><path class="cls-1" d="M347.46,173.25a4.31,4.31,0,0,0,3.72-4.23,3.28,3.28,0,0,0-3.72-3.37,4.33,4.33,0,0,0-3.73,4.23A3.29,3.29,0,0,0,347.46,173.25Z"/><path class="cls-1" d="M358,172.64a4.33,4.33,0,0,0,3.73-4.23A3.29,3.29,0,0,0,358,165a4.33,4.33,0,0,0-3.73,4.23A3.29,3.29,0,0,0,358,172.64Z"/><path class="cls-1" d="M210.93,164.35l-53.26,2.3a2.81,2.81,0,0,0-2.63,2.79l0,12.43a2.51,2.51,0,0,0,2.61,2.56l53.26-2.3a2.8,2.8,0,0,0,2.63-2.79l0-12.43A2.49,2.49,0,0,0,210.93,164.35Z"/><path class="cls-1" d="M360.09,186.24a4.34,4.34,0,0,0-3.73,4.23,3.3,3.3,0,0,0,3.73,3.38,4.34,4.34,0,0,0,3.73-4.23A3.3,3.3,0,0,0,360.09,186.24Z"/><path class="cls-1" d="M370.66,185.63a4.34,4.34,0,0,0-3.73,4.23,3.3,3.3,0,0,0,3.73,3.38,4.34,4.34,0,0,0,3.73-4.23A3.3,3.3,0,0,0,370.66,185.63Z"/><path class="cls-1" d="M339.1,187.23a4.32,4.32,0,0,0-3.72,4.23,3.29,3.29,0,0,0,3.73,3.37,4.32,4.32,0,0,0,3.72-4.23A3.29,3.29,0,0,0,339.1,187.23Z"/><path class="cls-1" d="M349.54,186.77a4.35,4.35,0,0,0-3.66,3.46,4.26,4.26,0,0,0-.08.8,3.29,3.29,0,0,0,3.73,3.37,4.32,4.32,0,0,0,3.65-3.45,3.66,3.66,0,0,0,.09-.81A3.29,3.29,0,0,0,349.54,186.77Z"/><path class="cls-1" d="M197.6,199.52a2.62,2.62,0,0,0-2.25,2.55,2,2,0,0,0,2.25,2,2.62,2.62,0,0,0,2.25-2.55A2,2,0,0,0,197.6,199.52Z"/><path class="cls-1" d="M393.27,190.07a4.33,4.33,0,0,0-3.72,4.23,3.29,3.29,0,0,0,3.73,3.37,4.32,4.32,0,0,0,3.72-4.23A3.29,3.29,0,0,0,393.27,190.07Z"/><path class="cls-1" d="M417.68,189a4.32,4.32,0,0,0-3.72,4.22,3.3,3.3,0,0,0,3.73,3.38,4.34,4.34,0,0,0,3.72-4.23A3.29,3.29,0,0,0,417.68,189Z"/><path class="cls-1" d="M403.92,149.61A16.07,16.07,0,0,0,399.17,181a14.92,14.92,0,0,0,19.51-21.72A16,16,0,0,0,403.92,149.61Zm-1.14,4-.38.12-.4.12c-.34.11-.69.24-1,.38l-.21.08c-.4.17-.79.36-1.17.56l-.3.17-.84.51-.33.22c-.3.21-.6.44-.89.67l-.15.11c-.33.28-.64.57-.95.87l-.24.25q-.34.34-.66.72l-.24.3c-.25.3-.48.6-.7.92l-.08.12c-.24.36-.47.73-.68,1.11-.05.1-.1.2-.16.3-.15.3-.3.6-.43.9l-.15.35c-.15.37-.3.75-.42,1.14l0,.1c-.14.43-.24.86-.34,1.3l-.06.35c0,.18-.08.36-.11.55v-.19A12.11,12.11,0,0,1,402.78,153.66ZM406.62,179a10.87,10.87,0,0,1-5.63-1.57,11.62,11.62,0,0,1-1.12-.77l-.06,0a12.05,12.05,0,0,1-1-.89l-.21-.24c-.2-.21-.4-.44-.58-.67s-.23-.3-.33-.45-.25-.36-.37-.55-.21-.33-.31-.51a9.18,9.18,0,0,1-.48-1c-.07-.16-.13-.33-.19-.5s-.16-.46-.23-.7-.09-.34-.13-.51a7.73,7.73,0,0,1-.16-.81c0-.14-.05-.29-.07-.44a10.91,10.91,0,0,1,10.86-12.23c.4,0,.8,0,1.2.07l.43.07a6,6,0,0,1,.72.13,4.39,4.39,0,0,1,.52.13q.3.08.6.18l.53.19c.19.08.37.15.55.24a4.59,4.59,0,0,1,.5.24c.2.1.39.22.59.34l.39.23a11.28,11.28,0,0,1,1.84,1.55s0,0,0,0a9.73,9.73,0,0,1,.78.92,10.83,10.83,0,0,1,2.25,6.61A11,11,0,0,1,406.62,179Z"/></svg>