<svg xmlns="http://www.w3.org/2000/svg" viewBox="0 0 480 320"><defs><style>.cls-1{fill:#000;}</style></defs><g id="Layer_1" data-name="Layer 1"><path class="cls-1" d="M462.59,110.81a3.91,3.91,0,0,0,.11-2.49l-1.9-6.42a13.73,13.73,0,0,0-1.44-3.26l-.06-.12,0,0,0,0v0A14.3,14.3,0,0,0,450.87,92l-1.75-.5H449a2.59,2.59,0,0,0-.63-.1,1.81,1.81,0,0,0-.23,0,4.22,4.22,0,0,0-.86.07h0l-.79.16L414,98.13,217.6,42.43l-.06,0a4.23,4.23,0,0,0-.62-.11h-.18a4,4,0,0,0-.69,0h0L26.52,66.08l-.84.1-.14,0-.24.05-.22,0c-.1,0-.18.08-.28.1l-.13.06a11.08,11.08,0,0,0-3.16,1.61,10.66,10.66,0,0,0-4.33,7.44,3.81,3.81,0,0,0,0,.59l1.33,52.49.32,12.72s0,.08,0,.12,0,.08,0,.12,0,.3.07.45l0,.16h0s0,0,0,.07a5.1,5.1,0,0,0,.19.55l0,.06v0l.06.11a3.84,3.84,0,0,0,.22.39l.09.13h0l.05.06A3,3,0,0,0,20,144l0,0,0,.05.11.09a2.34,2.34,0,0,0,.31.24l.15.1.12.08.45.26,37.9,21.93a74,74,0,0,0,1.52,8.49c2.11,6.92,9.71,10,22.61,9.2,1.19-.08,3.71-.42,5.32-.66l72.12,41.73L193,244.24l1.14,9.13c.92,7.29,9.34,11.42,14.44,12.31l2.92.51v4.3c0,.05,0,.09,0,.14s0,.33,0,.5,0,.08,0,.11l0,.11a3.09,3.09,0,0,0,.18.59v0a.54.54,0,0,1,.05.11c.08.16.16.31.25.46l0,.09.07.09a2.93,2.93,0,0,0,.39.48l0,0,.09.09a3.89,3.89,0,0,0,.39.32l.12.09,0,0,5.1,3.34a4,4,0,0,0,2.15.64h.05l13.5-.18a3.9,3.9,0,0,0,2.2-.71L451,210h0a3.7,3.7,0,0,0,.5-.19l2.8-1.32a4.09,4.09,0,0,0,.46-.25,3.93,3.93,0,0,0,1.79-3L459.64,157ZM163.68,218.23,91.37,176.35c-.14-.08-.29-.14-.43-.21L65.26,161.29a3.63,3.63,0,0,0-.58-.43l-38.1-22-.34-13.32L25.29,88,225.59,171l-1.5,82.15ZM453.19,104.05l.67,2.43L248.73,151.19l-10.31-6.69a4.24,4.24,0,0,0-1.13-.5l-4.71-1.24,181.73-36.69.38,0h0l33.16-6.72.83.24a6.5,6.5,0,0,1,3.81,2.94A6.9,6.9,0,0,1,453.19,104.05ZM233.36,269.52l-11.8.14-2.24-1.37.06-4.84a3.9,3.9,0,0,0,1.42.28,4,4,0,0,0,1-.12l5.82.43h.29a3.93,3.93,0,0,0,3.91-3.63c0-.1,0-.2,0-.3s0-.1,0-.15l1.76-95.8a3.61,3.61,0,0,0-.11-.94v-3.58c0-.05,0-.09,0-.14l0-.31a3.22,3.22,0,0,0-.1-.54s0,0,0-.06a3.91,3.91,0,0,0-3.76-2.87h-.1l-6-.74-2.5-1.06.07-6.19a3.51,3.51,0,0,0,.57.21l13.07,3.46,9.49,6.16-2.52,109.36ZM25,76.25a2.86,2.86,0,0,1,1.19-1.91l186.93,79.88,0,2.26a3.56,3.56,0,0,0,.11.92l-188.13-78Zm191.42-26,180.83,51.28L216.41,138a3.83,3.83,0,0,0-.75.23c-.11.05-.2.11-.29.16s-.26.12-.38.2a2.88,2.88,0,0,0-.33.28l-.25.2-.26.31-.22.27c-.07.11-.12.23-.19.35s-.12.2-.17.31-.09.29-.14.44-.06.19-.08.29a3.4,3.4,0,0,0-.08.64s0,.08,0,.12h0v0l0,3.87L41,72.16,216.35,50.25ZM448.89,202.37l-.47.22L249.55,264.48l2.44-106L454.5,114.36l-2.75,43.14ZM68.13,173c-.09-.28-.18-.67-.28-1.15l8.25,4.77C71.59,176.22,68.73,175,68.13,173ZM209.88,258c-3.39-.59-7.71-3.2-8-5.56l-.4-3.25,10.37,6a4.69,4.69,0,0,0-.17.67.2.2,0,0,1,0,.07c0,.17,0,.35,0,.53l0,1.83Z"/><path class="cls-1" d="M330.23,161.91l-56,13.73a3.44,3.44,0,0,0-2.61,3.26l-1.29,56.86a3.43,3.43,0,0,0,4.4,3.37l55.48-16.41a3.42,3.42,0,0,0,2.46-3.17l1.77-54.2A3.43,3.43,0,0,0,330.23,161.91Z"/><path class="cls-1" d="M424.8,168.36c-2.82-.83-6.19,2.17-7.55,6.72s-.18,8.91,2.63,9.75,6.2-2.17,7.55-6.71S427.61,169.2,424.8,168.36Z"/><path class="cls-1" d="M403.09,174.36c-2.81-.84-6.19,2.17-7.55,6.71s-.18,8.92,2.64,9.76,6.19-2.17,7.55-6.72S405.9,175.2,403.09,174.36Z"/><path class="cls-1" d="M362.63,185.42a6.71,6.71,0,0,0-6.4,1.65,11.14,11.14,0,0,0-3.15,5.13c-1.49,5,.34,9.72,4.27,10.9a6.25,6.25,0,0,0,1.76.26c3.33,0,6.49-2.75,7.77-7h0a11,11,0,0,0,.18-6A6.68,6.68,0,0,0,362.63,185.42Z"/><path class="cls-1" d="M445.43,162.45c-2.81-.84-6.19,2.17-7.55,6.71s-.18,8.92,2.64,9.76,6.19-2.17,7.55-6.72S448.24,163.29,445.43,162.45Z"/><path class="cls-1" d="M441.51,155.45c2,.56,4.4-1.45,5.37-4.48s.13-5.94-1.88-6.5-4.4,1.45-5.36,4.47S439.51,154.89,441.51,155.45Z"/></g></svg>