<svg xmlns="http://www.w3.org/2000/svg" viewBox="0 0 480 320"><defs><style>.cls-1{fill:#000;}</style></defs><g id="Layer_1" data-name="Layer 1"><path class="cls-1" d="M340.45,176.94a4.38,4.38,0,0,0-4,7.7h0a4.09,4.09,0,0,0,5.36-2.1,4.89,4.89,0,0,0,.55-2.09A3.77,3.77,0,0,0,340.45,176.94Z"/><path class="cls-1" d="M348.06,184.68a4.38,4.38,0,0,0-4,7.7h0a4.09,4.09,0,0,0,5.37-2.1,4.74,4.74,0,0,0,.54-2.09A3.75,3.75,0,0,0,348.06,184.68Z"/><path class="cls-1" d="M206.14,194.05l-11.79,1a1,1,0,0,0-.95,1v6.21a1,1,0,0,0,1.13,1l11.79-1a1,1,0,0,0,1-1v-6.21A1,1,0,0,0,206.14,194.05Z"/><path class="cls-1" d="M426.48,173.62a4.38,4.38,0,0,0-4,7.7h0a4.1,4.1,0,0,0,5.37-2.11,4.66,4.66,0,0,0,.54-2.08A3.73,3.73,0,0,0,426.48,173.62Z"/><path class="cls-1" d="M413.76,174.73a4.38,4.38,0,0,0-4,7.7h0a4.09,4.09,0,0,0,5.36-2.1,4.89,4.89,0,0,0,.55-2.09A3.76,3.76,0,0,0,413.76,174.73Z"/><path class="cls-1" d="M388.3,177a4.37,4.37,0,1,0,1.38,5.59,4.81,4.81,0,0,0,.55-2.08A3.75,3.75,0,0,0,388.3,177Z"/><path class="cls-1" d="M401,175.84a4.37,4.37,0,1,0,1.38,5.6,4.81,4.81,0,0,0,.54-2.09A3.75,3.75,0,0,0,401,175.84Z"/><path class="cls-1" d="M375.58,178.07a4.37,4.37,0,1,0,1.38,5.6,4.88,4.88,0,0,0,.54-2.09A3.76,3.76,0,0,0,375.58,178.07Z"/><path class="cls-1" d="M356.11,175.57a4.37,4.37,0,0,0-4,7.7h0a4.1,4.1,0,0,0,5.37-2.11,4.94,4.94,0,0,0,.54-2.08A3.75,3.75,0,0,0,356.11,175.57Z"/><path class="cls-1" d="M344.5,175.53a4.1,4.1,0,0,0,5.37-2.11,4.67,4.67,0,0,0,.54-2.09,3.75,3.75,0,0,0-1.92-3.51,4.38,4.38,0,0,0-4,7.71Z"/><path class="cls-1" d="M442.15,172.25a4.38,4.38,0,0,0-4,7.7h0a4.09,4.09,0,0,0,5.36-2.11,4.81,4.81,0,0,0,.55-2.08A3.76,3.76,0,0,0,442.15,172.25Z"/><path class="cls-1" d="M178.39,196.48l-11.79,1a1,1,0,0,0-.95,1v6.21a1,1,0,0,0,1.13,1l11.79-1a1,1,0,0,0,1-1v-6.22A1,1,0,0,0,178.39,196.48Z"/><path class="cls-1" d="M461.51,146.56a6.2,6.2,0,0,0-2.46-5.46l-.13-.1-.21-.16-.19-.1a2,2,0,0,0-.19-.12l-1.16-.6a3.68,3.68,0,0,0-.35-.15c-.11,0-.21-.09-.32-.12a3.48,3.48,0,0,0-.44-.1,3.43,3.43,0,0,0-.34-.06h-.45a2.81,2.81,0,0,0-.29,0l-12.48,1.09L354.12,94.91l-.09,0a8.31,8.31,0,0,0-4.46-.85h0L27.15,122.23H27a9.84,9.84,0,0,0-8.51,9.56s0,0,0,.05v31.66c0,.07,0,.14,0,.21s0,.28,0,.42,0,.25.08.38.07.24.11.35.1.26.16.38.11.21.18.32.14.22.22.33a3.07,3.07,0,0,0,.24.29,3.7,3.7,0,0,0,.28.28,3.11,3.11,0,0,0,.28.23c.12.09.25.17.38.25s.1.08.16.11l96.79,50.52v3.56s0,.08,0,.11,0,.29,0,.44a2,2,0,0,0,0,.35,2.29,2.29,0,0,0,.12.37,2.32,2.32,0,0,0,.13.37c0,.11.12.22.18.34a3.37,3.37,0,0,0,.19.32c.08.11.17.2.25.3s.17.2.26.29l.28.23.35.26.09.06,1,.61.22.11.08,0,.1.05.21.08a6.55,6.55,0,0,0,2.61.53l.4,0h.32l166.21-14.46c41.56-3.62,83.11-7.24,114.28-10l37.66-3.3,10.55-.94,2.79-.25c4.1-.38,4.63-2.8,4.59-4.21,0-.12,0-.24,0-.37a3.84,3.84,0,0,0,.21-1.66,2.8,2.8,0,0,0-.11-.59v-39.3a13.42,13.42,0,0,0,1-4.19.11.11,0,0,0,0-.05s0,0,0,0a0,0,0,0,0,0,0ZM134.38,215.34V182l318.07-27.83v33.3ZM349.12,102.09l77.23,40L122.15,168.7h-.06l-.23,0-.33.07-.22.05-.19.07-.32.14-.21.09c-.06,0-.11.08-.16.11a2.9,2.9,0,0,0-.29.19,1,1,0,0,0-.17.12L41.57,129ZM26.47,132a2.13,2.13,0,0,1,.69-1.46l91.34,47.3v.64s0,.08,0,.12a.34.34,0,0,0,0,.1,4,4,0,0,0-.1.85v29.54l-91.94-48Z"/><path class="cls-1" d="M328,175.48v0a5.84,5.84,0,0,0-3.1-5h0l-.2-.1a5.83,5.83,0,0,0-2.93-.52L262,175a6.37,6.37,0,0,0-5.66,6.26v11.54c-.06,3.18,1.5,4.67,2.81,5.35a5.61,5.61,0,0,0,2.62.65,4.71,4.71,0,0,0,.53,0L322,193.57l.2,0,.12,0a6.59,6.59,0,0,0,5.64-6.11V175.89s0,0,0-.08S328,175.59,328,175.48Z"/></g></svg>