<svg id="Layer_6_copy" data-name="Layer 6 copy" xmlns="http://www.w3.org/2000/svg" viewBox="0 0 480 320"><defs><style>.cls-1{fill:#000;}</style></defs><path class="cls-1" d="M461.3,126l-.26-.36c-3.6-4.86-7.29-7.19-10.92-6.9-.82.06-8.45,1.13-20.68,2.87a1.52,1.52,0,0,0-.2-.06L304.16,92.91a4,4,0,0,0-1.46-.06L21.26,133.24a2,2,0,0,0-.23.06l-.32.08a3.84,3.84,0,0,0-.51.19l-.28.13a4.2,4.2,0,0,0-.49.33,1,1,0,0,0-.17.11l-.05,0a4.37,4.37,0,0,0-.55.59l0,0a4.11,4.11,0,0,0-.43.73c0,.07-.05.15-.08.23a2.9,2.9,0,0,0-.18.57,1.57,1.57,0,0,0-.05.3,3.31,3.31,0,0,0,0,.55.78.78,0,0,0,0,.16l1.53,45.27a4,4,0,0,0,3.09,3.76l139.64,32.76a4,4,0,0,0,.37,3.66c3.16,4.79,6.67,7.25,10.46,7.33h.21c.27,0,.53,0,.8,0a9.86,9.86,0,0,0,1.75-.35L458,185.13a4,4,0,0,0,3.37-3.82l1.58-46.46a4.6,4.6,0,0,0,.7-1.17C464.82,130.75,462.87,128.13,461.3,126Zm-10.62.71c.3,0,1.45.63,3.15,2.7L184.94,169.17a2.17,2.17,0,0,0-.19-.33,27.26,27.26,0,0,0-2.55-3.21C277.87,151.66,446.06,127.17,450.68,126.74ZM172.9,222.09a6.46,6.46,0,0,1-2.86-2.46l.2-.14a4,4,0,0,0,1.52-3.13V168.15a3.73,3.73,0,0,0,0-.47c2.2.71,4.57,3.33,5.71,4.74L177.12,218A10.23,10.23,0,0,1,173.8,222ZM303.1,100.88,407.47,124.8c-72.6,10.45-214.25,31.14-235.08,34.18a3.89,3.89,0,0,0-1.32.45,10.07,10.07,0,0,0-6.18,1.81,3.91,3.91,0,0,0-1.51,1.89L44.69,138ZM26,142.18l137.76,29.21v39.92l-136.5-32Zm158.9,78a3.79,3.79,0,0,0,.21-1.2l.29-41.8,269.42-39.81-1.37,40.36Z"/><ellipse class="cls-1" cx="317.76" cy="183.13" rx="3.42" ry="4.23"/><path class="cls-1" d="M332.49,176.52c-1.89,0-3.42,1.9-3.42,4.24s1.53,4.23,3.42,4.23,3.42-1.9,3.42-4.23S334.38,176.52,332.49,176.52Z"/><path class="cls-1" d="M342.55,174.62c-1.89,0-3.42,1.9-3.42,4.24s1.53,4.23,3.42,4.23,3.42-1.9,3.42-4.23S344.44,174.62,342.55,174.62Z"/><ellipse class="cls-1" cx="352.36" cy="177.78" rx="3.42" ry="4.23"/><path class="cls-1" d="M363,171.5c-1.89,0-3.42,1.9-3.42,4.24S361.07,180,363,180s3.42-1.89,3.42-4.23S364.85,171.5,363,171.5Z"/><path class="cls-1" d="M372.58,170.29c-1.88,0-3.42,1.89-3.42,4.23s1.54,4.24,3.42,4.24,3.42-1.9,3.42-4.24S374.47,170.29,372.58,170.29Z"/><path class="cls-1" d="M383,168.69c-1.89,0-3.42,1.9-3.42,4.24s1.53,4.23,3.42,4.23,3.42-1.89,3.42-4.23S384.89,168.69,383,168.69Z"/><path class="cls-1" d="M393,166.94c-1.89,0-3.42,1.9-3.42,4.24s1.53,4.23,3.42,4.23,3.42-1.9,3.42-4.23S394.91,166.94,393,166.94Z"/><ellipse class="cls-1" cx="403.23" cy="169.94" rx="3.42" ry="4.23"/><ellipse class="cls-1" cx="413.43" cy="168.59" rx="3.42" ry="4.23"/><ellipse class="cls-1" cx="422.61" cy="167.19" rx="3.42" ry="4.23"/><path class="cls-1" d="M439.26,161.31c-1.89,0-3.42,1.89-3.42,4.23s1.53,4.24,3.42,4.24,3.42-1.9,3.42-4.24S441.15,161.31,439.26,161.31Z"/><path class="cls-1" d="M260.9,187.94c-1.53,0-2.77,1.54-2.77,3.44s1.24,3.43,2.77,3.43,2.78-1.53,2.78-3.43S262.44,187.94,260.9,187.94Z"/></svg>