<svg xmlns="http://www.w3.org/2000/svg" viewBox="0 0 480 320"><defs><style>.cls-1{fill:#000;}</style></defs><g id="Layer_1" data-name="Layer 1"><path class="cls-1" d="M340.38,177a4.38,4.38,0,0,0-4,7.7h0a4.09,4.09,0,0,0,5.36-2.1,4.74,4.74,0,0,0,.54-2.09A3.74,3.74,0,0,0,340.38,177Z"/><path class="cls-1" d="M348,184.73a4.38,4.38,0,0,0-4,7.7h0a4.09,4.09,0,0,0,5.37-2.1,4.81,4.81,0,0,0,.54-2.09A3.75,3.75,0,0,0,348,184.73Z"/><path class="cls-1" d="M206.08,194.11l-11.8,1a1,1,0,0,0-.94,1v6.21a1,1,0,0,0,1.12,1l11.8-1a1,1,0,0,0,1-1v-6.21A1,1,0,0,0,206.08,194.11Z"/><path class="cls-1" d="M426.42,173.67a4.38,4.38,0,0,0-4,7.7h0a4.1,4.1,0,0,0,5.37-2.11,4.8,4.8,0,0,0,.54-2.08A3.73,3.73,0,0,0,426.42,173.67Z"/><path class="cls-1" d="M413.7,174.78a4.38,4.38,0,0,0-4,7.7h0a4.09,4.09,0,0,0,5.36-2.1,4.89,4.89,0,0,0,.55-2.09A3.77,3.77,0,0,0,413.7,174.78Z"/><path class="cls-1" d="M388.24,177a4.37,4.37,0,1,0,1.38,5.59,4.66,4.66,0,0,0,.54-2.08A3.73,3.73,0,0,0,388.24,177Z"/><path class="cls-1" d="M401,175.89a4.37,4.37,0,1,0,1.38,5.6,4.81,4.81,0,0,0,.54-2.09A3.77,3.77,0,0,0,401,175.89Z"/><path class="cls-1" d="M375.52,178.12a4.38,4.38,0,1,0,1.37,5.6,4.89,4.89,0,0,0,.55-2.09A3.76,3.76,0,0,0,375.52,178.12Z"/><path class="cls-1" d="M356.05,175.62a4.37,4.37,0,0,0-4,7.7h0a4.09,4.09,0,0,0,5.36-2.1,4.89,4.89,0,0,0,.55-2.09A3.75,3.75,0,0,0,356.05,175.62Z"/><path class="cls-1" d="M344.44,175.58a4.1,4.1,0,0,0,5.37-2.11,4.81,4.81,0,0,0,.54-2.09,3.75,3.75,0,0,0-1.92-3.51,4.38,4.38,0,0,0-4,7.71Z"/><path class="cls-1" d="M442.08,172.3a4.38,4.38,0,0,0-4,7.7h0a4.09,4.09,0,0,0,5.36-2.11,4.66,4.66,0,0,0,.54-2.08A3.73,3.73,0,0,0,442.08,172.3Z"/><path class="cls-1" d="M178.33,196.53l-11.79,1a1,1,0,0,0-.95,1v6.21a1,1,0,0,0,1.13,1l11.79-1a1,1,0,0,0,1-1v-6.22A1,1,0,0,0,178.33,196.53Z"/><path class="cls-1" d="M461.45,146.61a6.2,6.2,0,0,0-2.46-5.46l-.13-.1-.22-.16-.18-.1a2,2,0,0,0-.19-.12l-1.16-.6a3.19,3.19,0,0,0-.35-.14,2.15,2.15,0,0,0-.32-.13,3.48,3.48,0,0,0-.44-.1l-.34-.06h-.45a2.81,2.81,0,0,0-.29,0l-12.48,1.09L354.06,95l-.09,0a8.33,8.33,0,0,0-4.46-.85h0L27.09,122.28h-.17a9.84,9.84,0,0,0-8.51,9.56v31.71c0,.07,0,.14,0,.21s0,.28,0,.42.05.25.08.38.07.24.11.36.1.25.16.37a2.58,2.58,0,0,0,.18.32,3.15,3.15,0,0,0,.22.33,2.17,2.17,0,0,0,.24.29l.28.28a3.11,3.11,0,0,0,.28.23c.12.09.25.17.38.25s.1.08.16.11l96.79,50.52v3.56s0,.08,0,.11a3.27,3.27,0,0,0,0,.44c0,.12,0,.24.06.35s.07.25.11.38.08.24.14.36.12.22.18.34a3.37,3.37,0,0,0,.19.32c.08.11.17.21.25.3s.17.2.26.29a3.11,3.11,0,0,0,.28.23l.35.26.09.06,1,.61.22.11.08,0,.1,0,.21.08a6.55,6.55,0,0,0,2.61.53l.4,0h.32s83.11-7.22,166.21-14.46c41.56-3.62,83.11-7.24,114.28-10l37.66-3.3,10.55-.94,2.79-.25c4.1-.38,4.63-2.8,4.59-4.2,0-.13,0-.25,0-.37a4.05,4.05,0,0,0,.21-1.67,3.84,3.84,0,0,0-.11-.59V151a13.42,13.42,0,0,0,1-4.19.11.11,0,0,0,0,0v0s0,0,0,0S461.44,146.63,461.45,146.61ZM134.31,215.39v-33.3l318.08-27.83v33.3ZM349.05,102.14l77.24,40-304.2,26.61H122l-.22,0-.33.07-.22,0-.19.08-.32.13-.21.09-.17.11-.28.19-.18.12L41.51,129.05ZM26.41,132.05a2.15,2.15,0,0,1,.69-1.46l91.34,47.3v.64s0,.08,0,.12a.33.33,0,0,0,0,.1,4,4,0,0,0-.1.85v29.54l-91.94-48Z"/><path class="cls-1" d="M327.92,175.53v0a5.84,5.84,0,0,0-3.1-5h0l-.2-.1a5.83,5.83,0,0,0-2.93-.52L262,175.07a6.39,6.39,0,0,0-5.66,6.26v11.54c-.06,3.18,1.5,4.67,2.81,5.35a5.61,5.61,0,0,0,2.62.65,4.71,4.71,0,0,0,.53,0L322,193.62l.2,0,.12,0a6.59,6.59,0,0,0,5.64-6.11V175.94s0-.05,0-.08S327.92,175.64,327.92,175.53Z"/></g></svg>