<svg xmlns="http://www.w3.org/2000/svg" xmlns:xlink="http://www.w3.org/1999/xlink" viewBox="0 0 480 320"><defs><style>.cls-1{fill:none;}.cls-2{clip-path:url(#clip-path);}.cls-3{fill:#000;}</style><clipPath id="clip-path"><rect class="cls-1" y="-212.01" width="474.67" height="178.24"/></clipPath></defs><g id="Artwork"><g class="cls-2"><image width="2415" height="3000" transform="translate(-90.65 -543.63) scale(0.27)" xlink:href="../../0%20(LATEST)/Cambridge%20Audio%20(JW%20-%20to%20draw)/Device%20assets/Cambridge_Audio_Evo_Nude_Wood.jpeg"/></g></g><g id="Layer_5" data-name="Layer 5"><path class="cls-3" d="M452.31,112.05a5.93,5.93,0,0,0-4.88-1.4l-6.51,1.12,0-.1L299.11,61.52a8,8,0,0,0-3.85-.37L32.5,100.37a8,8,0,0,0-6.82,7.91v71.06a8,8,0,0,0,3.94,6.89l119.62,70.45A5.86,5.86,0,0,0,154,259,6.41,6.41,0,0,0,155,259l292.52-54.22a6,6,0,0,0,4.92-5.7l1.85-82.37A5.87,5.87,0,0,0,452.31,112.05Zm-155.87-43L425,114.51l-271.94,46.7-.32.08L42.88,106.91Zm31.65,149.36.06.3-172.1,31.9V168.81L329.82,139,328,218.49A.07.07,0,0,1,328.09,218.42ZM33.68,111.28,148.05,167.9v12.36L33.68,120.05Zm0,17.81L148.05,189.3v57.39L33.68,179.34Zm410.83,68.06L332,218l1.8-79.72L446.27,119Z"/><path class="cls-3" d="M361.44,171.74l.44,3.47a3.71,3.71,0,0,0,.11.58l.87,3.29a4,4,0,0,0,.2.58l1.28,3a5.28,5.28,0,0,0,.3.58l1.38,2.25a2.59,2.59,0,0,0,.19.31l.11.18a4.39,4.39,0,0,0,.4.56l2,2.38a3.45,3.45,0,0,0,.51.5l2.35,2a4,4,0,0,0,.6.42l.41.24a4.85,4.85,0,0,0,.91.54l1.3.76a5.16,5.16,0,0,0,.67.32l2.84,1.06a3.58,3.58,0,0,0,.71.2l3,.58.18,0,3.12,1.52a3.26,3.26,0,0,0,.44.15l.54.28a4.55,4.55,0,0,0,.72.3l2.91.88a4.54,4.54,0,0,0,.75.16l3,.37a4.53,4.53,0,0,0,.52,0h.22l3.13-.16a4.06,4.06,0,0,0,.7-.09l3.15-.67a4.71,4.71,0,0,0,.64-.19l3.09-1.18a3.72,3.72,0,0,0,.57-.27l3-1.65.5-.32,2.8-2.1.43-.37,2.56-2.49a4.48,4.48,0,0,0,.36-.4l2.28-2.84a4.15,4.15,0,0,0,.3-.43l1.94-3.13a4.79,4.79,0,0,0,.25-.45l1.56-3.34a4.78,4.78,0,0,0,.19-.48l1.16-3.5c0-.16.09-.33.13-.5l.72-3.58a4.51,4.51,0,0,0,.07-.53l.27-3.57a3.51,3.51,0,0,0,0-.56l-.18-3.51a5.73,5.73,0,0,0-.07-.58l-.64-3.36a4.44,4.44,0,0,0-.16-.6l-1.07-3.14a4.66,4.66,0,0,0-.26-.61l-1.5-2.86a3.92,3.92,0,0,0-.37-.59l-1.88-2.52a5.19,5.19,0,0,0-.49-.55L415.44,146a3.87,3.87,0,0,0-.59-.48l-2.54-1.67a3.83,3.83,0,0,0-.69-.37l-.69-.3a4.88,4.88,0,0,0-.55-.31l-3.18-1.39-.42-.39a4.12,4.12,0,0,0-.4-.33L403.93,139a4.12,4.12,0,0,0-.63-.39l-2.71-1.36a4.12,4.12,0,0,0-.69-.27l-.55-.17a4.38,4.38,0,0,0-1.73-.52l-.63-.19a3.42,3.42,0,0,0-.72-.16l-3-.39a5.7,5.7,0,0,0-.71,0l-3.15.12a3.92,3.92,0,0,0-.68.07l-3.17.62a4.37,4.37,0,0,0-.62.17l-3.13,1.11a4.72,4.72,0,0,0-.56.24l-3,1.59a3.06,3.06,0,0,0-.49.3l-2.88,2a4.7,4.7,0,0,0-.43.35l-2.66,2.42c-.13.12-.25.25-.37.38l-2.39,2.78c-.11.13-.21.27-.31.41l-2.07,3.08a4.92,4.92,0,0,0-.26.43l-1.71,3.32a3.82,3.82,0,0,0-.21.46l-1.31,3.49c-.06.16-.11.32-.16.49l-.89,3.59a3.06,3.06,0,0,0-.1.51l-.46,3.62a4.84,4.84,0,0,0,0,.53l0,3.59A5.07,5.07,0,0,0,361.44,171.74Zm29.81-18.2,2.44-1.56,2.51-1.13,2.51-.71,2.46-.29,2.36.13,2.23.51,2.06.89,1.89,1.24,1.69,1.6,1.45,1.94,1.17,2.26.87,2.53.52,2.77.16,2.93-.23,3-.62,3.05-1,3-1.34,2.88-1.67,2.68-1.94,2.43-2.17,2.11-2.34,1.75-2.45,1.36-2.49.95-2.48.53-2.4.12-2.31-.27L390,189.6l-2-1-1.82-1.39-1.6-1.75-1.36-2.08-1.06-2.4-.74-2.67L381,175.4l0-3,.41-3.09.81-3.08,1.19-3,1.54-2.83,1.85-2.59,2.1-2.3Zm-21.09,14.37.39-3.11.77-3.09,1.14-3,1.48-2.87,1.79-2.65,2-2.39,2.26-2.06,2.41-1.69,2.51-1.31,2.54-.9,1.71-.33-2.89,1.84a4,4,0,0,0-.47.34L383.11,149a5,5,0,0,0-.41.38l-2.47,2.7c-.12.14-.24.28-.34.42l-2.16,3c-.1.15-.19.3-.28.45l-1.79,3.29c-.08.16-.15.32-.22.48l-1.38,3.48a4.83,4.83,0,0,0-.16.5l-.95,3.61a3.18,3.18,0,0,0-.1.52l-.49,3.64a3.52,3.52,0,0,0,0,.56l0,3.59a3.69,3.69,0,0,0,0,.58l.44,3.48c0,.08,0,.16.05.24l-.57-.94-1-2.45-.71-2.71-.37-2.9Z"/><path class="cls-3" d="M426.14,191.55l1.22,1.51,1.62,1.07,1.86.53,1.93,0,1.87-.57,1.67-1,1.4-1.41.94-1.51.78-2.07.22-2-.25-1.95-.74-1.8-1.21-1.51-1.6-1.08-1.86-.54-1.94,0-1.87.57-1.69,1-1.41,1.41-.94,1.51-.78,2.09-.22,2,.26,1.95Zm3.14-4.84.37-1,.59-.95L431,184l.85-.51.84-.26.78,0,.67.2.58.39.47.58.32.79.12.94-.11,1-.37,1-.58.94-.75.76-.84.52-.85.26-.77,0-.68-.2-.58-.38-.47-.58-.33-.79-.12-.95Z"/><polygon class="cls-3" points="173.79 227.78 314.61 201.94 314.61 157.47 173.79 183.53 173.79 227.78"/></g></svg>