<?xml version="1.0" encoding="UTF-8"?>
<svg id="Artwork" xmlns="http://www.w3.org/2000/svg" viewBox="0 0 480 320">
  <defs>
    <style>
      .cls-1 {
        fill: #000;
      }
    </style>
  </defs>
  <path class="cls-1" d="m460.34,127.91c0-.28-.03-.55-.08-.82l-.18-.88c-.05-.24-.12-.48-.22-.7l-.32-.79c-.09-.22-.2-.44-.33-.64l-.42-.65c-.15-.24-.33-.46-.54-.67l-.56-.56c-.3-.3-.65-.56-1.04-.75l-.65-.32s-.04-.01-.05-.02c-.25-.13-.51-.25-.78-.33l-5.6-1.67s-.05,0-.08-.01c-.83-.24-1.74-.32-2.71-.23-.03,0-.06,0-.09,0,0,0,0,0,0,0,0,0,0,0-.01,0-.02,0-.05.01-.07.01-.02,0-.05,0-.07,0l-.31.05-133.94-41.07s0,0,0,0c-.14-.04-.28-.06-.43-.09-.13-.02-.25-.06-.38-.07,0,0,0,0,0,0l-.72-.07c-.39-.08-.8-.11-1.22-.06L26.84,111.16s-.08.02-.12.03c-.21.03-.41.08-.61.14-.03,0-.06.02-.09.03-.06.02-.11.03-.17.05-.48.12-1.07.29-1.71.61-.97.49-1.86,1.22-2.57,2.14-.61.78-1.08,1.62-1.39,2.48-.28.78-.37,1.48-.41,2.01-.02.1-.05.19-.06.29-.02.16-.02.32-.02.48,0,.09-.02.18-.01.27v.08s0,0,0,0l2.22,44.13c0,.09.03.18.04.27.02.13.03.26.06.4.03.13.07.26.11.38.03.09.05.18.08.27.1.47.24.97.45,1.5.51,1.26,1.33,2.3,2.38,3,0,0,0,0,.01,0,.06.05.11.1.18.15l94.96,65.14c.63,1.21,1.54,2.27,2.69,3.07.15.11.31.2.47.28l2.08,1.44c.13.11.25.23.4.33l1.25.83c.17.11.34.21.52.29,1.26.73,2.7,1.14,4.25,1.17.42,0,1.11,0,1.87-.19l316.86-58.25s.08-.03.12-.04c.11-.02.22-.04.33-.07,4.08-1.25,6.87-4.98,6.94-9.26,0-.11-.02-.21-.03-.32l2.43-45.19s0-.07,0-.11c0-.04.01-.07.01-.11v-.97ZM29.87,161.61l-1.79-34.82,89.68,52.65,1.16,42.96-89.05-60.79Zm96.59,5.67l-86.56-49.6,269.83-31.99,117.74,36.1-301.01,45.49Zm5.6,67.11s-.06.02-.09.03c-.01,0-.02,0-.03,0-.03,0-.05,0-.05,0-.22,0-.36-.11-.45-.19-.11-.11-.17-.25-.16-.41,0-.03,0-.06,0-.09,0-.03,0-.06,0-.09l-1.44-53.47s0,0,0,0c-.04-1.25.83-2.32,2.06-2.57l320.45-48.9v.09l-2.45,45.54c0,.1.01.2.01.3-.07.71-.52,1.32-1.18,1.56l-316.67,58.22Z"/>
  <path class="cls-1" d="m164.87,204.01c-3.57.29-6.46,3.48-6.45,7.12,0,3.64,2.9,6.36,6.47,6.07s6.46-3.48,6.45-7.12c0-3.64-2.9-6.36-6.47-6.07Z"/>
  <path class="cls-1" d="m185.64,204.59c-1.93.16-3.5,1.89-3.5,3.86,0,1.97,1.57,3.45,3.51,3.29,1.93-.16,3.5-1.89,3.5-3.86,0-1.97-1.57-3.45-3.51-3.29Z"/>
  <path class="cls-1" d="m370.84,168.06c-3.57.26-6.46,3.43-6.45,7.07,0,3.64,2.9,6.38,6.47,6.12s6.46-3.43,6.45-7.07c0-3.64-2.9-6.38-6.47-6.12Z"/>
  <path class="cls-1" d="m390.09,164.35c-3.57.26-6.46,3.43-6.45,7.07,0,3.64,2.9,6.38,6.47,6.12s6.46-3.43,6.45-7.07c0-3.64-2.9-6.38-6.47-6.12Z"/>
  <path class="cls-1" d="m408.37,160.98c-3.57.26-6.46,3.43-6.45,7.07,0,3.64,2.9,6.38,6.47,6.12s6.46-3.43,6.45-7.07c0-3.64-2.9-6.38-6.47-6.12Z"/>
  <path class="cls-1" d="m427.12,157.55c-3.57.26-6.46,3.43-6.45,7.07,0,3.64,2.9,6.38,6.47,6.12s6.46-3.43,6.45-7.07c0-3.64-2.9-6.38-6.47-6.12Z"/>
  <path class="cls-1" d="m46.08,144.34c-.12-.11-.25-.22-.38-.31-1.49-1.11-3.02-1.33-4.29-.6-1.52.87-2.52,3-2.76,5.84-.44,5.3,1.81,11.4,5.12,13.87.35.26.7.47,1.05.63.48.22.95.33,1.41.36.64.05,1.27-.07,1.83-.4.52-.3.97-.75,1.36-1.32.11-.04.23-.07.34-.13,1.02-.59,1.71-2.09,1.88-4.13.25-2.98-.63-6.35-2.09-8.56-.85-2.17-2.05-4.04-3.47-5.26Z"/>
  <path class="cls-1" d="m107.52,186.87c-.85-2.17-2.05-4.04-3.47-5.26-.12-.11-.25-.22-.38-.31-1.49-1.11-3.02-1.33-4.29-.6-1.52.87-2.52,3-2.76,5.84-.44,5.3,1.81,11.4,5.12,13.87.35.26.7.47,1.05.63.48.22.95.33,1.41.36.64.05,1.27-.07,1.83-.4.52-.3.97-.75,1.36-1.32.11-.04.23-.07.34-.13,1.02-.59,1.71-2.09,1.88-4.13.25-2.98-.63-6.35-2.09-8.56Z"/>
</svg>