<svg xmlns="http://www.w3.org/2000/svg" viewBox="0 0 480 320"><defs><style>.cls-1{fill:#000;}</style></defs><title>Cambridge Audio - CXNV2V2</title><g id="CXNV2"><path class="cls-1" d="M153,261.35a4.14,4.14,0,0,0-.4-1.41l-.41-.84a3.92,3.92,0,0,0-.94-1.23l-.71-.63a3.92,3.92,0,0,0-1.24-.75l-.94-.35a3.91,3.91,0,0,0-1.21-.26l-1.11,0a4,4,0,0,0-1,.08l-1.17.25a4.12,4.12,0,0,0-.86.28l-1.15.54a3.71,3.71,0,0,0-.72.43l-1,.78a3.78,3.78,0,0,0-.62.58l-.83,1a3.89,3.89,0,0,0-.51.76l-.56,1a4.35,4.35,0,0,0-.36,1l-.24,1.07a4.1,4.1,0,0,0-.08,1.26l.1,1a3.82,3.82,0,0,0,.4,1.4l.42.85a4.06,4.06,0,0,0,.95,1.23l.72.62a3.69,3.69,0,0,0,1.24.73l.95.35a3.78,3.78,0,0,0,1.2.25l1.1.05h.18a4,4,0,0,0,.85-.09l1.17-.25a4.26,4.26,0,0,0,.85-.29l1.14-.53a3.75,3.75,0,0,0,.72-.44l1-.77a4.19,4.19,0,0,0,.62-.57l.82-.95a3.82,3.82,0,0,0,.51-.75l.56-1.05a4.27,4.27,0,0,0,.36-1l.24-1.07a4,4,0,0,0,.09-1.24Z"/><path class="cls-1" d="M458.1,121.88h0l-5.44-3.64-.09,0-.08-.06a7.7,7.7,0,0,0-.81-.41,6,6,0,0,0-.47-.38L320.53,30.75l0,0h0a6.25,6.25,0,0,0-4-1h-.25a3.88,3.88,0,0,0-.48,0c-.09,0-.19,0-.28,0l-.08,0h-.08L26.51,100a3.65,3.65,0,0,0-1.09.46,8.28,8.28,0,0,0-5.28,7.29,3.71,3.71,0,0,0-.05.48v0a4.63,4.63,0,0,0,.05.83l6.26,39.29a.37.37,0,0,0,0,.09.17.17,0,0,0,0,.07,2,2,0,0,0,.07.23.94.94,0,0,0,0,.16h0v0a.57.57,0,0,0,0,.14l.13.48a4.37,4.37,0,0,0,.31.78l.25.47a1.64,1.64,0,0,0,.14.22.36.36,0,0,0,0,.09l83.6,128.49,0,.13a3.46,3.46,0,0,0,.33.88l.31.6a2.2,2.2,0,0,0,.15.26l.06.11,2.53,3.86h0l1.09,1.66.13.17a4.44,4.44,0,0,0,.46.59l.61.62a3.87,3.87,0,0,0,.81.64l.77.46a4.18,4.18,0,0,0,.87.38l.91.28a3.73,3.73,0,0,0,.82.17l1,.09.36,0,.37,0,1.07-.1a4.64,4.64,0,0,0,.65-.11l1.09-.29.13-.05.17,0L449.34,177.73l.09,0a.32.32,0,0,1,.09,0,11.11,11.11,0,0,0,6.81-8.62.22.22,0,0,0,0-.08.14.14,0,0,0,0-.07l4.55-40.31a.48.48,0,0,0,0-.12A7.36,7.36,0,0,0,458.1,121.88Zm-27.8,51.19-1.56,1.09-1.56.88-1.52.67-1.45.44-1.33.23-1.19,0-1-.14-.86-.27-.71-.38-.61-.51-.53-.65-.45-.84-.35-1-.21-1.26,0-1.44.14-1.61.36-1.73.57-1.8.78-1.84,1-1.83,1.15-1.78,1.31-1.69,1.44-1.56,1.53-1.39,1.58-1.21,1.61-1,1.58-.77,1.51-.53,1.4-.31,1.25-.1,1.09.09.91.24.75.35.64.48.55.6.47.78.38,1,.26,1.18.1,1.37-.09,1.53-.28,1.65-.48,1.75-.68,1.79-.87,1.79-1.05,1.76-1.21,1.69-1.34,1.58-1.44,1.45Zm4.14-30.33c-.2,0-.41,0-.62,0l-1.85.14a5.21,5.21,0,0,0-.55.08l-1.92.42a4.34,4.34,0,0,0-.48.14l-2,.69a3.65,3.65,0,0,0-.41.18l-2,1-.35.2-1.94,1.2a3.62,3.62,0,0,0-.32.22l-1.88,1.43a3,3,0,0,0-.27.23l-1.79,1.63a3,3,0,0,0-.25.25l-1.66,1.8-.22.26-1.52,2c-.07.08-.13.18-.2.27l-1.34,2.07a2.75,2.75,0,0,0-.17.29l-1.14,2.14c-.06.11-.11.21-.16.32l-.92,2.18c-.05.12-.09.24-.13.36l-.69,2.18c0,.13-.07.26-.1.39l-.44,2.15a3.11,3.11,0,0,0-.07.44l-.19,2.07a4.1,4.1,0,0,0,0,.49l.06,2a3.31,3.31,0,0,0,.06.55l.31,1.83a2.93,2.93,0,0,0,.15.6l.22.67-.49-.32-.83-.75-.72-.93-.61-1.12-.49-1.31-.32-1.52-.15-1.71,0-1.86.26-2,.48-2.1.71-2.15.91-2.18,1.12-2.16,1.3-2.11,1.48-2,1.62-1.91,1.73-1.76,1.83-1.59,1.89-1.38,1.91-1.18,1.89-.94,1.86-.7,1.77-.46,1.65-.23h1.52l1.35.18,1.2.35,1,.51.89.63Zm8,28.85a1.67,1.67,0,0,0,.18-.28l1.22-2c.06-.1.12-.2.17-.3l1-2.11a3.27,3.27,0,0,0,.14-.33l.82-2.13c0-.12.08-.24.11-.36l.59-2.12c0-.07,0-.14,0-.22s0,0,0,0l0-.27a1.81,1.81,0,0,0,0-.23l.29-1.72a3.44,3.44,0,0,0,0-.45l.11-2a4.17,4.17,0,0,0,0-.5l-.14-1.9A3.43,3.43,0,0,0,447,154l-.38-1.76a3.28,3.28,0,0,0-.18-.61l-.62-1.59a4.6,4.6,0,0,0-.31-.63l-.13-.21-.1-1.33c0-.13,0-.27-.05-.4l-.36-2a4.77,4.77,0,0,0-.13-.51l-.6-1.9a3.49,3.49,0,0,0-.22-.53l-.83-1.72a3.65,3.65,0,0,0-.32-.54l-1.06-1.51a3.52,3.52,0,0,0-.43-.51l-1.27-1.3a3.67,3.67,0,0,0-.52-.44l-1.46-1.05a3.53,3.53,0,0,0-.59-.35l-1.65-.8a3.22,3.22,0,0,0-.61-.24l-1.81-.53a4.29,4.29,0,0,0-.6-.13l-1.94-.26a5.27,5.27,0,0,0-.57,0l-2.06,0a4.38,4.38,0,0,0-.51,0l-2.15.3a3.73,3.73,0,0,0-.46.09l-2.2.58a3.24,3.24,0,0,0-.41.13l-2.23.84-.36.16-2.24,1.11-.31.17-2.21,1.35-.28.19-2.15,1.59a2.43,2.43,0,0,0-.25.2l-2.07,1.79-.22.21-2,2-.2.22-1.81,2.14a2.23,2.23,0,0,0-.19.24l-1.65,2.26c-.05.09-.11.17-.16.25l-1.47,2.37-.15.27L401.33,154a2.55,2.55,0,0,0-.13.29l-1,2.47a2.45,2.45,0,0,0-.12.31l-.81,2.49a3.37,3.37,0,0,0-.09.34l-.57,2.45a2.32,2.32,0,0,0-.06.38l-.32,2.39a2.83,2.83,0,0,0,0,.41l-.06,2.3a3.49,3.49,0,0,0,0,.46l.19,2.18a4.29,4.29,0,0,0,.07.5l.44,2a3.24,3.24,0,0,0,.16.53l.68,1.86a5.38,5.38,0,0,0,.24.55l.92,1.66a3.84,3.84,0,0,0,.35.54l1.13,1.45a3.64,3.64,0,0,0,.46.5l1.33,1.21a3.2,3.2,0,0,0,.55.42l1.51,1a3.41,3.41,0,0,0,.6.31l1.32.56L123.31,282.3l-.63.16-.37,0h-.15l-.06-.11a3.64,3.64,0,0,0-.6-.8l-.34-.52h0l-2.34-3.58-.12-.36-5.09-44.43a1.12,1.12,0,0,1,.06-.48,4.14,4.14,0,0,0,.39-.68,3.94,3.94,0,0,1,2-1.42h0L448.81,125.29l4.1,2.75-4.49,39.82a3.08,3.08,0,0,1-1.86,2.36l-4.21,1.46ZM316.49,37.8h.18l123.5,81.84L113.62,222.47h0a12,12,0,0,0-3.86,2.07L28.53,107.81l.34-.11a3.38,3.38,0,0,0,.52-.22ZM34.33,147l-.09-.25-3.45-21.68,74.84,107.56a6.43,6.43,0,0,0,0,.76s0,0,0,.06v.05l3.21,28.06Z"/><path class="cls-1" d="M364,154.58a4.72,4.72,0,0,0-2.11.21h-.05l-128,41.09-.07,0a5.74,5.74,0,0,0-3.87,4.62,1.81,1.81,0,0,0,0,.23c0,.11,0,.21-.05.31s0,.11,0,.17,0,.11,0,.17l1.1,34.4s0,0,0,.07V236c0,.11,0,.22,0,.33a2.79,2.79,0,0,0,.07.38,4.81,4.81,0,0,0,4.72,3.83h.34a4.82,4.82,0,0,0,1.54-.37l124.74-42.64,0,0h.05a5.75,5.75,0,0,0,3.73-4.76v-.11a.43.43,0,0,1,0-.11l1.9-32.86a2.09,2.09,0,0,0,0-.25A4.75,4.75,0,0,0,364,154.58ZM238.78,231.29l-.9-28.29,122-39.16-1.54,26.58Z"/><path class="cls-1" d="M227,235.69s0-.05,0-.09a.27.27,0,0,1,0-.09c0-.1,0-.2-.06-.3a2.7,2.7,0,0,0-.08-.41,4.5,4.5,0,0,0-5.93-3.24l-.07,0-9.27,3.13-.11,0a5.17,5.17,0,0,0-3.35,4.07,1.87,1.87,0,0,0,0,.25,2.13,2.13,0,0,1,0,.25c0,.07,0,.13,0,.2s0,.13,0,.2l.12,2.75s0,.07,0,.11a.41.41,0,0,0,0,.11c0,.1,0,.19.06.29s0,.25.07.36a4.61,4.61,0,0,0,4.45,3.49,3.39,3.39,0,0,0,.45,0,4.71,4.71,0,0,0,1.05-.24l.07,0,9.24-3.14.12-.06a5.19,5.19,0,0,0,3.33-4l0-.24c0-.09,0-.17,0-.26s0-.13,0-.19,0-.14,0-.2Z"/></g></svg>