<?xml version="1.0" encoding="utf-8"?>
<!-- Generator: Adobe Illustrator 23.0.3, SVG Export Plug-In . SVG Version: 6.00 Build 0)  -->
<svg version="1.1" xmlns="http://www.w3.org/2000/svg" xmlns:xlink="http://www.w3.org/1999/xlink" x="0px" y="0px"
	 viewBox="0 0 480 320" style="enable-background:new 0 0 480 320;" xml:space="preserve">
<style type="text/css">
	.st0{fill:#000FFF;}
</style>
<g id="Layer_1">
	<title>Cambridge Audio - Edge NQ</title>
</g>
<g id="Layer_2">
	<g>
		<path class="st0" d="M453.1,128.1C453.1,128.1,453.1,128,453.1,128.1c0-0.3,0-0.5,0-0.7l-0.1-1.2c0-0.3-0.1-0.6-0.2-0.9l-0.4-1.2
			c-0.1-0.3-0.2-0.5-0.3-0.7l-0.6-1.2c-0.1-0.2-0.2-0.4-0.4-0.6l-0.9-1.2c-0.1-0.1-0.2-0.3-0.4-0.4l-1.2-1.2
			c-0.1-0.1-0.2-0.2-0.3-0.3l-1.4-1.1c-0.1-0.1-0.2-0.1-0.3-0.2l-1.7-1.1c0,0-0.1,0-0.1,0c0,0,0,0-0.1,0L352,62.4c0,0,0,0,0,0
			l-3.8-2.2c0,0,0,0,0,0l-31.9-18.4c0,0-0.1,0-0.1,0c0,0,0,0-0.1,0l-1.5-0.8c-0.1,0-0.2-0.1-0.3-0.1l-1.6-0.7
			c-0.1,0-0.2-0.1-0.2-0.1l-1.8-0.6c-0.1,0-0.1,0-0.2-0.1l-2-0.6c-0.1,0-0.1,0-0.2-0.1l-2.1-0.5c-0.1,0-0.1,0-0.2,0l-2.2-0.4
			c-0.1,0-0.1,0-0.2,0l-2.3-0.4c-0.1,0-0.1,0-0.2,0l-2.4-0.3c0,0-0.1,0-0.1,0l-2.5-0.2c0,0-0.1,0-0.1,0l-2.5-0.1c0,0-0.1,0-0.1,0
			l-2.5,0c0,0-0.1,0-0.1,0l-2.5,0.1c0,0-0.1,0-0.1,0l-2.4,0.2c0,0-0.1,0-0.1,0l-2.4,0.2c-0.1,0-0.1,0-0.2,0l-2.3,0.3
			c-0.1,0-0.1,0-0.2,0l-2.2,0.4c0,0,0,0,0,0c0,0,0,0,0,0L51.4,85.2c0,0,0,0,0,0c0,0,0,0,0,0l-2.5,0.6c-0.1,0-0.1,0-0.2,0l-2.4,0.7
			c-0.1,0-0.1,0-0.2,0.1l-2.3,0.7c-0.1,0-0.1,0-0.2,0.1l-2.1,0.8c-0.1,0-0.2,0.1-0.2,0.1l-1.9,0.9c-0.1,0-0.2,0.1-0.3,0.1l-1.7,0.9
			c-0.1,0.1-0.2,0.1-0.3,0.2l-1.5,1c-0.1,0.1-0.2,0.2-0.3,0.2l-1.2,1c-0.1,0.1-0.2,0.2-0.4,0.3l-1,1.1c-0.1,0.2-0.3,0.3-0.4,0.5
			l-0.7,1.1c-0.1,0.2-0.3,0.4-0.4,0.7l-0.5,1.1c-0.1,0.3-0.2,0.6-0.3,0.9l-0.2,1.1c-0.1,0.3-0.1,0.7-0.1,1l0,0.4c0,0.1,0,0.3,0,0.4
			l6.3,65.2c0,0,0,0,0,0.1c0,0,0,0,0,0c0.3,2.3,1.3,4.4,3,6.1c0,0,0,0,0,0l23.9,24.9c0.1,0.1,0.3,0.2,0.4,0.3l2.1,2.2
			c0.1,0.1,0.2,0.2,0.2,0.3c0,0.1,0.1,0.1,0.1,0.2l70.6,73.6c0,0,0.1,0.1,0.1,0.1c0,0,0.1,0.1,0.1,0.1l1.5,1.4
			c0.1,0.1,0.2,0.2,0.4,0.3l1.8,1.3c0.1,0.1,0.2,0.2,0.3,0.2l2,1.2c0.1,0.1,0.2,0.1,0.3,0.2l2.3,1.1c0.1,0,0.2,0.1,0.3,0.1l2.5,0.9
			c0.1,0,0.2,0.1,0.3,0.1l2.7,0.8c0.1,0,0.2,0,0.2,0.1l2.8,0.7c0.1,0,0.2,0,0.2,0l3,0.5c0.1,0,0.1,0,0.2,0l3.1,0.4
			c0.1,0,0.1,0,0.2,0l3.2,0.2c0.1,0,0.1,0,0.2,0l3.2,0c0,0,0,0,0,0c0.1,0,0.1,0,0.2,0l3.2-0.1c0.1,0,0.1,0,0.2,0l3.2-0.3
			c0.1,0,0.1,0,0.2,0l3.1-0.5c0.1,0,0.1,0,0.2,0l3-0.6c0.1,0,0.1,0,0.2-0.1l2.9-0.8c0,0,0,0,0,0c0,0,0,0,0.1,0l233.7-68.6
			c0.4-0.1,0.8-0.3,1.2-0.6c0.1,0,0.2,0,0.3,0c0,0,0.1,0,0.1,0l2-0.1c0.2,0,0.3,0,0.5,0l2-0.3c0.1,0,0.3-0.1,0.4-0.1l2.1-0.5
			c0.1,0,0.3-0.1,0.4-0.1l2.1-0.8c0.1,0,0.2-0.1,0.3-0.2l2.1-1c0.1-0.1,0.2-0.1,0.3-0.2l1.7-1c0.1,0,0.2,0,0.3,0
			c0.5,0,1-0.1,1.5-0.3l2-0.8c0.1,0,0.2-0.1,0.3-0.1l1.8-0.9c0.1-0.1,0.2-0.1,0.3-0.2l1.6-1c0.1-0.1,0.3-0.2,0.4-0.3l1.3-1.1
			c0.1-0.1,0.3-0.2,0.4-0.4l1.1-1.2c0.1-0.2,0.3-0.3,0.4-0.5l0.8-1.2c0.1-0.2,0.3-0.4,0.3-0.7l0.5-1.3c0.1-0.2,0.2-0.5,0.2-0.8
			l0.2-1.2c0-0.1,0-0.1,0-0.2c0-0.1,0-0.1,0-0.2l0.3-3c0-0.3,0-0.7,0-1l0.6-1.4c0-0.1,0.1-0.2,0.1-0.3l0.8-2.4
			c0-0.1,0.1-0.2,0.1-0.3l0.6-2.4c0-0.1,0.1-0.2,0.1-0.3l0.4-2.3c0-0.1,0-0.2,0-0.4l0.2-2.3c0-0.1,0-0.3,0-0.4l0-2.2
			c0-0.1,0-0.3,0-0.4l-0.2-2.1c0-0.1,0-0.3-0.1-0.4l-0.5-2c0-0.2-0.1-0.3-0.1-0.5l-0.3-0.7c0.1-0.3,0.1-0.5,0.2-0.8L453.1,128.1z
			 M38.4,99.9l0.4-0.5l0.6-0.7l0.9-0.7l1.2-0.8l1.4-0.8l1.7-0.8l1.9-0.7l2.1-0.7l2.2-0.6l2.4-0.5l226.8-47.1l2.1-0.4l2.1-0.3
			l2.2-0.2l2.3-0.1l2.3-0.1l2.4,0l2.3,0.1l2.3,0.2l2.3,0.3l2.2,0.3l2.1,0.4l1.9,0.5l1.8,0.5l1.6,0.6l1.4,0.6l1.3,0.7l31.8,18.3
			c0,0,0,0,0,0l3.8,2.2c0,0,0,0,0,0l92.8,53.5l1.4,0.9l1.1,0.9l0.8,0.8l0.5,0.7l0.3,0.5l0.1,0.4l0,0.3l0,0.3l-0.2,0.4l-0.4,0.5
			l-0.6,0.6l-0.9,0.7l-1.2,0.7l-1.5,0.7l-1.8,0.7l-2.1,0.6l-256.4,67.7L177,201l-3,0.5L171,202l-3.1,0.3l-3.1,0.1l-3.1,0l-3.1-0.2
			l-3-0.3l-2.9-0.4l-2.7-0.6l-2.5-0.7l-2.3-0.8l-2.1-0.9l-1.8-0.9l-1.5-1l-1.3-1.1l-72.3-68.2c0,0,0,0,0,0c0,0,0,0,0,0l-2.9-2.7
			c0,0,0,0,0-0.1L39,101.6l-0.5-0.6l-0.2-0.3l-0.1-0.3L38.4,99.9z M45.3,167.1C45.3,167,45.2,167,45.3,167.1
			c-0.4-0.4-0.7-0.9-0.8-1.5l-5.1-52.7l17.3,16.3l4.8,54.7L45.3,167.1C45.3,167.1,45.3,167.1,45.3,167.1z M176.7,275l-2.9,0.4
			l-3,0.3l-3,0.1l-3,0l-3-0.2l-2.9-0.3l-2.8-0.5l-2.6-0.6l-2.4-0.7l-2.2-0.8l-2-0.9l-1.7-1l-1.4-1l-1.2-1.1L73.1,196l-4.7-55.8
			l64.7,61.1c0,0,0.1,0.1,0.1,0.1c0,0,0.1,0.1,0.1,0.1l1.6,1.3c0.1,0.1,0.2,0.2,0.4,0.3l1.8,1.2c0.1,0.1,0.2,0.1,0.3,0.2l2.1,1.1
			c0.1,0.1,0.2,0.1,0.3,0.1l2.4,1c0.1,0,0.2,0.1,0.3,0.1l2.6,0.9c0.1,0,0.2,0.1,0.2,0.1l2.8,0.8c0.1,0,0.2,0,0.2,0.1l2.9,0.6
			c0.1,0,0.1,0,0.2,0l3.1,0.5c0.1,0,0.1,0,0.2,0l3.2,0.3c0.1,0,0.1,0,0.2,0l3.3,0.2c0.1,0,0.1,0,0.2,0l3.3,0c0,0,0,0,0,0
			c0.1,0,0.1,0,0.2,0l3.3-0.1c0.1,0,0.1,0,0.2,0l3.3-0.3c0.1,0,0.1,0,0.2,0l3.2-0.4c0.1,0,0.1,0,0.2,0l3.1-0.6c0.1,0,0.1,0,0.2,0
			l3-0.7c0,0,0,0,0,0c0,0,0,0,0.1,0l256.5-67.7c0,0,0,0,0,0c0,0,0,0,0.1,0l2.3-0.7c0.1,0,0.2-0.1,0.3-0.1l2.1-0.8
			c0.1,0,0.2-0.1,0.3-0.1l0.8-0.4l-2,23.3l-1.1-0.7l-0.1-0.1c-0.1-0.1-0.2-0.2-0.3-0.3l-1.2-1.4c-0.1-0.1-0.3-0.3-0.4-0.4l-1.4-1.2
			c-0.1-0.1-0.3-0.3-0.5-0.4l-0.8-0.5c-0.1-0.1-0.2-0.2-0.3-0.2l-6-3.7c0,0,0,0,0,0c0,0,0,0,0,0l-0.5-0.3c-0.1-0.1-0.2-0.1-0.3-0.2
			l-1.7-0.8c-0.2-0.1-0.4-0.1-0.5-0.2l-1.8-0.5c-0.2-0.1-0.4-0.1-0.5-0.1l-1.9-0.3c-0.2,0-0.3,0-0.5,0l-2,0c-0.2,0-0.3,0-0.5,0
			l-2.1,0.2c-0.2,0-0.3,0-0.4,0.1l-2.1,0.5c-0.1,0-0.3,0.1-0.4,0.1l-2.1,0.7c-0.1,0-0.2,0.1-0.4,0.1l-2.1,0.9
			c-0.1,0-0.2,0.1-0.3,0.2l-2.1,1.2c-0.1,0.1-0.2,0.1-0.3,0.2l-2.1,1.4c-0.1,0.1-0.2,0.1-0.3,0.2l-2,1.6c-0.1,0.1-0.2,0.1-0.2,0.2
			l-1.9,1.8c-0.1,0.1-0.1,0.1-0.2,0.2l-1.8,1.9c-0.1,0.1-0.1,0.1-0.2,0.2l-1.7,2.1c0,0,0,0.1-0.1,0.1c0,0-0.1,0.1-0.1,0.1l-1.5,2.2
			c-0.1,0.1-0.1,0.2-0.2,0.2l-1.3,2.3c0,0.1-0.1,0.2-0.1,0.3l-1.1,2.4c0,0.1-0.1,0.2-0.1,0.3l-1,2.4c0,0.1-0.1,0.2-0.1,0.3l-0.7,2.4
			c0,0.1-0.1,0.2-0.1,0.3l-0.5,2.4c0,0.1,0,0.2-0.1,0.3l-0.3,2.4c0,0.1,0,0.2,0,0.4l-0.1,2.3c0,0.1,0,0.3,0,0.4l0.1,2.2
			c0,0.1,0,0.3,0,0.4l0.4,2.1c0,0.1,0.1,0.3,0.1,0.4l0.6,2c0,0.2,0.1,0.3,0.2,0.5l0.8,1.8c0.1,0.2,0.1,0.3,0.2,0.5l1,1.7
			c0.1,0.2,0.2,0.3,0.3,0.5l1.2,1.5c0.1,0.1,0.2,0.3,0.4,0.4l1.3,1.3c0.1,0.1,0.2,0.2,0.4,0.3l0.9,0.7c0,0,0.1,0,0.1,0.1
			c0,0,0,0,0.1,0l5.8,4c0.1,0.1,0.2,0.1,0.3,0.2l0.3,0.2c0.2,0.1,0.3,0.2,0.5,0.3l1.6,0.8c0.2,0.1,0.3,0.2,0.5,0.2l0.5,0.2
			l-224.7,66l-2.8,0.7L176.7,275z M427.9,202l-1.7,0.9l-1.7,0.6l-1.7,0.4l-1.6,0.2l-1.5,0l-1.4-0.1l-1.2-0.3l-1.1-0.5l-0.3-0.2
			c-0.1,0-0.1-0.1-0.2-0.1l-1.1-0.7l-0.4-0.3l-0.8-0.9l-0.7-1.1l-0.6-1.3l-0.5-1.5l-0.3-1.6l-0.1-1.8l0-1.9l0.2-2l0.4-2.1l0.6-2.1
			l0.8-2.1l1-2.1l1.2-2l1.3-1.9l1.5-1.8l1.6-1.7l1.7-1.5l1.7-1.4l1.8-1.2l1.8-1l1.8-0.7l1-0.3c0,0,0,0,0,0l-0.3,0.5
			c-0.2,0.3-0.4,0.6-0.5,1l-0.2,0.5c-0.1,0.4-0.2,0.8-0.3,1.2l0,0.5c0,0.6,0.1,1.1,0.3,1.6l0.2,0.4c0.3,0.7,0.7,1.3,1.3,1.7l0.3,0.2
			c0.6,0.5,1.3,0.7,2,0.8l0.4,0c0.1,0,0.3,0,0.4,0c0.4,0,0.9-0.1,1.3-0.2l0.5-0.2c0.4-0.1,0.8-0.4,1.2-0.6l0.4-0.3
			c0.3-0.2,0.6-0.5,0.8-0.8l0.3-0.5c0.2-0.3,0.4-0.6,0.5-1l0.2-0.5c0.2-0.4,0.2-0.8,0.3-1.2l0-0.5c0-0.6-0.1-1.1-0.3-1.6l-0.2-0.4
			c0,0,0-0.1-0.1-0.1l0.3,0.2l0.9,0.7l0.8,0.9l0.7,1.1l0.6,1.2l0.5,1.4l0.4,1.6l0.2,1.7l0,1.8l-0.2,1.9l-0.4,2l-0.5,2l-0.7,2.1
			l-0.9,2l-1.1,2l-1.2,1.9l-1.4,1.8l-1.5,1.7l-1.6,1.6l-1.7,1.4l-1.7,1.2L427.9,202z"/>
		<path class="st0" d="M55.9,103.1c0.2,0.4,0.4,0.8,0.7,1.1l0.5,0.6c0.1,0.1,0.1,0.1,0.2,0.2c0.1,0.1,0.1,0.1,0.2,0.2l97.5,88.2
			c0.1,0,0.1,0.1,0.2,0.1c0,0,0.1,0.1,0.1,0.1l1,0.7c0.2,0.1,0.3,0.2,0.5,0.3l1.2,0.6c0.1,0.1,0.3,0.1,0.5,0.2l1.4,0.5
			c0.1,0,0.3,0.1,0.4,0.1l1.6,0.4c0.1,0,0.2,0.1,0.3,0.1l1.8,0.3c0.1,0,0.2,0,0.3,0l1.9,0.2c0.1,0,0.2,0,0.3,0l1.9,0c0,0,0,0,0,0
			c0.1,0,0.2,0,0.2,0l1.9-0.1c0.1,0,0.2,0,0.3,0l1.9-0.3c0.1,0,0.2,0,0.3-0.1l1.8-0.4c0,0,0,0,0.1,0c0,0,0.1,0,0.1,0l243.8-63.1
			c0,0,0,0,0.1,0c0,0,0.1,0,0.1,0l1.3-0.4c0.1,0,0.3-0.1,0.4-0.2l1.1-0.5c0.2-0.1,0.4-0.2,0.5-0.3l0.9-0.6c0.2-0.1,0.4-0.3,0.6-0.5
			l0.6-0.6c0.3-0.3,0.5-0.6,0.7-0.9l0.4-0.7c0.2-0.4,0.4-0.9,0.5-1.3l0.1-0.7c0.1-0.5,0.1-1,0-1.5l-0.2-0.7
			c-0.1-0.4-0.3-0.8-0.5-1.2l-0.4-0.7c-0.2-0.3-0.4-0.5-0.6-0.8l-0.2-0.2c-0.1-0.1-0.2-0.2-0.2-0.3l-0.1-0.1c0,0-0.1-0.1-0.1-0.1
			l0,0c-0.2-0.2-0.3-0.3-0.5-0.5l-0.9-0.6c0,0-0.1,0-0.1-0.1c0,0-0.1-0.1-0.1-0.1l-121-71.9c-0.1,0-0.1-0.1-0.2-0.1
			c-0.1,0-0.1-0.1-0.2-0.1c-4.9-2.2-10.4-2.7-15.6-1.5c0,0,0,0,0,0l-220,46.5c0,0,0,0-0.1,0c0,0,0,0-0.1,0L63.5,93
			c-0.1,0-0.2,0.1-0.3,0.1l-1.3,0.4c-0.1,0-0.2,0.1-0.3,0.1l-1.2,0.5c-0.1,0.1-0.3,0.1-0.4,0.2l-1,0.6c-0.2,0.1-0.3,0.2-0.5,0.3
			l-0.8,0.6c0,0-0.1,0.1-0.1,0.1c0,0-0.1,0.1-0.1,0.1l-0.1,0.1c-0.1,0.1-0.1,0.1-0.2,0.2c0,0,0,0,0,0l-0.2,0.2c0,0-0.1,0.1-0.1,0.1
			l-0.2,0.3c-0.2,0.3-0.4,0.6-0.6,1l-0.3,0.7c-0.2,0.5-0.3,1-0.3,1.5l0,0.6c0,0.5,0.1,1.1,0.3,1.5L55.9,103.1z M297.3,54.8
			l119.2,70.8l-243.3,62.9l-1.6,0.3l-1.6,0.2l-1.6,0.1l-1.6,0l-1.6-0.1l-1.4-0.2l-1.3-0.3l-1-0.4l-0.7-0.4l-0.6-0.4L64.8,101
			l0.8-0.3l1.2-0.3l219.9-46.5c0,0,0,0,0,0c0,0,0,0,0,0C290.3,53.1,294,53.4,297.3,54.8z"/>
		<path class="st0" d="M213.6,252.7c0.1,0.4,0.2,0.8,0.4,1.2l0.4,0.8c0.2,0.4,0.5,0.8,0.8,1.1l0.6,0.6c0.3,0.3,0.7,0.6,1.1,0.8
			l0.8,0.4c0.4,0.2,0.8,0.3,1.2,0.3l0.9,0.1c0.2,0,0.3,0,0.5,0c0.2,0,0.4,0,0.6,0l1-0.2c0.3,0,0.6-0.1,0.9-0.3l1-0.4
			c0.3-0.1,0.5-0.2,0.8-0.4l0.9-0.6c0.2-0.2,0.4-0.3,0.6-0.5l0.8-0.8c0.2-0.2,0.3-0.4,0.5-0.6l0.6-0.9c0.1-0.2,0.3-0.5,0.4-0.8
			l0.4-1c0.1-0.3,0.2-0.6,0.2-0.9l0.1-1c0-0.4,0-0.7,0-1.1l-0.1-0.9c-0.1-0.4-0.2-0.8-0.4-1.2l-0.4-0.8c-0.2-0.4-0.5-0.8-0.8-1.1
			l-0.6-0.6c-0.3-0.3-0.7-0.6-1.1-0.8l-0.8-0.4c-0.4-0.2-0.8-0.3-1.2-0.3l-0.9-0.1c-0.4,0-0.7,0-1.1,0l-1,0.1
			c-0.3,0-0.6,0.1-0.9,0.3l-1,0.4c-0.3,0.1-0.5,0.2-0.8,0.4l-0.9,0.6c-0.2,0.2-0.4,0.3-0.6,0.5l-0.8,0.8c-0.2,0.2-0.4,0.4-0.5,0.6
			l-0.6,0.9c-0.1,0.2-0.3,0.5-0.4,0.8l-0.4,1c-0.1,0.3-0.2,0.6-0.2,0.9l-0.1,1c0,0.4,0,0.7,0,1.1L213.6,252.7z"/>
		<path class="st0" d="M275.4,239.5c0.8,0.9,2,1.5,3.2,1.6c0.1,0,0.2,0,0.3,0c0.4,0,0.7-0.1,1.1-0.1c0.1,0,0.2,0,0.3-0.1l69.5-20
			c0,0,0,0,0.1,0c0,0,0.1,0,0.1,0c2-0.7,3.4-2.5,3.6-4.6c0,0,0,0,0-0.1c0,0,0,0,0-0.1l1.9-43.1c0-0.1,0-0.1,0-0.2c0-1-0.3-2-0.9-2.8
			c-0.7-1-1.8-1.6-3-1.8c-0.6-0.1-1.2-0.1-1.8,0.1c0,0,0,0-0.1,0l-71,19.1c0,0,0,0-0.1,0c0,0,0,0-0.1,0c-2.1,0.7-3.6,2.6-3.7,4.8
			c0,0,0,0,0,0.1c0,0,0,0,0,0.1l-0.5,44c0,0.1,0,0.2,0,0.3C274.3,237.7,274.6,238.7,275.4,239.5z M347.2,177.2l-1.6,36.5L282.3,232
			l0.4-37.4L347.2,177.2z"/>
		<path class="st0" d="M180.7,265.9c0.3,0.3,0.6,0.6,1,0.8l0.8,0.4c0.4,0.2,0.8,0.4,1.2,0.4l0.9,0.2c0.3,0.1,0.5,0.1,0.8,0.1
			c0.1,0,0.2,0,0.3,0l1-0.1c0.3,0,0.6-0.1,0.9-0.2l1-0.3c0.3-0.1,0.5-0.2,0.8-0.4l1-0.6c0.2-0.1,0.5-0.3,0.7-0.5l0.8-0.8
			c0.2-0.2,0.4-0.4,0.5-0.6l0.7-0.9c0.2-0.2,0.3-0.5,0.4-0.7l0.5-1c0.1-0.3,0.2-0.5,0.3-0.8l0.2-1c0.1-0.3,0.1-0.7,0.1-1l0-1
			c0-0.4-0.1-0.8-0.2-1.1l-0.3-0.9c-0.1-0.4-0.3-0.8-0.6-1.1l-0.5-0.7c-0.3-0.4-0.6-0.7-0.9-0.9l-0.7-0.5c-0.3-0.2-0.7-0.4-1.1-0.5
			l-0.9-0.3c-0.4-0.1-0.7-0.2-1.1-0.2l-1,0c-0.3,0-0.7,0-1,0.1l-1,0.3c-0.3,0.1-0.6,0.2-0.8,0.3l-1,0.5c-0.2,0.1-0.5,0.3-0.7,0.4
			l-0.9,0.7c-0.2,0.2-0.4,0.4-0.6,0.6l-0.7,0.9c-0.2,0.2-0.3,0.4-0.5,0.7l-0.5,1c-0.1,0.3-0.2,0.5-0.3,0.8l-0.3,1
			c-0.2,0.7-0.2,1.3-0.1,2c-0.1,0.7,0,1.4,0.3,2.1l0.3,0.8c0.2,0.4,0.4,0.8,0.7,1.1L180.7,265.9z"/>
	</g>
</g>
</svg>
