<svg xmlns="http://www.w3.org/2000/svg" viewBox="0 0 480 320"><defs><style>.cls-1{fill:#000;}</style></defs><g id="Layer_3" data-name="Layer 3"><path class="cls-1" d="M460,139.29a13.1,13.1,0,0,0-9.12-2.81L286.28,80.11,286,80a29.13,29.13,0,0,0-13.55-.35L162.64,104.13l0-3.39a2.93,2.93,0,0,0-.94-2.21s0,0,0,0l-.28-53.46a2,2,0,0,0-.7-1.58V40.61a1,1,0,0,0,.68-.94V36.62a.67.67,0,0,0-.8-.69l-2.87.5a1,1,0,0,0-.78,1v3.05a.66.66,0,0,0,.69.7l0,2.86a2.86,2.86,0,0,0-.68,1.82l.28,53.45v0a4,4,0,0,0-.92,2.54l0,3.68-23,5.12,0-3.66a2.89,2.89,0,0,0-.94-2.21v0l-.28-53.46a2,2,0,0,0-.7-1.58V46.87a1,1,0,0,0,.68-.93v-3a.67.67,0,0,0-.8-.7l-2.87.5a1,1,0,0,0-.78,1v3a.67.67,0,0,0,.7.7v2.86a2.86,2.86,0,0,0-.68,1.82l.28,53.45v0a4,4,0,0,0-.92,2.54l0,3.95-26.39,5.87,0-4a2.9,2.9,0,0,0-.94-2.22v0l-.28-53.46a2,2,0,0,0-.7-1.57V53.79a1,1,0,0,0,.68-.94V49.8a.67.67,0,0,0-.8-.7l-2.87.51a1,1,0,0,0-.78,1v3.06a.67.67,0,0,0,.7.69v2.86A2.86,2.86,0,0,0,94.9,59l.28,53.46v0a4.06,4.06,0,0,0-.92,2.54l0,4.32-72,16A9.08,9.08,0,0,0,15,143.53a9.77,9.77,0,0,0,0,1.71v61.14a14.28,14.28,0,0,0,8.71,13.16l148.6,63.06a33.1,33.1,0,0,0,21.45,1.4l262.5-70.14A11.77,11.77,0,0,0,465,202.51V149.68A13.16,13.16,0,0,0,460,139.29ZM24,143.18,274.17,87.5a21,21,0,0,1,9.65.22L435.89,139.8,191.67,197.36a16.68,16.68,0,0,0-11.25,9L23.71,145.52a1.13,1.13,0,0,1-.71-1.24A1.17,1.17,0,0,1,24,143.18ZM175.45,275.23,26.86,212.17A6.28,6.28,0,0,1,23,206.38V153.84l155.7,60.44v62.07A25.88,25.88,0,0,1,175.45,275.23Zm278.78-69.1L191.69,276.27a24.62,24.62,0,0,1-5,.84V271l14.07-3.64a4.76,4.76,0,0,0,3.53,1.62,5.69,5.69,0,0,0,.83-.06c-2.17-1.37-3.29-4.52-2.61-8.17.83-4.49,4.08-8.15,7.5-8.63a4.72,4.72,0,0,0-2.48-.73c-3.7,0-7.43,3.84-8.33,8.7a13.59,13.59,0,0,0-.17,1.52l-12.34,3.19V213.7a8.77,8.77,0,0,1,6.77-8.56l257.06-60.57a5,5,0,0,1,1.21-.14,5.24,5.24,0,0,1,5.24,5.25v19.24l-52.93,14a44.94,44.94,0,0,0-28.33,22.64l-5.7,10.92-153,40.42c-.59-2.86-2.49-4.84-5.09-4.87a4.64,4.64,0,0,0-.83.06c-3.42.48-6.67,4.14-7.5,8.63-.67,3.65.44,6.8,2.61,8.17a4.71,4.71,0,0,0,2.48.72c3.07,0,6.16-2.63,7.63-6.32l157.8-41.69,6.92-13.27a38.91,38.91,0,0,1,24.54-19.61L457,175.13v27.38A3.74,3.74,0,0,1,454.23,206.13Z"/><polygon class="cls-1" points="365.09 175.73 291.82 193.81 291.82 231.41 365.09 213.33 365.09 175.73"/><path class="cls-1" d="M435.84,200.07l17.28-4.62V183.8l-17.28,4.62Zm2-10.11,13.28-3.55v7.51l-13.28,3.54Z"/><path class="cls-1" d="M412.31,205.43,433,200.32l.17-6.86-20.68,5.1Zm2.13-5.29L431.1,196l-.07,2.72-16.65,4.11Z"/><path class="cls-1" d="M405.92,197.74h-.05c-2.34,0-4.57,2.26-5.11,5.17a5.35,5.35,0,0,0,.9,4.36,3.43,3.43,0,0,0,2.61,1.27h.05c2.34,0,4.58-2.26,5.12-5.17h0a5.29,5.29,0,0,0-.91-4.35A3.41,3.41,0,0,0,405.92,197.74Zm1.55,5.27c-.36,1.93-1.8,3.52-3.17,3.53a1.41,1.41,0,0,1-1.09-.54,3.44,3.44,0,0,1-.49-2.73c.36-1.92,1.8-3.53,3.15-3.53h0a1.36,1.36,0,0,1,1.09.55A3.37,3.37,0,0,1,407.47,203Z"/></g></svg>