<svg xmlns="http://www.w3.org/2000/svg" viewBox="0 0 480 320"><defs><style>.cls-1{fill:#000;}</style></defs><g id="Layer_3" data-name="Layer 3"><path class="cls-1" d="M460,132.08a13.15,13.15,0,0,0-9.12-2.81L286.28,72.9l-.26-.08a29.13,29.13,0,0,0-13.55-.35L203.54,87.82V85a2.9,2.9,0,0,0-.95-2.21v0l-.28-53.45a2,2,0,0,0-.69-1.58l0-2.86a1,1,0,0,0,.68-.94V20.83a.67.67,0,0,0-.79-.7l-2.88.51a1,1,0,0,0-.78,1v3.05a.66.66,0,0,0,.7.69v2.86a2.91,2.91,0,0,0-.68,1.82l.28,53.46v0a4.07,4.07,0,0,0-.92,2.55v3.15l-20,4.46V91.21a2.92,2.92,0,0,0-1-2.21v0L176,35.52a2,2,0,0,0-.69-1.58l0-2.86a1,1,0,0,0,.69-.94l0-3.05a.67.67,0,0,0-.79-.7l-2.87.51a1,1,0,0,0-.79,1l0,3.05a.65.65,0,0,0,.69.69v2.86a2.91,2.91,0,0,0-.68,1.82l.28,53.46v0a4.12,4.12,0,0,0-.92,2.55v2.76l-21.38,4.76V97.12a2.94,2.94,0,0,0-.95-2.21v0l-.28-53.46a2,2,0,0,0-.69-1.58l0-2.86a1,1,0,0,0,.68-.93V33a.66.66,0,0,0-.79-.69l-2.88.5a1,1,0,0,0-.78,1v3.05a.67.67,0,0,0,.7.7V40.4a2.86,2.86,0,0,0-.68,1.82l.28,53.45v0a4,4,0,0,0-.92,2.54v3L22.31,128.16A9.09,9.09,0,0,0,15,136.33,9.77,9.77,0,0,0,15,138v84.13a14.28,14.28,0,0,0,8.71,13.16l148.6,63.06a32.92,32.92,0,0,0,21.45,1.4l262.5-70.13A11.77,11.77,0,0,0,465,218.31V142.47A13.17,13.17,0,0,0,460,132.08ZM274.17,80.29a21.12,21.12,0,0,1,9.65.22L435.89,132.6l-75,17.66L209.7,94.64Zm3.47,89.6-153.08-56.3,79.72-17.74,151.35,55.66ZM24,136l95.14-21.18,153.19,56.34-80.67,19a16.68,16.68,0,0,0-11.25,9L23.71,138.32a1.14,1.14,0,0,1-.71-1.24A1.16,1.16,0,0,1,24,136ZM175.45,291,26.86,228a6.29,6.29,0,0,1-3.83-5.8V146.63l155.7,60.45v85.06A24.4,24.4,0,0,1,175.45,291Zm278.78-69.09L191.69,292.07a24.6,24.6,0,0,1-5,.83V277.55l14.07-3.64a4.76,4.76,0,0,0,3.53,1.62,4.57,4.57,0,0,0,.83-.06c-2.17-1.36-3.29-4.52-2.61-8.16.83-4.5,4.08-8.16,7.5-8.64a4.71,4.71,0,0,0-2.48-.72c-3.7-.06-7.43,3.84-8.33,8.69a13.86,13.86,0,0,0-.17,1.52l-12.34,3.2V206.49a8.75,8.75,0,0,1,6.77-8.55l257.06-60.58a5.55,5.55,0,0,1,1.21-.14,5.24,5.24,0,0,1,5.24,5.25v59.11l-240,61.93c-.58-2.87-2.48-4.86-5.09-4.9a5.79,5.79,0,0,0-.83.06c-3.42.48-6.67,4.14-7.5,8.64-.67,3.64.44,6.8,2.61,8.16a4.81,4.81,0,0,0,2.48.73c3.07,0,6.15-2.63,7.63-6.31L457,207.77v10.54A3.75,3.75,0,0,1,454.23,221.93Z"/><polygon class="cls-1" points="365.09 166.06 267.04 190.25 267.04 240.57 365.09 216.38 365.09 166.06"/><path class="cls-1" d="M442.28,187.68,425,192.29v11.65l17.28-4.61Zm-2,10.11L427,201.34v-7.51l13.28-3.55Z"/><path class="cls-1" d="M422.32,197.33l-20.68,5.11-.17,6.86,20.68-5.1Zm-2.13,5.29-16.66,4.11.07-2.72,16.66-4.11Z"/><path class="cls-1" d="M393.43,212.41h.05c2.34,0,4.58-2.26,5.11-5.17a5.26,5.26,0,0,0-.9-4.35,3.4,3.4,0,0,0-2.61-1.27H395c-2.34,0-4.58,2.26-5.11,5.17a5.34,5.34,0,0,0,.9,4.35A3.4,3.4,0,0,0,393.43,212.41Zm-1.55-5.26c.36-1.92,1.79-3.53,3.15-3.53h0a1.37,1.37,0,0,1,1.09.54,3.37,3.37,0,0,1,.49,2.72h0c-.36,1.93-1.81,3.5-3.17,3.53a1.37,1.37,0,0,1-1.09-.54A3.37,3.37,0,0,1,391.88,207.15Z"/></g></svg>