<svg xmlns="http://www.w3.org/2000/svg" viewBox="0 0 480 320"><defs><style>.cls-1{fill:#000;}.cls-2{fill:none;stroke:#000;stroke-width:8px;}</style></defs><g id="Artwork"><path id="Stroke-15" class="cls-1" d="M413.74,179.1l.15,12.81L396.4,193V181.22Z"/><g id="Page-1"><g id="SVGS"><path id="Stroke-15-2" data-name="Stroke-15" class="cls-1" d="M199.77,200.93l.14,12.8-17.48,1.09V203Z"/><g id="signal_path_cary_audio_aios_icon" data-name="signal path cary audio aios icon"><path id="Stroke-9" class="cls-2" d="M455.54,139.53l-.39,36.34"/><path id="Stroke-12" class="cls-2" d="M145.34,207.58l312-31.7"/><path id="Stroke-13" class="cls-2" d="M143.79,164.45l314-24.92"/><path id="Stroke-14" class="cls-2" d="M146.35,164.5l1.54,43.13"/><path id="Stroke-18" class="cls-2" d="M82.25,130.12l236.66-12.77"/><g id="Group-37"><path id="Stroke-19" class="cls-2" d="M337.07,114.77c17.82-2,20.55,4.8,49.19,9.51,31.94,5.2,54.26,7.91,70.28,15.25"/><path id="Stroke-21" class="cls-2" d="M468.13,175.54c.06-4.91.2-12.9.58-22.91.44-11.35.76-13.87-1.3-16.67-1-1.37,2.64-5.52-17.62-11.41-.87-.26-63.2-11.64-73-12.5-8-.71-34.68,1.14-61.86,5.3"/><path id="Stroke-23" class="cls-2" d="M446.54,177a70.92,70.92,0,0,0,8,.88c2,.1,3.17.07,5.51,0,4.16-.12,5.19-.42,6.09-1a6.61,6.61,0,0,0,2.43-3.19"/><path id="Stroke-25" class="cls-2" d="M64,128.9c16.47-.12,48.78,2.33,73.72,25.07a86.18,86.18,0,0,1,8.83,9.34"/><path id="Stroke-27" class="cls-2" d="M147.89,207.63A42.06,42.06,0,0,1,127.74,214c-7.11.28-12.58-1.5-22.81-5.6-14-5.62-23.68-10.24-33.06-14.7-27.52-13.08-32.66-15-35.37-21.84-1.85-4.68-1.75-9.57-1.55-19.14a106.08,106.08,0,0,1,2.13-19.14c12-5.26,21.58-5.18,26.87-4.64,5.52.56,10.06,2,16.43,4.06a135.55,135.55,0,0,1,19.14,7.73,121.72,121.72,0,0,1,18.17,11.41c7.62,5.76,9,8.19,9.66,9.66.77,1.67,1.47,3.91,1.74,13.92.14,4.89.21,7.33,0,12.56a186.78,186.78,0,0,0,1,25.55"/></g></g></g></g></g><g id="Layer_1" data-name="Layer 1"><polygon class="cls-1" points="255.69 166.26 255.69 183.33 346.05 174.79 345.56 159.78 255.69 166.26"/></g></svg>