<svg id="Artwork" xmlns="http://www.w3.org/2000/svg" viewBox="0 0 480 320"><defs><style>.cls-1,.cls-2{fill:none;stroke:#000;stroke-miterlimit:10;}.cls-1{stroke-width:8px;}.cls-2{stroke-width:6px;}.cls-3{fill:#000;}</style></defs><path class="cls-1" d="M22.2,128.12l151.69,60.06a28.91,28.91,0,0,0,18.87,1.22l265.37-68.57c5.15-1.41,2.71-6.92-2.44-8.3L288,60.79a24.9,24.9,0,0,0-11.64-.31L23.14,118.17A5.24,5.24,0,0,0,22.2,128.12Z"/><line class="cls-1" x1="182.73" y1="187.68" x2="182.73" y2="262.98"/><path class="cls-1" d="M461,116.89v64.52c0,3.59-2.92,6.73-6.38,7.65L192.76,259a28.91,28.91,0,0,1-18.87-1.22L24.65,194.47C21,192.91,19,189.28,19,185.27V123.73"/><line class="cls-2" x1="182.74" y1="247.95" x2="458.32" y2="175.15"/><polygon class="cls-3" points="365.09 192.23 291.82 210.31 291.82 172.71 365.09 154.63 365.09 192.23"/><polygon class="cls-3" points="454.51 169.06 435.84 173.66 435.84 164.08 454.51 159.48 454.51 169.06"/><polygon class="cls-3" points="433.01 174.43 414.34 179.04 414.46 173.24 433.13 168.64 433.01 174.43"/><ellipse class="cls-3" cx="210.34" cy="239.7" rx="7.07" ry="8.36"/></svg>