<svg xmlns="http://www.w3.org/2000/svg" viewBox="0 0 480 320"><defs><style>.cls-1{fill:#000;}</style></defs><g id="Layer_1" data-name="Layer 1"><polygon class="cls-1" points="318.85 253.53 318.62 227.03 268.98 240.67 269.81 268.11 318.85 253.53"/><path class="cls-1" d="M331.75,116.85a13,13,0,0,0,2.48.74,41.41,41.41,0,0,0,7.1,1.13c.66,0,1.25.09,1.78.11a9.78,9.78,0,0,0,3.06-.25l.43-.13c4.75-1.33,8.42-6.27,8.67-12.3a15.36,15.36,0,0,0-.25-3.42l0-.17c0-.12,0-.25-.07-.38a13.18,13.18,0,0,0-.37-1.44,12.36,12.36,0,0,0-2.2-4.21A10.3,10.3,0,0,0,347.51,93l-1-.17a8.33,8.33,0,0,0-1.13-.19l-.39-.07h-.07c-2-.25-3.6-.37-6.18-.58l-3-.24a2,2,0,0,0-.36,0c-4.63.13-8.41,5.05-9.62,9.62a14.46,14.46,0,0,0,.85,9.55C327.17,112.22,328.53,115.33,331.75,116.85ZM344.6,96.16a2.3,2.3,0,0,1,.26,0l.83.13c2.77.64,4.95,3.23,5.71,6.58a12.74,12.74,0,0,1,.22,2.71,12.14,12.14,0,0,1-1,4.42,9.14,9.14,0,0,1-2.55,3.6,7.84,7.84,0,0,1-2.79,1.46,6.09,6.09,0,0,1-1.48.13c-4.12-.18-7.3-4.59-7.08-9.84S340.48,96,344.6,96.16Zm-15.38,6.09c.86-3.27,3.55-6.82,6.15-6.94l2,.16a14.19,14.19,0,0,0-4.25,9.76,14.48,14.48,0,0,0,2.58,9l-.63-.14a15.31,15.31,0,0,1-1.81-.5c-2-.94-2.9-3-3.39-4.15A10.79,10.79,0,0,1,329.22,102.25Z"/><polygon class="cls-1" points="268.98 174.36 269.81 201.8 318.85 189.07 318.62 162.58 268.98 174.36"/><path class="cls-1" d="M366.14,193a4,4,0,0,0,3-3.72l1.84-50.79c0-.05,0-.1,0-.15a2.83,2.83,0,0,0,0-.41c0-.14,0-.28,0-.41s0-.1,0-.15a1.59,1.59,0,0,0-.07-.2,2.86,2.86,0,0,0-.15-.41,3.36,3.36,0,0,0-.16-.33c-.07-.12-.13-.23-.21-.35a3.25,3.25,0,0,0-.23-.29,2.52,2.52,0,0,0-.27-.3l-.26-.23a2.7,2.7,0,0,0-.34-.25l-.29-.18c-.13-.06-.26-.13-.39-.18l-.34-.12-.39-.1a2.73,2.73,0,0,0-.4-.05l-.23,0h-.15l-.43,0c-.12,0-.25,0-.37.06l-.16,0-12.62,3.15V131.3L366,128.24a4,4,0,0,0,3.06-3.75l1.84-50.79s0-.07,0-.1a3,3,0,0,0,0-.42c0-.14,0-.27-.05-.4a.41.41,0,0,1,0-.11,2.34,2.34,0,0,0-.09-.24c0-.14-.08-.28-.13-.41a3.59,3.59,0,0,0-.17-.34A3.1,3.1,0,0,0,370,71l-.24-.29a3.47,3.47,0,0,0-.29-.25,3.65,3.65,0,0,0-.31-.24l-.31-.19-.36-.18-.23-.09L258.94,24.35a31.57,31.57,0,0,0-19.32-2L119.4,47.81h-.14l-.39,0-.28,0h-.09l-.44,0c-.12,0-.24,0-.35.06s-.24.08-.37.12a2.24,2.24,0,0,0-.36.14,3.47,3.47,0,0,0-.33.18l-.34.2-.29.25c-.09.09-.2.17-.29.27s-.14.18-.22.27-.18.23-.26.36,0,.05,0,.08a1.63,1.63,0,0,0-.11.23c-.06.13-.13.26-.18.4a2.59,2.59,0,0,0-.11.37c0,.13-.07.25-.09.38a3.25,3.25,0,0,0,0,.44,2.42,2.42,0,0,0,0,.25l.66,43c0,.06,0,.12,0,.18a13.69,13.69,0,0,0,5.58,10.23l4.36,3.2.17.1a.39.39,0,0,0,.1.08l.1.06v7.46l-4.8-3,0,0,0,0-.15-.07a4,4,0,0,0-.55-.27,1.17,1.17,0,0,0-.2-.06,3.41,3.41,0,0,0-.55-.14c-.12,0-.24,0-.37,0s-.23,0-.35,0h0a4.23,4.23,0,0,0-.5,0l-.29,0c-.13,0-.25.09-.38.13s-.24.07-.36.12-.21.12-.32.18a3.79,3.79,0,0,0-.34.2,2,2,0,0,0-.28.23,4,4,0,0,0-.31.27,2,2,0,0,0-.18.23,3.9,3.9,0,0,0-.31.4l0,0-.11.24a2.44,2.44,0,0,0-.21.43,2.72,2.72,0,0,0-.11.38,2.36,2.36,0,0,0-.1.38,2.42,2.42,0,0,0,0,.47,2.48,2.48,0,0,0,0,.27l.66,43c0,.06,0,.12,0,.18A13.69,13.69,0,0,0,120.9,170l4.36,3.2.1.06.06,0,.21.14v6.41l-4.77-3.14a3.9,3.9,0,0,0-2.07-.65h-.2l-.2,0a3.7,3.7,0,0,0-.57.07,2.38,2.38,0,0,0-.38.11c-.12,0-.24.07-.36.12s-.24.13-.36.19a2.69,2.69,0,0,0-.32.19c-.11.07-.21.17-.32.25s-.19.15-.28.24a5.84,5.84,0,0,0-.39.48s-.07.08-.1.13h0a3.68,3.68,0,0,0-.37.71c0,.13-.08.27-.12.4s-.08.23-.1.35a4.22,4.22,0,0,0-.07.79h0l.66,43c0,.06,0,.12,0,.18a13.69,13.69,0,0,0,5.58,10.23l4.21,3.09v13.48c0,2,5.82,3.72,13,3.72a33.46,33.46,0,0,0,9.66-1.24l61.94,43.63.19.11.11.08,4.23,2.44a4.87,4.87,0,0,0,2.91,1.05h.1a4,4,0,0,0,.69-.05,3.73,3.73,0,0,0,1.28-.43l10.53-3c1.31,1.65,6.48,2.89,12.68,2.89,7.18,0,13-1.66,13-3.72v-6.51l76.2-21.76v3.12c0,2,5.82,3.72,13,3.72s13-1.67,13-3.72V259.86l8.56-2.45a4,4,0,0,0,2.9-3.7l1.84-50.8s0-.11,0-.17a3,3,0,0,0,0-.42,2.57,2.57,0,0,0-.06-.4,1.13,1.13,0,0,1,0-.18c0-.07-.05-.12-.07-.19a3.12,3.12,0,0,0-.15-.39,3.59,3.59,0,0,0-.17-.34,3,3,0,0,0-.21-.33,2.34,2.34,0,0,0-.24-.31,2.16,2.16,0,0,0-.25-.27l-.29-.26-.32-.23a3.3,3.3,0,0,0-.32-.18l-.36-.17-.36-.12a2.34,2.34,0,0,0-.38-.09,2.7,2.7,0,0,0-.41-.06,1.08,1.08,0,0,0-.19,0h-.18l-.44,0-.34.05-.22,0-12.55,3.35v-5.88Zm-4.92-71.8-7.86,1.9v0l-4,1L239.67,150.57c-.08-3.78.84-10.14,4.92-20.46a128.71,128.71,0,0,1,15.16-28.33l103-23.19ZM235.48,159.82V167l-19.92,5-11.41-7.07v-7.78l5.76,3.56.06,0,0,0,4.23,2.45a4.85,4.85,0,0,0,2.91,1h.1a4,4,0,0,0,.69-.05,3.82,3.82,0,0,0,1.13-.35Zm-15.11-4.58V110.65L259,102c-4.47,4-15.89,15.2-22.6,31.25-4.73,11.31-6.39,17-6.93,19.84Zm0,23.75,40.32-10.06c-1.57,1.28-16.31,13.56-24.32,32.73-4.55,10.87-6.25,16.56-6.86,19.5l-9.14,2.43Zm31.19-16v-7l85.73-20.74v6.4ZM241.28,30.19a23.55,23.55,0,0,1,14.51,1.52l98,40.71L215.47,103.55,130,53.74Zm-118,64.39-.55-35.81L212.37,111v41.76l-82.51-50.89-4.23-3.1A5.75,5.75,0,0,1,123.31,94.58Zm64.77,52.6v7.71L141.7,126.1v-7.52Zm-64.77,12.16-.54-35.58,89.6,55.62v41.75l-8.22-5.42v-.07l-.4-.2-73.84-48.77-4.28-3.14A5.75,5.75,0,0,1,123.31,159.34Zm64.77,55.34V221L141.7,190.43v-6.38Zm24.29,73.6-82.41-58-4.33-3.18a5.72,5.72,0,0,1-2.32-4.18l-.54-35.34,89.52,59,.08.07Zm3.28-49.16-11.5-7.57v-6.26l5.66,3.74.13.07a.18.18,0,0,0,.07.05l4.23,2.45a4.85,4.85,0,0,0,2.91,1h.1a4.73,4.73,0,0,0,.65,0,4.13,4.13,0,0,0,1.26-.4l16.32-4.36v6ZM362.75,208l-1.54,42.49L239.68,285.23c.09-3.87,1.18-10,4.91-19.44,7.56-19.14,16.25-29.75,16.25-29.75s-16,12.58-24.47,32.85c-4.42,10.56-6.15,16.22-6.81,19.23l-9.19,2.62V246.13ZM251.56,229.51v-6l85.73-22.88v5.89Zm-11.89-11.07c0-3.84,1-10.07,4.92-19.88,7.15-18.09,15.29-28.55,16.16-29.64l102-25.44L361.21,186Z"/><polygon class="cls-1" points="318.85 123.39 318.62 96.89 268.98 107.76 269.81 135.2 318.85 123.39"/></g></svg>