<svg xmlns="http://www.w3.org/2000/svg" viewBox="0 0 480 320"><defs><style>.cls-1{fill:#000;}</style></defs><g id="Layer_1" data-name="Layer 1"><path class="cls-1" d="M413,171.14c0-.2-.08-.4-.13-.59a19.93,19.93,0,0,0-.67-2.23,19.52,19.52,0,0,0-3.7-6.41,16.2,16.2,0,0,0-7.78-5.21l-1.61-.2a14.67,14.67,0,0,0-1.78-.22l-.61-.08h-.11c-3.19-.25-5.63-.35-9.67-.5l-4.68-.19a2.51,2.51,0,0,0-.55,0c-7.21.5-12.79,8.42-14.37,15.61a22.51,22.51,0,0,0,1.94,14.83c1,2,3.31,6.82,8.42,9a21.83,21.83,0,0,0,3.92,1,65.23,65.23,0,0,0,11.13,1.3c1,0,2,.06,2.78.06a15.39,15.39,0,0,0,4.76-.59l.67-.23c7.31-2.38,12.71-10.31,12.71-19.73a24.29,24.29,0,0,0-.61-5.32ZM382.75,190.4a23.85,23.85,0,0,1-2.86-.66c-3.17-1.34-4.72-4.53-5.55-6.25a16.84,16.84,0,0,1-1.51-11.17c1.13-5.15,5.09-10.86,9.14-11.22l3.15.13a22.17,22.17,0,0,0-6,15.48,22.61,22.61,0,0,0,4.6,13.87Zm23.95-7.34a14.07,14.07,0,0,1-3.75,5.78,12.24,12.24,0,0,1-4.24,2.45,9.37,9.37,0,0,1-2.31.29c-6.43,0-11.66-6.67-11.66-14.87s5.23-14.88,11.66-14.88c.14,0,.27,0,.41,0l1.3.15c4.36.82,7.93,4.71,9.32,9.89a18.85,18.85,0,0,1,.52,4.2A19,19,0,0,1,406.7,183.06Z"/><polygon class="cls-1" points="279.98 180.33 281.27 222.77 357.12 204.5 356.76 163.53 279.98 180.33"/><path class="cls-1" d="M435.46,127.06c0-.14,0-.27,0-.4a.41.41,0,0,1,0-.11,2.34,2.34,0,0,0-.09-.24c0-.14-.08-.28-.13-.41a3.59,3.59,0,0,0-.17-.34,2.33,2.33,0,0,0-.2-.34,4.19,4.19,0,0,0-.49-.6,2,2,0,0,0-.27-.24,3.49,3.49,0,0,0-.32-.25l-.3-.18a3.37,3.37,0,0,0-.38-.19l-.28-.1L263.57,53.34A46.54,46.54,0,0,0,235,50.4L61.47,87.14A20,20,0,0,0,45.55,106.4l-1,53.73c0,.11,0,.22,0,.32a19,19,0,0,0,7.73,14.19l4.4,3.23v16.61c0,3.18,9,5.76,20.12,5.76a56.12,56.12,0,0,0,13.33-1.45l99.68,61.48.06,0,0,0,6.56,3.79a5.39,5.39,0,0,0,3.45,1.31H200a6.3,6.3,0,0,0,.75-.05,4.08,4.08,0,0,0,1.39-.47l15.95-3.86v3.82c0,3.18,9,5.76,20.13,5.76s20.12-2.58,20.12-5.76V251.31l117.91-28.52v3.15c0,3.19,9,5.76,20.13,5.76s20.12-2.57,20.12-5.76V213.05l13.12-3.17a4,4,0,0,0,3.06-3.74l2.84-78.56s0-.07,0-.1A3,3,0,0,0,435.46,127.06ZM63.12,95,236.69,58.22a38.6,38.6,0,0,1,23.73,2.48l157.87,65.6L196.87,176.15,59.76,96.22A12.31,12.31,0,0,1,63.12,95ZM52.51,160.12l1-53.56a12.28,12.28,0,0,1,.84-4.21L194.62,184.1v69.73l-.69-.4L96.49,193.34a8.24,8.24,0,0,0-3.9-2.41l-29-17.88L57,168.19A11,11,0,0,1,52.51,160.12Zm182.28,88.65c-.57-5.44.29-15.68,7.47-33.86,11.69-29.6,25.13-46,25.13-46s-24.75,19.46-37.85,50.8c-9,21.44-10.79,29.84-11,33l-15.87,3.84V183.06l224.69-50.59-2.55,70.35Z"/></g></svg>