<svg xmlns="http://www.w3.org/2000/svg" viewBox="0 0 480 320"><defs><style>.cls-1{fill:#000;}</style></defs><g id="Layer_1" data-name="Layer 1"><path class="cls-1" d="M172.32,160,171,156.89a2.92,2.92,0,0,0,0-2.19l-6.7-15.58v0a3.66,3.66,0,0,0-2.38-2.92,2.91,2.91,0,0,0-3.52,2.11l-.23,1a2.82,2.82,0,0,0-.07,1l.14,1.19a2.85,2.85,0,0,0,.21.81l8.72,20.32a2.7,2.7,0,0,0,.4.67l.55.69a2.89,2.89,0,0,0,2.27,1.09,2.85,2.85,0,0,0,1.81-.63,2.9,2.9,0,0,0,.46-4.08Z"/><path class="cls-1" d="M153.62,118.77l-1.28-3s0-.09,0-.13a3,3,0,0,0-.45-1.58,3,3,0,0,0-.62-.76l-1.17-2.73a2.91,2.91,0,0,0-5.52-1.41l-.12.24a2.91,2.91,0,0,0-.27,1.79l0,.23a3,3,0,0,0,.2.66l1.82,4.26a4.23,4.23,0,0,0,.25.47,3,3,0,0,0,.17.5l1.82,4.26a3.11,3.11,0,0,0,.4.68l.16.19a2.74,2.74,0,0,0,.45.45l.1.08a2.9,2.9,0,0,0,4.53-3.29A2.71,2.71,0,0,0,153.62,118.77Z"/><path class="cls-1" d="M193,207.59l-.49-.63-1.05-2.44a2.9,2.9,0,0,0,0-2.22L184,185a3,3,0,0,0-5.9-1l-.26.79a2.94,2.94,0,0,0-.12,1.25l.16,1.29a2.72,2.72,0,0,0,.21.79l9.21,21.47a2.88,2.88,0,0,0,.39.65l.73.93a2.9,2.9,0,1,0,4.56-3.59Z"/><path class="cls-1" d="M358.74,229.09l-.24-.71a2.26,2.26,0,0,0-.17-.43L353.18,218a3.48,3.48,0,0,0-.34-.51l-.65-.79-.14-.16L350,214.39l-2.54-3-2.26-2.92L342.74,205l-2.35-3.7-2.21-3.87-2.09-4-1.93-4.15-1.8-4.29-1.62-4.36-1.47-4.43-1.3-4.47-.88-3.51A2.13,2.13,0,0,0,327,168l-.2-.56a3.05,3.05,0,0,0-.13-.32l-.36-.71a3.2,3.2,0,0,0-.34-.53l-.6-.74a2,2,0,0,0-.2-.22h0l-.8-.81-1.16-1.15-2.36-2.67-2.11-2.66s0,0,0-.06l-1-1.42-1.08-1.53-2.17-3.41-2.07-3.61-2-3.79-1.84-3.95-1.7-4.08-1.56-4.19-1.41-4.28-1.26-4.33-.86-3.44a2.17,2.17,0,0,0-.07-.24l-.2-.57a3.57,3.57,0,0,0-.19-.45l-.36-.65c-.08-.14-.17-.27-.26-.4l-.58-.73a2.43,2.43,0,0,0-.26-.29v0l-.5-.47h0l-1.29-1.24-2.17-2.36-2.13-2.63-1.8-2.5-2-3.08L288,100.47l-1.85-3.55-1.73-3.75-1.62-3.91-1.51-4L280,81.12l-1.21-4.21-.87-3.39c0-.1-.06-.2-.1-.31l-.22-.57a2,2,0,0,0-.11-.26l-.32-.64a3,3,0,0,0-.3-.48l-.56-.72a2.9,2.9,0,0,0-.34-.36l-1.66-1.51-2-2.1-2-2.35-1.74-2.39-1.72-2.67L265,56l-1.72-3.35-1.65-3.55-1.53-3.7-1.46-3.92-1.32-4-1.17-4.09-.85-3.33c0-.1-.06-.2-.1-.31l-.21-.57a2.92,2.92,0,0,0-.14-.31l-4-7.77,0-.05a2.73,2.73,0,0,0-.4-.56h0l-.91-1a2.88,2.88,0,0,0-1.18-.77l-1-.36a2.77,2.77,0,0,0-1.11-.16l-.77,0a1.55,1.55,0,0,0-.31,0L129.58,36.68a2.66,2.66,0,0,0-.63.17l-1,.42a3,3,0,0,0-1.14.82l-.73.88a3,3,0,0,0-.41.63l-.31.67a2.92,2.92,0,0,0-.26.87l-2.63,20.48v0l-1.31,10.14a2.81,2.81,0,0,0,0,.58l.08,1.07a2.92,2.92,0,0,0,.16.78l.24.66.06.14L196,250.41a2.77,2.77,0,0,0,.51.78l20,47.25a2.73,2.73,0,0,0,.37.64l.85,1.11a2.9,2.9,0,0,0,1.42,1l1.43.46a2.89,2.89,0,0,0,.88.14,3.39,3.39,0,0,0,.64-.07l1.41-.32a4.26,4.26,0,0,0,.47-.15l77.23-31.88.32-.07a2.91,2.91,0,0,0,.5-.16l35-14.45a2.69,2.69,0,0,0,.71-.43l.91-.73.26-.23L345.1,247h0l12.48-12.73a3.22,3.22,0,0,0,.55-.81l.42-.89a3,3,0,0,0,.27-1.1l.06-1.3A3.11,3.11,0,0,0,358.74,229.09Zm-145.67-.49,69.64-23.82,2.33-.51h2.31l2.35.49,2.27,1,2,1.4,1.72,1.77,1.39,2.13,16.23,31.63L233,274.8l-20.44-46Zm20.35,52.3,79-31.58L299.3,263.88l-75.24,31.06Zm87.53-39a2.9,2.9,0,0,0-1.88-1.11l-.39-.78-16.34-31.81a2.07,2.07,0,0,0-.15-.25l-1.64-2.54a2.54,2.54,0,0,0-.36-.45l-2.14-2.19a2.67,2.67,0,0,0-.44-.38l-2.56-1.74a2.12,2.12,0,0,0-.49-.27l-2.81-1.21a3.27,3.27,0,0,0-.53-.17l-3-.63a2.48,2.48,0,0,0-.61-.07h-3a3.48,3.48,0,0,0-.64.07l-2.81.64-.3.08-69.58,23.77L132.58,42.2l113.11-18,2.17,4.15-6,2.13a2.84,2.84,0,0,0-.91.52c-.74.62-7,6.58.21,24,7.09,17.16,20.65,20.41,21.22,20.54a3.59,3.59,0,0,0,.65.07h0c-.06.09-.12.18-.17.27s-.07.11-.09.16c-.2.42-4.78,10.41,1.75,25.53a38.75,38.75,0,0,0,21.33,20.3,2.92,2.92,0,0,0,.93.15H287l.19,0c-1.35,1.37-6.94,8.62,2.12,28.11,7,15,21,20.71,21.62,20.95a3.08,3.08,0,0,0,1.08.2,1.94,1.94,0,0,0,.34,0l.83-.1a3.36,3.36,0,0,0-.43.31c-1.28,1.16-7.17,8,2.31,29.76A41.47,41.47,0,0,0,338,223.45a2.8,2.8,0,0,0,.91.15,2.59,2.59,0,0,0,.48,0l8.47-1.4a3.11,3.11,0,0,0,.88.28l3.63,6.95ZM340.54,212l2.34,3,.09.11,1.43,1.68-5.22.86a36.53,36.53,0,0,1-18.78-18.8c-7-16.06-4.44-21.91-3.76-23l5.54-3.14,1.44,5.2a.56.56,0,0,0,0,.12l1.48,4.47a.76.76,0,0,1,0,.11l1.7,4.51,1.8,4.34.06.12,2,4.22,0,.1,2.12,4.08a.93.93,0,0,0,.05.1l2.24,3.94a.41.41,0,0,0,.07.11l2.38,3.77.07.11,2.5,3.57a.76.76,0,0,0,.08.11l.2.26ZM314,160.92l.1.12,2.27,2.87.11.13.7.79-4.69.56c-2.62-1.23-12.7-6.55-17.88-17.72-6.74-14.49-4.19-20.13-3.43-21.33l5.59-2.7,1.48,5.27,0,.1,1.43,4.34,0,.11,1.58,4.24,0,.09,1.73,4.14s0,.08,0,.11l1.86,4,.06.11,2,3.87.06.1,2.1,3.68a.75.75,0,0,0,.07.12l2.22,3.49a.6.6,0,0,0,.09.13l1.4,2Zm-26.77-44.74c-2.39-1-12.52-5.71-17.35-16.9-4.41-10.2-3-17.3-2.19-19.78l5.11-2.12,1.49,5.3,0,.1,1.38,4.2,0,.1,1.5,4.08a1.17,1.17,0,0,1,0,.11l1.64,4,0,.12,1.83,3.89,1.86,3.64.07.14,2,3.45a.61.61,0,0,1,.07.1l2.06,3.23.06.07,0,0,.28.38h0l1.86,2.58a.64.64,0,0,0,.1.13l2.23,2.78.06.06Zm-23.89-46.4c-1.93-.56-11.43-4-16.82-17-4.62-11.2-2.71-15.88-2-17.1l5.6-2,1.5,5.33,0,.09L253,43.18a.56.56,0,0,1,0,.12l1.5,4,1.57,3.8.05.12,1.69,3.62a.61.61,0,0,0,.05.12l1.79,3.43a.41.41,0,0,0,.06.11l1.86,3.23.08.13,2.08,3.19h0l.07.11,1.85,2.54.12.16,1.48,1.75ZM127,72.6l0-.37,1-7.72a3,3,0,0,0,.37-1.64l-.06-.8,1.52-11.81,76,174.44a2.91,2.91,0,0,0-.2,2.71l-6.33,13.29a2.84,2.84,0,0,0-.22.68l-.29.62L127,72.81ZM201.89,249l1.49-3.15h0l5.37-11.26,19.44,43.73L219.7,291Zm133,.15-.45.36-22.81,9.43,8.3-9.24a2.71,2.71,0,0,0,.58-1l.14-.39,24.65-9.84-4.27,4.36-.79.65a3,3,0,0,0-.73.91Z"/><path class="cls-1" d="M186,69.63a1.46,1.46,0,0,0-1.59-.82l-3.19.62a1.42,1.42,0,0,0-1,.76,1.49,1.49,0,0,0,0,1.27L181.37,74l-12.19,2.41,5.49-8.89,1.72-3.11a1.3,1.3,0,0,0,.08-.17L177.78,61a1.72,1.72,0,0,0,.07-.21l.39-1.69,0-.16.2-1.73a1.31,1.31,0,0,0,0-.28l-.13-1.76a1.94,1.94,0,0,0-.07-.33l-.55-1.74a2.36,2.36,0,0,0-.12-.28l-1.07-1.88-.17-.24L174.85,49a1.45,1.45,0,0,0-.22-.21l-1.95-1.44a1,1,0,0,0-.22-.14l-2.26-1.11L170,46l-2.79-.82-.23,0-2.86-.34h-.18l-2.83,0h-.16l-2.76.34-.15,0-2.91.68-.17.05-2.7,1-.15.07-2.71,1.36-.15.08L146.74,50a1.45,1.45,0,0,0-.53,1.81l2.69,6a1.46,1.46,0,0,0,1.58.84l2.69-.48a1.54,1.54,0,0,0,.3,0l.1,0h.06a1.45,1.45,0,0,0,1-.64,1.47,1.47,0,0,0,.2-1.14l-.31-1.23L154.42,54l.09-.57h0l.06-.33.42-.8.72-.7,1-.6,1.3-.46,1.43-.32,1.54-.16,1.51.06,1.48.28,1.39.56,1.32.82,1.07,1,.85,1.12.65,1.23.53,1.36.31,1.38.1,1.33-.1,1.32-.12.52h0l-.17.74h0l-.12.45-.62,1.67-1.83,3.4-8,12.91a1.49,1.49,0,0,0-.09,1.36l1.13,2.55a1.44,1.44,0,0,0,1.33.87,1.33,1.33,0,0,0,.28,0l26.8-5.39a1.43,1.43,0,0,0,1-.76,1.45,1.45,0,0,0,0-1.27Zm-13.68,9.09-4.57,1.07-.08-.15Z"/><path class="cls-1" d="M200.92,61.61a1.8,1.8,0,0,0-.08-.21l-3.44-7.26.14,0a1.44,1.44,0,0,0,1-.77,1.46,1.46,0,0,0,0-1.29l-.5-1,0,0-.06-.1a.83.83,0,0,0-.13-.18.1.1,0,0,0,0,0s0,0,0,0a.9.9,0,0,0-.19-.15.18.18,0,0,0-.07,0,1.59,1.59,0,0,0-.29-.15h0l-.27-.05h-.1l-.24,0h-.06l-4.12.73a1.45,1.45,0,0,0-.87.51l-.21,0L190,51.27a1.06,1.06,0,0,0-.31,0l-1.26.12a1.11,1.11,0,0,0-.25,0l-1,.27a1.88,1.88,0,0,0-.3.12l-.89.48a1.16,1.16,0,0,0-.31.22l-.68.64a1.31,1.31,0,0,0-.25.32l-.46.77a1.8,1.8,0,0,0-.16.38l-.25,1a.31.31,0,0,0,0,.1,2,2,0,0,0,0,.24v1.07a1.23,1.23,0,0,0,.07.42l.65,2.14a1.65,1.65,0,0,0,.16.36L186,62a1.27,1.27,0,0,0,.21.25l.93.92a1.16,1.16,0,0,0,.21.16l1.08.73.18.1.76.38A1.61,1.61,0,0,0,189,65a1.47,1.47,0,0,0,0,1.28l1,2.18a1.44,1.44,0,0,0,1.22.83l2.4.16h.26l2.43-.27.28-.06,2.12-.68a1.41,1.41,0,0,0,.39-.19l.85-.59a1.39,1.39,0,0,0,.28-.26l.62-.74a1.63,1.63,0,0,0,.24-.4l.33-.88a1.4,1.4,0,0,0,.1-.46l0-.93a1.27,1.27,0,0,0-.06-.47Zm-11.76-5.75.23-.34.64-.25.94,0,1,.39.45.34.4.45.76,1.25.41.86.43,1.28.05.39,0,.18-.27.34-.63.25h-1l-.43-.14-.44-.24-.58-.5-.47-.57-.82-1.44-.53-1.42-.08-.54Zm4.66,9.25.24,0,1.19-.34a1.56,1.56,0,0,0,.33-.14l.88-.51.08.5,0,.21-.24.24-1,.34-.88.09-.82-.11-.32-.17Z"/><path class="cls-1" d="M214.48,55a1.14,1.14,0,0,0-.09-.26L214,53.72l-.07-.15-.58-1a1.37,1.37,0,0,0-.13-.2l-.75-1-.17-.18-1-.87-.19-.15L210,49.48a1.34,1.34,0,0,0-.24-.12l-1.19-.48-.22-.07-1.25-.27-.25,0-1.24,0a.74.74,0,0,0-.21,0l-1.21.12-.23,0-1.13.3-.23.08-1,.45a1.49,1.49,0,0,0-.31.2l-.81.65a1.28,1.28,0,0,0-.28.29l-.57.81a1.44,1.44,0,0,0-.19.37l-.34,1a1.48,1.48,0,0,0-.07.42l0,1.05a1.3,1.3,0,0,0,0,.34l.22,1.09a2.17,2.17,0,0,0,.07.24l.42,1.07a1.76,1.76,0,0,0,.09.2l.6,1a.94.94,0,0,0,.12.18l.77,1,.16.16,1,.88a1.16,1.16,0,0,0,.21.16l1.17.73.23.12,1.19.47.22.07,1.27.28a1,1,0,0,0,.24,0l1.27.06h.24l1.2-.14.21,0,1.13-.3a1.62,1.62,0,0,0,.28-.11l1-.49.26-.17.81-.65a1.47,1.47,0,0,0,.29-.32l.55-.81a1.62,1.62,0,0,0,.19-.37l.31-1a1.23,1.23,0,0,0,.07-.42l0-1a1.16,1.16,0,0,0,0-.32Zm-10.3-2.15,0-.11.8-.35h1.05l.44.14.46.25.58.5.5.6.85,1.43.56,1.48.1.55,0,.43-.06.15-.76.34h-1.07l-.42-.14-.46-.26-.62-.53-.49-.58-.85-1.45-.56-1.47-.09-.56Z"/></g></svg>