<svg id="Artwork" xmlns="http://www.w3.org/2000/svg" viewBox="0 0 480 320"><defs><style>.cls-1{fill:#000;}</style></defs><g id="Layer_1_085" data-name="Layer 1 085"><path class="cls-1" d="M192.2,73.61l.3,1,.32.85L194.19,78,196,80.6l2.43,2.75,4.06,3.7,4.71,3.64,2.51,1.64,3.59,2.1,2.06,1.08,2.2,1,1.54.63,1.46.5,1.56.45,1.27.28,1.16.2,1,.11.94,0h1.48l.46-.08.45-.1.45-.13.5-.17.48-.22.57-.31.46-.29.48-.38.42-.4.42-.5.38-.6.46-1,.33-.92.31-1.43.1-1.73-.16-1.7-.61-2.88-.26-.83-.06-.12-.06-.11-.1-.15-.12-.13-.15-.12-.17-.13-.1-.06h-.1l-.14-.07-.14,0h-1.22l-.13.07-.1.06-.1.06-.06.06-.06.06h0v.06h0v.56l.11.52.15.51.15.51.11.52.19,1.89v1.19l-.11,1.2-.14.71-.21.69-.4.87-.17.29-.16.22-.27.32-.27.25-.26.2-.27.17-.26.13-.15.07-.16.07-.26.09-.28.07H226l-.4-.06-.61-.12-.61-.15-1-.3-1.17-.42-.88-.37-.83-.39L219,93l-2.16-1.33-1.07-.77-.33-.25-.23-.22-.18-.21-.11-.14-.08-.12-.06-.12-.08-.2v-.27l-.11-.73-.39-2-.19-1-.26-1-.74-2-1-2.17-2.66-4.41L207.72,74l-1.78-2-1.14-1.11-1.19-1L202,68.66l-.32-.2-.35-.19-.85-.42-.68-.16-.64-.22-.61-.16-.28-.06h-2.49l-.29.06-.34.09-.33.11-.38.14-.3.14-.27.15-.3.2-.27.21-.24.23-.23.28-.23.35-.3.66-.2.7-.1.83v1.16Zm3.6-3.78.07-.18.09-.16.1-.13.12-.11.13-.11.12-.08.14-.07.14-.07h1l.19,0,.21.08.21.09.2.1.26.16.4.26,1.26.93,1.18,1,1.47,1.61,1.67,2.21,1.49,2.35,1.27,2.43,1.05,2.5,1.46,4.52-.41-.23-.32-.21-.72-.49-1.86-1.37L205,83.45,202.59,81l-4.49-5.62-.94-1.4-.59-.94-.47-1-.22-.65-.12-.58v-.61A1.51,1.51,0,0,1,195.8,69.83Z"/><path class="cls-1" d="M233,76.15l.1.27.13.27.15.25.2.25.63.75,1.4,1.72,1.59,1.74,1.14,1.09,1.17,1,1.64,1.15.7.42.81.42.44.2.43.17L244,86l.44.11.37.07.38.06h2.07l.32-.09.35-.13.39-.16.22-.12.22-.13.3-.22.33-.3.34-.38.34-.5.38-.77.58-1.78.33-1.91.12-1.92L251.39,76l-.21-1.59-.32-1.15,8,4.69,1.48.91,1.39.91-.81,2L260.24,84l-.46,2.46L259.66,89l.14,1.61.35,1.6L260.8,94l.34.66.4.65.61.78.72.74.82.7.93.65.68.41L266,99l1,.46.7.27.71.22.66.17.67.13.57.07h2.28a3.2,3.2,0,0,0,.8-.12l.45-.11.5-.15.48-.19.54-.25.37-.2.35-.22.54-.39.46-.41.4-.45.43-.62.34-.64.27-.73.14-.58.07-.6v-1l-.16-1.07-.3-1-.43-1.06-.45-.93-1.13-1.88-1.48-1.88-2.58-2.66-2.9-2.54-3.17-2.42-3.36-2.3L256,71.66l-1.25-.75-1.82-1-1-.47L251,69l-.41-.15-.33-.1-.15-.08h-1.65l-.17.06-.16.07h-.17l-.11.07-.09.07-.08.08-.06.08-.05.09-.05.1v1.3l.67,4.61.26,2.35V80l-.1.77-.22,1.11-.16.55-.19.51-.09.19-.09.14-.1.12-.08.08-.08.06h-.12l-.21.19h-.75l-.42-.22-.3-.18-.35-.23-.35-.28-.81-.73-1.58-1.69L241,78.6l-1-1.39L239.29,76l-.21-.34-.22-.28-.21-.22-.21-.17-.19-.14-.18-.1-.18-.09-.23-.09-.2-.07-.21-.06-.27-.06h-2.13l-.27.06-.26.07-.25.08-.27.11-.21.11-.16.09-.16.11-.11.1-.1.1-.08.11-.06.11V76Zm29.87,8.71c.81-3.73,2.39-2.5,2.39-2.5l1.65,1.43L270.12,87l1.45,1.71,1.26,1.68.73,1.19.48,1.07.25.89.17,1.13v.62l-.06.61-.08.39-.13.35L274,97l-.1.15-.09.12-.18.19-.19.16-.22.15-.23.13-.17.08-.17.07-.2.06-.2.06h-1.59l-.34-.06-.38-.08-.31-.09-.3-.1-.45-.17-.44-.2-.66-.34-.54-.33-.56-.37-.43-.32-.71-.61-.69-.72-.57-.75-.47-.8L263.25,92l-.38-1.26-.28-1.7V87Z"/><path class="cls-1" d="M187.9,101.16l.2.68.56,1.33.84,1.4c1.08,1.39,2.2,2.54,2.2,2.54l1.08.9.64.45.66.4,1.3.7.73.33.69.26.9.29.86.21.67.13.69.09h2.87l.51-.09.5-.12.57-.16.64-.24.63-.28.62-.33.57-.35.56-.42.5-.45.51-.54.44-.55.48-.73.37-.76.25-.76.15-.82v-.82l-.13-1-.23-.92-.46-1.14-.49-.88-.54-.79-1-1.15L206,96.25l-1.52-1.18-.6-.41-.59-.36-1.36-.71-.63-.29-.6-.24-.92-.3-.88-.24-.65-.13-.66-.1-.67-.06h-2.13l-.49.08-.48.11-.56.16-.56.19L192,93l-.44.21-.42.21-.67.41-.59.42-.51.46-.44.48-.37.51-.29.53-.36,1-.21,1-.07,1.07.1,1.09Zm5.2-3.58c.07-.28.16-.55.16-.55l.16-.3.2-.29.24-.27.24-.21.27-.19.35-.22.4-.21.29-.12.28-.1.25-.07h1.91l.47.06.5.1.49.12.41.13.36.13.57.23.59.3.82.47.66.44,1.08.84,1,.93.5.56.42.52.63,1,.32.64.25.66.2.9,0,.5v.5l-.11.64-.2.63-.18.37-.2.35-.32.43-.2.21-.2.18-.26.2-.28.18-.35.18-.23.1-.24.09-.28.09-.28.07-.25,0h-2l-.4-.08-.42-.11-.34-.1-.34-.12-.54-.22-.58-.29-.79-.46-.65-.45-.55-.44-.55-.5-1.21-1.35-.62-.82-.52-.84-.65-1.35-.25-.74-.14-.73V97.58Z"/><path class="cls-1" d="M141.2,98l.07.18.08.16.1.16.09.11.08.07h1.82l.53-.11.64-.17.92-.3.89-.33.75-.3.55-.19,1.1-.38,1.14-.35,2-.52,2.43-.49,1.58-.07,1.48-.19,2.22-.19,2.22-.08h1.76l1.7.1,1.79.21,1.74.29,1,.24,1,.28.9.33.85.38.87.49.8.54.62.51.51.53.43.55.34.56.24.59.15.61,0,.72-.09,1.11-.23,1-.45,1.21-.7,1.32-1,1.5L173,109.5l-1.73,1.75-2.46,2.15-2.43,1.87L160.84,109l-2.33-3.15-2-3.17-.61-1.15-.71-1.34L154.36,99l-.3-.38-.28-.3-.3-.27-.18-.13-.19-.11-.22-.12-.2-.08-.2-.07h-1.71l-.37.08-.44.12-.43.14-.48.2-.46.21-.43.23-.16.1-.14.1-.13.11-.12.11-.11.14-.08.11-.06.1-.08.16-.07.2v.55l.12.7.24.73.33.73.38.7.66,1.12,4.09,6.1,4.66,5.67,5.57,5.56,6.73,5.82.24.18.23.15.34.18.36.17.39.14h1.35l.22-.06.21-.08.27-.12.21-.11.15,0,.31-.2.31-.26.32-.3.32-.39.22-.34.13-.25.06-.2v-.59l-.06-.2-.08-.17-.12-.18-.13-.16-.13-.14-.29-.26-.42-.31-1.27-.94-1.41-1.28-1.62-1.66-1.47-1.68-.4-.49-.3-.44-.23-.43,1.65-1.13,1.63-1.24,2.94-2.58,1.79-1.86,1.51-1.88L178.6,106l.7-1.44.49-1.42.29-1.53.06-1.5v-.57L180,99l-.29-.85-.42-.81-.57-.77-.7-.74-.85-.7c-.57-.4-1.17-.77-1.17-.77l-1-.53-1.1-.46-1.19-.4-1.26-.32-1.35-.26L168,92l-2.16-.17-2.4-.06-2.48.07L159,92l-1.92.2-2.86.42-2.85.56-2.21.53-1.91.54L145,95l-1.93.76-.68.31-.53.28-.26.17-.16.12-.11.09h-.05v.05l0,.08v.67Z"/><path class="cls-1" d="M408.48,141.37l-.1-1.53v-.38l-.19-1.19a.51.51,0,0,0-.07-.31l-.37-1.52a1.39,1.39,0,0,0-.13-.44l-.44-1.17-.07-.19-.62-1.44a2.74,2.74,0,0,0-.21-.42l-.64-1.1-.09-.15-.82-1.29-.24-.33-.8-1c0-.06-.1-.12-.15-.18l-1-1.09-.18-.19-.9-.88a2.61,2.61,0,0,0-.31-.27l-2-1.6-.16-.12L349.53,89.69l-.09-.06L249.65,19.09l-.21-.14-.59-.37-.2-.12-.87-.46-.18-.1-.6-.28-.34-.14-.67-.25-.21-.07-1.4-.41-.29-.07-.64-.14h-.25l-.68-.09h-.25l-.69-.05h-2.11l-.68.07h-.26l-.65.11-.27.05-.62.15h-.14L77.54,62.18l-.52.14a2.46,2.46,0,0,0-.48.16l-.39.16a3.94,3.94,0,0,0-1.33.91l-.29.3-.3.33a3.93,3.93,0,0,0-.63,1.11l-.14.39a3.77,3.77,0,0,0-.25,1.49v.24a.24.24,0,0,0,0,.12v.41a1.22,1.22,0,0,0,0,.27v.6l.1.59.06.3.45,1.7v.12l5,14.27,2.48,9,1.31,6.06,1,6.49L80,108.55l-.5.16-.2.07-.15.07a1.73,1.73,0,0,0-.37.16h-.07l-.1.06-.24.14c-.09,0-.22.15-.31.21a2.93,2.93,0,0,0-.42.37,2.05,2.05,0,0,0-.34.38l-.07.07-.1.14-4.92,6.68-.07.09-.22.33v.11a.38.38,0,0,0-.09.13.18.18,0,0,1-.07.17c-.07,0,0,0,0,.06a.28.28,0,0,0,0,.13.66.66,0,0,0-.09.19v.19h0a4,4,0,0,0-.14.78h0v.13a3.75,3.75,0,0,0,0,.67v.34h0v.23l.72,3,1.64,6.85.2.79h0v.15l.06.19a3.12,3.12,0,0,0,.15.39V132h0l2,5.1h0v.07h0l.15.35.08.12a1.11,1.11,0,0,0,.07.16l.08.12a.75.75,0,0,0,.07.12l3,4.88.08.12a2,2,0,0,0,.17.23,3,3,0,0,0,.37.43v0l.16.16a3,3,0,0,0,.35.27h0l.09.06.08.07a5.28,5.28,0,0,0,.58.3,3.45,3.45,0,0,0,.64.22,4.1,4.1,0,0,0,.48.1l7.82,1.08h1.31l.31-.06.41-.11h.12l.68-.24L102,158.89a3.83,3.83,0,0,0,0,1.93l.68,3.1a4.2,4.2,0,0,0,.21.66l1.26,3a5.2,5.2,0,0,0,.32.62L113,181.65a4,4,0,0,0,2.27,1.7l.75.21a4.57,4.57,0,0,0,1.1.16,4.26,4.26,0,0,0,.94-.13l6.59,10.15-.15.65a4,4,0,0,0,0,1.88l.67,2.73c0,.18.11.37.18.55l1.48,3.63a3.36,3.36,0,0,0,.34.65l9.87,15.36a3.92,3.92,0,0,0,1.8,1.52l.74.32a4,4,0,0,0,1.57.32,5,5,0,0,0,.55,0l.77-.11,12.74,19.45-7.51,5.77-.17.14-.19.17-.22.24-.16.18h0l-.21.29a3.37,3.37,0,0,0-.47.8l-1.36,3.15a1.42,1.42,0,0,0-.08.18.82.82,0,0,1-.11.28,2.77,2.77,0,0,0-.1.26,3.57,3.57,0,0,0-.11.47v.25h0v.38a4,4,0,0,0,0,.85v.57a2.14,2.14,0,0,0,.07.43l.15.74a2.68,2.68,0,0,0,.07.27l.23.83a1.59,1.59,0,0,0,.07.2l.3.9.06.16.36.92.06.15.41.93a1,1,0,0,0,.07.15l.43.89.09.17.46.83.12.2.44.71.2.28.39.52a3.78,3.78,0,0,0,.38.43l.34.33a4,4,0,0,0,1,.72l.26.13h0a3.38,3.38,0,0,0,.44.18l.13.06h0l3.57,1.15.2.05.21.05a3.75,3.75,0,0,0,.82.09,4.23,4.23,0,0,0,1.06-.14l9.41-2.16h.23l.42-.13a3.71,3.71,0,0,0,.55-.22l2.43-1.17,21.28,32.75.22.3,1.08,1.38c.1.11.2.23.31.34l1.14,1.15.2.19,1.13,1,.27.22,1.11.8a3.77,3.77,0,0,0,.39.26l1.56.86.46.2,1,.4a5,5,0,0,0,.69.19l1,.18a3.39,3.39,0,0,0,.64.06h.9l.93-.08a4.38,4.38,0,0,0,1.12-.28l.78-.32h.13l.46-.21a3,3,0,0,0,.36-.18L368.4,216.31l.19-.12L384,208l.25-.14,1.09-.69.15-.11,1.17-.81c.12-.09.24-.18.35-.28l1-.85.16-.15,1-1a2.82,2.82,0,0,0,.33-.36l.78-1,.12-.16.83-1.16c.08-.11.15-.23.22-.35l1.73-3,.05-.1,1.65-3.1,2.15-4.28.05-.11,1.45-3.16a.37.37,0,0,1,.05-.11l1.35-3.21v-.11l1.25-3.25.05-.12,1.14-3.29V177l1.05-3.34v-.13l1.26-4.54v-.13l.83-3.43v-.13l.73-3.48v-.13l.62-3.52V158l.51-3.58v-.13l.63-3.59v-.13l.28-3.76.22-4.94A4,4,0,0,0,408.48,141.37ZM239,24.54l.41-.1,1.27-.13h.91l.8.14,1.38.43,1,.53L336,89.88l-2.11.83a.78.78,0,0,0-.21.09l-1.28.59a3.76,3.76,0,0,0-.47.3l-1.11.7a3.27,3.27,0,0,0-.48.35l-.92.79A4.7,4.7,0,0,0,329,94l-.71.87a3.34,3.34,0,0,0-.45.68l-.09.18h0l-.4.76a3.63,3.63,0,0,0-.32.85l-.26,1v.15a3.34,3.34,0,0,0-.11.78v1a3.52,3.52,0,0,0,.09.91l.22,1a4.17,4.17,0,0,0,.25.78l.46,1a3.74,3.74,0,0,0,.34.62l.69,1a5.45,5.45,0,0,0,.37.47l.85.92.08.09a3.89,3.89,0,0,0,.36.34l1.12,1,.18.14L370.8,138l1.15,1,1.09,1.11,1.08,1.3,1,1.47,1,1.59.83,1.68.7,1.73.56,1.72.39,1.68.23,1.58.06,1.43-.09,1.36-.52,3.83-.47,3.07-.12.8-.2,1.19-.44,2.6-.68,3.71-.73,3.61-.77,3.53-.68,2.92-.06.21-.92,3.67-.89,3.26-1.89,6.3-1,3-1,2.81-.2.53-.92,2.46-1.11,2.77-1.09,2.58-.26.48-.18.2-.36.28L209.38,292.23l.41-1.72a.54.54,0,0,1,0-.18l.37-2.08h0l.37-2.07v-.36l.32-1.85a2.35,2.35,0,0,0,.05-.37l.5-6.39v-.14l.14-3.32v-.29l-.11-3.41-.18-3.41v-.3l-.43-3.37v-.16l-.75-4.74h0l-.3-1.92a.59.59,0,0,0-.08-.36l-1.8-7.3a.38.38,0,0,1,0-.15l-2.26-7.71v-.1l-.52-1.6-.06-.18-.66-1.73-.08-.19h0l-.77-1.83a1.11,1.11,0,0,1-.07-.16l-1-2.06-1-2.06a.8.8,0,0,0-.08-.16l-1.15-2.05-.09-.15-1.25-2-.09-.15-2.59-3.87-.1-.13-2.5-3.42a1,1,0,0,0-.13-.16l-1.14-1.38L94.79,84.69,92.61,86.3h0l2.13-1.65L83.2,68.88Zm-69.8,230.34-.36-1.21a.86.86,0,0,0-.07-.21l-.67-1.85a1.34,1.34,0,0,1-.07-.18l-.79-1.88a.89.89,0,0,0-.08-.17l-.87-1.84a.51.51,0,0,0-.09-.18l-.92-1.73-.12-.21-.22-.35L184,236.23l.67,1,.84,1.46.75,1.52.61,1.57.49,1.57.33,1.41.13,1.1Zm15.2,3.15-.8-1.2,9.25-4.46h0l.15-.1a4.49,4.49,0,0,0,.59-.37l.19-.19a4.67,4.67,0,0,0,.44-.45l.09-.09.47-.63a4.09,4.09,0,0,0,.69-1.48l.23-1a4.5,4.5,0,0,0,.11-.81v-1.4a5.61,5.61,0,0,0,0-.58l-.2-1.63c0-.14,0-.28-.07-.42l-.41-1.77a1.15,1.15,0,0,0-.08-.29l-.58-1.85a1,1,0,0,0-.09-.27l-.73-1.85a2.88,2.88,0,0,0-.13-.31l-.88-1.79-.12-.22-1-1.66a1.4,1.4,0,0,1-.1-.16l-1-1.49a4.8,4.8,0,0,0-.32-.43l-1-1.11a3.86,3.86,0,0,0-.49-.5l-.87-.71a6.36,6.36,0,0,0-4-1.19h-.77l-.32.1a1.21,1.21,0,0,0-.44.15h-.06l-13.71,6.35-12.26-18.44,3.26-1.37.24.11.21.07a3.57,3.57,0,0,0,.86.19h1.4a3.94,3.94,0,0,0,1-.29l.16-.07a3.4,3.4,0,0,0,.5-.26,3.27,3.27,0,0,0,.48-.35l.15-.12a3.82,3.82,0,0,0,.62-.65l.13-.17a4.6,4.6,0,0,0,.37-.6l.12-.22a5.18,5.18,0,0,0,.26-.65l.12-.4a3.06,3.06,0,0,0,.1-.41v-.19a.85.85,0,0,1,.05-.35v-2l-.07-.8V207l-.08-.5v-.14l-.1-.52v-.15l-.14-.61V205l-.12-.45v-.12l-.16-.53v-.1l-.18-.53v-.12l-.19-.52a.17.17,0,0,1,0-.1l-.21-.52v-.11l-.22-.51-.06-.12-.25-.53a.2.2,0,0,1,0-.11l-.22-.42a.54.54,0,0,0-.07-.13l-.25-.45a.75.75,0,0,0-.07-.12l-.25-.43-.1-.15L153,183.8l-.11-.15-.4-.52-.24-.28-.23-.24-.25-.25-.21-.19-.36-.29-.21-.15a3.3,3.3,0,0,0-.51-.31l-.2-.1a4.06,4.06,0,0,0-.73-.28l-.18,0a3.77,3.77,0,0,0-1-.14H148a3.34,3.34,0,0,0-1,.12h-.31l-.2.08-.38.16c-.13.06-.25.13-.37.2l-.19.1-.13.09-.14.12h0a4.26,4.26,0,0,0-.75.72l-.13.17a5.25,5.25,0,0,0-.33.49l-.08.15a3,3,0,0,0-.27.57l-.08.23a.06.06,0,0,0,0,.06l-6.49,2.64-5.51-8.31,2.18-.86a3.23,3.23,0,0,0,.41.22l.18.08a4.6,4.6,0,0,0,.82.26h.17a4.15,4.15,0,0,0,.79.08h.46a3.85,3.85,0,0,0,1.16-.27l.14,0a3.81,3.81,0,0,0,1-.57l.14-.1a4.5,4.5,0,0,0,.69-.69l.11-.15a4,4,0,0,0,.4-.61l.1-.19a3.43,3.43,0,0,0,.23-.52l.08-.24c.05-.14.09-.28.13-.43l.06-.28c0-.14.06-.27.08-.41v-2.49l-.09-.76v-.19l-.08-.48v-.17l-.25-1.15v-.15l-.12-.42v-.11l-.35-1.08v-.1l-.4-1.05v-.11l-.2-.45v-.11l-.2-.44-.06-.11-.21-.42-.06-.13-.22-.4-.08-.13-.22-.37a1.74,1.74,0,0,0-.11-.18L129,150l-.12-.17-.34-.43c-.09-.11-.18-.22-.28-.32l-.19-.2-.31-.28-.18-.16a4.48,4.48,0,0,0-.44-.32l-.17-.11a3.68,3.68,0,0,0-.69-.34l-.15-.06a4.31,4.31,0,0,0-1-.25H125a3.87,3.87,0,0,0-1.27.06h-.13a3.82,3.82,0,0,0-1.26.5l-.12.07a4,4,0,0,0-.9.74l-.1.12a3.45,3.45,0,0,0-.52.73l-.09.16a4,4,0,0,0-.24.51l-.08.2v.1l-5.93,2.18-3.3-5v-.06l-4.27-6.42,6.08-2.14L113,139l.39-.18a3.37,3.37,0,0,0,.32-.19,3.55,3.55,0,0,0,.31-.23c.11-.09.21-.17.3-.26s.17-.19.25-.28a3.55,3.55,0,0,0,.23-.31c.07-.11.14-.22.2-.33l.17-.34a1.49,1.49,0,0,1,.13-.37,2.54,2.54,0,0,0,.1-.37,2.38,2.38,0,0,0,.06-.37,3.09,3.09,0,0,0,0-.43v-.19l-.37-9.36,70.79,96.29c.05.06.09.12.14.17l1.15,1.39,2.33,3.19,2.56,3.81,1.15,1.87,1.07,1.9,1.86,3.81.74,1.74.59,1.56L198,243l2.2,7.52,1.75,7.08.27,1.74h0l.76,4.74.4,3.16.17,3.17.1,3.18-.13,3.1-.51,6.13-.1.56-.25-.09-1-.46-.8-.5-.68-.61-.71-.9-15.1-22.71ZM104.56,116.4l-4.94,1.68L88,122a3.25,3.25,0,0,0-.54.23L83,124.13l-2.77-4.37L83,116l4.44-1.44,7.6-2.45a4.41,4.41,0,0,0,.59-.26l.15-.08.22-.12,4.52-1.5ZM87.63,137.76l-1.46-6.18.78-.34,3.24-1.39a4.5,4.5,0,0,0,.48-.16L107,124.17l.33,8.33-8.31,2.92h0l-5.11,1.8-.21.07-2.63.93Zm24,26.66-.83-2,13.71-4.93,6.64,9.45.63,1.1.63,1.64-13.92,5.51ZM134.36,200l-1.18-2.89,3.8-1.54.36-.15,10.78-4.38L156.5,203l.21.32.71,1.34.68,1.81-8.77,3.68a3.66,3.66,0,0,0-1,.42L142.66,213Zm266-54.91-.33,4.72-.38,3.49-.49,3.44-.59,3.4-.7,3.35-.81,3.3-.93,3.32-1.31,4.32-1.13,3.22-1.2,3.13-1.3,3.09-1.4,3-1.47,3L386.16,194l-1.59,2.8-.66.91-.56.71-.78.77-.71.62-.9.63-.89.57-4.3,2.29v-.1l.43-1.21v-.14h0v-.07l.63-1.81,1-3.09v-.07l1-3.24.18-.6.61-2.11,1-3.74.08-.29h0l.67-2.66.21-.83h0l.84-3.58.79-3.66.75-3.74.71-3.83.35-2.09.31-1.81.12-.82.49-3.18.55-4v-.28l.11-1.73a3.23,3.23,0,0,0,0-.44l-.08-1.86v-.39l-.28-1.94a.63.63,0,0,0-.07-.35l-.47-2a2.81,2.81,0,0,0-.08-.31l-.66-2a.79.79,0,0,0-.1-.28l-.82-2a1.23,1.23,0,0,0-.12-.26l-1-1.95-.14-.26-1.1-1.85c0-.09-.11-.17-.16-.25l-1-1.78a2.48,2.48,0,0,0-.19-.26l-1.29-1.56a2.73,2.73,0,0,0-.23-.25l-1.35-1.38-.28-.26-1.39-1.16-.17-.13-39.15-29.34-.83-.7-.54-.59-.33-.49-.15-.34V100l.09-.24.25-.4.27-.23.78-.52,5.39-2.18,1-.31.76-.14h.66l.53.07.41.12.47.24,49.08,34.68,1.73,1.37.65.64.81.9.59.75.67,1,.47.83.49,1.12.31.86.28,1.14.14.85.07,1.13Z"/></g></svg>