<svg id="Artwork" xmlns="http://www.w3.org/2000/svg" viewBox="0 0 480 320"><defs><style>.cls-1{fill:#000;}</style></defs><g id="_1" data-name=" 1"><path class="cls-1" d="M450.69,156.55c-.25-5.92-2.59-11.2-6.42-14.49a14.36,14.36,0,0,0-7.39-3.31l-.21-.06-11.83-2.53a3.23,3.23,0,0,0-1.23-.22,8.25,8.25,0,0,0-1.2.08h-.13l-1,.17h-.14c-9.33,1.94-16.28,12.33-15.8,23.69.41,9.86,6.57,17.27,14.57,17.88l8.3,2.35a3.56,3.56,0,0,0,.86.11h.14a14.53,14.53,0,0,0,2.79.3,14.9,14.9,0,0,0,2.91-.31C444.22,178.32,451.16,167.91,450.69,156.55Zm-39.09,3.11c-.33-8,4.58-15.93,10.69-17.25l.87-.13h.08l1.48.32c-5.35,4.41-8.75,12-8.42,20a22.68,22.68,0,0,0,1.95,8.47c-3.69-1.41-6.41-5.86-6.65-11.44Zm22,14.42a7.7,7.7,0,0,1-6.44-1.51c-2.7-2.11-4.35-5.83-4.52-10.21-.34-8.05,4.56-15.94,10.68-17.25l.87-.14a7.66,7.66,0,0,1,5.94,1.88c2.51,2.15,4.05,5.83,4.22,10,.37,8.08-4.56,16-10.75,17.26Z"/><path class="cls-1" d="M198.21,159.15a14.17,14.17,0,0,0-7.39-3.31.76.76,0,0,0-.2-.06l-11.75-2.52a3.2,3.2,0,0,0-1.22-.24h-.1a8,8,0,0,0-1.19.09h-.14l-1,.16h-.13c-9.34,1.94-16.28,12.34-15.8,23.69.4,9.87,6.56,17.28,14.56,17.88l8.31,2.35a3.06,3.06,0,0,0,.85.12h.14a14.33,14.33,0,0,0,2.78.29,15,15,0,0,0,2.91-.31c9.33-1.94,16.27-12.34,15.8-23.69C204.39,167.71,202.05,162.43,198.21,159.15Zm-32.66,17.6c-.33-8.05,4.57-15.93,10.68-17.25l.88-.14h.07l1.48.32c-5.34,4.41-8.74,12-8.41,20a22.47,22.47,0,0,0,1.94,8.46c-3.69-1.41-6.41-5.84-6.64-11.43Zm22,14.41a7.66,7.66,0,0,1-6.44-1.51c-2.7-2.1-4.35-5.82-4.53-10.2-.34-8,4.57-15.94,10.69-17.26l.87-.14a7.65,7.65,0,0,1,5.93,1.89c2.52,2.14,4.05,5.82,4.23,10,.37,8.08-4.57,16-10.75,17.26Z"/><path class="cls-1" d="M139.68,228a16.42,16.42,0,0,0,6.56.9l308.49-20.17a4.68,4.68,0,0,0,4-4.28l.24-78.79a4.52,4.52,0,0,0-4.49-4.2l-10.69.72S349,95.71,333.7,91.48a12.29,12.29,0,0,0-4.18-.43l-304,20.42h0a.67.67,0,0,0-.2,0h-.14A4.51,4.51,0,0,0,21.26,116h0l-.2,67.29h0a3.23,3.23,0,0,0,.07.69,1.47,1.47,0,0,0,.1.4,1.55,1.55,0,0,0,.07.23c.07.17.14.33.22.49v.08a4.2,4.2,0,0,0,.33.49h0a4.26,4.26,0,0,0,.74.73h0l.18.12a2.59,2.59,0,0,0,.33.19h0l.23.15.32.17.54.23Zm9-78.11L451,129.48l-.23,71.79-302.33,20.4ZM145,142.35l-3.67-1-.24-.09L49.89,117.61l278.45-18.8a13.49,13.49,0,0,1,4.6.47l87.58,24.47ZM28.87,180.58,29,120.22s111.25,29.11,111.57,29l.3.08v71.53Z"/><path class="cls-1" d="M402.37,141.06a4.51,4.51,0,0,0-4.11-3.94,4.21,4.21,0,0,0-.71,0h0l-96.93,6.25h0a4.87,4.87,0,0,0-4.46,4.76h0l-.25,56.11a6.64,6.64,0,0,0,4.66,4.67h.22l96.93-6.25h0a4.85,4.85,0,0,0,4.47-4.8h0l.25-56.11h0A3.23,3.23,0,0,0,402.37,141.06ZM302.92,150l92.68-6-.24,52-92.66,6Z"/><path class="cls-1" d="M217.27,173.71h0l6.58-.45h.6a4.9,4.9,0,0,0,2.33-8.27,4.36,4.36,0,0,0-2.72-1.21,3.11,3.11,0,0,0-.61,0h0l-6.58.45h-.6a4.94,4.94,0,0,0-2.32,8.33,4.39,4.39,0,0,0,3,1.21Z"/><path class="cls-1" d="M287.46,145.08h0l-84.3,5.7a1.69,1.69,0,0,0-.5.08,5,5,0,0,0-4,5,4.87,4.87,0,0,0,1.5,3.57,4.34,4.34,0,0,0,3,1.19h.31l84.3-5.69h.08a2.93,2.93,0,0,0,.41-.07,5,5,0,0,0,4-5,4.87,4.87,0,0,0-1.5-3.57A4.34,4.34,0,0,0,287.46,145.08Z"/><path class="cls-1" d="M134.53,191.59c0-5.26-2-11.43-6.58-12.63a5.65,5.65,0,0,0-5,1c-2.29,1.77-3.6,5.27-3.62,9.62,0,5.25,2,11.43,6.57,12.63a5.67,5.67,0,0,0,5-1c2.29-1.76,3.61-5.26,3.62-9.61Z"/><path class="cls-1" d="M41.24,156.43a5.59,5.59,0,0,0-5,1c-2.3,1.76-3.62,5.26-3.63,9.61,0,5.25,2,11.43,6.58,12.63a5.68,5.68,0,0,0,4.95-1.05c2.3-1.77,3.61-5.27,3.63-9.63C47.83,163.79,45.78,157.6,41.24,156.43Z"/><ellipse class="cls-1" cx="409.14" cy="188.49" rx="3.85" ry="4.4"/><path class="cls-1" d="M223.8,189a4.3,4.3,0,1,0,3.7,4.83,5.25,5.25,0,0,0,0-.56A4,4,0,0,0,223.8,189Z"/><path class="cls-1" d="M221.58,202.29a4.32,4.32,0,1,0,3.7,4.86,3.9,3.9,0,0,0,0-.59A4,4,0,0,0,221.58,202.29Z"/><path class="cls-1" d="M212,202.74a4.3,4.3,0,1,0,3.7,4.83,3.52,3.52,0,0,0,0-.56A4,4,0,0,0,212,202.74Z"/><path class="cls-1" d="M177,204.51a4.31,4.31,0,1,0,3.7,4.84,3.64,3.64,0,0,0,0-.57A4,4,0,0,0,177,204.51Z"/><ellipse class="cls-1" cx="161.34" cy="205.89" rx="5.31" ry="6.07"/><ellipse class="cls-1" cx="417.52" cy="188.04" rx="3.85" ry="4.4"/><ellipse class="cls-1" cx="425.91" cy="187.58" rx="3.85" ry="4.4"/><ellipse class="cls-1" cx="434.29" cy="187.13" rx="3.85" ry="4.4"/><path class="cls-1" d="M444.39,182.27A4,4,0,0,0,440,186a4.38,4.38,0,0,0,3.32,5,4,4,0,0,0,4.42-3.77,4.87,4.87,0,0,0,0-.66A4,4,0,0,0,444.39,182.27Z"/><polygon class="cls-1" points="190.19 206.73 190.2 211.75 203.04 210.94 203.04 205.91 190.19 206.73"/></g></svg>