<svg id="Artwork" xmlns="http://www.w3.org/2000/svg" viewBox="0 0 480 320"><defs><style>.cls-1{fill:#000;}</style></defs><path class="cls-1" d="M452,105a4,4,0,0,0-.81-2.42h0a2.22,2.22,0,0,0-.28-.33h0a4,4,0,0,0-2.29-1.19h-.06L287,78.68a43.61,43.61,0,0,0-10.83-.14L31.46,106a4,4,0,0,0-3.54,3.65c0,.12,0,.24,0,.37l0,14a3.37,3.37,0,0,0,0,.44,3.59,3.59,0,0,0,0,.47l0,13.39a4.72,4.72,0,0,0-.05.64,3.39,3.39,0,0,0,.06.64l0,13.06a3.89,3.89,0,0,0,0,1.57L28,167a4.5,4.5,0,0,0-.1.89,4,4,0,0,0,.11.91L28,184a4,4,0,0,0,2.38,3.65l122,54.09a4.06,4.06,0,0,0,1.64.35,4,4,0,0,0,.69-.06l294.05-51.76a4,4,0,0,0,3.31-3.95Zm-416,10.28,114,32.05,0,9.38-114-35.18Zm0,14.63,114,35.18,0,10.62L36,136.13Zm0,14.7,114,39.57,0,10.21L36,150.72Zm0,14.69L150,203v9.79L36,165.3Zm0,22.05V174l114,47.45,0,10.46Zm118.14-41.13L52.7,111.68,277.1,86.49a35.75,35.75,0,0,1,8.83.11l132.34,18.32ZM158,233.27l-.15-85.49L444,109.56l.13,73.36Z"/><path class="cls-1" d="M317.39,140.49c-12.91-2.07-25.83,8.29-28.84,23.16s5,28.6,17.95,30.69,25.82-8.29,28.83-23.17S330.31,142.57,317.39,140.49Z"/><path class="cls-1" d="M417.08,156.75c-5.95-1.47-12.4,3-14.37,9.89s1.24,13.77,7.2,15.24,12.39-3,14.38-9.9S423,158.22,417.08,156.75Z"/><path class="cls-1" d="M195.34,187.84c-6.25-1.55-13,3.12-15.06,10.36s1.29,14.44,7.55,16,13-3.11,15.06-10.38S201.59,189.38,195.34,187.84Z"/><path class="cls-1" d="M240.51,191.11l-23.78,3.6a3.94,3.94,0,0,0-3,3.95l0,9.56c0,1.93,1.36,3.29,3,3.05L240.53,207a3.92,3.92,0,0,0,3-3.95l0-8.93C243.53,192.22,242.17,190.86,240.51,191.11Z"/></svg>