<svg id="Artwork" xmlns="http://www.w3.org/2000/svg" viewBox="0 0 480 320"><defs><style>.cls-1{fill:#000;}</style></defs><g id="_1" data-name=" 1"><path class="cls-1" d="M410.67,184.43a17,17,0,0,0,3.42-.35c10.87-2.26,19-14.37,18.39-27.58-.28-6.9-3-13-7.48-16.83a16.45,16.45,0,0,0-8.58-3.85l-.24-.08-13.7-2.93a3.59,3.59,0,0,0-1.52-.27,10.67,10.67,0,0,0-1.38.1h-.16l-1.2.2h-.16c-10.86,2.24-18.94,14.35-18.39,27.57.48,11.47,7.64,20.1,16.94,20.8l9.65,2.74a4.31,4.31,0,0,0,1,.14h.15A16.16,16.16,0,0,0,410.67,184.43Zm14.49-27.63c.39,9.41-5.36,18.61-12.56,20.1a9,9,0,0,1-7.48-1.75c-3.14-2.46-5.05-6.79-5.27-11.9-.39-9.35,5.32-18.53,12.48-20.07l1-.16a8.91,8.91,0,0,1,6.91,2.2C423.17,147.71,425,151.94,425.16,156.8ZM387,160.12c-.38-9.35,5.32-18.54,12.49-20.07l1-.16h.08l1.69.36c-6.2,5.13-10.15,13.95-9.76,23.32a26.2,26.2,0,0,0,2.27,9.85C390.44,171.75,387.27,166.63,387,160.12Z"/><path class="cls-1" d="M199,198.14a16.54,16.54,0,0,0,3.44-.36c10.88-2.25,18.93-14.36,18.36-27.57-.29-6.9-3-13-7.48-16.83a16.51,16.51,0,0,0-8.59-3.85,1,1,0,0,0-.25-.08l-13.6-2.95a3.34,3.34,0,0,0-1.53-.28,12.79,12.79,0,0,0-1.38.09h-.17l-1.19.19h-.16c-10.86,2.25-18.94,14.36-18.4,27.58.48,11.47,7.64,20.1,16.94,20.8l9.63,2.79a3.72,3.72,0,0,0,1,.14h.16A15.85,15.85,0,0,0,199,198.14Zm14.5-27.63c.39,9.41-5.36,18.61-12.55,20.09a8.91,8.91,0,0,1-7.48-1.75c-3.14-2.45-5.07-6.78-5.28-11.89-.39-9.35,5.32-18.53,12.48-20.07l1-.16a8.94,8.94,0,0,1,6.91,2.19C211.49,161.42,213.3,165.64,213.48,170.51Zm-38.15,3.32c-.4-9.35,5.32-18.54,12.47-20.08l1-.17h.09l1.7.37c-6.21,5.13-10.16,14-9.77,23.32a26.21,26.21,0,0,0,2.28,9.85C178.77,185.47,175.59,180.31,175.33,173.83Z"/><polygon class="cls-1" points="220.23 203.35 220.24 207.24 230.17 206.6 230.16 202.71 220.23 203.35"/><path class="cls-1" d="M449.59,113.46a3.73,3.73,0,0,0-3.15-1.38l-2.61.18L328.67,82.75a2.14,2.14,0,0,0-.43-.07h-.4a4.86,4.86,0,0,0-.54,0L33.43,102.46h-.29a4.33,4.33,0,0,0-3.74,4.25h0l-.14,91.82a3.74,3.74,0,0,0,3.53,3.74l109.74,34.45a13,13,0,0,0,4.8.58L446.6,217.36h0a4,4,0,0,0,3.9-3.8l.24-97.43A3.74,3.74,0,0,0,449.59,113.46Zm-297.54,26,291.07-19.64-.21,90.35L151.83,229.81Zm-3.56-7.26L56.73,108.39,327.38,90.12l92.56,23.74ZM36.73,195.73,37,110.91l107.68,28.38-.22,90.14Z"/><path class="cls-1" d="M356.18,153.35a4.58,4.58,0,0,0-1.36-2.68,4.73,4.73,0,0,0-3.49-1.27h0l-101.39,6.19a4.83,4.83,0,0,0-4.55,4.76h0L245,214.66a6.77,6.77,0,0,0,4.75,4.68H250l101.4-6.18h0a4.85,4.85,0,0,0,4.55-4.78h0l.35-54.3h0A3,3,0,0,0,356.18,153.35Zm-104,9,97.24-5.94-.31,50-97.25,5.92Z"/><path class="cls-1" d="M268.06,146.69,263,147a3.34,3.34,0,0,0-3.2,3.24,3,3,0,0,0,.94,2.23,3.22,3.22,0,0,0,2.26.89h.21l5.08-.3a3.34,3.34,0,0,0,3.2-3.22,3.07,3.07,0,0,0-.94-2.25,3.7,3.7,0,0,0-2.46-.89Z"/><path class="cls-1" d="M249.57,146.65h.31l98.84-7.48h.18a4.54,4.54,0,0,0,4-4.48,4.26,4.26,0,0,0-1.32-3.13,4.15,4.15,0,0,0-2.72-1.18h-.42l-98.84,7.48h-.17a4.52,4.52,0,0,0-4,4.47,4.22,4.22,0,0,0,1.32,3.12A4.16,4.16,0,0,0,249.57,146.65Z"/><path class="cls-1" d="M391.29,191.61a4,4,0,1,0,3.46,4.54,4.89,4.89,0,0,0,0-.54,3.74,3.74,0,0,0-3.47-4Z"/><ellipse class="cls-1" cx="401.22" cy="195.19" rx="3.49" ry="3.99"/><ellipse class="cls-1" cx="411.14" cy="194.78" rx="3.49" ry="3.99"/><ellipse class="cls-1" cx="421.06" cy="194.36" rx="3.49" ry="3.99"/><ellipse class="cls-1" cx="179.61" cy="209.31" rx="3.49" ry="3.99"/><path class="cls-1" d="M189.53,204.91a4,4,0,1,0,3.46,4.53,3.27,3.27,0,0,0,0-.54,3.74,3.74,0,0,0-3.47-4Z"/><ellipse class="cls-1" cx="199.45" cy="208.49" rx="3.49" ry="3.99"/><ellipse class="cls-1" cx="209.37" cy="208.07" rx="3.49" ry="3.99"/></g></svg>