<svg id="Artwork" xmlns="http://www.w3.org/2000/svg" viewBox="0 0 480 320"><defs><style>.cls-1{fill:#000;}</style></defs><path class="cls-1" d="M454.12,101a4,4,0,0,0-3.14-1l-9.28,1.14L292.56,78.89a25.65,25.65,0,0,0-6.55-.12L28.06,108a4,4,0,0,0-3.53,3.58V112h0v67.58a4,4,0,0,0,2.35,3.64L131,230.33v7.08a4.07,4.07,0,0,0,4,4.06,3.49,3.49,0,0,0,.65-.06l316-52.26a4,4,0,0,0,3.35-3.93l.44-81.2A4,4,0,0,0,454.12,101Zm-163-14.22,120.23,17.89L134.92,137.12a4,4,0,0,0-3.49,3.5L47.49,113.83,286.14,86.68A19.31,19.31,0,0,1,291.12,86.76Zm-258.61,65,98.66,37v6.09L32.51,154.32Zm0-8.55V140.5l98.72,34.67v5Zm0-11.13v-2.65l98.78,33.68v3.64Zm98.82,22.59L32.51,120.93v-3.49L131.35,149ZM32.51,163l98.61,40.47v5.4L32.51,165.47Zm0,14v-2.75L131,217.57v4ZM447,181.78,139,232.72l.4-88,308-36.26Z"/><path class="cls-1" d="M303.06,201.49a2.62,2.62,0,0,0,.56,0l94.43-15a3.61,3.61,0,0,0,3.05-3.57V122.6a3.62,3.62,0,0,0-3.59-3.65l-.46,0-94.42,11.44a3.61,3.61,0,0,0-3.18,3.62v63.84A3.61,3.61,0,0,0,303.06,201.49Zm3.62-64.27,87.15-10.55v53.15l-87.15,13.83Z"/><path class="cls-1" d="M165.79,202.18a18.87,18.87,0,0,0,5.48.79c9.43,0,18.47-6.87,21.61-17.27h0a24.69,24.69,0,0,0-1.67-18.78,20,20,0,0,0-11.85-9.85c-11.2-3.33-23.35,4.07-27.09,16.5A24.77,24.77,0,0,0,154,192.33,20,20,0,0,0,165.79,202.18Z"/><path class="cls-1" d="M420.92,164.4a16.73,16.73,0,0,0,4.91.72c8.4,0,16.45-6.11,19.24-15.37h0a22,22,0,0,0-1.49-16.69,17.84,17.84,0,0,0-10.59-8.8c-10-3-20.83,3.6-24.16,14.66a22.1,22.1,0,0,0,1.49,16.69A17.87,17.87,0,0,0,420.92,164.4Z"/><path class="cls-1" d="M194.94,155.42h.53a1.5,1.5,0,0,0,.3,0l90.86-11.63a6.58,6.58,0,0,0,5.65-7.09,6.34,6.34,0,0,0-6.91-5.73l-.21,0-90.85,11.63a6.54,6.54,0,0,0-5.67,7.09A6.36,6.36,0,0,0,194.94,155.42Z"/><path class="cls-1" d="M408.38,181.2a3.4,3.4,0,0,0,1,.14,4.24,4.24,0,0,0,3.93-3.13h0a4.44,4.44,0,0,0-.3-3.41,3.64,3.64,0,0,0-2.16-1.8,4.1,4.1,0,0,0-4.94,3,4.49,4.49,0,0,0,.31,3.41A3.64,3.64,0,0,0,408.38,181.2Z"/><path class="cls-1" d="M418.28,180a3.48,3.48,0,0,0,1,.15,4.24,4.24,0,0,0,3.92-3.14h0a4.45,4.45,0,0,0-.3-3.41,3.63,3.63,0,0,0-2.16-1.79,4.1,4.1,0,0,0-4.94,3,4.49,4.49,0,0,0,.31,3.41A3.63,3.63,0,0,0,418.28,180Z"/><path class="cls-1" d="M427.94,178.76a3.41,3.41,0,0,0,1,.15,4.25,4.25,0,0,0,3.93-3.14h0a4.49,4.49,0,0,0-.3-3.41,3.64,3.64,0,0,0-2.16-1.8,4.11,4.11,0,0,0-4.94,3,4.49,4.49,0,0,0,.31,3.41A3.64,3.64,0,0,0,427.94,178.76Z"/><path class="cls-1" d="M437.78,177.44a3.36,3.36,0,0,0,1,.14,4.24,4.24,0,0,0,3.93-3.14h0a4.51,4.51,0,0,0-.3-3.4,3.63,3.63,0,0,0-2.17-1.8,4.1,4.1,0,0,0-4.93,3,4.53,4.53,0,0,0,.3,3.41A3.69,3.69,0,0,0,437.78,177.44Z"/><path class="cls-1" d="M185.66,203.88l12.19-1.48a4.09,4.09,0,0,1,4.58,4.06v4.32a4.09,4.09,0,0,1-3.44,4l-12.2,1.93a4.09,4.09,0,0,1-4.73-4v-4.78A4.08,4.08,0,0,1,185.66,203.88Z"/><path class="cls-1" d="M208.38,212.81a5.43,5.43,0,0,0,1.55.22,6.62,6.62,0,0,0,6.12-4.89h0a7,7,0,0,0-.47-5.32,5.63,5.63,0,0,0-3.36-2.78c-3.17-.95-6.61,1.15-7.67,4.67A7.05,7.05,0,0,0,205,210,5.69,5.69,0,0,0,208.38,212.81Z"/><path class="cls-1" d="M152.05,224.72a8.16,8.16,0,0,0,2.25.32,9.61,9.61,0,0,0,8.88-7.09h0a10.14,10.14,0,0,0-.69-7.71,8.24,8.24,0,0,0-4.86-4.05c-4.6-1.36-9.59,1.67-11.13,6.78a10.15,10.15,0,0,0,.69,7.7A8.24,8.24,0,0,0,152.05,224.72Z"/><path class="cls-1" d="M170.66,218.86a5.49,5.49,0,0,0,1.55.23,6.63,6.63,0,0,0,6.12-4.89h0a7,7,0,0,0-.47-5.32,5.68,5.68,0,0,0-3.36-2.79c-3.17-.94-6.61,1.15-7.67,4.67a7.07,7.07,0,0,0,.48,5.32A5.67,5.67,0,0,0,170.66,218.86Z"/></svg>