<svg id="Artwork" xmlns="http://www.w3.org/2000/svg" viewBox="0 0 480 320"><defs><style>.cls-1{fill:#000;}</style></defs><path class="cls-1" d="M399.46,181.49l9.83,2.79a3.92,3.92,0,0,0,1,.14h.16a15.39,15.39,0,0,0,3.31.36,17.73,17.73,0,0,0,3.48-.37c11.06-2.29,19.29-14.62,18.72-28.07-.28-7-3.06-13.28-7.61-17.13a16.77,16.77,0,0,0-8.74-3.92l-.25-.08-13.94-3a3.71,3.71,0,0,0-1.54-.27,10.88,10.88,0,0,0-1.41.1h-.17l-1.21.2h-.17c-11.06,2.29-19.28,14.61-18.72,28.07C382.71,172,390,180.79,399.46,181.49Zm16-38.71,1-.16a9.12,9.12,0,0,1,7,2.23c3,2.55,4.78,6.85,5,11.8.4,9.57-5.45,18.94-12.78,20.45a9,9,0,0,1-7.62-1.78c-3.2-2.5-5.15-6.91-5.37-12.1C402.36,153.7,408.18,144.35,415.47,142.78Zm-13.08-3.19,1-.16h.08l1.73.37c-6.31,5.23-10.34,14.2-9.94,23.74a26.67,26.67,0,0,0,2.31,10c-4.42-1.69-7.65-6.91-7.93-13.53C389.29,150.51,395.1,141.15,402.39,139.59Z"/><path class="cls-1" d="M184,195.41l9.8,2.85a4,4,0,0,0,1,.14H195a16.61,16.61,0,0,0,3.29.33,17.09,17.09,0,0,0,3.49-.36c11.08-2.29,19.28-14.62,18.7-28.07-.3-7-3.07-13.28-7.62-17.14a16.77,16.77,0,0,0-8.75-3.92,1.09,1.09,0,0,0-.24-.07l-13.85-3a3.45,3.45,0,0,0-1.55-.29,13,13,0,0,0-1.41.1h-.17l-1.22.19h-.17c-11.05,2.29-19.27,14.62-18.72,28.08C167.26,185.92,174.55,194.7,184,195.41Zm16-38.68,1-.16a9.11,9.11,0,0,1,7,2.24c3,2.54,4.8,6.83,5,11.79.4,9.58-5.45,19-12.77,20.46a9.05,9.05,0,0,1-7.62-1.79c-3.19-2.49-5.16-6.9-5.37-12.1C186.88,167.65,192.68,158.3,200,156.73Zm-13.08-3.18,1-.18h.1l1.72.37c-6.32,5.23-10.34,14.21-9.95,23.74a26.74,26.74,0,0,0,2.33,10c-4.43-1.68-7.67-6.93-7.93-13.53C173.8,164.46,179.61,155.11,186.89,153.55Z"/><polygon class="cls-1" points="219.91 207.99 230.02 207.35 230.01 203.39 219.91 204.03 219.91 207.99"/><path class="cls-1" d="M453.4,112.53a3.8,3.8,0,0,0-3.2-1.41l-2.67.18L333,82a21,21,0,0,0-6.6-.6l-296.6,19.9h-.31a4.43,4.43,0,0,0-3.8,4.34l-.14,93.47a3.81,3.81,0,0,0,3.59,3.81L143.64,238a15,15,0,0,0,5.37.62L450.36,218.3a3.66,3.66,0,0,0,1.56-.35,3.81,3.81,0,0,0,2.41-3.52l.23-99.19A3.76,3.76,0,0,0,453.4,112.53ZM142.75,230.58,33.1,196.28l.25-86.35L143,138.82Zm4.13-99L53.46,107.37,325.9,89a19.19,19.19,0,0,1,6.08.56l91.24,23.4ZM446.6,211,150.28,231l.21-92,296.33-20Z"/><path class="cls-1" d="M250,220.31h.22L353.44,214a4.93,4.93,0,0,0,4.63-4.87l.35-55.27a3.67,3.67,0,0,0-.11-.74,4.67,4.67,0,0,0-1.39-2.74,4.85,4.85,0,0,0-3.55-1.29l-103.21,6.3a4.93,4.93,0,0,0-4.64,4.86l-.35,55.28A6.88,6.88,0,0,0,250,220.31Zm2.45-58.06,99-6-.33,50.94-99,6Z"/><path class="cls-1" d="M268.59,146.36l-5.17.3a3.39,3.39,0,0,0-3.26,3.3,3,3,0,0,0,.95,2.27,3.36,3.36,0,0,0,2.31.91h.21l5.17-.31a3.39,3.39,0,0,0,3.26-3.28,3.13,3.13,0,0,0-.95-2.29,3.4,3.4,0,0,0-2.07-.88A2.26,2.26,0,0,0,268.59,146.36Z"/><path class="cls-1" d="M249.78,146.31h.31l100.62-7.61h.18a4.62,4.62,0,0,0,4.1-4.56,4.36,4.36,0,0,0-1.34-3.18,4.16,4.16,0,0,0-2.77-1.21h-.43l-100.63,7.61h-.17a4.61,4.61,0,0,0-4.1,4.55,4.34,4.34,0,0,0,1.34,3.18A4.22,4.22,0,0,0,249.78,146.31Z"/><path class="cls-1" d="M394.07,192.09h0a4.1,4.1,0,1,0,3.52,4.61,4.93,4.93,0,0,0,0-.55A3.79,3.79,0,0,0,394.07,192.09Z"/><ellipse class="cls-1" cx="404.15" cy="195.73" rx="3.55" ry="4.06"/><ellipse class="cls-1" cx="414.25" cy="195.31" rx="3.55" ry="4.06"/><ellipse class="cls-1" cx="424.35" cy="194.89" rx="3.55" ry="4.06"/><ellipse class="cls-1" cx="178.56" cy="210.11" rx="3.55" ry="4.06"/><path class="cls-1" d="M188.68,205.62h0a4.11,4.11,0,1,0,3.52,4.61,4.9,4.9,0,0,0,0-.54A3.82,3.82,0,0,0,188.68,205.62Z"/><path class="cls-1" d="M198.75,205.2a4.1,4.1,0,1,0,3.56,4.07A3.84,3.84,0,0,0,198.75,205.2Z"/><ellipse class="cls-1" cx="208.85" cy="208.84" rx="3.55" ry="4.06"/></svg>