<svg id="Artwork" xmlns="http://www.w3.org/2000/svg" viewBox="0 0 480 320"><defs><style>.cls-1{fill:#000;}</style></defs><g id="_1" data-name=" 1"><path class="cls-1" d="M437.19,80.58h0A7.21,7.21,0,0,0,437,79a7.07,7.07,0,0,0-1.09-2.48A6.25,6.25,0,0,0,434,74.66a5.85,5.85,0,0,0-1.16-.54h-.2a3.39,3.39,0,0,0-.48-.17H432l-7.81-1.73h-.06a5.47,5.47,0,0,0-1-.12l-.2-.06h-.11a3.72,3.72,0,0,0-.59-.2h-.06l-143.7-32h0a5.26,5.26,0,0,0-2.4-.07H276L46.88,76.65h-.11a7.31,7.31,0,0,0-2.21.79A7.19,7.19,0,0,0,42.77,79,7.58,7.58,0,0,0,41.46,81a8.31,8.31,0,0,0-.6,2.5v.62h0L42.09,185h0v.81l.68,53.65h0a7.91,7.91,0,0,0,.28,2,7.48,7.48,0,0,0,1.11,2.29A6.74,6.74,0,0,0,46,245.45a6.31,6.31,0,0,0,1.07.54,6.21,6.21,0,0,0,1,.34h0l143.76,31.75h0a6,6,0,0,0,1.19.18,4.76,4.76,0,0,0,.78.26l7.81,1.72h.14a5.92,5.92,0,0,0,1.18.13h.48a4.07,4.07,0,0,0,.61-.05l229.08-36.86h.05a6.69,6.69,0,0,0,1.82-.59,6.87,6.87,0,0,0,2-1.46,7.19,7.19,0,0,0,1.39-2.06,7.55,7.55,0,0,0,.69-2.42,6.22,6.22,0,0,0,.06-1.06h0ZM50.4,182.71,49.25,89.18l135.68,26.73v.21h0l1.19,96.58Zm145.5,88.07-.3-.17-.31-.13a2.48,2.48,0,0,0-.41-.15h-.06l-.65-52.66a1.41,1.41,0,0,0,0-.29v-.53L193,121.08l2.95.65,1.83,149.46ZM364.53,80.48a4,4,0,0,0,.42-1.66,4,4,0,0,0-.62-2.24v-.11a4,4,0,0,0-.3-.94h0a3.43,3.43,0,0,0-.31-.56,3.61,3.61,0,0,0-.5-.61,4.11,4.11,0,0,0-1.07-.77,5.42,5.42,0,0,0-.74-.29H361l-6.22-1.47h-2.65l-14.35,2.25h-.26l-.21,0-.23.06h-.2l-.17.06q-.31.14-.63.3h-2.15l-14.3,2.3h-.77l-.26.09a3.52,3.52,0,0,0-.4.18h0l-.16.08h-2.26l-14.32,2.3h-.4l-.28.07-.2.06h-.05a4.92,4.92,0,0,0-.58.26l-.13.08h-2.18l-14.51,2.91h-.51l-.28.07h-.13L282,83l-.4.18h0l-.18.1h-2.22l-14.3,2.3h-.84l-.31.11c-.18.08-.36.16-.54.26H261l-14.3,2.3H246l-.18,0h-.33c-.19.08-.37.18-.56.28h0l-.2.7h-2l-14.32,2.3h-.93a5.32,5.32,0,0,0-.5.21h-.13l-.12.49h-.18a.48.48,0,0,0-.17,0h-1.85l-14.3,2.3h-.43l-.25.06h-.06l-.23.08c-.19.08-.37.16-.56.26h-.08l-.38.26a4.07,4.07,0,0,0-.94,1h0l-.18.29-.07.14h0a4.12,4.12,0,0,0-.42,1.82,4.93,4.93,0,0,0-.29,1.36A4.14,4.14,0,0,0,209.7,104h.37l2.86.63-22,3.53h-.14a6.37,6.37,0,0,0-.95.26L58.77,82.9,277.1,47.76,399.62,74.83ZM51.09,238.78l-.59-47.85,135.71,30,.59,47.85Zm154.68,33.15L203.9,119.19,429.21,82.93l.61,49.32a24.27,24.27,0,0,0-7.76-14.61,18,18,0,0,0-9.38-4.21,4,4,0,0,0-1.09-.17h-1.51l-13.36.08a3.78,3.78,0,0,0-.89-.08,12.94,12.94,0,0,0-1.51.11h-.18l-1.3.21h-.18c-11.89,2.52-20.67,15.7-20.07,30.16.54,13.06,9,22.77,19.8,22.77h.4l10.54-.28a17.59,17.59,0,0,0,6.81-.11l.3-.07h0a3.92,3.92,0,0,0,1.78-.49c9.2-3,16.18-12.52,17.69-23.67l1.14,93.78Zm203.5-113.85-5.21.13a9.87,9.87,0,0,1-3.71-1.84c-3.43-2.67-5.53-7.4-5.76-13-.42-10.23,5.81-20.23,13.62-21.91l1.11-.18a5.26,5.26,0,0,0,.89,0h.28a9.83,9.83,0,0,1,6.37,2.45c3.19,2.72,5.14,7.33,5.36,12.64C422.63,146.28,416.77,156,409.27,158.08ZM394,121.57a32.64,32.64,0,0,0-7.35,22.17,27,27,0,0,0,4.8,14.71c-5.88-.64-10.47-6.85-10.81-15C380.17,133.28,386.26,123.41,394,121.57Z"/><path class="cls-1" d="M369.66,113.69h0a7.32,7.32,0,0,0-2.51-5.58,6.2,6.2,0,0,0-5-1.39L217.7,130h0c-3.53.57-6.16,4-6.11,8h0L213,249a5.62,5.62,0,0,0,.15,1,6.91,6.91,0,0,0,3.36,4.93h.09a6.3,6.3,0,0,0,.75.35,5.6,5.6,0,0,0,.54.17l.31.09h.09a5.46,5.46,0,0,0,1.2.14,6.63,6.63,0,0,0,1-.08h0l144.48-23.25c3.38-.54,5.89-3.88,5.81-7.65h0ZM221,247.41l-.05-1-1.3-106.13a4,4,0,0,0,.59-2.6l141.47-22.79,1,109.71Z"/><path class="cls-1" d="M405,190.83c.65-2.92-.65-5.69-2.9-6.19s-4.59,1.47-5.23,4.39.65,5.7,2.89,6.19S404.37,193.75,405,190.83Z"/><path class="cls-1" d="M388.56,220.81c-1.93-.43-3.94,1.26-4.5,3.77s.56,4.88,2.49,5.31,3.94-1.26,4.49-3.77S390.48,221.28,388.56,220.81Z"/><polygon class="cls-1" points="416.48 209.98 401.45 212.42 399.75 214.86 399.99 222.56 402.19 224.51 416.96 222.44 419.05 219.87 418.92 212.3 416.48 209.98"/></g></svg>