<svg xmlns="http://www.w3.org/2000/svg" viewBox="0 0 480 320"><defs><style>.cls-1{fill:#000;}</style></defs><g id="Layer_1" data-name="Layer 1"><path class="cls-1" d="M302.82,153.51H160.93a8.18,8.18,0,0,0-8.17,8.17V188a8.17,8.17,0,0,0,8.17,8.16H302.82A8.17,8.17,0,0,0,311,188V161.68A8.18,8.18,0,0,0,302.82,153.51ZM159.87,188V161.68a1.05,1.05,0,0,1,1.06-1.06h75.73v28.44H160.93A1.06,1.06,0,0,1,159.87,188Zm144,0a1.06,1.06,0,0,1-1.05,1.06H243.5V160.62h59.32a1.05,1.05,0,0,1,1.05,1.06Z"/><path class="cls-1" d="M440.71,139.34l-109.58-51-.17-.08a43.52,43.52,0,0,0-15.89-3.15L41.47,86.19A14.92,14.92,0,0,0,26.4,101.11v60.81a16.9,16.9,0,0,0,8,14.34l73.42,44.88A25.21,25.21,0,0,0,121,224.83v-.56a11.4,11.4,0,0,0,2,.28v6.85h46.55v-6.78l220.47.17v6.61h46.55v-6.57h5a12,12,0,0,0,12-12V153.06A13.78,13.78,0,0,0,440.71,139.34Zm-329.2,75.82L38.09,170.29a9.88,9.88,0,0,1-4.69-8.37V101.11a7.66,7.66,0,0,1,.16-1.59l78.91,45.92v68a11.1,11.1,0,0,0,.26,2.4C112.32,215.63,111.91,215.41,111.51,215.16ZM115,142.8h-.07l.07-.12ZM37.93,94a8,8,0,0,1,3.52-.78L315,92.1a36.29,36.29,0,0,1,13.22,2.61L424,139.3H115.84ZM441.6,217.83l-318-.25a4.14,4.14,0,0,1-4.14-4.14v-.58H446.6A5,5,0,0,1,441.6,217.83Zm5-13H119.47V146.3H439.84a6.76,6.76,0,0,1,6.76,6.76Z"/><path class="cls-1" d="M386.05,149.7a25.6,25.6,0,1,0,25.59,25.6A25.62,25.62,0,0,0,386.05,149.7Zm0,43.19a17.6,17.6,0,1,1,17.59-17.59A17.62,17.62,0,0,1,386.05,192.89Z"/><path class="cls-1" d="M176.23,166.19a8.64,8.64,0,1,0,8.64,8.63A8.64,8.64,0,0,0,176.23,166.19Z"/><path class="cls-1" d="M198.22,166.19a8.64,8.64,0,1,0,8.63,8.63A8.63,8.63,0,0,0,198.22,166.19Z"/><circle class="cls-1" cx="222.65" cy="174.82" r="8.63"/></g></svg>