<?xml version="1.0" encoding="UTF-8"?>
<svg id="Layer_1" data-name="Layer 1" xmlns="http://www.w3.org/2000/svg" viewBox="0 0 480 320">
  <defs>
    <style>
      .cls-1 {
        fill: #000;
      }
    </style>
  </defs>
  <path class="cls-1" d="m154.93,255.4c-1.77,0-3.54-.59-5-1.71-1.92-1.47-3.08-3.7-3.2-6.12-.08-1.65,1.2-3.06,2.85-3.14,1.64-.09,3.06,1.2,3.14,2.85.04.89.56,1.41.86,1.65.3.23.94.6,1.81.41l255.35-49.27c1-.22,1.73-1.17,1.68-2.26,0-.05,0-.1,0-.14v-75.81c0-7.01-4.5-13.11-11.2-15.18l-111.83-34.52c-.05-.02-.11-.04-.16-.05l-3.85-1.43-220.41,30.14c-1.64.23-3.15-.92-3.38-2.57-.22-1.64.92-3.15,2.57-3.38l221.15-30.25c.49-.07.99-.01,1.45.16l4.48,1.66,111.75,34.49c9.23,2.85,15.43,11.25,15.43,20.92v75.74c.15,3.99-2.56,7.49-6.48,8.34l-255.35,49.27c-.55.12-1.11.18-1.68.18Z"/>
  <path class="cls-1" d="m150.51,163.07c-1.43,0-2.69-1.02-2.95-2.47-.29-1.63.79-3.19,2.42-3.48l260.28-46.61c1.64-.29,3.19.79,3.48,2.42.29,1.63-.79,3.19-2.42,3.48l-260.28,46.61c-.18.03-.36.05-.53.05Z"/>
  <path class="cls-1" d="m150.51,253.01c-.71,0-1.41-.25-1.97-.74l-85.62-74.54c-.65-.57-1.03-1.39-1.03-2.25l-.32-77.61c0-1.12.61-2.15,1.61-2.67.99-.52,2.19-.44,3.11.2l75.26,52.48c7.51,5.44,11.97,14.17,11.97,23.38v78.75c0,1.18-.69,2.24-1.76,2.73-.4.18-.82.27-1.24.27Zm-82.62-78.91l79.62,69.32v-72.16c0-7.3-3.53-14.21-9.44-18.49l-70.47-49.15.29,70.48Z"/>
  <path class="cls-1" d="m280,207.52c-5.33,0-10.36-2.27-14.15-6.38-4.95-5.37-7.4-13.31-6.7-21.78,1.25-15.26,12.43-27.67,24.93-27.67,5.33,0,10.36,2.27,14.15,6.38,4.95,5.37,7.39,13.31,6.7,21.78-1.25,15.25-12.43,27.67-24.93,27.67Zm4.08-49.82c-9.45,0-17.95,9.94-18.95,22.16-.56,6.8,1.31,13.08,5.13,17.22,2.68,2.91,6.05,4.45,9.74,4.45,9.45,0,17.95-9.94,18.95-22.16.56-6.8-1.31-13.08-5.13-17.22-2.68-2.91-6.05-4.45-9.74-4.45Z"/>
  <ellipse class="cls-1" cx="282.04" cy="179.61" rx="18.3" ry="14.36" transform="translate(46.14 416.59) rotate(-77.62)"/>
  <ellipse class="cls-1" cx="288.78" cy="181.65" rx="27.16" ry="21.31" transform="translate(49.44 424.78) rotate(-77.62)"/>
  <path class="cls-1" d="m176.14,221.54c-2.14,0-4.14-.71-5.77-2.06-2.13-1.77-3.37-4.51-3.38-7.52l-.09-22.48c-.02-5.79,4.29-11.12,9.83-12.13l64.23-11.7c2.81-.51,5.51.16,7.59,1.89,2.13,1.77,3.37,4.51,3.38,7.52l.09,22.48c.02,5.79-4.29,11.12-9.83,12.13l-64.23,11.7c-.61.11-1.22.17-1.82.17Zm66.63-50.06c-.24,0-.48.02-.73.07l-64.23,11.7c-2.67.49-4.92,3.33-4.9,6.2l.09,22.48c0,1.24.44,2.28,1.21,2.93.71.59,1.63.8,2.68.6l64.23-11.7c2.67-.49,4.92-3.33,4.9-6.2l-.09-22.48c0-1.24-.44-2.28-1.21-2.93-.54-.45-1.2-.67-1.95-.67Z"/>
  <path class="cls-1" d="m325.92,195.03c-2.14,0-4.14-.71-5.77-2.06-2.13-1.77-3.36-4.51-3.38-7.52l-.09-22.48c-.02-5.79,4.29-11.12,9.83-12.13l64.23-11.7c2.81-.51,5.51.16,7.59,1.89,2.13,1.77,3.37,4.51,3.38,7.52l.09,22.48c.02,5.79-4.29,11.12-9.83,12.13l-64.23,11.7c-.62.11-1.22.17-1.82.17Zm66.63-50.06c-.24,0-.48.02-.73.07l-64.23,11.7c-2.67.49-4.92,3.33-4.9,6.2l.09,22.48c0,1.24.44,2.28,1.21,2.93.71.59,1.63.8,2.68.6l64.23-11.7c2.67-.49,4.92-3.33,4.9-6.2l-.09-22.48c0-1.24-.44-2.28-1.21-2.93-.54-.45-1.2-.67-1.95-.67Z"/>
</svg>