<svg xmlns="http://www.w3.org/2000/svg" viewBox="0 0 480 320"><defs><style>.cls-1{fill:#000;}</style></defs><g id="Layer_1" data-name="Layer 1"><path class="cls-1" d="M438.22,103.38l-.42-1a4,4,0,0,0-.74-1.16L436,100.05a3.88,3.88,0,0,0-.42-.39l-.13-.09-.45-.3-.19-.09a4.17,4.17,0,0,0-.58-.24h-.06l-14.08-4.06a3.77,3.77,0,0,0-.88-.15l-1-.06a3.47,3.47,0,0,0-.44-.31.2.2,0,0,0-.08,0,3.23,3.23,0,0,0-.49-.25L417,94l-.21-.08L278.56,54a4.67,4.67,0,0,0-.91-.15l-.37,0-.28-.17-.19-.1a5.38,5.38,0,0,0-.51-.2l-.11,0h0l-9.79-2.83a4.12,4.12,0,0,0-.91-.15l-1-.05h-.43L47,62.65a3.8,3.8,0,0,0-.81.13l-.51.14-.34.11-.15.06a5,5,0,0,0-.61.31l-.14.1a4.23,4.23,0,0,0-.41.33c0,.05-.11.1-.16.16l-.12.11-1,1.15-.13.18c-.1.12-.19.25-.28.38l-.18.33-.12.22a1.17,1.17,0,0,0-.06.2l-.07.16-.21.66a4.08,4.08,0,0,0-.19,1.29L43.65,170.6a3.9,3.9,0,0,0,.13,1l.24.87a4,4,0,0,0,1.16,1.9l1.06,1a4,4,0,0,0,.62.47l7.36,4.49a4.05,4.05,0,0,0,.93.41l.23.21a3.49,3.49,0,0,0,.62.47l29.14,17.79v10.69A4,4,0,0,0,87,213.2l83.13,53.52a21.76,21.76,0,0,0,11.67,3,42.54,42.54,0,0,0,4.82-.3l187.79-21a4,4,0,0,0,3.56-4l0-10.83,52.68-5.39a4,4,0,0,0,2.07-.83l.32-.26a3.54,3.54,0,0,0,.59-.57l1.12-1.33c.09-.11.18-.22.26-.34l.45-.66a4,4,0,0,0,.68-2.16l2.47-117A4,4,0,0,0,438.22,103.38ZM60.74,174.88l-2-97,98.05,41.86,1,114.45Zm124.63,64.17-.72-107.7,240.52-17.61L423.1,215.09ZM162.86,111.6h-.23L73,73.59,276.49,61.8l.29,0L393.3,95.46Zm4.88,128.62-1-116.27,3.51,1.5.86,116.83Zm202.19.66L185.69,261.46c-5.19.59-8.7.11-11.33-1.51L93.14,207.66V204l67.57,41.27a4.35,4.35,0,0,0,1.26.47l.61.57a3.82,3.82,0,0,0,.65.49L174,253.41a3.9,3.9,0,0,0,1.7.57l1.19.12h.39a2.88,2.88,0,0,0,.41,0L369.9,234.43Z"/><polygon class="cls-1" points="321.08 214.71 320.44 214.31 319.67 214.22 318.91 214.46 318.25 214.99 317.81 215.73 317.65 216.58 317.8 217.39 318.23 218.05 318.87 218.46 319.64 218.55 320.4 218.31 321.06 217.78 321.5 217.03 321.65 216.19 321.51 215.37 321.08 214.71"/><polygon class="cls-1" points="297.7 216.99 297.05 216.59 296.29 216.5 295.52 216.73 294.87 217.26 294.43 218.01 294.27 218.85 294.42 219.66 294.85 220.31 295.5 220.72 296.26 220.8 297.03 220.56 297.68 220.03 298.12 219.29 298.27 218.46 298.13 217.65 297.7 216.99"/><polygon class="cls-1" points="274.04 219.29 273.4 218.89 272.63 218.8 271.87 219.04 271.21 219.57 270.78 220.31 270.62 221.14 270.77 221.94 271.2 222.6 271.85 223 272.62 223.09 273.38 222.85 274.03 222.32 274.47 221.58 274.62 220.75 274.47 219.94 274.04 219.29"/><polygon class="cls-1" points="344.2 212.46 343.56 212.05 342.79 211.96 342.03 212.2 341.37 212.74 340.93 213.49 340.77 214.34 340.91 215.16 341.34 215.82 341.98 216.23 342.75 216.32 343.51 216.08 344.17 215.54 344.61 214.79 344.77 213.94 344.63 213.13 344.2 212.46"/><path class="cls-1" d="M349.42,130.83l-83.14,6.49a4,4,0,0,0-3.69,4L262.41,209a4,4,0,0,0,4,4l.37,0,82.55-7.8a4,4,0,0,0,3.62-3.93l.78-66.35a4,4,0,0,0-4.31-4ZM345,197.51l-74.57,7.05.16-59.55,75.1-5.87Z"/></g></svg>