<svg xmlns="http://www.w3.org/2000/svg" viewBox="0 0 480 320"><defs><style>.cls-1{fill:#000;}</style></defs><g id="Layer_1" data-name="Layer 1"><path class="cls-1" d="M454.15,83.75l-.77,0,0-.19L303.91,60.09,303.5,60l-.42,0c-45.56,2.44-92.72,5.48-138.34,8.42s-92.9,6-138.49,8.42h0l-.4-.11V214l2.57,1,112.16,43.9.29-.75L166,255.59c1.3,2.87,9.58,4.38,19.63,3.42,10.21-1,18.6-4.16,19.66-7.33l187-18.59c.49,3.19,9.15,4.95,19.77,3.94,10.8-1,19.55-4.54,19.76-7.87l22.35-2.23Zm-288.89-7.3c45.45-2.93,92.44-6,137.82-8.39L419.49,86.37,144.28,107.22,51.53,83.5C89.32,81.33,127.81,78.86,165.26,76.45Zm280.89,32.46c-46.76.59-116.45,5.64-149.46,10-3.63.48-87.89,11.7-148.76,36.64V115L446.15,92.38ZM147.93,195.66,234,187.27V160l-86.07,6.78v-5.89c60.39-25.24,145.77-36.62,149.41-37.09,32.85-4.31,102.23-9.33,148.81-9.92v50.82c-53.32,25.79-83.07,39-151.18,53l-2.13.45-.42.09C235.6,230.49,183,231.78,147.93,230.58ZM33.85,87.23l106.08,27.14V250L33.85,208.46ZM147.93,249.34V235.59c6.44.21,13.45.35,21,.35,33.8,0,77.77-2.73,124.57-12.83l.42-.09,2.07-.44c67.77-13.84,97.85-27,150.19-52.3v49.41Z"/><path class="cls-1" d="M248.45,182.56l85.29-9a2.68,2.68,0,0,0,2.33-2.85l-.08-9.81c0-.1-.05-2.58-2.37-2.34l-85.29,9A2.68,2.68,0,0,0,246,170.4l.08,9.82C246.08,180.32,246.14,182.81,248.45,182.56Z"/><path class="cls-1" d="M376.5,158.13a6.87,6.87,0,0,0,4.41,1.6,7.67,7.67,0,0,0,.82,0h0a7.23,7.23,0,0,0,4.65-2.51,7.11,7.11,0,0,0,1.71-5,6.78,6.78,0,0,0-2.39-4.84,6.91,6.91,0,0,0-5.23-1.55,7.25,7.25,0,0,0-6.36,7.52A6.75,6.75,0,0,0,376.5,158.13Z"/><path class="cls-1" d="M385.74,165.79a6.89,6.89,0,0,0-5.24-1.55,7.26,7.26,0,0,0-6.35,7.53,6.78,6.78,0,0,0,6.79,6.43,7.7,7.7,0,0,0,.83,0,7.27,7.27,0,0,0,4.65-2.5,7.07,7.07,0,0,0,1.71-5A6.75,6.75,0,0,0,385.74,165.79Z"/><path class="cls-1" d="M361.32,159.55a6.89,6.89,0,0,0,4.41,1.6,7.52,7.52,0,0,0,.82-.05,7.25,7.25,0,0,0,4.66-2.52,7.13,7.13,0,0,0,1.7-5,6.79,6.79,0,0,0-2.4-4.84,6.91,6.91,0,0,0-5.22-1.54,7.22,7.22,0,0,0-4.64,2.5,7.12,7.12,0,0,0-1.72,5A6.84,6.84,0,0,0,361.32,159.55Z"/><path class="cls-1" d="M370.51,166.74a6.81,6.81,0,0,0-5.2-1.54,7.23,7.23,0,0,0-4.65,2.49,7.14,7.14,0,0,0-1.73,5,6.77,6.77,0,0,0,6.8,6.44,7.52,7.52,0,0,0,.82,0,7.22,7.22,0,0,0,4.65-2.5,7.07,7.07,0,0,0,1.71-5A6.78,6.78,0,0,0,370.51,166.74Z"/><path class="cls-1" d="M346.48,161a6.88,6.88,0,0,0,4.41,1.59,5.64,5.64,0,0,0,.82-.05,7.25,7.25,0,0,0,6.36-7.52,6.77,6.77,0,0,0-7.62-6.38,7.22,7.22,0,0,0-4.65,2.5,7.11,7.11,0,0,0-1.71,5A6.8,6.8,0,0,0,346.48,161Z"/><path class="cls-1" d="M346.47,179a6.91,6.91,0,0,0,4.42,1.59,7.32,7.32,0,0,0,.81,0,7.22,7.22,0,0,0,4.66-2.51,7.14,7.14,0,0,0,1.71-5,6.82,6.82,0,0,0-2.39-4.84,6.91,6.91,0,0,0-5.26-1.55,7.24,7.24,0,0,0-4.61,2.5,7,7,0,0,0-1.72,5A6.79,6.79,0,0,0,346.47,179Z"/><path class="cls-1" d="M391.43,165.63a6.85,6.85,0,0,0,4.32,1.52,6.08,6.08,0,0,0,.95-.07h0a7.25,7.25,0,0,0,6.23-7.63,6.79,6.79,0,0,0-7.74-6.24,7.26,7.26,0,0,0-6.23,7.63A6.8,6.8,0,0,0,391.43,165.63Z"/><path class="cls-1" d="M426.31,171.68c6.63-.83,12.16-8.18,12.36-16.43s-5-14.27-11.64-13.44-12.17,8.19-12.37,16.44S419.68,172.51,426.31,171.68Z"/></g></svg>