<svg xmlns="http://www.w3.org/2000/svg" viewBox="0 0 480 320"><defs><style>.cls-1{fill:#000;}</style></defs><g id="Layer_1" data-name="Layer 1"><path class="cls-1" d="M437.06,190.14c.37,0,.74,0,1.11,0a17.55,17.55,0,1,0-1.11,0Z"/><path class="cls-1" d="M405.23,184.86a13.7,13.7,0,0,0,3.52-.52,10.35,10.35,0,0,0-4.15-20.08,10.31,10.31,0,0,0,.63,20.6Z"/><path class="cls-1" d="M273.73,184.91a5.57,5.57,0,0,0,3.7,1.4,8.7,8.7,0,0,0,1.8-.23c4.47-1.77,5.38-7.46.64-10.94h-5.16C271,178.35,271.15,182.63,273.73,184.91Z"/><path class="cls-1" d="M295.6,185.19H296a5.61,5.61,0,1,0-.35,0Z"/><path class="cls-1" d="M309.67,184.32H310a5.58,5.58,0,0,0,3.36-9.76c-2.16-1.91-5.5-2-8.1.46C302.24,179.64,305.49,184.32,309.67,184.32Z"/><path class="cls-1" d="M323.75,183.45c1.83,0,3.65-.82,5.47-4.3a5.6,5.6,0,1,0-11-.94,5.59,5.59,0,0,0,5.57,5.24Z"/><path class="cls-1" d="M334.14,181.18a5.56,5.56,0,0,0,3.69,1.41,8.69,8.69,0,0,0,1.77-.23,5.72,5.72,0,0,0,3.82-5.71,5.54,5.54,0,0,0-1.88-3.84c-2.1-1.86-5.32-2-8,.27C331.5,176,332,179.28,334.14,181.18Z"/><path class="cls-1" d="M351.91,181.72a6.3,6.3,0,0,0,2.44-.53,5.65,5.65,0,0,0,3.14-5.41,5.53,5.53,0,0,0-1.87-3.84c-2.14-1.88-5.41-2-8.05.38C344.45,177,347.7,181.72,351.91,181.72Z"/><path class="cls-1" d="M381.55,178.61a6,6,0,0,0,4,1.53H386a6.09,6.09,0,1,0-6.45-5.71A6,6,0,0,0,381.55,178.61Z"/><path class="cls-1" d="M476.1,129.23,355.21,98.58,22.49,110.15v74.66l120.78,41.77,32-1.1a2,2,0,0,0-.06.48c0,3.36,8.93,5.83,19.92,5.52S215,228.19,215,224.83a1.79,1.79,0,0,0-.16-.71l188.56-6.48a2.44,2.44,0,0,0-.64,1.54c0,3.35,8.93,5.82,19.92,5.51s19.88-3.28,19.87-6.64a2.45,2.45,0,0,0-.85-1.73l34.15-1.17ZM139.69,217.39,30.49,178.62V119.14L139.69,147ZM54.53,117.05l299.82-10.4,89.56,22.68L144.13,139.92Zm413.35,90.37-320.19,11v-16.3l98.07-3.33a5.45,5.45,0,0,0,4-1.83,5.79,5.79,0,0,0,1.39-4v-27.1a5.25,5.25,0,0,0-1.59-3.84,5.58,5.58,0,0,0-4-1.5l-97.84,3.64V147.8l320.36-11.32Z"/></g></svg>