<svg xmlns="http://www.w3.org/2000/svg" viewBox="0 0 480 320"><defs><style>.cls-1{fill:#000;}</style></defs><g id="Layer_1" data-name="Layer 1"><path class="cls-1" d="M453.77,104.08l-1.68.13L295.6,72.77l-.54-.11-.55,0C292.75,72.83,117.08,86,27.18,90.79l0,.63-1-.28V195l2.93,1.12,111,48.05v.48l.9-.09,1,.44.25-.56L168,241.92a.78.78,0,0,0,0,.16c0,3.37,8.89,5.26,19.82,4.21s19.79-4.62,19.78-8a2.3,2.3,0,0,0,0-.26L388,220.3a2.12,2.12,0,0,0-.16.77c0,3.37,8.89,5.26,19.82,4.21s19.79-4.62,19.78-8a1.92,1.92,0,0,0-.2-.84l26.5-2.6ZM294.56,80.72l127.94,25.7-279.69,21L47.73,97.65C138.59,92.34,284.4,81.48,294.56,80.72ZM148.11,197.9l85.9-8.38V162.33l-85.9,6.77V147.26c15.38,1.41,70,5,130.09-7.17,68.95-14,104.41,3.11,132.91,16.84,4.63,2.23,9,4.35,13.37,6.25-21.69,8.06-56.77,20.88-101,36.26-76,26.43-157.33,20.26-175.35,18.44Zm265.17-45.48c-29.18-14-65.48-31.55-136.08-17.23-60.2,12.22-114.7,8.4-129.09,7.05V135L445.77,112.7v42.49c-2.91,1.11-7.79,2.95-14.45,5.44C425.51,158.32,419.6,155.47,413.28,152.42Zm32.49,8.12v4.57a73.41,73.41,0,0,1-7.17-1.87ZM34.23,189.6V101.82L140.11,134.9V235.46Zm113.88,46.23V222.91c7,.7,22.21,1.91,42.35,1.91,35.36,0,86-3.75,134.64-20.66,47.9-16.65,85.08-30.3,106.18-38.17a86.4,86.4,0,0,0,14.49,4.21v36.39Z"/><path class="cls-1" d="M301.45,175.53a6.87,6.87,0,0,0,4.13,1.37,6.72,6.72,0,0,0,1.18-.1h0a7.24,7.24,0,0,0,4.49-2.73,7.06,7.06,0,0,0,1.46-5.11,6.78,6.78,0,0,0-2.65-4.68,6.88,6.88,0,0,0-5.3-1.27,7.18,7.18,0,0,0-4.49,2.72,7,7,0,0,0-1.47,5.11A6.81,6.81,0,0,0,301.45,175.53Z"/><path class="cls-1" d="M319.41,174.1a6.91,6.91,0,0,0,4.16,1.38,7.65,7.65,0,0,0,1.16-.09h0a7.19,7.19,0,0,0,4.49-2.72,7.08,7.08,0,0,0,1.46-5.12,6.67,6.67,0,0,0-2.64-4.67,6.9,6.9,0,0,0-5.31-1.28,7.23,7.23,0,0,0-4.51,2.74,7.08,7.08,0,0,0-1.45,5.08A6.78,6.78,0,0,0,319.41,174.1Z"/><path class="cls-1" d="M286.64,177a6.87,6.87,0,0,0,4.12,1.37,7.7,7.7,0,0,0,1.17-.1,7.31,7.31,0,0,0,4.52-2.73,7.09,7.09,0,0,0,1.45-5.1,6.81,6.81,0,0,0-2.64-4.69,6.89,6.89,0,0,0-5.31-1.27,7.19,7.19,0,0,0-4.49,2.72,7,7,0,0,0-1.47,5.12A6.8,6.8,0,0,0,286.64,177Z"/><path class="cls-1" d="M271.47,178.36a6.86,6.86,0,0,0,4.14,1.37,7.81,7.81,0,0,0,1.18-.09h0a7.19,7.19,0,0,0,4.49-2.72,7.07,7.07,0,0,0,1.46-5.11,6.78,6.78,0,0,0-2.65-4.69,6.86,6.86,0,0,0-5.29-1.27,7.27,7.27,0,0,0-4.5,2.71,7.12,7.12,0,0,0-1.47,5.12A6.76,6.76,0,0,0,271.47,178.36Z"/><path class="cls-1" d="M244.67,182.94a6.93,6.93,0,0,0,4.14,1.37,6.6,6.6,0,0,0,1.17-.1h0a7.25,7.25,0,0,0,6-7.84,6.81,6.81,0,0,0-2.65-4.68,6.91,6.91,0,0,0-5.31-1.27,7.25,7.25,0,0,0-6,7.83A6.81,6.81,0,0,0,244.67,182.94Z"/><path class="cls-1" d="M262,181.08h.29a5.76,5.76,0,0,0,5.31-5,5.21,5.21,0,0,0-1.37-4.16,5.12,5.12,0,0,0-4-1.58,5.69,5.69,0,0,0-5.29,4.91,5.12,5.12,0,0,0,5.1,5.84Z"/></g></svg>