<svg xmlns="http://www.w3.org/2000/svg" viewBox="0 0 480 320"><defs><style>.cls-1{fill:#000;}</style></defs><g id="Layer_1" data-name="Layer 1"><path class="cls-1" d="M454.15,91.54l-1.91.15L303.92,67.89l-.42-.07-.42,0c-45.56,2.44-92.72,5.47-138.34,8.41s-92.9,6-138.49,8.42h0l-.4-.11V206.15l2.57,1,111.51,43.2v0l26-2.59c1.3,2.87,9.58,4.39,19.63,3.43,10.21-1,18.6-4.17,19.66-7.33l187-18.6c.49,3.2,9.15,5,19.77,3.94,10.8-1,19.55-4.53,19.76-7.87l22.35-2.22Zm-288.89-7.3c45.45-2.92,92.44-5.95,137.82-8.38L417.94,94.29,144.28,115,51.53,91.29C89.32,89.13,127.81,86.66,165.26,84.24Zm-17.33,38.53,42.43-3.22c24-1.35,53.91-2.85,80.7-3.69,29.49-.92,53.56-2,74.88-3,36.56-1.63,65.73-2.93,100.21-2.43v8.9c-54.57-1.07-98.09-1.91-175.17-2h-1C222,117.37,164,121.75,147.93,123Zm298.22-17.29c-34.59-.5-63.82.8-100.52,2.44l-4.22.19,104.74-7.94ZM147.93,128.06c15.36-1.24,73.79-5.69,122.08-5.69h1c77.08.1,120.59.94,175.18,2v10.88c-30.46-.94-58.18-3-90-5.46h-.21c-24.45-1.86-52.16-4-84.79-5.76-48.67-2.68-107,3.6-123.17,5.51ZM33.85,200.63V95l106.08,27.13V241.79Zm114.08,40.92v-50L234,183.14V155.9l-86.07,6.78V134.57c15.1-1.8,74-8.25,122.9-5.55,32.58,1.79,60.26,3.9,84.69,5.75l.2,0c32,2.42,59.8,4.53,90.43,5.48V211.9Z"/><path class="cls-1" d="M333.62,155.92l-85.29,9a2.67,2.67,0,0,0-2.33,2.84l.08,9.81c0,.11.06,2.59,2.37,2.35l85.29-9a2.65,2.65,0,0,0,2.33-2.84l-.08-9.81C336,158.15,335.94,155.67,333.62,155.92Z"/><path class="cls-1" d="M376.5,155.46a6.81,6.81,0,0,0,4.41,1.6,7.63,7.63,0,0,0,.82,0h0a7.25,7.25,0,0,0,6.36-7.51,6.8,6.8,0,0,0-2.39-4.85,6.89,6.89,0,0,0-5.23-1.54,7.22,7.22,0,0,0-4.64,2.5,7.13,7.13,0,0,0-1.72,5A6.75,6.75,0,0,0,376.5,155.46Z"/><path class="cls-1" d="M385.64,161.66a6.91,6.91,0,0,0-5.25-1.55,7.26,7.26,0,0,0-6.35,7.53,6.76,6.76,0,0,0,6.8,6.42,5.64,5.64,0,0,0,.82-.05,7.18,7.18,0,0,0,4.65-2.5,7.09,7.09,0,0,0,1.72-5A6.82,6.82,0,0,0,385.64,161.66Z"/><path class="cls-1" d="M361.32,156.89a6.88,6.88,0,0,0,4.41,1.59,7.86,7.86,0,0,0,.83,0,7.28,7.28,0,0,0,4.65-2.51,7.16,7.16,0,0,0,1.7-5,6.76,6.76,0,0,0-7.62-6.37,7.23,7.23,0,0,0-6.36,7.51A6.84,6.84,0,0,0,361.32,156.89Z"/><path class="cls-1" d="M370.51,164.08a6.81,6.81,0,0,0-5.2-1.54,7.25,7.25,0,0,0-6.38,7.52,6.75,6.75,0,0,0,6.8,6.43,5.64,5.64,0,0,0,.82-.05,7.18,7.18,0,0,0,4.65-2.5,7,7,0,0,0,1.71-5A6.76,6.76,0,0,0,370.51,164.08Z"/><path class="cls-1" d="M346.48,158.31a6.88,6.88,0,0,0,4.41,1.59,7.52,7.52,0,0,0,.82-.05,7.25,7.25,0,0,0,6.36-7.53,6.79,6.79,0,0,0-2.4-4.84,6.91,6.91,0,0,0-5.22-1.54,7.27,7.27,0,0,0-4.64,2.5,7.08,7.08,0,0,0-1.72,5A6.8,6.8,0,0,0,346.48,158.31Z"/><path class="cls-1" d="M355.69,165.51a6.9,6.9,0,0,0-5.26-1.55,7.2,7.2,0,0,0-4.62,2.5,7,7,0,0,0-1.72,5,6.77,6.77,0,0,0,2.38,4.84,6.87,6.87,0,0,0,4.43,1.6,5.46,5.46,0,0,0,.8,0,7.25,7.25,0,0,0,6.37-7.51A6.85,6.85,0,0,0,355.69,165.51Z"/><path class="cls-1" d="M399,152a6.86,6.86,0,0,0-5.24-1.44,7.21,7.21,0,0,0-4.61,2.58,7.13,7.13,0,0,0-1.63,5,6.77,6.77,0,0,0,6.8,6.31,7.42,7.42,0,0,0,.94-.06h0a7.22,7.22,0,0,0,4.59-2.58,7.14,7.14,0,0,0,1.63-5.05A6.78,6.78,0,0,0,399,152Z"/><path class="cls-1" d="M426.49,144c-6.63.82-12.17,8.18-12.36,16.43s5,14.26,11.64,13.44,12.17-8.19,12.37-16.44S433.11,143.14,426.49,144Z"/></g></svg>