<svg xmlns="http://www.w3.org/2000/svg" viewBox="0 0 480 320"><defs><style>.cls-1{fill:#000;}</style></defs><g id="Layer_1" data-name="Layer 1"><path class="cls-1" d="M466.8,154.16,345.92,123.51l-144.26,5-.8-44.45s.8-7.23-3.82-7.23c0,0-3.83,0-3.83,7.23l-.87,44.74h.86l-180,6.26V201L134,238.21l30.9-1.06c0,.06,0,.12,0,.18,0,3.35,8.93,5.82,19.92,5.51s19.89-3.28,19.87-6.64a1.84,1.84,0,0,0-.05-.41l188.22-6.47a2.16,2.16,0,0,0-.4,1.22c0,3.36,8.93,5.83,19.91,5.52s19.89-3.29,19.88-6.64a2.26,2.26,0,0,0-.59-1.44l34.94-1.2ZM130.4,229,21.2,194.84V144.07L130.4,172ZM45.24,142l299.81-10.4,89.57,22.68L134.83,164.85Zm413.34,77.07L138.4,230l0-57.29,320.36-11.32Z"/></g></svg>