<svg xmlns="http://www.w3.org/2000/svg" viewBox="0 0 480 320"><defs><style>.cls-1{fill:#000;fill-rule:evenodd;}</style></defs><g id="Layer_1" data-name="Layer 1"><path class="cls-1" d="M458.43,105.84l-.38,0-153-29.66-.51,0c-1.88.11-189.24,11.56-281.16,16.48l0,.43-1.86-.51V198.18l2.56,1L138,242.29v1l34.1-3.63c1.58,2.74,9.71,4.17,19.53,3.24,10.3-1,18.74-4.22,19.68-7.41l187.78-20c2.41,2.3,10,3.43,19,2.57,9.49-.9,17.4-3.72,19.32-6.65l21-2.24Zm-31,2.25-285,20.66L45.1,99.55c94.06-5.21,249.32-14.68,259.46-15.3Zm23,12.7c-59,5.86-94.81,7-178.89,9.82-49.43,1.63-109.41,6.47-125.57,7.82v-1.92l304.46-22.07ZM146,142.44c15.61-1.3,76-6.19,125.78-7.84,83.91-2.76,119.78-3.95,178.68-9.79v4.34l-7.72.88c-51.57,5.89-88.83,10.14-171.07,8.28-49.31-1.11-109.32,4.51-125.67,6.17ZM443.16,134l7.27-.83v8.18c-40.84,3.29-77.79,2.53-122.55,1.25C374.5,141.84,404.91,138.37,443.16,134ZM29.57,192.67V103.24L138,135.77v98ZM146,234.35v-32.7l87.9-8.57v-27.8L146,172.21V148.64c15.59-1,75.58-4.66,125.58-3.56,16.36.36,31.34.8,45.82,1.22,49.55,1.44,89,2.59,133.06-.93v56.57Z"/><path class="cls-1" d="M430.29,147c-6.77.84-12.41,8.35-12.61,16.77s5.12,14.55,11.88,13.71,12.41-8.36,12.62-16.77S437.05,146.14,430.29,147Z"/><path class="cls-1" d="M314.81,168.8a7,7,0,0,0-5.36-1.29,7.3,7.3,0,0,0-4.53,2.74,7,7,0,0,0-.49.72,6.88,6.88,0,0,0-1.86-2.17,7,7,0,0,0-5.37-1.29,7.34,7.34,0,0,0-4.56,2.77,7.16,7.16,0,0,0-1.46,5.14,6.86,6.86,0,0,0,2.66,4.72,6.93,6.93,0,0,0,4.18,1.39,7.68,7.68,0,0,0,1.17-.09h0a7.21,7.21,0,0,0,4.53-2.74,7,7,0,0,0,.49-.72,6.84,6.84,0,0,0,1.87,2.18,7,7,0,0,0,4.17,1.38,7.59,7.59,0,0,0,1.17-.09h0a7.33,7.33,0,0,0,4.55-2.75,7.18,7.18,0,0,0,1.47-5.16A6.81,6.81,0,0,0,314.81,168.8Z"/><path class="cls-1" d="M333.19,162.66a7,7,0,0,0-5.34-1.28,7.28,7.28,0,0,0-4.55,2.75,7.15,7.15,0,0,0-1.49,5.16,6.82,6.82,0,0,0,6.84,6.12,7.94,7.94,0,0,0,1.18-.1,7.3,7.3,0,0,0,4.56-2.76,7.16,7.16,0,0,0,1.47-5.15A6.86,6.86,0,0,0,333.19,162.66Z"/><path class="cls-1" d="M284.18,168.8a7,7,0,0,0-5.37-1.29,7.32,7.32,0,0,0-4.54,2.76,7.12,7.12,0,0,0-1.47,5.15,6.75,6.75,0,0,0,2.66,4.72,6.89,6.89,0,0,0,4.18,1.39,7.68,7.68,0,0,0,1.17-.09h0a7.31,7.31,0,0,0,6-7.91A6.79,6.79,0,0,0,284.18,168.8Z"/><path class="cls-1" d="M259.67,168.8a7,7,0,0,0-5.36-1.29,7.32,7.32,0,0,0-6,7.92,6.79,6.79,0,0,0,2.67,4.72,7,7,0,0,0,4.17,1.38,7.68,7.68,0,0,0,1.17-.09h0a7.32,7.32,0,0,0,6-7.91A6.76,6.76,0,0,0,259.67,168.8Z"/><path class="cls-1" d="M266.1,177.54a1.76,1.76,0,0,0-1.58,1.48,1.15,1.15,0,0,0,1.24,1.34,1.76,1.76,0,0,0,1.58-1.48A1.15,1.15,0,0,0,266.1,177.54Z"/></g></svg>