<svg xmlns="http://www.w3.org/2000/svg" viewBox="0 0 480 320"><defs><style>.cls-1{fill:#000;}</style></defs><g id="Layer_1" data-name="Layer 1"><path class="cls-1" d="M427.76,185.32q.56,0,1.11,0a17.8,17.8,0,1,0-1.11,0Z"/><path class="cls-1" d="M264.44,180.1a5.55,5.55,0,0,0,3.69,1.4,8.1,8.1,0,0,0,1.8-.24c4.47-1.76,5.38-7.45.64-10.93h-5.16C261.68,173.54,261.86,177.82,264.44,180.1Z"/><path class="cls-1" d="M286.3,180.38h.35a5.6,5.6,0,0,0,5.23-5.93,5.59,5.59,0,0,0-11.16.69A5.61,5.61,0,0,0,286.3,180.38Z"/><path class="cls-1" d="M300.38,179.51h.34a5.59,5.59,0,0,0,3.36-9.77c-2.16-1.9-5.5-2-8.1.46C292.94,174.83,296.19,179.51,300.38,179.51Z"/><path class="cls-1" d="M314.46,178.64c1.82,0,3.64-.83,5.46-4.31a5.6,5.6,0,0,0-5.8-6.86,5.61,5.61,0,0,0-5.24,5.92,5.59,5.59,0,0,0,5.58,5.25Z"/><path class="cls-1" d="M324.84,176.37a5.55,5.55,0,0,0,3.69,1.4,8.57,8.57,0,0,0,1.77-.22,5.74,5.74,0,0,0,3.82-5.71,5.56,5.56,0,0,0-1.88-3.85c-2.1-1.86-5.32-2-7.95.28C322.21,171.17,322.68,174.47,324.84,176.37Z"/><path class="cls-1" d="M466.8,124.42,345.92,93.77,13.2,105.34V180L134,221.77l34.74-1.2c.29,3.28,9.08,5.66,19.89,5.36,11-.31,19.88-3.29,19.87-6.65,0,0,0-.05,0-.07l188-6.47a2.23,2.23,0,0,0-.21.89c0,3.36,8.93,5.83,19.92,5.52s19.89-3.29,19.87-6.65a2.07,2.07,0,0,0-.35-1.1l30.89-1.06ZM130.4,212.58,21.2,173.81V114.33l109.2,27.88ZM45.23,112.24l299.82-10.4,89.57,22.68L134.84,135.11Zm413.36,90.37-320.19,11v-16.3L236.47,194a5.51,5.51,0,0,0,4-1.83,5.91,5.91,0,0,0,1.39-4V161a5.29,5.29,0,0,0-1.59-3.84,5.53,5.53,0,0,0-4-1.5l-97.84,3.64V143l320.36-11.32Z"/></g></svg>