<svg xmlns="http://www.w3.org/2000/svg" viewBox="0 0 480 320"><defs><style>.cls-1{fill:#000;}</style></defs><g id="Layer_1" data-name="Layer 1"><path class="cls-1" d="M457.91,146.23l-6.38-3.59-2.25.24L311.91,73,22.09,98.31l1.11,56.16,103.06,86.88v.43l6.8,5.23,31.18-3.73c1.92,1.22,6.73,3.52,16,3.52,11.89,0,16.46-4.71,16.94-5.25l1-1.14v-1.2L384.39,216.9c1.9,1.22,6.71,3.54,16,3.54,11.88,0,16.45-4.71,16.93-5.25l1-1.14v-1.22l39.13-4.69Zm-23.19-1.78L131.34,177.06l-95-72,274-23.94ZM31.13,150.69l-.8-40.09,96.81,73.31L126.42,231Zm106.22,87.75.79-51.64L449.86,153l-.34,48Z"/><path class="cls-1" d="M341.82,175l-86.49,9.52a2.36,2.36,0,0,0-2.09,2.29l-.51,26.58a2.35,2.35,0,0,0,2.62,2.38L342,205.63a2.35,2.35,0,0,0,2.08-2.3l.34-26A2.34,2.34,0,0,0,341.82,175Z"/><path class="cls-1" d="M161.42,208.07c-5.15-1-10.26,2.94-11.41,8.83s2.09,11.48,7.24,12.48,10.26-2.94,11.41-8.83S166.57,209.07,161.42,208.07Z"/><path class="cls-1" d="M435.14,179.7a7.1,7.1,0,0,0-5.86.21,8.12,8.12,0,0,0-4.09,9.73,7.11,7.11,0,0,0,4,4.33,6.87,6.87,0,0,0,2.66.54,7.78,7.78,0,0,0,7-4.86A7.54,7.54,0,0,0,435.14,179.7Zm-3.1,7.38a1,1,0,0,1-.54-.51,1,1,0,0,1,.74,0,1,1,0,0,1,.54.52A1,1,0,0,1,432,187.08Z"/><path class="cls-1" d="M415.33,182.19a7.53,7.53,0,0,0-9.7,4.32,8,8,0,0,0-.24,5.62,7.13,7.13,0,0,0,3.95,4.33A7,7,0,0,0,412,197a7.3,7.3,0,0,0,3.18-.74,8.12,8.12,0,0,0,4.09-9.73A7.09,7.09,0,0,0,415.33,182.19Zm-3.09,7.38a1,1,0,0,1-.54-.52,1.06,1.06,0,0,1,1.28.54A1,1,0,0,1,412.24,189.57Z"/><path class="cls-1" d="M395,184.6a7.52,7.52,0,0,0-9.7,4.32h0a7.54,7.54,0,0,0,3.71,10,6.94,6.94,0,0,0,2.66.53,7.76,7.76,0,0,0,7-4.86A7.52,7.52,0,0,0,395,184.6Zm-3.68,6.85-2.33-1,2.35.94Zm1.32.55h0a1,1,0,0,1-.74,0,1,1,0,0,1-.54-.52h0s0,0,0-.05l.07,0a1.07,1.07,0,0,1,1.18.47l.11.05A.14.14,0,0,1,392.64,192Z"/><path class="cls-1" d="M374.59,186.71a7.07,7.07,0,0,0-5.86.21,8.1,8.1,0,0,0-4.08,9.73,7.08,7.08,0,0,0,4,4.32,6.77,6.77,0,0,0,2.66.54,7.76,7.76,0,0,0,7-4.86,8,8,0,0,0,.25-5.62A7.1,7.1,0,0,0,374.59,186.71Zm-3.1,7.37a.93.93,0,0,1-.53-.51,1,1,0,0,1,.74,0,1,1,0,0,1,.54.51A1,1,0,0,1,371.49,194.08Z"/></g></svg>