<?xml version="1.0" encoding="UTF-8"?>
<svg id="Layer_1" data-name="Layer 1" xmlns="http://www.w3.org/2000/svg" viewBox="0 0 480 320">
  <defs>
    <style>
      .cls-1 {
        fill: #000;
      }
    </style>
  </defs>
  <path class="cls-1" d="m457.91,146.23l-6.38-3.59-2.25.24-137.37-69.9L22.09,98.31l1.12,56.16,103.06,86.88v.43s6.8,5.23,6.8,5.23l31.18-3.74c1.92,1.23,6.73,3.52,15.96,3.52,11.88,0,16.45-4.71,16.93-5.24l1.02-1.14v-1.2l186.25-22.31c1.89,1.22,6.71,3.54,15.99,3.54,11.88,0,16.45-4.71,16.93-5.24l1.02-1.14v-1.22l39.13-4.69.44-61.91Zm-23.19-1.78l-303.37,32.61L36.32,105.1l274-23.94,124.4,63.29Zm-403.59,6.24l-.8-40.09,96.81,73.31-.73,47.11L31.13,150.69Zm106.22,87.75l.8-51.64,311.72-33.78-.34,48.02-312.18,37.4Z"/>
  <path class="cls-1" d="m341.82,174.96l-86.48,9.52c-1.17.13-2.07,1.11-2.09,2.29l-.51,26.58c-.03,1.42,1.21,2.54,2.62,2.38l86.66-10.09c1.17-.14,2.06-1.12,2.07-2.3l.34-26.01c.02-1.41-1.2-2.52-2.6-2.36Z"/>
  <path class="cls-1" d="m433.55,179.96c-1.37-.58-2.95-.52-4.33.16-1.27.62-2.27,1.7-2.83,3.04-.56,1.34-.63,2.81-.18,4.15.48,1.46,1.55,2.62,2.92,3.2.64.27,1.3.39,1.96.39,2.16,0,4.26-1.36,5.2-3.59,1.22-2.9-.01-6.2-2.74-7.34Z"/>
  <path class="cls-1" d="m418.49,181.8c-2.73-1.14-5.94.29-7.16,3.19-.56,1.34-.63,2.81-.18,4.15.49,1.46,1.55,2.62,2.92,3.2.63.26,1.3.39,1.97.39.8,0,1.61-.18,2.35-.55,1.27-.62,2.27-1.7,2.83-3.04.56-1.34.63-2.81.18-4.15-.48-1.46-1.55-2.62-2.92-3.2Z"/>
  <path class="cls-1" d="m403.42,183.58c-2.73-1.15-5.94.29-7.16,3.19h0c-1.22,2.91.01,6.2,2.74,7.35.64.27,1.3.39,1.96.39,2.16,0,4.26-1.36,5.2-3.59,1.22-2.9-.01-6.2-2.74-7.34Zm-2.71,5.06l-1.72-.72,1.73.69v.03Z"/>
  <path class="cls-1" d="m387.23,185.13c-1.37-.58-2.95-.52-4.33.16-1.27.62-2.27,1.7-2.83,3.04-.56,1.34-.63,2.81-.18,4.15.48,1.46,1.55,2.62,2.92,3.2.64.27,1.3.39,1.96.39,2.16,0,4.26-1.36,5.2-3.58.56-1.34.63-2.81.18-4.15-.48-1.46-1.55-2.62-2.92-3.2Z"/>
  <path class="cls-1" d="m169.95,201.48c-2.4-.95-5.16-.78-7.57.46-2.21,1.14-3.97,3.07-4.96,5.43-.98,2.37-1.1,4.95-.32,7.27.85,2.53,2.71,4.52,5.11,5.47,1.12.44,2.28.63,3.43.61,3.78-.09,7.46-2.56,9.09-6.5.98-2.37,1.1-4.95.32-7.27-.85-2.53-2.71-4.52-5.11-5.47Z"/>
  <path class="cls-1" d="m188.76,208.42c-.47-.19-1.02-.15-1.49.09-.44.22-.78.6-.98,1.07-.19.47-.22.98-.06,1.43.17.5.53.89,1.01,1.08.22.09.45.13.68.12.74-.02,1.47-.51,1.79-1.28.19-.47.22-.98.06-1.43-.17-.5-.53-.89-1.01-1.08Z"/>
  <path class="cls-1" d="m215.96,203.74l-15.93,1.76c-.3.04-.52.29-.53.59l-.14,6.76c0,.36.3.64.66.59l15.98-1.91c.3-.04.52-.3.53-.6l.1-6.62c0-.36-.3-.63-.66-.59Z"/>
</svg>