<svg xmlns="http://www.w3.org/2000/svg" viewBox="0 0 480 320"><defs><style>.cls-1{fill:#000;}</style></defs><g id="Layer_2" data-name="Layer 2"><path class="cls-1" d="M214.3,135.55a3.68,3.68,0,0,0,4.08,3.22l138.78-16.49a3.5,3.5,0,0,0,3.06-3.89l-5.3-44.34a3.29,3.29,0,0,0-3.62-2.88L212,86a3.52,3.52,0,0,0-3.13,3.92Z"/><path class="cls-1" d="M160.34,160.52,139.45,163a2.2,2.2,0,0,0-1.95,2.07l-.51,9.21a1.56,1.56,0,0,0,1.77,1.65l20.72-2.78a1.85,1.85,0,0,0,1.6-1.69l.74-9.52A1.33,1.33,0,0,0,160.34,160.52Z"/><path class="cls-1" d="M415.5,129.23l-18.3,2.18a1.94,1.94,0,0,0-1.71,1.81l-.45,8.07a1.37,1.37,0,0,0,1.56,1.44l18.15-2.43a1.63,1.63,0,0,0,1.4-1.48l.65-8.34A1.16,1.16,0,0,0,415.5,129.23Z"/><ellipse class="cls-1" cx="391.73" cy="78.19" rx="9.71" ry="10.19"/><ellipse class="cls-1" cx="394.47" cy="102.52" rx="9.71" ry="10.19"/><ellipse class="cls-1" cx="416.97" cy="75.76" rx="9.71" ry="10.19"/><ellipse class="cls-1" cx="419.7" cy="100.08" rx="9.71" ry="10.19"/><path class="cls-1" d="M448.18,150.55l-9-3,8.88-.91,7.35-27-9-69.92-162-25.83-.45-.07-5.12.36-.52.43L33.84,46.91l-.94-.51-8.54.73-1,18.16,4.37,46.42,0,.38,3.61,12.4,3.26,2.7-3.56.45-.8,18.3,4.34,45.94,3.14,10.4,81.1,94.21,11.4-1.88v-.31l1.63-.26c2.64.23,5.31.36,8,.36a96.4,96.4,0,0,0,11.46-.69c10.47-1.24,17.25-3.9,21.36-6.19l206.64-33c1.53.08,3.08.12,4.67.12a112.68,112.68,0,0,0,11.41-.6c8.3-.84,14.58-2.55,18.73-5.08l26.26-4.2.73.49,8.73-1.79,6.87-24.64ZM130.53,286.15l.87-15.28,310.51-47.13L438.16,237Zm.46-23.31L129.92,254l9.57-1.31a5,5,0,0,0,4.25-5.67l0-.17a5,5,0,0,0-5.6-4.17l-9.42,1.3-5.31-43.67,312.34-41.77,7.08,57ZM421.15,152.39l-10.21,1.36a20,20,0,0,0,5.19-3Zm-52.67,4a70,70,0,0,0,12.36,1.38l-215,28.75a35.76,35.76,0,0,0,10.2-5.17ZM122.24,188.62v0a79.45,79.45,0,0,0,15,1.75l-17.16,2.29-4-3.31Zm.24-8.38.88-16.68,317.21-38.91-3.91,14.84ZM434.29,58.13l7.11,58.36L123,155.54l-1.63-13.37.26,0L131.94,141a4.87,4.87,0,0,0,4.25-5.36l0-.24a4.85,4.85,0,0,0-5.33-4.29l-10.31,1.11c-.13,0-.25,0-.37.07l-5-41.13ZM279.76,32.46,407.17,52.89l-296,30.6L48.06,53.64ZM31.81,57.08,100.53,91l8.78,69.94-1,16.78-70-57.81-2.71-9.32L31.36,65.14ZM42.49,190.33l-4.22-44.59.27-6.18,70.13,60,8.75,69.32-.57,13L44.91,198.34Z"/></g></svg>