<svg id="Artwork" xmlns="http://www.w3.org/2000/svg" viewBox="0 0 480 320"><defs><style>.cls-1{fill:#000;}</style></defs><path class="cls-1" d="M265.11,136.81l-73.58,11.93a3.63,3.63,0,0,0-3,3.57v61.11a3.62,3.62,0,0,0,3.62,3.61,3.07,3.07,0,0,0,.8-.09l73.58-16.67a3.62,3.62,0,0,0,2.82-3.53V140.38a3.62,3.62,0,0,0-4.2-3.57Zm-3,57-66.34,15V155.39l66.34-10.76Z"/><circle class="cls-1" cx="177.66" cy="190.77" r="5.68" transform="translate(-39.08 45.92) rotate(-13.28)"/><circle class="cls-1" cx="385.55" cy="155.53" r="5.68" transform="translate(-25.42 92.74) rotate(-13.28)"/><circle class="cls-1" cx="385.55" cy="138.52" r="5.68" transform="translate(14.98 313.2) rotate(-45)"/><circle class="cls-1" cx="420.56" cy="148.73" r="5.68" transform="translate(-22.92 100.6) rotate(-13.28)"/><circle class="cls-1" cx="406.06" cy="151.03" r="5.68"/><path class="cls-1" d="M439.24,118.19v-.31c-1-10.33-9.29-18.66-20.74-20.72L316,82h-.13A43.31,43.31,0,0,0,306,82L52.25,110.45a13.34,13.34,0,0,0-11.87,13.27v70.41a14.64,14.64,0,0,0,10.55,14l102.62,29a33,33,0,0,0,9,1.25,32.59,32.59,0,0,0,7.16-.79l269.92-59.94Zm-132.39-29A37.6,37.6,0,0,1,311,89a38.34,38.34,0,0,1,4,.22l102.29,15.1c.46.09.92.19,1.38.31L160.08,138.85l-99.59-22Zm-253.93,112a7.38,7.38,0,0,1-5.31-7V123.72a6.05,6.05,0,0,1,.44-2.25l110,24.34v84.91c-.86-.15-1.7-.34-2.54-.57Zm115.21,29.34a24.68,24.68,0,0,1-2.84.45v-85.5l263.33-34.88A14.13,14.13,0,0,1,432,118.4l.34,53.43Z"/><path class="cls-1" d="M229.93,162.65c12.86-2.16,22.73,5.37,22.82,5.43l4.48-5.68c-.5-.39-12.39-9.59-28.5-6.89-15.94,2.67-26.9,16.87-27.36,17.47l5.76,4.39C207.22,177.24,216.86,164.83,229.93,162.65Z"/><rect class="cls-1" x="221.74" y="179.54" width="27.46" height="7.24" transform="translate(-21 335.54) rotate(-68.59)"/><path class="cls-1" d="M294.8,148.32c-.22-.22-.42-.44-.62-.65-2.75-3-10.66-1.46-13.94-.67l-1.73.42v36.12l2.63-.43c3.3-.54,11.2-2.05,13.48-4.32,4-4,6.05-9.7,5.86-16.4C300.24,154,297,150.58,294.8,148.32Zm-3.38,27.27c-.72.66-4.34,1.75-8.38,2.57V151c3.56-.68,7.06-.83,7.81-.3l.68.72c2,2.07,4.24,4.41,4.42,11.06C296.11,168,294.58,172.42,291.42,175.59Z"/><polygon class="cls-1" points="307.11 172.61 307.05 162.61 317.67 161.07 317.02 156.6 307.02 158.04 306.95 147.76 321.22 145.61 320.55 141.14 302.4 143.88 302.63 178.29 321.5 173.93 320.49 169.52 307.11 172.61"/><path class="cls-1" d="M347.32,174.2c-2.43-.25-5.41-2.12-7.6-3.8,4.35-3,7.48-9.56,7.48-16.71,0-5.11-1.76-9.65-4.82-12.45a10.2,10.2,0,0,0-7.84-2.75c-6.55.6-11.88,8.8-11.88,18.28,0,5.23,1.71,9.84,4.71,12.64a10,10,0,0,0,6.89,2.8h.52c2,1.78,7.16,6,12.07,6.5.44,0,.88.06,1.31.06,5.55,0,10.15-3.52,10.36-3.68l-2.77-3.58S351.6,174.64,347.32,174.2Zm-20.14-17.43c0-7,3.64-13.39,7.78-13.77a3.91,3.91,0,0,1,.49,0,5.71,5.71,0,0,1,3.88,1.61c2.13,1.94,3.35,5.26,3.35,9.11,0,6.92-3.93,13.72-8.08,14a5.51,5.51,0,0,1-4.14-1.57C328.38,164.16,327.18,160.75,327.18,156.77Z"/><polygon class="cls-1" points="365.67 134.63 358.67 146.87 351.62 136.47 347.88 139.01 356.17 151.24 348.01 165.51 351.94 167.76 359 155.41 365.46 164.95 369.21 162.41 361.5 151.03 369.6 136.87 365.67 134.63"/></svg>