<svg id="Artwork" xmlns="http://www.w3.org/2000/svg" viewBox="0 0 480 320"><defs><style>.cls-1{fill:#000;}</style></defs><path class="cls-1" d="M265.11,136.76,191.53,148.7a3.61,3.61,0,0,0-3,3.57v61.1a3.62,3.62,0,0,0,3.62,3.62,3.57,3.57,0,0,0,.8-.09l73.58-16.67a3.62,3.62,0,0,0,2.82-3.53V140.33a3.63,3.63,0,0,0-4.2-3.57Zm-3,57.05-66.34,15V155.35l66.34-10.76Z"/><circle class="cls-1" cx="177.66" cy="190.73" r="5.68" transform="translate(-39.07 45.92) rotate(-13.28)"/><circle class="cls-1" cx="385.55" cy="155.49" r="5.68" transform="translate(-25.41 92.74) rotate(-13.28)"/><circle class="cls-1" cx="385.55" cy="138.47" r="5.68" transform="translate(15.01 313.19) rotate(-45)"/><circle class="cls-1" cx="420.56" cy="148.68" r="5.68" transform="translate(-22.91 100.6) rotate(-13.28)"/><circle class="cls-1" cx="406.06" cy="150.99" r="5.68"/><path class="cls-1" d="M439.24,118.15v-.31c-1-10.33-9.29-18.66-20.74-20.73L316,82l-.13,0A44.51,44.51,0,0,0,306,82L52.25,110.4a13.35,13.35,0,0,0-11.87,13.28v70.4a14.63,14.63,0,0,0,10.55,14l102.62,29a33.23,33.23,0,0,0,16.15.46l269.92-59.94Zm-132.39-29a35.26,35.26,0,0,1,4.11-.23,35.79,35.79,0,0,1,4,.22l102.29,15.1c.46.08.92.19,1.38.3L160.08,138.8l-99.59-22Zm-253.93,112a7.37,7.37,0,0,1-5.31-7v-70.4a6.07,6.07,0,0,1,.44-2.26l110,24.35v84.9a24.52,24.52,0,0,1-2.54-.57Zm115.21,29.34a24.7,24.7,0,0,1-2.84.46V145.41l263.33-34.88a14.16,14.16,0,0,1,3.39,7.83l.34,53.43Z"/><path class="cls-1" d="M229.93,162.6c12.86-2.16,22.73,5.37,22.82,5.44l4.48-5.68c-.5-.4-12.39-9.59-28.5-6.9-15.94,2.67-26.9,16.87-27.36,17.47l5.76,4.39C207.22,177.19,216.86,164.79,229.93,162.6Z"/><rect class="cls-1" x="221.74" y="179.5" width="27.46" height="7.24" transform="translate(-20.95 335.51) rotate(-68.59)"/><path class="cls-1" d="M294.8,148.27c-.22-.22-.42-.43-.62-.65-2.75-3-10.66-1.46-13.94-.66l-1.73.41V183.5l2.63-.44c3.3-.54,11.2-2,13.48-4.32,4-4,6.05-9.69,5.86-16.4C300.24,153.94,297,150.53,294.8,148.27Zm-3.38,27.27c-.72.67-4.34,1.75-8.38,2.58V151c3.56-.68,7.06-.82,7.81-.29l.68.72c2,2.06,4.24,4.41,4.42,11.06C296.11,168,294.58,172.38,291.42,175.54Z"/><polygon class="cls-1" points="307.11 172.57 307.05 162.56 317.67 161.03 317.02 156.55 307.02 158 306.95 147.72 321.22 145.56 320.55 141.09 302.4 143.83 302.63 178.25 321.5 173.88 320.49 169.48 307.11 172.57"/><path class="cls-1" d="M347.32,174.15c-2.43-.25-5.41-2.11-7.6-3.79,4.35-3,7.48-9.57,7.48-16.71,0-5.12-1.76-9.66-4.82-12.46a10.2,10.2,0,0,0-7.84-2.74c-6.55.6-11.88,8.8-11.88,18.28,0,5.22,1.71,9.83,4.71,12.63a10,10,0,0,0,6.89,2.81l.52,0c2,1.78,7.16,6,12.07,6.5a11.62,11.62,0,0,0,1.31.07c5.55,0,10.15-3.52,10.36-3.68l-2.77-3.58S351.6,174.6,347.32,174.15Zm-20.14-17.42c0-7,3.64-13.4,7.78-13.78l.49,0a5.74,5.74,0,0,1,3.88,1.6c2.13,1.95,3.35,5.27,3.35,9.12,0,6.91-3.93,13.71-8.08,14a5.43,5.43,0,0,1-4.14-1.57C328.38,164.11,327.18,160.71,327.18,156.73Z"/><polygon class="cls-1" points="365.67 134.58 358.67 146.82 351.62 136.42 347.88 138.96 356.17 151.19 348.01 165.47 351.94 167.71 359 155.36 365.46 164.9 369.21 162.36 361.5 150.99 369.6 136.82 365.67 134.58"/></svg>