<svg xmlns="http://www.w3.org/2000/svg" viewBox="0 0 480 320"><defs><style>.cls-1{fill:#000;}</style></defs><g id="Calque_1" data-name="Calque 1"><path class="cls-1" d="M457.41,98,283.18,61.19a4,4,0,0,0-4-1.65l-2,.37-25.44-5.38a4,4,0,0,0-1.54,0c-17.79,3.21-52.63,9.35-89.51,15.86C101.81,80.74,35.11,92.5,21.32,95.26a1.68,1.68,0,0,0-.24.07,3,3,0,0,0-.4.12,2.11,2.11,0,0,0-.34.16,2.31,2.31,0,0,0-.35.18l-.34.25a1.59,1.59,0,0,0-.21.15.6.6,0,0,1-.08.08,4.12,4.12,0,0,0-.28.31c-.08.1-.17.2-.25.31l-.06.07a2.53,2.53,0,0,0-.12.23,3.48,3.48,0,0,0-.2.38,2,2,0,0,0-.12.34,2.91,2.91,0,0,0-.12.39c0,.12,0,.24-.06.36s0,.27,0,.41,0,.24,0,.36a2,2,0,0,0,0,.42.41.41,0,0,0,0,.11,61.66,61.66,0,0,0,2.41,7.88s0,.11.07.17l1.63,3.81.28.71h0a1.52,1.52,0,0,0-.2.06,3.74,3.74,0,0,0-.45.12l-.33.13-.39.2-.33.22-.17.11-.15.16a3.57,3.57,0,0,0-.28.27l-.28.35c0,.06-.09.1-.13.16l-.07.14c-.08.13-.14.27-.21.41s-.09.21-.13.32a3.15,3.15,0,0,0-.11.44,1.86,1.86,0,0,0-.07.34,3.62,3.62,0,0,0,0,.47c0,.11,0,.21,0,.32s.05.35.08.52,0,.16,0,.24c2.23,8.34,4.48,15.69,4.51,15.77a3.76,3.76,0,0,0,.62,1.21c.79,1.06,79.41,106.27,96,128.87a4.57,4.57,0,0,0,7.58.51c28.33-8.87,167.46-59.31,183.39-65.3a48.68,48.68,0,0,0,18.83-4.52,18.7,18.7,0,0,0,2.15-1.07c1.83-1,3.39-1.93,4.69-2.74.92-.57,1.74-1.07,2.4-1.42,37.66-12.21,109-38.19,109.75-38.45a4,4,0,0,0,2.41-2.44l3.05-8.72a4,4,0,0,0,1.42-4.48,57.26,57.26,0,0,0,1.19-7.16,3.72,3.72,0,0,0,.12-1.2v-.05a4,4,0,0,0-1.81-3.71l2.48-7.43a4,4,0,0,0,1.35-4.5c0-.07-.07-.13-.1-.2l.94-5.31A4,4,0,0,0,457.41,98ZM127.29,255.71l-1.47-5.26c14.52-4.45,75.09-23,122.91-37.58C203.3,229.27,146.17,249.67,127.29,255.71ZM441,102.73,115.47,197.86,40.31,113.59C66.43,108.5,149.15,92.68,150.08,92.5a3.9,3.9,0,0,0,1.46-.6l2.69-1.79,29.53-5.9h7.41a4.76,4.76,0,0,0,.75-.07l85.14-16.07ZM322.85,186.45a6.59,6.59,0,0,0,1.58.82,21.65,21.65,0,0,1-4.65-.6c-3.47-.71-7.79-1.58-13.19.21-15.43,4.63-157.12,48-182.47,55.72l-1-6.14C160,225.08,246.87,197.33,322.52,173c0,.07,0,.13-.07.2a9.59,9.59,0,0,0-2.47,6.86C320,183.64,321.54,185.51,322.85,186.45Zm-201,31.6c18.81-5.15,98.07-26.84,145.3-39.85l-144,44.63Zm-11.39-13.77,1.77,8.14L59.88,147.55Zm209.2-55.66c-1.58,1.69-3.16,3.95-2.48,7.39a7.61,7.61,0,0,0,1.8,4.92c-.61-.09-1.23-.2-1.89-.31-4.35-.76-9.77-1.7-16.42,0l-.21.06C294,162.64,146.54,203,120,210.27l-1.1-5.07,202.08-59A7.07,7.07,0,0,0,319.68,148.62ZM114.85,235.35l1.43,8.92c-16.15-21.79-43.29-58.18-62.64-84.1Zm229.6-61.84c-3.26,1-6,3.53-8.87,6.3a9.47,9.47,0,0,0,.21-1.95c0-3.44-.91-5-2.7-6.35a5.44,5.44,0,0,0-.8-1.34l-.2-.21c53.32-17.13,99.55-32.07,116.34-37.56-.08.34-.16.65-.22.89-25.34,9.71-61.28,23.7-83.06,32.18C354.16,169.75,346.16,172.86,344.45,173.51Zm102.66-53.19a4,4,0,0,0-3.07,1c-6.62,2.16-18,5.84-31,10,12.33-4.39,24.65-8.77,35.41-12.57L448,120Zm4.32-11.06C415.15,122.08,345.34,147,340.35,149c-2.82,1.09-5.07,3.35-7.45,5.74l0,0a10.22,10.22,0,0,0,.12-1.49c0-3.43-.91-5-2.7-6.34a5.44,5.44,0,0,0-.8-1.34,5.1,5.1,0,0,0-1.89-1.41L451.66,108Zm-289.38-31c36.36-6.41,70.74-12.47,88.77-15.72l5.9,1.25L190.8,76.21h-7.44a4.11,4.11,0,0,0-.78.07l-30.69,6.14a4,4,0,0,0-1.44.6l-2.67,1.78c-9.26,1.77-95.85,18.34-113.66,21.85l-4.34-4.87C52.09,97.63,110.12,87.4,162.05,78.24Zm270.4,69.69,12.37-4.77-.11.34Z"/><path class="cls-1" d="M278.22,136.1c12.92,0,28-2.95,28-11.25s-15.08-11.26-28-11.26-28,3-28,11.26S265.31,136.1,278.22,136.1Zm0-14.51c9.93,0,16.58,1.85,19.15,3.26-2.57,1.4-9.22,3.25-19.15,3.25s-16.57-1.85-19.14-3.25C261.65,123.44,268.3,121.59,278.22,121.59Z"/></g></svg>