<svg xmlns="http://www.w3.org/2000/svg" viewBox="0 0 480 320"><defs><style>.cls-1{fill:#000;}</style></defs><g id="Calque_1" data-name="Calque 1"><path class="cls-1" d="M291.13,70.74l-1.66-.23-1.33,1A5.73,5.73,0,0,0,286,74.47,72.62,72.62,0,0,0,254.32,65c-43.82-2.72-81.95,34.62-85,83.23-1.45,23.47,5.4,46.06,19.29,63.61s33.44,28.15,54.76,29.47c1.53.09,3,.14,4.55.14,1.12,0,2.23,0,3.33-.09-.09.17-.19.33-.26.49L249.11,246l4.39,1.34c.32.09,32.36,9.79,63,15.46a58,58,0,0,0,10.57,1c13.82,0,27.58-4.92,39.62-14.32,20.35-15.89,33.53-42,35.25-69.83,2.3-37.05-16.75-71.69-47.39-86.2C347.22,89.92,301,72.1,291.13,70.74ZM243.91,233.27c-19-1.17-36.42-10.57-49-26.44S176,170.17,177.34,148.68C180,106,212.1,72.81,249.83,72.81c1.33,0,2.66,0,4,.12,39.44,2.44,69.3,40.39,66.56,84.6-1.33,21.49-10.07,41.22-24.61,55.54S262.93,234.44,243.91,233.27Zm150-54.18c-1.56,25.2-13.89,49.73-32.19,64-13.48,10.53-28.64,14.61-43.82,11.79-17.45-3.23-35.4-7.8-47.48-11.09,32.76-7.76,59.1-40.38,63.38-80.69,3.23-30.49-7-60.33-26.17-79.11,16.49,5.74,38.52,14.28,43.45,16.61C378.82,113.73,396,145.27,393.94,179.09Z"/><path class="cls-1" d="M348.08,70c-12.94-7.49-100.24-38.73-134.55-40.85C138.43,24.51,73.75,78.63,69.35,149.79c-2.14,34.51,10.05,67.83,34.32,93.8C127,268.53,158.72,283.83,193.46,287c2.55,2,11.38,4.85,53.27,4.85,47.76,0,67.59-5.9,71.55-7.27l5.31-.12H324l.38-.08c26.4-5.87,47-16.54,61.35-31.72,17-18.07,25.67-43,25.67-74.16C411.38,132.82,388.31,93.3,348.08,70Zm-220.29.46c.47.74,1,1.5,1.45,2.46l.09.16c7.41,13,8.39,38.62,2.44,63.75-9.16,38.62-29.25,61.26-42.33,58.15a12.76,12.76,0,0,1-6.75-4.44A13.16,13.16,0,0,0,84,191a13.62,13.62,0,0,0,3.48.45c6.76,0,14.09-4.92,21-14.22,7.35-9.9,13.65-23.9,17.76-39.41,9-34.16,4.64-62.92-10.22-67.05a125.33,125.33,0,0,1,10-8.22C125,66.11,126.51,68.49,127.79,70.48Zm-37.2,58.58c-1.71,7.72-4.44,12.61-6.1,14.4-.75-2.33-1.16-7.91.55-15.63s4.44-12.61,6.1-14.4C91.89,115.75,92.3,121.34,90.59,129.06ZM84,152.12c2.44,0,5.63-1.38,8.85-6.69a49.5,49.5,0,0,0,5.52-14.64c2.59-11.71,1.94-24.24-5.37-25.86a6.36,6.36,0,0,0-.72-.12c1.94-2.3,3.51-3.15,4.31-3.15l.21,0c.9.2,2.54,2.35,3.33,7.44.89,5.65.44,13.2-1.22,20.7h0c-1.66,7.5-4.44,14.53-7.64,19.28-2.87,4.28-5.26,5.53-6.17,5.33-.51-.11-1.25-.84-1.94-2.37A7.54,7.54,0,0,0,84,152.12Zm-.63,10.12a8.65,8.65,0,0,0,1.89.21c3.1,0,7.74-1.58,12.66-8.89,3.78-5.63,6.9-13.45,8.8-22h0c1.9-8.56,2.37-17,1.32-23.67-1.68-10.73-6.68-13.38-9.51-14a8.75,8.75,0,0,0-2.22-.19,121.92,121.92,0,0,1,10.15-13.27c2-1.35,4.78-2.64,7.29-2,4.18,1.1,7.37,7.57,8.55,17.29,1.37,11.26,0,25.48-3.85,40s-9.7,27.59-16.45,36.7c-5.84,7.87-11.82,11.91-16,10.8-4.42-1.17-7.67-8.17-8.7-18.72q-.21-3.48-.21-7A10.16,10.16,0,0,0,83.4,162.24ZM323,276.42l-125.13,2.85c-34.22-2.16-65.6-16.76-88.37-41.14a121.66,121.66,0,0,1-23.32-35.75c.46.15.93.3,1.41.41a18.66,18.66,0,0,0,4.27.5c18.47,0,38.76-27,47.68-64.59,6.48-27.34,5.21-54.6-3.23-69.48a35.38,35.38,0,0,0-1.8-3.06,11.55,11.55,0,0,1-.86-1.45,4.29,4.29,0,0,1,.42-.95,10.25,10.25,0,0,0,1.07-7.42,132.38,132.38,0,0,1,69.4-19.45q4.22,0,8.48.26c33.42,2.07,118.44,32.5,131,39.8,37.69,21.8,59.31,58.8,59.31,101.49C403.38,232.22,377.09,264.28,323,276.42Z"/><path class="cls-1" d="M265,114.58c-18.19,0-33,17.24-33,38.43s14.8,38.42,33,38.42,33-17.23,33-38.42S283.14,114.58,265,114.58Zm0,68.85c-13.78,0-25-13.65-25-30.42s11.21-30.43,25-30.43,25,13.65,25,30.43S278.73,183.43,265,183.43Z"/></g></svg>