<svg xmlns="http://www.w3.org/2000/svg" viewBox="0 0 480 320"><defs><style>.cls-1{fill:#000;}</style></defs><g id="Calque_1" data-name="Calque 1"><path class="cls-1" d="M463.36,117.77a3.08,3.08,0,0,0-.08-.68.38.38,0,0,0,0-.1,3.09,3.09,0,0,0-.18-.59,2.4,2.4,0,0,0-.11-.23c-.07-.14-.14-.28-.22-.41l-.15-.22a3.37,3.37,0,0,0-.29-.35l-.19-.19a2.83,2.83,0,0,0-.37-.32l-.18-.13a4.65,4.65,0,0,0-.62-.34l-.11,0a4.26,4.26,0,0,0-.54-.17L287.55,72.69a4,4,0,0,0-2.51-.6l-27.32-6.53a3.78,3.78,0,0,0-1.57-.06L20,104a4,4,0,0,0-3.09,2.53,3.82,3.82,0,0,0-.25,1.66,3.93,3.93,0,0,0,0,.84l1.1,8.26a3.92,3.92,0,0,0,.25,1l3.31,8.26a3.79,3.79,0,0,0,.53.94c.84,1.1,84.35,110.82,95.24,125a3.81,3.81,0,0,0,.66.67,4,4,0,0,0,4.41,1.21,4.06,4.06,0,0,0,1.64-1.13c26.64-7.62,177-59.54,184.29-62.13a67.18,67.18,0,0,1,10.69-2.26,35.82,35.82,0,0,0,9.53-2.3l.17-.08c1-.49,1.95-1.07,3-1.7a49.14,49.14,0,0,1,12.8-5.73c19.71-5.47,106.63-35.14,110.32-36.4a4,4,0,0,0,2.39-2.21l4.95-11.56a4,4,0,0,0,.28-1c.19-1.24,1.14-7.57,1.14-10v-.12ZM123.14,245.05c-.58-1.69-1.25-3.68-1.89-5.64L255.07,201C207.66,217.22,141.45,239.58,123.14,245.05Zm196.27-72.74a7.13,7.13,0,0,0,2.84,5.84,6.52,6.52,0,0,0,2.06,1c-2.08.64-3.33.26-5.45-.41a21.69,21.69,0,0,0-14.18-.27c-10.38,3-157,45.06-185.25,53.16-.31-2-.6-4.09-.82-5.74l203.71-62.05a5.93,5.93,0,0,0-.46,1.17C320.3,166.66,318.74,168.89,319.41,172.31Zm-209,52.35c.18,1.5.54,4.25,1,7.1-18.76-24.59-52.81-69.3-71-93.15ZM343,165.87A27.24,27.24,0,0,0,335,171a10,10,0,0,0,.1-1.36c0-3.4-.89-5-2.67-6.29a5.28,5.28,0,0,0-.8-1.32,5,5,0,0,0-.81-.79l124-37.76-.09.63c-28,10.34-66.46,24.78-89.61,33.48C353.37,162,344.91,165.16,343,165.87ZM115.62,218.42,38.79,124c30.28-5.11,115.91-20.14,116.85-20.31a3.85,3.85,0,0,0,1.53-.61l2.64-1.76,29.66-5.82h6.22a3.79,3.79,0,0,0,.67-.06L284.7,80.23l159.41,38.12Zm141-144.9,8.31,2-69.6,12h-6.27a3.94,3.94,0,0,0-.77.07L157.48,93.6a4,4,0,0,0-1.44.59l-2.61,1.74c-9.47,1.66-96.74,17-120.44,20.9l-4.89-6Zm154,75.5c13.67-5.12,27.79-10.39,40.36-15l-.7,1.62C445.22,137.34,429.12,142.82,410.67,149Z"/><path class="cls-1" d="M282.11,128.75c-12.26,0-26.57,2.92-26.57,11.16s14.31,11.15,26.57,11.15,26.57-2.92,26.57-11.15S294.37,128.75,282.11,128.75Zm0,14.31c-9.25,0-15.45-1.79-17.81-3.15,2.36-1.36,8.56-3.16,17.81-3.16s15.45,1.8,17.81,3.16C297.56,141.27,291.36,143.06,282.11,143.06Z"/></g></svg>