<svg xmlns="http://www.w3.org/2000/svg" viewBox="0 0 480 320"><defs><style>.cls-1{fill:#000;}</style></defs><g id="Calque_1" data-name="Calque 1"><path class="cls-1" d="M460,87.49a4,4,0,0,0-1.39-2.3,4,4,0,0,0-2.26-1.39L256.85,42a4.31,4.31,0,0,0-1.19-.07C188.58,48.14,90.78,63.25,23.12,77.83a4,4,0,0,0-3,4.85L25,102.79a4,4,0,0,0,.56,1.28l2.15,3.22a2.48,2.48,0,0,0-.18.31l-.14.29c-.06.16-.12.32-.17.49s-.05.21-.08.32a4.35,4.35,0,0,0-.06.52c0,.1,0,.2,0,.31a4.34,4.34,0,0,0,.06.62.88.88,0,0,1,0,.17l0,.1h0l4.32,19.47a3.83,3.83,0,0,0,.47,1.17l10.32,17.39a4,4,0,0,0,.61.79l1.92,1.91L99.51,231.1l.4,2.39a4.07,4.07,0,0,0,.65,1.6l20.11,29.35a4,4,0,0,0,2.66,1.69c1.35,2.14,3.75,5.84,6.64,9.81a3.69,3.69,0,0,0,.69.73,4,4,0,0,0,3.08,1.46,3.35,3.35,0,0,0,.63-.05,4,4,0,0,0,2.78-1.87C258.58,221.8,346,183.45,445.39,149.11A4,4,0,0,0,448,146l1-5.52a3.94,3.94,0,0,0,.57-3.22L452,123.44a4,4,0,0,0-1.17-6.09l.85-.25a4,4,0,0,0,2.82-3.09l1.19-6.21a4,4,0,0,0,.91-3.77c0-.11-.09-.21-.13-.32L458.94,91A4,4,0,0,0,460,87.49ZM136.76,267.61l-1.07-6.79c36.05-14.33,175.1-69.64,182.2-72.67a9,9,0,0,1,.93.35C263.36,211.2,205.49,236.83,136.76,267.61ZM322.8,181a6.56,6.56,0,0,0,2.81,1.14,7,7,0,0,1-3.34-.82c-1.82-.77-4.57-1.92-7.63-.42-3.83,1.69-116.75,46.63-180.24,71.88l-1.61-10.14,2.9-1.2c33-13.67,109-45.13,186.84-73.89,0,.16-.11.3-.16.46a9.45,9.45,0,0,0-2.4,6.71C320,178.17,321.51,180,322.8,181ZM132.63,234l-2.44,1-2.76-3.69h0a1.66,1.66,0,0,0,.21-.06,3.52,3.52,0,0,0,.43-.13L156.91,220c92.23-35.64,147.55-57,215.13-78.74C278,173.81,173.1,217.24,132.63,234ZM341,143.05c2.16-2.19,5.43-4.43,12.25-6.36,4.42-1.11,26.16-7.05,52.31-14.28C382.52,129.42,361.51,136.15,341,143.05ZM154,212.54,129.66,222l-1.32-6.51c24.24-8.41,183.86-63.79,189.83-65.78a5.08,5.08,0,0,1,3.51,0C272.72,166.67,224,185.51,154,212.54Zm172-72.35a6.82,6.82,0,0,0,4,1.24,8.33,8.33,0,0,0,2.07-.26c-1.17,1.49-1.79,2.16-2.92,2.54l-.14,0c-.4.15-.9,0-2.43-.69-2.39-1.06-6-2.66-11-1-6,2-160.88,55.73-188.91,65.45l-3-14.83c17.19-6,111.07-38.59,202.08-66-.05.17-.12.32-.16.49a9.41,9.41,0,0,0-2.41,6.71C323.23,137.41,324.77,139.26,326.06,140.19ZM115.21,191l4.43,21.83-1.31-1.56a4,4,0,0,0-3.06-1.42h-.2c-4.37-5.53-11.66-14.75-13.58-17a17.81,17.81,0,0,1-2.27-4.39,20.64,20.64,0,0,0-3.73-6.53c-3.85-5.12-42.93-54.83-51-65.08a4,4,0,0,0-2.61-1.5L37.15,109a3.92,3.92,0,0,0-1-2.23,4,4,0,0,0-.68-2.21l-2.87-4.3-1.06-4.38C49.66,116.61,88.57,161.06,115.21,191Zm326.58-55.58c-30,10.31-57.38,19.89-75.66,26.3-14.43,5-24.85,8.7-26.41,9.15a11.49,11.49,0,0,0-4.18,2.44c0-.25,0-.51,0-.77,0-3.35-.92-4.94-2.65-6.25a5,5,0,0,0-.79-1.3,4.45,4.45,0,0,0-.73-.71c38.93-14.25,77.94-27.62,111.92-37.58Zm-88.28,39.19q-6.66,2.63-13.34,5.29a6.59,6.59,0,0,1,1.75-1.34C343,178.21,346.68,177,353.51,174.57Zm95.16-72.46c-45,12.6-91.44,25.34-97.41,26.84a.2.2,0,0,0-.11,0,38.74,38.74,0,0,0-12.83,5.82,9.53,9.53,0,0,0,.52-3.06c0-3.35-.92-4.94-2.65-6.25a5,5,0,0,0-.79-1.3,2.16,2.16,0,0,0-.25-.27c42.29-12.58,83.36-23.79,115.16-30.42ZM255.8,49.91,437.66,88.06c-105.81,23.84-292.88,88.8-316.84,97.17C91,151.73,46,100.29,31.91,84.14,98.7,70.15,191.33,56,255.8,49.91ZM107.66,231.3l-.4-2.39a4,4,0,0,0-.65-1.6l-55.43-81a3.75,3.75,0,0,0-.47-.57l-1.82-1.82-9.75-16.41-.18-.84,85.41,113.89,2.73,17.16a4.2,4.2,0,0,0-.06.72,3.8,3.8,0,0,0-1-.25Z"/><path class="cls-1" d="M186.54,82.16l.11,0c.49.2,49.19,19.14,73.93,28.82a48.5,48.5,0,0,0,16.81,2.65c11,0,22.12-2.68,27-6.66,3.16-2.56,3.25-5.3,3-6.71-.71-4.45-5.89-6.43-7.53-7.06C294,90.88,234.31,72,220.27,67.59l-.18,0c-5.37-1.41-14.76-1.14-21.17-.48-16,1.64-17.33,5.4-17.88,7C180.4,76,180.26,79.5,186.54,82.16ZM297,101.85c-2.58,1.16-8.13,2.52-16,2.52s-13.4-1.36-16-2.52c2.57-1.16,8.13-2.53,16-2.53S294.43,100.69,297,101.85ZM218,75.26c11.83,3.7,34.73,10.95,52.91,16.8-7.54,1.17-14,3.81-14.93,8.56C234.38,92.19,203,80,192.83,76,200,74.61,212.54,73.87,218,75.26Z"/></g></svg>