<svg xmlns="http://www.w3.org/2000/svg" viewBox="0 0 480 320"><defs><style>.cls-1{fill:#000;}</style></defs><g id="Layer_5" data-name="Layer 5"><path class="cls-1" d="M331.21,119.65c-2.74,5.85-3.33,11.5-2,18.91a39,39,0,0,0,7.81,17c3.39,4.14,9.15,9.08,17.37,9.08,7,0,12.95-4.08,16.29-11.18,2.74-5.83,3.33-11.49,2-18.92a39.16,39.16,0,0,0-7.81-17c-3.39-4.15-9.15-9.08-17.37-9.08C340.46,108.47,334.52,112.55,331.21,119.65Zm16.3-5c5.92,0,16.35,5.71,19.13,21,1.1,6.07.65,10.62-1.5,15.21-2.28,4.86-6.19,7.65-10.73,7.65-5.93,0-16.37-5.72-19.14-21.06-1.1-6.06-.65-10.61,1.5-15.21C339,117.4,343,114.61,347.51,114.61Z"/><path class="cls-1" d="M184.42,186.72c5,6.39,11.37,9.91,18.07,9.91a19.86,19.86,0,0,0,5.93-.91c10.15-3.16,15.35-12.83,17.55-18.31a50.25,50.25,0,0,0,3.31-24.32c-.93-9.74-3.49-16.69-8.55-23.23-6.54-8.43-15.28-11.71-24-9-10.14,3.16-15.35,12.83-17.55,18.31a50.27,50.27,0,0,0-3.3,24.33C176.79,173.23,179.35,180.17,184.42,186.72Zm1.34-44.91c1.73-4.31,5.73-11.88,13.07-14.17a12.86,12.86,0,0,1,3.8-.59c4.47,0,8.91,2.55,12.48,7.16,4.19,5.4,6.31,11.25,7.1,19.55a43.43,43.43,0,0,1-2.83,21c-1.73,4.31-5.73,11.88-13.07,14.17-5.81,1.8-11.59-.53-16.28-6.57-4.18-5.4-6.31-11.25-7.09-19.55A43.32,43.32,0,0,1,185.76,141.81Z"/><path class="cls-1" d="M388.81,109.06c-16.72-36.38-40.71-60.4-71.32-71.39-61.15-22-134.4,13.46-169.6,30.49L142,71a120,120,0,0,0-49.72,43.61c-13,20.37-18.54,42.66-16.57,66.23C79,220.92,94.13,248,106.2,263.61A67,67,0,0,0,159,289.36h.35l131.12-.67a55.23,55.23,0,0,0,17-2.75c20.26-6.68,69.48-27.08,89.05-72C409.58,183.9,407,148.62,388.81,109.06ZM321.87,64.77c-.51-1-.92-1.86-1.24-2.55A18.35,18.35,0,0,1,324.9,64a23.8,23.8,0,0,1,5.84,5.16c1.13,1.22,2.4,2.6,3.82,3.86,4.08,3.62,8.61,6.07,13,8.45,1.89,1,3.82,2.08,5.67,3.21a38.15,38.15,0,0,0-12.43-2c-13.69,0-25.26,8-31.76,21.89-5.45,11.66-6.62,23-3.93,37.83a78.7,78.7,0,0,0,15.72,34.23c6.71,8.21,18.11,18,34.26,18a32.57,32.57,0,0,0,23.57-10,41.25,41.25,0,0,1-3.77,5.16c-10.13,11.71-25,15-39.91,8.7-12.76-5.37-24-16.85-31.77-32.33-7.59-15.2-10.28-29.24-8.69-45.52,1.67-17.33,9.3-31.27,20.92-38.26l1-.57c3.05-1.73,7.65-4.34,7.53-11.2C323.93,68.84,323.07,67.14,321.87,64.77Zm60.69,71.53c2.37,13,1.39,22.86-3.28,32.8-5.09,10.85-13.91,17.08-24.18,17.08-13,0-35.77-12.32-41.75-45.36C311,127.8,312,118,316.63,108,321.69,97.18,330.51,91,340.81,91,353.77,91,376.56,103.26,382.56,136.3Zm-189.85-53a33.62,33.62,0,0,1,10-1.55c11.64,0,23,6.45,32.12,18.15,10.21,13.19,15.38,27.38,17.29,47.45,1.76,18.53-.41,34.62-6.83,50.63-4.28,10.67-14.24,29.43-32.85,35.22-15,4.66-30.33-1.39-42.12-16.61-10.21-13.18-15.39-27.37-17.3-47.44-1.76-18.52.41-34.61,6.84-50.64C164.14,107.89,174.1,89.13,192.71,83.34Zm-40.79,32c-6.95,17.34-9.31,34.69-7.41,54.63,2.07,21.8,7.77,37.32,19,51.87,8,10.38,17.79,17.26,28.19,20.06l-22.1,6.88q-3.54,1.09-7.08,2.22c-4.65,1.46-9.46,3-14.3,4.42a32.32,32.32,0,0,1-19,.18c-12.7-3.55-23.1-13-30.9-28.1a110.62,110.62,0,0,1-11.11-38.36c-3.57-37.47,10-65,23.92-78.23,8.93-8.51,19.55-11.56,30.79-14.8,2.26-.64,4.81-1.38,7.3-2.15l20.57-6.4C160.59,96.58,155,107.79,151.92,115.37Zm237.25,95.36c-18.28,42-65,61.27-84.22,67.61a47.36,47.36,0,0,1-14.55,2.35l-131.13.67H159a58.94,58.94,0,0,1-46.44-22.64c-.85-1.1-1.71-2.27-2.59-3.49a49.64,49.64,0,0,0,17,8.64,40.71,40.71,0,0,0,23.8-.22c4.74-1.42,9.54-2.93,14.17-4.39l.76-.24c2.18-.68,4.35-1.37,6.53-2l42.15-13.11h0c23.5-7.31,35.36-31.39,39.37-41.4,7.15-17.85,9.57-35.71,7.62-56.22-2.13-22.46-8-38.44-19.6-53.43-14.29-18.45-34.06-26-52.88-20.11h0L146.69,85.82c-2.44.75-4.92,1.47-7.12,2.1-6.7,1.93-13.2,3.81-19.42,6.72a115.43,115.43,0,0,1,25.28-16.41l5.95-2.87C178,62.46,227.17,38.7,275,38.7a117.11,117.11,0,0,1,39.78,6.5c18.48,6.63,34.41,18.47,47.63,35.33-.61-.46-1.22-.91-1.85-1.35a96.3,96.3,0,0,0-8.94-5.28c-4-2.14-8.05-4.35-11.39-7.32-1.08-1-2.1-2.06-3.2-3.25a31.62,31.62,0,0,0-8-6.87c-2.9-1.6-8.43-4.05-12.79-2.53a7.34,7.34,0,0,0-4.4,4.14c-1.34,3.17.48,6.76,2.42,10.58.31.63.92,1.84,1.16,2.42,0,1.31-.48,1.69-3.21,3.24l-1.55.89,0,0C296.89,83.71,287.93,99.9,286,119.75c-1.75,18,1.2,33.44,9.56,50.17,8.64,17.29,21.46,30.22,36.1,36.39a46.71,46.71,0,0,0,18.2,3.84c12,0,23.22-5.27,31.5-14.83,9.78-11.3,13.42-24.61,14.33-36.34C398.16,177.78,396,195.08,389.17,210.73Z"/></g></svg>