<?xml version="1.0" encoding="utf-8"?>
<!-- Generator: Adobe Illustrator 25.1.0, SVG Export Plug-In . SVG Version: 6.00 Build 0)  -->
<svg version="1.1" id="Layer_1" xmlns="http://www.w3.org/2000/svg" xmlns:xlink="http://www.w3.org/1999/xlink" x="0px" y="0px"
	 viewBox="0 0 480 320" style="enable-background:new 0 0 480 320;" xml:space="preserve">
<style type="text/css">
	.st0{fill:#000FFF;}
</style>
<g id="Layer_5">
	<path class="st0" d="M312.5,128.3c-2.2,4.6-2.6,9.1-1.6,15c0.9,4.9,3.1,9.6,6.2,13.5c2.7,3.3,7.3,7.2,13.8,7.2
		c5.6,0,10.3-3.2,12.9-8.9c2.2-4.6,2.6-9.1,1.6-15c-0.9-4.9-3.1-9.6-6.2-13.5c-2.7-3.3-7.3-7.2-13.8-7.2
		C319.8,119.4,315.1,122.7,312.5,128.3z M325.4,124.3c4.7,0,13,4.5,15.2,16.7c0.9,4.8,0.5,8.4-1.2,12.1c-1.8,3.9-4.9,6.1-8.5,6.1
		c-4.7,0-13-4.5-15.2-16.7c-0.9-4.8-0.5-8.4,1.2-12.1C318.7,126.5,321.8,124.3,325.4,124.3L325.4,124.3z"/>
	<path class="st0" d="M195.8,181.6c4,5.1,9,7.9,14.4,7.9c1.6,0,3.2-0.2,4.7-0.7c8.1-2.5,12.2-10.2,13.9-14.5
		c2.5-6.1,3.4-12.8,2.6-19.3c-0.7-7.7-2.8-13.3-6.8-18.5c-5.2-6.7-12.1-9.3-19.1-7.2c-8.1,2.5-12.2,10.2-13.9,14.5
		c-2.5,6.1-3.4,12.8-2.6,19.3C189.8,170.9,191.8,176.4,195.8,181.6z M196.9,145.9c1.4-3.4,4.6-9.4,10.4-11.3c1-0.3,2-0.5,3-0.5
		c3.6,0,7.1,2,9.9,5.7c3.3,4.3,5,8.9,5.6,15.5c0.6,5.7-0.1,11.4-2.2,16.7c-1.4,3.4-4.6,9.4-10.4,11.3c-4.6,1.4-9.2-0.4-12.9-5.2
		c-3.3-4.3-5-8.9-5.6-15.5C194,157,194.8,151.2,196.9,145.9z"/>
	<path class="st0" d="M358.2,119.9c-13.3-28.9-32.3-48-56.7-56.7C253,45.7,194.8,73.9,166.8,87.4l-4.7,2.3
		c-16.2,7.6-29.8,19.6-39.5,34.7c-10.3,16.2-14.7,33.9-13.2,52.6c2.6,31.8,14.6,53.4,24.2,65.8c10.1,12.9,25.6,20.5,42,20.5h0.3
		l104.2-0.5c4.6,0,9.1-0.8,13.5-2.2c16.1-5.3,55.2-21.5,70.8-57.2C374.7,179.4,372.7,151.3,358.2,119.9z M305,84.7
		c-0.4-0.8-0.7-1.5-1-2c1.2,0.3,2.3,0.8,3.4,1.4c1.8,1.1,3.3,2.5,4.6,4.1c0.9,1,1.9,2.1,3,3.1c3.2,2.9,6.8,4.8,10.3,6.7
		c1.5,0.8,3,1.7,4.5,2.6c-3.2-1.1-6.5-1.6-9.9-1.6c-10.9,0-20.1,6.4-25.2,17.4c-4.3,9.3-5.3,18.3-3.1,30.1
		c1.9,9.9,6.2,19.3,12.5,27.2c5.3,6.5,14.4,14.3,27.2,14.3c7.1,0,13.8-2.9,18.7-7.9c-0.9,1.4-1.9,2.8-3,4.1
		c-8,9.3-19.9,11.9-31.7,6.9c-10.1-4.3-19.1-13.4-25.2-25.7c-6-12.1-8.2-23.2-6.9-36.2c1.3-13.8,7.4-24.8,16.6-30.4l0.8-0.5
		c2.4-1.4,6.1-3.4,6-8.9C306.7,87.9,306,86.6,305,84.7z M353.3,141.5c1.9,10.3,1.1,18.2-2.6,26.1c-4,8.6-11.1,13.6-19.2,13.6
		c-10.3,0-28.4-9.8-33.2-36c-1.9-10.3-1.1-18.1,2.6-26.1c4-8.6,11-13.5,19.2-13.5C330.4,105.6,348.5,115.3,353.3,141.5L353.3,141.5z
		 M202.4,99.4c2.6-0.8,5.3-1.2,7.9-1.2c9.2,0,18.3,5.1,25.5,14.4c8.1,10.5,12.2,21.8,13.7,37.7c1.4,14.7-0.3,27.5-5.4,40.2
		c-3.4,8.5-11.3,23.4-26.1,28c-11.9,3.7-24.1-1.1-33.5-13.2c-8.1-10.5-12.2-21.7-13.7-37.7c-1.4-14.7,0.3-27.5,5.4-40.2
		C179.7,119,187.6,104.1,202.4,99.4L202.4,99.4z M170,124.9c-5.5,13.8-7.4,27.6-5.9,43.4c1.6,17.3,6.2,29.7,15.1,41.2
		c6.4,8.2,14.1,13.7,22.4,15.9l-17.6,5.5c-1.9,0.6-3.8,1.2-5.6,1.8c-3.7,1.2-7.5,2.4-11.4,3.5c-4.9,1.6-10.2,1.6-15.1,0.1
		c-10.1-2.8-18.4-10.3-24.6-22.3c-4.8-9.5-7.8-19.9-8.8-30.5c-2.8-29.8,7.9-51.6,19-62.2c7.1-6.8,15.5-9.2,24.5-11.8
		c1.8-0.5,3.8-1.1,5.8-1.7l16.3-5.1C176.9,110,172.5,118.9,170,124.9L170,124.9z M358.5,200.6c-14.5,33.4-51.6,48.7-66.9,53.7
		c-3.7,1.2-7.6,1.9-11.6,1.9l-104.2,0.5h-0.2c-14.4,0-28-6.6-36.9-18c-0.7-0.9-1.4-1.8-2.1-2.8c4,3.1,8.6,5.5,13.5,6.9
		c6.2,1.8,12.8,1.8,18.9-0.2c3.8-1.1,7.6-2.3,11.3-3.5l0.6-0.2c1.7-0.5,3.5-1.1,5.2-1.6l33.5-10.4l0,0c18.7-5.8,28.1-24.9,31.3-32.9
		c5.7-14.2,7.6-28.4,6.1-44.7c-1.7-17.8-6.4-30.5-15.6-42.5c-11.4-14.7-27.1-20.7-42-16l0,0l-33.5,10.4c-1.9,0.6-3.9,1.2-5.7,1.7
		c-5.3,1.5-10.5,3-15.4,5.3c6.1-5.2,12.8-9.6,20.1-13l4.7-2.3C190.7,82.9,229.8,64,267.8,64c10.8-0.1,21.4,1.6,31.6,5.2
		c14.7,5.3,27.3,14.7,37.8,28.1c-0.5-0.4-1-0.7-1.5-1.1c-2.3-1.5-4.7-2.9-7.1-4.2c-3.2-1.7-6.4-3.5-9-5.8c-0.9-0.8-1.7-1.6-2.5-2.6
		c-1.8-2.2-3.9-4-6.4-5.5c-2.3-1.3-6.7-3.2-10.2-2c-1.6,0.5-2.9,1.7-3.5,3.3c-1.1,2.5,0.4,5.4,1.9,8.4c0.2,0.5,0.7,1.5,0.9,1.9
		c0,1-0.4,1.3-2.6,2.6l-1.2,0.7l0,0c-10.9,6.8-18.1,19.6-19.6,35.4c-1.4,14.3,1,26.6,7.6,39.9c6.9,13.7,17.1,24,28.7,28.9
		c4.6,2,9.5,3,14.5,3.1c9.5,0,18.4-4.2,25-11.8c7.8-9,10.7-19.6,11.4-28.9C365.7,174.5,363.9,188.3,358.5,200.6L358.5,200.6z"/>
</g>
</svg>
