<svg xmlns="http://www.w3.org/2000/svg" viewBox="0 0 480 320"><defs><style>.cls-1{fill:#000;}</style></defs><g id="Calque_1" data-name="Calque 1"><path class="cls-1" d="M460.17,110.81a5.72,5.72,0,0,0-3.65-3.69L256.87,65.24a3.66,3.66,0,0,0-1.19-.07c-67.15,6.26-165,21.39-232.76,36A4,4,0,0,0,19.87,106l4.9,20.13a4,4,0,0,0,.56,1.27l2.59,3.89v1a4,4,0,0,0,.8,2.4l8.16,10.88a4,4,0,0,0,2.75,1.57c19.75,25.12,48.1,61.24,49.34,63a4.92,4.92,0,0,0,.5.61,13.86,13.86,0,0,1,2.22,4.16,24,24,0,0,0,3.52,6.45c2.66,3.19,16.66,21,16.8,21.13a4,4,0,0,0,3.54,1.51l8,9.47,0,0a4.33,4.33,0,0,0,.58.55l.16.11a4,4,0,0,0,.52.31l.22.1a3.69,3.69,0,0,0,.56.19l.2,0a4.16,4.16,0,0,0,.79.09h.05a3.51,3.51,0,0,0,.72-.07h0l.22-.07.43-.12,28.83-11.14c125.41-48.46,182.64-70.58,295.06-103a4,4,0,0,0,2.82-3.09l1.19-6.22a4,4,0,0,0,.91-3.77c0-.11-.08-.21-.12-.32l2.43-12.72A4,4,0,0,0,460.17,110.81ZM123.61,216.11c17.19-6,111.17-38.63,202.28-66-.06.16-.12.32-.17.49a9.45,9.45,0,0,0-2.41,6.72c0,3.5,1.54,5.35,2.84,6.28a6.81,6.81,0,0,0,4,1.24,9,9,0,0,0,2.09-.26c-1.18,1.49-1.8,2.17-2.94,2.54l-.14,0c-.39.15-.9,0-2.43-.7-2.39-1.05-6-2.65-11-1-6,2-161,55.79-189.09,65.52Zm325.26-90.66c-45,12.61-91.53,25.37-97.5,26.86l-.12,0a39,39,0,0,0-12.84,5.83,9.5,9.5,0,0,0,.52-3.07c0-3.35-.92-4.94-2.65-6.25a5,5,0,0,0-.79-1.3c-.08-.1-.17-.19-.25-.28,42.33-12.59,83.44-23.81,115.28-30.45ZM406,145.68c-23.2,7-44.33,13.81-64.93,20.76,2.15-2.2,5.43-4.45,12.27-6.38C357.81,158.94,379.72,153,406,145.68ZM255.82,73.19l182,38.2C332,135.24,144.69,200.27,120.71,208.65c-29.88-33.54-74.89-85-89-101.19C98.56,93.45,191.28,79.24,255.82,73.19ZM115.15,233.25H115c-4.37-5.53-11.68-14.76-13.59-17.06a17.4,17.4,0,0,1-2.28-4.38,20.57,20.57,0,0,0-3.73-6.54c-3.86-5.13-43-54.89-51-65.15a4,4,0,0,0-2.61-1.49l-5.78-7.71v-.84a4.07,4.07,0,0,0-.67-2.22l-2.88-4.31-1.07-4.39c18.17,20.78,57.12,65.28,83.79,95.22l4.44,21.86-1.32-1.56A4,4,0,0,0,115.15,233.25ZM154,236l-24.42,9.43-1.32-6.53c24.25-8.42,184-63.85,190-65.84a5.14,5.14,0,0,1,3.53,0C272.77,190.07,224,208.93,154,236Z"/><path class="cls-1" d="M186.49,105.48l.11,0c.49.19,49.24,19.15,74,28.84A48.36,48.36,0,0,0,277.42,137c11,0,22.14-2.69,27.05-6.67,3.16-2.57,3.25-5.31,3-6.71-.71-4.46-5.89-6.44-7.53-7.07-5.9-2.36-65.67-21.28-79.72-25.67l-.18-.05c-5.37-1.42-14.77-1.15-21.19-.49-16.06,1.65-17.34,5.41-17.89,7C180.35,99.26,180.21,102.82,186.49,105.48Zm110.58,19.7c-2.57,1.16-8.13,2.53-16,2.53s-13.42-1.37-16-2.53c2.58-1.16,8.14-2.52,16-2.52S294.5,124,297.07,125.18ZM218,98.57c11.85,3.7,34.78,11,53,16.82-7.56,1.17-14,3.81-15,8.57-21.61-8.44-53.07-20.68-63.21-24.62C199.9,97.91,212.51,97.17,218,98.57Z"/></g></svg>