<svg xmlns="http://www.w3.org/2000/svg" viewBox="0 0 480 320"><defs><style>.cls-1{fill:#000;}</style></defs><g id="Calque_1" data-name="Calque 1"><path class="cls-1" d="M457.33,111.45a5.64,5.64,0,0,0-3.64-3.68l-197-41.34a4,4,0,0,0-1.19-.07C189.2,72.54,92.59,87.47,25.75,101.87a4,4,0,0,0-3,4.85l4.83,19.87a4,4,0,0,0,.56,1.27l2.55,3.82v.94a4,4,0,0,0,.8,2.4l8.05,10.74a4,4,0,0,0,2.73,1.57c19.49,24.78,47.45,60.41,48.68,62.13a4.28,4.28,0,0,0,.5.61,13.61,13.61,0,0,1,2.18,4.09,23.52,23.52,0,0,0,3.48,6.38c2.62,3.15,16.44,20.68,16.58,20.86a4,4,0,0,0,3.52,1.5l7.83,9.33,0,0a4.33,4.33,0,0,0,.58.55l.16.11a4.63,4.63,0,0,0,.51.31l.23.1a3.69,3.69,0,0,0,.56.19l.2,0a4.16,4.16,0,0,0,.79.09h.05a3.51,3.51,0,0,0,.72-.07h0l.21-.07c.15,0,.29-.07.43-.12l28.45-11c123.76-47.83,180.25-69.66,291.2-101.64a4,4,0,0,0,2.82-3.09l1.17-6.13a4,4,0,0,0,.9-3.76c0-.11-.09-.2-.12-.3l2.4-12.53A4,4,0,0,0,457.33,111.45Zm-332.13,104c17.08-6,109.67-38.11,199.48-65.13,0,.13-.1.25-.13.38a9.37,9.37,0,0,0-2.38,6.66c0,3.47,1.53,5.31,2.82,6.24a6.72,6.72,0,0,0,4,1.23,8.62,8.62,0,0,0,1.93-.23c-1.1,1.39-1.7,2-2.79,2.38L328,167c-.37.14-.89,0-2.36-.69-2.37-1-5.95-2.63-10.92-1-5.93,2-158.73,55-186.55,64.64Zm320.88-89.55c-44.43,12.45-90.3,25-96.19,26.5l-.11,0a38.69,38.69,0,0,0-12.57,5.68,9.42,9.42,0,0,0,.47-2.9c0-3.32-.91-4.9-2.62-6.2a5,5,0,0,0-.78-1.29,2,2,0,0,0-.2-.21c41.72-12.41,82.22-23.47,113.61-30ZM400,147c-21.31,6.51-40.89,12.8-60,19.24,2.12-2.11,5.36-4.27,11.93-6.12C356.05,159.06,375.76,153.68,400,147ZM255.61,74.38,435,112C330.51,135.6,146.08,199.64,122.29,208c-29.45-33-73.76-83.75-87.75-99.77C100.5,94.36,192,80.35,255.61,74.38ZM116.79,232.24h-.18c-4.31-5.47-11.5-14.55-13.39-16.82a17.34,17.34,0,0,1-2.24-4.31,20.33,20.33,0,0,0-3.69-6.47c-3.83-5.09-42.41-54.17-50.37-64.29a4,4,0,0,0-2.59-1.49l-5.68-7.57v-.82a4.07,4.07,0,0,0-.67-2.22L35.15,124l-1-4.12c18,20.58,56.29,64.34,82.54,93.8L121,235.05l-1.17-1.39A4,4,0,0,0,116.79,232.24Zm38.27,2.7-24,9.28-1.29-6.34c24.08-8.35,181.59-63,187.48-65a5,5,0,0,1,3.3,0C272.22,189.66,224.09,208.26,155.06,234.94Z"/><path class="cls-1" d="M187.17,106.24l.11,0c.48.19,48.6,18.9,73,28.47a48,48,0,0,0,16.58,2.6c13.31,0,27.12-4,29.43-10,.75-2,1.55-6.89-7.12-10.21-5.82-2.32-64.8-21-78.68-25.33l-.17-.05c-5.31-1.4-14.6-1.14-20.93-.49-5.16.53-15.89,1.64-17.7,7C181.07,100.06,180.93,103.6,187.17,106.24Zm109,19.4c-2.58,1.13-8,2.44-15.66,2.44s-13.08-1.31-15.65-2.44c2.57-1.13,8-2.44,15.65-2.44S293.61,124.51,296.19,125.64Zm-78-26.22c11.65,3.65,34.16,10.77,52.08,16.54-7.35,1.17-13.61,3.76-14.58,8.4-21.28-8.31-52.19-20.34-62.26-24.25C200.79,98.67,213.62,98.25,218.23,99.42Z"/></g></svg>