<svg xmlns="http://www.w3.org/2000/svg" viewBox="0 0 480 320"><defs><style>.cls-1{fill:#000;}</style></defs><g id="Layer_4" data-name="Layer 4"><path class="cls-1" d="M331.81,242.76V68.38c0-7.87-3.83-10.59-5.72-11.45-3.83-2.69-36.44-25.65-43.51-31.81-10.26-8.93-23.08-6.79-24.94-6.41-10,1.3-91.11,11.94-96,13.17-5.69,1.42-11,4.17-11,14.55V263c.29,12.5,2.75,15.22,10.51,17.52.54.16,1.11.33,1.72.53l.32.1.33.05s56.63,8.13,87.2,12.5a74.51,74.51,0,0,0,10.34.77,43.85,43.85,0,0,0,18.25-3.53,23.64,23.64,0,0,0,8.34-6c3.93-3.08,38.17-30,40.42-31.67C331.91,250.42,331.84,245.44,331.81,242.76Zm-80,43C222.63,281.59,169.59,274,165,273.31l-1.55-.47c-4.24-1.26-4.59-1.36-4.8-10V46.43c0-5.56,1.54-6,4.9-6.79,3.54-.87,58.92-8.26,95.28-13l.34-.06c.1,0,10-2.06,17.7,4.22V283.27C272.49,285.48,264.7,287.6,251.85,285.77Zm71.42-38.88c-2.11,1.58-29.8,23.33-38.42,30.1V37.09c13.07,9.85,35.8,25.8,37,26.64l.61.43.35.09c.34.32,1,1.49,1,4.13V242.86C323.84,245.24,323.66,246.6,323.27,246.89Z"/><ellipse class="cls-1" cx="216.66" cy="92.32" rx="8.37" ry="10.52"/><path class="cls-1" d="M208.07,148.4h-.92a39.18,39.18,0,0,0-28.09,13.06c-8.93,9.74-13.51,23.62-12.59,38.06,1.75,27.18,22.29,48.9,46,48.9h.92a39.18,39.18,0,0,0,28.09-13.06c8.92-9.74,13.51-23.62,12.59-38.06C252.33,170.12,231.79,148.4,208.07,148.4Zm30.47,84.26a35.19,35.19,0,0,1-25.23,11.76h-.83c-21.65,0-40.41-20.06-42-45.15-.86-13.37,3.35-26.16,11.54-35.11a35.19,35.19,0,0,1,25.23-11.76h.83c21.64,0,40.4,20.06,42,45.15C250.94,210.92,246.73,223.71,238.54,232.66Z"/><path class="cls-1" d="M207.68,156.8a32.66,32.66,0,0,0-23.4,10.88c-7.43,8.11-11.25,19.66-10.48,31.67C175.25,222,192.35,240,212.1,240h.77a32.66,32.66,0,0,0,23.4-10.88c7.43-8.11,11.25-19.66,10.48-31.67C245.28,174.57,227.77,156.36,207.68,156.8Zm25.85,69.83a29,29,0,0,1-20.75,9.68h-.68c-17.82,0-33.26-16.52-34.59-37.2-.7-11,2.76-21.55,9.51-28.91a29,29,0,0,1,20.75-9.68h.68c17.81,0,33.26,16.52,34.58,37.19C243.74,208.72,240.27,219.27,233.53,226.63Z"/><path class="cls-1" d="M218.78,180.61a12.83,12.83,0,0,0-9.19,4.26,16.45,16.45,0,0,0-4,12.13c.55,8.65,7.17,15.56,14.81,15.56h.3a12.83,12.83,0,0,0,9.19-4.26,16.41,16.41,0,0,0,4-12.13C233.33,187.41,226.51,180.43,218.78,180.61Zm8.13,25a8.88,8.88,0,0,1-6.33,3h-.21c-5.57,0-10.4-5.25-10.82-11.81a12.47,12.47,0,0,1,3-9.18,8.88,8.88,0,0,1,6.34-3h.21c5.56,0,10.39,5.25,10.81,11.82A12.45,12.45,0,0,1,226.91,205.6Z"/><path class="cls-1" d="M298.47,144l-5.66-.37a3.66,3.66,0,0,0-1.9,2.88V247.3c0,1,.85,1.45,1.9.91l5.66-2.94a3.64,3.64,0,0,0,1.9-2.88v-94.6C300.25,146.08,300.5,144,298.47,144Z"/><path class="cls-1" d="M211.46,259l-6.56-.67a2.56,2.56,0,0,0-2.92,2.57v8.31a3.28,3.28,0,0,0,2.92,3.17l6.56.68a2.57,2.57,0,0,0,2.92-2.58v-8.3A3.29,3.29,0,0,0,211.46,259Z"/></g></svg>