<?xml version="1.0" encoding="UTF-8"?><svg id="Layer_2" xmlns="http://www.w3.org/2000/svg" viewBox="0 0 480 320"><defs><style>.cls-1,.cls-2,.cls-3{fill:#000;}.cls-2{stroke-width:2px;}.cls-2,.cls-3{stroke:#000;stroke-miterlimit:10;}.cls-3{stroke-width:.75px;}</style></defs><g><path class="cls-1" d="M250.87,112.03c.4,.02,.8,.03,1.19,.02,5.19-.06,10.17-2.21,14.12-6.13,4.24-4.22,6.79-9.98,7.18-16.23,.59-9.62-4.22-18.5-11.91-22.42,3.93-3.26,6.28-8.31,6.37-13.8,.08-4.69-1.5-9.11-4.43-12.47-2.94-3.36-6.89-5.24-11.12-5.29-4.2-.03-8.23,1.74-11.27,5-3.04,3.28-4.76,7.66-4.84,12.34-.1,5.93,2.49,11.42,6.84,14.72-6.73,3.82-11.28,11.32-11.8,19.75-.38,6.25,1.45,12.25,5.16,16.88,3.72,4.64,8.87,7.34,14.51,7.62Zm-9.43-58.88c.06-3.38,1.27-6.52,3.43-8.84,1.96-2.11,4.49-3.29,7.12-3.32h.22c2.71,.03,5.27,1.27,7.21,3.49,2.07,2.37,3.18,5.53,3.13,8.9-.06,3.85-1.72,7.48-4.39,9.76l-.08-.02c-.41-.1-.82-.19-1.23-.26l-.24-.04c-.41-.07-.82-.13-1.24-.18l-.19-.02c-.44-.05-.87-.09-1.31-.11-.41-.02-.82-.03-1.23-.03-.09,0-.18,0-.26,0h-.08c-.29,0-.58,.02-.87,.03-.11,0-.22,.02-.33,.02h-.11c-.26,.03-.52,.05-.78,.08-.12,.01-.24,.03-.37,.05h-.1c-.25,.05-.49,.08-.74,.12-.16,.03-.32,.06-.49,.09-.24,.05-.47,.09-.7,.15-.17,.04-.34,.08-.51,.12-.23,.06-.46,.12-.69,.18-.17,.05-.33,.1-.5,.15h-.02c-2.92-2.28-4.71-6.2-4.64-10.33Zm-4.97,34.71c.45-7.31,4.66-13.7,10.72-16.26,.24-.1,.48-.19,.71-.28l.24-.08c.16-.05,.32-.11,.47-.16l.3-.09c.14-.04,.29-.08,.42-.11,.1-.03,.2-.05,.32-.07,.14-.03,.28-.06,.42-.09,.1-.02,.21-.04,.31-.06,.15-.02,.29-.05,.43-.06l.3-.04c.17-.02,.34-.03,.51-.05l.22-.02c.23-.01,.46-.02,.69-.03,.28,0,.58,0,.87,.02,1.38,.07,2.74,.34,4.04,.82,6.76,2.46,11.13,9.9,10.62,18.09-.3,4.95-2.3,9.5-5.63,12.8-3.18,3.16-7.2,4.79-11.32,4.58-4.11-.21-7.89-2.21-10.65-5.65-2.89-3.6-4.31-8.31-4.01-13.25Z"/><path class="cls-2" d="M250.26,94.82c.13,0,.25,0,.38,0,1.62-.02,3.15-.67,4.35-1.85,1.23-1.21,1.96-2.84,2.07-4.61,.23-3.73-2.45-6.91-5.97-7.09-3.52-.17-6.57,2.72-6.8,6.45-.23,3.73,2.45,6.91,5.97,7.09Zm-3.04-6.94c.13-2.17,1.69-3.88,3.52-3.9,.06,0,.12,0,.18,0,1.9,.09,3.34,2,3.2,4.25-.07,1.13-.52,2.17-1.28,2.92-.69,.68-1.55,1.03-2.42,.99-1.9-.09-3.34-2-3.2-4.25Z"/><path class="cls-1" d="M252.51,166.97c13.26-.15,23.92-11.86,23.76-26.11-.16-14.25-11.08-25.72-24.33-25.57s-23.91,11.86-23.75,26.11c.16,14.25,11.08,25.72,24.33,25.57Zm-.52-46.4c10.35-.12,18.87,9.01,18.99,20.35,.13,11.34-8.19,20.65-18.53,20.77s-18.87-9.01-18.99-20.35,8.19-20.65,18.53-20.77Z"/><path class="cls-1" d="M296.8,283.45c-.02-.65-.51-1.18-1.15-1.27l-12.58-1.68c.22-.5,.35-1.04,.35-1.61l-2.13-249.05c-.01-2.15-1.77-3.91-3.92-3.94l-54.71-.55h-.17s-20.82,2.51-20.82,2.51h0c-1.99,.24-3.49,1.93-3.49,3.93l.04,238.58-13.86,.16c-.73,0-1.31,.61-1.31,1.34l.05,4.24c0,.73,.61,1.31,1.34,1.31l7.46-.08c.73,0,1.31-.61,1.31-1.34v-.14s10.49,.56,10.49,.56l13.4,8.47-4.18,3.09c-.34,.25-.54,.65-.54,1.08l.05,4.3c0,.73,.61,1.31,1.34,1.31l11.2-.13c.34,0,.64-.14,.87-.35l10.61-7.57,25.36-2.18,21.25,2.58v1.17c.02,.73,.62,1.31,1.35,1.31l11.23-.13c.74,0,1.33-.62,1.31-1.36l-.14-4.53Zm-18.67-5.74l-52.33,4.51-.77-251.55,50.99,.51,2.11,246.53ZM203.46,32.97l16.28-1.96,.77,249.79-17.01-10.76-.04-237.07Z"/><path class="cls-2" d="M250.69,150.01c.17,0,.33,.01,.5,0,2.12-.02,4.13-.87,5.7-2.42,1.61-1.58,2.57-3.73,2.71-6.04,.3-4.89-3.21-9.05-7.82-9.29-4.61-.22-8.61,3.56-8.91,8.45-.3,4.89,3.21,9.05,7.82,9.29Zm-3.98-9.09c.17-2.85,2.22-5.09,4.61-5.12,.08,0,.16,0,.24,0,2.49,.12,4.37,2.62,4.19,5.56-.09,1.49-.69,2.84-1.68,3.82-.9,.89-2.03,1.35-3.17,1.29-2.49-.12-4.37-2.62-4.19-5.56Z"/><path class="cls-3" d="M250.26,59c.13,0,.25,0,.38,0,1.62-.02,3.15-.67,4.35-1.85,1.23-1.21,1.96-2.84,2.07-4.61,.23-3.73-2.45-6.91-5.97-7.09-3.52-.17-6.57,2.72-6.8,6.45-.23,3.73,2.45,6.91,5.97,7.09Zm-3.04-6.94c.13-2.17,1.69-3.88,3.52-3.9,.06,0,.12,0,.18,0,1.9,.09,3.34,2,3.2,4.25-.07,1.13-.52,2.17-1.28,2.92-.69,.68-1.55,1.03-2.42,.99-1.9-.09-3.34-2-3.2-4.25Z"/></g><circle class="cls-1" cx="253.3" cy="176.71" r="2.86"/></svg>