<?xml version="1.0" encoding="UTF-8"?><svg id="Layer_2" xmlns="http://www.w3.org/2000/svg" viewBox="0 0 480 320"><defs><style>.cls-1{fill:#000;}</style></defs><path class="cls-1" d="M219.57,27.46m5.02,0h-1.24m4.95,0-12.32,.12l-76.27,2.6c-1.23,.04-2.2,1.05-2.21,2.27l-.93,231.6c0,1.24,.8,2.33,1.98,2.7l78.35,24.37s3.07,1.42,8.14,1.42c3.66,0,6.28-.3,7.46-.47,.63-.09,1.25-.16,1.88-.23l97.89-9.53,1.6-.14,2.02-.2c.29-.03,.58-.07,.87-.12l1.24-.23c.18-.03,.36-.08,.54-.12l1.1-.3c1.86-.69,2.76-1.64,3.18-2.27l.09-.14c.34-.52,.53-1.12,.52-1.74l-.69-243.96c0-1.52-1.95-3.28-2.57-3.8-.12-.1-.26-.18-.42-.22h0c-.53-.15-1.07-.22-1.61-.22h-1.82s-104.36-1.33-104.36-1.33m-9.08,265.17M332.61,36.16l-.16,115.66c-5.1-12.13-13.42-22.14-23.95-28.17,9.94-8.78,16.15-22.6,16.53-37.51,.32-12.71-3.49-24.8-10.75-34.03-7.42-9.44-17.52-14.79-28.45-15.07-10.91-.28-21.3,4.55-29.19,13.6-7.72,8.85-12.14,20.73-12.47,33.44-.41,16.09,6.08,31.27,16.89,40.38-15.3,9.21-26.26,26.5-29.48,46.51l.16-59.25,.21-76.84,100.66,1.29Zm-31.55,84.03s-.1-.03-.14-.05c-.88-.32-1.77-.6-2.67-.86-.12-.03-.23-.07-.35-.1-.9-.25-1.81-.47-2.72-.67-.17-.04-.34-.07-.5-.11-.91-.19-1.82-.35-2.74-.48-.15-.02-.29-.04-.44-.06-.96-.13-1.93-.23-2.9-.3-.91-.06-1.82-.09-2.72-.1-.26,0-.51,.01-.77,.01-.64,0-1.29,.02-1.93,.05-.32,.02-.64,.05-.95,.07-.58,.04-1.15,.09-1.73,.15-.35,.04-.69,.09-1.04,.14-.54,.07-1.09,.15-1.63,.24-.36,.06-.72,.13-1.09,.21-.52,.1-1.04,.21-1.56,.33-.37,.09-.74,.18-1.11,.28-.51,.13-1.02,.27-1.52,.42-.37,.11-.74,.22-1.11,.34-.5,.16-1.01,.34-1.51,.52-.36,.13-.73,.26-1.09,.4-.15,.06-.29,.1-.44,.16-10.68-7.27-17.25-21.39-16.86-36.54,.28-11,4.06-21.23,10.66-28.79,6.25-7.17,14.3-11.09,22.75-11.09,.23,0,.46,0,.7,0,8.7,.22,16.81,4.57,22.85,12.26,6.2,7.89,9.46,18.29,9.18,29.29-.36,14.14-6.67,27.07-16.6,34.24Zm-31.5,8.13c.7-.31,1.4-.6,2.11-.87,.24-.09,.48-.17,.73-.26,.47-.17,.93-.33,1.4-.49,.29-.09,.58-.18,.87-.26,.43-.13,.85-.25,1.28-.36,.31-.08,.62-.15,.92-.23,.42-.1,.84-.19,1.26-.27,.31-.06,.62-.12,.94-.18,.43-.07,.87-.14,1.3-.2,.3-.04,.6-.09,.89-.12,.51-.06,1.01-.1,1.52-.13,.23-.02,.45-.04,.68-.05,.72-.04,1.44-.06,2.16-.06,.83,0,1.65,.03,2.48,.08,4.12,.27,8.17,1.22,12.03,2.8,19.6,8.05,32.1,31.48,30.4,56.98-1.02,15.28-6.86,29.28-16.46,39.44-9.41,9.96-21.32,15.01-33.53,14.19-12.21-.81-23.34-7.39-31.35-18.51-8.16-11.34-12.1-26-11.08-41.27,1.51-22.66,13.85-42.38,31.43-50.23ZM145.77,37.35l76.44-2.39-1.2,178.74-.46,68.9-75.47-21.55c-.67-.19-1.12-.8-1.12-1.49l.89-221.24c0-.51,.41-.94,.93-.95Zm85.5,247.21l.24-89.59c1.68,10.73,5.65,20.75,11.71,29.17,9.31,12.94,22.4,20.6,36.84,21.56,1.03,.07,2.05,.1,3.07,.1,13.34,0,26.13-5.82,36.31-16.58,5.44-5.76,9.8-12.59,12.93-20.14l-.09,65.84-101,9.65Z"/><ellipse class="cls-1" cx="282.7" cy="85.18" rx="10.45" ry="12.97"/><path class="cls-1" d="M285.46,255.28c-4.56,0-8.27,4.12-8.27,9.19s3.71,9.19,8.27,9.19,8.27-4.12,8.27-9.19-3.71-9.19-8.27-9.19Z"/><path class="cls-1" d="M275.1,198.54c.32,.02,.64,.03,.96,.03,4.06,0,7.92-1.72,10.96-4.92,3.11-3.26,4.99-7.71,5.31-12.52,.68-10.18-5.95-18.95-14.77-19.54-8.82-.57-16.55,7.22-17.23,17.4-.68,10.18,5.95,18.95,14.77,19.54Zm-7.42-19.05c.4-5.93,4.35-10.56,8.93-10.56,.15,0,.3,0,.45,.02,4.77,.32,8.31,5.56,7.91,11.69-.21,3.09-1.38,5.91-3.3,7.92-1.75,1.83-3.91,2.77-6.09,2.62-4.77-.32-8.31-5.56-7.91-11.69Z"/></svg>