<?xml version="1.0" encoding="UTF-8"?><svg id="Layer_2" xmlns="http://www.w3.org/2000/svg" viewBox="0 0 480 320"><defs><style>.cls-1,.cls-2,.cls-3{fill:#000;}.cls-2{stroke-width:2px;}.cls-2,.cls-3{stroke:#000;stroke-miterlimit:10;}.cls-3{stroke-width:.75px;}</style></defs><g><path class="cls-1" d="M286.39,290.22c-.02-.51-.4-.94-.91-1l-9.96-1.33c.17-.39,.28-.82,.28-1.28l-1.68-261.78c-.01-1.7-1.4-3.1-3.1-3.12l-43.31-.44h-.14s-16.48,1.98-16.48,1.98h0c-1.57,.19-2.76,1.53-2.76,3.11l.03,253.49-10.97,.12c-.58,0-1.04,.48-1.03,1.06l.04,3.36c0,.58,.48,1.04,1.06,1.03l5.9-.07c.58,0,1.04-.48,1.03-1.06v-.11s8.3,.44,8.3,.44l10.61,6.71-3.31,2.44c-.27,.2-.43,.52-.42,.85l.04,3.4c0,.58,.48,1.04,1.06,1.03l8.87-.1c.27,0,.51-.11,.69-.28l8.4-5.99,20.08-1.73,16.82,2.04v.92c.02,.58,.49,1.04,1.07,1.03l8.89-.1c.59,0,1.05-.49,1.03-1.08l-.11-3.58Zm-14.78-4.55l-41.43,3.57-.61-263.76,40.37,.41,1.67,259.79ZM212.51,27.3l12.89-1.55,.61,262.37-13.47-8.52-.03-252.3Z"/><path class="cls-1" d="M250.53,89.41c.32,.02,.63,.02,.95,.02,4.12-.05,8.07-1.75,11.2-4.87,3.37-3.35,5.39-7.92,5.69-12.88,.47-7.64-3.35-14.68-9.45-17.8,3.12-2.59,4.99-6.59,5.06-10.95,.06-3.72-1.19-7.23-3.52-9.89-2.33-2.67-5.47-4.16-8.83-4.2-3.33-.03-6.53,1.38-8.94,3.97-2.41,2.6-3.78,6.08-3.84,9.79-.08,4.7,1.98,9.07,5.43,11.68-5.34,3.03-8.95,8.98-9.36,15.67-.3,4.96,1.15,9.72,4.1,13.39,2.95,3.68,7.04,5.83,11.51,6.05Zm-7.48-46.73c.04-2.68,1.01-5.17,2.72-7.01,1.55-1.67,3.56-2.61,5.65-2.63h.17c2.15,.03,4.18,1.01,5.72,2.77,1.64,1.88,2.52,4.39,2.48,7.06-.05,3.05-1.36,5.93-3.48,7.74l-.07-.02c-.33-.08-.65-.15-.97-.21l-.19-.03c-.33-.06-.65-.11-.99-.15l-.15-.02c-.35-.04-.69-.07-1.04-.09-.33-.02-.65-.02-.98-.02-.07,0-.14,0-.21,0h-.07c-.23,0-.46,.01-.69,.03-.09,0-.17,.01-.26,.02h-.08c-.21,.02-.41,.04-.62,.06-.1,.01-.19,.02-.29,.04h-.08c-.2,.04-.39,.07-.58,.1-.13,.02-.25,.05-.39,.07-.19,.04-.37,.07-.55,.12-.13,.03-.27,.06-.4,.1-.18,.05-.36,.09-.54,.15-.13,.04-.27,.08-.39,.12h-.02c-2.31-1.81-3.74-4.92-3.68-8.2Zm-3.94,27.54c.36-5.8,3.7-10.87,8.51-12.91,.19-.08,.38-.15,.57-.22l.19-.07c.13-.04,.25-.09,.37-.12l.24-.07c.11-.03,.23-.06,.34-.09,.08-.02,.16-.04,.25-.06,.11-.03,.22-.05,.33-.07,.08-.02,.17-.03,.25-.05,.12-.02,.23-.04,.34-.05l.24-.03c.13-.02,.27-.03,.41-.04l.18-.02c.18-.01,.37-.02,.55-.02,.22,0,.46,0,.69,.01,1.1,.05,2.17,.27,3.2,.65,5.36,1.95,8.83,7.86,8.43,14.35-.24,3.93-1.83,7.54-4.47,10.16-2.52,2.51-5.72,3.8-8.98,3.64-3.26-.16-6.26-1.76-8.45-4.49-2.29-2.86-3.42-6.59-3.18-10.52Z"/><path class="cls-2" d="M250.04,75.75c.1,0,.2,0,.3,0,1.28-.01,2.5-.53,3.45-1.47,.97-.96,1.56-2.26,1.64-3.66,.18-2.96-1.94-5.49-4.74-5.62-2.79-.13-5.21,2.16-5.4,5.12-.18,2.96,1.94,5.49,4.74,5.62Zm-2.41-5.51c.11-1.73,1.34-3.08,2.79-3.1,.05,0,.1,0,.14,0,1.51,.08,2.65,1.59,2.54,3.37-.06,.9-.42,1.72-1.02,2.31-.55,.54-1.23,.82-1.92,.78-1.51-.08-2.65-1.59-2.54-3.37Z"/><path class="cls-1" d="M251.82,133.01c10.52-.12,18.98-9.41,18.85-20.72-.13-11.31-8.79-20.41-19.31-20.29s-18.98,9.41-18.85,20.72c.13,11.31,8.79,20.41,19.31,20.29Zm-.41-36.82c8.21-.09,14.97,7.15,15.07,16.15,.1,9-6.5,16.39-14.71,16.48-8.21,.09-14.97-7.15-15.07-16.15-.1-9,6.5-16.39,14.71-16.48Z"/><path class="cls-2" d="M250.38,119.55c.13,0,.27,0,.4,0,1.68-.02,3.27-.69,4.52-1.92,1.27-1.26,2.04-2.96,2.15-4.79,.24-3.88-2.55-7.19-6.21-7.37-3.66-.18-6.83,2.83-7.07,6.71-.24,3.88,2.55,7.19,6.21,7.37Zm-3.16-7.22c.14-2.26,1.76-4.04,3.66-4.06,.06,0,.13,0,.19,0,1.98,.1,3.47,2.08,3.33,4.41-.07,1.18-.55,2.26-1.33,3.03-.72,.71-1.61,1.07-2.51,1.02-1.98-.1-3.47-2.08-3.33-4.41Z"/><path class="cls-3" d="M250.04,47.33c.1,0,.2,0,.3,0,1.28-.01,2.5-.53,3.45-1.47,.97-.96,1.56-2.26,1.64-3.66,.18-2.96-1.94-5.49-4.74-5.62-2.79-.13-5.21,2.16-5.4,5.12-.18,2.96,1.94,5.49,4.74,5.62Zm-2.41-5.51c.11-1.73,1.34-3.08,2.79-3.1,.05,0,.1,0,.14,0,1.51,.08,2.65,1.59,2.54,3.37-.06,.9-.42,1.72-1.02,2.31-.55,.54-1.23,.82-1.92,.78-1.51-.08-2.65-1.59-2.54-3.37Z"/><path class="cls-1" d="M251.82,179.09c10.52-.12,18.98-9.41,18.85-20.72-.13-11.31-8.79-20.41-19.31-20.29s-18.98,9.41-18.85,20.72c.13,11.31,8.79,20.41,19.31,20.29Zm-.41-36.82c8.21-.09,14.97,7.15,15.07,16.15,.1,9-6.5,16.39-14.71,16.48-8.21,.09-14.97-7.15-15.07-16.15-.1-9,6.5-16.39,14.71-16.48Z"/><path class="cls-2" d="M250.38,165.63c.13,0,.27,0,.4,0,1.68-.02,3.27-.69,4.52-1.92,1.27-1.26,2.04-2.96,2.15-4.79,.24-3.88-2.55-7.19-6.21-7.37-3.66-.18-6.83,2.83-7.07,6.71-.24,3.88,2.55,7.19,6.21,7.37Zm-3.16-7.22c.14-2.26,1.76-4.04,3.66-4.06,.06,0,.13,0,.19,0,1.98,.1,3.47,2.08,3.33,4.41-.07,1.18-.55,2.26-1.33,3.03-.72,.71-1.61,1.07-2.51,1.02-1.98-.1-3.47-2.08-3.33-4.41Z"/></g><circle class="cls-1" cx="251.43" cy="186.98" r="2.86"/></svg>