<svg id="Artwork" xmlns="http://www.w3.org/2000/svg" viewBox="0 0 480 320"><defs><style>.cls-1{fill:#000;}</style></defs><path class="cls-1" d="M451.28,183.15l-81.61-70.42a41.2,41.2,0,0,0-26.92-10l-310.11,2a16,16,0,0,0-16,16.31l1.12,51.28L93,257.08a12.51,12.51,0,0,0,10.52,5.76H447.67a12.51,12.51,0,0,0,12.5-12.5V195.12A12.52,12.52,0,0,0,451.28,183.15Zm.89,34.62h-5.3V203.46a10,10,0,0,0-10-10H114.34a10,10,0,0,0-10,10v14.31H99V195.12a4.5,4.5,0,0,1,4.5-4.51H447.67a4.51,4.51,0,0,1,4.5,4.51Zm-11.3-14.31V242a4,4,0,0,1-4,4H114.34a4,4,0,0,1-4-4V203.46a4,4,0,0,1,4-4H436.87A4,4,0,0,1,440.87,203.46ZM32.67,112.73l310.1-2a33.15,33.15,0,0,1,21.67,8.06l74,63.82H103.54a12.37,12.37,0,0,0-6.6,1.91L29,113.63A8,8,0,0,1,32.67,112.73Zm-8,8.14v-.15l67.17,70a12.36,12.36,0,0,0-.8,4.36v47.67L25.72,169.21Zm423,134H103.54a4.44,4.44,0,0,1-3-1.19l.09-.08-1.06-1.19a4.52,4.52,0,0,1-.5-2V225.77h5.3V242a10,10,0,0,0,10,10H436.87a10,10,0,0,0,10-10V225.77h5.3v24.57A4.5,4.5,0,0,1,447.67,254.84Z"/><rect class="cls-1" x="266.99" y="222.73" width="17.22" height="17.22" rx="2.87"/></svg>