<svg xmlns="http://www.w3.org/2000/svg" viewBox="0 0 480 320"><defs><style>.cls-1{fill:#000;}</style></defs><g id="Layer_1" data-name="Layer 1"><path class="cls-1" d="M335.68,189.12a1.59,1.59,0,0,0,2.08-.71,1.46,1.46,0,0,0-.56-2,1.59,1.59,0,0,0-2.08.71A1.46,1.46,0,0,0,335.68,189.12Z"/><path class="cls-1" d="M343.78,188.54a1.6,1.6,0,0,0,2.08-.71,1.46,1.46,0,0,0-.55-2,1.59,1.59,0,0,0-2.08.7A1.47,1.47,0,0,0,343.78,188.54Z"/><path class="cls-1" d="M351.72,188a1.6,1.6,0,0,0,2.08-.71,1.47,1.47,0,0,0-.56-2.05,1.6,1.6,0,0,0-2.08.71A1.47,1.47,0,0,0,351.72,188Z"/><path class="cls-1" d="M359.38,187.51a1.6,1.6,0,0,0,2.08-.71,1.47,1.47,0,0,0-.56-2.05,1.6,1.6,0,0,0-2.08.71A1.47,1.47,0,0,0,359.38,187.51Z"/><path class="cls-1" d="M366.7,187a1.6,1.6,0,0,0,2.08-.71,1.47,1.47,0,0,0-.56-2.05,1.59,1.59,0,0,0-2.07.71A1.47,1.47,0,0,0,366.7,187Z"/><path class="cls-1" d="M459.05,162.54A6.56,6.56,0,0,0,452,156l-22.35,1.58L261.92,92.68a7.89,7.89,0,0,0-3.81-.72L27.41,107.08A7.9,7.9,0,0,0,20,115l0,26.67a7.88,7.88,0,0,0,2.25,5.53l.15.15,58.77,48.86v25.3a6.55,6.55,0,0,0,6.58,6.59l.48,0,364.38-25.75h0a7,7,0,0,0,6.49-7Zm-36.32,3.51v30.32L118.16,217.9V187.58ZM258.55,99.93l.17.08,152.17,58.86L119.26,179.48,32.58,114.76ZM87.61,181.72a7,7,0,0,0-6,4.44L28,141.56V121.29l79.09,59.06Zm1.51,7.91,23-1.63v30.33l-23,1.63ZM428.73,196V165.63l22.32-1.58v30.32Z"/><path class="cls-1" d="M128.85,210.47a3.05,3.05,0,0,0,3.07,3.09h.24l280.22-19.31h0a3.47,3.47,0,0,0,3.17-3.4v-17a3.05,3.05,0,0,0-3.3-3.08L132,190.06a3.46,3.46,0,0,0-3.16,3.4Zm3.3-18.42,280.23-19.3h.09a1.1,1.1,0,0,1,.74.28,1.12,1.12,0,0,1,.33.81v17a1.45,1.45,0,0,1-1.31,1.4L132,211.56a1,1,0,0,1-.82-.28,1.08,1.08,0,0,1-.34-.81v-17A1.45,1.45,0,0,1,132.15,192.05Z"/><path class="cls-1" d="M95.93,198.38h.13l2.86-.14a3,3,0,0,0,2.79-2.89v-.54a2.61,2.61,0,0,0-.77-2,2.52,2.52,0,0,0-1.9-.72l-2.86.14a3,3,0,0,0-2.79,2.9v.53a2.58,2.58,0,0,0,.77,2A2.49,2.49,0,0,0,95.93,198.38Zm-1.53-3.22a2,2,0,0,1,1.84-1.93l2.86-.14h.08a1.51,1.51,0,0,1,1.07.43,1.64,1.64,0,0,1,.47,1.25v.54a2,2,0,0,1-1.84,1.92l-2.86.14a1.48,1.48,0,0,1-1.15-.43,1.63,1.63,0,0,1-.47-1.24Z"/><path class="cls-1" d="M99.05,208.8l-2.86.14a3,3,0,0,0-2.79,2.89v.54a2.61,2.61,0,0,0,.77,2,2.48,2.48,0,0,0,1.77.72h.13l2.86-.14a3,3,0,0,0,2.79-2.9v-.53a2.58,2.58,0,0,0-.77-2A2.48,2.48,0,0,0,99.05,208.8Zm1.66,3.21a2,2,0,0,1-1.84,1.93l-2.86.14a1.48,1.48,0,0,1-1.15-.43,1.64,1.64,0,0,1-.47-1.25v-.53a2,2,0,0,1,1.84-1.93l2.86-.14h.08a1.52,1.52,0,0,1,1.07.44,1.63,1.63,0,0,1,.47,1.24Z"/><path class="cls-1" d="M444.5,168.09l-2.86.14a3,3,0,0,0-2.78,2.9l0,.53a2.61,2.61,0,0,0,.77,2,2.51,2.51,0,0,0,1.77.73h.13l2.87-.14a3,3,0,0,0,2.78-2.89l0-.54a2.68,2.68,0,0,0-.77-2A2.54,2.54,0,0,0,444.5,168.09Zm1.66,3.21a2,2,0,0,1-1.83,1.93l-2.86.14a1.53,1.53,0,0,1-1.16-.43,1.63,1.63,0,0,1-.47-1.24l0-.54a2,2,0,0,1,1.83-1.93l2.86-.14h.08a1.5,1.5,0,0,1,1.07.43,1.61,1.61,0,0,1,.48,1.25Z"/><path class="cls-1" d="M444.5,184.8l-2.86.14a3,3,0,0,0-2.78,2.89l0,.54a2.64,2.64,0,0,0,.77,2,2.5,2.5,0,0,0,1.77.72h.13l2.87-.14a3,3,0,0,0,2.78-2.9l0-.53a2.65,2.65,0,0,0-.77-2A2.56,2.56,0,0,0,444.5,184.8Zm1.66,3.21a2,2,0,0,1-1.83,1.93l-2.86.14a1.57,1.57,0,0,1-1.16-.43,1.64,1.64,0,0,1-.47-1.25l0-.54a2,2,0,0,1,1.83-1.92l2.86-.14h.08a1.5,1.5,0,0,1,1.07.44,1.61,1.61,0,0,1,.48,1.24Z"/><path class="cls-1" d="M139.83,201.37a1.2,1.2,0,0,0,.08.27l.17.37a1.06,1.06,0,0,0,.17.26l.46.52a1,1,0,0,0,.21.17l1.21.76a.83.83,0,0,0,.16.09l1.3.51.12,0,4.49,1.16,5.48.88h.16l.12,0,.13,0h.06l105.23-6.65,2.16-.17a.65.65,0,0,0,.2,0l.51-.16a1.05,1.05,0,0,0,.3-.15l.34-.26a.92.92,0,0,0,.22-.22l.27-.38a1.06,1.06,0,0,0,.11-.21l.31-.8a.48.48,0,0,0,.05-.17l.34-1.68a.45.45,0,0,0,0-.11l.15-1.81,0-2.86a.49.49,0,0,0,0-.12l-.21-1.65,0-.15-.21-.7a.85.85,0,0,0-.09-.22l-.27-.48a1.31,1.31,0,0,0-.24-.28l-.32-.25a.87.87,0,0,0-.37-.19l-.51-.14a.76.76,0,0,0-.21,0h-.41l-105.21,6.64a1,1,0,0,0-.4.11h-.07l-4.55,1.09-4.46,1.35-.14.06-4.3,2a.76.76,0,0,0-.19.12l-1.49,1.16a.8.8,0,0,0-.2.21l-.27.37a.78.78,0,0,0-.11.2l-.16.37a2.33,2.33,0,0,0-.07.25l0,.32a1.22,1.22,0,0,0,0,.27Zm2.15-.8,1.29-1,4.14-1.94,4.33-1.32,4.5-1.08a1,1,0,0,0,.15-.07l102.21-6.46,2.92-.17.34.06.13.21.15.52.19,1.5,0,2.72-.13,1.66-.31,1.54-.23.59-.11.15-.33.14L154,204.41h0l-5.39-.86-4.34-1.12-1.16-.46-1-.63-.27-.3-.05-.12Z"/><path class="cls-1" d="M271.42,194.79l.35,1.6a.7.7,0,0,0,.06.19l.32.73a1.14,1.14,0,0,0,.15.23l.27.33a1,1,0,0,0,.27.23l.36.21a.93.93,0,0,0,.33.12l.52.09h.21l110-8a.42.42,0,0,0,.15,0h0a.84.84,0,0,0,.27,0l5.7-1.63,4.49-1.7.1,0,1.33-.68.14-.08,1.23-.91a1.37,1.37,0,0,0,.18-.16l.47-.57a1.58,1.58,0,0,0,.15-.24l.17-.38a.9.9,0,0,0,.07-.27l0-.3a.66.66,0,0,0,0-.28l0-.3a.71.71,0,0,0-.09-.28l-.16-.34a.74.74,0,0,0-.14-.22l-.27-.33a1,1,0,0,0-.25-.21l-1.53-.94-.22-.1-4.42-1.38-.14,0-4.64-.72L382.3,178h-.06a1,1,0,0,0-.41-.06l-104.76,7.6-3.13.24-.31,0a1.06,1.06,0,0,0-.19.06l-.52.2a.94.94,0,0,0-.32.19l-.32.29a1,1,0,0,0-.2.26l-.28.51a.7.7,0,0,0-.08.2l-.21.71a.83.83,0,0,0,0,.15l-.21,1.63v3l.15,1.66S271.41,194.75,271.42,194.79Zm1.84-4.6.19-1.49.15-.53.15-.27.32-.15L382,179.89a.38.38,0,0,0,.15.05l4.55.44,4.5.7,4.23,1.33,1.29.78.09.11,0,.1-.36.51-1.07.79-1.21.62L389.81,187l-5.62,1.6h-.05L276.32,196.4l-2,.13-.24-.05-.34-.62-.31-1.44-.14-1.5Z"/></g></svg>