<svg id="Artwork" xmlns="http://www.w3.org/2000/svg" viewBox="0 0 480 320"><defs><style>.cls-1{fill:#000;}</style></defs><path class="cls-1" d="M433.65,108.05a5.26,5.26,0,0,0-2.48-2.4h0a25.67,25.67,0,0,0-2.8-1.83l-104.06-72c-1.68-1.7-7.35-6.26-16.89-2.39L64.9,105.17c-12.8,3-20.43,11.19-20.43,22.07v.41l7.81,37.56L132,286a12.29,12.29,0,0,0,11,6c6.47,0,14.27-3.6,22.09-7.92l235.36-112c15.88-6,20.85-12.71,25.39-24.62l7.39-23.38C435.91,116.3,436.57,111.78,433.65,108.05ZM149.48,231.6,415,118a4.7,4.7,0,0,1-.17.45l-8.76,27.21c-1.55,3.74-2.51,4.2-6.88,6.3-.73.35-1.53.74-2.32,1.14L155.13,267l-.41.23c-3.68,2.29-8.26,4.12-10.16,4.12h0L140.93,237A34.85,34.85,0,0,1,149.48,231.6ZM310,37.06l.34-.12a13.3,13.3,0,0,1,1.86-.64l104.07,72.48L149.26,223,68.72,112.36ZM60.77,115l81.14,111.46c-4,2.34-9.67,6.51-12.66,12.54L52.53,126.11C53,120.38,56.76,117,60.77,115Zm-4.28,31.14L127.44,250.6l2,17L59.8,162.08Zm369.13-24.64-7.33,23.21c-3.68,9.63-7,14.74-20.83,19.93l-.16.06L161.51,276.91l-.22.11c-16.73,9.25-20.53,7.35-22.1,5.38l-.62-5.36a7,7,0,0,0,2.74,1.79,9.12,9.12,0,0,0,3.12.5c5.41,0,11.91-3.67,14.32-5.16L400.4,160.27l2.3-1.12c4.89-2.35,8.12-3.9,10.87-10.62l8.69-27a14.81,14.81,0,0,0,1.18-7.15,17.44,17.44,0,0,1,4-1.29h0C427.79,114.23,427.17,117.08,425.62,121.53Z"/><path class="cls-1" d="M257.08,169.05l-.23-2.93-2.53.91.08-3.74,2.65-1.06.13-2.9-2.51.91,0-3.43,2.82-1.32,0-2.79-7.15,3.13-.9,16.23Zm-6.26-12.88,6.18-2.71,0,1.71-2.82,1.32-.05,4.47,2.49-.91-.09,1.83L253.91,163l-.1,4.8,2.59-.94.15,1.91L250,171.31Z"/><path class="cls-1" d="M266.14,162l-2.55,1,.28-13.18-4.51,1.93-.7,16.36,7.53-3.17Zm-6.94,5.37.65-15.25,3.5-1.51-.27,13.17,2.57-1,0,1.9Z"/><path class="cls-1" d="M269.41,161.14l2.85-1.14.5,2.11,4.31-1.8L274,145.38l-4.21,1.83-3.15,17.44,2.35-.87Zm-.86,2.27-1.26.47,3-16.32,3.4-1.47L276.5,160l-3.39,1.41-.49-2.1L269,160.78Z"/><path class="cls-1" d="M270.66,151.94l-1.25,7.12,2.84-1.12-1.1-6Zm-.61,6.33.86-4.87.78,4.22Z"/><path class="cls-1" d="M278.94,158.66a1.47,1.47,0,0,0,.85.26,2.44,2.44,0,0,0,.84-.16l5.22-2.21-.16-2.82-2.65,1,.11-10.42,2.79-1.33-.15-2.79L281.25,142c-1.69.77-2.93,2.33-2.93,3.7l-.27,10.59A2.76,2.76,0,0,0,278.94,158.66Zm-.12-12.91a4.14,4.14,0,0,1,2.63-3.25l3.88-1.62.1,1.75L282.65,144l-.12,11.45,2.7-1,.1,1.8-4.88,2.06a1.33,1.33,0,0,1-1.23,0,2.38,2.38,0,0,1-.67-1.92Z"/></svg>