<svg id="Artwork" xmlns="http://www.w3.org/2000/svg" viewBox="0 0 480 320"><defs><style>.cls-1{fill:#000;}</style></defs><g id="Layer_4" data-name="Layer 4"><path class="cls-1" d="M450.34,166.68,369.1,95.87a8.31,8.31,0,0,0-5.92-2L29.83,111.23a6.55,6.55,0,0,0-5.75,4.19c-.07.19-.11.37-.16.56h-.21v1a7.12,7.12,0,0,0,0,1.46v29.18a10.29,10.29,0,0,0,2.84,7.25L93.4,225h0l.09.32.21-.06a4.06,4.06,0,0,0,2.59,1h.18l352.14-15.86a3.94,3.94,0,0,0,1.44-.34c1.24-.55,4.55-2,5.53-19.08C456.34,177.79,454.57,169.69,450.34,166.68Zm-10.69,21.64a12.82,12.82,0,0,0-25.59,1.06h0l-13.24.56c-.2-3.68-1.24-7.15-3-8l-46.65,1.52a12.54,12.54,0,0,0-4,8.68l-59.76,2.51a4.27,4.27,0,0,0-5.86-1.46,4.22,4.22,0,0,0-1.63,1.77l-5.89.25a4.27,4.27,0,0,0-7.65.32l-5,.21a4.22,4.22,0,0,0-3.69-2.14,4.28,4.28,0,0,0-3.87,2.45l-5.66.24a4.27,4.27,0,0,0-5.86-1.5,4.35,4.35,0,0,0-1.67,1.81l-6.25.27a4.26,4.26,0,0,0-5.84-1.49,4.34,4.34,0,0,0-1.65,1.8l-41.41,1.73a5.27,5.27,0,0,0-7.26-1.68,5.33,5.33,0,0,0-1.9,2.07l-26,1.09a5.26,5.26,0,0,0-7.33-1.24,5.42,5.42,0,0,0-1.48,1.61l-42.17,1.76c.22-4,.61-8.1,1.08-11.87l345.72-16.82c.73,1.57,1.8,5.73,1.55,14.1Zm-74.26-84.5,72.25,62.46L98.46,182.79,33.63,119.05l326.66-17A7.21,7.21,0,0,1,365.39,103.82ZM31.73,147.7V128.39l61,59.92a159,159,0,0,0-1.48,22.77l-58.82-61.7A2.35,2.35,0,0,1,31.73,147.7Zm68.13,70.36a59.93,59.93,0,0,1-.64-12.48l41.56-1.74a5.28,5.28,0,0,0,10.56-.31h0v-.13l24.48-1a5.28,5.28,0,0,0,10.52-.44l40.3-1.68a4.28,4.28,0,0,0,8.36-.35l5.4-.23a4.29,4.29,0,0,0,8.35-.35l4.87-.2a4.28,4.28,0,0,0,8.3-.36l4.3-.18a4.28,4.28,0,0,0,8.29-.35l5.12-.22a4.29,4.29,0,0,0,8.37-.35l59.24-2.48a17,17,0,0,0,2.08,6.92L397.49,200c2-.39,3.05-3.49,3.3-7l13.61-.57a12.81,12.81,0,0,0,25.12-1l8-.34a65.08,65.08,0,0,1-1.6,11.45Z"/></g></svg>