<svg id="Artwork" xmlns="http://www.w3.org/2000/svg" viewBox="0 0 480 320"><defs><style>.cls-1{fill:#000;}</style></defs><path class="cls-1" d="M393.39,135.79v-.12a2.81,2.81,0,0,0,0-.29l0-.51c0-.11,0-.21,0-.32v-4.17l0-.48c0-.08,0-.15,0-.23l-.06-.5,0-.22-.1-.5a1.6,1.6,0,0,0-.05-.21l-.13-.5-.06-.2-.17-.49a1.67,1.67,0,0,0-.08-.2l-.2-.48-.09-.18-.24-.49-.09-.16-.28-.47a.86.86,0,0,0-.1-.16l-.31-.47-.1-.14-.35-.46-.11-.13-.39-.45a.52.52,0,0,0-.1-.11l-.41-.44a1.14,1.14,0,0,0-.11-.11l-.45-.43-.11-.1-.48-.41-.11-.09-.51-.4-.1-.08-.54-.39-.11-.07-.57-.38-.1-.06-.6-.36-.06,0L225.43,27.08l-.06,0-.61-.33-.1-.05-.65-.33-.09,0-.77-.35-1.6-.65-1.67-.55-1.73-.46-2.71-.53-2.77-.32-2.82-.1-2.83.11-2.78.32-1.81.33-1.77.43L199,25l-1.64.61-1.46.65-.1,0-.65.33-.1.05-.61.34,0,0h0L94,85l-.07,0-.58.35-.1.06-.57.38-.11.07-.54.39-.1.08-.51.4-.11.09-.48.42-.11.09-.45.43a.94.94,0,0,1-.1.1l-.42.44-.11.12-.38.45a1.13,1.13,0,0,0-.1.13l-.35.46-.11.14-.31.47a.86.86,0,0,0-.1.16l-.28.47-.09.17-.24.48-.09.18-.2.48-.08.2-.17.49L87,93l-.13.49a1.89,1.89,0,0,0-.05.23l-.09.49a2.07,2.07,0,0,0,0,.22l0,.5a1.64,1.64,0,0,0,0,.22l0,.48v4.45h0v.07l0,.39a1.48,1.48,0,0,0,0,.21v0h0v85.31h0v.13l0,.63v.74a1.34,1.34,0,0,0,0,.2V188a.66.66,0,0,0,0,.14l0,.37a.41.41,0,0,1,0,.11l0,.37.36,1.8,0,.1.16.52a.36.36,0,0,1,0,.11l.16.43,0,.14.2.48.06.11.15.33a.93.93,0,0,0,0,.1l.2.39.06.11.25.44.06.12.26.41.06.08,1.26,1.66,2,2,2.93,2,.09.06,160.56,92.68,0,0h0l.56.32,2.53,1.17,2.49.87,2.49.61.11,0,1,.18.11,0,1,.14.1,0,1.1.11h.12l1.18.08h.13l1.28,0h1.11l2.09-.13,1.83-.23,2-.38,2.84-.78.11,0,1.48-.55,2.25-1,.09,0,.67-.37.06,0h0l100.37-57.95.07,0,.61-.37.09-.05,1.38-.95,1.86-1.59,1.27-1.37.07-.08,1-1.45.07-.1.25-.42.07-.12.23-.43.06-.1.17-.35a1,1,0,0,0,0-.1l.17-.38.06-.13.2-.5s0-.07,0-.11l.34-1.08a.36.36,0,0,0,0-.1l.1-.41.23-1.45a.49.49,0,0,0,0-.12l0-.39a.76.76,0,0,0,0-.15v-1.07a.49.49,0,0,1,0-.12l0-.6c0-.11,0-.21,0-.31ZM219.74,36.46l.15-.11,1.76-1.46,155.06,89.52-3.22,2.34-1.82,1.14L216.89,38.54Zm50.37,150.79-9.55-5.51,95.53-55.15,9.55,5.51Zm2.34,7.52-2.3.12h-.71l-1.67-.11,1.36-.71.18,0a2.09,2.09,0,0,0,.35,0l.27,0h.35l.28,0a1.86,1.86,0,0,0,.34,0l.18,0Zm-18-16.58-10.41-6L339.53,117l10.41,6ZM205.65,31.88l2.07-.28,2.12-.09,2.12.09,2.06.26,1.44.3L212.89,34l-2.24,1.4a1.73,1.73,0,0,0-.32,0l-.27,0a2,2,0,0,0-.35,0l-.28,0a2,2,0,0,0-.34,0h0l-2.82-1.84-2-1.43Zm4.23,10.3,123.5,71.3-95.53,55.15-123.5-71.3Zm-11.79-7.27,1.52,1.24,2.14,1.61,1.1.79L108.29,93.14l-2.42-1.59-2.59-1.91ZM98,98.74l-.81-.83-.53-.78-.27-.69-.08-.63.08-.62.27-.7.53-.77.69-.73,1.36,1.1,2.14,1.62,2.11,1.47-1.52.7-1.89.75-1.55.53L98.33,99ZM156.3,225.85,98.45,192.46V114.07l57.85,33.4Zm8.39,4.7-.23-.07-2.16-1.16V150.76l.07,0,.16.06.43.14.15,0,.45.12.14,0,1,.52Zm16.88,10L171,234.38V156l10.28,5.94.32.29Zm8.63,5.92-2.61-1.51c0-.06,0-.11,0-.17V165.51l.13.09,2.5,1.44Zm62.86,35.37-43.31-24.09-13.55-7.82V170.5l56.86,32.82ZM105.11,103l1.4-.65,1.72-.89,154.33,89.1-1.88.75-1.64.55ZM281.23,285.11l-2,.79-2.09.59-2.23.44-2.33.26-2.37.09-1.58,0-2.35-.21-2.26-.38-2.13-.54-2-.7-.78-.34V206.2l1.05.34,1.74.47,2.71.53,2.78.32,2.82.11h.95l2.81-.18,2.77-.39,1.79-.37,1.75-.47,1-.32Zm-.05-93.21-1.56-.53-2-.77,94.11-54.33,1.78.92,1.34.62Zm99.62,35.83L288,281.28V202.9l92.77-53.56Zm2.88-96.94-.22.87-.44.75-.71.82-.84.7-1.47-.5-1.9-.76-1.6-.72.27-.17.17-.12,3.41-2.48.15-.12,1.6-1.32.72.74.52.78.27.7.08.62Z"/><path class="cls-1" d="M178.6,171.14l-4.75-2.94a.89.89,0,0,0-1.37.76v29.36a3,3,0,0,0,1.53,2.61l4.09,2.31a1.05,1.05,0,0,0,1.57-.92l.05-29.15A2.39,2.39,0,0,0,178.6,171.14Z"/></svg>