<svg id="Artwork" xmlns="http://www.w3.org/2000/svg" viewBox="0 0 480 320"><defs><style>.cls-1{fill:#000;}</style></defs><g id="Layer_5" data-name="Layer 5"><path class="cls-1" d="M29.22,94.79l.26,70.35a9.44,9.44,0,0,0,4.85,8.23l4.09,2.27a10.24,10.24,0,0,0,6.69,1.15l1.26-.21a8.55,8.55,0,0,0,6.94-6.41l107.8,56.57V227h.38l-.1,9.24c-.16,4.27,1.79,8.3,5.63,11.57,6,5.08,18.59,9.13,33.43,9.13a81.12,81.12,0,0,0,16-1.57c73.14-12.67,213.29-36.82,220.53-37.58,9.49-1,12.59-9,12.38-14.3l1.18-71.34a6.66,6.66,0,0,0,.06-3.32v-.36h-.08a6.59,6.59,0,0,0-4.29-4.45L274.59,65.64A49.34,49.34,0,0,0,253,63.46c-2,.23-202,22.93-214.12,24.41-2.61.32-8.74,1-9.49,5.81a5.15,5.15,0,0,0,0,1.11Zm321.84,5.29L124.55,134.4,41.36,95.61c22.1-2.58,210.53-24,212.53-24.2A41.14,41.14,0,0,1,272,73.22ZM137.68,140.51l229.16-34.72a3.33,3.33,0,0,0,.6-.16l16,5.45L153.3,146.25a4,4,0,0,0-1.75.74Zm300.75-10.72L212.22,162.37c-11.91,1.86-29.61.46-42.39-6.84l-.3-.16-5.67-2.64,236-36.06Zm2.94,73.74v.14h0a5.63,5.63,0,0,1-5.25,6.12c-8.61.86-184.43,31.27-216.4,36.8V169.37l222.74-32.09M172.2,241.62c-2-1.67-2.88-3.39-2.76-5.28l-.25-72.15c10.16,4.91,22.38,6.91,33,6.91a74.12,74.12,0,0,0,9.53-.59V248c-15.29,2.29-32.51-.36-39.51-6.36ZM55.34,162.14l-.63-.27-1-51.68,107.44,50.1v57.38Zm-17.19,1c-.45-.26-.89-60.6-.89-60.6l8.38,3.91,1.14,57.85c0,1.58-.1,5.15-4.52,5.16S38.15,163.12,38.15,163.12Z"/><path class="cls-1" d="M380.42,202.83l.51.29,15.93,7.46.13-.3a21.33,21.33,0,0,0,9.22,2.09,23.78,23.78,0,0,0,15-5.65,32.72,32.72,0,0,0,11.06-18.93c3.25-15.89-4.9-31.06-18.14-34l-13.62-5.73-.34-.07c-6.65-1.35-13.51.5-19.29,5.23a32.67,32.67,0,0,0-11,18.92C367.39,184.41,371.64,196.73,380.42,202.83Zm22.92,2.29c-4.58-.93-8.47-4.08-11-8.71a25.76,25.76,0,0,1-2.13-17.11c2.24-11.09,10.54-19,19.29-19a14.45,14.45,0,0,1,2.86.29c9.72,2,15.59,13.58,13.1,25.87a25.77,25.77,0,0,1-8.64,14.88c-4.14,3.37-8.94,4.76-13.52,3.79Zm-19.15-8.18c-6.4-4.59-9.41-13.95-7.53-23.35a25.75,25.75,0,0,1,8.65-14.93c4-3.33,8.71-4.7,13.19-3.89l1.58.66c-8,3.71-14.57,12-16.69,22.43a33.16,33.16,0,0,0,1.77,19.56l-1-.48Z"/></g><path class="cls-1" d="M332.34,173.21a8.36,8.36,0,0,0-1.5.13L219.27,192.19l-.13,8.12,113-19.09a1,1,0,0,1,.78.22.91.91,0,0,1,.34.73v18.49a.64.64,0,0,1-.54.63L218.84,218.81l-.13,8.11L334,209.2a8.59,8.59,0,0,0,7.32-8.54V182.21A9,9,0,0,0,332.34,173.21Z"/></svg>