<svg xmlns="http://www.w3.org/2000/svg" viewBox="0 0 480 320"><defs><style>.cls-1{fill:#000;}</style></defs><g id="Layer_1" data-name="Layer 1"><path class="cls-1" d="M295.53,193a3.14,3.14,0,0,0-.17-.67l-.36-1a3.78,3.78,0,0,0-.51-1l-.6-.83a3.8,3.8,0,0,0-.78-.82l-.84-.66a4.18,4.18,0,0,0-1-.57l-.9-.35a3.58,3.58,0,0,0-.79-.23l-1-.18a4.36,4.36,0,0,0-1.14,0l-1.07.12a3.93,3.93,0,0,0-1.16.32l-1,.41a4.83,4.83,0,0,0-.76.44l-.89.66a4,4,0,0,0-.68.62l-.71.84a3.81,3.81,0,0,0-.54.81l-.48.95a4.44,4.44,0,0,0-.27.72l-.3,1.07a3.89,3.89,0,0,0-.15,1.07v1.14a4.21,4.21,0,0,0,.16,1.12l.3,1a4.09,4.09,0,0,0,.31.75l.48.9a4,4,0,0,0,.59.83l.71.77a4.13,4.13,0,0,0,.89.72l.89.54a4.18,4.18,0,0,0,1.09.45l1,.23a4,4,0,0,0,1,.12h1.07a4.05,4.05,0,0,0,.92-.1l1-.24a4.2,4.2,0,0,0,1.14-.46l.9-.54a5.3,5.3,0,0,0,.54-.39l.84-.72a3.89,3.89,0,0,0,.79-.92l.59-1a3.38,3.38,0,0,0,.38-.79l.36-1a3.22,3.22,0,0,0,.17-.68l.18-1.07a3.61,3.61,0,0,0,0-1.31Zm-7.92,2.07-.12.13,0-.16.18-.27Z"/><path class="cls-1" d="M447.05,146.41s0-.07,0-.11a.41.41,0,0,0,0-.11l0-.59a7.88,7.88,0,0,0-.32-1.86v0a8.69,8.69,0,0,0-.83-1.9l-.12-.2c-.2-.29-.4-.57-.59-.86l-.17-.21a8.23,8.23,0,0,0-1.45-1.44l-.36-.27a5.21,5.21,0,0,0-.55-.36l-.53-.28-.1-.06-2.39-1.2c-.1-.05-.2-.07-.3-.11a2.88,2.88,0,0,0-.31-.13l-.77-.24-.34-.09-.4-.08a7.68,7.68,0,0,0-1.72-.19h-.39l-.13,0h-.12l-4.45.28a4.13,4.13,0,0,1-2.13-.43L344.19,93.66a8.36,8.36,0,0,0-4.4-.65L40.51,112l-.09,0a3.68,3.68,0,0,0-1,.18l-.36.12-.18.08c-.1,0-.21,0-.31.1l-.37.16a7.88,7.88,0,0,0-1.69,1,8.24,8.24,0,0,0-1.12,1l-.12.14a7.57,7.57,0,0,0-.94,1.25l0,0a8.21,8.21,0,0,0-.79,1.7l-.12.35a3.07,3.07,0,0,0-.2.5l-.06.18c0,.1,0,.19-.08.29l-.06.25A4.4,4.4,0,0,0,33,120v52.66A4,4,0,0,0,34.73,176l.18.12a4.17,4.17,0,0,0,.46.26l0,0h0l91,43.38a3.22,3.22,0,0,0,.31.68l.59,1a3.93,3.93,0,0,0,.62.79l.84.84a4.43,4.43,0,0,0,.71.57l.95.59.31.16.09.06,1.69.8.27.15.37.16.06,0h0l.51.22.41.16,1,.29a3.75,3.75,0,0,0,1.19.19h1.33l1.93-.12,4.19.46.21,0,1.11.05,1.09.11.21,0,1.25.06H149l1.16.06h5.51l4.94-.24.23,0,1-.11,1-.05.21,0,1.13-.12.28,0,2.78-.39.39-.07,2.52-.54.15,0,.65-.18.32-.1L172,225l.12,0,1-.39.39-.16.4-.21,204.73-12.92.41.08.26,0,3.38.36.19,0,6.16.3h5.43l5-.24.21,0,5.54-.6.31-.05.77-.15.77-.11.31-.05,1.67-.37.2,0,1.47-.45.43-.16,1.07-.48.36-.18,0,0,25.47-1.61a1.25,1.25,0,0,0,.19,0,1.18,1.18,0,0,0,.26,0l1-.18a4.61,4.61,0,0,0,.64-.16l1-.36a4.33,4.33,0,0,0,.89-.44l.89-.6a4.78,4.78,0,0,0,.5-.39l.77-.71a4.78,4.78,0,0,0,.52-.58l.65-.9c.1-.16.21-.32.31-.49l.54-1a3.61,3.61,0,0,0,.31-.79l.3-1.07a3.59,3.59,0,0,0,.14-.85l.06-1.08a.41.41,0,0,0,0-.11s0-.07,0-.11ZM126,162.81a4.75,4.75,0,0,0-.14.84l-.06,1.08s0,.07,0,.11,0,.07,0,.11v45.64L41,170.18V130.53c0-3-.55-7.63,5.92-3.81l79.13,36Zm8.79-7.75a1.46,1.46,0,0,0-.22,0l-.22,0-.68.12a8.58,8.58,0,0,0-1.3.34l-.69.24a5,5,0,0,0-.7.34L65.29,126.3c-28.47-8.62-2.88-7.71,1.47-8l273-17.29.15,0,.39,0,.3.11a4.5,4.5,0,0,0,.49.14,4.32,4.32,0,0,1,1,.35l57.67,28.84c13.28,6.72,18.66,7.92-1.61,7.92Zm304.3,42.47,0,.53-.07.24-.2.37-.25.35-.26.24-.21.14-.76.17-58.43,3.69a3.71,3.71,0,0,0-.67,0L137.32,218.5H137l-.37-.15-.21-.22-.2-.54-.06-.5V166.3l.06-.53.12-.44.14-.29.45-.51.61-.31.38-.06,299.91-18.93.43,0,.17,0,.25.16.34.49.05.61Z"/><path class="cls-1" d="M232,171.4l-67.26,5.19a4.17,4.17,0,0,0-3.82,4.12v18.44a3.88,3.88,0,0,0,1.24,2.86,3.94,3.94,0,0,0,2.76,1h.18l67.26-5.19a4.17,4.17,0,0,0,3.82-4.12V175.26A3.86,3.86,0,0,0,232,171.4Zm-3.82,18.74L169,194.71V184.28l59.26-4.58Z"/><path class="cls-1" d="M381.46,171.55a7.13,7.13,0,0,0,6.19-7,5.55,5.55,0,0,0-6.21-5.69,7.11,7.11,0,0,0-6.18,7A5.54,5.54,0,0,0,381.46,171.55Z"/><path class="cls-1" d="M146.7,181.57a7.11,7.11,0,0,0,6.19-7,5.54,5.54,0,0,0-6.2-5.69,7.13,7.13,0,0,0-6.19,7A5.54,5.54,0,0,0,146.7,181.57Z"/><path class="cls-1" d="M429.31,151.2a7.13,7.13,0,0,0-6.19,7,5.55,5.55,0,0,0,6.21,5.69,7.12,7.12,0,0,0,6.18-7A5.54,5.54,0,0,0,429.31,151.2Z"/><path class="cls-1" d="M429,184.09a7.12,7.12,0,0,0-6.19,7,5.54,5.54,0,0,0,6.2,5.69,7.13,7.13,0,0,0,6.19-7A5.54,5.54,0,0,0,429,184.09Z"/><path class="cls-1" d="M147.3,201.47a7.13,7.13,0,0,0-6.19,7,5.54,5.54,0,0,0,6.2,5.68,7.11,7.11,0,0,0,6.19-7A5.54,5.54,0,0,0,147.3,201.47Z"/><path class="cls-1" d="M381.47,182.75a7.11,7.11,0,0,0-6.18,7,5.54,5.54,0,0,0,6.2,5.69,7.13,7.13,0,0,0,6.19-7A5.55,5.55,0,0,0,381.47,182.75Z"/><path class="cls-1" d="M393.85,169.89a7.13,7.13,0,0,0-6.19,7,5.55,5.55,0,0,0,6.21,5.69,7.13,7.13,0,0,0,6.19-7A5.56,5.56,0,0,0,393.85,169.89Z"/><path class="cls-1" d="M370.12,171.94a7.13,7.13,0,0,0-6.19,7,5.54,5.54,0,0,0,6.21,5.69,7.11,7.11,0,0,0,6.18-7A5.54,5.54,0,0,0,370.12,171.94Z"/></g></svg>