<svg xmlns="http://www.w3.org/2000/svg" viewBox="0 0 480 320"><defs><style>.cls-1{fill:#000;}</style></defs><g id="Layer_1" data-name="Layer 1"><path class="cls-1" d="M448.33,154.51a4.07,4.07,0,0,0-.17-1.1l-.14-3.9a3.69,3.69,0,0,0-.12-.82l-.23-1.64a4,4,0,0,0-.39-1.22l-1.09-2.2a4,4,0,0,0-.64-.92l-1.88-2-.09-.08a.73.73,0,0,0-.08-.09l-96.89-93a1.09,1.09,0,0,0-.17-.13,1.85,1.85,0,0,0-.14-.14l-1.37-1.07-2.49-2-.1-.07-.76-.64a3.75,3.75,0,0,0-.51-.38l-2.83-1.72a3.06,3.06,0,0,0-.57-.29l-3.45-1.41-.11,0-3.76-1.41-.4-.13L325.72,37l-.2,0L321,36l-.3-.05-4.86-.63-.27,0-5-.31h-.13l-5-.16h-.25l-5,.16-.26,0-4.86.47h-.13L290,36.1l-.08,0h-.08L61.43,75.47l-.06,0H61.3l-4.55.94-.36.09-4.17,1.29-3.76,1.25a3,3,0,0,0-.45.18l-3.3,1.57-.36.2-2.83,1.72a4.82,4.82,0,0,0-.51.38l-.22.19a3.7,3.7,0,0,0-.33.21l-2.51,2-.09.1-.11.08-2.19,2a4.5,4.5,0,0,0-.57.66l-1.41,2a3.56,3.56,0,0,0-.34.6l-.94,2a4.15,4.15,0,0,0-.36,1.37l-.06.84a3.58,3.58,0,0,0-.11.73l-.15,4.24a2.17,2.17,0,0,0,0,.36,2.06,2.06,0,0,0,0,.26v20.38c0,.13,0,.26,0,.39s0,.26,0,.39v21.16a3.71,3.71,0,0,0,.05.48,3.39,3.39,0,0,0-.05.47v21a1.33,1.33,0,0,0,0,.21v.06a1.38,1.38,0,0,0,0,.2v4.24c0,.06,0,.12,0,.18a1.08,1.08,0,0,1,0,.18l.16,1.72a3.88,3.88,0,0,0,.22,1l.63,1.72a4.1,4.1,0,0,0,.48.93l1.1,1.57a3.57,3.57,0,0,0,.3.38l1.41,1.57.11.09.1.12,96.89,93a1.66,1.66,0,0,0,.21.16,1.53,1.53,0,0,0,.18.18l3.44,2.84.14.09.1.09,2.66,1.88a3.35,3.35,0,0,0,.45.27l3.29,1.73a4.61,4.61,0,0,0,.51.22l3.91,1.41.22.07,4.24,1.26.22.06,4.71,1.09a2.47,2.47,0,0,0,.29.06l5,.78.26,0L168,285h.25l5.33.16h.23l5.33-.16h.24l5.33-.47.14,0,5-.63h.19l228.42-39.51h.07l4.08-.78a2.49,2.49,0,0,0,.37-.09l7.41-2.21a3.06,3.06,0,0,0,.48-.17l3.13-1.42.23-.11,2.67-1.41a3.66,3.66,0,0,0,.49-.31l2.35-1.72.07-.06L440,236l2.37-1.93a14.67,14.67,0,0,0,4-4.82c1.4-2.45,2.08-4.48,2-6V219.1s0-.1,0-.15,0-.1,0-.16V198.41a4,4,0,0,0-.09-.86,4.12,4.12,0,0,0,.09-.86V176.46a4.15,4.15,0,0,1,0-1.72Zm-8.18,65.42-.59,1.19-1.21,1.44-1.89,1.63-2.56,1.62-3,1.52-3.7,1.28-4.34,1.19-4.67,1.06L189.88,270.18l-5,.76-5.09.45-5.25.15-5.1-.15-5.31-.45-5-.6-4.57-.89-4.27-1.18L146.57,267l-3.3-1.58-2.72-1.5-2.1-1.7L41.69,169.35l-1.12-1.11-.52-1-.34-1-.1-1.09v-7.48L133,247.39c.06.06.13.1.19.15a.9.9,0,0,0,.18.16l2.5,1.88a2.64,2.64,0,0,0,.35.23l3.13,1.89.33.17,3.61,1.73.42.17,4.07,1.41.25.08,4.54,1.25.31.07,4.86.94.28.05,5.17.62.14,0,5.49.47h.22l5.33.16h.23l5.49-.16h.24l5.33-.47.25,0,5.17-.79h.08L419.61,218l.07,0h.07l4.54-.95.33-.08,4.23-1.25.13,0,3.76-1.26a2.26,2.26,0,0,0,.39-.15l3.45-1.57a2.31,2.31,0,0,0,.35-.18l3-1.72a2.25,2.25,0,0,0,.36-.24l.06,0v8.13Zm-17.64-10.67-4.32.9L189.88,249.49l-5,.76-5.09.45-5.25.15-5.1-.15-5.31-.46-5-.6-4.57-.88-4.27-1.18-3.74-1.3-3.23-1.54-2.8-1.68-2.15-1.61L41.77,148.74l-1.19-1.31-.67-1.16-.3-.87v-1.23a3.43,3.43,0,0,0,0-.47,3.73,3.73,0,0,0,0-.48v-7.41L133,225.44l.19.16a1.3,1.3,0,0,0,.18.15l2.5,1.89.35.23,3.13,1.88a4.16,4.16,0,0,0,.47.24l3.6,1.56.16.07,4.08,1.57a4,4,0,0,0,.49.15l4.61,1.11,4.86,1.1.4.07,5.17.63h.14l5.49.47h5.78l5.49-.15.24,0,5.33-.47h.13l5.17-.63.09,0h.11l228.43-39.51h.13l4.54-.94.2-.05,4.23-1.09.26-.08,3.76-1.25a3.52,3.52,0,0,0,.39-.16l3.45-1.57a2.31,2.31,0,0,0,.35-.18l3-1.72a2.25,2.25,0,0,0,.36-.24l.06,0v8a4,4,0,0,0-.15,1v1.43l-.27.87-.86,1.24-1.4,1.41L435.72,204l-2.63,1.52-3.08,1.4-3.5,1.17ZM39.61,109.16l93.58,89.63.13.1.11.12,2.51,2a2.14,2.14,0,0,0,.39.28l3,1.88a4.14,4.14,0,0,0,.55.29l3.6,1.57.33.12,4.23,1.41.21.07,4.54,1.25.31.07,4.86.94.16,0,5.17.78a2.2,2.2,0,0,0,.36,0l5.34.32h.11l5.33.16h.23l5.49-.16h.24l5.33-.47.14,0,5-.63H191l228.42-39.51h.08l4.86-.94.3-.07,4.55-1.25.37-.12,4.08-1.57.22-.09,3.45-1.57c.16-.08.32-.16.48-.26l2.48-1.57v12.5a4,4,0,0,0-.15,1.05v1.59l-.25.8-.87,1.16-1.48,1.61L435.72,182l-2.63,1.52L430,185l-3.43,1.15-4,1-4.39.9L189.94,227.53l-5,.61-5.15.45-5.31.15h-5.1l-5.25-.45-4.9-.59-4.6-1-4.3-1-3.75-1.45-3.29-1.43-2.73-1.64-2.15-1.61L41.77,126.79l-1.19-1.31-.67-1.16-.3-.87v-1.39a1.92,1.92,0,0,1,0-.78ZM48.34,88l2.88-1.38,3.44-1.15,3.9-1.19,4.3-.89L291.12,44l4.72-.61,4.67-.45,4.76-.15,4.83.15,4.83.31,4.57.59,4.3.89,3.94,1,3.51,1.31,3.1,1.27,2.27,1.39,1.86,1.59,96.81,92.75,1.17,1.4.58,1.07.11.75-.13.87-.49,1.05-1,1.22-1.74,1.49-2.22,1.44-2.88,1.37L425.11,156l-3.81,1-4.37.9L188.58,197.29l-4.48.75-4.75.29-4.89.16h-4.77l-4.75-.45-4.49-.6-4.31-.89-4-1-3.56-1.14L145.7,193l-2.43-1.49-2-1.61L44.65,97.37l-1.28-1.52-.52-1L42.66,94l.12-.81.47-1,1.08-1.4L46,89.4Z"/><path class="cls-1" d="M232.43,180.18c4.21-.42,7.46-2.46,7.25-4.57s-3.79-3.48-8-3.07-7.47,2.46-7.26,4.57S228.21,180.59,232.43,180.18Z"/><path class="cls-1" d="M282.82,170.09c4.21-.41,7.46-2.46,7.26-4.56s-3.8-3.48-8-3.07-7.47,2.46-7.26,4.57S278.6,170.51,282.82,170.09Z"/><ellipse class="cls-1" cx="332.83" cy="156.19" rx="7.67" ry="3.84" transform="translate(-13.67 33.27) rotate(-5.61)"/></g></svg>