<svg xmlns="http://www.w3.org/2000/svg" viewBox="0 0 480 320"><defs><style>.cls-1{fill:#000;}</style></defs><g id="Layer_1" data-name="Layer 1"><path class="cls-1" d="M340.72,267.59v-2s0,0,0-.06a.48.48,0,0,0,0-.12s0,0,0,0v-9.72a2.2,2.2,0,0,0,0-.36c0-.08,0-.15,0-.23s0-.14,0-.22v-9.71a2.58,2.58,0,0,0,0-.39c0-.06,0-.13,0-.2s0-.14,0-.22v-.06h0v-9.72s0-.05,0-.07,0-.05,0-.08v-.44a2.7,2.7,0,0,0-.16-.9V71.74a4,4,0,0,0-1.85-3.37,4,4,0,0,0-1.58-2.5,3.94,3.94,0,0,0-1.41-2.59l-1.26-1c-.06-.06-.14-.09-.21-.15a4,4,0,0,0-.44-.38L283.92,26l-.11-.06a.87.87,0,0,1-.1-.08l-1.18-.73a3.67,3.67,0,0,0-.48-.26l-1.47-.66-.33-.13-1.69-.59-.27-.09-1.92-.51-.33-.08-4.32-.74-.27,0-2.28-.22h-.26l-2.36-.08h-2.81l-2.28.15h-.13l-2.28.22-.28,0-2.2.37-.08,0h-.07L153.09,43.82h0l-2.06.45-.24,0-1.84.52-.24.07L147,45.5a4.56,4.56,0,0,0-.55.24l-1.4.74-.26.14-1.18.74a4.48,4.48,0,0,0-.44.32l-.88.74a3.9,3.9,0,0,0-.77.85l-.59.88a4.57,4.57,0,0,0-.53,1.17l-.22.81a4.15,4.15,0,0,0-.14,1v.88a3.71,3.71,0,0,0,.05.48,4,4,0,0,0-.15,1V213.91a2.78,2.78,0,0,0-.65,1.78v.44s0,.05,0,.07,0,.05,0,.07v9.79c0,.05,0,.09,0,.13a.56.56,0,0,1,0,.13s0,.07,0,.11v10.16s0,.08,0,.13a.56.56,0,0,1,0,.13v0a.77.77,0,0,0,0,.15v10.09s0,.07,0,.11,0,.07,0,.11v2.06s0,.08,0,.13a.48.48,0,0,1,0,.12l.08.81a2.65,2.65,0,0,0,.33,1.1l.44.81a2.49,2.49,0,0,0,.29.43l.67.81a2.45,2.45,0,0,0,.46.45l.28.22,1,.92h0l.59.52.14.09.1.09,52.92,37.17.08.05.05,0,1.18.73.33.18,1.48.67.26.1,1.77.59.16.05,1.91.51.14,0,2.06.44.22,0,2.21.3h.11L211,297h.17l2.44.08H216l2.35-.08.27,0,4.52-.59h.12l103.86-19h.05L329,277l.16,0,1.69-.45.18-.05,1.55-.51.31-.13,1.4-.66.12-.06,1.11-.59a4.4,4.4,0,0,0,.39-.26l.95-.73a.34.34,0,0,0,.06-.06l.08-.05.9-.79.36-.28a2,2,0,0,0,.37-.34l.74-.81a2.7,2.7,0,0,0,.43-.63l.44-.89a2.9,2.9,0,0,0,.26-.75l.14-.81c0-.1,0-.19,0-.28s0-.15,0-.23v-.06ZM194.73,98l.17.1a.39.39,0,0,0,.1.08l1.32.81.44.23,1.62.73.25.11,1.76.66a3.19,3.19,0,0,0,.44.13l2.06.52.21.05,2.28.44.14,0,.49.08a4,4,0,0,0-.14,1v154l-1.35-.27-1.86-.54L201,255.6l-1.24-.59h0a2.93,2.93,0,0,0-.56-.42l-.53-.3-51.37-36.15a4,4,0,0,0,.64-2.15V63.91Zm26.7,4.21.27,0,2.36-.37.08,0h.09L325,81.4h0l2.06-.44a1.89,1.89,0,0,0,.34-.09l3.77-1.2.37-.15,1-.44V234.24a3.93,3.93,0,0,0,.47,1.84h0l-1.16.53-1.48.51-1.74.47-2,.42L222.88,257l-2.15.34-2.32.21-2.42.14h-2.15a2.4,2.4,0,0,0,0-.28V102.93c0-.12,0-.24,0-.36h2.47l2.51-.15h.11ZM208.24,263l2.52.23,2.58.15h2.9l2.59-.16,2.5-.22.2,0,2.28-.37h.06l103.86-19h.09l2.06-.44.14,0,1.91-.52.2-.06,1.69-.59a1.09,1.09,0,0,0,.23-.09l1-.46v2.71h0a.51.51,0,0,0,0,.13v0l-.09.17-.3.34-.62.48-1,.55-1.29.56-3.19,1.06-1.88.34h0l-103.84,19-2.15.34-2.32.21-2.42.14h-2.41l-2.49-.07-2.26-.21-2.28-.34-2.07-.42-1.86-.46-1.58-.57-1.28-.61-1.13-.69L145.91,227l-.65-.5-.29-.36-.05-.23v-2.43L195.46,259l.1.06.06,0,1.32.81.26.14,1.54.74.36.14,1.92.61,2.06.59.22.05,2.21.45.22,0Zm126.81-8.15-.44.51-.63.54-.89.52-1.29.55-1.52.53-1.67.47-1.95.42L301,263v-.68a2.79,2.79,0,0,0,.67-1.82v-.29h0v0a2.32,2.32,0,0,0-.05-.53s0,0,0,0a1.06,1.06,0,0,0-.06-.19,1.71,1.71,0,0,0-.13-.38,1.09,1.09,0,0,0-.08-.15l26.36-4.82h.07l2.13-.44.14,0,2-.52a1.52,1.52,0,0,0,.28-.09l1.76-.66.23-.09.75-.36v2.71ZM195.46,280.12l.18.1.08.06L197,281l.16.08,1.54.74.26.11,1.84.66.27.08,2.06.52.14,0,2.2.44.13,0,2.43.37.17,0,2.52.23,2.58.14h.24l5.08-.15.25,0,2.5-.29.12,0,2.28-.37h.06l103.86-18.91h.07l2.13-.44a1.55,1.55,0,0,0,.23-.06l2-.59.19-.06,1.76-.66.13-.05.85-.37v2.69l0,.19-.44.52-.63.53-.89.53-1.29.55-1.52.53-1.67.47-1.94.41-103.79,19-2.15.35-2.32.2-2.42.14h-2.41l-2.4-.13-2.35-.21-2.32-.28-2-.4-1.86-.53-1.66-.53-1.24-.6-1.13-.68L146,248.12l-.71-.6-.32-.35V244.5Zm0-10.6.1.05.06.05,1.32.81.26.14,1.54.73.26.11,1.84.66.27.08,2.06.52.14,0,2.2.44.13,0,2.43.37.17,0,2.43.22h.17l2.66.08h2.74l2.59-.15,2.5-.22.2,0,2.28-.36h.06l25.27-4.62c0,.05,0,.11,0,.17s0,.13,0,.2v2.58a2.89,2.89,0,0,0,.2,1l-26.41,4.81-2.2.35-2.32.28-4.83.14-2.36-.14-2.35-.21-2.28-.35-2.07-.41-1.86-.47-1.58-.56-1.34-.64-1.11-.62L145.9,237.48l-.64-.5-.29-.35-.05-.24V234ZM149.9,53l1.29-.45,1.6-.45,1.94-.41L258,30.37l2-.33,2.09-.2,2.09-.14h2.23l2.17.07,2,.19,3.92.68,1.61.43,1.39.49,1.06.47.84.53,49.79,35.66.06,0,.17.16,1.25,1,.18.13,0,1.16-.52.45-.76.45-1.1.49-3.23,1-1.85.4L222.73,93.9l-2.13.33-2.31.21-2.33.13h-2.4l-2.33-.06-2.25-.2L206.83,94l-2.11-.41L203,93.13l-1.43-.54L200.29,92l-1-.6-49.49-36,0,0a4,4,0,0,0-1.06-1.76Z"/></g></svg>