<svg xmlns="http://www.w3.org/2000/svg" viewBox="0 0 480 320"><defs><style>.cls-1{fill:#000;}</style></defs><g id="Layer_1" data-name="Layer 1"><path class="cls-1" d="M295.53,206.63a3.14,3.14,0,0,0-.17-.67l-.36-1a3.88,3.88,0,0,0-.51-1l-.6-.84a4.32,4.32,0,0,0-.78-.82l-.84-.65a3.86,3.86,0,0,0-1-.57l-.9-.36a3.56,3.56,0,0,0-.79-.22l-1-.18a4,4,0,0,0-1.14,0l-1.07.12a4.24,4.24,0,0,0-1.16.31l-1,.42a4.16,4.16,0,0,0-.76.44l-.89.65a3.69,3.69,0,0,0-.68.63l-.71.83a4.39,4.39,0,0,0-.54.81l-.48,1a4.44,4.44,0,0,0-.27.72l-.3,1.07a3.89,3.89,0,0,0-.15,1.07v1.13a4.34,4.34,0,0,0,.16,1.13l.3,1a3.91,3.91,0,0,0,.31.76l.48.89a4,4,0,0,0,.59.83l.71.78a4.13,4.13,0,0,0,.89.72l.89.53a3.86,3.86,0,0,0,1.09.45l1,.24a4,4,0,0,0,1,.12h1.07a4.06,4.06,0,0,0,.92-.11l1-.23a4.22,4.22,0,0,0,1.14-.47l.9-.53a4.19,4.19,0,0,0,.54-.4l.84-.71a4.33,4.33,0,0,0,.79-.92l.59-1a3.58,3.58,0,0,0,.38-.79l.36-1a3.14,3.14,0,0,0,.17-.67l.18-1.07a3.66,3.66,0,0,0,0-1.32Zm-7.92,2.07-.12.13,0-.16.18-.27Z"/><path class="cls-1" d="M447.05,136.36s0-.08,0-.11a.48.48,0,0,0,0-.12l-.06-1.07a4,4,0,0,0-.15-.91l-.3-1a4.31,4.31,0,0,0-.41-.93l-.54-.89a3,3,0,0,0-.28-.41l-.66-.84a3.87,3.87,0,0,0-.7-.7l-.78-.6a3.94,3.94,0,0,0-.55-.35l-.53-.29-.1-.06-2.39-1.19c-.1,0-.2-.08-.3-.12a2.88,2.88,0,0,0-.31-.13l-.77-.24-.34-.09-.84-.17a3.93,3.93,0,0,0-.84-.09h-1.08l-5.57.35L342.43,82.84l-.2.4a4.14,4.14,0,0,0-.92-.17l-.39,0-.14,0-.32,0h-.2a3.62,3.62,0,0,0-.46,0l-299.29,19-.09,0a4.13,4.13,0,0,0-1,.18l-.36.12-.18.08-.31.1-.83.36a4,4,0,0,0-.83.47l-.71.54a3.71,3.71,0,0,0-.55.5L35,105a3.37,3.37,0,0,0-.46.61l-.48.77a4.28,4.28,0,0,0-.39.84l-.27.8a2.85,2.85,0,0,0-.2.51l-.06.17a1.74,1.74,0,0,0-.07.29c0,.09-.05.17-.07.25A4.4,4.4,0,0,0,33,110v72.72A4,4,0,0,0,34.73,186l.18.12a4.09,4.09,0,0,0,.46.25l0,0h0l91,43.38a3.76,3.76,0,0,0,.31.68l.59,1a4.39,4.39,0,0,0,.62.8l.84.83a3.55,3.55,0,0,0,.71.57l.95.59c.1.07.21.11.31.17l.09.05,1.69.81.27.14.37.16.06,0h0l.51.23a2.86,2.86,0,0,0,.41.15l1,.3a4,4,0,0,0,1.19.18h1.33l1.93-.12,4.19.47H144l1.1.06,1.09.11h.21l1.25.06H149l1.16.05h5.51l5-.24h.22l1-.11,1-.06h.21l1.13-.12.28,0,2.78-.39.29,0,2.62-.56.15,0,.65-.17.32-.1L172,235l.12,0,1-.38c.14-.05.26-.11.39-.17l.4-.2,204.73-12.92.41.07.26,0,3.38.36h.19l6.16.3h5.43l5-.24h.2l5.55-.61.31-.05.77-.15.77-.1c.1,0,.21,0,.31-.06l1.67-.37.36-.1,1.16-.35a4,4,0,0,0,.58-.21l1.07-.47.36-.19h0l25.47-1.61a1.25,1.25,0,0,1,.19,0l.26,0,1-.18a4.64,4.64,0,0,0,.64-.17l1-.36a4.1,4.1,0,0,0,.89-.44l.89-.6a3.11,3.11,0,0,0,.49-.39l.78-.71a4.78,4.78,0,0,0,.52-.58l.65-.89a3.21,3.21,0,0,0,.31-.5l.54-1a3.69,3.69,0,0,0,.31-.8l.3-1.07a3.51,3.51,0,0,0,.14-.85l.06-1.07a.48.48,0,0,0,0-.12s0-.07,0-.11Zm-68.21,76.9a3.71,3.71,0,0,0-.67,0L137.32,228.5H137l-.37-.15-.21-.21-.2-.54-.06-.51V156.25l.06-.54.12-.43.14-.3.45-.51.61-.3.38-.07,299.91-18.92.43,0,.17,0,.25.17.34.48.05.62v71l0,.53-.07.24-.2.38-.25.34-.26.24-.21.14-.76.17ZM43.57,179.58l-.93,1.4-1.69-.8V114L126,152.63l0,.12a4.86,4.86,0,0,0-.14.85l-.06,1.07s0,.08,0,.11,0,.08,0,.11v65.7L42.83,181.07l.92-1.37ZM134.75,145a1.43,1.43,0,0,0-.22,0h-.22l-1,.18a4.91,4.91,0,0,0-.63.17l-1,.36a4,4,0,0,0-.7.33L50,109.32,339.71,91l.15,0,.39,0,.3.11a4.11,4.11,0,0,0,1,.2l72.14,36.07Z"/><path class="cls-1" d="M228.12,171.73l-67.26,3a4,4,0,0,0-3.82,4V197.2a4,4,0,0,0,4,4h.19l67.25-3a4,4,0,0,0,3.82-4V175.72a4,4,0,0,0-4.18-4Zm-3.82,18.61L165,193V182.58l59.26-2.67Z"/><path class="cls-1" d="M288.35,162.84a17.76,17.76,0,0,0-9.17,33,4,4,0,0,0,4.14-6.85,9.69,9.69,0,0,1-4.77-8.35,9.8,9.8,0,0,1,19.59,0,9.7,9.7,0,0,1-3.21,7.2,4,4,0,0,0,5.4,5.9,17.75,17.75,0,0,0-12-30.89Z"/><path class="cls-1" d="M381.46,170.8a7.13,7.13,0,0,0,6.19-7,5.55,5.55,0,0,0-6.21-5.69,7.11,7.11,0,0,0-6.18,7A5.54,5.54,0,0,0,381.46,170.8Z"/><path class="cls-1" d="M146.7,169.58a7.11,7.11,0,0,0,6.19-7,5.54,5.54,0,0,0-6.2-5.69,7.13,7.13,0,0,0-6.19,7A5.54,5.54,0,0,0,146.7,169.58Z"/><path class="cls-1" d="M429.33,151.9a7.13,7.13,0,0,0,6.19-7,5.56,5.56,0,0,0-6.21-5.69,7.13,7.13,0,0,0-6.19,7A5.55,5.55,0,0,0,429.33,151.9Z"/><ellipse class="cls-1" cx="429.01" cy="200.44" rx="6.61" ry="5.95" transform="translate(10.15 421.31) rotate(-52.85)"/><path class="cls-1" d="M147.3,211.48a7.13,7.13,0,0,0-6.19,7,5.54,5.54,0,0,0,6.2,5.69,7.12,7.12,0,0,0,6.19-7A5.54,5.54,0,0,0,147.3,211.48Z"/><ellipse class="cls-1" cx="381.48" cy="188.34" rx="6.61" ry="5.95" transform="translate(0.98 378.66) rotate(-52.85)"/><path class="cls-1" d="M393.85,169.14a7.14,7.14,0,0,0-6.19,7,5.56,5.56,0,0,0,6.21,5.69,7.13,7.13,0,0,0,6.19-7A5.56,5.56,0,0,0,393.85,169.14Z"/><path class="cls-1" d="M370.12,171.2a7.13,7.13,0,0,0-6.19,7,5.55,5.55,0,0,0,6.21,5.69,7.11,7.11,0,0,0,6.18-7A5.54,5.54,0,0,0,370.12,171.2Z"/></g></svg>