<svg xmlns="http://www.w3.org/2000/svg" viewBox="0 0 480 320"><defs><style>.cls-1{fill:#000;}</style></defs><g id="Layer_1" data-name="Layer 1"><path class="cls-1" d="M295.53,193a3.22,3.22,0,0,0-.17-.68l-.36-1a3.72,3.72,0,0,0-.51-1l-.6-.84a4,4,0,0,0-.78-.82l-.84-.66a4.14,4.14,0,0,0-1-.56l-.9-.36a4.22,4.22,0,0,0-.79-.23l-1-.17a4,4,0,0,0-1.14,0l-1.07.12a3.91,3.91,0,0,0-1.16.31l-1,.42a4.11,4.11,0,0,0-.76.43l-.89.66a4,4,0,0,0-.68.62l-.71.84a4.39,4.39,0,0,0-.54.81l-.48.95a4.82,4.82,0,0,0-.27.72l-.3,1.08a3.89,3.89,0,0,0-.15,1.07v1.13a4.34,4.34,0,0,0,.16,1.13l.3,1a4.18,4.18,0,0,0,.31.76l.48.89a4,4,0,0,0,.59.83l.71.77a3.85,3.85,0,0,0,.89.72l.89.54a4.18,4.18,0,0,0,1.09.45l1,.24a4,4,0,0,0,1,.12h1.07a4.06,4.06,0,0,0,.92-.11l1-.24a3.9,3.9,0,0,0,1.14-.46l.9-.54a3.36,3.36,0,0,0,.54-.39l.84-.72a4,4,0,0,0,.79-.91l.59-1a3.38,3.38,0,0,0,.38-.79l.36-1a3.14,3.14,0,0,0,.17-.67l.18-1.08a3.61,3.61,0,0,0,0-1.31Zm-7.92,2.07-.12.13,0-.16.18-.28Z"/><path class="cls-1" d="M447.05,146.38s0-.07,0-.1a.48.48,0,0,0,0-.12l0-.58a8,8,0,0,0-.32-1.87v0a8.9,8.9,0,0,0-.83-1.9l-.12-.2-.59-.85-.17-.22a8.18,8.18,0,0,0-1.45-1.43l-.36-.28a3.94,3.94,0,0,0-.55-.35l-.53-.29-.1-.06-2.39-1.19-.3-.12a2.88,2.88,0,0,0-.31-.13l-.77-.24-.34-.09-.4-.08a8.3,8.3,0,0,0-1.72-.18h-.64l-4.45.29a4.24,4.24,0,0,1-2.13-.44L344.19,93.63a8.36,8.36,0,0,0-4.4-.65l-299.28,19-.09,0a4.13,4.13,0,0,0-1,.18l-.36.12-.18.08-.31.1-.37.16a7.92,7.92,0,0,0-1.69,1,8.24,8.24,0,0,0-1.12,1l-.12.13a8,8,0,0,0-.94,1.25l0,0a8.29,8.29,0,0,0-.79,1.71l-.12.34a2.85,2.85,0,0,0-.2.51l-.06.17a1.74,1.74,0,0,0-.07.29c0,.09-.05.17-.07.25A4.4,4.4,0,0,0,33,120v52.66A4,4,0,0,0,34.73,176l.18.12a2.94,2.94,0,0,0,.46.25l0,0h0l91,43.38a3.76,3.76,0,0,0,.31.68l.59,1a4,4,0,0,0,.62.8l.84.83a3.55,3.55,0,0,0,.71.57l.95.59c.1.07.21.11.31.17l.09.05,1.69.81.27.14.37.16.06,0h0l.51.23a2.86,2.86,0,0,0,.41.15l1,.3a4,4,0,0,0,1.19.18h1.33l1.93-.12,4.19.47H144l1.11.06,1.09.11h.21l1.25.06H149l1.16.05h5.51l4.94-.24h.23l1-.11,1-.06h.21l1.13-.12.28,0,2.78-.39.39-.07,2.52-.54.15,0,.65-.17.32-.1L172,225l.12,0,1-.38.38-.17.4-.2,204.73-12.92.41.07.26,0,3.38.36h.19l6.16.3h5.43l5-.24h.21l5.54-.61.31-.05.77-.15.77-.1.31,0,1.67-.38.2,0,1.47-.45.43-.16,1.07-.47.36-.19h0l25.47-1.61a1.25,1.25,0,0,1,.19,0l.26,0,1-.18a4.64,4.64,0,0,0,.64-.17l1-.36a4.33,4.33,0,0,0,.89-.44l.89-.6a4.78,4.78,0,0,0,.5-.39l.77-.71a4.78,4.78,0,0,0,.52-.58l.65-.89c.1-.17.21-.33.31-.49l.54-1a3.9,3.9,0,0,0,.31-.8l.3-1.07a3.51,3.51,0,0,0,.14-.85l.06-1.07a.48.48,0,0,0,0-.12s0-.07,0-.1ZM126,162.78a4.86,4.86,0,0,0-.14.85l-.06,1.07s0,.08,0,.11,0,.08,0,.11v45.64L41,170.15V130.51c0-3-.55-7.64,5.92-3.82l79.13,36Zm8.79-7.75a1.43,1.43,0,0,0-.22,0h-.22l-.68.12a8.58,8.58,0,0,0-1.3.34l-.69.25a4,4,0,0,0-.7.33L65.29,126.28c-28.47-8.62-2.88-7.72,1.47-8l273-17.29.15,0,.39,0,.3.11a4.43,4.43,0,0,0,.49.13,4,4,0,0,1,1,.36l57.67,28.83c13.28,6.72,18.66,7.93-1.61,7.93Zm304.3,42.47,0,.53-.07.24-.2.38-.25.34-.26.24-.21.14-.76.17-58.43,3.69a3.71,3.71,0,0,0-.67,0l-240.85,15.2H137l-.37-.15-.21-.21-.2-.54-.06-.51V166.28l.06-.54.12-.43.14-.3.45-.51.61-.3.38-.07,299.91-18.92.43,0,.17,0,.25.17.34.48.05.62Z"/><path class="cls-1" d="M232,171.37l-67.26,5.19a4.17,4.17,0,0,0-3.82,4.12v18.45a3.86,3.86,0,0,0,4,3.87h.18l67.26-5.19a4.17,4.17,0,0,0,3.82-4.12V175.24a3.84,3.84,0,0,0-1.24-2.85A3.93,3.93,0,0,0,232,171.37Zm-3.82,18.74L169,194.69V184.25l59.26-4.57Z"/><path class="cls-1" d="M381.46,171.52a7.13,7.13,0,0,0,6.19-7,5.55,5.55,0,0,0-6.21-5.69,7.11,7.11,0,0,0-6.18,7A5.54,5.54,0,0,0,381.46,171.52Z"/><path class="cls-1" d="M146.7,181.54a7.11,7.11,0,0,0,6.19-7,5.54,5.54,0,0,0-6.2-5.69,7.13,7.13,0,0,0-6.19,7A5.54,5.54,0,0,0,146.7,181.54Z"/><path class="cls-1" d="M429.31,151.18a7.13,7.13,0,0,0-6.19,7,5.55,5.55,0,0,0,6.21,5.69,7.11,7.11,0,0,0,6.18-7A5.54,5.54,0,0,0,429.31,151.18Z"/><path class="cls-1" d="M429,184.07a7.11,7.11,0,0,0-6.19,7,5.54,5.54,0,0,0,6.2,5.69,7.13,7.13,0,0,0,6.19-7A5.54,5.54,0,0,0,429,184.07Z"/><path class="cls-1" d="M147.3,201.45a7.13,7.13,0,0,0-6.19,7,5.54,5.54,0,0,0,6.2,5.69,7.11,7.11,0,0,0,6.19-7A5.54,5.54,0,0,0,147.3,201.45Z"/><path class="cls-1" d="M381.47,182.72a7.11,7.11,0,0,0-6.18,7,5.54,5.54,0,0,0,6.2,5.69,7.13,7.13,0,0,0,6.19-7A5.55,5.55,0,0,0,381.47,182.72Z"/><path class="cls-1" d="M393.85,169.86a7.13,7.13,0,0,0-6.19,7,5.56,5.56,0,0,0,6.21,5.69,7.13,7.13,0,0,0,6.19-7A5.56,5.56,0,0,0,393.85,169.86Z"/><path class="cls-1" d="M370.12,171.92a7.13,7.13,0,0,0-6.19,7,5.55,5.55,0,0,0,6.21,5.69,7.11,7.11,0,0,0,6.18-7A5.54,5.54,0,0,0,370.12,171.92Z"/></g></svg>