<svg xmlns="http://www.w3.org/2000/svg" viewBox="0 0 480 320"><defs><style>.cls-1{fill:#000;}</style></defs><g id="Layer_1" data-name="Layer 1"><path class="cls-1" d="M449.45,185.22c0-.12,0-.22,0-.34V163.53a.59.59,0,0,0,0-.13,2.61,2.61,0,0,0,0-.28,1.77,1.77,0,0,0,0-.23l-.16-4.32a3.93,3.93,0,0,0-.15-.93v0a4,4,0,0,0-.43-1.79l-1-1.92a3.68,3.68,0,0,0-.48-.75l-1.44-1.76-.19-.19c-.06-.06-.11-.14-.17-.2l-87-81.67-.44-.43a1.49,1.49,0,0,0-.14-.12,1.85,1.85,0,0,0-.14-.14l-2.73-2.25a4.06,4.06,0,0,0-.78-.49l-.93-.72a3.62,3.62,0,0,0-.32-.22l-2.57-1.6a3.73,3.73,0,0,0-.69-.35l-3.37-1.28-.11,0-3.7-1.29-.27-.08-4.17-1.13-.34-.07-4.5-.81-.17,0-4.82-.64a1.27,1.27,0,0,0-.28,0L317.79,57h-.38l-10.27.32-.26,0-5,.48h-.1L60.13,87.62l-.19,0-4.66.81-.15,0-4.5,1-.24.06-4,1.12-.29.1L42.56,92l-.19.07-3,1.29a3.81,3.81,0,0,0-.57.29l-2.57,1.61a3.28,3.28,0,0,0-.44.32l-1.92,1.6a4.28,4.28,0,0,0-.82.93l-1.12,1.76a4.06,4.06,0,0,0-.39.78l-.64,1.77a4.05,4.05,0,0,0-.22,1.73l.15,1.65h0a3.66,3.66,0,0,0-.1.75l-.17,4.49c0,.09,0,.17,0,.25a1.47,1.47,0,0,0,0,.21c0,.06,0,.11,0,.17V133h0v0a3.91,3.91,0,0,0,0,.48c0,.1,0,.2,0,.3v.12a4.14,4.14,0,0,0-.1.87v21.35c0,.07,0,.14,0,.21v.07c0,.07,0,.13,0,.2v4.47h0a3.71,3.71,0,0,0,0,.48c0,.1,0,.21,0,.31h0v0l.31,1.57a4.21,4.21,0,0,0,.28.87l.8,1.77a4.09,4.09,0,0,0,.67,1l1.45,1.61s.08.06.11.1a.81.81,0,0,1,.12.14l86,80.74a4,4,0,0,0,1.13,1.43l2.25,1.77a3.24,3.24,0,0,0,.53.35l.05,0,0,0,.11.09.09.08,2.09,1.61a3.41,3.41,0,0,0,.57.36l2.73,1.45.44.2,3.38,1.28.1,0,3.7,1.29a2.77,2.77,0,0,0,.41.12l4.18,1,.22.05,4.65.8.15,0,4.82.64.14,0,5,.48.25,0,5,.16h5.52l5.13-.32h.14l5-.48h.11l238.72-29.7H417l4.33-.65a1.55,1.55,0,0,0,.31-.06l4.25-1,3.85-1,.25-.07,3.53-1.12.34-.13,3.05-1.28a3.4,3.4,0,0,0,.5-.26l2.41-1.44.22-.14,2.09-1.45.16-.13.21-.16,2.72-2.41.13-.13.19-.17,1.6-1.77a4.28,4.28,0,0,0,.56-.78l1-1.76a4,4,0,0,0,.42-1.2l.32-1.77a2.19,2.19,0,0,0,0-.36c0-.12,0-.23,0-.35v-4.5s0-.07,0-.11a1,1,0,0,0,0-.17V186.81a3.84,3.84,0,0,0-.12-.91l.06-.36C449.45,185.43,449.44,185.33,449.45,185.22Zm-322,55.8a4.06,4.06,0,0,0-.81-1.1l-86.73-81.6-1-1.07-.3-.61-.16-.85V144.85l82.68,77.78a1.58,1.58,0,0,0,.15.12,1.31,1.31,0,0,0,.12.11l.6.48a3.86,3.86,0,0,0,.6.54l.64.49c.11.08.23.15.35.22l.06,0a3.24,3.24,0,0,0,.53.35l2.89,1.61a3.23,3.23,0,0,0,.42.2l3.54,1.45.29.11,4,1.28.25.07,4.5,1.12.18.05,4.82,1,.3,0,5.3.64h.13l5.46.49h.23l5.46.16h6l5.46-.32h.12l5.46-.48h.14l238.72-29.7.07,0h.09l4.86-.82,4.5-.8.37-.08,4-1.13.23-.07,3.69-1.29.12,0,3.37-1.28a4.15,4.15,0,0,0,.6-.29l1.68-1v12l-.14.78-.38.69-1,1-1.68,1.29-2.3,1.35L433,214.19l-3.4,1-3.89,1.09-4.22.9-4.67.62a4.09,4.09,0,0,0-1.75.7L178.25,248l-5.33.47-5.28.31H162.2l-5.28-.15-5.28-.47-5.08-.62-4.57-.91-4.28-1.07-3.74-1.2-3.17-1.29-2.4-1.34Zm-6.29-39.9.15.12.12.11,2.25,1.77a3.28,3.28,0,0,0,.38.27l2.89,1.76a5.1,5.1,0,0,0,.57.29l3.54,1.45.29.1,4,1.29.25.07,4.5,1.12.18.05,4.82,1,.3.05,5.3.64h.13l5.46.48.23,0,5.46.16h6l5.46-.32h.12L179,211h.14l238.72-29.7.07,0h.09l4.86-.81,4.5-.8.34-.08,4.17-1.12.27-.08,3.7-1.29.32-.13,3.21-1.44c.14-.06.26-.13.39-.2l1.68-1v10.21l-.14.85L441,186l-1.1,1.21-1.61,1.23L436,189.77l-3,1.15-3.52,1.22-3.71,1-4.26.76-4.74.79L178.25,224.41l-5.33.47-5.28.31H162.2l-5.28-.15-5.28-.47-5.08-.62L142,223,137.71,222l-3.74-1.2-3.17-1.29-2.4-1.34-1.86-1.46-86.6-81.47-.92-1-.35-.78-.16-.77v-9.14ZM38.86,103.8l.56-.87,1.24-1,2.06-1.29,2.66-1.13,3.3-1.19,3.75-1.05,4.29-.92,4.48-.78L302.72,65.73l4.8-.47,10-.31,9.94.62,4.59.62,4.24.75,3.87,1,3.5,1.22,2.95,1.13,2.08,1.29L350.43,73l86.86,81.42a4.18,4.18,0,0,0,.74.53l1.8,1.7,1,1.21.35.69V159l-.15.58-.69.85-1.41,1.28-2.25,1.33-2.9,1.45-3.46,1.29-4,1.05-4.63.92-4.83.78L178.09,198.24l-5.17.47-5.28.31H162.2l-5.28-.15-5.27-.47-4.92-.61-4.58-.92-4.28-1.07-3.74-1.19-3.17-1.3-2.4-1.33-1.86-1.46L40,108.93a3.5,3.5,0,0,0-.92-.63l-.2-.28-.09-2.6c0-.08,0-.15,0-.23l-.08-.88Z"/><path class="cls-1" d="M227.12,176c4.32,0,7.82-1.75,7.82-3.9s-3.5-3.91-7.82-3.91-7.82,1.75-7.82,3.91S222.8,176,227.12,176Z"/><path class="cls-1" d="M279.23,170.74c4.32,0,7.82-1.75,7.82-3.91s-3.5-3.9-7.82-3.9-7.81,1.75-7.81,3.9S274.92,170.74,279.23,170.74Z"/><path class="cls-1" d="M331.35,165.53c4.32,0,7.82-1.75,7.82-3.91s-3.5-3.91-7.82-3.91-7.82,1.75-7.82,3.91S327,165.53,331.35,165.53Z"/></g></svg>