<svg id="Artwork" xmlns="http://www.w3.org/2000/svg" viewBox="0 0 480 320"><defs><style>.cls-1{fill:#000;}</style></defs><path class="cls-1" d="M455.62,152.2v-.53a2.87,2.87,0,0,0-.07-.5l-.07-.38a4.6,4.6,0,0,0-.13-.5l-.12-.36a3.19,3.19,0,0,0-.19-.48l-.17-.35a2.76,2.76,0,0,0-.25-.44l-.2-.32a3.32,3.32,0,0,0-.32-.42l-.25-.29c-.11-.13-.22-.25-.34-.37l-.29-.26c-.13-.11-.26-.22-.4-.32l-.28-.2-.14-.09-.14-.09-4.69-2.87h0l-.92-.56h0L335.37,74.75h0c-.15-.09-.31-.17-.47-.25l-.48-.22a4,4,0,0,0-.83-.26l-.52-.15a4,4,0,0,0-.84-.09h-1L30.72,107h-.5l-.49.11a3.83,3.83,0,0,0-.75.23l-.52.23a3.68,3.68,0,0,0-.65.35l-.48.32a4.15,4.15,0,0,0-.56.46l-.42.4a4.69,4.69,0,0,0-.46.54l-.35.48a5.08,5.08,0,0,0-.35.59l-.26.54a4.06,4.06,0,0,0-.25.66l-.16.56a4.42,4.42,0,0,0-.13.71v.49a4.68,4.68,0,0,0,0,.53V166.1h0v.23l.05.51a5,5,0,0,0,.15.77l.16.53a3.91,3.91,0,0,0,.31.76l.26.48a4.24,4.24,0,0,0,.48.69l.35.41a3.71,3.71,0,0,0,.61.58l.35.26.19.15.24.14,116.81,71.52.24.15.16.08a1.59,1.59,0,0,0,.29.15l.23.1.3.13.24.08.32.1.24.06a1.08,1.08,0,0,0,.31.07h2.16l4.95-.54a2.29,2.29,0,0,1,1.8.53,4,4,0,0,0,1.95,1l1.17.23h.15l2.6.39h.18l2.79.3h.16l2.92.19h.15l3,.08h.15l6-.09h.35l2.94-.33,2.69-.35a.67.67,0,0,0,.2,0l2.47-.44h.23l2.21-.54.28-.08,1.89-.61.38-.14,1.38-.61.91-.48.69-.44a6.39,6.39,0,0,0,1.21-1l.49-.5a4.42,4.42,0,0,0,.56-.73l.12-.2.08-.12.09-.17v-.09a3.82,3.82,0,0,0,.21-.46l200-21.82a2.29,2.29,0,0,1,2,.8,4,4,0,0,0,2.32,1.37l1.17.23h.15l2.59.4h.18l2.79.3h.16l2.92.19h.16l3,.09h3.31l3-.14h.16l2.86-.25h.14l2.69-.36h.2l2.47-.44.23-.05,2.21-.54.28-.08,1.92-.68.38-.14,1.31-.57.9-.47.76-.48a6.13,6.13,0,0,0,1.16-.94l.55-.56a3.08,3.08,0,0,0,.56-.73l.12-.2.09-.14h0l.07-.14,0-.09h0a2.43,2.43,0,0,1,1.87-1.35l8.46-.93h.46l.49-.1a4.33,4.33,0,0,0,.7-.21l.51-.21a3.87,3.87,0,0,0,.64-.33l.47-.3a4.92,4.92,0,0,0,.58-.44l.4-.38a3.62,3.62,0,0,0,.49-.54l.33-.45a4.28,4.28,0,0,0,.38-.62l.24-.49a3.09,3.09,0,0,0,.26-.68l.15-.53a3.6,3.6,0,0,0,.13-.73V152.2Zm-320,29.86v42.26a2.35,2.35,0,0,1-3.57,2L33.44,166a2.35,2.35,0,0,1-1.12-2V125.26a2.35,2.35,0,0,1,3.54-2l99.72,58.7Zm6.36-7h-.5l-.39.08-.27.08-.37.11h-.08L42.64,118a2.34,2.34,0,0,1,.93-4.35L330.84,82a2.32,2.32,0,0,1,1.48.33l93.58,57.29a2.34,2.34,0,0,1-1,4.33L236.28,164.68h0Zm95.57,51.33-85.69,9.48a2.34,2.34,0,0,1-2.6-2.33v-45a2.35,2.35,0,0,1,2.09-2.33L237,176.7a2.34,2.34,0,0,1,2.6,2.33v45A2.34,2.34,0,0,1,237.55,226.39Zm109.53-12-94.69,10.44a2.35,2.35,0,0,1-2.6-2.34V175.49h0v-.16l96.78-10.67a2.34,2.34,0,0,1,2.6,2.33v45A2.34,2.34,0,0,1,347.08,214.34Zm98.45-10.85L362,212.7a2.35,2.35,0,0,1-2.6-2.34v-47h0v-.13L445,153.82a2.34,2.34,0,0,1,2.6,2.33v45A2.34,2.34,0,0,1,445.53,203.49Z"/><path class="cls-1" d="M277.4,206.66l5.5-.62a3.46,3.46,0,0,0,3.46-3.47h0V190.48A3.46,3.46,0,0,0,282.9,187h0l-5.5.61a3.46,3.46,0,0,0-3.46,3.46h0V203.2A3.46,3.46,0,0,0,277.4,206.66Z"/><path class="cls-1" d="M296.49,204.54l5.49-.6a3.47,3.47,0,0,0,3.47-3.47h0V188.35a3.46,3.46,0,0,0-3.47-3.46h0l-5.49.63A3.46,3.46,0,0,0,293,189h0v12.1a3.46,3.46,0,0,0,3.47,3.46Z"/><path class="cls-1" d="M316,202.42l5.5-.6a3.46,3.46,0,0,0,3.46-3.47h0V186.26a3.48,3.48,0,0,0-3.46-3.49l-5.5.63a3.46,3.46,0,0,0-3.46,3.46h0V199a3.46,3.46,0,0,0,3.46,3.46Z"/></svg>