<svg xmlns="http://www.w3.org/2000/svg" viewBox="0 0 480 320"><defs><style>.cls-1{fill:#000;}</style></defs><g id="图层_2" data-name="图层 2"><path class="cls-1" d="M269.36,20.46,55.57,88.1l.13,24.24-.27.1.27.77h0l.13.36.64,54,13.57,12.57v-.6l.33.85,3.06-1.19,0,3.64L87,195.42v0l.1.24,3.62-1.45v4.24L104.28,211v-.21l.19.5,4-1.54,0,4.67L122,226.93v-.79l.25,1.07,3-.7v2.92l13.44,12.37.1.45,2.81-.63v2.56l13.53,12.43v-.18l.09.38,2.18-.55,0,2,14.16,13v-.42l.25.57,2.31-1v3l13.48,12.43.31.67,2.3-1.09v3.32l12,10.24,1.1-1.29.51.91L417.34,179.9l.44-46.88h0V101.69Zm-68.19,211.9-6.83-6.15,2.18-1.28,3.75,3.1L406.5,127.27l1.92.83Zm-15.69-12.64L178,213.31l2.56-1.55,7.77,6.41Zm-15.79-12.91-8.7-7.46,2.5-1.7,8.86,7.32ZM153.21,193l-8.39-7.19,2.38-1.64,8.65,7.15Zm-15.86-13.36-8.68-7.39L131,170.8l9,7.44Zm-17.47-14.52-8.25-7.07,2.39-1.29,8.39,6.94Zm-17.65-13.82-7.8-6.74,3.07-1.44,7.86,6.49ZM85,137.11l-7.64-6.51,3.48-1.22,7.68,6.33Zm-17.2-14-8.05-6.86,3.59-1.29,8.18,6.75Zm342-4.1-1.11.55-.31-.14-.16.37L203.14,220,203,207.33l206.82-98.6ZM198,205.3l.15,13.17-134.44-111,0-9.3Zm-21.61,3,.13.1-2.28,1.38ZM406.66,104.7,202.12,202.21,65.62,93.32l202.9-64.2ZM61.46,165.41,61,123.82l3.84,3.27L65,168.68Zm8.57,9.8-.23-47.56L76,125.34l.39.32L72.66,127l.43,1.2.31,45.73ZM82,184l-3.56-3.3-.3-42.82L82,141.15Zm5,6.31v-48.6l5.89-2.35.33.28-3.06,1.44.38.81.16,46.94Zm12.29,9.25-3.57-3.3-.15-44.06,3.82,3.3Zm5,6.43.11-50.14,5.12-2.76.33.28-2.13,1.14.5.93.22,48.94ZM117,215.5l-3.56-3.31-.2-46.14,3.81,3.27Zm5,6.63,0-52.49,4.46-2.51.39.32-2.25,1.42.42.68.17,51.84Zm11.89,8.44-3.63-3.34-.15-47.14,3.88,3.3Zm5,6.54.11-52.66,2.19-1.17.45.66V236.5Zm11.33,8.17-3.58-3.3V194l3.84,3.28Zm5,6.39.28-54.17,2-1.29.74,1.08-.73,53.79ZM166.66,260l-4.21-3.87.66-48.36,3.9,3.34Zm5,6.1.39-54.81,1.36-.94.89,1.48-.1,53.19Zm11.43,8.78-3.91-3.61.1-50.3,3.91,3.35Zm5,6.09.11-57,1.9-1-.15.09.33.56v56.34Zm8.19-45,3.05,2.75-.16,49.75L196.23,286Zm7.89,53.35.16-51.81L409.77,134.14l-.39,41Z"/></g></svg>