<svg id="Artwork" xmlns="http://www.w3.org/2000/svg" viewBox="0 0 480 320"><defs><style>.cls-1{fill:none;}.cls-1,.cls-2{stroke:#000;stroke-linecap:round;stroke-linejoin:round;stroke-width:8px;}.cls-2,.cls-3{fill:#000;}</style></defs><path class="cls-1" d="M231.08,51.44l-49,9.5,0,3.76L230,75.44a46,46,0,0,0,20.06,0l47.87-10.7V61.42l-49-9.9A45.92,45.92,0,0,0,231.08,51.44Z"/><path class="cls-1" d="M182,64.76h0L230,75.5a46,46,0,0,0,20.06,0l47.87-10.7h0"/><path class="cls-1" d="M240,30.62H193.87A11.83,11.83,0,0,0,182,42.45V279.9h-1.47V36.71c0-6.53,8.29-7.83,14.82-7.83h92.22c6.53,0,11.82,4.44,11.82,7.83V279.9H298V42.45a11.83,11.83,0,0,0-11.83-11.83Z"/><polygon class="cls-2" points="297.97 279.9 289.19 277.9 289.19 269.65 297.95 267.67 297.97 279.9"/><polygon class="cls-2" points="182.03 279.9 190.81 277.9 190.81 269.65 182.05 267.67 182.03 279.9"/><polygon class="cls-1" points="297.9 258.71 297.9 258.71 297.9 258.71 297.9 258.71"/><path class="cls-1" d="M182,267.11h0L230,277.85a45.87,45.87,0,0,0,20.06,0l47.87-10.69h0"/><line class="cls-1" x1="239.97" y1="79.21" x2="239.97" y2="278.39"/><rect class="cls-3" x="230.97" y="277.39" width="18.56" height="17.73" rx="4"/></svg>