<svg id="Artwork" xmlns="http://www.w3.org/2000/svg" viewBox="0 0 480 320"><defs><style>.cls-1{fill:#000;}</style></defs><path class="cls-1" d="M464.69,165.44c0-.14,0-.28,0-.42l-.06-.28a3,3,0,0,0-.12-.4l-.09-.26a3,3,0,0,0-.21-.4,2.25,2.25,0,0,0-.12-.21,3.79,3.79,0,0,0-.34-.45l-.08-.1a4.6,4.6,0,0,0-.52-.47l-.18-.11a2.82,2.82,0,0,0-.44-.26l-.1-.06L177.55,29.28A48.32,48.32,0,0,0,137.2,29l-107,48.77A25.05,25.05,0,0,0,15.3,100.6c0,.11,0,.23,0,.34s0,.07,0,.1v49.83s0,.08,0,.12h0A24.86,24.86,0,0,0,29.85,173.1L288.56,294.92l.07,0a3.16,3.16,0,0,0,.59.2l.21.07a3.82,3.82,0,0,0,.68.07l.15,0h17.26a4.06,4.06,0,0,0,1.64-.35l130.27-58.62a3.89,3.89,0,0,0,1.24-.88l21-21.87a4,4,0,0,0,1.11-2.6l1.88-45.17v-.08C464.7,165.63,464.69,165.54,464.69,165.44Zm-25.8-4.11L304.72,221.78l-76-35.38a1.35,1.35,0,0,1-.28-2.26l.6-.49,128.64-57.89,2.26.45a47.64,47.64,0,0,1,10.79,3.52ZM160.36,39.21a14.26,14.26,0,0,1,11.95.09l175.28,82.22-120.65,54.3L51.82,93.67A3,3,0,0,1,50,90.83,3,3,0,0,1,51.86,88ZM33.53,85h0l107-48.76a40.11,40.11,0,0,1,14.74-3.5l-106.66,48a11.1,11.1,0,0,0-.16,20.18l172.19,80.77a9.36,9.36,0,0,0,4.73,12l72.85,33.91-8.86,9.5L33.26,116.49A17.32,17.32,0,0,1,33.53,85ZM23.3,150.74V119.3a25.6,25.6,0,0,0,6.55,4.43L286.26,244.46V285l-253-119.13A17,17,0,0,1,23.3,150.74Zm412.14,78.61-128.78,58h-12.4V243.5l5.29-5.67,8-8.53L448.7,165.69l2.26.78,5.63,2-1.7,40.69Z"/><path class="cls-1" d="M361.83,218.61h-.06a4.1,4.1,0,0,0-1.92.38L312.1,241.62a4,4,0,0,0-2.28,3.61v14a4,4,0,0,0,.88,2.5l4.84,6a4,4,0,0,0,3.11,1.49,4.07,4.07,0,0,0,1.66-.36l36.5-16.58a4,4,0,0,0,1.95-1.9l5.89-12.19a3.93,3.93,0,0,0,.4-1.58l.57-13.82A4,4,0,0,0,361.83,218.61Zm-4.74,16.82-4.9,10.15-32.37,14.7-2-2.49v-10L357.35,229Z"/><path class="cls-1" d="M433.38,187.24a13,13,0,0,0-10,.47,19.06,19.06,0,0,0-9.66,10.85c-3.38,9.07-.07,18.74,7.38,21.57a12.29,12.29,0,0,0,4.37.79,13.72,13.72,0,0,0,5.67-1.26,19.08,19.08,0,0,0,9.66-10.86C444.14,199.74,440.83,190.07,433.38,187.24ZM433.26,206a11.19,11.19,0,0,1-5.46,6.36,5.09,5.09,0,0,1-3.9.28c-3.29-1.25-4.54-6.42-2.73-11.29a11.3,11.3,0,0,1,5.47-6.37,5.09,5.09,0,0,1,3.9-.27C433.83,196,435.08,201.14,433.26,206Z"/><ellipse class="cls-1" cx="359.35" cy="156.24" rx="17.66" ry="7.7"/><ellipse class="cls-1" cx="299.31" cy="183.24" rx="17.66" ry="7.7"/></svg>