<svg id="Layer_1" data-name="Layer 1" xmlns="http://www.w3.org/2000/svg" viewBox="0 0 480 320"><defs><style>.cls-1{fill:#000;}</style></defs><title>exaSound - Delta Server</title><path class="cls-1" d="M344.65,91.4l-29.83-.48c.1-10,.59-63.64.29-68.45-.39-6.49-5.12-8.88-8.25-8.91-4.41,0-108.14.56-112.86.64-6.2.09-8.56,4.3-8.68,7.25l-.22,2.16v.12c-.16,2.44-4,59.65-4.28,65.64,0,.23,0,.46,0,.69h-.92c-.29,0-.43,0-39.36,4.15h0a4.63,4.63,0,0,0-3.09,1.44A4.74,4.74,0,0,0,136.21,99c-.06,58.85-.11,157.74.25,160,.82,5,7.87,5.5,14,5.41l26.73,1.22c-4.11,2.57-13.16,9.88-18.67,14.4l-1.46,1.2v7.2l.48.88a8.51,8.51,0,0,0,5.31,4.13c1.74.41,49.27,3.08,88.93,5.25a7.55,7.55,0,0,0,1.21.09c3.2,0,8-1.69,10.75-8.12a13.2,13.2,0,0,0,4.7-9.4c.11-1.91.21-4.63.29-7.27l22.08,1c.06,2.89.12,6.29.18,9.51v.73l.26.67A6.93,6.93,0,0,0,298,290c1.57-.06,8.58.24,13,.44a4.61,4.61,0,0,0,.53,0,5.48,5.48,0,0,0,4.13-1.93,10.22,10.22,0,0,0,3.22-4.35L326.74,270v-.27l.13-.08,1.83-1.15,0-1.2,14.71-27.48Zm-102.6,11.71,11.31.1-.88,157.87-11.36-.53ZM207.1,259l0-156.19,10.39.09,0,156.58Zm17.16.79,0-156.83,11.33.1-.79,157.21Zm-27.7,18.93,3.1-2.67a11.25,11.25,0,0,0,4-8.76c0-.16,0-.29,0-.44L229,268a17.43,17.43,0,0,0,10.84,4.46c4.25.32,9.83.62,13.43.8,0,2.75-.08,5.77-.19,8.23Zm62.18-17.34,1-158.1,11.3.1-.89,158.53Zm18.94-157.94,11.37.11L288,262.73l-11.44-.54Zm36.62.33h.5l7.75,0c.64,17.49-.63,101.43-1.75,159.61a33.78,33.78,0,0,1-7.95.53Zm-159-1.44,10.38.1,0,154.68-10.39-.47Zm17.16.16,10.15.09,0,155.3-10.15-.46Zm17,155.7,0-155.55,10.94.1,0,156Zm105,4.85,1.29-159.43,11.73.1-1.32,159.9ZM306.85,21.56h0Zm-118,68.19c.27-5.83,4.12-63.2,4.27-65.42l.2-2a3.46,3.46,0,0,1,.85-.09c4.59-.08,107.57-.61,112.55-.63.36.14.45,1.17.46,1.38.24,4-.14,50.39-.31,68.78a2.33,2.33,0,0,1-1.9.92c-4.38.42-105.68-.39-114.62-.66C189.31,91.8,188.72,91.52,188.8,89.75Zm-44.59,12.47,4.27,0,0,154.13a33.62,33.62,0,0,1-4.16-.36C144.12,240.73,144.17,144.38,144.21,102.22Zm49.63,164.17h0l-17.7,15.18-6.4-.34c5.59-4.46,10.75-8.42,11.94-9a8,8,0,0,0,5-6.17Zm105,9.26c0-1.53-.07-3.06-.1-4.4l10,.49v9.9c0,.23,0,.42,0,.64-2.94-.13-7.37-.3-9.79-.33C298.9,280.29,298.86,278,298.81,275.65Zm30.24-25.89c.29-15.87.73-41,1.08-66,.34-24.06.53-43.3.57-57.2,0-13,0-20-.21-23.94l6.08-1.86-1.12,137Z"/><path class="cls-1" d="M196.61,81.56l1.27,1,1.1-.37c5.54-.07,65.83,0,97.9,0h2.95l.95-56.59H199l-.21,2.78S197.92,41,197,53.61c-.44,6.31-.87,12.64-1.18,17.39C195.26,80.51,195.26,80.51,196.61,81.56Zm8-49.95h90.05l-.74,44.58c-32.26,0-53.66,0-67.87,0-13.85,0-20.88,0-24.5,0C202,68.55,203.47,47.46,204.62,31.61Z"/></svg>