<svg xmlns="http://www.w3.org/2000/svg" viewBox="0 0 480 320"><defs><style>.cls-1{fill:#000;}</style></defs><g id="NT-505"><path class="cls-1" d="M374,181l0,0a4.22,4.22,0,0,0,.71.34h0l.23.06a4.24,4.24,0,0,0,1.28.21,4.53,4.53,0,0,0,.52,0l6.58-.78a4.63,4.63,0,0,0,4-4.42l.11-2.86a4.44,4.44,0,0,0-2.16-4l0,0a3.64,3.64,0,0,0-.63-.3l-.09,0h0a4,4,0,0,0-.76-.19h0a4.65,4.65,0,0,0-1.18,0l-6.58.77a4.62,4.62,0,0,0-4,4.42l-.11,2.89A4.47,4.47,0,0,0,374,181Z"/><path class="cls-1" d="M451.29,106.78l-4.41-6.52c0-.06-.1-.11-.15-.18a3.27,3.27,0,0,0-.3-.35,3,3,0,0,0-.26-.24c-.11-.09-.22-.19-.34-.27a2.33,2.33,0,0,0-.34-.2l-.23-.14-.15,0-.26-.1a4.27,4.27,0,0,0-.48-.13l-.15,0-135-22.25a3.69,3.69,0,0,0-.88,0L38.59,91.58a4,4,0,0,0-3.1,1.76L28.7,103.47A4,4,0,0,0,28,105.7v85.09a4,4,0,0,0,2.33,3.63c25.78,11.83,75.73,34.83,80.26,37.22a34.62,34.62,0,0,0,5.34,2.17l0,.71a4.09,4.09,0,0,0,.24,1.47c.86,2.33,5,7.76,25.24,7.76,19.33,0,24.56-3.9,26-6.23a3.72,3.72,0,0,0,.35-.76c2.73-.27,5-.54,6.53-.77,3-.45,11-1.92,19.52-3.47,10.55-1.93,23.69-4.33,25.85-4.51q2.05-.18,43.64-5.57c34.84-4.5,87.36-11.29,113.63-14.46a4,4,0,0,0,2,1.35,76.82,76.82,0,0,0,18.08,3c.53,0,1.05,0,1.57,0a88.37,88.37,0,0,0,18.29-2.18,4,4,0,0,0,3.06-3.89v-1c3.7-.12,6.58-.2,7.65-.2,4.07,0,13.39-2.39,15.22-2.87a4,4,0,0,0,1.68-.92l5.82-5.3a4,4,0,0,0,1.3-2.94l.47-84A4.07,4.07,0,0,0,451.29,106.78Zm-412.16-4.5c12.26,3.54,80.13,23.1,86.63,25,5,1.42,15.32,2.22,26,2.22,3.38,0,6.8-.08,10.08-.25l2.15,5c-11.58,1-19.91,1.29-24.8.92-9-.69-16.68-3.2-22.86-5.22l-2.88-.93c-5.65-1.79-62.34-19-76.57-23.34Zm404.4,88.65-3.63.39.32-75.87c.9-.13,1.76-.28,2.68-.48l1.05-.23ZM430.65,159a17.14,17.14,0,0,1-3.23,9.16,11,11,0,0,1-7.14,4.72h0a6.35,6.35,0,0,1-6-2.64,12.13,12.13,0,0,1-2.14-7.91h0a17.05,17.05,0,0,1,3.25-9.27,10.85,10.85,0,0,1,7.25-4.71h0a6.33,6.33,0,0,1,5.89,2.73,12.31,12.31,0,0,1,2.08,7.92Zm-19.32-18.19a8,8,0,0,1,1.87.78,21.54,21.54,0,0,0-4.49,3.84,26,26,0,0,0-6,11.83,24.49,24.49,0,0,0,.71,13.45c.1.25.21.49.32.74a8.12,8.12,0,0,1-2-.46,12.56,12.56,0,0,1-2.8-4.19,18.2,18.2,0,0,1-1.25-7.62h0a22.29,22.29,0,0,1,4.78-12.85A14.61,14.61,0,0,1,411.33,140.81ZM444,110.24v.38c-.52.13-1.14.28-1.9.44s-1.32.26-2,.36a3.74,3.74,0,0,0-.38-.9l-.95-1.66a24.74,24.74,0,0,0,3.61-1Zm-13.87-.39,1.5,2.63c-1,.11-2,.25-3.19.4-3.15.41-7,1.88-11.8,3.73-8.79,3.38-20.84,8-36.42,8.91-6.66.39-124.59,11.16-141.29,13-10.68,1.19-21.63-.75-32.22-2.63-10.23-1.82-20.81-3.7-31.11-2.74l-1.5.15-2,.19a3.86,3.86,0,0,0-.29-1.25l-1.56-3.67C196.08,126.44,410.68,111.22,430.1,109.85ZM118.17,223.7l-.31-89a90.88,90.88,0,0,0,21,4.5c6.37.48,16.94-.19,25.27-.9v87.37C147.9,227.19,130.59,226.5,118.17,223.7Zm57.19.45q-1.61.27-3.24.51V137.52l2.35-.23,1.47-.15c9.77-.91,19.62.84,30,2.69,8.52,1.52,17.26,3.07,26.06,3.07a66.43,66.43,0,0,0,7.31-.39c16.67-1.85,134.43-12.61,141.07-13,16.2-.94,28.58-5.7,37.63-9.17,4.58-1.76,8.2-3.14,10.87-3.49l3.3-.42-.11,25.78a15.65,15.65,0,0,0-5.48-2.9h0l-.55-.13a17.18,17.18,0,0,0-12.48-6.47c-6.35-.32-12.66,2.81-17.34,8.59a30.05,30.05,0,0,0-6.57,17.55h0a26.26,26.26,0,0,0,1.87,11,19.78,19.78,0,0,0,5.61,7.73l.16.13a19.39,19.39,0,0,0,1.65,1.21h0a16.82,16.82,0,0,0,9,2.58,18.07,18.07,0,0,0,4.91-.69c.17.07.33.15.51.21a15.4,15.4,0,0,0,5.08.86,16.24,16.24,0,0,0,2-.12h0A19.39,19.39,0,0,0,432,175.73l-.07,16.46-3.09.35c-8.29,1-16,0-23.37-1s-15.19-2-23.38-1L370.93,192c-31.82,4.09-128.65,16.54-134.11,16.88-13.42.85-29.46,5.89-42.34,9.94C186.73,221.25,180,223.35,175.36,224.15Zm133-139.88,111.07,18.31c-49.26,3.49-239.63,17-251.88,18.2-14.66,1.4-33.66.47-39.61-1.23L55.36,98.64ZM36,109.61c13.63,4.14,62.28,18.93,74.06,22.56a3.87,3.87,0,0,0-.23,1.28l.32,89.08c-15-7.16-62.81-29.1-74.15-34.31ZM262.22,214.5c-22.5,2.91-41.93,5.42-43.27,5.53-2.34.2-11.82,1.91-26,4.51l3-.95c12.62-4,28.34-8.91,41.15-9.72,5-.32,79.14-9.8,134.44-16.91l11.11-1.43c7.55-.95,14.62,0,22.1.95,2.74.36,5.53.72,8.37,1-8.21.28-17.41.63-20.76.76C386.72,198.47,327.58,206.06,262.22,214.5Z"/><path class="cls-1" d="M251.92,198.75a8.27,8.27,0,0,0,1.11-.07l106.78-12.07h0a9.88,9.88,0,0,0,6.55-4,11.78,11.78,0,0,0,2.35-6.62l1-25.8a10.16,10.16,0,0,0-2.09-6.71,8.17,8.17,0,0,0-7.28-3.15l-107.63,9.94a10.36,10.36,0,0,0-7,3.93,11.83,11.83,0,0,0-2.56,7.18l-.31,27.48a10,10,0,0,0,2.66,7.06A8.78,8.78,0,0,0,251.92,198.75Zm-.78-37.24a3.86,3.86,0,0,1,.81-2.28,2.42,2.42,0,0,1,1.51-1l107.63-9.93h0c.06,0,.13,0,.23.15a2.31,2.31,0,0,1,.37,1.45l-1,25.8a3.68,3.68,0,0,1-.74,2.09,2.09,2.09,0,0,1-1.13.84L252.09,190.74a.86.86,0,0,1-.79-.27,2.18,2.18,0,0,1-.47-1.49Z"/><path class="cls-1" d="M224.33,200.57c5.27-.61,9.64-5.88,9.78-11.76s-4.05-10.18-9.31-9.58S215.12,185.12,215,191,219.06,201.19,224.33,200.57Z"/><path class="cls-1" d="M204.59,198.28c2.63-.3,4.82-2.94,4.89-5.88s-2-5.09-4.66-4.79a6,6,0,0,0-4.9,5.91C199.86,196.46,202,198.59,204.59,198.28Z"/><path class="cls-1" d="M187.35,187.63c-4,.46-7.33,4.46-7.43,8.94s3.08,7.69,7.07,7.22,7.31-4.46,7.41-8.91S191.34,187.17,187.35,187.63Z"/><path class="cls-1" d="M270.71,183.8a6,6,0,0,0,4.84-5.92c0-2.94-2.06-5.07-4.69-4.75s-4.82,3-4.86,5.94S268.08,184.13,270.71,183.8Z"/><path class="cls-1" d="M288.82,182.07a6,6,0,0,0,4.84-5.92c0-2.94-2.06-5.07-4.69-4.75s-4.82,3-4.86,5.94S286.19,182.4,288.82,182.07Z"/><path class="cls-1" d="M306.93,180.34c2.63-.32,4.8-3,4.84-5.92s-2.06-5.07-4.69-4.75-4.82,3-4.86,5.94S304.3,180.67,306.93,180.34Z"/><path class="cls-1" d="M325,178.43a6,6,0,0,0,4.84-5.92c0-2.94-2.06-5.07-4.69-4.75s-4.82,3-4.86,5.94S322.4,178.76,325,178.43Z"/><path class="cls-1" d="M343.15,176.7a6,6,0,0,0,4.84-5.92c0-2.94-2.06-5.07-4.69-4.75s-4.82,3-4.86,5.94S340.52,177,343.15,176.7Z"/></g></svg>