<svg id="Artwork" xmlns="http://www.w3.org/2000/svg" viewBox="0 0 480 320"><defs><style>.cls-1{fill:#000;}</style></defs><path class="cls-1" d="M200.37,173.67c-4.12.72-7.31,5.58-7.18,10.88s3.6,9,7.69,8.35,7.34-5.59,7.18-10.89S204.48,173,200.37,173.67Z"/><path class="cls-1" d="M234.76,174.47a7,7,0,0,0-5.25,7.15c.08,3.44,2.58,5.82,5.59,5.31a7,7,0,0,0,5.24-7.16C240.34,176.35,237.74,174,234.76,174.47Z"/><path class="cls-1" d="M384.16,160.44A4.4,4.4,0,0,0,379,164a4.15,4.15,0,0,0-.07.79,4,4,0,0,0,3.6,4.33,4.4,4.4,0,0,0,1.59-8.65Z"/><path class="cls-1" d="M404.07,158.35a4.41,4.41,0,0,0-5.12,3.54,5.14,5.14,0,0,0-.07.78,4,4,0,0,0,3.6,4.33,4.4,4.4,0,0,0,1.59-8.65Z"/><path class="cls-1" d="M423.25,156.53a4.39,4.39,0,0,0-5.12,3.53,4.15,4.15,0,0,0-.08.79,4,4,0,0,0,3.61,4.33,4.4,4.4,0,1,0,1.59-8.65Z"/><path class="cls-1" d="M455.81,122.11V118.2a3.92,3.92,0,0,0-.76-2.31l-4.2-5.77-.13-.14a3.73,3.73,0,0,0-.26-.3l-.29-.26a1.94,1.94,0,0,0-.29-.21l-.37-.23-.16-.1-.18-.06-.3-.1a3,3,0,0,0-.43-.11h-.17L293,86a5.36,5.36,0,0,0-1,0L34.25,101.31a3.9,3.9,0,0,0-2.93,1.61l-6.4,8.79a3.91,3.91,0,0,0-.74,2.29v66.21a3.89,3.89,0,0,0,2.29,3.55c.75.34,76.06,34.89,81.83,38a35.48,35.48,0,0,0,5.54,2.24v.85a3.68,3.68,0,0,0,.24,1.43c.85,2.35,5.06,7.81,25.58,7.81,19.61,0,24.9-3.9,26.29-6.26a3.77,3.77,0,0,0,.51-1.38c2.75-.29,5-.57,6.41-.77a87.64,87.64,0,0,0,9.61-2.13,39.57,39.57,0,0,1,6.2-1.34c2.15-.18,54.17-6.57,127.44-15.62l64.87-8a4,4,0,0,0,.79.35A78.06,78.06,0,0,0,400.17,202h1.6a89.65,89.65,0,0,0,18.61-2.23,3.92,3.92,0,0,0,3-3.8v-2.07c.8.07,1.63.16,2.48.25a47.94,47.94,0,0,0,5.48.41c4.13,0,13.63-2.44,15.48-2.93a3.92,3.92,0,0,0,1.64-.89l5.93-5.41a3.94,3.94,0,0,0,1.28-2.88l.16-60v-.24A.15.15,0,0,1,455.81,122.11ZM32,177.69V121.62c14.65,4.43,64.72,19.66,75.65,23l.3,68.18C92.85,205.65,43.44,183,32,177.69Zm79.69-40C105.76,135.85,47,118,33.13,113.78l1.65-2.29c71,20,81.45,23.55,85.93,25.08,1.07.36,1.85.62,3,1,5.06,1.45,15.62,2.26,26.41,2.26,3.53,0,7.09-.09,10.5-.26l1.7,3.48c-6.51.53-17.4,1.35-25.32,1.35-7.51,0-14.13-2.49-20-4.7C115.13,139,113.38,138.28,111.68,137.72Zm4.1,74.65-.29-65c5.93,2.22,13.17,4.75,21.55,4.75,8.08,0,18.94-.77,25.6-1.35h0l.3,64.92A124.35,124.35,0,0,1,115.78,212.37Zm50.57-81c-15.2,1.46-34.23.51-40.44-1.27-1-.28-1.64-.5-2.68-.85-4.2-1.42-13.58-4.61-71.68-21.06L290.4,93.92a21,21,0,0,1,4.34.18l128,18.74C371.94,116.43,179.57,130.1,166.35,131.39Zm3.71,9.57-1-2.08c27.22-2.25,256.23-18.49,266-19.17l.64,1.29h-.05c-4.73.62-8.41,3.19-12,5.68-4,2.8-7.82,5.45-13.19,5.45-3.8,0-53,4.21-122.06,10.16-43.11,3.7-83.82,7.21-91,7.67-6.39.41-9.57-1.3-13.24-3.27-3.51-1.88-7.45-4-13.85-4.15A4,4,0,0,0,170.06,141Zm249.43,45.1h-.36c-1.77.19-40.46,4.94-104,12.75h0c-58.49,7.2-124.78,15.35-127.14,15.56h-.17c4.32-2.47,8.69-4.6,14.48-5.16,3.75-.36,68-7.68,124.65-14.14,44.34-5,86.21-9.82,89.2-10.13,4-.41,6,.18,7.91,1.2A27.54,27.54,0,0,0,419.49,186.06ZM436,182.8a12.2,12.2,0,0,1-6.12-2.25c-3-1.82-6.7-4.06-14.45-3.27-3,.31-43,4.88-89.3,10.14-56.64,6.45-120.83,13.76-124.5,14.12-8.57.83-14.4,4.25-20,7.56a51.59,51.59,0,0,1-10.79,5.14l-.3-63.83c4.39.15,7,1.54,10.12,3.23,3.74,2,7.93,4.25,15.08,4.25.75,0,1.53,0,2.35-.08,7.22-.46,48-4,91.11-7.68C341.56,145.62,406.8,140,410.56,140c7.82,0,13.28-3.81,17.67-6.84,2.77-1.95,5.2-3.62,7.75-4.18Zm7.39-64v-.1a22.72,22.72,0,0,0,3.36-1l1.23,1.74c-.66.16-1.51.35-2.6.59a14.44,14.44,0,0,1-1.6.27A3.64,3.64,0,0,0,443.37,118.77Zm4.48,61.93a41.14,41.14,0,0,1-4.07,1.18V128.17a17.16,17.16,0,0,0,3.19-.46l1-.21Z"/><path class="cls-1" d="M366.31,155H366L258.34,166.29a2.39,2.39,0,0,0-2.1,2.31v18.85a1.86,1.86,0,0,0,1.8,1.9l.3,0L366,178.05a2.38,2.38,0,0,0,2.1-2.31V156.89A1.84,1.84,0,0,0,366.31,155Z"/></svg>