<svg xmlns="http://www.w3.org/2000/svg" viewBox="0 0 480 320"><defs><style>.cls-1{fill:#000;}</style></defs><g id="N-01XD"><path class="cls-1" d="M352,151.93c-.42,0-.87,0-1.34.06-3.51.3-84.77,8.23-89.73,8.8-3.59.41-6.37,4.31-6.38,7.39l-.06,27a3.81,3.81,0,0,0,1.63,3.39c1.22.84,3.14,1.26,5.69,1.26.42,0,90.48-9.76,90.48-9.76,2.92-.41,4.71-.85,4.71-4.52,0-3-.06-26.16-.06-28.47C357,153.34,355.62,151.93,352,151.93Z"/><path class="cls-1" d="M439.88,107.89V104.5a4,4,0,0,0-.76-2.36l-3.88-5.32a1.49,1.49,0,0,0-.12-.14,3.28,3.28,0,0,0-.31-.34l-.24-.23c-.12-.09-.23-.18-.36-.26a3.37,3.37,0,0,0-.32-.19l-.2-.12-.21-.08-.23-.08a5.36,5.36,0,0,0-.54-.14l-.12,0-143.29-21a4.47,4.47,0,0,0-.82,0L49.76,88.72a4,4,0,0,0-3,1.73L40.82,99a4,4,0,0,0-.7,2.27v94.36a4,4,0,0,0,2.33,3.63c24.29,11.15,71.37,32.82,75.63,35.08a30.78,30.78,0,0,0,4.9,2v.52a3.89,3.89,0,0,0,.25,1.47c1,2.79,5.5,7.47,24,7.47,18.33,0,23.31-3.75,24.65-6a3.85,3.85,0,0,0,.46-1.16l2.86-.33,2.64-.3c5.12-.56,12.26-2,18-3.15,3-.6,5.54-1.11,7-1.33,1-.16,150.65-19.86,166.28-21.44a4.08,4.08,0,0,0,1.86,1.24,72.7,72.7,0,0,0,17.1,2.83c.5,0,1,0,1.51,0a83.45,83.45,0,0,0,17.27-2.07,4,4,0,0,0,3.06-3.89v-.72c2.89-.12,5.32-.19,7-.2,5.56,0,13.65-2.48,14.56-2.76a3.88,3.88,0,0,0,1.51-.87l5.49-5a4,4,0,0,0,1.3-3l.16-89.68v-.19ZM369,204.09C358.56,205,247,219.65,212,224.27c7.84-2.41,15.39-4.45,21.4-4.92C238,219,305.63,211,346.05,206.23l26.66-3.14a94.9,94.9,0,0,1,14.9-.33C379.71,203.27,372.51,203.79,369,204.09ZM50.63,98.88c10.71,3.12,75.59,22.06,81.78,23.82,4.7,1.35,14.48,2.1,24.54,2.1,3.11,0,6.24-.07,9.26-.22l1,2.58a161.37,161.37,0,0,1-21.85.13,74.08,74.08,0,0,1-21-4.21l-2.86-.94c-5.37-1.69-57.64-17.58-71.8-21.88Zm380.79,6.28-1.69.37-.93.2-.72.15-.21-.58a23.7,23.7,0,0,0,3-.85Zm-10.64,90.7c-7.95.59-15.72,0-23.26-.49-8.36-.6-17-1.21-25.7-.23-1.71.19-12.19,1.43-26.7,3.14C307.4,202.74,237.2,211,232.77,211.38c-9.23.72-20.91,4.49-32.2,8.12-8.57,2.76-16.66,5.37-22.42,6.21l-1.76.25-.06-91.48.75-.06.55,0c9.44-.86,18.85.48,28.81,1.9,7.81,1.11,15.84,2.25,24,2.25,2,0,4.07-.07,6.12-.23,23.75-1.88,126.65-10.21,133.32-11,10.59-1.22,19.84-4.15,28-6.73,7.15-2.27,13.89-4.4,20.61-5.16l2.75-.32ZM125.26,131.79a82.85,82.85,0,0,0,19.48,3.48,173.64,173.64,0,0,0,23.59-.16l.06,91.9c-20.57,2.45-34.95,2.16-42.8-.88h0Zm294.48-25.5.31.89-2.5.29c-7.49.84-14.6,3.1-22.13,5.48-8.2,2.6-16.67,5.28-26.49,6.41-6.17.71-105.93,8.81-133,11-9.33.74-18.56-.57-28.33-2-10-1.42-20.28-2.89-30.65-1.95l-.56,0-.83.07-1-2.56C199.71,121.89,404.41,107.37,419.74,106.29ZM117.25,129.2l.3,93.55c-18.89-8.25-59.35-26.92-69.43-31.59v-83C62.09,112.39,106.72,126,117.25,129.2Zm314.48,65c-.82.18-1.84.38-3,.59l.41-81,1.29-.27.91-.2.48-.1Zm-143.18-112L405.24,99.29c-51.89,3.68-222,15.79-233.39,16.87-13.79,1.32-31.66.45-37.25-1.15-4.71-1.34-43.64-12.7-66.55-19.39Z"/><path class="cls-1" d="M198,186.34a9,9,0,0,0-7.92,8.82,7.81,7.81,0,0,0,7.89,7.9c.3,0,.6,0,.9-.05a9,9,0,0,0,7.93-8.81,8,8,0,0,0-2.59-5.91A8.06,8.06,0,0,0,198,186.34Zm.1,8.68a1,1,0,0,1,.68-.69A1,1,0,0,1,198.12,195Z"/><path class="cls-1" d="M373.62,154.88a6.52,6.52,0,0,0-5.07-1.59,7.14,7.14,0,0,0-6.29,7,6.4,6.4,0,0,0,6.44,6.46c.24,0,.49,0,.73,0a7.16,7.16,0,0,0,6.31-7A6.47,6.47,0,0,0,373.62,154.88Zm-4.19,6.36a1.52,1.52,0,0,1-1.15-.4,1.56,1.56,0,0,1-.54-1.14.86.86,0,0,1,.81-.92h.14a1.58,1.58,0,0,1,1,.41,1.54,1.54,0,0,1,.54,1.13A.88.88,0,0,1,369.43,161.24Z"/><path class="cls-1" d="M373.62,173.27a6.55,6.55,0,0,0-5.06-1.59,7.15,7.15,0,0,0-6.3,7,6.4,6.4,0,0,0,6.44,6.46,6,6,0,0,0,.73,0,7.15,7.15,0,0,0,6.31-7A6.47,6.47,0,0,0,373.62,173.27Zm-4.19,6.36a1.46,1.46,0,0,1-1.15-.4,1.54,1.54,0,0,1-.54-1.13.86.86,0,0,1,.82-.93h.14a1.62,1.62,0,0,1,1.56,1.54A.86.86,0,0,1,369.43,179.63Z"/><path class="cls-1" d="M388.23,169.51a7.15,7.15,0,0,0-6.29,7,6.41,6.41,0,0,0,6.44,6.46c.24,0,.49,0,.73,0a7.15,7.15,0,0,0,6.32-7,6.47,6.47,0,0,0-2.12-4.82A6.55,6.55,0,0,0,388.23,169.51Zm.88,8a1.57,1.57,0,0,1-1.15-.4,1.59,1.59,0,0,1-.53-1.14.86.86,0,0,1,.8-.92h.15a1.55,1.55,0,0,1,1,.41,1.57,1.57,0,0,1,.53,1.13A.87.87,0,0,1,389.11,177.46Z"/><path class="cls-1" d="M413,168.93a6.47,6.47,0,0,0-5.05-1.59,7.15,7.15,0,0,0-6.31,7,6.41,6.41,0,0,0,6.45,6.46c.24,0,.49,0,.73,0a7.17,7.17,0,0,0,6.31-7A6.48,6.48,0,0,0,413,168.93Zm-4.18,6.36a1.59,1.59,0,0,1-1.69-1.54.88.88,0,0,1,.81-.93h.14a1.6,1.6,0,0,1,1.56,1.54A.87.87,0,0,1,408.81,175.29Z"/><path class="cls-1" d="M238.2,184.91l-9,1a4,4,0,0,0-3.56,4v4.52a4,4,0,0,0,4,4,3.25,3.25,0,0,0,.44,0l9-1a4,4,0,0,0,3.56-4v-4.52a4,4,0,0,0-4.44-4Z"/></g></svg>