<svg id="Artwork" xmlns="http://www.w3.org/2000/svg" viewBox="0 0 480 320"><defs><style>.cls-1{fill:#000;}</style></defs><path class="cls-1" d="M444.27,103.44a9.17,9.17,0,0,0-2.9-6.67,15.88,15.88,0,0,0-8.44-4L294.35,72.47a40,40,0,0,0-8.11-.35L46.92,86.33h0a12.79,12.79,0,0,0-12,12.75v100l2.33,1.07c25,11.45,73.31,33.71,77.69,36a32.38,32.38,0,0,0,5.09,2.07l0,1.36.26.71c1,2.84,5.61,7.59,24.55,7.59,18.77,0,23.86-3.81,25.23-6.08l.57-1v-.26c2.48-.27,4.52-.51,5.79-.7a79.79,79.79,0,0,0,9.16-2,38.11,38.11,0,0,1,5.82-1.26c2.07-.17,52-6.31,122.36-15l61-7.5-.13.42a74.07,74.07,0,0,0,17.53,2.91q.76,0,1.53,0a86,86,0,0,0,17.73-2.12l3.06-.75V209.9l2,.2a47.13,47.13,0,0,0,5.24.39c3,0,8.85-1.3,13.26-2.4a9.8,9.8,0,0,0,4.29-2.3l2.27-2.06a10.88,10.88,0,0,0,3.54-8.13ZM129.62,121.51c4.83,1.38,14.86,2.15,25.18,2.15,3.28,0,6.59-.08,9.77-.24L165.8,126c-6.23.5-16.19,1.24-23.48,1.24s-13.61-2.33-19.22-4.39c-1.68-.61-3.26-1.19-4.77-1.67-5.74-1.81-63.7-19.42-75.33-23a4.4,4.4,0,0,1,.32-1C60.31,102,123.64,119.8,129.62,121.51Zm307.22,75.36c-.65.21-1.7.54-3,.86v-85.4a16.75,16.75,0,0,0,2.49-.36l.75,83.7A2.75,2.75,0,0,1,436.84,196.87Zm-.77-94.08a1.42,1.42,0,0,1,.2.72v.3l-1.28.27c-.51.11-.85.18-1.14.22v-.17l-.3-.61A20.52,20.52,0,0,0,436.07,102.79Zm-10.91,1.83.24.49c-4.34.69-7.75,3-11,5.35-3.78,2.64-7.36,5.14-12.35,5.14-3.62,0-50.28,4-115.8,9.62-41,3.53-79.7,6.86-86.48,7.29-6,.38-9-1.21-12.41-3.06s-7-3.75-13-4v-.3l-1.17-2.41C200.79,120.51,413.78,105.41,425.16,104.62ZM122.45,227.91,122.14,131c5.6,2,12.36,4.22,20.18,4.22,7.55,0,17.68-.75,24-1.26l.3,96.14c-18.32,2.69-33.51,2-44.1-2.13Zm-8.32-99.7.31,96.32C95.06,216.08,53.2,196.76,42.91,192V106.52C57.14,110.84,103.44,124.91,114.13,128.21Zm70.32,95.44a50.4,50.4,0,0,1-9.8,4.83l-.3-95c3.92.19,6.31,1.47,9.19,3,3.58,1.92,7.59,4.07,14.45,4.07.72,0,1.47,0,2.25-.08,6.87-.43,45.62-3.77,86.65-7.3,49.71-4.27,111.56-9.59,115.12-9.59,7.51,0,12.74-3.65,16.93-6.58,2.48-1.73,4.67-3.26,6.91-3.85v85.44a11.41,11.41,0,0,1-5.37-2.07c-2.87-1.74-6.45-3.91-13.91-3.14-2.91.3-41.55,4.7-86.28,9.79-53.08,6.05-113.24,12.91-116.7,13.24C195.39,217.22,189.58,220.63,184.45,223.65ZM286.72,80.11a31.79,31.79,0,0,1,6.47.28L410.82,97.61c-52,3.68-228.29,16.22-240.71,17.4-14.17,1.35-32.54.45-38.29-1.19C127,112.44,85.11,100.63,60,93.57Zm26,133.65C260.37,220.2,201.47,227.45,192,228.55a31,31,0,0,1,12.39-4.16c3.52-.34,63.72-7.2,116.84-13.25,42.85-4.88,83.32-9.49,86.19-9.79a13.21,13.21,0,0,1,5.87.45,23.83,23.83,0,0,0-3.16,0C408.47,202,372.23,206.45,312.75,213.76Z"/><path class="cls-1" d="M255.84,205.27,359.75,194.5a2.26,2.26,0,0,0,2-2.19V145.17a1.76,1.76,0,0,0-2-1.78l-103.91,9a2.27,2.27,0,0,0-2,2.2v48.86A1.77,1.77,0,0,0,255.84,205.27Z"/><path class="cls-1" d="M193.6,187A10.4,10.4,0,0,0,184.52,197a8,8,0,0,0,9.08,8.09A10.42,10.42,0,0,0,202.69,195,8,8,0,0,0,193.6,187Z"/><path class="cls-1" d="M379.36,166a6.56,6.56,0,0,0,5.73-6.36,5,5,0,0,0-5.73-5.09,6.55,6.55,0,0,0-5.71,6.36A5,5,0,0,0,379.36,166Z"/><path class="cls-1" d="M379.36,187.55a6.55,6.55,0,0,0,5.73-6.35,5,5,0,0,0-5.73-5.09,6.54,6.54,0,0,0-5.71,6.35A5,5,0,0,0,379.36,187.55Z"/><path class="cls-1" d="M398.83,185.81a6.55,6.55,0,0,0,5.73-6.36,5,5,0,0,0-5.73-5.09,6.57,6.57,0,0,0-5.71,6.36A5,5,0,0,0,398.83,185.81Z"/><path class="cls-1" d="M416.17,184.12a6.54,6.54,0,0,0,5.73-6.35,5,5,0,0,0-5.73-5.09,6.56,6.56,0,0,0-5.71,6.35A5,5,0,0,0,416.17,184.12Z"/><polygon class="cls-1" points="240.1 186.9 221.26 188.97 221.26 198.39 240.1 196.31 240.1 186.9"/></svg>