<svg xmlns="http://www.w3.org/2000/svg" viewBox="0 0 480 320"><defs><style>.cls-1{fill:#000;}</style></defs><g id="N-03T"><path class="cls-1" d="M205.59,193.35c-.09-3.55-2.53-6-6.16-5.61-2.79.28-5.33,3.18-5.24,6.73a5.92,5.92,0,0,0,6.33,5.59C203.23,199.69,205.69,196.91,205.59,193.35Z"/><path class="cls-1" d="M379.5,179.81a3.11,3.11,0,1,0-2.56-3.07A2.84,2.84,0,0,0,379.5,179.81Z"/><path class="cls-1" d="M396.66,177.36a3.12,3.12,0,1,0-2.55-3.07A2.85,2.85,0,0,0,396.66,177.36Z"/><path class="cls-1" d="M414.44,175.72a3.12,3.12,0,1,0-2.55-3.06A2.85,2.85,0,0,0,414.44,175.72Z"/><path class="cls-1" d="M450.17,107.06l-4.38-6.49c-.05-.06-.11-.12-.16-.19l-.29-.34c-.09-.09-.18-.16-.27-.24a2.78,2.78,0,0,0-.33-.27,2.43,2.43,0,0,0-.35-.2l-.23-.14-.14,0-.27-.1a2.85,2.85,0,0,0-.48-.13l-.15,0L308.88,76.73a4.29,4.29,0,0,0-.88,0L39.67,91.92a4,4,0,0,0-3.09,1.77l-6.76,10.07a4,4,0,0,0-.68,2.23v84.63a4,4,0,0,0,2.33,3.64c25.64,11.76,75.33,34.63,79.82,37a34,34,0,0,0,5.31,2.14l0,.7a4.09,4.09,0,0,0,.24,1.47c1.06,2.88,5.73,7.73,25.13,7.73,19.23,0,24.43-3.89,25.82-6.2a4,4,0,0,0,.48-1.27c2.63-.29,4.79-.55,6.13-.75a81.45,81.45,0,0,0,9.4-2.08,36.74,36.74,0,0,1,6-1.29c2.11-.18,53.4-6.48,125.64-15.37l61.89-7.6a4.82,4.82,0,0,0,.77.33,76.44,76.44,0,0,0,18,3c.52,0,1,0,1.56,0a87.69,87.69,0,0,0,18.19-2.17,4,4,0,0,0,3.06-3.89v-1.81c.72.06,1.45.14,2.21.22a47.27,47.27,0,0,0,5.38.4c4,0,13.33-2.38,15.15-2.86a4.06,4.06,0,0,0,1.68-.91l5.78-5.28a4,4,0,0,0,1.31-2.93l.46-83.54A4,4,0,0,0,450.17,107.06ZM40.22,102.62c12.23,3.53,79.69,23,86.15,24.82,4.95,1.41,15.24,2.21,25.84,2.21,3.36,0,6.74-.08,10-.25l1.32,3.11c-6.12.55-16.4,1.34-23.68.79-8.71-.67-16.23-3.13-22.27-5.1l-2.88-.93c-5.64-1.78-60.36-18.41-75.58-23Zm401.65,6.44-1.3.29-1.42.31-1,.22-.41-.73a24.65,24.65,0,0,0,3.55-1Zm-12.81,1.08.58,1c-4.14.83-7.46,3.12-10.68,5.37-3.9,2.72-7.58,5.29-12.75,5.29-3.72,0-51.74,4.11-119.18,9.91-42,3.61-81.69,7-88.64,7.47-6.18.39-9.25-1.25-12.81-3.16s-7.3-3.9-13.57-4.06l-1.36-3.2C196.48,126.64,409.67,111.51,429.06,110.14Zm-264.55,115a121,121,0,0,1-45.66-3.27l-.3-84.94a91.43,91.43,0,0,0,20.7,4.36c8.05.62,18.73-.22,25.26-.81Zm18.22-6.56a51.54,51.54,0,0,1-10.22,5V140c3.94.23,6.37,1.53,9.29,3.09,3.66,2,7.77,4.17,14.79,4.17.74,0,1.51,0,2.31-.08,7-.45,46.76-3.86,88.82-7.48,51.16-4.4,114.83-9.88,118.49-9.88,7.68,0,13-3.73,17.33-6.74,2.73-1.9,5.12-3.55,7.61-4.07l-.31,73.86a11.88,11.88,0,0,1-5.71-2.15c-2.93-1.78-6.59-4-14.22-3.22-3,.31-43,4.87-89.39,10.15-54.2,6.18-115.63,13.18-119.17,13.52C194,212,188,215.47,182.73,218.56Zm259.68-27.64c-.6.21-1.9.64-3.57,1.05l.31-74.14c.58-.11,1.08-.21,1.72-.36l1.36-.29.59-.13ZM308,84.7,418.3,102.88C369,106.37,180.12,119.81,168,121c-14.58,1.39-33.47.47-39.39-1.22L56.48,99ZM37.14,112c14.49,4.4,62.53,19,73.4,22.36l.31,87.81c-15-7.14-62.42-28.92-73.71-34.1Zm277.31,96.43c-54.89,6.76-116.76,14.36-124.57,15.25a32.62,32.62,0,0,1,13.24-4.55c3.61-.35,62.42-7.05,119.31-13.53,44.39-5.06,86.33-9.84,89.3-10.14a12.67,12.67,0,0,1,6.69.7,25.85,25.85,0,0,0-3.52,0h-.37C412.86,196.32,375.61,200.9,314.45,208.42Z"/><path class="cls-1" d="M259.61,195.47c1.27.87,3.25,1.31,5.9,1.31l1.36,0c6.9-.36,88.74-9.44,91.38-9.92l1.07-.17c3-.43,4.87-.88,4.88-4.68,0-3.1,0-8-.06-12.73,0-4,0-7.87,0-10.26,0-3.93-1.39-5.39-5.12-5.39-.44,0-.91,0-1.4.06-3.63.32-87.88,8.54-93,9.13-3.72.42-6.61,4.46-6.61,7.66l0,21.5A4,4,0,0,0,259.61,195.47Z"/><polygon class="cls-1" points="233.39 193.15 233.4 192.97 233.28 192.98 233.39 193.15"/><polygon class="cls-1" points="245.98 191.47 246.05 186.79 246.12 186.65 233.46 188.11 233.4 192.97 246.15 191.5 245.98 191.47"/></g></svg>