<svg id="Artwork" xmlns="http://www.w3.org/2000/svg" viewBox="0 0 480 320"><defs><style>.cls-1{fill:#000;}</style></defs><path class="cls-1" d="M446.22,96.48a5.78,5.78,0,0,0-1.8-1h0L295,32.46l-9,2.44.07,4.71-7.8-3.35L54.57,90.94l.15,4.35L49.2,91.72,47.69,92a89.16,89.16,0,0,0-13.56,4c-6.5,2.68-7,9.56-6.39,12.82h.11V109l2.33,73.08a3.79,3.79,0,0,0,1.41,2.78L166,292.61a9.59,9.59,0,0,0,4.58,5.3,6.67,6.67,0,0,0,3.05.61,7.73,7.73,0,0,0,3.16-.83c4.22-2,243.52-115.44,248.61-117.85,2.61-1.13,7.3-5,8.85-12.39s14.13-63.14,14.26-63.69l.06-.38C448.63,102.61,449,98.71,446.22,96.48ZM224.36,179.57l.21-.35c21.47-7.73,55.43-20,89.12-32.21,32.42-11.78,58.25-21.24,76.77-28.13,11-4.09,19.55-7.29,25.33-9.57l3.66-1.44.12,3.43L210.41,191.87l-.26-7.46,14-5ZM378.2,115.38,241.31,53.09l14.14-3.45-.21.47,138.22,59.61C388.81,111.46,383.7,113.34,378.2,115.38Zm-10.05,3.71c-8.12,3-16.87,6.2-26.07,9.56L203.92,62.23,229.52,56Zm-36,13.18-26.6,9.66L166,71.45,192.32,65Zm-36.31,13.2-27.81,10.07c-47.72-26-115.36-63.09-137-75.52l23.79-5.81v.06ZM120.67,82.56c2.67,1.79,8.6,5.17,22.33,12.86,12.14,6.78,29,16.11,50.13,27.73,26.4,14.5,53,29,65.4,35.81l-33.65,12.17L90.35,90Zm173-41.92.81-.22,138.6,58.45-.14.09-1.32,1-.08.72-3.77.13-.06-1.63-134-56.4ZM414.4,101.77c-3,1.18-6.87,2.65-11.43,4.37l.2-.45L266.78,46.87l10.9-2.66ZM80.08,92.48l0,.06,135.71,81.84-14.53,5.23L68,95.44ZM37,103a74.22,74.22,0,0,1,10.72-3.21L186.14,189l-7.94,2.74-.19.07a17.31,17.31,0,0,0-8,7.22L35.08,106.68C35.05,105.61,35.25,103.7,37,103ZM167.38,230.7,36.21,134.87l-.6-18.7,132.67,90.77C168.08,211.2,167.76,220.16,167.38,230.7ZM36.52,144.43l130.55,95.32c-.22,6.46-.48,13.14-.65,19.44L37.06,161.59Zm.85,26.84L166.1,268.46c-.19,5.55-.36,10.48-.44,14.25l-128-102.62Zm389.46-5.37c-1.12,5.37-4.41,7-4.46,7l-.16.07c-9.94,4.67-241.74,114.52-248.72,117.84a4.71,4.71,0,0,1-.57-1.06c.25-7.66,2.53-78.07,3-84.56.27-4.21,4.34-6.2,4.88-6.46l10.59-3.66.16,4.46c.14,3.76,2.08,5.42,3.27,6.09,3.24,1.84,7.15.16,8.38-.47,0,0,219.64-84.66,225.16-86.21,6.27-1.56,9.16-7.65,9.9-11l.42-3.69c.54-.26,1.24-.58,2.12-.92-1.87,8.65-12.47,55.6-13.92,62.57Z"/><path class="cls-1" d="M192.61,212.08c-4.1,0-8.09,4.45-8.92,9.87s1.83,9.8,5.93,9.77,8.09-4.43,8.92-9.86S196.71,212.06,192.61,212.08Z"/><path class="cls-1" d="M424.35,123.48c-2.89,0-5.72,3.14-6.3,7s1.3,6.92,4.19,6.9,5.73-3.14,6.31-7S427.25,123.45,424.35,123.48Z"/><path class="cls-1" d="M419.05,155.91c-2.89,0-5.71,3.15-6.29,7s1.29,6.92,4.18,6.91,5.73-3.15,6.31-7S422,155.9,419.05,155.91Z"/><path class="cls-1" d="M192.25,254c-4.1,0-8.09,4.44-8.92,9.86s1.84,9.8,5.94,9.77,8.1-4.43,8.92-9.86S196.35,254,192.25,254Z"/></svg>