<svg xmlns="http://www.w3.org/2000/svg" viewBox="0 0 480 320"><defs><style>.cls-1{fill:#000;}.cls-2{fill:none;stroke:#000;stroke-miterlimit:10;stroke-width:8px;}</style></defs><g id="Artwork"><path class="cls-1" d="M232.73,188.65,233,212a3.18,3.18,0,0,0,4.07,3l80.79-23.59a3.16,3.16,0,0,0,2.29-3l.07-21.24a3.18,3.18,0,0,0-4-3.09l-81.13,21.49A3.17,3.17,0,0,0,232.73,188.65Z"/><path class="cls-1" d="M187.16,217.06c-1.66,4-.79,8.2,2,9.34s6.32-1.2,8-5.21.79-8.19-2-9.33S188.82,213.05,187.16,217.06Z"/><path class="cls-1" d="M210.12,212.18c-1.66,4-.79,8.19,2,9.33s6.32-1.19,8-5.21.78-8.18-2-9.33S211.78,208.16,210.12,212.18Z"/><path class="cls-1" d="M330.81,176.51c-1.67,4-.8,8.2,2,9.33s6.33-1.19,8-5.2.78-8.19-2-9.34S332.47,172.5,330.81,176.51Z"/><path class="cls-1" d="M348.4,170.65c-1.67,4-.8,8.19,2,9.33s6.33-1.2,8-5.21.78-8.19-2-9.33S350.06,166.63,348.4,170.65Z"/><path class="cls-1" d="M366.47,165.27c-1.66,4-.79,8.2,2,9.33s6.33-1.19,8-5.2.78-8.19-2-9.34S368.14,161.26,366.47,165.27Z"/><path class="cls-1" d="M189.26,194.14c-1,2.36-.47,4.83,1.16,5.5s3.73-.7,4.71-3.07.46-4.83-1.16-5.5S190.24,191.77,189.26,194.14Z"/><path class="cls-1" d="M456.84,110.43c-.95-2.36-1.22-2.91-28.93-8.72-18-3.76-40.84-8.19-56.86-11.28-33.2-6.34-83.16-15.57-86.7-15.57A123.94,123.94,0,0,0,265,76.53c-2.94.5-60.17,9.85-115.53,18.88L49.77,111.72a96.09,96.09,0,0,0-24.72,7.36,3.81,3.81,0,0,0-2.12,3.55c0,.08,0,.16.05.23h-.1l4.31,45.76a3.83,3.83,0,0,0,2.06,3c47.17,24.33,137,70.62,139.09,71.79a12.94,12.94,0,0,0,6.55,1.65c1,0,1.91-.07,2.86-.15h.39c3.38-.27,24.7-3.62,28.27-4.39s11.92-3.23,15.48-4.28l.66-.19c1.95-.53,211.12-66.2,213.17-66.87,1.32-.44,6.76-2.34,9.16-3.48,2.12-1,9.18-4.58,11.17-8a3.79,3.79,0,0,0,.51-1.67c.15-2.28.45-42.32.55-44V112A4.17,4.17,0,0,0,456.84,110.43ZM51,119.24l99.7-16.31c55.41-9,112.64-18.4,115.6-18.91a120,120,0,0,1,17.95-1.51c2.85.21,40.48,6.92,82.94,15s66.61,13.12,77.37,15.72c-10.05,2.63-221.81,57.19-223.41,57.6-8.83,2.22-21,4.54-28.56,5.73-8.11,1.27-17.88,2.23-19.58,2a13.29,13.29,0,0,1-2.54-.77l-.18-.07L37.06,122.63A101.15,101.15,0,0,1,51,119.24Zm398.07,33a4.43,4.43,0,0,1-2.14,3.78c-1.78,1.08-4,2.08-5.36,2.79-1.71.82-6.29,2.46-8.26,3.12-2.48.81-100.48,31.57-162.67,51l-24.08,7.64-26.16,8.19-.66.19c-3.18.94-11.62,3.43-14.91,4.13-3.65.78-24.56,4-27.29,4.25h-.39c-2.54.2-3.51.23-4.84-.45l-3-1.71a.76.76,0,0,0,0,.15C151.44,226.13,50.26,174,34.67,165.81l-3.54-37.46,136.24,56.37.16.07v.07l2.83,1v-.06c.56.13,1,.25,1.52.32a10.83,10.83,0,0,0,1.71.1c5,0,16.12-1.5,20.19-2.14,7.73-1.22,20.19-3.59,29.27-5.91l223.68-57.67,2.28-.71S449.12,145.36,449.07,152.26Z"/><rect class="cls-1" x="168.27" y="182.48" width="5.37" height="58.63"/></g><g id="Dial_back" data-name="Dial back"><path class="cls-2" d="M419.38,144.79l-15.58-6.27c-5.34-2.18-12.13,2-15.15,9.43s-1.15,15.15,4.2,17.34l17.41,7"/></g><g id="Dial"><path class="cls-2" d="M404.69,154.41c-3,7.39-1.15,15.16,4.2,17.34s12.12-2,15.15-9.42,1.14-15.16-4.2-17.34S407.71,147,404.69,154.41Z"/></g></svg>