<svg id="Artwork" xmlns="http://www.w3.org/2000/svg" viewBox="0 0 480 320"><defs><style>.cls-1{fill:#000;}</style></defs><g id="Page-1"><g id="SVGS"><path class="cls-1" d="M454.31,122.16a8.79,8.79,0,0,0-7-2.13l-.21,0C429.75,109.87,311.8,40.8,307.28,38.28c-5-2.8-7.52-2.56-10.74-1.87l-1.2.24c-1.16.2-25,3.75-55.2,8.25C137.49,60.19,36.92,75.21,32.85,76.21c-7.06,1.75-9.93,5.12-9.93,11.61,0,2.07.54,20.5,1.11,40,.49,16.4,1,33.36,1,34.86,0,3.6.73,5,2.25,6.76.13.15.28.31.44.51.7.87,7,6.13,74.77,61.69,21.9,18,42.69,35,47.09,38.69,1.42,4.67,5.37,7.42,11.34,7.69.31,0,.65,0,1,0,4.56,0,12.63-1.14,21.08-2.49v2c8.29,5.48,34.3.79,36-3.63v-4.7c39.54-7.48,127.15-24.51,172.06-33.26v.57c8.3,5.48,34.31.79,36-3.62v-4.44l7.57-2c5.54-1.45,11.27-2.95,12.62-3.22,4.89-1,9.82-5.59,9.82-13.64V129.18A9.1,9.1,0,0,0,454.31,122.16ZM34.76,84c4.89-1.13,136.08-20.67,206.56-31.17,35.74-5.32,54.44-8.11,55.43-8.29.53-.09,1-.19,1.46-.29,1.93-.41,2.39-.51,5.17,1,4,2.21,101.12,59.09,132.21,77.3-1.41.32-2.82.62-4.19.84s-17.58,2.87-41.93,6.86c-68.48,11.21-195.94,32.09-203.7,33.21-5.65.81-11.16,1.55-15.6,2.14-3.88.51-6.95.92-8.8,1.21l-1.21.16c-2.5.32-6.95.91-9.2,4.93C121,152.09,43.33,95.09,31.05,86.07,31.32,85.12,32.16,84.63,34.76,84Zm-1,80.74-.51-.6-.17-.18a10.59,10.59,0,0,1-.06-1.26c0-1.62-.45-17.13-1-35.09-.33-11.34-.7-23.64-.91-31.55,21.87,16,93.22,68.19,118.44,84.53,0,8.06-.21,30.89-.36,51.34-.08,11.1-.15,21.23-.19,27.58-7.85-6.47-22.19-18.23-41.47-34C76,199.59,36.84,167.5,33.75,164.72Zm415.33,44.93c0,4-2.14,5.54-3.4,5.8-1.57.31-6.9,1.71-13.06,3.32s-12.88,3.37-15.6,4c-1.12.25-204.09,39.84-218.67,42.16l-7.46,1.23c-10.43,1.74-24.71,4.11-29.62,3.89-4-.18-4.3-1.59-4.3-3.9,0-1.68.11-16.73.23-34.16.17-23.39.37-49.9.37-53.9,0-2.68.2-2.71,3.6-3.14.48-.06,1-.12,1.43-.2,1.76-.27,4.79-.67,8.63-1.18,4.45-.59,10-1.33,15.69-2.15,7.83-1.13,135.34-22,203.84-33.24,23.47-3.84,40.43-6.62,41.9-6.85,2.92-.47,6-1.23,8.64-1.89A53.08,53.08,0,0,1,448,128h.34a3,3,0,0,1,.54,0,2.49,2.49,0,0,1,.19,1.14Z"/><path class="cls-1" d="M180.18,235.24c-3.82,3.83-4.28,9.55-1.09,12.74s8.73,2.61,12.55-1.23,4.48-9.44,1.33-12.61S184,231.42,180.18,235.24Z"/><path class="cls-1" d="M445.07,132.55c-2.19-1.4-5.24-.1-6.82,2.91s-1.1,6.57,1.09,8,5.23.1,6.81-2.91S447.25,134,445.07,132.55Z"/><path class="cls-1" d="M445.07,202.58c-2.19-1.4-5.24-.1-6.82,2.91s-1.09,6.57,1.09,8,5.23.1,6.81-2.91S447.25,204,445.07,202.58Z"/><path class="cls-1" d="M160.94,180.05c-2.46,2.5-2.64,6.29-.41,8.47s6,1.94,8.47-.56,2.64-6.28.42-8.46S163.39,177.56,160.94,180.05Z"/><path class="cls-1" d="M160.94,258.09c-2.46,2.49-2.64,6.28-.41,8.46s6,1.94,8.47-.55,2.64-6.29.42-8.47S163.39,255.59,160.94,258.09Z"/><path class="cls-1" d="M418.68,142.12c-2.27.4-209.56,34.11-212.33,34.59S201,178.8,201,183.28v62.45c0,3.21,1.63,4.81,5.7,4.17s208.91-38.76,211.84-39.4,4.55-2.4,4.55-5.76V145C423.07,142.45,421.44,141.64,418.68,142.12Zm-19.62,51L225,226v-41.9L399.06,154Z"/><path class="cls-1" d="M339.44,190.81a.5.5,0,0,0,.4-.47.32.32,0,0,0-.4-.32.5.5,0,0,0-.4.46A.33.33,0,0,0,339.44,190.81Z"/><path class="cls-1" d="M280.79,200.25l2,1.77,2.22-2.76-3.37-2.95a1.53,1.53,0,0,0-2.18.44,1.73,1.73,0,0,0,0,2.35l.06.05A3.32,3.32,0,0,1,280.79,200.25Z"/><path class="cls-1" d="M277.24,207.94l4.86-1a1.17,1.17,0,0,0,.67-.42.39.39,0,0,0,.08-.1l2.44-3.12,2.49,2.17a1,1,0,0,0,1.37-.27,1.11,1.11,0,0,0,0-1.47l-2.49-2.17,2.25-2.89,4.94-1c.93-.18,1.52-.14,1.82.12a1.44,1.44,0,0,1,.37.87l-3.86.76a3.36,3.36,0,0,0-2.59,3.24,2.13,2.13,0,0,0,2.59,2.23l2-.4a1.27,1.27,0,0,0,1-1.23.8.8,0,0,0-1-.84l-2,.4a.52.52,0,0,1-.65-.55.79.79,0,0,1,.65-.77l3.92-.78v2.36a.8.8,0,0,0,1,.84h0l8.57-1.71a4.18,4.18,0,0,0,3.07-3.21,3.34,3.34,0,0,0,3.82,1.87,5.09,5.09,0,0,0,3-1.91,5.78,5.78,0,0,0,1-2,3.32,3.32,0,0,0,3.95,2.35,4.91,4.91,0,0,0,2.42-1.32.77.77,0,0,0,.94.61,1.27,1.27,0,0,0,1-1.23v-3.51a2.93,2.93,0,0,1,2.21-2.81,1.82,1.82,0,0,1,2.21,1.93v3.55a.8.8,0,0,0,1,.85,1.29,1.29,0,0,0,1-1.23v-1.3a3.34,3.34,0,0,0,3.66,1.59,4.87,4.87,0,0,0,2.3-1.2.77.77,0,0,0,.93.58,1.29,1.29,0,0,0,1-1.23v-9.75a.8.8,0,0,0-1-.84,1.28,1.28,0,0,0-1,1.23v6.06a1.64,1.64,0,0,0,0,.22,3,3,0,0,1-2.24,2.85,1.85,1.85,0,0,1-2.24-2,3,3,0,0,1,2.24-2.85l.22,0a1.34,1.34,0,0,0,1.07-1.19c0-.58-.34-1-.88-.92l-.41.07a5.45,5.45,0,0,0-3.9,3.65A3.33,3.33,0,0,0,327,189a4.88,4.88,0,0,0-2.41,1.32.77.77,0,0,0-.94-.61,1.28,1.28,0,0,0-1,1.23v3.51a2.93,2.93,0,0,1-2.21,2.81,1.82,1.82,0,0,1-2.21-1.93v-3.55a.8.8,0,0,0-1-.85,1.29,1.29,0,0,0-1,1.23v1.64a3.34,3.34,0,0,0-3.8-1.87,4.48,4.48,0,0,0-1.56.64,1.24,1.24,0,0,0-.54,1.45.82.82,0,0,0,1.26.33,2.44,2.44,0,0,1,.84-.34,1.86,1.86,0,0,1,2.25,2,3,3,0,0,1-.66,1.84,2.75,2.75,0,0,1-1.59,1,1.84,1.84,0,0,1-1.6-.39,2.06,2.06,0,0,1-.66-1.58,2.55,2.55,0,0,1,.1-.72.86.86,0,0,0-.65-1.16,1.18,1.18,0,0,0-1.2.93,4.68,4.68,0,0,0-.14.71,2.53,2.53,0,0,0-2.74-1.15l-1,.2h0l-3.65.73a1,1,0,0,1-1.22-1.07,1.62,1.62,0,0,1,1.22-1.55l6.27-1.25a1.29,1.29,0,0,0,1-1.23.8.8,0,0,0-1-.85L301,191.71a4.21,4.21,0,0,0-3.16,4,2.61,2.61,0,0,0,3.16,2.75l1-.19h0l3.64-.72a1,1,0,0,1,1.23,1.07,1.62,1.62,0,0,1-1.23,1.55L298,201.71v-2.4a4.22,4.22,0,0,0-1-3.21c-.69-.61-1.71-.75-3.2-.45l-5.22,1-.12,0a1.1,1.1,0,0,0-.69.44l-2.57,3.28h0L284,202.08h0L281.7,205l-4.46.89a1.9,1.9,0,0,1-2.29-2,3,3,0,0,1,2.29-2.91,1.82,1.82,0,0,1,2.08,1l-2.16.42a1.29,1.29,0,0,0-1,1.23.8.8,0,0,0,1,.85l3.34-.66a1.29,1.29,0,0,0,1-1.23,4.1,4.1,0,0,0-.68-2.32l-1.26-1.1a3.51,3.51,0,0,0-2.29-.28,5.63,5.63,0,0,0-4.23,5.38A3.5,3.5,0,0,0,277.24,207.94Z"/></g></g></svg>