<svg id="Artwork" xmlns="http://www.w3.org/2000/svg" viewBox="0 0 480 320"><defs><style>.cls-1{fill:#000;}</style></defs><path class="cls-1" d="M457.19,118.67a6,6,0,0,0-2.47-2.38,3.61,3.61,0,0,0-1.21-.68L267.25,55.87A3.49,3.49,0,0,0,265,55.4L32.18,86.22A11.72,11.72,0,0,0,24.64,90a10.09,10.09,0,0,0-3.05,8.16,3,3,0,0,0,.08.45L23.85,128a9.55,9.55,0,0,0,3.55,7l1,.77L155,234.41a9.75,9.75,0,0,0,1.82,1.92l.14.14,1.8,1.41.14.09.21.18a13.24,13.24,0,0,0,8,2.57,12.27,12.27,0,0,0,1.82-.11,446.67,446.67,0,0,0,52.47-9.41l196-48.25a160.28,160.28,0,0,0,30.43-10.34,11.36,11.36,0,0,0,4.86-5.3,21,21,0,0,0,2.2-7.52L458.32,126A12.69,12.69,0,0,0,457.19,118.67ZM248.1,64.73a3.36,3.36,0,0,0,1.54,1L416,120.94l-4.59.93L243.78,65.31Zm-18.89,2.48a3.22,3.22,0,0,0,1.51,1l167,56.4-4.56.94L224.9,67.78Zm-162,21.4,132.47,75.93L187.45,167,60.31,89.55Zm88,88.57a14.88,14.88,0,0,0-3.23,9.43l.73,37.16-120-93.57-.91-.71a2.74,2.74,0,0,1-.89-2L28.61,97.14V97a3.31,3.31,0,0,1,1.13-2.21,4.94,4.94,0,0,1,1.9-1.32L157.25,175A17.55,17.55,0,0,0,155.16,177.18ZM42.16,92l7.07-.87,128.11,78-12.51,2.52ZM217.06,225a444.7,444.7,0,0,1-49,8.69,6.58,6.58,0,0,1-4.7-1.08,4.64,4.64,0,0,1-2-3.72l-.87-41a6.79,6.79,0,0,1,2.11-4.84,9,9,0,0,1,5.25-2.51c17.87-1.85,34.11-4.24,49.51-7.24Zm-7-62.57L78.64,87.13l6.08-.81,136.61,73.86ZM96.54,84.76l113.3-15a3.46,3.46,0,0,0,1.09.62l168.64,57.91L232.05,158Zm316.76,92L224.08,223.31l.3-51.41,192.83-39.57Zm-150.43-114,2.06-.27,170.23,54.62-5.29,1.06Zm188.49,62.64-3.44,33.77a13.64,13.64,0,0,1-1.48,5,5.25,5.25,0,0,1-1.59,2.1,145.29,145.29,0,0,1-24.38,8.7l3.89-44.06a181.15,181.15,0,0,0,27-7.72A10.21,10.21,0,0,1,451.36,125.38Z"/><path class="cls-1" d="M165.05,190a3.34,3.34,0,0,0,0,1.3,3.41,3.41,0,0,0,4.1,2.56,5.34,5.34,0,0,0,4-4.76c.18-2.47-1.63-4.39-4.15-3.87A5.39,5.39,0,0,0,165.05,190Z"/><path class="cls-1" d="M170.59,220a5.39,5.39,0,0,0-4,4.76c-.18,2.47,1.63,4.39,4.15,3.87a5.37,5.37,0,0,0,4-4.76C174.91,221.38,173.11,219.46,170.59,220Z"/><path class="cls-1" d="M381.21,170.1a5.34,5.34,0,0,0,4-4.76c.18-2.47-1.63-4.39-4.14-3.87a5.37,5.37,0,0,0-4,4.76C376.89,168.7,378.7,170.62,381.21,170.1Z"/><path class="cls-1" d="M448.69,129.61a1.42,1.42,0,0,0-1.79-.88c-1.44.26-2.4,2-2.64,3.26a3.24,3.24,0,0,0,.18,2.17v.05a1.42,1.42,0,0,0,1.8.89c1.45-.27,2.4-2,2.65-3.27a3.22,3.22,0,0,0-.19-2.16S448.7,129.63,448.69,129.61Z"/><path class="cls-1" d="M443.33,156.87c-1.4.33-2.35,2-2.6,3.22-.31,1.52.13,3.42,2,3,1.4-.34,2.35-2,2.6-3.22C445.61,158.36,445.17,156.43,443.33,156.87Z"/><path class="cls-1" d="M254,206.4a11.06,11.06,0,0,0,7.06,2.44,13,13,0,0,0,3.1-.37l120.5-28.62c7.38-1.74,11.87-9.67,12.38-16.24a13.62,13.62,0,0,0-2.28-9.21,9.54,9.54,0,0,0-10-3.62L263.18,177.54c-8.54,1.87-13.7,10.6-13.84,17.93A13.42,13.42,0,0,0,254,206.4Zm2.27-10.78c.09-4.56,3.47-10.16,8.36-11.24l121.59-26.82a2.56,2.56,0,0,1,2.83,1,6.79,6.79,0,0,1,1,4.5c-.31,4.11-3.2,9.1-7,10L262.55,201.68a4.63,4.63,0,0,1-4.15-.71h0A6.65,6.65,0,0,1,256.28,195.62Z"/></svg>