<svg id="Artwork" xmlns="http://www.w3.org/2000/svg" viewBox="0 0 480 320"><defs><style>.cls-1{fill:#000;}</style></defs><g id="e28_logo" data-name="e28 logo"><path class="cls-1" d="M23,122.88h-.11l4.32,45.76a3.82,3.82,0,0,0,2.06,3c47.16,24.32,137,70.62,139.09,71.79a13.14,13.14,0,0,0,6.54,1.65c1,0,1.92-.08,2.87-.15h.38c3.38-.27,24.71-3.62,28.28-4.39s11.92-3.23,15.48-4.28l.66-.19c1.95-.54,211.12-66.2,213.16-66.88,1.33-.44,6.77-2.33,9.17-3.47,2.12-1,9.18-4.58,11.16-8a3.8,3.8,0,0,0,.52-1.67c.15-2.28.45-42.32.54-44h0V112a3.91,3.91,0,0,0-.26-1.56c-1-2.36-1.23-2.92-28.93-8.72-18-3.76-40.84-8.19-56.87-11.29-33.2-6.33-83.15-15.56-86.7-15.56A123.81,123.81,0,0,0,265,76.55c-2.95.5-60.17,9.85-115.53,18.88-49.35,8.06-96,15.69-99.72,16.31a95.69,95.69,0,0,0-24.72,7.35,3.84,3.84,0,0,0-2.12,3.56A1.89,1.89,0,0,0,23,122.88Zm421.58-9.63c-10.05,2.62-221.81,57.19-223.42,57.6-8.82,2.21-21,4.54-28.55,5.73-8.11,1.27-17.89,2.23-19.58,2a12.58,12.58,0,0,1-2.54-.76l-.18-.08L37.07,122.65A101.15,101.15,0,0,1,51,119.26L150.7,103c55.42-9,112.64-18.4,115.61-18.91a119.78,119.78,0,0,1,17.95-1.52c2.84.21,40.48,6.93,82.93,15S433.8,110.65,444.57,113.25Zm-198.44,103,.44,4.36-26.16,8.19-.66.19c-3.18.94-11.63,3.43-14.91,4.13-3.65.78-24.57,4-27.29,4.25h-.39c-2.54.2-3.52.23-4.84-.45-.06-1.81-.14-4-.2-5.83a21.05,21.05,0,0,0,5.14.06h.55c1.95-.14,9.91-1.2,10.24-1.25a1.43,1.43,0,0,0,1.24-1.46l-.11-4.32s0-.08,0-.12a1.46,1.46,0,0,0-1.61-1.26c-.07,0-7.5,1-10.29,1.15L176,224c-1.92.18-3.17.25-4.12-.25,0-.91-.08-2.54-.14-4.16a16.1,16.1,0,0,0,5.45.24c2.24-.17,10.17-1.29,10.51-1.34a1.43,1.43,0,0,0,1.23-1.46l-.13-4.25a1.4,1.4,0,0,0-.5-1,1.51,1.51,0,0,0-1.1-.35c-.07,0-8,.92-10.36,1.05h-.66a11.19,11.19,0,0,1-4.78-.33c0-.84-.09-2.25-.15-3.92a23.59,23.59,0,0,0,5,0h.28c2.09-.16,10.34-1.12,10.69-1.12a1.42,1.42,0,0,0,1.27-1.46l-.13-4.33a.28.28,0,0,1,0-.09,1.45,1.45,0,0,0-1.58-1.29c-.09,0-8.64.91-10.92,1.11-1.86.16-3.71.31-4.93-.32l-.55-14.87c.56.13,1,.25,1.52.32a10.76,10.76,0,0,0,1.71.1c5,0,16.12-1.5,20.19-2.14,7.73-1.23,20.19-3.59,29.27-5.92l223.68-57.66,2.28-.71s.1,25.54.06,32.43a4.48,4.48,0,0,1-2.14,3.79c-1.78,1.07-4,2.08-5.36,2.79-1.71.82-6.3,2.45-8.26,3.11-2.48.81-100.48,31.58-162.68,51M169.32,235.38c-17.87-9.24-119-61.41-134.65-69.56l-3.53-37.45,136.24,56.37.16.07.62,16.68a1.42,1.42,0,0,0,.52,1c2.09,1.76,4.91,1.52,7.39,1.31,1.82-.16,7-.69,9.55-1v1.47c-2.46.29-7.71.86-9.23,1h-.27c-1.83.12-4.36.28-5.73-.37a1.41,1.41,0,0,0-.69-.15,1.44,1.44,0,0,0-1.37,1.5c.17,3.62.27,6.69.27,6.69a1.43,1.43,0,0,0,.64,1.16c2.16,1.41,4.67,1.26,7.1,1.11H177c1.83-.09,6.52-.6,9-.88l0,1.41c-2.39.33-7.43,1-9.08,1.15a12.48,12.48,0,0,1-6.26-.69,1.44,1.44,0,0,0-1.33.19,1.46,1.46,0,0,0-.59,1.21c.12,2.88.24,6.86.24,6.86a1.41,1.41,0,0,0,.5,1.05c1.91,1.68,4.25,1.48,6.68,1.26l1.27-.1c2.09-.14,6.5-.66,8.87-1v1.45c-2.37.31-7.37,1-8.78,1.06l-.56,0c-1.74.13-4.35.33-5.73-.44a1.47,1.47,0,0,0-.74-.17,1.43,1.43,0,0,0-1.39,1.47c0,1.54.13,4,.2,6.25Z"/><path class="cls-1" d="M251.64,202.06c-.1,3.78-.17,6.51-.17,7.06a4.39,4.39,0,0,0,1.36,3.55,3.41,3.41,0,0,0,2.15.69,9.44,9.44,0,0,0,2.24-.36c2.27-.58,69.67-21.49,70.23-21.67,3.19-1,4.69-3.06,4.85-6.57,0-.61.14-2.6.28-5.22.4-7.53,1-18.94,1-20.85a4.37,4.37,0,0,0-1.31-3.5c-1.28-1-2.85-.64-3.89-.38h-.1c-.67.16-7.64,2-17.29,4.64-18.88,5.08-50.48,13.58-52.7,14-3.83.73-6.36,2.16-6.25,6.69C252.12,182.09,251.82,194.59,251.64,202.06Zm3.67,7.39c0-.09,0-.21,0-.4,0-.5.07-3.36.16-7,.19-8,.49-20,.44-22,0-1.62-.06-2.23,3.17-2.86,2.17-.43,26.29-6.91,53-14.09,9.27-2.49,16.57-4.46,17.19-4.61h.11l.47-.1v.23c-.08,1.87-.66,13.65-1,20.68-.15,2.65-.28,4.64-.28,5.25-.09,1.92-.56,2.58-2.23,3.12-3.29,1.07-68.06,21.1-70,21.59a8.47,8.47,0,0,1-.95.21Z"/><polygon class="cls-1" points="263.63 178.78 262.85 200.11 323.1 181.91 324.17 162.53 263.63 178.78"/><path class="cls-1" d="M428.82,145.56c-1.94,4.33-.79,9.07,2.58,10.58s7.69-.75,9.64-5.07.81-9.06-2.57-10.58S430.77,141.23,428.82,145.56Z"/><path class="cls-1" d="M357.34,167.9a9.33,9.33,0,0,0-.57,5.59,6.6,6.6,0,0,0,3.82,4.78,6.15,6.15,0,0,0,2.39.48c2.93,0,5.86-2.08,7.27-5.45,1.8-4.29.37-8.85-3.25-10.36S359.14,163.61,357.34,167.9Z"/><path class="cls-1" d="M374.3,164.8c-1.66,4-.79,8.2,2,9.33s6.32-1.19,8-5.2.79-8.19-2-9.34S376,160.79,374.3,164.8Z"/><path class="cls-1" d="M200.94,211.17c-2.08,6.53-.67,12.82,3.15,14,3.33,1.06,7.4-2.09,9.76-7.26a7.71,7.71,0,0,0,.62,1.59,5.36,5.36,0,0,0,3.18,2.61,4.56,4.56,0,0,0,1.42.2,5.49,5.49,0,0,0,2.66-.69,9.18,9.18,0,0,0,4.06-5.59c1.33-4.54-.18-8.6-3.59-9.56-2.41-.69-4.82.38-6.49,2.66-.12-3.82-1.58-6.84-4.09-7.64C207.79,200.3,203,204.63,200.94,211.17Z"/><path class="cls-1" d="M227.55,203.42c-2,6.41-.7,12.55,2.94,13.72s8.28-3.09,10.32-9.5.73-12.54-2.93-13.71S229.6,197,227.55,203.42Z"/><path class="cls-1" d="M434.34,130.41c-.83,1.84-.34,3.85,1.09,4.5s3.27-.32,4.1-2.16.34-3.85-1.09-4.5S435.17,128.57,434.34,130.41Z"/></g><path class="cls-1" d="M406.55,171.81c7.59,0,13.76-7.48,13.76-16.69s-6.18-16.7-13.76-16.7-13.75,7.49-13.75,16.7S399,171.81,406.55,171.81Zm10-13.89v0a13.88,13.88,0,0,1-2.41,5.66,5.94,5.94,0,0,1-4.64,1.86c-3.66-.26-6.44-4.08-6.2-8.51s3.41-7.82,7.06-7.56S416.78,153.49,416.54,157.92Zm-10-15.48a9.73,9.73,0,0,1,8.09,4.86,8.35,8.35,0,0,0-4.09-1.42c-5.32-.38-9.93,4.48-10.27,10.84a12.14,12.14,0,0,0,5.11,10.95c-5.11-.71-9.1-6.07-9.1-12.58C396.29,148.12,400.9,142.44,406.55,142.44Z"/></svg>