<?xml version="1.0" encoding="UTF-8"?>
<svg id="Artwork" xmlns="http://www.w3.org/2000/svg" viewBox="0 0 480 320">
  <defs>
    <style>
      .cls-1 {
        fill: #000;
      }
    </style>
  </defs>
  <path class="cls-1" d="m129.9,225.24l57.89,71.7,157.59-31.54,4.72-217.5-98.95-24.83-121.05,10.23-.2,191.94ZM321.22,48.89l-125.94,9.7-44.76-18.99,99.97-8.45,70.73,17.75Zm16.3,209.91l-144.04,28.83,4.4-221.22,144.06-11.09-4.42,203.48Zm-199.62-36.39l.19-179.4,51.82,21.99-4.31,216.49-47.69-59.07Z"/>
  <path class="cls-1" d="m207.52,84.37l-2.4,152.11,81.77-14.09,4.07-145.65-83.45,7.63Zm5.75,142.59l2.13-135.27,67.31-6.15-3.64,130.09-65.81,11.34Z"/>
  <path class="cls-1" d="m262.78,242.95l4.97-.82c1.4-.23,2.53.71,2.53,2.11v4.97c0,1.4-1.13,2.72-2.53,2.95l-4.97.82c-1.4.23-2.53-.71-2.53-2.11v-4.97c0-1.4,1.13-2.72,2.53-2.95Z"/>
  <path class="cls-1" d="m238.66,246.97l4.97-.82c1.4-.23,2.53.71,2.53,2.11v4.97c0,1.4-1.13,2.72-2.53,2.95l-4.97.82c-1.4.23-2.53-.71-2.53-2.11v-4.97c0-1.4,1.13-2.72,2.53-2.95Z"/>
  <path class="cls-1" d="m213.64,251.2l4.97-.82c1.4-.23,2.53.71,2.53,2.11v4.97c0,1.4-1.13,2.72-2.53,2.95l-4.97.82c-1.4.23-2.53-.71-2.53-2.11v-4.97c0-1.4,1.13-2.72,2.53-2.95Z"/>
  <path class="cls-1" d="m293.21,242.19c-.13,5.72,2,10.95,5.84,14.34,2.9,2.57,6.53,3.92,10.4,3.92.81,0,1.63-.06,2.46-.18l1.81-.26c10-1.44,18.03-11.14,18.27-22.08l1.24-56.19c.13-5.72-2-10.95-5.84-14.34-3.5-3.1-8.06-4.43-12.86-3.74l-1.8.26c-10,1.44-18.03,11.14-18.27,22.08l-1.24,56.19Zm8,.18l1.24-56.19c.15-6.9,5.38-13.47,11.41-14.34l1.8-.26c.45-.06.88-.1,1.31-.1,1.93,0,3.68.65,5.1,1.91,2.07,1.84,3.22,4.82,3.14,8.18l-1.24,56.19c-.15,6.9-5.38,13.47-11.41,14.34l-1.81.26c-2.45.35-4.67-.27-6.41-1.81-2.07-1.84-3.22-4.82-3.14-8.18Z"/>
  <path class="cls-1" d="m303.58,213.35h0c-.06,2.94,1.02,5.63,2.98,7.36,1.47,1.3,3.3,1.98,5.27,1.98.41,0,.83-.03,1.25-.09,5.09-.73,9.34-5.88,9.46-11.48.06-2.94-1.02-5.63-2.98-7.36-1.77-1.57-4.09-2.24-6.52-1.89-5.09.73-9.34,5.88-9.46,11.48Z"/>
  <path class="cls-1" d="m336.39,132.49c-.06-4.74-1.98-9.04-5.27-11.81-1.51-1.27-3.24-2.17-5.09-2.67-.35-.37-.72-.72-1.11-1.05-3.07-2.58-7.03-3.63-11.13-2.96-8.58,1.4-15.22,9.75-15.11,19.01.06,4.74,1.98,9.04,5.27,11.81,1.51,1.27,3.24,2.17,5.1,2.67.35.37.72.72,1.11,1.05,2.47,2.07,5.51,3.16,8.73,3.16.79,0,1.59-.07,2.4-.2,8.58-1.4,15.22-9.75,15.11-19.01Zm-22.64-12.35c-4.95,3.16-8.41,8.83-8.82,15.09-.15-.73-.24-1.49-.25-2.29-.07-5.78,4-11.39,9.08-12.8Z"/>
  <path class="cls-1" d="m303.58,236.56h0c-.06,2.94,1.02,5.63,2.98,7.36,1.47,1.3,3.3,1.98,5.27,1.98.41,0,.83-.03,1.25-.09,5.09-.73,9.34-5.88,9.46-11.48.06-2.94-1.02-5.63-2.98-7.36-1.77-1.57-4.09-2.24-6.52-1.89-5.09.73-9.34,5.88-9.46,11.48Z"/>
  <path class="cls-1" d="m303.58,188.73h0c-.06,2.94,1.02,5.63,2.98,7.36,1.47,1.3,3.3,1.98,5.27,1.98.41,0,.83-.03,1.25-.09,5.09-.73,9.34-5.88,9.46-11.48.06-2.94-1.02-5.63-2.98-7.36-1.77-1.57-4.09-2.24-6.52-1.89-5.09.73-9.34,5.88-9.46,11.48Z"/>
  <path class="cls-1" d="m336.39,80.74c-.06-4.74-1.98-9.04-5.27-11.81-1.51-1.27-3.24-2.16-5.09-2.67-.35-.37-.72-.72-1.11-1.05-3.07-2.58-7.03-3.63-11.13-2.96-8.58,1.4-15.22,9.75-15.11,19.01.06,4.74,1.98,9.04,5.27,11.81,1.51,1.27,3.24,2.17,5.1,2.67.35.37.72.72,1.11,1.05,2.47,2.07,5.51,3.16,8.73,3.16.79,0,1.59-.07,2.4-.2,8.58-1.4,15.22-9.75,15.11-19.01Zm-22.65-12.35c-4.95,3.16-8.41,8.83-8.82,15.09-.15-.73-.24-1.49-.25-2.29-.07-5.78,4-11.39,9.08-12.8Z"/>
</svg>