<?xml version="1.0" encoding="UTF-8"?>
<svg id="EDITABLE_-_TURN_OFF" data-name="EDITABLE - TURN OFF" xmlns="http://www.w3.org/2000/svg" viewBox="0 0 480 320">
  <defs>
    <style>
      .cls-1 {
        fill: #000;
      }
    </style>
  </defs>
  <path class="cls-1" d="m311.06,23.96c0-1.16-.53-2.24-1.44-2.96-.49-.39-1.05-.64-1.66-.75l.07-.35-21.45-4.19c-2-.37-4.01-.34-6.08.12l-93.29,23.85-.36.09-16.29,9.93-1.28,32.57,2.75,7.99-1.24,147.21-3.84,6.89,1.04,45.17,13.43,11.8,12.56,3.09.38.06c.54.05,1.09.07,1.64.07,2.31,0,4.63-.42,6.79-1.23l102.8-38.68c4.46-1.68,7.44-6.01,7.42-10.78l-1.97-229.91Zm-29.4-3.28c1.32-.29,2.67-.31,3.98-.07l11,2.15-88.18,22.47-10.3-3.2,83.5-21.35Zm-92.85,23.74l.11-.03,12.83,3.99-11.81,5.96-11.11-3.84,9.97-6.08Zm-2.2,244.28l-13.72-3.73-.85-36.67,14.95,5.98-.38,34.42Zm-11.32-204.32l11.65,4.63.08,159.9-13.8-5.52,2.56-4.6,1.25-148.92v-.43s-1.74-5.07-1.74-5.07Zm11.76-25.75l-.64,24.79-11.98-4.77.94-24.05,11.68,4.03Zm4.97,187.69l-.08-156.76,4.47.9-.34,152.16-4.06,3.7Zm-14.21,45.17l8.99,2.44,4.52,4.68-7.51-1.85-6-5.28Zm23.23,7.16c-.7.26-1.43.45-2.17.6l-7.29-7.56.43-38.59,9.07-8.27.35-158.46-10.04-2.01.66-25.47,13.84-6.98-.7,245.19-4.14,1.56Zm102.8-38.68l-93.65,35.23.7-245.43,95.18-24.26,1.95,228.38c.01,2.69-1.67,5.13-4.18,6.07Z"/>
  <path class="cls-1" d="m185.74,108.42v-6.61l-3.55-5.17-4.06,4.67v7.03l4,4.45,3.61-4.36Zm-5.61-.85v-5.51l1.88-2.15,1.73,2.53v5.27l-1.67,2.02-1.94-2.15Z"/>
  <path class="cls-1" d="m185.74,128.33v-6.61l-3.55-5.17-4.06,4.67v7.03l4,4.45,3.61-4.36Zm-5.61-.85v-5.51l1.88-2.15,1.73,2.53v5.27l-1.67,2.02-1.94-2.15Z"/>
  <path class="cls-1" d="m185.74,148.24v-6.61l-3.55-5.17-4.06,4.67v7.03l4,4.45,3.61-4.36Zm-5.61-.85v-5.51l1.88-2.15,1.73,2.53v5.27l-1.67,2.02-1.94-2.15Z"/>
  <path class="cls-1" d="m185.74,166.56v-6.61l-3.55-5.17-4.06,4.67v7.03l4,4.45,3.61-4.36Zm-5.61-.85v-5.51l1.88-2.15,1.73,2.53v5.27l-1.67,2.02-1.94-2.15Z"/>
  <path class="cls-1" d="m178.95,188.56l3.14,3.48,2.84-3.43v-4.88l-2.77-4.05-3.2,3.67v5.2Zm2-4.45l1.01-1.16.96,1.41v3.54l-.9,1.09-1.07-1.19v-3.68Z"/>
  <path class="cls-1" d="m185.6,207.6v-5.32l-4.22,3.9-4.29-4.81v5.36l3.96,5.1,4.55-4.23Zm-7.51-3.61l3.22,3.61,3.29-3.04v2.6l-3.43,3.19-3.08-3.97v-2.4Z"/>
  <path class="cls-1" d="m185.6,215.54v-5.32l-4.22,3.89-4.29-4.81v5.36l3.96,5.11,4.55-4.23Zm-7.51-3.61l3.22,3.61,3.29-3.04v2.6l-3.43,3.19-3.08-3.97v-2.39Z"/>
  <path class="cls-1" d="m185.6,223.31v-5.32l-4.22,3.9-4.29-4.81v5.36l3.96,5.1,4.55-4.23Zm-7.51-3.61l3.22,3.61,3.29-3.04v2.6l-3.43,3.19-3.08-3.97v-2.39Z"/>
  <path class="cls-1" d="m185.6,231.26v-5.32l-4.22,3.9-4.29-4.81v5.36l3.96,5.1,4.55-4.23Zm-7.51-3.61l3.22,3.61,3.29-3.04v2.6l-3.43,3.19-3.08-3.97v-2.4Z"/>
</svg>