<?xml version="1.0" encoding="UTF-8"?>
<svg id="Artwork" xmlns="http://www.w3.org/2000/svg" viewBox="0 0 480 320">
  <defs>
    <style>
      .cls-1 {
        fill: #000;
      }
    </style>
  </defs>
  <path class="cls-1" d="m310.67,23.96c0-1.16-.53-2.24-1.44-2.96-.49-.39-1.06-.63-1.66-.75l.07-.36-21.45-4.19c-2-.37-4.02-.34-6.05.11l-87.34,21.37-.23-.1-16.79,5.39-.22.08c-2.6,1.11-4.34,3.66-4.44,6.48l-1.22,35.23,2.75,7.99-.24,61.48-3.81,5.84-1.24,131.06c-.02,2.57,1.43,4.96,3.7,6.14l11.39,6.7,11.53,1c.54.05,1.09.07,1.64.07,2.31,0,4.63-.42,6.79-1.23l102.8-38.67c4.46-1.68,7.44-6.01,7.42-10.78l-1.97-229.9Zm-29.4-3.28c1.32-.29,2.67-.31,3.98-.07l10.49,2.05-88.51,20.55-6.66-2.78,80.71-19.75Zm-95.08,270.18l-13.82-2.61,1.18-125.14,13.06,2.08-.43,125.67Zm-10.37-204.71l10.73,3.87.08,70.11-11.25-1.79,2.02-3.09.25-63.81-1.82-5.29Zm9.89-30.55l.2,28.88-10.9-3.93.99-28.62,9.7,3.67Zm5.91,102.41l-.08-67.79,4.47.45-.33,64.97-4.07,2.36Zm-4.72-107.3l-9.36-3.54,14.48-4.65h0s.35-.08.35-.08l7.84,3.27-13.31,4.99Zm-10.59,243.39l9.98,1.88,3.86,3.17-6.15-.53-7.68-4.52Zm24.33,4.56c-.78.29-1.6.5-2.42.65l-7.05-5.79.44-129.72,9.05-5.26.36-72.38-10.12-1.03-.22-30.51,13.8-5.18.28,247.65-4.14,1.56Zm102.8-38.67l-93.66,35.24-.28-247.39,96.17-22.33,1.95,228.41c.01,2.69-1.67,5.13-4.18,6.07Z"/>
  <path class="cls-1" d="m180.52,76.77c-.84.07-1.5.85-1.48,1.75.02.9.71,1.57,1.54,1.51.84-.07,1.5-.85,1.48-1.75-.02-.9-.71-1.57-1.54-1.51Z"/>
  <path class="cls-1" d="m180.74,74.44l3.61-4.36v-6.61l-3.55-5.17-4.06,4.67v7.03l4,4.45Zm-2-10.73l1.88-2.15,1.73,2.53v5.27l-1.67,2.02-1.94-2.15v-5.51Z"/>
</svg>