<svg xmlns="http://www.w3.org/2000/svg" viewBox="0 0 480 320"><defs><style>.cls-1{fill:#000;}</style></defs><g id="Layer_1" data-name="Layer 1"><path class="cls-1" d="M452.39,199.62v-.34a53.62,53.62,0,0,0-36.75-48.77L322,83.67l-.3-.14a53.44,53.44,0,0,0-24.89-5.29l-.47,0-.45.12c-.24.06-25.53,6.57-107.67,9.38s-108-1.9-108.29-2l-.45-.08-.46,0c-22.43.84-42.95,5.22-47.66,49-.26,1.8-1.17,9.95,3.17,14,3.09,2.89,107.86,96.71,112.32,100.7l0,0a53.23,53.23,0,0,0,34.63,12.83l1.67,0,.57,0,.53-.17c.75-.23,19.47-5.84,107.72-8.85,87.9-3,107,1.26,107.85,1.48l.55.14.59,0A53.6,53.6,0,0,0,452.39,199.62ZM188.51,95.76c78.16-2.68,105-8.57,109-9.53a45.7,45.7,0,0,1,20.43,4.35l80.23,57.28c-.28,0-.55,0-.83,0l-.47,0-.45.12c-.24.06-25.53,6.57-107.67,9.38s-108-1.9-108.29-1.94l-.45-.09-.46,0a52.43,52.43,0,0,0-8.09.92L86,94.66C98.64,96,128.73,97.8,188.51,95.76ZM41.09,124.24c.17-.79.35-1.57.53-2.33l88,74.34c-.25,1-.48,2.05-.67,3.1Zm93.8,58.52L45.61,110.54c.31-.64.64-1.26,1-1.85l89.52,72C135.69,181.39,135.28,182.07,134.89,182.76Zm13.66-16-90.75-69c.56-.28,1.14-.54,1.72-.79l91.95,67.65C150.48,165.33,149.5,166.05,148.55,166.79ZM39.12,138.61l90,80.76c.3,1.5.66,3,1.09,4.43-32-28.7-88.08-78.9-90.25-80.92C39.48,142.38,39.15,140.6,39.12,138.61ZM401.19,246.73c-4-.8-27.05-4.4-109.46-1.58s-105.36,8-109.28,9.06a45.55,45.55,0,0,1-46.33-43.72v-.31a45.56,45.56,0,0,1,43.3-46.8c4,.67,31.36,4.67,109.6,2s105.05-8.57,109-9.53h1a45.58,45.58,0,0,1,45.42,43.73v.32A45.57,45.57,0,0,1,401.19,246.73Z"/><path class="cls-1" d="M357,184.84l-46.92,1.61,0,0a28.88,28.88,0,0,0-40.8,1.39l0,0-46.93,1.6a19,19,0,0,0,.72,38h.59l44.51-1.52a30.32,30.32,0,0,0,2.53,2.68,28.65,28.65,0,0,0,19.67,7.77l1,0a28.76,28.76,0,0,0,22.45-12l44.52-1.52a19,19,0,0,0-1.31-38ZM223.36,219.46a11,11,0,1,1-.76-22L263.86,196a29.09,29.09,0,0,0-.38,22.06Zm82.25,2.31a20.87,20.87,0,1,1-16-35.1h.74a20.87,20.87,0,0,1,15.23,35.11ZM358,214.86l-40.13,1.37a29,29,0,0,0-1.88-22l41.25-1.41a11,11,0,1,1,.76,22Z"/><path class="cls-1" d="M247.81,228.92a7,7,0,1,0,7.28,6.8A7,7,0,0,0,247.81,228.92Z"/><path class="cls-1" d="M334.06,226a7,7,0,1,0,7.28,6.8A7,7,0,0,0,334.06,226Z"/></g></svg>