<svg xmlns="http://www.w3.org/2000/svg" viewBox="0 0 480 320"><defs><style>.cls-1{fill:#000;}</style></defs><g id="Layer_1" data-name="Layer 1"><path class="cls-1" d="M450.63,189.53v-.35a53.64,53.64,0,0,0-36.75-48.77L320.25,73.58l-.3-.15a53.74,53.74,0,0,0-24.89-5.29l-.47,0-.45.12c-.24.06-25.53,6.57-107.67,9.38s-108-1.9-108.29-1.94l-.45-.09-.46,0c-22.43.84-42.95,5.22-47.66,49-.26,1.81-1.17,9.95,3.17,14,3.09,2.89,107.86,96.71,112.32,100.7l0,0a53.28,53.28,0,0,0,34.64,12.83l1.67,0,.57,0,.53-.16c.75-.24,19.47-5.84,107.72-8.86,87.89-3,107,1.26,107.85,1.48l.55.14.58,0A53.59,53.59,0,0,0,450.63,189.53ZM186.74,85.66c78.17-2.67,105.05-8.57,109-9.53a45.57,45.57,0,0,1,20.43,4.36l80.23,57.27h-.83l-.47,0-.45.12c-.24.06-25.53,6.57-107.67,9.38s-108-1.9-108.29-1.94l-.45-.09-.46,0a54,54,0,0,0-8.1.92L84.24,84.56C96.88,85.85,127,87.7,186.74,85.66ZM39.33,114.14c.17-.79.35-1.57.53-2.32l88,74.33c-.25,1-.48,2.06-.67,3.1Zm93.8,58.53L43.84,100.44c.32-.64.65-1.26,1-1.85l89.51,72C133.93,171.29,133.52,172,133.13,172.67Zm13.66-16L56,87.69c.56-.28,1.13-.54,1.72-.78l92,67.64C148.71,155.24,147.74,156,146.79,156.7ZM37.36,128.51l90,80.76c.3,1.5.66,3,1.08,4.43-32-28.7-88.07-78.9-90.24-80.92C37.72,132.29,37.39,130.5,37.36,128.51ZM399.42,236.63c-4-.8-27-4.4-109.45-1.58s-105.36,8-109.28,9.06a45.55,45.55,0,0,1-46.33-43.72v-.31a45.56,45.56,0,0,1,43.3-46.8c4,.68,31.36,4.68,109.6,2s105.05-8.57,109-9.53h1a45.57,45.57,0,0,1,45.41,43.74v.31A45.55,45.55,0,0,1,399.42,236.63Z"/><path class="cls-1" d="M355.24,174.75l-46.92,1.6,0,0a28.87,28.87,0,0,0-40.8,1.4l0,0-46.93,1.6a19,19,0,0,0,.72,38h.59l44.51-1.52a27.78,27.78,0,0,0,2.53,2.68,28.6,28.6,0,0,0,19.67,7.77c.34,0,.68,0,1,0a28.66,28.66,0,0,0,20.11-9.14,30,30,0,0,0,2.34-2.85l44.52-1.53a19,19,0,0,0-1.31-38ZM221.6,209.36a11,11,0,1,1-.76-22l41.26-1.41a29.07,29.07,0,0,0-.38,22.05Zm82.25,2.31a20.86,20.86,0,1,1-16-35.1h.73a20.87,20.87,0,0,1,15.24,35.11Zm52.41-6.91-40.13,1.37a29,29,0,0,0-1.89-22l41.26-1.41a11,11,0,1,1,.76,22Z"/><path class="cls-1" d="M246.05,218.82a7,7,0,1,0,7.28,6.8A7.06,7.06,0,0,0,246.05,218.82Z"/><path class="cls-1" d="M332.3,215.87a7,7,0,1,0,7.28,6.8A7.06,7.06,0,0,0,332.3,215.87Z"/></g></svg>