<svg xmlns="http://www.w3.org/2000/svg" viewBox="0 0 480 320"><defs><style>.cls-1{fill:#000;}</style></defs><g id="Layer_4" data-name="Layer 4"><path class="cls-1" d="M272.85,115.39l-40.74,4.74a2.43,2.43,0,0,0,.28,4.85l.29,0,40.74-4.74a2.43,2.43,0,0,0-.57-4.83Z"/><path class="cls-1" d="M231.37,98.23l-46,3.42a2.43,2.43,0,0,0,.17,4.86h.19l46-3.42a2.43,2.43,0,1,0-.36-4.85Z"/><path class="cls-1" d="M181.46,93.08a2.43,2.43,0,0,0-2.54-2.31l-37,1.73a2.43,2.43,0,0,0,.11,4.86h.11l37-1.72A2.44,2.44,0,0,0,181.46,93.08Z"/><path class="cls-1" d="M210,96.81a2.43,2.43,0,0,0-2.57-2.28L165,97.12a2.43,2.43,0,0,0,.15,4.86h.15l42.44-2.59A2.44,2.44,0,0,0,210,96.81Z"/><path class="cls-1" d="M271.6,121.45l-30.22,3.87a2.44,2.44,0,0,0,.31,4.85l.31,0,30.21-3.87a2.43,2.43,0,1,0-.61-4.83Z"/><path class="cls-1" d="M359.75,95.63l-16.22,2.65a2.5,2.5,0,0,0,.4,5l.41,0,16.22-2.65a2.5,2.5,0,0,0-.81-4.94Z"/><path class="cls-1" d="M277.4,74.4a2.49,2.49,0,0,0-2.87-2.06l-20.74,3.39a2.5,2.5,0,0,0,.4,5,2,2,0,0,0,.41,0l20.74-3.39A2.5,2.5,0,0,0,277.4,74.4Z"/><path class="cls-1" d="M288.83,79.74A2.49,2.49,0,0,0,286,77.65L261.5,81.46a2.5,2.5,0,0,0,.38,5,2.56,2.56,0,0,0,.39,0l24.48-3.81A2.5,2.5,0,0,0,288.83,79.74Z"/><path class="cls-1" d="M304.58,84.89a2.51,2.51,0,0,0-2.86-2.09l-26.67,4.11a2.51,2.51,0,0,0,.38,5,2.56,2.56,0,0,0,.39,0l26.67-4.12A2.5,2.5,0,0,0,304.58,84.89Z"/><path class="cls-1" d="M323.78,88.65a2.49,2.49,0,0,0-2.85-2.08l-26.44,4.14a2.5,2.5,0,0,0,.38,5,2.56,2.56,0,0,0,.39,0l26.44-4.14A2.49,2.49,0,0,0,323.78,88.65Z"/><path class="cls-1" d="M343.14,93.53a2.51,2.51,0,0,0-2.87-2.07l-22.89,3.68a2.5,2.5,0,0,0,.39,5,2.71,2.71,0,0,0,.4,0l22.9-3.67A2.51,2.51,0,0,0,343.14,93.53Z"/><path class="cls-1" d="M431.94,177.34l-.06-.31a4.22,4.22,0,0,0-.07-.61l-.05-.31,0-.12-.08-.44a5.12,5.12,0,0,0-.15-.56v-.05a3.69,3.69,0,0,0-.18-.65,5.16,5.16,0,0,0-.2-.67l-.24-.61c0-.08-.05-.15-.07-.22l-.21-.51a5.2,5.2,0,0,0-.26-.53,19.85,19.85,0,0,0-.73-1.35l-.23-.38c-.07-.11-.14-.22-.22-.33l-.44-.6a3.62,3.62,0,0,0-.36-.42,3.44,3.44,0,0,0-.35-.41l-.73-.75a3.7,3.7,0,0,0-.42-.37l-.59-.45a2.71,2.71,0,0,0-.35-.24l-.08,0a3.52,3.52,0,0,0-.63-.4l-.15-.09-.29-.16-.19-.1-.31-.14-.12,0-.32-.14-.48-.19h0a.52.52,0,0,1-.13-.06L423,165l-2.61-.89a12.11,12.11,0,0,0-8-4.13,13.8,13.8,0,0,0-10.63,4.07c-5.53,5.21-8.1,14.19-6.26,21.85,1.09,4.48,3.55,8,6.95,9.92a11.62,11.62,0,0,0,5.76,1.52,12.47,12.47,0,0,0,2.27-.22l2.77.94.14.05a3.53,3.53,0,0,0,.46.15,3.06,3.06,0,0,0,.73.21l.47.09a4.48,4.48,0,0,0,.64.07h.07a3.64,3.64,0,0,0,.74.07h.12l1.22,0a4.14,4.14,0,0,0,.86-.12h.06a5.5,5.5,0,0,0,.69-.11l.47-.12a4.69,4.69,0,0,0,.6-.2l.1,0a3.33,3.33,0,0,0,.51-.16l.28-.11.23-.1.93-.44a3.6,3.6,0,0,0,.54-.31,3.15,3.15,0,0,0,.5-.3l.23-.16c.12-.08.23-.17.34-.26l.55-.38.32-.26.19-.16.1-.09,0,0a4.21,4.21,0,0,0,.74-.66l.1-.11a3,3,0,0,0,.31-.31l.29-.32c.11-.1.21-.21.31-.32l.18-.21a3.85,3.85,0,0,0,.26-.34l.11-.14c.09-.11.18-.22.26-.34l.37-.53.06-.1.43-.63a3.35,3.35,0,0,0,.27-.45l0-.07a4.24,4.24,0,0,0,.4-.72l.05-.12a3.89,3.89,0,0,0,.4-.72l.13-.29a4.37,4.37,0,0,0,.31-.78l.05-.12a4.62,4.62,0,0,0,.3-.76l0-.13a4.24,4.24,0,0,0,.18-.5l.59-2.18a3.59,3.59,0,0,0,.11-.57v0a5.78,5.78,0,0,0,.12-.57l.22-1.91a3.12,3.12,0,0,0,0-.61h0a3.22,3.22,0,0,0,0-.62l-.07-2.21Q432,177.64,431.94,177.34Zm-26.5.08a21.47,21.47,0,0,0-.59,9.35l-.06,0a4.05,4.05,0,0,0-.5-.12,10.06,10.06,0,0,1-1-2.59c-1.17-4.85.53-10.93,4-14.15a8.2,8.2,0,0,1,1.55-1.17,2.81,2.81,0,0,1,.7.14l.08,0,.48.16A20.35,20.35,0,0,0,405.44,177.42Zm12.63,12.68a2.65,2.65,0,0,1-2.38-.44c-1.36-1-2.23-3.14-2.33-5.71-.19-5.36,2.92-9.94,5.83-10.71a3.27,3.27,0,0,1,.8-.11,2.55,2.55,0,0,1,1.58.55c1.36,1,2.23,3.14,2.33,5.71C424.1,184.75,421,189.33,418.07,190.1Z"/><path class="cls-1" d="M438.19,102.34,251.39,47.6a2.37,2.37,0,0,0-.36-.09,7.69,7.69,0,0,0-2.44-.08L66,71.61l-3.7-25.84a5.27,5.27,0,0,0-2.44-3.71A6.21,6.21,0,0,0,52,43.19a5.29,5.29,0,0,0-1.3,4.24l3.68,25.72L42.49,74.72c-4.23.56-7.35,4.55-7.27,9.27l1.52,83a9.23,9.23,0,0,0,4.49,7.95L233.86,299.51a2.91,2.91,0,0,0,.3.17,6.87,6.87,0,0,0,1.12.48,3.92,3.92,0,0,0,1.77.43h0a1.75,1.75,0,0,0,.24,0l.45,0a7.72,7.72,0,0,0,3.27-.74l198.71-88.49.12-.06a9.21,9.21,0,0,0,4.93-8.37V111.29A9,9,0,0,0,438.19,102.34ZM45.46,168.15l-.3-.17a1.57,1.57,0,0,1-.42-1.14l-1.52-83c0-.13,0-.25,0-.36l23.52,9.8a2.41,2.41,0,0,0,1.06,3.25L74,114.25a2.44,2.44,0,0,0,4.6-1.61L73,96.56l1.43-.09,3.78,1.58v.1a2.43,2.43,0,0,0,1.35,1.95l6.76,25.28a2.42,2.42,0,0,0,2.34,1.8,2.27,2.27,0,0,0,.63-.08,2.43,2.43,0,0,0,1.72-3l-6.23-23.33,8.48,3.53,6.84,32.16a2.43,2.43,0,0,0,2.38,1.93,3.14,3.14,0,0,0,.51,0,2.44,2.44,0,0,0,1.87-2.89l-6.14-28.88,10.7,4.46,6.27,36.46a2.43,2.43,0,0,0,2.39,2,2,2,0,0,0,.42,0,2.42,2.42,0,0,0,2-2.8l-5.74-33.42,13.21,5.5,5.39,38.83a2.44,2.44,0,0,0,2.4,2.1,2,2,0,0,0,.34,0,2.42,2.42,0,0,0,2.07-2.74l-5-36,15.56,6.48,4.2,38.28a2.43,2.43,0,0,0,2.42,2.17l.27,0a2.43,2.43,0,0,0,2.15-2.68l-3.91-35.61,15.91,6.63,2.79,33.09a2.44,2.44,0,0,0,2.43,2.23h.2a2.43,2.43,0,0,0,2.22-2.62l-2.58-30.58,13,5.39,1.5,23.54a2.43,2.43,0,0,0,2.43,2.28h.15a2.44,2.44,0,0,0,2.28-2.58l-1.36-21.14,7.85,3.27.52,10.93a2.43,2.43,0,0,0,2.43,2.32h.11a2.44,2.44,0,0,0,2.32-2.54l-.41-8.63,26.88,11.2c0,.21,0,.43,0,.65L233,289.44Zm190.8-12.9-31.08-13-.18-3.65,26.6-5.54a2.43,2.43,0,0,0-1-4.76L203.68,134a2.36,2.36,0,0,0-1.35-.32,2.42,2.42,0,0,0-2.31,2.54l.19,4.05-8-3.34-.21-3.39,33.72-5.55a2.43,2.43,0,1,0-.79-4.8l-36.56,6a2.43,2.43,0,0,0-1.26,4.18l.1,1.46-13.14-5.48-.12-1.4L216.81,122a2.43,2.43,0,0,0,2.08-2.74,2.64,2.64,0,0,0-.15-.55,2.3,2.3,0,0,0,.74.13h.25l46.15-4.74a2.43,2.43,0,1,0-.5-4.84L219.23,114a2.44,2.44,0,0,0-2.17,2.67,2.66,2.66,0,0,0,.17.63,2.45,2.45,0,0,0-1.08-.11l-45.86,6.31a2.42,2.42,0,0,0-2.08,2.74,2.23,2.23,0,0,0,.22.72l-13.61-5.68,46-5.43a2.44,2.44,0,0,0,2.13-2.7,3.38,3.38,0,0,0-.08-.34l45.16-4a2.43,2.43,0,1,0-.43-4.84l-47.49,4.19A2.39,2.39,0,0,0,198,111.3L149.5,117a2.44,2.44,0,0,0-1.86,1.28l-9-3.77,41.18-4.15a2.43,2.43,0,1,0-.49-4.84l-48.5,4.89a2.39,2.39,0,0,0-1.58-.34,2.43,2.43,0,0,0-.72.23l-4-1.65,32.7-2.83a2.43,2.43,0,0,0-.42-4.84l-42,3.63-3.49-1.46L135.64,101a2.43,2.43,0,0,0-.44-4.85l-33.52,3-1.42-.59,14.1-1.29a2.42,2.42,0,0,0,1.24-4.35l22.73-.41a2.43,2.43,0,0,0,0-4.86h0l-25.17.45a2.42,2.42,0,0,0-1.2,4.51L96.09,94.07a2.47,2.47,0,0,0,.34-1.4,2.44,2.44,0,0,0-2.58-2.28l-11.5.71L57.6,80.79,249.51,55.38l20.33,6-5.22,1.17a2.43,2.43,0,0,0-1.41.9,2.51,2.51,0,0,0-1.65-.2l-10.85,2.44a2.49,2.49,0,0,0-.88,4.48l-1.31.24a2.5,2.5,0,0,0,.45,5,2.3,2.3,0,0,0,.45,0l16.08-2.92a2.49,2.49,0,0,0-.15-4.93,2.2,2.2,0,0,0,.36,0l8.91-2a2.49,2.49,0,0,0,1.92-2.09l4.52,1.33-8.79,1.59a2.5,2.5,0,0,0,.44,5,2.28,2.28,0,0,0,.45,0l13.07-2.37a2.47,2.47,0,0,0,2-2L294,68.41l-12.23,2a2.5,2.5,0,0,0,.41,5,1.81,1.81,0,0,0,.4,0l17-2.78a2.5,2.5,0,0,0,2-1.92l7.15,2.1-15,2.33a2.5,2.5,0,0,0,.38,5,2.56,2.56,0,0,0,.39,0l20.31-3.15a2.49,2.49,0,0,0,2-1.76l8.61,2.53-16.34,2.53a2.5,2.5,0,0,0,.38,5,2.56,2.56,0,0,0,.39,0l22.29-3.45a2.52,2.52,0,0,0,1.91-1.49l9.27,2.71-15.17,2.36a2.51,2.51,0,0,0,.38,5,1.72,1.72,0,0,0,.39,0l21.84-3.4a2.49,2.49,0,0,0,1.76-1.2l7.25,2.12-11.3,1.82a2.5,2.5,0,0,0,.39,5,2.6,2.6,0,0,0,.4,0l18.76-3a2.49,2.49,0,0,0,1.51-.87l2.9.84-6.77,1.11a2.5,2.5,0,0,0-.33,4.85,2.48,2.48,0,0,0,2.17,3.72,1.81,1.81,0,0,0,.4,0l7.35-1.19A2.5,2.5,0,0,0,377.31,97a2.35,2.35,0,0,0-.57-1.21l4.61-.76a2.49,2.49,0,0,0,1.28-.62L422,105.92l-182.9,48A8.43,8.43,0,0,0,236.26,155.25Zm27.81-88.06a2.29,2.29,0,0,0,.77.23l-.23,0-1,.18A2.91,2.91,0,0,0,264.07,67.19ZM436.78,202.93a1.59,1.59,0,0,1-.41,1.17L241,291.09,240.44,163a1.86,1.86,0,0,1,.15-.71,3.85,3.85,0,0,0,.23-.38.71.71,0,0,1,.29-.23l195.44-51.27a1.89,1.89,0,0,1,.23.92Z"/><path class="cls-1" d="M368.12,154.55a8.38,8.38,0,0,0-10.56-8l-60,16.08a8.37,8.37,0,0,0-6.22,8.32l1.5,64a8.41,8.41,0,0,0,8.37,8.16,8.43,8.43,0,0,0,2.74-.46l.28-.11L363,217.18a8.4,8.4,0,0,0,5.5-7.94l-.36-54.69Z"/><path class="cls-1" d="M261,174.22c-5.11,1.34-9.06,7.94-8.8,14.73s4.6,11.21,9.71,9.86,9.06-7.93,8.81-14.72S266.11,172.88,261,174.22Z"/><path class="cls-1" d="M265.52,210.88a6.14,6.14,0,0,0-5.23-1c-3.44.9-5.92,4.63-5.77,8.68a7.48,7.48,0,0,0,2.86,5.83,6.06,6.06,0,0,0,3.65,1.21,6.64,6.64,0,0,0,1.58-.2c3.44-.9,5.91-4.63,5.77-8.68A7.51,7.51,0,0,0,265.52,210.88Z"/><path class="cls-1" d="M261.19,236.34c-2.95.78-5.22,4.58-5.08,8.49s2.65,6.46,5.6,5.68,5.22-4.57,5.08-8.48S264.13,235.57,261.19,236.34Z"/></g></svg>