<svg xmlns="http://www.w3.org/2000/svg" viewBox="0 0 480 320"><defs><style>.cls-1{fill:#000;}</style></defs><g id="Layer_5" data-name="Layer 5"><path class="cls-1" d="M441.79,146l-.41-1.41-.52-1.23h0l-.36-.74-.05,0-.27-.45-1.1-1.27-1.16-.83-1.2-.44v0l-8.5-2.06-.81-.7-2-.93-.32-.06-1.68-.14-2.27.53-2.39,1.49-1.58,1.59-2,3-2.37,6.41,1.81.47-1.83-.34-.36,2-.27,3.94.57,4.44.58,1.72,2,3.16,1.8,1.27.89.35,1.48.25,1.71-.14,1.06-.31,8.35,1.32v-.06l1,.12.77-.05,1.21-.3,1.27-.58.59-.42.05.06.64-.54h0l.95-.89.92-1.08.55-.78.75-1.26,1-2,.82-2.29.57-2.34.36-2.5.09-1.63-.06-2.15ZM419,158.86l-.28-.7-.35-1.44-.19-2.54.51-4.17.34-1.34,1.65-3.93.62-.94,1.3-1.47,5.75,1.4-1,1.62-1,2.15-.81,2.38-.56,2.5-.23,1.68-.13,2.33.07,1.62.25,1.78Zm12.61,1.88-.57-1.1-.35-1.66-.1-1.59.17-2.39.53-2.48.57-1.7.72-1.56.8-1.29.76-.91.62-.5.31-.15.36.51.45,1.28.22,1.38.05,1.58,0,.6-.31,2.36-.44,1.83-.59,1.68-.69,1.44-.79,1.26-.75.85-.61.49-.29.13Z"/><polygon class="cls-1" points="248.92 181.52 248.96 181.8 248.98 182.06 249.02 182.32 249.08 182.58 249.12 182.82 249.18 183.06 249.26 183.32 249.32 183.54 249.48 184.03 249.58 184.25 249.66 184.47 249.78 184.67 249.88 184.87 250.12 185.27 250.36 185.63 250.78 186.11 250.94 186.27 251.1 186.39 251.24 186.53 251.4 186.65 251.58 186.77 251.74 186.87 251.92 186.97 252.1 187.05 252.28 187.13 252.46 187.21 252.64 187.27 252.65 187.26 253.16 187.43 253.2 187.43 253.22 187.45 253.3 187.45 253.32 187.47 253.36 187.47 253.38 187.49 253.46 187.49 253.5 187.51 253.54 187.51 253.58 187.53 253.64 187.53 253.72 187.55 253.8 187.55 253.86 187.57 254.02 187.57 254.12 187.59 254.69 187.59 254.76 187.57 254.93 187.57 255 187.55 255.09 187.55 255.16 187.53 255.25 187.51 255.35 187.49 255.43 187.49 255.51 187.47 255.59 187.45 255.67 187.43 255.75 187.41 255.83 187.37 255.91 187.35 255.99 187.31 256.07 187.29 256.15 187.27 256.23 187.23 256.31 187.19 256.39 187.17 256.47 187.13 256.57 187.09 256.65 187.05 256.73 187.01 256.81 186.97 256.87 186.93 256.95 186.89 257.05 186.83 257.13 186.79 257.19 186.75 257.27 186.71 257.35 186.65 257.43 186.61 257.59 186.49 257.65 186.43 257.75 186.39 257.81 186.33 257.89 186.27 257.97 186.21 258.05 186.15 258.11 186.09 258.19 186.03 258.33 185.89 258.41 185.83 258.97 185.27 259.05 185.17 259.11 185.11 259.17 185.03 259.23 184.95 259.31 184.87 259.37 184.79 259.49 184.63 259.57 184.53 259.75 184.29 259.81 184.19 259.93 184.03 260.05 183.82 260.11 183.75 260.15 183.65 260.21 183.56 260.27 183.47 260.33 183.38 260.37 183.28 260.49 183.08 260.53 182.98 260.59 182.9 260.63 182.8 260.67 182.68 260.73 182.58 260.77 182.5 260.81 182.4 260.91 182.2 260.95 182.08 260.99 181.98 261.03 181.88 261.11 181.68 261.15 181.58 261.19 181.46 261.27 181.26 261.31 181.14 261.33 181.04 261.41 180.84 261.43 180.72 261.47 180.62 261.49 180.5 261.53 180.4 261.55 180.3 261.59 180.18 261.61 180.08 261.63 179.96 261.67 179.76 261.71 179.64 261.71 179.54 261.75 179.42 261.77 179.32 261.77 179.2 261.81 179.1 261.81 178.98 261.83 178.88 261.85 178.76 261.85 178.66 261.87 178.54 261.89 178.44 261.89 178.22 261.91 178.1 261.91 178 261.93 177.88 261.93 176.7 261.91 176.6 261.91 176.5 261.89 176.38 261.89 176.18 261.85 175.98 261.85 175.88 261.81 175.68 261.79 175.56 261.77 175.48 261.77 175.38 261.75 175.25 261.71 175.16 261.71 175.07 261.67 174.97 261.61 174.68 261.59 174.59 261.55 174.5 261.53 174.41 261.49 174.31 261.47 174.21 261.43 174.13 261.41 174.03 261.37 173.95 261.33 173.85 261.29 173.77 261.27 173.69 261.23 173.59 261.15 173.43 261.11 173.35 261.07 173.27 260.99 173.11 260.95 173.01 260.91 172.95 260.85 172.87 260.81 172.79 260.77 172.71 260.71 172.65 260.63 172.49 260.57 172.43 260.53 172.37 260.47 172.29 260.41 172.23 260.37 172.15 260.31 172.09 260.27 172.03 260.21 171.97 260.15 171.89 260.09 171.83 259.97 171.71 259.93 171.67 259.85 171.61 259.79 171.55 259.75 171.49 259.67 171.45 259.61 171.39 259.55 171.33 259.49 171.29 259.43 171.23 259.37 171.19 259.29 171.15 259.23 171.09 259.15 171.05 259.09 171.01 259.01 170.97 258.95 170.93 258.89 170.89 258.81 170.87 258.75 170.83 258.67 170.79 258.59 170.75 258.53 170.73 258.45 170.71 258.37 170.67 258.31 170.65 258.23 170.61 258.19 170.6 258.19 170.59 257.57 170.39 257.11 170.31 256.91 170.29 256.73 170.27 256.13 170.27 255.93 170.29 255.73 170.31 255.51 170.35 255.31 170.39 255.1 170.45 254.71 170.57 254.5 170.67 254.28 170.75 253.88 170.95 253.68 171.07 253.48 171.19 253.28 171.31 253.1 171.47 252.9 171.61 252.72 171.77 252.52 171.93 252.34 172.11 252.16 172.27 251.98 172.47 251.8 172.65 251.64 172.85 251.46 173.07 251.3 173.27 250.98 173.71 250.84 173.95 250.68 174.19 250.54 174.41 250.4 174.68 250.28 174.91 250.14 175.18 250.04 175.44 249.8 175.96 249.7 176.24 249.6 176.5 249.52 176.78 249.42 177.04 249.34 177.34 249.26 177.62 249.2 177.88 249.14 178.18 249.1 178.46 249.04 178.74 248.96 179.3 248.9 180.14 248.9 180.98 248.92 181.26 248.92 181.52"/><path class="cls-1" d="M346.17,145.46,297,159.17a5,5,0,0,0-3.72,4.75L292.53,206a5,5,0,0,0,6.55,4.86l48.71-15.61a5,5,0,0,0,3.47-4.62l1.21-40.17A5,5,0,0,0,346.17,145.46Z"/><path class="cls-1" d="M447.64,90.86,268.38,67.33l-.27,2.07-.26-2.11L161,80.55l-10.2-30.22-.06-.26-.16-.44-.18-.36-.24-.26-.26-.16-.34-.14-.44-.1-.35,0h-.38l-.34,0-.26.08-.38.16-.22.2,0,0-.18.14-.08.1-.16.18-.1.14,0,.1-.1.16-.1.22-.1.4,0,.22v.38l0,0v.1l0,0v.09l0,0v.06l0,0v0l0,0v0l.2.62h0l9.32,29L44.16,95.05a17.34,17.34,0,0,0-15.3,17.81l.62,71.71a17.7,17.7,0,0,0,10.45,16L203,273.41a22.35,22.35,0,0,0,17.25.46l223.21-85.62a18.84,18.84,0,0,0,12-16.22l4.62-65.78A14.33,14.33,0,0,0,447.64,90.86ZM420.8,96.44a1.86,1.86,0,0,0-.1-.2l.13,0A1.46,1.46,0,0,0,420.8,96.44ZM287.4,81h0S287.39,81,287.4,81ZM206.26,266.1,43.19,193.22a9.65,9.65,0,0,1-5.71-8.72l-.63-71.81a9.35,9.35,0,0,1,.78-4.1l5,1.37a2.5,2.5,0,0,0,1.23,1.44l6.22,18.25a2.52,2.52,0,0,0,2.37,1.7,2.56,2.56,0,0,0,.81-.14A2.5,2.5,0,0,0,54.86,128L49.3,111.75l5.17,1.41a2.47,2.47,0,0,0,1.22,1.36l6.78,26.17a2.5,2.5,0,0,0,2.42,1.88,2.72,2.72,0,0,0,.63-.08,2.5,2.5,0,0,0,1.79-3.05L61,114.92,68.64,117a2.45,2.45,0,0,0,.77,1l6.92,33.61a2.49,2.49,0,0,0,2.44,2,2.21,2.21,0,0,0,.51-.05,2.5,2.5,0,0,0,1.94-2.95l-6.58-32,9.82,2.66a2.55,2.55,0,0,0,.94,1.4L92,162.38a2.51,2.51,0,0,0,2.47,2.09l.41,0a2.52,2.52,0,0,0,2.06-2.88l-6.42-38.63,12.29,3.34a2.54,2.54,0,0,0,1,1.4L109.73,172a2.52,2.52,0,0,0,2.48,2.17l.33,0a2.5,2.5,0,0,0,2.15-2.81l-5.82-43.46L124,132a2.45,2.45,0,0,0,.54.89l4.93,46.62a2.51,2.51,0,0,0,2.48,2.24l.27,0a2.49,2.49,0,0,0,2.22-2.75l-4.81-45.45,15.31,4.15a2.34,2.34,0,0,0,.72,1.07l3.54,43.47a2.5,2.5,0,0,0,2.49,2.3h.21a2.49,2.49,0,0,0,2.28-2.7l-3.46-42.56,12.45,3.38a2.33,2.33,0,0,0,.64,1L166,179.15a2.5,2.5,0,0,0,2.49,2.35h.16a2.51,2.51,0,0,0,2.34-2.65l-2.14-34.68,7.95,2.16,1.12,24.56a2.5,2.5,0,0,0,2.49,2.39h.12a2.49,2.49,0,0,0,2.38-2.61l-1-22.32L183,148l24.34,6.61,1.07,112.24A14.26,14.26,0,0,1,206.26,266.1Zm5.13-118.66-13.12-3.57L208.68,141a2.5,2.5,0,1,0-1.31-4.82l-18.64,5.07-4.39-1.19,18.42-4.17a2.5,2.5,0,1,0-1.1-4.87L174,137.3l-6.8-1.84,26.57-5.26a2.5,2.5,0,0,0,2-2.93,2.57,2.57,0,0,0-.25-.67,2.46,2.46,0,0,0,.81.14l.4,0,46.37-7.48a2.5,2.5,0,0,0-.79-4.94l-46.38,7.48a2.5,2.5,0,0,0-2.07,2.87,2.85,2.85,0,0,0,.26.76,2.44,2.44,0,0,0-1.29-.1l-36.47,7.21-9.2-2.5,30.51-5.42a2.5,2.5,0,0,0,2-2.9c0-.13-.07-.26-.11-.38l45.52-6.67a2.5,2.5,0,1,0-.73-4.94l-47.71,7a2.5,2.5,0,0,0-2.11,2.84,2.35,2.35,0,0,0,.14.52L135.86,127l-8.54-2.32L156.58,120a2.5,2.5,0,0,0-.78-4.94l-40.23,6.41-5.71-1.55,24.06-3.47a2.5,2.5,0,0,0-.72-5L97.71,116.6,93,115.33l19.21-2.84a2.5,2.5,0,0,0-.73-4.94L81,112.05l-2-.54,11.9-1.79a2.48,2.48,0,0,0,.9-4.61l23.18-1.69a2.5,2.5,0,0,0-.36-5l-25.3,1.83a2.49,2.49,0,0,0-.85,4.76l-16,2.4A2.5,2.5,0,0,0,70,103.71l-13.72,1.64-9.44-2.57L267.92,75.34l15.88,2.08-10.92,2.84a2.48,2.48,0,0,0-1.12,4.2l-.47.1a2.51,2.51,0,0,0,.54,5,2.08,2.08,0,0,0,.55-.07L290,85.52a2.51,2.51,0,0,0,1.89-3,2.47,2.47,0,0,0-1.35-1.69l5.86-1.52a2.5,2.5,0,0,0,2,4.48L311,81l.91.12-3.12.65a2.5,2.5,0,0,0,.5,4.95,3.15,3.15,0,0,0,.52,0l17.15-3.57,2.88.37-6.63,1.34a2.5,2.5,0,0,0,.49,5,2.72,2.72,0,0,0,.49,0l21-4.22,5.12.67-8.79,1.77a2.5,2.5,0,0,0,.49,5,2.72,2.72,0,0,0,.49-.05l23.17-4.65,6.64.87L364,90.71a2.5,2.5,0,0,0,.49,5,2.92,2.92,0,0,0,.5,0l22.62-4.56,5,.65-4.82,1a2.5,2.5,0,0,0,.5,5,2.92,2.92,0,0,0,.5,0l19-3.9.43,0-.42.09a2.5,2.5,0,0,0,.39,4.94,2.55,2.55,0,0,0,0,1,2.5,2.5,0,0,0,2.44,2,2.37,2.37,0,0,0,.52-.06l8.06-1.67a2.49,2.49,0,0,0,2-2.25,2.49,2.49,0,0,0,2.18,1.31,3.15,3.15,0,0,0,.52,0l9.67-2,9.09,1.19Zm6,119c-.31.12-.63.23-1,.33l-1.07-112L237.73,150l0,108.57Zm45.55-17.47-17.15,6.58,0-107.2,18.65-4ZM452.1,105.65l-4.62,65.82a10.83,10.83,0,0,1-6.89,9.31L271,245.84l1.44-103.21,179.68-38.22A7.33,7.33,0,0,1,452.1,105.65Z"/><polygon class="cls-1" points="259.32 199.22 259.31 199.15 259.31 199.03 259.29 198.91 259.29 198.85 259.26 198.73 259.25 198.66 259.24 198.61 259.24 198.55 259.23 198.48 259.2 198.42 259.2 198.37 259.18 198.31 259.14 198.13 259.13 198.08 259.11 198.02 259.09 197.97 259.07 197.91 259.06 197.85 259.03 197.8 259.02 197.74 259 197.69 258.97 197.63 258.95 197.59 258.94 197.54 258.91 197.48 258.87 197.38 258.84 197.33 258.82 197.28 258.77 197.19 258.74 197.13 258.72 197.09 258.68 197.04 258.66 197 258.64 196.95 258.6 196.91 258.55 196.81 258.51 196.78 258.49 196.74 258.45 196.69 258.42 196.66 258.39 196.61 258.36 196.57 258.33 196.54 258.3 196.5 258.26 196.45 258.23 196.42 258.15 196.34 258.13 196.32 258.08 196.28 258.05 196.25 258.02 196.21 257.97 196.19 257.94 196.15 257.9 196.12 257.87 196.09 257.83 196.06 257.79 196.03 257.75 196.01 257.71 195.97 257.66 195.95 257.63 195.92 257.58 195.9 257.54 195.88 257.5 195.85 257.46 195.84 257.42 195.81 257.37 195.79 257.32 195.77 257.29 195.75 257.24 195.74 257.19 195.72 257.15 195.71 257.11 195.68 257.08 195.68 257.08 195.67 256.71 195.55 256.43 195.5 256.31 195.49 256.2 195.48 255.84 195.48 255.72 195.49 255.6 195.5 255.47 195.53 255.35 195.55 255.23 195.59 254.99 195.66 254.87 195.72 254.74 195.77 254.5 195.89 254.37 195.96 254.25 196.03 254.13 196.1 254.03 196.2 253.91 196.28 253.8 196.38 253.68 196.48 253.57 196.59 253.46 196.68 253.35 196.8 253.24 196.91 253.15 197.03 253.04 197.16 252.94 197.28 252.75 197.55 252.66 197.69 252.57 197.84 252.48 197.97 252.4 198.13 252.33 198.27 252.24 198.43 252.18 198.58 252.04 198.9 251.98 199.07 251.92 199.22 251.87 199.39 251.81 199.55 251.76 199.73 251.71 199.9 251.68 200.05 251.64 200.23 251.62 200.4 251.58 200.57 251.53 200.91 251.5 201.41 251.5 201.92 251.51 202.09 251.51 202.24 251.53 202.41 251.54 202.57 251.57 202.72 251.61 202.88 251.63 203.03 251.67 203.17 251.71 203.33 251.75 203.46 251.85 203.75 251.91 203.88 251.96 204.01 252.03 204.13 252.09 204.25 252.23 204.5 252.38 204.71 252.63 205 252.72 205.1 252.82 205.17 252.91 205.25 253 205.33 253.11 205.4 253.21 205.46 253.31 205.52 253.42 205.57 253.53 205.62 253.64 205.66 253.75 205.7 253.75 205.69 254.06 205.79 254.09 205.79 254.1 205.81 254.15 205.81 254.16 205.82 254.18 205.82 254.19 205.83 254.24 205.83 254.27 205.84 254.29 205.84 254.31 205.85 254.35 205.85 254.4 205.87 254.45 205.87 254.48 205.88 254.58 205.88 254.64 205.89 254.98 205.89 255.02 205.88 255.12 205.88 255.17 205.87 255.22 205.87 255.26 205.85 255.31 205.84 255.37 205.83 255.42 205.83 255.47 205.82 255.52 205.81 255.57 205.79 255.61 205.78 255.66 205.76 255.71 205.75 255.76 205.72 255.81 205.71 255.85 205.7 255.9 205.68 255.95 205.65 256 205.64 256.05 205.62 256.11 205.59 256.16 205.57 256.2 205.54 256.25 205.52 256.29 205.49 256.34 205.47 256.4 205.43 256.44 205.41 256.48 205.39 256.53 205.36 256.58 205.33 256.63 205.3 256.72 205.23 256.76 205.19 256.82 205.17 256.85 205.13 256.9 205.1 256.95 205.06 257 205.03 257.04 204.99 257.08 204.95 257.17 204.87 257.21 204.83 257.55 204.5 257.6 204.44 257.64 204.4 257.67 204.35 257.71 204.3 257.76 204.25 257.79 204.21 257.87 204.11 257.91 204.05 258.02 203.91 258.06 203.84 258.13 203.75 258.2 203.63 258.24 203.58 258.26 203.52 258.3 203.47 258.33 203.41 258.37 203.36 258.39 203.3 258.47 203.18 258.49 203.12 258.53 203.07 258.55 203.01 258.58 202.94 258.61 202.88 258.64 202.83 258.66 202.77 258.72 202.65 258.74 202.58 258.77 202.52 258.79 202.46 258.84 202.34 258.87 202.28 258.89 202.21 258.94 202.09 258.96 202.01 258.97 201.96 259.02 201.84 259.03 201.76 259.06 201.7 259.07 201.63 259.09 201.57 259.11 201.51 259.13 201.44 259.14 201.38 259.15 201.31 259.18 201.19 259.2 201.11 259.2 201.05 259.23 200.98 259.24 200.92 259.24 200.85 259.26 200.79 259.26 200.72 259.27 200.66 259.29 200.58 259.29 200.52 259.3 200.45 259.31 200.39 259.31 200.26 259.32 200.19 259.32 200.13 259.33 200.05 259.33 199.34 259.32 199.28 259.32 199.22"/><polygon class="cls-1" points="259.32 216.18 259.31 216.11 259.31 215.99 259.29 215.87 259.29 215.81 259.26 215.69 259.25 215.62 259.24 215.57 259.24 215.51 259.23 215.44 259.2 215.38 259.2 215.33 259.18 215.27 259.14 215.09 259.13 215.04 259.11 214.98 259.09 214.93 259.07 214.87 259.06 214.81 259.03 214.76 259.02 214.7 259 214.65 258.97 214.59 258.95 214.54 258.94 214.5 258.91 214.44 258.87 214.34 258.84 214.29 258.82 214.24 258.77 214.15 258.74 214.09 258.72 214.05 258.68 214 258.66 213.96 258.64 213.91 258.6 213.87 258.55 213.77 258.51 213.74 258.49 213.7 258.45 213.65 258.42 213.62 258.39 213.57 258.36 213.53 258.33 213.5 258.3 213.46 258.26 213.41 258.23 213.38 258.15 213.31 258.13 213.28 258.08 213.25 258.05 213.21 258.02 213.17 257.97 213.15 257.94 213.11 257.9 213.08 257.87 213.05 257.83 213.02 257.79 212.99 257.75 212.97 257.71 212.93 257.66 212.91 257.63 212.88 257.58 212.86 257.54 212.84 257.5 212.81 257.46 212.8 257.42 212.78 257.37 212.75 257.32 212.73 257.29 212.72 257.24 212.7 257.19 212.68 257.15 212.67 257.11 212.64 257.08 212.64 257.08 212.63 256.71 212.51 256.43 212.46 256.31 212.45 256.2 212.44 255.84 212.44 255.72 212.45 255.6 212.46 255.47 212.49 255.35 212.51 255.23 212.55 254.99 212.62 254.87 212.68 254.74 212.73 254.5 212.85 254.37 212.92 254.25 212.99 254.13 213.06 254.03 213.16 253.91 213.25 253.8 213.34 253.68 213.44 253.57 213.55 253.46 213.64 253.35 213.76 253.24 213.87 253.15 213.99 253.04 214.12 252.94 214.24 252.75 214.51 252.66 214.65 252.57 214.8 252.48 214.93 252.4 215.09 252.33 215.23 252.24 215.39 252.18 215.54 252.04 215.86 251.98 216.03 251.92 216.18 251.87 216.35 251.81 216.51 251.76 216.69 251.71 216.86 251.68 217.01 251.64 217.19 251.62 217.36 251.58 217.53 251.53 217.87 251.5 218.37 251.5 218.88 251.51 219.05 251.51 219.2 251.53 219.37 251.54 219.53 251.57 219.69 251.61 219.84 251.63 219.99 251.67 220.13 251.71 220.29 251.75 220.42 251.85 220.71 251.91 220.84 251.96 220.97 252.03 221.09 252.09 221.21 252.23 221.46 252.38 221.67 252.63 221.96 252.72 222.06 252.82 222.13 252.91 222.21 253 222.28 253.11 222.36 253.21 222.42 253.31 222.48 253.42 222.53 253.53 222.57 253.64 222.62 253.75 222.66 253.75 222.65 254.06 222.75 254.09 222.75 254.1 222.77 254.15 222.77 254.16 222.78 254.18 222.78 254.19 222.79 254.24 222.79 254.27 222.8 254.29 222.8 254.31 222.81 254.35 222.81 254.4 222.83 254.45 222.83 254.48 222.84 254.58 222.84 254.64 222.85 254.98 222.85 255.02 222.84 255.12 222.84 255.17 222.83 255.22 222.83 255.26 222.81 255.31 222.8 255.37 222.79 255.42 222.79 255.47 222.78 255.52 222.77 255.57 222.75 255.61 222.74 255.66 222.72 255.71 222.71 255.76 222.68 255.81 222.67 255.85 222.66 255.9 222.63 255.95 222.61 256 222.6 256.05 222.57 256.11 222.55 256.16 222.53 256.2 222.5 256.25 222.48 256.29 222.45 256.34 222.43 256.4 222.39 256.44 222.37 256.48 222.34 256.53 222.32 256.58 222.28 256.63 222.26 256.72 222.19 256.76 222.15 256.82 222.13 256.85 222.09 256.9 222.06 256.95 222.02 257 221.98 257.04 221.95 257.08 221.91 257.17 221.83 257.21 221.79 257.55 221.46 257.6 221.39 257.64 221.36 257.67 221.31 257.71 221.26 257.76 221.21 257.79 221.17 257.87 221.07 257.91 221.01 258.02 220.87 258.06 220.81 258.13 220.71 258.2 220.59 258.24 220.54 258.26 220.48 258.3 220.43 258.33 220.37 258.37 220.32 258.39 220.26 258.47 220.14 258.49 220.08 258.53 220.03 258.55 219.97 258.58 219.9 258.61 219.84 258.64 219.79 258.66 219.73 258.72 219.61 258.74 219.54 258.77 219.48 258.79 219.42 258.84 219.3 258.87 219.24 258.89 219.17 258.94 219.05 258.96 218.97 258.97 218.91 259.02 218.79 259.03 218.72 259.06 218.66 259.07 218.59 259.09 218.53 259.11 218.47 259.13 218.4 259.14 218.34 259.15 218.26 259.18 218.14 259.2 218.07 259.2 218.01 259.23 217.94 259.24 217.88 259.24 217.81 259.26 217.75 259.26 217.68 259.27 217.61 259.29 217.54 259.29 217.48 259.3 217.41 259.31 217.35 259.31 217.22 259.32 217.15 259.32 217.09 259.33 217.01 259.33 216.3 259.32 216.24 259.32 216.18"/><path class="cls-1" d="M249.82,120.31l-40.93,7.19a2.5,2.5,0,0,0,.43,5,2.15,2.15,0,0,0,.43,0l40.94-7.19a2.5,2.5,0,1,0-.87-4.92Z"/><path class="cls-1" d="M208.14,104.5l-46.25,6.1a2.5,2.5,0,0,0,.32,5l.33,0,46.25-6.1a2.5,2.5,0,0,0-.65-5Z"/><path class="cls-1" d="M158.17,101.74a2.51,2.51,0,0,0-2.74-2.24l-37.22,3.83a2.5,2.5,0,0,0,.25,5h.26l37.22-3.82A2.5,2.5,0,0,0,158.17,101.74Z"/><path class="cls-1" d="M186.85,104.11a2.49,2.49,0,0,0-2.78-2.19l-42.65,5a2.5,2.5,0,0,0,.29,5h.3l42.65-5A2.51,2.51,0,0,0,186.85,104.11Z"/><path class="cls-1" d="M248.56,126.75l-30.36,5.71a2.5,2.5,0,0,0,.46,4.95,2.56,2.56,0,0,0,.47,0l30.35-5.7a2.5,2.5,0,1,0-.92-4.92Z"/><path class="cls-1" d="M401.67,97.06l-17.8,3.7a2.5,2.5,0,0,0,.51,4.95,2.94,2.94,0,0,0,.51,0l17.79-3.7a2.5,2.5,0,0,0-1-4.9Z"/><path class="cls-1" d="M304,86A2.49,2.49,0,0,0,301,84.06l-22.76,4.73a2.5,2.5,0,0,0,.51,4.95,2.94,2.94,0,0,0,.51,0L302,89A2.49,2.49,0,0,0,304,86Z"/><path class="cls-1" d="M317.89,89.67a2.51,2.51,0,0,0-2.95-2l-26.88,5.41a2.5,2.5,0,0,0,.49,5,2.72,2.72,0,0,0,.49,0l26.89-5.42A2.5,2.5,0,0,0,317.89,89.67Z"/><path class="cls-1" d="M336.65,92.81a2.5,2.5,0,0,0-2.94-2L304.4,96.72a2.5,2.5,0,0,0,.49,5,2.72,2.72,0,0,0,.49,0l29.31-5.87A2.5,2.5,0,0,0,336.65,92.81Z"/><path class="cls-1" d="M359.05,94.45a2.51,2.51,0,0,0-2.95-2l-29,5.87a2.5,2.5,0,0,0,.49,5,2.92,2.92,0,0,0,.5,0l29-5.87A2.5,2.5,0,0,0,359.05,94.45Z"/><path class="cls-1" d="M381.84,97a2.51,2.51,0,0,0-3-2l-25.13,5.17a2.5,2.5,0,0,0,.5,4.95,2.94,2.94,0,0,0,.51,0L379.89,100A2.51,2.51,0,0,0,381.84,97Z"/></g></svg>