<?xml version="1.0" encoding="UTF-8"?><svg id="Layer_1" xmlns="http://www.w3.org/2000/svg" viewBox="0 0 480 320"><defs><style>.cls-1{fill:#000;}</style></defs><path class="cls-1" d="M454.24,108.62c-1.66-1.58-3.93-2.41-6.22-2.26l-.44,.03-154.15-23.11c-.87-.13-1.76-.17-2.64-.13L28.92,96.98c-3.2,.17-5.71,2.81-5.71,6.02v80.36c0,2.97,1.88,5.63,4.66,6.61l122.02,43.87c.21,.24,.44,.47,.68,.68,1.67,1.51,3.83,2.34,6.06,2.34,.31,0,.62-.02,.92-.05l289.19-29.83c4.78-.49,8.46-4.49,8.54-9.3l1.49-82.95c.04-2.3-.89-4.52-2.55-6.11Zm-163.03-17.47c.34-.02,.69,0,1.04,.05l117.91,17.67-252.7,16.75c-1.5,.1-2.9,.53-4.15,1.21l-97.42-23.26,235.33-12.42ZM31.21,105.9l116.96,27.92c-.12,.64-.17,1.29-.16,1.96l-.39,88.73L31.21,182.67V105.9Zm416.08,91.63c-.01,.77-.6,1.41-1.37,1.49l-289.2,29.83c-.38,.04-.64-.12-.79-.26-.16-.14-.34-.39-.34-.76l.4-92.09c-.02-1.13,.85-2.07,1.97-2.14l290.56-19.25h.02s.09,0,.15,.06c.07,.07,.07,.14,.07,.17l-1.49,82.95Z"/><path class="cls-1" d="M359.2,153.66c-1.4-1.27-3.2-1.88-5.07-1.72l-80.44,6.81c-3.78,.32-6.7,3.67-6.65,7.63l.34,25.33c.03,2.04,.88,3.97,2.34,5.29,1.25,1.14,2.83,1.74,4.49,1.74,.19,0,.39,0,.58-.02l80.44-6.81c3.78-.32,6.7-3.67,6.65-7.63l-.33-25.33c-.03-2.04-.88-3.97-2.34-5.29Zm-83.84,37l-.32-23.99,78.51-6.65,.32,23.99-78.51,6.65Z"/><path class="cls-1" d="M253,163.91c-4.23-3.96-9.85-5.92-15.81-5.53-12.18,.8-22.09,11.37-22.09,23.55,0,5.95,2.32,11.4,6.54,15.35,3.87,3.63,8.91,5.58,14.32,5.58,.5,0,1-.02,1.5-.05,1.16-.08,2.29-.24,3.4-.49,0,0,0,0,.01,0,10.49-.69,18.99-10.47,18.99-21.85,0-2.18-.32-4.26-.9-6.19-.93-3.98-2.95-7.56-5.95-10.38Zm-33.9,18.02c0-9.02,6.55-16.96,15.15-19.05-7.22,3.39-12.37,11.25-12.37,20.1,0,5.02,1.66,9.5,4.4,12.89-.66-.46-1.31-.95-1.91-1.51-3.4-3.18-5.27-7.6-5.27-12.43Z"/><path class="cls-1" d="M405.38,152.04c-4.19-3.97-9.73-5.98-15.6-5.66-12.12,.66-21.97,11.17-21.96,23.44,0,6.04,2.35,11.58,6.6,15.61,3.9,3.69,8.98,5.69,14.4,5.69,.4,0,.8-.01,1.2-.03,1.13-.06,2.23-.21,3.31-.43,.03,0,.06,0,.1,0,10.42-.56,18.85-10.3,18.84-21.75,0-1.92-.26-3.75-.7-5.49-.84-4.37-2.96-8.31-6.2-11.37Zm-33.56,17.78c0-9.11,6.53-17.03,15.09-18.99-7.21,3.3-12.35,11.18-12.35,20.11,0,5.04,1.65,9.57,4.37,13.01-.61-.44-1.2-.9-1.76-1.43-3.45-3.27-5.35-7.78-5.35-12.71Z"/></svg>