<svg xmlns="http://www.w3.org/2000/svg" viewBox="0 0 480 320"><defs><style>.cls-1{fill:#000;}</style></defs><g id="Warstwa_1" data-name="Warstwa 1"><path class="cls-1" d="M452.59,128.06a9.19,9.19,0,0,0-7-4.17l-.17,0-2.39,0L329.48,82.3a26.31,26.31,0,0,0-12.06-1.42l-283.07,33a9.85,9.85,0,0,0-8.72,9.79v51.81a7.67,7.67,0,0,0,4.44,6.93l110.15,50.91.38.42a10.81,10.81,0,0,0,1.34,1.11,8.5,8.5,0,0,0,5.25,1.83l.51,0h0l.41,0,11.62-1.27a14.11,14.11,0,0,0,3.36.65c1.57.17,3.51.28,5.65.3h1.08c5.84,0,10.58-.61,10.58-1.38l.07-1.86c18-2,38.85-4.31,49.12-5.53,18.65-2.2,56.42-6.87,75.58-9.47,14.3-1.94,43.25-6.22,58.14-8.47,7.05-1.06,18.92-2.9,31.54-4.86,1.2.11,2.59.19,4.1.23q1,0,2.13,0c5.84,0,10.58-.62,10.58-1.38l.06-1.52,35.46-5.57a8.45,8.45,0,0,0,7.18-8.39V133.24A8.48,8.48,0,0,0,452.59,128.06ZM318.35,88.82a18.38,18.38,0,0,1,8.38,1L425.48,126,161.56,159.34l-15,1.91a10.24,10.24,0,0,0-3.82,1.3L43.44,120.82ZM33.63,125.38,137.9,169.19a10,10,0,0,0-.25,2.2v51.88l-104-48.07ZM446.37,188.1a.49.49,0,0,1-.42.48c-.63.1-63.1,9.95-83.82,13.07-14.87,2.25-43.76,6.52-58,8.45-19.12,2.59-56.83,7.26-75.45,9.46-19.34,2.29-76.29,8.51-81.09,9a2,2,0,0,1-.78-.19.44.44,0,0,1-.08-.25V170.8a.49.49,0,0,1,.43-.48c.57-.06,57.29-6.23,76.09-8.24l11-1.17c18.76-2,44.46-4.72,58.73-6.43,15.37-1.84,46.28-5.79,61.71-8C371.34,144,421,136,423.17,135.6l22.65-2.83a.44.44,0,0,1,.38.11.48.48,0,0,1,.17.36Z"/><path class="cls-1" d="M247.23,175.07l-.21,0h0l-8.19-1.15c-9.58-1.33-18.68,6.82-20.28,18.19-1.63,11.67,4,21.43,13,22.82h0l.16,0h0l8.17,1.14H240a17.35,17.35,0,0,0,2.48.18c9.65,0,18.46-7.76,19.9-18C264,186.66,257.36,176.49,247.23,175.07Zm7.25,22c-.95,6.75-7.18,11.92-13.35,11s-8.7-7.72-7.82-14a13.62,13.62,0,0,1,4.73-8.64,10.72,10.72,0,0,1,6.8-2.61,9.07,9.07,0,0,1,1.28.09C251.8,183.79,255.48,190,254.48,197.11Z"/><path class="cls-1" d="M376.59,158.4l-.29,0v0l-7.63-1.07A15.56,15.56,0,0,0,355.75,162a23.55,23.55,0,0,0-6.6,13.56A25.45,25.45,0,0,0,351,190.1c2.23,4.62,5.95,7.52,10.48,8.21h0l7.94,1.11a15.75,15.75,0,0,0,2.27.16c9.26,0,17.79-7.82,19.24-18.14h0C392.58,169.88,386.27,159.76,376.59,158.4ZM383,180.33c-1,7.47-7.41,11.89-12.47,11.18s-8.07-6.69-7.06-13.91c.91-6.42,5.74-11.35,10.87-11.35a8.14,8.14,0,0,1,1.1.08C380.72,167.06,384,173.21,383,180.33Z"/><path class="cls-1" d="M344,167.16l-.35,0-78.62,10.26a2.83,2.83,0,0,0-2.42,2.84v21.64a2.81,2.81,0,0,0,2.76,2.86l.38,0,78.62-11.27a2.84,2.84,0,0,0,2.38-2.84V170A2.82,2.82,0,0,0,344,167.16Zm-5.25,19L270.63,196V184.78l68.14-8.89Z"/><path class="cls-1" d="M418.68,172.35a5.44,5.44,0,0,0-4.85,1.88,7.59,7.59,0,0,0-1.13,8,5.44,5.44,0,0,0,4.15,3.15,6.11,6.11,0,0,0,.73.05,5.54,5.54,0,0,0,4.13-1.94,7.55,7.55,0,0,0,1.12-8A5.43,5.43,0,0,0,418.68,172.35Z"/></g></svg>