<?xml version="1.0" encoding="UTF-8"?>
<svg id="_레이어_1" data-name="레이어 1" xmlns="http://www.w3.org/2000/svg" viewBox="0 0 480 320">
  <defs>
    <style>
      .cls-1 {
        fill: #000;
      }
    </style>
  </defs>
  <g>
    <path class="cls-1" d="M459.18,116.67c-.02-.08-.04-.16-.07-.25-.04-.18-.09-.36-.16-.54-.04-.1-.09-.18-.13-.28-.08-.15-.16-.3-.25-.45-.06-.09-.12-.17-.19-.25-.11-.13-.22-.26-.34-.38-.04-.04-.07-.09-.11-.12-.04-.04-.09-.06-.14-.1-.13-.1-.26-.2-.4-.29-.1-.07-.2-.13-.31-.18-.05-.03-.1-.07-.16-.09l-127.63-58.75c-.68-.31-1.43-.43-2.17-.34L24.26,92.38c-.09,.01-.17,.04-.26,.05-.08,.02-.16,.03-.24,.05-.19,.05-.38,.11-.56,.19-.04,.02-.08,.03-.11,.04-.21,.1-.41,.22-.6,.35-.06,.04-.11,.08-.16,.13-.13,.1-.26,.21-.38,.33-.06,.05-.11,.11-.16,.17-.11,.12-.21,.26-.31,.4-.04,.06-.08,.11-.12,.17-.12,.2-.23,.4-.32,.62-.01,.03-.02,.06-.03,.09-.06,.16-.12,.33-.15,.5,0,.03,0,.07-.01,.1-.02,.08-.02,.15-.03,.23-.02,.18-.04,.35-.04,.53,0,.04-.01,.08,0,.13l2.34,93.02c0,.08,.02,.16,.03,.24,.01,.14,.02,.28,.05,.41,.02,.13,.06,.25,.1,.38,.04,.12,.07,.24,.12,.36,.05,.12,.11,.24,.17,.36,.06,.11,.11,.22,.18,.32,.07,.11,.16,.22,.24,.32,.08,.09,.15,.19,.24,.28,.1,.11,.22,.2,.33,.3,.06,.05,.12,.12,.19,.17l99.06,72c.06,.04,.13,.08,.19,.12,.08,.05,.16,.1,.24,.15,.13,.07,.25,.13,.38,.18,.07,.03,.15,.06,.22,.09,.15,.05,.31,.09,.47,.13,.06,.01,.12,.03,.18,.04,.22,.04,.44,.06,.67,.06,0,0,0,0,0,0,.2,0,.41-.02,.61-.05l326.23-50.43c1.9-.29,3.33-1.9,3.39-3.83l2.86-93.56c0-.28-.01-.57-.06-.84Zm-132.2-53.94l114.06,52.5L127.07,157.14,36.23,98.95,326.97,62.73ZM29.97,144.55l92.18,60.05v8.29L30.14,151.43l-.17-6.87Zm92.18,54.08L29.81,138.49l-.21-8.21,92.54,60.01v8.35ZM30.29,157.54l91.86,61.37v8.27L30.48,165.02l-.19-7.48Zm91.86,26.79L29.46,124.22l-.18-7.26,92.88,59.02v8.35Zm-91.52-13.16l91.52,62.05v8.18L30.78,176.98l-.15-5.81Zm91.52-1.11L29.12,110.94l-.18-7.15,93.21,59.7v6.57Zm-91.21,13.15l91.21,64.31v6.01L31.04,187.3l-.1-4.09Zm417.55,24.3l-318.34,49.21v-91.91l320.95-42.84-2.61,85.55Z"/>
    <path class="cls-1" d="M138.51,249.89c-.52,0-1.02-.18-1.42-.53-.48-.41-.76-1.02-.76-1.65l.07-77.08c0-1.09,.81-2.01,1.88-2.16l303.61-40.79c.65-.07,1.28,.11,1.75,.54,.47,.43,.74,1.04,.72,1.68l-2.15,72.36c-.03,1.05-.81,1.93-1.85,2.09l-301.53,45.5c-.11,.02-.22,.03-.33,.03Zm2.25-77.35l-.07,72.64,297.23-44.85,2.02-67.98-299.18,40.19Z"/>
  </g>
  <g>
    <g>
      <path class="cls-1" d="M265.73,104.98c-15.28-7.96-30.14-15.7-44.58-23.23-.53-.28,.08-.63,1.36-.79,4.62-.58,9.23-1.16,13.84-1.73,1.27-.16,2.74-.07,3.27,.21,14.67,7.47,29.75,15.16,45.26,23.07,.58,.3-.01,.68-1.33,.85-4.79,.62-9.58,1.24-14.37,1.86-1.33,.17-2.87,.07-3.44-.23Z"/>
      <path class="cls-1" d="M299.97,100.55c-15.7-7.86-30.95-15.51-45.79-22.94-.54-.27,.04-.62,1.31-.78,4.58-.57,9.15-1.15,13.72-1.72,1.26-.16,2.73-.07,3.28,.2,15.06,7.38,30.54,14.98,46.46,22.79,.6,.29,.03,.67-1.28,.84-4.74,.61-9.49,1.23-14.24,1.84-1.31,.17-2.86,.07-3.45-.23Z"/>
      <path class="cls-1" d="M288.18,72.73c4.54-.57,9.07-1.14,13.6-1.7,1.25-.16,2.72-.07,3.28,.2,15.44,7.3,31.32,14.8,47.64,22.51,.61,.29,.06,.66-1.23,.83-4.7,.61-9.4,1.22-14.11,1.83-1.3,.17-2.85,.07-3.46-.22-16.1-7.77-31.76-15.32-46.99-22.66-.56-.27,0-.61,1.26-.77Z"/>
      <path class="cls-1" d="M86.06,98.06c4.79-.6,9.57-1.2,14.34-1.8,1.32-.17,2.77-.07,3.25,.22,13.01,7.85,26.39,15.93,40.16,24.25,.52,.31-.17,.71-1.54,.89-4.97,.64-9.94,1.29-14.92,1.93-1.38,.18-2.91,.07-3.41-.25-13.52-8.37-26.65-16.51-39.42-24.41-.47-.29,.23-.66,1.55-.82Z"/>
      <path class="cls-1" d="M159.47,118.71c-13.97-8.27-27.54-16.3-40.73-24.11-.48-.29,.19-.65,1.5-.81,4.74-.59,9.48-1.19,14.22-1.78,1.31-.16,2.76-.07,3.25,.22,13.43,7.76,27.24,15.74,41.46,23.95,.54,.31-.13,.7-1.49,.88-4.92,.64-9.85,1.27-14.78,1.91-1.36,.18-2.9,.07-3.42-.24Z"/>
      <path class="cls-1" d="M152.65,90.34c-.5-.28,.15-.64,1.45-.81,4.7-.59,9.4-1.18,14.09-1.77,1.29-.16,2.75-.07,3.26,.21,13.84,7.66,28.08,15.55,42.73,23.65,.55,.31-.09,.69-1.44,.87-4.88,.63-9.76,1.26-14.65,1.89-1.35,.17-2.89,.07-3.43-.24-14.41-8.17-28.41-16.1-42.02-23.82Z"/>
    </g>
    <g>
      <path class="cls-1" d="M253.72,134.24s-.02,.04-.05,.06c-.03,.02-.08,.04-.14,.06-.03,0-.06,.02-.1,.02-.02,0-.04,0-.05,0-.02,0-.03,0-.05,0-7.16,.95-14.33,1.91-21.52,2.86-.02,0-.03,0-.05,0-.02,0-.04,0-.06,0-.04,0-.08,0-.13,0-.09,0-.17,0-.25,0-.16-.01-.28-.04-.35-.08-.3-.17-2.02-1.06-2.33-1.24-.03-.02-.05-.04-.05-.06v-.98s.02-.04,.05-.06c.03-.02,.08-.04,.14-.06,.03,0,.06-.02,.1-.02,.02,0,.04,0,.06,0,.02,0,.03,0,.05,0,7.18-.95,14.35-1.91,21.5-2.86,.02,0,.03,0,.05,0,.02,0,.04,0,.06,0,.04,0,.08,0,.13,0,.09,0,.17,0,.25,0,.16,.01,.28,.04,.35,.08,.31,.17,.7,.24,.93,.51"/>
      <path class="cls-1" d="M279.45,130.44s-.02,.04-.05,.06c-.03,.02-.08,.04-.14,.06-.03,0-.06,.02-.1,.02-.02,0-.04,0-.05,0-.02,0-.03,0-.05,0-7.16,.95-14.33,1.91-21.52,2.86-.02,0-.03,0-.05,0-.02,0-.04,0-.06,0-.04,0-.08,0-.13,0-.09,0-.17,0-.25,0-.16-.01-.28-.04-.35-.08-.3-.17-2.02-1.06-2.33-1.24-.03-.02-.05-.04-.05-.06v-.98s.02-.04,.05-.06c.03-.02,.08-.04,.14-.06,.03,0,.06-.02,.1-.02,.02,0,.04,0,.06,0,.02,0,.03,0,.05,0,7.18-.95,14.35-1.91,21.5-2.86,.02,0,.03,0,.05,0,.02,0,.04,0,.06,0,.04,0,.08,0,.13,0,.09,0,.17,0,.25,0,.16,.01,.28,.04,.35,.08,.31,.17,.7,.24,.93,.51"/>
      <path class="cls-1" d="M305.41,126.94s-.02,.04-.05,.06c-.03,.02-.08,.04-.14,.06-.03,0-.06,.02-.1,.02-.02,0-.04,0-.05,0-.02,0-.03,0-.05,0-7.16,.95-14.33,1.91-21.52,2.86-.02,0-.03,0-.05,0-.02,0-.04,0-.06,0-.04,0-.08,0-.13,0-.09,0-.17,0-.25,0-.16-.01-.28-.04-.35-.08-.3-.17-2.02-1.06-2.33-1.24-.03-.02-.05-.04-.05-.06v-.98s.02-.04,.05-.06c.03-.02,.08-.04,.14-.06,.03,0,.06-.02,.1-.02,.02,0,.04,0,.06,0,.02,0,.03,0,.05,0,7.18-.95,14.35-1.91,21.5-2.86,.02,0,.03,0,.05,0,.02,0,.04,0,.06,0,.04,0,.08,0,.13,0,.09,0,.17,0,.25,0,.16,.01,.28,.04,.35,.08,.31,.17,.7,.24,.93,.51"/>
      <path class="cls-1" d="M331.27,123.31s-.02,.04-.05,.06c-.03,.02-.08,.04-.14,.06-.03,0-.06,.02-.1,.02-.02,0-.04,0-.05,0-.02,0-.03,0-.05,0-7.16,.95-14.33,1.91-21.52,2.86-.02,0-.03,0-.05,0-.02,0-.04,0-.06,0-.04,0-.08,0-.13,0-.09,0-.17,0-.25,0-.16-.01-.28-.04-.35-.08-.3-.17-2.02-1.06-2.33-1.24-.03-.02-.05-.04-.05-.06v-.98s.02-.04,.05-.06c.03-.02,.08-.04,.14-.06,.03,0,.06-.02,.1-.02,.02,0,.04,0,.06,0,.02,0,.03,0,.05,0,7.18-.95,14.35-1.91,21.5-2.86,.02,0,.03,0,.05,0,.02,0,.04,0,.06,0,.04,0,.08,0,.13,0,.09,0,.17,0,.25,0,.16,.01,.28,.04,.35,.08,.31,.17,.7,.24,.93,.51"/>
    </g>
  </g>
</svg>