<svg xmlns="http://www.w3.org/2000/svg" viewBox="0 0 480 320"><defs><style>.cls-1{fill:#000;}.cls-2{fill:none;stroke:#000;stroke-miterlimit:10;stroke-width:3px;}</style></defs><g id="Artwork"><path class="cls-1" d="M446.49,163.37a8.31,8.31,0,0,0-4.41-3,8.1,8.1,0,0,0-4.83-2.16c-4.72-.39-8.9,3.43-9.32,8.52a9,9,0,0,0,6.35,9.65,8.15,8.15,0,0,0,4.86,2.17l.66,0c4.44,0,8.25-3.69,8.65-8.54A9.52,9.52,0,0,0,446.49,163.37Zm-12.11,5.55a6.59,6.59,0,0,1,2-4.24,5.27,5.27,0,0,1,3.63-1.5l.41,0a5.18,5.18,0,0,1,3.73,2.12,6.49,6.49,0,0,1,1.27,4.51c-.28,3.41-3,6-6,5.73S434.1,172.33,434.38,168.92Zm-3.06.82A6.82,6.82,0,0,1,431,167a6.55,6.55,0,0,1,2-4.25,5.31,5.31,0,0,1,2.73-1.4,7.84,7.84,0,0,0-1.32,1,9.55,9.55,0,0,0-3.06,7.37Z"/></g><g id="레이어_1" data-name="레이어 1"><path class="cls-1" d="M459.18,116.67c0-.09-.05-.17-.07-.25a3.68,3.68,0,0,0-.16-.54l-.13-.27a3.3,3.3,0,0,0-.26-.45,2.14,2.14,0,0,0-.19-.26,3,3,0,0,0-.34-.38,1.2,1.2,0,0,0-.11-.12l-.13-.1c-.13-.1-.26-.2-.4-.29s-.21-.13-.32-.18l-.15-.1L329.28,55a4,4,0,0,0-2.16-.34L24.26,92.38a2.44,2.44,0,0,0-.26.06l-.24,0c-.19,0-.37.12-.56.19l-.11,0a3.56,3.56,0,0,0-.6.34l-.16.13a2.43,2.43,0,0,0-.38.33,1.29,1.29,0,0,0-.16.17,2.79,2.79,0,0,0-.31.39,1.77,1.77,0,0,0-.12.17,3.73,3.73,0,0,0-.32.63L21,95a2.88,2.88,0,0,0-.15.5s0,.06,0,.1l0,.23a3,3,0,0,0,0,.52c0,.05,0,.09,0,.13l2.33,93a2.42,2.42,0,0,1,0,.25c0,.14,0,.27.05.41s.07.25.1.38a3.59,3.59,0,0,0,.12.35,3,3,0,0,0,.17.36l.18.33.25.32.23.28.33.29c.07.06.12.12.19.17l99.06,72a2,2,0,0,0,.19.12l.24.15.39.18.22.09.47.13.17,0a3.79,3.79,0,0,0,.67.06h0a4.07,4.07,0,0,0,.61-.05L453,214.9a4,4,0,0,0,3.38-3.83l2.86-93.56A3.87,3.87,0,0,0,459.18,116.67ZM327,62.73,441,115.23,127.08,157.14,36.23,99ZM30,144.56l92.18,60v8.3l-92-61.47Zm92.18,54.08L29.82,138.49l-.21-8.21,92.54,60Zm-91.86-41.1,91.86,61.37v8.27L30.48,165Zm91.86,26.79L29.46,124.22,29.27,117l92.88,59ZM30.64,171.17l91.51,62.05v8.18L30.78,177Zm91.51-1.11-93-59.12-.18-7.16,93.21,59.71ZM30.94,183.21l91.21,64.31v6L31,187.3ZM448.49,207.5,130.15,256.71V164.8L451.1,122Z"/><path class="cls-1" d="M437.25,145.86c3.66,1,7.51-1.46,8.58-5.45s-1-8-4.69-9-7.51,1.45-8.58,5.45S433.58,144.87,437.25,145.86Z"/><path class="cls-2" d="M437.5,194.76a3.82,3.82,0,1,0,2.39,4.59A3.66,3.66,0,0,0,437.5,194.76Z"/><path class="cls-1" d="M137.88,182.77l5.09,3.29a1.5,1.5,0,0,0,1.63,0l5.1-3.29a1.52,1.52,0,0,0,.68-1.26v-6.58a1.52,1.52,0,0,0-.68-1.26l-5.1-3.29a1.5,1.5,0,0,0-1.63,0l-5.09,3.29a1.5,1.5,0,0,0-.69,1.26v6.58A1.5,1.5,0,0,0,137.88,182.77Z"/><path class="cls-1" d="M425.34,182.58l1.08-27.76h0l.8-20.52a2.56,2.56,0,0,0-.82-2,2.52,2.52,0,0,0-2-.62L159.09,167.59a2.49,2.49,0,0,0-2.16,2.48v74.15a2.49,2.49,0,0,0,2.5,2.5,2.31,2.31,0,0,0,.37,0l262.59-40.3a2.49,2.49,0,0,0,2.12-2.38l.83-21.43Zm-5.74,19.18L161.93,241.31V172.25L422.1,137.08Z"/></g></svg>