<svg id="Artwork" xmlns="http://www.w3.org/2000/svg" viewBox="0 0 480 320"><defs><style>.cls-1{fill:#000;}</style></defs><path class="cls-1" d="M418.53,100.12l-87-64.66a21.66,21.66,0,0,0-17.48-3.69l-248.55,55a14.05,14.05,0,0,0-8.27,5.45h0a4.36,4.36,0,0,0-.57.85,14,14,0,0,0-2.14,7.41l.12,78.38A21.12,21.12,0,0,0,60.9,194l85,84.91c.11,4,1.31,6.92,3.59,8.75a9.13,9.13,0,0,0,5.94,1.94,16.69,16.69,0,0,0,4.38-.64l17-4.4,3,3a4,4,0,0,0,3.93,1l87.46-25.24a4,4,0,0,0,2.89-3.63l.2-3.84,26.67-7,4.87,3.41a4,4,0,0,0,3.26.61l82.07-20.35a4,4,0,0,0,3-3.88v-1.92L411.55,222l.32-.1c7.05-2.56,10.53-7.76,10.63-15.82l2.8-92A16.83,16.83,0,0,0,418.53,100.12ZM315.82,39.58a13.93,13.93,0,0,1,2.94-.32,13.56,13.56,0,0,1,8.05,2.64l86.33,64.18-262.85,64.1-84-75.31a5.92,5.92,0,0,1,1-.34ZM66.54,188.3a13.16,13.16,0,0,1-3.88-9.45l-.12-76.55,82.66,74.07.63,91.15Zm348,17.62c-.07,5.4-2,7.2-5.22,8.42l-20.17,5.48a4,4,0,0,0-2.95,3.86v1.85L308.9,244.68l-4.9-3.43a4,4,0,0,0-3.31-.59l-31.28,8.18a4,4,0,0,0-3,3.66l-.21,3.91-82.46,23.8-2.95-2.95a4,4,0,0,0-3.83-1.05l-19.24,5c-2.15.58-3.08.35-3.25.21s-.73-1.22-.6-4a.57.57,0,0,0,0-.13h0v-.11l-.69-99.5L417.3,113.3a5.42,5.42,0,0,1,0,.57Z"/><path class="cls-1" d="M214.15,115.21a2,2,0,0,0,1.95,1.55,2.3,2.3,0,0,0,.45-.05l52.83-12.28a2,2,0,0,0-.91-3.9l-52.82,12.28A2,2,0,0,0,214.15,115.21Z"/><path class="cls-1" d="M196.09,101.6a2,2,0,0,0,1.95,1.54,1.73,1.73,0,0,0,.45,0l52.83-12.27a2,2,0,1,0-.91-3.9L197.59,99.19A2,2,0,0,0,196.09,101.6Z"/><path class="cls-1" d="M180,89.53a2.49,2.49,0,0,0,.46,0L233.26,77.2a2,2,0,1,0-.9-3.89L179.53,85.58a2,2,0,0,0,.45,4Z"/><path class="cls-1" d="M233.25,129.63a2,2,0,0,0,1.95,1.55,2.3,2.3,0,0,0,.45-.05l52.83-12.28a2,2,0,0,0-.91-3.9l-52.82,12.28A2,2,0,0,0,233.25,129.63Z"/><path class="cls-1" d="M198.57,120.4a2,2,0,0,0-2.4-1.49l-52.83,12.27a2,2,0,0,0,.46,3.95,2.38,2.38,0,0,0,.45,0l52.82-12.28A2,2,0,0,0,198.57,120.4Z"/><path class="cls-1" d="M215.27,133.32,162.44,145.6a2,2,0,0,0,.45,4,2.4,2.4,0,0,0,.46-.05l52.82-12.28a2,2,0,1,0-.9-3.9Z"/><path class="cls-1" d="M180.51,106.79a2,2,0,0,0-2.4-1.5l-52.82,12.28a2,2,0,0,0,.45,3.94,1.73,1.73,0,0,0,.45-.05L179,109.19A2,2,0,0,0,180.51,106.79Z"/><path class="cls-1" d="M107.67,107.9a1.8,1.8,0,0,0,.46-.05L161,95.58a2,2,0,1,0-.9-3.9L107.22,104a2,2,0,0,0-1.49,2.41A2,2,0,0,0,107.67,107.9Z"/><path class="cls-1" d="M342.62,165.23a11,11,0,0,0-4.12-7.7,2.9,2.9,0,0,0-.36-.25l-3.67-3.57a16,16,0,0,0-5.14-11.07,14.19,14.19,0,0,0-10.87-3.34c-5.52.54-11,3.8-14.92,8.93-7.06,9.17-7.15,21.59-.19,27.69a14.46,14.46,0,0,0,12.81,3l2,1.91.09.06a.46.46,0,0,0,.07.07l.15.11h0a11.64,11.64,0,0,0,7.06,2.25h.14a17.17,17.17,0,0,0,11.83-5.19c.37-.35.74-.71,1.11-1.1l.12-.14c3.53-4.5,4.3-8.39,3.92-11.49C342.62,165.36,342.63,165.29,342.62,165.23Zm-12.09,13-.3.14a10.21,10.21,0,0,1-8.78-.1c-.19-.12-.38-.24-.57-.38a7,7,0,0,1-2.59-5,12.1,12.1,0,0,1,3.22-8.91,13.36,13.36,0,0,1,9.73-4.85,7.79,7.79,0,0,1,4.36,1.27l.14.14.09.06a.6.6,0,0,0,.08.08l.32.28A8.16,8.16,0,0,1,338,163.5a7.93,7.93,0,0,1,.51,2.12,12.17,12.17,0,0,1-3.22,8.92A14.92,14.92,0,0,1,330.9,178Zm-12-16.82a16.6,16.6,0,0,0-4.23,10.21L311,168.38l-.15-.14a6.91,6.91,0,0,1-2.6-4.94,12.15,12.15,0,0,1,3.22-8.93c4.17-4.81,10.7-6.28,14.5-3.32.29.25,2.15,2,4.35,4.17A17.55,17.55,0,0,0,318.49,161.36ZM306,172.92c-5.41-4.74-5.08-14.72.72-22.25,3.29-4.26,7.71-6.95,12.14-7.39a10.11,10.11,0,0,1,7.84,2.36,10.26,10.26,0,0,1,2.14,2.66c-.21-.19-.35-.33-.41-.37-5.5-4.28-14.48-2.57-20,3.82a16.17,16.17,0,0,0-4.18,11.94,11,11,0,0,0,4,7.64l4.14,4A9.82,9.82,0,0,1,306,172.92Z"/><path class="cls-1" d="M245,195.92l35-9.42c2.72-.63,2.88-1.1,3-3.15V161.18L245,170.77Z"/><path class="cls-1" d="M186.44,257l21.33-5.16c2.72-.62,2.88-1.1,3-3.15V238.52l-24.36,5.33Z"/><path class="cls-1" d="M238.24,242.38l42-10.79c4.07-1.14,4.82-1.91,4.87-5.08V210.14L238.15,222Z"/><path class="cls-1" d="M352.94,198.1c-4.55-3.3-11.84-1.54-16.28,3.93s-4.34,12.6.21,15.91,11.84,1.55,16.28-3.93S357.5,201.41,352.94,198.1Z"/></svg>