<?xml version="1.0" encoding="UTF-8"?>
<svg id="Artwork" xmlns="http://www.w3.org/2000/svg" viewBox="0 0 480 320">
  <defs>
    <style>
      .cls-1 {
        fill: #000;
        fill-rule: evenodd;
      }
    </style>
  </defs>
  <g>
    <path class="cls-1" d="M256.71,248.94c.23,.57,.51,1.11,.89,1.6,.26,.3,.56,.57,.89,.79,1.96,.89,4.24,.65,5.97-.63,4.88-3.2,7.95-8.53,8.28-14.35,.25-2.04-.61-4.05-2.25-5.29-.39-.26-.84-.42-1.31-.47-1.3-.18-2.62,.03-3.8,.57-.39,.16-.76,.35-1.12,.59-4.88,3.18-7.97,8.48-8.33,14.3,0,.92,.13,1.84,.42,2.72,.12,.07,.25,.12,.37,.18Z"/>
    <path class="cls-1" d="M363.88,186.88c.22,.6,.5,1.17,.88,1.69,.28,.3,.59,.57,.94,.79,1.96,.87,4.23,.63,5.97-.63,4.93-3.19,8.04-8.54,8.38-14.4,.21-2-.65-3.97-2.25-5.19-.41-.22-.85-.38-1.31-.47-1.23-.15-2.46,.03-3.59,.52-.43,.17-.84,.38-1.23,.64-4.89,3.13-8,8.4-8.38,14.19-.04,.94,.11,1.88,.42,2.78,.05,.03,.11,.06,.17,.09Z"/>
    <path class="cls-1" d="M442.39,120.57l-.83-.38s-.03,0-.05-.01L285.95,30.35l-.71-.32c-6.05-2.05-12.58-1.76-18.41,.82-25.2,7.79-51.47,23.42-76.87,38.54-9.92,5.9-20.17,12.01-30.2,17.53-7.57,4.38-15.14,8.73-22.71,13.08-11.15,6.41-22.68,13.03-33.97,19.63-15.73,8.85-30.83,19.09-44.79,30.38-7.01,5.42-13.44,11.61-19.12,18.41l-.1,.12c-5.13,6.67-7.2,12.77-6.14,18.14,.88,4.46,3.8,8.15,8.67,10.97l.59,.16,153.62,88.6c.61,.46,1.25,.91,1.95,1.33l.62,.17c1.79,.99,3.68,1.82,5.62,2.46,5.05,2.05,9.94,2.95,14.79,2.95,13.81,0,27.31-7.26,43.29-15.86,2.15-1.16,4.36-2.34,6.65-3.56,17.88-9.65,35.38-19.59,51.57-28.87l1.05-.58,40.94-24.56,8.93-5.22c13.97-8.03,27.39-17.24,39.91-27.39l.34-.31c10.82-11.04,20.26-23.41,28.05-36.76,4.2-5.87,6.89-12.75,7.78-19.91l.02-.17c.32-3.84-1.61-7.6-4.92-9.58Zm-239.97,155.75l-1.21-.92c-1.08-.8-1.24-1.51-1.26-2.15-.1-3.12,3.78-9.8,14.98-19.24,14.97-12.71,31.27-24,48.43-33.55l.09-.05c11.31-6.69,31.47-18.43,53.91-31.4l16.11-9.28c6.05-3.33,13.29-7.62,20.95-12.17,26.57-15.76,62.93-37.35,80.83-36.42h.48c.17-.01,.33-.02,.5-.03,.09,.74,.01,2.8-2.15,7.32-2.14,4.48-5.35,9.42-7.94,13.39-.77,1.19-1.49,2.29-2.1,3.26-5.57,8.34-11.95,16.2-18.98,23.35-11.39,9.23-23.6,17.62-36.29,24.96l-1.87,1.44-8.28,5.03-44.18,26.22c-12.94,7.41-32.14,18.34-49.43,27.64l-.15,.08c-11.8,7-24.34,12.88-37.27,17.47-8.74,1.51-17.67-.25-25.19-4.96ZM45.91,190.72l-.58-.15c-2.62-1.58-4.16-3.4-4.56-5.44-.58-2.95,1-6.97,4.58-11.65,5.29-6.33,11.28-12.1,17.88-17.2,13.69-11.07,28.41-21.06,43.81-29.72,11.32-6.62,22.84-13.23,33.97-19.63,7.58-4.35,15.16-8.71,22.66-13.05,10.07-5.55,20.38-11.69,30.36-17.62,25.08-14.92,51.01-30.36,75.37-37.84l.48-.18c3.92-1.78,8.32-2.05,12.42-.76l143.22,82.71c-.85,.27-1.69,.59-2.52,.95-25.08,7.79-51.52,23.47-77.1,38.64-9.79,5.81-19.92,11.81-29.81,17.27-4.77,2.75-9.55,5.49-14.32,8.23-13.94,8-28.36,16.28-42.37,24.59-13.68,7.72-26.87,16.48-39.27,26.07-1.77,1.37-3.53,2.76-5.27,4.17-.02,.02-.04,.03-.06,.05-7,5.42-13.42,11.61-19.09,18.4l-.08,.1c-4.11,5.25-6.26,10.19-6.43,14.71L45.91,190.72Z"/>
    <path class="cls-1" d="M222.56,272.9l1.77,1.03c.17,.2,.36,.39,.59,.54,1.27,.58,2.76,.42,3.88-.42,3.13-2.1,5.07-5.56,5.24-9.32,.17-1.32-.39-2.63-1.47-3.4-.4-.26-.88-.39-1.36-.37-.89,.03-1.75,.28-2.51,.73-3.12,2.13-5.06,5.6-5.24,9.38-.02,.61,.08,1.21,.28,1.78-.27-.65-.41-1.34-.39-2.05,.18-3.77,2.12-7.24,5.24-9.38,.76-.45,1.63-.71,2.51-.73,.48-.02,.96,.11,1.36,.37l-2.3-1.36c-1.28-.57-2.77-.43-3.93,.37-3.12,2.13-5.06,5.6-5.24,9.38-.16,1.35,.45,2.69,1.57,3.46Z"/>
    <path class="cls-1" d="M405.09,164.31l2.25,1.31c-.33-.28-.63-.59-.89-.94-.41-.76-.6-1.6-.58-2.46,.02,.94,.31,1.84,.84,2.62,.26,.35,.56,.67,.89,.94,1.29,.58,2.79,.42,3.93-.42,3.13-2.13,5.07-5.6,5.24-9.38,.11-1.38-.58-2.71-1.78-3.4-.39-.24-.83-.36-1.29-.36,.05,0,.09,0,.14,0,.48-.02,.95,.11,1.36,.37l-2.57-1.47c-1.26-.61-2.75-.46-3.88,.37-3.13,2.13-5.07,5.6-5.24,9.38-.11,1.35,.48,2.66,1.57,3.46Z"/>
    <path class="cls-1" d="M227.28,132.48l1.31,.73,14.93,8.64c1.62,.94,2.41,1.62,2.36,2.09-.05,.47-.52,1.05-1.52,1.73l.63,.37,9.32-5.24-.31-.52c-.86,.47-1.8,.77-2.78,.89-1.32,0-2.61-.39-3.72-1.1l-15.35-8.75,4.03-2.3,1.52-.79c.68-.43,1.45-.68,2.25-.73,.86,.13,1.68,.43,2.41,.89l12.15,6.97c1.62,.94,2.46,1.62,2.57,2.04,.1,.42-.42,1.05-1.62,1.89l.68,.37,9.32-5.24-.68-.63c-.99,.47-2.05,.76-3.14,.84-1.33-.2-2.6-.68-3.72-1.41l-12.2-6.86-1-.58-.94-.58-.89-.52-1.26-.79h-.73l-.73,.63-.79,.68-1.41,.94-1.62,1-5.76,3.3c-2.2-1.26-3.67-2.15-4.4-2.67-.69-.44-1.31-.99-1.83-1.62-.52-.84-.73-1.47-.52-1.99,.34-.73,.94-1.3,1.68-1.62,1.42-.59,3-.74,4.5-.42,1.32,.37,2.71,.37,4.03,0,.49-.24,.7-.56,.63-.94-.11-.4-.4-.73-.79-.89-1.23-.55-2.61-.7-3.93-.42-1.56,.19-3.07,.67-4.45,1.41-2.99,1.73-4.24,3.51-3.77,5.5,.47,1.99,2.3,3.82,5.55,5.71Z"/>
    <path class="cls-1" d="M221.83,137.77c1.07,.63,2.39,.63,3.46,0,1.05-.58,1-1.36,0-2.04-1.12-.58-2.44-.58-3.56,0-1.05,.52-1.1,1.36,.1,2.04Z"/>
    <path class="cls-1" d="M240.32,144.58l-9.79-5.6v.31c-.79-.57-1.83-.67-2.72-.26-1.26,.73-.31,1.41,0,1.62l9.74,5.6c.89,.53,1.99,.53,2.88,0,.73-.42,.63-.94,.47-1.15-.14-.23-.34-.41-.58-.52Z"/>
    <path class="cls-1" d="M240.71,261.76c1.29-.65,2.32-2.43,2.29-3.98-.03-1.55-1.1-2.29-2.39-1.64-1.29,.65-2.32,2.43-2.29,3.98s1.1,2.29,2.39,1.64Z"/>
  </g>
  <path class="cls-1" d="M397.45,169.81c1.29-.65,2.32-2.43,2.29-3.98-.03-1.55-1.1-2.29-2.39-1.64-1.29,.65-2.32,2.43-2.29,3.98s1.1,2.29,2.39,1.64Z"/>
</svg>