<?xml version="1.0" encoding="UTF-8"?><svg id="Artwork" xmlns="http://www.w3.org/2000/svg" viewBox="0 0 480 320"><defs><style>.cls-1{fill:#000;}</style></defs><path class="cls-1" d="M432.45,132.73c-.08-5.1-2.73-9.74-7.09-12.39L282.35,33.08c-4.06-3-9.28-3.73-14.02-1.95L54.19,111.59c-4.45,1.67-7.45,5.99-7.45,10.76l.04,46.76c0,5.54,2.67,10.8,7.14,14.1l141.53,103.44,.09,.06c2.99,2.06,6.45,3.11,9.93,3.11,2.37,0,4.76-.49,7.03-1.48l213.46-92.72c4.52-1.94,7.39-6.37,7.31-11.29l-.81-51.61Zm-7.57,27.21l-70.61,29.47c-3.19-8.1-8.03-13.26-12.1-16.4l82.33-36.77,.37,23.69Zm-114.59,61.88c-.82-.51-1.56-1.19-2.18-2.05-2.19-3.02-2.79-7.74-1.61-12.63,1.52-6.3,5.73-11.63,10.3-13.76-3.64,3.32-6.58,8.14-7.91,13.64-1.38,5.73-.73,11.01,1.39,14.81Zm-23.43,1.4c-.87-4.76-.88-9.11-.47-12.89,3.83-1.05,10.02-2.57,14.95-2.95-.96,5.14-.34,10.01,1.75,13.79-4.85,3.1-9.95,7.46-13.22,10.42-1.31-2.2-2.39-4.95-3.01-8.37Zm-77.11,21.99l68.37-30.86c-.04,3.2,.2,6.65,.87,10.32,.83,4.55,2.33,8.29,4.22,11.36l-73.63,31.73v-22.92l.17,.38Zm-.17-8.7v-4.57c.85-.19,1.68-.46,2.49-.83l68.05-30.39c-.39,1.35-.75,2.83-1.06,4.42l-69.48,31.36Zm92.85-33.2c-4.85,.18-11,1.56-15.36,2.7,1.05-5.01,2.69-8.53,3.4-9.9l43.02-19.21c2.8,1.42,9.2,5.54,13.06,14.79-3.27,.25-7.48,.38-11.37,.35-1.78-1.88-4.09-3.08-6.82-3.3-.59-.05-1.18-.03-1.77,0-1.41-.73-2.96-1.2-4.6-1.33-8.01-.62-16.19,6.19-19.55,15.9Zm-31.29-164.7c2.21-.83,4.66-.47,6.54,.96l.34,.23,143.18,87.35c.54,.33,1.01,.72,1.42,1.16l-88.83,39.67L180.46,72.69l90.68-34.07Zm-100.12,37.62l153.96,95.7-37.44,16.72L134.13,90.09l36.88-13.86Zm30.56,204.72c-.5-.23-.99-.48-1.46-.8L58.65,176.76c-2.42-1.79-3.87-4.65-3.87-7.66l-.04-43.78,144.51,104.59c.73,.52,1.52,.94,2.33,1.29v49.76Zm2.32-57.56L58.81,118.4l65.98-24.79,154,98.96-70.02,31.27c-1.6,.73-3.48,.55-4.87-.43Zm5.68,57.5v-4.43l79.06-34.07c1.17,1,2.38,1.86,3.6,2.59l-82.66,35.91Zm132.18-57.42l-39.06,16.97c-2.02-.32-6.61-1.5-10.42-5.63,3.21-2.92,8.45-7.44,13.24-10.45,2.05,2.01,4.65,3.23,7.52,3.46,.35,.03,.69,.04,1.04,.04,1.14,0,2.29-.16,3.42-.44,.48,.1,.97,.18,1.47,.22,8.15,.65,16.86-7.54,19.46-18.28,.81-3.34,.92-6.53,.46-9.36,1.61-.02,3.44-.07,5.3-.16,1.64-.08,3.19-.18,4.63-.32,1.48,10.45-5.14,21.13-7.06,23.95Zm81.02-35.19l-69.19,30.05c2.43-5.8,4.37-13.33,2.97-21.01,.17-.13,.33-.26,.48-.4l67.97-28.37,.25,15.91c.03,1.66-.94,3.16-2.49,3.82Z"/></svg>