<svg xmlns="http://www.w3.org/2000/svg" viewBox="0 0 480 320"><defs><style>.cls-1{fill:#000;}</style></defs><g id="Layer_1" data-name="Layer 1"><path class="cls-1" d="M449.8,158c-.72-.69-1.62-1.63-2.66-2.75a21.56,21.56,0,0,0-3.15-3.52c-9.72-11.09-25.75-31.35-31.7-41.21C403.64,96.19,403,72,406.76,63.22c2.69-6.19,1.19-13.3-4-19.16-1.37-3.11-4.89-6-10.78-7.73a36.35,36.35,0,0,0-27.27-1.14c-10.84,3.86-93.35,4.93-126.55,2.45-34.61-2.59-88.8-7.56-100.93-10.52-2-.48-3.9-.88-5.8-1.21a47.87,47.87,0,0,0-10.9-1.14c-.64,0-1.25,0-1.87.05-8.18.09-15.21,1.85-20.31,5.27-4.19,2.79-6.83,6.57-7.46,10.62a82,82,0,0,0-.49,12.82,103.38,103.38,0,0,1-1.06,19.32c-2.92,16.92-31.66,45.48-47.09,60.82-8,8-11.92,11.89-13.39,14.35-4.68,7.89-5.49,16.29-2.22,23.07,3,6.13,9.05,10.25,16.7,11.3,1.62.22,5-.1,14.72-1.14L72.26,233,69,237c-6.19,7.4-6.51,7.87-6.87,8.65-3.46,7.34-3.57,15-.31,21,3.13,5.76,8.92,9.48,16.29,10.49,1.78.24,6.61-.1,21.6-1.23,41.72-3.13,139.42-10.47,197.92-.9,17.27,2.83,30.45,6.52,43.19,10.09,14.89,4.18,29,8.12,47.13,9.84,1.95.19,3.78.27,5.51.27,14.19,0,21-5.88,24.2-11.15,5.84-9.55,3.17-22.15-.58-28a94.7,94.7,0,0,0-8.58-11.55l14.29-46.64c1.36.09,2.68.16,3.93.16,17.13,0,23.87-8.74,26.41-14.3C457.52,174,454.83,162.82,449.8,158Zm-8.3,6.65c0,7.4-12,12.56-22.7,12.56s-22.69-5.16-22.69-12.56,12-12.56,22.69-12.56c7,0,14.51,2.19,18.9,5.77.95,1.08,1.85,2.07,2.68,3A7.28,7.28,0,0,1,441.5,164.65ZM379.35,43.49a37.41,37.41,0,0,1,9.9,1.22,24.29,24.29,0,0,1,4.58,2.89c-2,1.32-6.9,3.12-14.48,3.12-8.59,0-13.76-2.31-15.12-3.62C365.59,45.8,370.76,43.49,379.35,43.49ZM118.92,33.56a62.28,62.28,0,0,1,10.06.82c3.59.79,5.86,2,6.69,2.76-1.35,1.3-6.53,3.61-15.12,3.61s-13.76-2.31-15.12-3.61C106.7,35.92,111.31,33.83,118.92,33.56Zm274.23,231a6.67,6.67,0,0,1-4.47-.66,11,11,0,0,1-4.64-4.48l20.46-63.78c3.27.48,6.4.91,9.37,1.28Zm-3.3-51.92-2-4.34,3.82-14.65,4.07.65Zm-21.49,35.66-253.81-9.75L97.46,177.28c45.37-4,113.07-7.86,182.51-1.13,25.41,2.47,55.48,7.74,82,12.4,7.18,1.26,14.24,2.5,21,3.64ZM88.6,178.1l8.21,29.43-2.9,3.16-9.18-32.22Zm7.84,73.41a6.75,6.75,0,0,1-2.77,1.8,9,9,0,0,1-6.76.05l-20-73.06,9-.94ZM64.72,138.18c11.63,0,21.45,5.75,21.45,12.55s-9.82,12.56-21.45,12.56-21.46-5.75-21.46-12.56S53.09,138.18,64.72,138.18ZM44.47,173.7c-4.72-.66-8.25-2.94-9.93-6.42s-1.43-7.78.56-12.24c2.6,9.3,13.52,16.23,27.27,16.94l-2.31.25C52.45,173.05,45.86,173.76,44.47,173.7Zm365.18,87c2.56,4,4.16,12.78.5,18.77-4.19,6.85-14,7.44-21.41,6.73-17.39-1.65-31.09-5.48-45.6-9.55-13-3.63-26.38-7.39-44.14-10.3-59.52-9.74-157.95-2.35-200,.81-9.87.74-18.39,1.39-19.76,1.29-4.54-.62-8-2.75-9.78-6-1.91-3.53-1.77-8.08.39-12.83.7-.93,3.23-4,5.21-6.34l4.33,15.82,1.36.91a18.68,18.68,0,0,0,9.6,2.71,17,17,0,0,0,6.75-1.39c8-3.42,8.73-8.91,7.91-11.68l-8.3-29.11,2.85-3.11L107.83,247l267.23,10.27,9.3-35.69,1.54,3.32-11.15,34.75.44,1.35a19.62,19.62,0,0,0,9.58,10.69,15.76,15.76,0,0,0,7.06,1.7,13.89,13.89,0,0,0,7.27-1.94l1.35-.86,4.92-16.07C406.66,256.26,408.12,258.32,409.65,260.73ZM422.17,189c-14.92-1.42-36.18-5.15-58.69-9.1-26.68-4.68-56.92-10-82.67-12.48-27.79-2.7-55.28-3.72-81.2-3.72-50.25,0-94.54,3.85-123.52,6.82,11.15-3.11,18.84-10.71,18.84-19.81,0-11.95-13.27-21.31-30.21-21.31a44.22,44.22,0,0,0-6.28.44C75.54,112.48,95.17,90.68,98,74.34a111.38,111.38,0,0,0,1.19-20.91,90.92,90.92,0,0,1,.22-10.07c3.58,3.49,10.49,6.15,21.15,6.15,16.41,0,24-6.29,24.09-12.2,21.37,3.12,65.6,7,92.89,9.06,26.94,2,89.91,1.84,117.93-.92a7.24,7.24,0,0,0-.21,1.65c0,6,7.54,12.37,24.1,12.37,9.31,0,15.78-2,19.65-4.86a7.39,7.39,0,0,1-.27,5.13c-5.18,11.92-3.62,39.25,6.06,55.31,4,6.64,12.76,18.31,21.22,28.83a48.13,48.13,0,0,0-7.21-.54c-17.63,0-31.45,9.36-31.45,21.31S401.17,186,418.8,186c12.1,0,22.39-4.4,27.67-11a16.05,16.05,0,0,1-1.34,5.11C441.93,187,434,190.14,422.17,189Z"/><path class="cls-1" d="M189,191.28c0-8.58-8.87-15.54-19.81-15.54s-19.8,7-19.8,15.54,8.87,15.54,19.8,15.54S189,199.87,189,191.28Z"/><path class="cls-1" d="M220.76,177.62c-10.94,0-19.81,7-19.81,15.54s8.87,15.54,19.81,15.54,19.81-7,19.81-15.54S231.7,177.62,220.76,177.62Z"/><ellipse class="cls-1" cx="273.03" cy="198.32" rx="12.65" ry="9.92"/><ellipse class="cls-1" cx="271.16" cy="231.16" rx="12.65" ry="8.38"/><polygon class="cls-1" points="182.19 231.16 231.29 233.03 231.29 222.46 182.19 220.59 182.19 231.16"/><polygon class="cls-1" points="137.85 227.78 152.16 228.72 152.16 221.52 137.85 220.59 137.85 227.78"/></g></svg>