<svg xmlns="http://www.w3.org/2000/svg" viewBox="0 0 480 320"><defs><style>.cls-1{fill:#000;}</style></defs><g id="Layer_1" data-name="Layer 1"><path class="cls-1" d="M449.35,158c-.72-.69-1.63-1.63-2.66-2.75a22,22,0,0,0-3.16-3.51c-9.71-11.1-25.75-31.36-31.7-41.22-8.64-14.33-9.31-38.57-5.52-47.3,2.68-6.19,1.18-13.3-4-19.16-1.37-3.11-4.89-6-10.77-7.73a36.35,36.35,0,0,0-27.27-1.14c-10.84,3.86-93.35,4.93-126.55,2.45-34.61-2.59-88.81-7.56-100.94-10.52-2-.48-3.9-.88-5.8-1.21a47.78,47.78,0,0,0-10.89-1.14c-.65,0-1.26,0-1.88.05-8.18.09-15.2,1.85-20.31,5.27-4.18,2.79-6.83,6.57-7.45,10.62A82,82,0,0,0,90,53.53a104.18,104.18,0,0,1-1,19.32C86,89.78,57.25,118.33,41.81,133.67c-8,8-11.92,11.89-13.38,14.35-4.69,7.89-5.5,16.3-2.23,23.07,3,6.14,9.05,10.25,16.7,11.3,1.62.22,5-.09,14.72-1.14L71.8,233l-3.3,4c-6.18,7.4-6.5,7.87-6.87,8.65-3.46,7.34-3.57,15-.3,21,3.13,5.76,8.91,9.49,16.29,10.49,1.77.25,6.6-.1,21.6-1.23,41.72-3.13,139.42-10.47,197.91-.89,17.28,2.82,30.45,6.51,43.19,10.08,14.9,4.18,29,8.12,47.13,9.84,1.95.19,3.79.28,5.51.28,14.2,0,21-5.89,24.2-11.16,5.84-9.54,3.18-22.14-.58-28A94.7,94.7,0,0,0,408,244.48l14.29-46.64c1.36.09,2.69.16,3.93.16,17.14,0,23.87-8.74,26.41-14.3C457.07,174,454.38,162.82,449.35,158ZM441,164.65c0,7.4-12,12.56-22.69,12.56s-22.7-5.16-22.7-12.56,12-12.56,22.7-12.56c7,0,14.5,2.19,18.89,5.77.95,1.08,1.85,2.07,2.69,3A7.36,7.36,0,0,1,441,164.65ZM378.9,43.49a37.27,37.27,0,0,1,9.89,1.22,24.7,24.7,0,0,1,4.59,2.89c-2,1.32-6.91,3.12-14.48,3.12-8.59,0-13.77-2.31-15.13-3.62C365.13,45.8,370.31,43.49,378.9,43.49ZM118.47,33.56a62.25,62.25,0,0,1,10.05.82c3.6.79,5.87,2,6.7,2.76-1.36,1.31-6.54,3.61-15.12,3.61s-13.77-2.3-15.13-3.61C106.24,35.92,110.85,33.83,118.47,33.56Zm274.23,231a6.7,6.7,0,0,1-4.47-.65,11.06,11.06,0,0,1-4.65-4.49L404,195.64c3.28.47,6.41.9,9.38,1.27Zm-3.31-51.92-2-4.34,3.82-14.65,4.08.66Zm-21.48,35.66L114.1,238.54,97,177.28c45.37-4,113.06-7.86,182.5-1.13,25.42,2.47,55.48,7.75,82,12.4,7.18,1.26,14.23,2.5,21,3.65ZM88.15,178.1l8.21,29.43-2.9,3.16-9.19-32.22ZM96,251.52a7,7,0,0,1-2.77,1.79,9,9,0,0,1-6.77.05l-20-73.06,9-.94ZM64.26,138.18c11.63,0,21.46,5.75,21.46,12.56s-9.83,12.55-21.46,12.55-21.45-5.75-21.45-12.55S52.63,138.18,64.26,138.18ZM44,173.7c-4.72-.66-8.24-2.94-9.92-6.42s-1.43-7.78.55-12.24c2.6,9.3,13.52,16.23,27.27,16.94l-2.31.25C52,173.06,45.41,173.76,44,173.7Zm365.19,87c2.56,4,4.16,12.78.49,18.77-4.19,6.85-13.95,7.44-21.41,6.74-17.39-1.66-31.09-5.49-45.59-9.56-13-3.63-26.39-7.39-44.14-10.3-59.53-9.74-158-2.35-200,.81-9.86.74-18.38,1.39-19.76,1.29-4.54-.62-8-2.75-9.77-6-1.92-3.53-1.78-8.07.39-12.83.69-.93,3.22-4,5.2-6.34L79,259.13l1.37.91a18.58,18.58,0,0,0,9.59,2.72,17.1,17.1,0,0,0,6.76-1.4c8-3.42,8.73-8.9,7.9-11.67l-8.3-29.12,2.85-3.11L107.38,247l267.23,10.27,9.3-35.69,1.53,3.32-11.15,34.75.45,1.35a19.5,19.5,0,0,0,9.57,10.69,15.76,15.76,0,0,0,7.06,1.7,13.87,13.87,0,0,0,7.27-1.94l1.35-.86,4.92-16.07C406.2,256.26,407.66,258.32,409.2,260.73ZM421.71,189c-14.92-1.42-36.18-5.15-58.68-9.1-26.68-4.68-56.92-10-82.67-12.48-27.8-2.7-55.29-3.72-81.21-3.72-50.24,0-94.54,3.85-123.52,6.82,11.15-3.11,18.84-10.71,18.84-19.8,0-12-13.27-21.32-30.21-21.32a44.22,44.22,0,0,0-6.28.44c17.1-17.38,36.73-39.18,39.56-55.52a111.31,111.31,0,0,0,1.18-20.91A90.7,90.7,0,0,1,99,43.36c3.58,3.49,10.48,6.15,21.15,6.15,16.4,0,24-6.29,24.09-12.2,21.37,3.12,65.59,7,92.88,9.06C264,48.39,327,48.21,355,45.45a7.26,7.26,0,0,0-.22,1.65c0,6,7.54,12.37,24.11,12.37,9.31,0,15.77-2,19.64-4.86a7.34,7.34,0,0,1-.27,5.13c-5.17,11.92-3.62,39.25,6.07,55.31,4,6.64,12.76,18.31,21.22,28.83a48.13,48.13,0,0,0-7.21-.54c-17.64,0-31.46,9.36-31.46,21.31S400.71,186,418.35,186c12.09,0,22.38-4.4,27.66-11a15.79,15.79,0,0,1-1.34,5.11C441.47,187,433.53,190.14,421.71,189Z"/><path class="cls-1" d="M188.51,191.28c0-8.58-8.87-15.54-19.81-15.54s-19.81,7-19.81,15.54,8.87,15.55,19.81,15.55S188.51,199.87,188.51,191.28Z"/><path class="cls-1" d="M220.3,177.62c-10.94,0-19.8,7-19.8,15.54s8.86,15.54,19.8,15.54,19.81-7,19.81-15.54S231.24,177.62,220.3,177.62Z"/><ellipse class="cls-1" cx="272.58" cy="198.32" rx="12.65" ry="9.92"/><ellipse class="cls-1" cx="270.7" cy="231.16" rx="12.65" ry="8.38"/><polygon class="cls-1" points="181.73 231.16 230.83 233.04 230.83 222.46 181.73 220.59 181.73 231.16"/><polygon class="cls-1" points="137.4 227.78 151.71 228.72 151.71 221.52 137.4 220.59 137.4 227.78"/></g></svg>