<?xml version="1.0" encoding="utf-8"?>
<!-- Generator: Adobe Illustrator 25.4.1, SVG Export Plug-In . SVG Version: 6.00 Build 0)  -->
<svg version="1.1" id="Artwork" xmlns="http://www.w3.org/2000/svg" xmlns:xlink="http://www.w3.org/1999/xlink" x="0px" y="0px"
	 viewBox="0 0 480 320" style="enable-background:new 0 0 480 320;" xml:space="preserve">
<style type="text/css">
	.st0{fill:#000FFF;}
</style>
<path class="st0" d="M407.2,108.6c-1.3-0.9-3-1-4.4-0.2c-0.1,0-9,5.2-28.4,11.7c-18,6.1-48.9,14.6-94.1,20.9l-8.3,1.2
	c-35.7,5.1-38.6,5.5-158,10.1c-2.2,0.1-3.9,1.8-3.8,4l0.1,89c0,2.2,1.8,4,4,4h0.3c5-0.4,122.5-9.8,169.4-22.6
	c81.9-22.2,110-49,111.1-50.1c0.6-0.6,1-1.3,1.1-2.1l12.6-61.9C409.2,111.2,408.5,109.6,407.2,108.6z M388.6,171.7
	c-10.5,9.5-45,30.6-106.8,47.3c-41.2,11.2-141.7,20.1-163.7,22l-0.1-80.8c116.1-4.5,119.3-4.9,155-10l8.3-1.2
	c46.1-6.5,77.7-15.2,96-21.4c9.9-3.3,17.1-6.3,21.9-8.5L388.6,171.7z"/>
<path class="st0" d="M435.5,85.8c0-0.1,0-0.3,0-0.4s0-0.2,0-0.3s0-0.3-0.1-0.4s0-0.2-0.1-0.3s-0.1-0.3-0.2-0.4s0-0.1-0.1-0.2v-0.1
	c-0.1-0.2-0.2-0.3-0.3-0.4c0-0.1-0.1-0.1-0.1-0.2c-0.1-0.2-0.3-0.3-0.4-0.4c0,0-0.1-0.1-0.1-0.1c-0.2-0.2-0.4-0.3-0.6-0.4l-0.3-0.1
	c-0.1-0.1-0.2-0.1-0.4-0.2l0,0l0,0L340,49.8c-0.5-0.2-1.1-0.2-1.7-0.2L48.4,78c-0.1,0-0.2,0-0.3,0.1l-0.3,0.1
	c-0.2,0-0.3,0.1-0.5,0.2L47,78.4l0,0c-0.2,0.1-0.5,0.2-0.7,0.4l0,0c-0.2,0.1-0.3,0.3-0.5,0.5c-0.1,0.1-0.1,0.2-0.2,0.2
	c-0.1,0.1-0.2,0.2-0.3,0.4c-0.1,0.1-0.1,0.2-0.1,0.3c-0.1,0.1-0.1,0.3-0.2,0.4L45,80.8c0,0.1-0.1,0.3-0.1,0.4s0,0.2,0,0.4
	s0,0.2,0,0.3l-0.3,57.2c0,0.3,0,0.7,0.1,1L77,267.4c0.5,1.8,2.1,3,3.9,3h0.3c65.7-4.7,131-13.2,195.7-25.4
	c90.7-18.7,135.5-63.5,137.3-65.4c0.5-0.5,0.9-1.2,1-1.9l20.3-91.2c0-0.1,0-0.1,0-0.2S435.5,86,435.5,85.8z M421,86.1
	c-20.7,9.4-74.7,32-130,39c-75.6,9.5-192.3,11.9-211,12.2L55,85.4l283.2-27.7L421,86.1z M52.7,99.3l20.8,43.1l2.6,88.9l-23.6-92.6
	L52.7,99.3z M407.7,174.7c-6.3,6-50.5,45.5-132.4,62.4c-62.9,11.9-126.5,20.3-190.3,25l-3.4-116.7c22.8-0.4,136.2-2.9,210.4-12.3
	c57.8-7.3,114.1-31.3,134-40.4L407.7,174.7z"/>
<path class="st0" d="M271.2,110.7l6.1,7.7c0.4,0.5,1,0.7,1.6,0.8l0,0c7.3-0.1,14.6-1,21.7-2.6c11.1-2.5,17.3-4.1,17.4-4.1
	c1.1-0.3,1.7-1.4,1.4-2.4c-0.2-0.6-0.6-1.2-1.3-1.4l-16-5.8c-0.3-0.1-0.7-0.1-1-0.1l-28.8,4.8c-0.7,0.1-1.3,0.6-1.5,1.3
	C270.6,109.4,270.7,110.1,271.2,110.7z M301.4,106.7l9.3,3.4c-2.8,0.7-6.5,1.5-10.9,2.5c-6.5,1.5-13.2,2.3-19.9,2.5l-3.4-4.3
	L301.4,106.7z"/>
</svg>
