<svg id="Layer_1" data-name="Layer 1" xmlns="http://www.w3.org/2000/svg" viewBox="0 0 480 320"><defs><style>.cls-1{fill:#000;}</style></defs><path class="cls-1" d="M441.69,57.1a2.67,2.67,0,0,0,0-.4s0-.09,0-.14a2.44,2.44,0,0,0-.06-.26,3.14,3.14,0,0,0-.24-.79c-.05-.11-.09-.22-.15-.33a4.11,4.11,0,0,0-.24-.39c-.05-.06-.08-.14-.13-.2l-.07-.07a3.51,3.51,0,0,0-.33-.34l-.23-.22a3.93,3.93,0,0,0-.42-.29l-.23-.14a3.93,3.93,0,0,0-.56-.24,1.15,1.15,0,0,0-.17-.06,3.94,3.94,0,0,0-.7-.14H438L262.83,37.52a3.9,3.9,0,0,0-.59,0L42.05,50.75l-.23,0a3.55,3.55,0,0,0-.47.08L41,51a3.2,3.2,0,0,0-.43.17l-.3.16a2,2,0,0,0-.39.26,2.78,2.78,0,0,0-.27.21c-.12.11-.22.22-.32.33l-.16.16-.08.13a1.34,1.34,0,0,0-.11.14,1.41,1.41,0,0,0-.13.24,2.68,2.68,0,0,0-.18.33c-.06.15-.11.29-.16.44s-.07.21-.1.32,0,.33-.07.49,0,.21,0,.31a3.26,3.26,0,0,0,0,.54,1.64,1.64,0,0,0,0,.22l15.79,91.63a3.93,3.93,0,0,0,.46,1.28l74.22,132.13a4,4,0,0,0,3.49,2h.05a3.39,3.39,0,0,0,.55,0,.45.45,0,0,0,.11,0h0a4.09,4.09,0,0,0,.92-.28L193,259.58h0l78.27-29.9a3.86,3.86,0,0,0,.8-.3L422.28,172a4,4,0,0,0,2.52-3.14L441.67,57.66a.66.66,0,0,0,0-.14A3,3,0,0,0,441.69,57.1ZM262.42,45.51l137.7,12.23-291.3,36.5L54.43,58ZM135.65,272.94l-23.3-171.08,65.44-8.2,3,51.82a3.89,3.89,0,0,0,0,.59l3.24,55.41a3,3,0,0,0,0,.42l3,51.38ZM267,174.06l-75.23,22.1L189,148.78l78.58-17.09Zm-74.75,30.29,74.64-21.92L266.35,223,195,250.29Zm75.44-80.88-79.16,17.22-2.8-48,82.52-10.34ZM47.81,63.23l56.31,37.49,21.47,157.65L61.91,145ZM417.24,165.38,274.4,219.94l1.89-138.62L433,61.69Z"/><path class="cls-1" d="M419.23,102.18c-.06-.14-.12-.29-.2-.44A23.05,23.05,0,0,0,401,90.25c-14.77-1.18-29.14,12.13-32,29.65-1.55,9.48.56,18.73,5.76,25.37a23,23,0,0,0,16.34,8.95h1.32c.16.06.32.13.49.18a13.71,13.71,0,0,0,4.29.69c9.41,0,19.35-9.37,24-23.42C425,120.07,424,108.87,419.23,102.18ZM381,140.33c-3.83-4.89-5.35-11.86-4.16-19.15,2.1-12.9,12.32-23.19,22.55-23a24.71,24.71,0,0,0-4.38,3.09c-4.92,4.27-9,10.69-11.4,18.07-2.69,8.18-3,16.16-1.27,22.5A17.61,17.61,0,0,1,381,140.33Zm32.51-11.15c-3.25,9.88-11.27,19.41-17.78,17.74a4,4,0,0,0-1.51-.62c-5.53-3.19-6.12-15-3-24.46h0c2-5.94,5.26-11.24,9.05-14.54,2.53-2.19,5.11-3.36,7.34-3.36a5.7,5.7,0,0,1,1.77.27C416,106.37,416.87,119.11,413.55,129.18Z"/></svg>