<?xml version="1.0" encoding="UTF-8"?>
<svg id="Layer_1" data-name="Layer 1" xmlns="http://www.w3.org/2000/svg" viewBox="0 0 480 320">
  <defs>
    <style>
      .cls-1 {
        fill: #000;
      }
    </style>
  </defs>
  <path class="cls-1" d="m340.07,44.13c-.01-1.99-1.49-3.67-3.46-3.94l-125.84-17.22c-.26-.04-.52-.05-.78-.03l-11.92.7c-.66.04-1.3.24-1.86.58l-50.57,31.05c-1.19.73-1.91,2.02-1.91,3.41l.1,191.44c0,1.15.5,2.25,1.37,3.01l49.76,43.58c.73.64,1.67.99,2.63.99h.03l13.12-.11c.14,0,.27,0,.41-.02l126.94-14.21c2.03-.23,3.57-1.96,3.55-4l-1.59-235.23Zm-137.78-12.72l3.94-.23.47,258.44-5.1.04.69-258.26Zm15.64.62l32.86,43.88c-1.52,1.97-2.35,4.33-2.32,6.82,0,.54.06,1.07.14,1.6l-34.26,17.37-.13-70.18,3.7.51Zm114.58,78.49l-59.41-26.75c.04-.41.07-.83.07-1.25,0-.57-.07-1.13-.16-1.68l59.09-30.48.41,60.16Zm-79.87-19.26c2.26,1.87,5.13,2.9,8.17,2.9.04,0,.08,0,.11,0,3.3-.03,6.29-1.28,8.49-3.28l44.68,20.12-88.59-5.98,27.14-13.76Zm16.29-17.32c-2.17-1.77-5-2.85-8.09-2.85-.04,0-.08,0-.12,0-1.1,0-2.18.16-3.22.43l-28.44-37.98,93.4,12.78-53.54,27.61Zm-54.55,38.35l118.2,7.98.08,12.42c-7.62-.29-19.19-.95-33.27-1.76-25.06-1.44-55.98-3.21-84.98-4.08l-.03-14.56Zm-62.65-51.37l42.55-26.12-.67,250.1-41.79-36.59-.1-187.39Zm62.98,228.19l-.28-154.27c28.82.88,59.58,2.64,84.51,4.07,14.33.82,26.08,1.49,33.79,1.78l.91,135.1-118.93,13.31Z"/>
  <path class="cls-1" d="m301.58,218.88c6.98-8.22,10.77-19.07,10.67-30.55s-4.07-22.26-11.19-30.36c-7.2-8.19-16.73-12.69-26.89-12.69-.1,0-.2,0-.29,0-10.26.09-19.84,4.76-26.96,13.15-6.98,8.22-10.77,19.07-10.67,30.55s4.07,22.26,11.19,30.36c7.2,8.19,16.73,12.69,26.89,12.69.1,0,.2,0,.29,0,10.26-.09,19.84-4.76,26.96-13.15Zm-27.03,5.15c-.07,0-.15,0-.22,0-7.82,0-15.23-3.53-20.88-9.97-5.85-6.66-9.12-15.59-9.2-25.15-.08-9.56,3.03-18.54,8.77-25.3,5.59-6.59,13.03-10.26,20.93-10.32,7.9-.09,15.4,3.47,21.1,9.97,5.85,6.66,9.12,15.59,9.2,25.15.08,9.56-3.03,18.54-8.77,25.3-5.59,6.59-13.03,10.26-20.93,10.32Z"/>
  <path class="cls-1" d="m265.14,170.42c-8.78.08-15.86,7.82-15.78,17.26.08,9.4,7.22,16.99,15.95,16.99.04,0,.09,0,.13,0,8.78-.08,15.86-7.82,15.78-17.26-.04-4.5-1.68-8.74-4.64-11.93-3.05-3.3-7.09-5.09-11.44-5.06Zm.22,26.25s-.04,0-.06,0c-4.35,0-7.91-4.05-7.95-9.06-.04-5.03,3.48-9.15,7.85-9.19.02,0,.04,0,.06,0,2.02,0,3.95.88,5.44,2.49,1.6,1.73,2.49,4.06,2.51,6.57.04,5.03-3.48,9.15-7.85,9.19Z"/>
  <path class="cls-1" d="m242.67,233.33c-.05,0-.11,0-.17,0-11.41.1-20.62,10.27-20.51,22.67.05,5.93,2.2,11.51,6.06,15.71,3.92,4.27,9.12,6.61,14.67,6.61.06,0,.11,0,.17,0,11.41-.1,20.62-10.27,20.51-22.67-.11-12.34-9.39-22.31-20.73-22.31Zm.15,36.98s-.06,0-.1,0c-3.28,0-6.39-1.43-8.78-4.02-2.51-2.73-3.92-6.41-3.95-10.36-.07-7.99,5.57-14.54,12.58-14.6.03,0,.06,0,.1,0,6.96,0,12.66,6.43,12.73,14.38.07,7.99-5.57,14.54-12.58,14.6Z"/>
  <path class="cls-1" d="m321.83,235.17c-3.66-3.97-8.49-6.12-13.72-6.09-10.55.09-19.05,9.45-18.96,20.87.05,5.46,2.03,10.59,5.59,14.45,3.62,3.93,8.44,6.09,13.56,6.09.05,0,.1,0,.16,0,5.19-.04,10.02-2.29,13.61-6.32,3.49-3.92,5.39-9.09,5.34-14.54-.05-5.46-2.03-10.59-5.59-14.45Zm-5.73,23.67c-2.07,2.32-4.81,3.62-7.71,3.64-2.89.06-5.66-1.22-7.77-3.51-2.21-2.4-3.45-5.63-3.47-9.1-.06-7,4.89-12.74,11.03-12.8.03,0,.06,0,.08,0,2.87,0,5.59,1.25,7.68,3.51,2.21,2.4,3.45,5.63,3.47,9.1.03,3.47-1.15,6.72-3.32,9.15Z"/>
  <g>
    <path class="cls-1" d="m251.52,126.25c-1.01,0-1.97-.38-2.74-1.09-.92-.85-1.45-2.1-1.46-3.43-.03-2.59,1.88-4.83,4.26-4.98h0c1.11-.07,2.17.31,3,1.08.92.85,1.45,2.1,1.46,3.43.03,2.59-1.88,4.83-4.26,4.98-.09,0-.17,0-.26,0Zm.17-7.8h0c-1.49.1-2.69,1.56-2.67,3.26,0,.87.35,1.67.92,2.21.48.45,1.12.67,1.73.63,1.49-.1,2.69-1.56,2.67-3.26,0-.87-.34-1.67-.92-2.21-.48-.45-1.11-.66-1.73-.63Z"/>
    <path class="cls-1" d="m253.7,117.41c-2.27.15-4.09,2.31-4.06,4.82.03,2.52,1.89,4.44,4.16,4.3,2.27-.15,4.09-2.31,4.06-4.82s-1.89-4.44-4.16-4.3Z"/>
  </g>
  <g>
    <path class="cls-1" d="m293.92,128.58c-1.01,0-1.98-.38-2.74-1.09-.92-.85-1.45-2.1-1.46-3.43-.03-2.59,1.88-4.83,4.26-4.98h0c1.11-.08,2.17.31,3,1.08.92.85,1.45,2.1,1.46,3.43.03,2.59-1.88,4.83-4.26,4.98-.09,0-.17,0-.26,0Zm.17-7.8c-1.49.1-2.69,1.56-2.67,3.26,0,.87.34,1.67.92,2.21.48.45,1.12.67,1.73.63,1.49-.1,2.69-1.56,2.67-3.26,0-.87-.35-1.67-.92-2.21-.48-.45-1.11-.67-1.73-.63h0Z"/>
    <path class="cls-1" d="m296.1,119.74c-2.27.15-4.09,2.31-4.06,4.82.03,2.52,1.89,4.44,4.16,4.3,2.27-.15,4.09-2.31,4.06-4.82s-1.89-4.44-4.16-4.3Z"/>
  </g>
  <rect class="cls-1" x="237.09" y="111.53" width="4" height="22.17"/>
  <rect class="cls-1" x="307.29" y="113.17" width="4" height="22.17"/>
</svg>