<svg id="Artwork" xmlns="http://www.w3.org/2000/svg" viewBox="0 0 480 320"><defs><style>.cls-1{fill:#000;}</style></defs><path class="cls-1" d="M457.21,100a6.56,6.56,0,0,0,0-1.77,5.79,5.79,0,0,0-4.45-4.71L272.89,52.69a41.32,41.32,0,0,0-12.13-1L27.2,72.58a4.83,4.83,0,0,0-4.37,3.88,4.53,4.53,0,0,0,0,1.87l.68,80a13.29,13.29,0,0,0,4.14,9.5l102.22,97a13.26,13.26,0,0,0,9.13,3.64,13.42,13.42,0,0,0,2.81-.3l307.56-67.81a8.61,8.61,0,0,0,6.83-8.28l1-91.42A3.31,3.31,0,0,0,457.21,100ZM261.38,59.68a33.42,33.42,0,0,1,9.71.8l171.59,39L144.42,147a18.71,18.71,0,0,1-13.56-3L36.69,79.77ZM33.17,162a5.28,5.28,0,0,1-1.64-3.77l-.62-72.7,95.44,65.1a26.94,26.94,0,0,0,5.71,3l-.16,102.05Zm107,98.29-.24,0,.17-105.09c.45,0,.91.06,1.36.06a27.8,27.8,0,0,0,4.26-.34l102.73-16.38-.17,97.88ZM447.7,192.46,253.24,235.33l.17-97.57,195.78-31.22-.66,58.58a13.19,13.19,0,0,0-2.84-3,4.19,4.19,0,0,0-.33-.26,12.25,12.25,0,0,0-2.62-1.41c-.23-.09-.46-.14-.69-.22l-5.68-2.67A4,4,0,0,0,433.8,156a12.69,12.69,0,0,0-9.07.65,18.77,18.77,0,0,0-9.55,10.64c-3.06,8-.93,16.26,4.78,20a4.23,4.23,0,0,0,.89.54,14,14,0,0,0,1.42.65,3.79,3.79,0,0,0,.73.21l6.72,2.63c.32.16.64.32,1,.45a11.93,11.93,0,0,0,4.31.79,13.93,13.93,0,0,0,7.13-2,18.06,18.06,0,0,0,6.17-6.32l-.09,7.65A.62.62,0,0,1,447.7,192.46ZM428,164a7.05,7.05,0,0,1,.66-.25,19.11,19.11,0,0,0-5,7.37h0a19.84,19.84,0,0,0-1.31,6.71,11.43,11.43,0,0,1,.33-7.65A11,11,0,0,1,428,164Zm6.16,20.52-1.23-.48a5.62,5.62,0,0,1-2.24-3.16,10.85,10.85,0,0,1,.41-6.89c1.59-4.12,5.16-6.8,8.1-6.23l1.77.84a5.88,5.88,0,0,1,1.78,2.83A11.39,11.39,0,0,1,438,183.65,5.53,5.53,0,0,1,434.16,184.47Z"/><path class="cls-1" d="M299.81,189.06a4.08,4.08,0,0,0-.39-.31,13.73,13.73,0,0,0-2.9-1.56c-.26-.1-.53-.17-.8-.25l-6.83-3.22a4,4,0,0,0-2.71-1.67,14.14,14.14,0,0,0-10.17.71,21.31,21.31,0,0,0-10.81,12.06c-3.45,9.07-1.08,18.36,5.33,22.55a4,4,0,0,0,1,.62,15.61,15.61,0,0,0,1.55.71,3.76,3.76,0,0,0,.78.21l7.9,3.1a12.31,12.31,0,0,0,1.17.53,13.11,13.11,0,0,0,4.76.88c6.79,0,13.66-5,16.69-12.92a21.17,21.17,0,0,0,.68-13.7A15.31,15.31,0,0,0,299.81,189.06Zm-27.13,8.6a13.47,13.47,0,0,1,6.59-7.6,7.18,7.18,0,0,1,3-.64l.17.08a22.19,22.19,0,0,0-8.64,20.16C271.45,207.08,270.9,202.32,272.68,197.66Zm24.24,10c-2,5.18-6.57,8.49-10.34,7.67l-1.54-.6c-3.31-1.94-4.48-7.44-2.5-12.6a13.36,13.36,0,0,1,5.31-6.63,7.58,7.58,0,0,1,3.86-1.16,5.57,5.57,0,0,1,1.16.13l2.17,1a7.34,7.34,0,0,1,2.38,3.69A13.27,13.27,0,0,1,296.92,207.63Z"/><path class="cls-1" d="M274.08,170a4.19,4.19,0,0,0,1.16.72,14.25,14.25,0,0,0,2.09,1,4,4,0,0,0,1.35.23l.35,0,6.64,2c.29.11.58.22.87.3a10.19,10.19,0,0,0,2.57.34,11.19,11.19,0,0,0,6.72-2.35,15.12,15.12,0,0,0,5.34-8.15c1.89-7-1.15-13.92-6.82-15.91l-8-3.27a4,4,0,0,0-1.84-.84h-.1a13.59,13.59,0,0,0-15.46,11A13.52,13.52,0,0,0,274.08,170Zm19.37-8.07a7.13,7.13,0,0,1-2.44,3.85,3.09,3.09,0,0,1-2.18.71l-.1,0-.47-.14a3.27,3.27,0,0,1-1.34-1.64,7.15,7.15,0,0,1-.16-4.55h0a7.13,7.13,0,0,1,2.44-3.85,3.31,3.31,0,0,1,1.88-.74,1.72,1.72,0,0,1,.44.06l.31.12C293.27,156.32,294.25,159,293.45,161.89Zm-16.84-4.75a3.4,3.4,0,0,0,.15-.63,5.54,5.54,0,0,1,5.54-4.7A15.5,15.5,0,0,0,279,158h0a16,16,0,0,0-.53,5.3A5.56,5.56,0,0,1,276.61,157.14Z"/><path class="cls-1" d="M321.72,166.47l77.65-12.72a8.35,8.35,0,0,0,6.81-7.93V135.05a5.63,5.63,0,0,0-6.81-5.69l-77.65,12.72a8.33,8.33,0,0,0-6.8,7.92v10.78A5.62,5.62,0,0,0,321.72,166.47Z"/><path class="cls-1" d="M211.55,219.48a7.25,7.25,0,0,0-5.91-1.62,9.23,9.23,0,0,0-7.78,8.94A7.08,7.08,0,0,0,205,234a8.28,8.28,0,0,0,1.2-.09A9.25,9.25,0,0,0,214,225,7.14,7.14,0,0,0,211.55,219.48ZM205.64,230a3.3,3.3,0,0,1-2.72-.7,3.22,3.22,0,0,1-1.06-2.49,5.31,5.31,0,0,1,4.36-5,4.22,4.22,0,0,1,.6,0,3.18,3.18,0,0,1,2.12.74A3.23,3.23,0,0,1,210,225,5.3,5.3,0,0,1,205.64,230Z"/><path class="cls-1" d="M236.35,215a7.25,7.25,0,0,0-5.91-1.63,9.25,9.25,0,0,0-7.78,9,7.06,7.06,0,0,0,7.16,7.23,8.08,8.08,0,0,0,1.2-.09,9.23,9.23,0,0,0,7.78-8.94A7.14,7.14,0,0,0,236.35,215Zm-5.91,10.51a3.34,3.34,0,0,1-2.72-.7,3.23,3.23,0,0,1-1.06-2.49,5.3,5.3,0,0,1,4.36-5,4.3,4.3,0,0,1,.61-.05,3.17,3.17,0,0,1,2.11.75,3.22,3.22,0,0,1,1.06,2.49A5.31,5.31,0,0,1,230.44,225.49Z"/><path class="cls-1" d="M177.22,213.86l-3.14.62a6.8,6.8,0,0,0-4.12-1.06,7.5,7.5,0,0,0-6.41,4.68l0,.05a6.82,6.82,0,0,0-.5,2.62l0,14a6.66,6.66,0,0,0,2.11,4.89,6.73,6.73,0,0,0,4.65,1.83l.45,0a7.46,7.46,0,0,0,6.93-7.35l0-10.13,2.22-.43a2,2,0,0,0,1.62-2v-2.83a7.08,7.08,0,0,0-2-4.37A2,2,0,0,0,177.22,213.86Zm-.2,5V220l-2.25.44h0l-2.11.41a7.26,7.26,0,0,0-.15-1.14.09.09,0,0,0,0-.05c0-.27-.09-.52-.15-.76l4.39-.87A1.84,1.84,0,0,1,177,218.82Zm-9.75,1.49,1.1-.4a3.7,3.7,0,0,1,.2.52c.05.28.08.53.1.75s0,.44,0,.66l-1.6.56Zm5.94,13.88a3.45,3.45,0,0,1-3.18,3.34,2.79,2.79,0,0,1-2.11-.73,2.7,2.7,0,0,1-.85-2l0-8.17,4-1.39,2.13-.42Z"/><path class="cls-1" d="M337,182.77l-6.74,1.34-1,.18v0a5.38,5.38,0,0,0-3.93-1.34,5.9,5.9,0,0,0-5.47,5.8v3.58h0l0,7.71a5.22,5.22,0,0,0,1.66,3.85,5.33,5.33,0,0,0,3.66,1.43h.36A5.89,5.89,0,0,0,331,199.5l0-7.59.87-.18h0l6.82-1.33a1.51,1.51,0,0,0,1.21-1.48v-2.27a5.54,5.54,0,0,0-1.55-3.43A1.48,1.48,0,0,0,337,182.77Zm-14.12,7.54.18-1.85,6.77-1.22a2.82,2.82,0,0,1,.31.69,4.7,4.7,0,0,1,.08.58,4.17,4.17,0,0,1,0,.5l-7.34,1.47ZM328,199.5a2.89,2.89,0,0,1-2.66,2.8,2.36,2.36,0,0,1-1.78-.62,2.25,2.25,0,0,1-.71-1.67l0-6.47,5.14-1Zm8.87-11.81-3.71.73a5.69,5.69,0,0,0-.12-1,.2.2,0,0,0,0-.07,6.61,6.61,0,0,0-.15-.7l3.72-.74a1.8,1.8,0,0,1,.27.75Z"/><path class="cls-1" d="M359.6,179l-6.72,1.33h0l-1,.18h0a5.32,5.32,0,0,0-3.92-1.34,5.88,5.88,0,0,0-5.47,5.79v3.58h0l0,7.7a5.29,5.29,0,0,0,5.33,5.29h.35a5.89,5.89,0,0,0,5.47-5.8l0-7.59.87-.17h0l6.82-1.34a1.49,1.49,0,0,0,1.21-1.47v-2.27a5.6,5.6,0,0,0-1.55-3.44A1.5,1.5,0,0,0,359.6,179Zm-14.11,7.53.17-1.84,6.78-1.23a4.6,4.6,0,0,1,.31.69c0,.22.06.42.08.59v.5l-7.34,1.46Zm5.17,9.2a2.89,2.89,0,0,1-2.66,2.8,2.4,2.4,0,0,1-1.77-.62,2.28,2.28,0,0,1-.72-1.68l0-6.47,5.15-1Zm8.87-11.81-3.7.72a6.51,6.51,0,0,0-.13-1,.2.2,0,0,0,0-.07,6.3,6.3,0,0,0-.15-.71l3.72-.73a1.8,1.8,0,0,1,.27.75Z"/><path class="cls-1" d="M382.13,174.8l-6.72,1.33h0l-1,.18h0a5.33,5.33,0,0,0-3.93-1.34,5.88,5.88,0,0,0-5.46,5.79v3.58h0l0,7.71a5.29,5.29,0,0,0,5.32,5.29h.36a5.89,5.89,0,0,0,5.47-5.8l0-7.59.87-.17h0l6.82-1.34a1.49,1.49,0,0,0,1.21-1.47v-2.27a5.66,5.66,0,0,0-1.54-3.44A1.53,1.53,0,0,0,382.13,174.8ZM368,182.33l.17-1.84,6.78-1.23a4.6,4.6,0,0,1,.31.69c0,.22.06.42.07.59s0,.32,0,.5L368,182.5Zm5.17,9.2a2.9,2.9,0,0,1-2.66,2.8,2.34,2.34,0,0,1-1.77-.62A2.28,2.28,0,0,1,368,192l0-6.47,5.15-1Zm8.87-11.81-3.7.72a6.51,6.51,0,0,0-.13-1,.2.2,0,0,0,0-.07,6.3,6.3,0,0,0-.15-.71l3.72-.73a1.8,1.8,0,0,1,.27.75Z"/><path class="cls-1" d="M404.6,170.57l-6.73,1.33h0l-1,.18a0,0,0,0,0,0,0,5.33,5.33,0,0,0-3.92-1.33,5.89,5.89,0,0,0-5,3.64h0a5.58,5.58,0,0,0-.43,2.15v3.58h0l0,7.71a5.3,5.3,0,0,0,5.33,5.29h.35a5.89,5.89,0,0,0,5.47-5.8l0-7.59.86-.17h0l6.81-1.34a1.49,1.49,0,0,0,1.21-1.47v-2.27A5.55,5.55,0,0,0,406,171,1.52,1.52,0,0,0,404.6,170.57Zm-14.12,7.53.17-1.84,6.78-1.23a3.25,3.25,0,0,1,.31.69c0,.22.06.42.08.59v.49l-7.34,1.47Zm5.17,9.2a2.88,2.88,0,0,1-2.65,2.79,2.3,2.3,0,0,1-2.5-2.29l0-6.47,5.15-1Zm8.87-11.82-3.7.73a6.51,6.51,0,0,0-.12-1,.2.2,0,0,1,0-.07c-.05-.26-.1-.49-.16-.71l3.72-.73a1.71,1.71,0,0,1,.27.75Z"/></svg>