<svg id="Layer_1" data-name="Layer 1" xmlns="http://www.w3.org/2000/svg" viewBox="0 0 480 320"><defs><style>.cls-1{fill:#000;}</style></defs><path class="cls-1" d="M441.7,57.1c0-.13,0-.26,0-.39v-.14c0-.09-.05-.18-.06-.26a3.75,3.75,0,0,0-.09-.39c0-.14-.1-.28-.15-.41a3.13,3.13,0,0,0-.15-.32,2.59,2.59,0,0,0-.25-.39,2.39,2.39,0,0,0-.13-.21l-.06-.07c-.1-.12-.22-.23-.33-.34l-.23-.22c-.14-.11-.28-.19-.43-.29l-.23-.14a3.93,3.93,0,0,0-.56-.24l-.16-.06a3.32,3.32,0,0,0-.7-.13l-.09,0H438L262.83,37.52a3.85,3.85,0,0,0-.59,0L42.05,50.75l-.22,0a4,4,0,0,0-.48.08L41,51a3.34,3.34,0,0,0-.44.17l-.3.16a4.4,4.4,0,0,0-.39.26l-.27.22a3.34,3.34,0,0,0-.32.33,1.06,1.06,0,0,0-.15.15,1.1,1.1,0,0,0-.09.14,1.5,1.5,0,0,0-.11.13c-.05.08-.08.16-.13.25a2.55,2.55,0,0,0-.17.33,2.5,2.5,0,0,0-.16.43,2.07,2.07,0,0,0-.1.33,2.63,2.63,0,0,0-.07.49,3,3,0,0,0,0,.31,4.73,4.73,0,0,0,0,.53,1.77,1.77,0,0,0,0,.23l15.8,91.62a3.83,3.83,0,0,0,.45,1.28l74.23,132.13a4,4,0,0,0,3.49,2h.05a3.27,3.27,0,0,0,.54,0l.12,0h0a3.51,3.51,0,0,0,.92-.28l59.09-22.57h0l78.27-29.89a4.28,4.28,0,0,0,.8-.31L422.28,172a4,4,0,0,0,2.53-3.13L441.67,57.66s0-.09,0-.13A3,3,0,0,0,441.7,57.1ZM262.42,45.52,400.13,57.74l-291.3,36.5L54.43,58ZM135.66,272.94l-23.3-171.08,65.44-8.2,3,51.82a3.81,3.81,0,0,0,0,.59l3.23,55.42c0,.14,0,.27,0,.41l3,51.39ZM267,174.07,191.8,196.16,189,148.78l78.57-17.09Zm-74.76,30.29,74.64-21.92L266.36,223,195,250.29Zm75.44-80.88-79.15,17.21-2.81-48,82.53-10.34ZM47.81,63.23l56.32,37.49L125.6,258.38,61.91,145ZM417.25,165.38,274.4,220l1.89-138.63L433,61.69Z"/><path class="cls-1" d="M419.23,102.18a4,4,0,0,0-.19-.43A23.08,23.08,0,0,0,401,90.25c-14.78-1.18-29.14,12.13-32,29.65-1.54,9.48.56,18.73,5.77,25.37a23,23,0,0,0,16.33,8.95h1.33c.16.06.32.13.48.18a13.47,13.47,0,0,0,4.29.69c9.41,0,19.35-9.37,24-23.41C425,120.07,424,108.87,419.23,102.18ZM381,140.33c-3.83-4.88-5.34-11.86-4.16-19.14,2.1-12.91,12.32-23.2,22.55-23a25.18,25.18,0,0,0-4.37,3.09c-4.92,4.28-9,10.7-11.4,18.07-2.69,8.18-3,16.16-1.27,22.5A17.89,17.89,0,0,1,381,140.33Zm32.51-11.15c-3.25,9.89-11.26,19.42-17.77,17.74a4,4,0,0,0-1.52-.61c-5.52-3.19-6.12-15-3-24.46h0c2-5.95,5.25-11.25,9-14.54,2.53-2.2,5.11-3.37,7.35-3.37a5.75,5.75,0,0,1,1.77.27C416,106.38,416.87,119.11,413.55,129.18Z"/></svg>