<svg id="Artwork" xmlns="http://www.w3.org/2000/svg" viewBox="0 0 480 320"><defs><style>.cls-1{fill:#000;}</style></defs><path class="cls-1" d="M443.91,116.43,325.7,69.31A35.19,35.19,0,0,0,313.18,67H45.74A17.71,17.71,0,0,0,28.05,84.71V184.83a22.88,22.88,0,0,0,9.17,18.26l59.93,44.27.14.11a28.25,28.25,0,0,0,15.38,4.79L438,253h0A14,14,0,0,0,452,239V127.65A11.87,11.87,0,0,0,443.91,116.43ZM441.2,124l.63.25a3.85,3.85,0,0,1,2.12,3.44v91.86H357.4V123.8h82.7A3.66,3.66,0,0,1,441.2,124Zm-91.8.55V244.24H263.65V124.51Zm-93.75,95H109.49V123.8H255.65ZM313.18,75a27.21,27.21,0,0,1,9.63,1.75l97.91,39H106.6C81.88,100.93,53.75,84,40.85,76.36A9.69,9.69,0,0,1,45.74,75ZM42,196.66a14.81,14.81,0,0,1-5.94-11.83V84.71a9.64,9.64,0,0,1,.17-1.8c12.76,7.6,43,25.73,65.27,39.15V240.63ZM109.49,244V227.51H255.65v17.06l-142.91-.31A20.68,20.68,0,0,1,109.49,244Zm332.71-.74A5.89,5.89,0,0,1,438,245h0l-80.58-.18V227.51H444V239A5.89,5.89,0,0,1,442.2,243.21Z"/><path class="cls-1" d="M346.05,127.89H267v113h79.05Zm-8,105H275v-97h63.05Z"/><circle class="cls-1" cx="209.16" cy="167.6" r="26.91"/><circle class="cls-1" cx="389.31" cy="170.38" r="19.55" transform="translate(-28.73 94) rotate(-13.28)"/><circle class="cls-1" cx="418.28" cy="145.94" r="5.99"/><circle class="cls-1" cx="426.6" cy="170.38" r="5.99" transform="translate(105.93 499.31) rotate(-67.5)"/><circle class="cls-1" cx="418.28" cy="193.41" r="5.99"/><path class="cls-1" d="M125.17,231.28a5.08,5.08,0,1,0,5.07,5.08A5.09,5.09,0,0,0,125.17,231.28Z"/><path class="cls-1" d="M173.88,201.82a7.58,7.58,0,1,0-7.57-7.58A7.59,7.59,0,0,0,173.88,201.82Zm0-8a.43.43,0,1,1-.42.42A.42.42,0,0,1,173.88,193.82Z"/></svg>