<svg id="Artwork" xmlns="http://www.w3.org/2000/svg" viewBox="0 0 480 320"><defs><style>.cls-1{fill:#000;}</style></defs><g id="Calque_1" data-name="Calque 1"><path class="cls-1" d="M451.2,191.61c-.28-2.43-10.54-92.42-12.81-112.34-.37-3.2-.63-6-.87-8.49-1.28-13.35-1.88-19.45-12.67-26.77-10.38-7-27.76-14.4-52-9.93C351.87,38,85.92,85.34,80.8,86.21,46.67,91.48,37,98.89,31.94,109.92,27.28,120,28.7,128.72,30.21,138c.47,2.93.94,5.95,1.32,9.21.13,1.25.25,2.43.36,3.56,1.22,11.7,1.94,19.48,13.67,26.72l.25.15c12.53,6.76,183.65,107,187.14,109l.32.17h0c.22.1.44.19.67.27a5.26,5.26,0,0,0,1.42.22,5,5,0,0,0,1.53-.26l.25-.09c85.16-34.09,203.8-48,205-48.16a4.72,4.72,0,0,0,4.14-4.13l4.92-41.79A4.29,4.29,0,0,0,451.2,191.61ZM82.29,95.53h.1c2.72-.48,271.07-48.25,292.2-52.16s36.08,2.46,45,8.49c7.14,4.83,7.35,7.13,8.57,19.86.25,2.52.52,5.38.89,8.65,1.88,16.53,9.26,81.19,11.88,104.2-98.23,7.34-186,39-200.53,44.39C221.51,218.5,69.2,134.12,50.81,124c-5.66-3.09-8.79-6.35-9.12-9.43-.39-3.7,3.25-6.89,3.26-6.9h0C49.76,103.2,59.51,99,82.29,95.53Zm149.27,142.2a4.7,4.7,0,0,0-.94,2.78v33.84c-33.15-19.41-167.87-98.28-180.24-105-7.66-4.81-8-8.56-9.14-19.58-.12-1.15-.24-2.36-.37-3.63-.38-3.52-.89-6.68-1.39-9.72a98.18,98.18,0,0,1-1.27-9.81,38.87,38.87,0,0,0,8,5.66C63.94,142,205.39,220.36,233,235.69Zm205.78-7.86c-20.39,2.59-120.23,16.39-197.25,45.8V242l2.89-4c11.48-4.34,98.89-36.35,197.26-44l1.23.69Z"/><circle class="cls-1" cx="337.42" cy="228.94" r="7.26"/><polygon class="cls-1" points="247.81 191.66 244.89 167.03 241.96 169.11 245.03 193.83 247.81 191.66"/><path class="cls-1" d="M274.85,192.17c4.25-1.57,4-6.25,3.92-7a11.76,11.76,0,0,0,1.78.14c4.71,0,6.21-1.6,7.22-3.7.42,1.3,2.27,2.48,5.06,2.51s3.63-1.44,3.49-2.67c-.34.09-.75.12-1.18.2,0,1.08-.25,1.36-1.05,1.63s-2.62.46-3-1.28-2.76-16.27-2.76-16.27l-2.89,2a7.49,7.49,0,0,0,.13,1.14c-1.36-1.19-4-2.16-8.23-.34a9.18,9.18,0,0,0-5.66,9.88,7.9,7.9,0,0,0,5.8,6.5c.46,7.59-6.82,6.6-10,5.11s-15.84-9.72-15.84-9.72,8.54-3.64,10.7-5.07c10-6.8,2.56-10.92,1.12-11.66s-1.19-.26-.68.39c4.93,8-6.71,13.38-14.36,17C265.45,193.11,270.2,193.9,274.85,192.17Zm0-14.57c-.76-4,1.19-8.41,5.66-9.24s5.66,3,6.07,6.52c.5,4.2,1.32,7.85-3.21,8.83s-7.74-2.06-8.51-6.11Z"/><path class="cls-1" d="M310.44,184.18c4.52-1.21,5.25-4,4.72-6.18,2,1.53,6.42.49,5.77-2.51l-1.29.3s.12,1.56-1.24,1.66c-1.19.1-2,.34-3.26-7-1.33-7.93-1.89-10.77-1.89-10.77l-2.69,2s2.82,14.83,3.21,17-.74,4.07-3.54,4.63-5.83,0-6.48-3.21-4.38-24.41-4.38-24.41l-2.83,2.08s3.3,19.49,4,22.63S305.92,185.38,310.44,184.18Z"/><polygon class="cls-1" points="312 153.72 309.79 158.47 312.55 156.4 312 153.72"/><path class="cls-1" d="M329.61,165.93c7.89.12,9.21,1.45,9.7,2.25s.67,3.64-5.79,4.41c-7.81.94-8.41-3.92-8.41-3.92l-2.47,2.08c2.16,2.73,6.83,3.28,10.79,2.83s9.65-2,9-5.21-4.79-4.61-11-4.52-8.2-1.09-8.41-2.12,0-3.3,5.3-3.53,7.06,2.51,7.06,2.51.19-.14,1.88-1.58c-3.44-2.26-7.91-2.49-12.26-1.11s-4,4.14-3.85,4.64S321.69,165.81,329.61,165.93Z"/><path class="cls-1" d="M355.64,168.8c3.65-.81,4.88-2.43,5.24-3.77,1.93,1.25,4.45,1.44,7.22,1.2a6.94,6.94,0,0,0,6.31-4.72l0,.19c1.18,5,3.62,5.08,6.79,4.52s2.14-3.72,2.14-3.72l-1.05.3c.35,1.79-.52,2.37-1.25,2.61a2.15,2.15,0,0,1-2.71-1.38,1.29,1.29,0,0,1-.06-.25c-.65-1.89-4.24-15.91-4.24-15.91l-2.46,1.88s.16.7.42,1.81c-1.05-1.35-3.09-2.58-6.6-2.3-4.35.35-9.28,5-7.82,10.72A8.71,8.71,0,0,0,360,164.3c-.27,1.18-1.22,3-4.49,3.7-4.93,1-6.42-1.53-7.08-4.22-.34-1.36-1.19-5.14-1.94-8.55l5.39-1.2-.17-.87-5.49,1.21C345.56,151.45,345,149,345,149l-2.75,2s2.24,10.19,3,13.2S348.87,170.29,355.64,168.8Zm10.16-18.48c3.77-.46,6.33,1.61,7.31,5.72h0c.83,3.5.41,7.89-3.65,9.07s-7.54-1.64-8.44-5.59,1-8.75,4.74-9.2Z"/></g></svg>