<svg id="Artwork" xmlns="http://www.w3.org/2000/svg" viewBox="0 0 480 320"><defs><style>.cls-1{fill:#000;}</style></defs><path class="cls-1" d="M348.18,65.48a4.3,4.3,0,0,0-.1-.87,24.06,24.06,0,0,0-1.3-4.16c-2.32-6.32-8-13.83-16.82-15.36-5.27-.91-53.37-9.93-76.49-14.27l-13.37-2.5a34,34,0,0,0-7.53-.27h0c-.76,0-81.34,3.54-91.85,4.57-12,1.18-18.31,11.44-18.4,21,0,4.46,1,61.11,1.91,111.1.61,33.15,1.13,61.78,1.13,64a17.22,17.22,0,0,0,9,15.22c1.38.79,10.63,6.21,22.33,13.07,20.38,11.94,48.3,28.31,51.9,30.31,5.92,3.28,9.25,4.71,15,4.71h.68c.42,0,.84,0,1.25,0a16.38,16.38,0,0,0,3.16-.3l.13,0c1.12-.11,2.32-.25,3.63-.42,5.53-.73,22.35-2.92,49.62-8.67,27.66-5.82,36.48-8.65,44.26-11.15,9.86-3.17,14.52-11.26,18.49-22.41,4.44-12.52,11.86-49.18,12.84-94.27C358.38,120.51,351.44,79.61,348.18,65.48ZM232.89,36.4a28.41,28.41,0,0,1,5.71.14L251.93,39c14,2.63,37.28,7,54.58,10.21-5.89.48-13,1-21.44,1.58-25,1.67-52.42,3-59.06,3.22a16.4,16.4,0,0,0-10.74,4.66L147.1,40.53C167.64,39.26,229.44,36.54,232.89,36.4Zm-72,213.36c-11.73-6.88-21-12.3-22.4-13.11a8.91,8.91,0,0,1-4.8-8c0-2.3-.5-29.6-1.13-64.16-.87-47.45-2-106.51-1.91-110.86a14.87,14.87,0,0,1,2.67-8.15l77.32,20.62a18.63,18.63,0,0,0-.35,9.66c2.14,9.69,10.66,59.21,10,107-.5,37.78-3.6,68.07-9.46,92.59a15.77,15.77,0,0,0-.43,3.34C202.69,274.25,178.87,260.29,160.91,249.76Zm188.37-95.17c-1,45.75-8.77,81.5-12.37,91.65-3.81,10.71-7.38,15.39-13.17,17.25-7.58,2.44-16.18,5.2-43.42,10.94-26.95,5.67-43.53,7.84-49,8.55-2.84.37-5,.59-6.79.64a7.77,7.77,0,0,1-4.74-1.95c-.64-.65-1.41-1.82-.81-4.34,6-25.13,9.18-56,9.69-94.43.65-48.59-8-99-10.22-108.92a9.78,9.78,0,0,1,1.66-8.24,8.42,8.42,0,0,1,6.2-3.34c7-.27,33.93-1.53,59.3-3.23,20.94-1.4,33.75-2.62,39.91-3.21l2.6-.25c2.83-.24,8.34,1.89,10.88,7.84l.12.34C341.39,70.78,350.11,116.67,349.28,154.59Z"/><path class="cls-1" d="M310.73,112.7c-27.87-6.66-58.5,15.19-68.28,48.71-5.37,18.39-3.61,37.26,4.81,51.76,6.46,11.12,16.5,18.79,28.26,21.6a44.13,44.13,0,0,0,10.2,1.19c24.77,0,49.48-20.45,58.07-49.91,5.37-18.38,3.62-37.24-4.8-51.74C332.53,123.18,322.49,115.51,310.73,112.7Zm25,71c-8.55,29.31-34.71,48.57-58.31,42.93-9.65-2.31-17.6-8.42-23-17.67-7.28-12.53-8.74-29-4-45.22,7.55-25.87,28.82-43.9,49.93-43.9a36,36,0,0,1,8.38,1c9.66,2.3,17.6,8.42,23,17.67C339,151,340.5,167.51,335.77,183.71Z"/><path class="cls-1" d="M305.88,130.64h0c-19.82-4.74-41.58,10.68-48.5,34.37-3.78,13-2.53,26.29,3.43,36.56a32.09,32.09,0,0,0,20.27,15.48,31.33,31.33,0,0,0,7.31.86c17.6,0,35.11-14.43,41.19-35.23,3.78-13,2.53-26.3-3.44-36.57A32,32,0,0,0,305.88,130.64Zm16.53,28.63c-1.48.33-3.78.82-6.3,1.26a68.34,68.34,0,0,1-7.14.86,22.55,22.55,0,0,0-2.05-4.72c-.24-.42-.52-.83-.79-1.23,1.48-1.08,4-3,5.88-4.63,1.6-1.4,3.24-3,4.37-4.13a26.93,26.93,0,0,1,2.54,3.63A32.7,32.7,0,0,1,322.41,159.27Zm-39.06,28.9a10.29,10.29,0,0,1-6.48-5c-2.21-3.81-2.63-8.89-1.16-13.93,2.34-8,8.78-13.64,15.11-13.64a10,10,0,0,1,8.88,5.3c2.21,3.82,2.64,8.89,1.17,13.93C298.23,183.85,290.37,189.84,283.35,188.17ZM268,185a30.92,30.92,0,0,1-2.05,4.14c-.24.4-.54.84-.86,1.29a38.7,38.7,0,0,1-1.32-14.55c.72,0,1.53-.07,2.4-.15l.34,0a25.09,25.09,0,0,0,1.74,8.73.47.47,0,0,1-.05.1Zm20.65-43.77a37.47,37.47,0,0,1-2.48,5.88,3.77,3.77,0,0,0-.32.78,22.63,22.63,0,0,0-6.28,2.78c-.11-.25-.22-.48-.33-.71-.44-.87-1-2-1.52-2.92a34.81,34.81,0,0,1,11.33-7.16C288.92,140.35,288.79,140.8,288.65,141.26Zm15.29-2.49a22.26,22.26,0,0,1,6.08,2.44c-1,1-2.28,2.24-3.51,3.31-2.5,2.18-6.43,5-6.46,5a1.27,1.27,0,0,1-.13.11,17.85,17.85,0,0,0-4.75-1.91h0a40.62,40.62,0,0,0,1.5-4c.67-2.23,1.23-4.33,1.54-5.56h.26a23.21,23.21,0,0,1,5.49.65Zm-32.11,15.1a17,17,0,0,1,1,3,29.78,29.78,0,0,0-5.12,10l-.06.25c-.59.11-1.35.23-2.24.31l0-.08A46.25,46.25,0,0,1,271.83,153.87Zm-2.8,45a44.17,44.17,0,0,0,4.11-5.47c.23-.39.43-.75.63-1.11a18.07,18.07,0,0,0,4.54,2.9,1,1,0,0,0,0,.17,64.77,64.77,0,0,1,.42,6.61c0,1.6-.15,3.63-.3,5.27A23.72,23.72,0,0,1,269,198.91Zm17.58,10.57c.2-1.9.48-5,.48-7.47,0-1.9-.13-3.83-.25-5.27a20.25,20.25,0,0,0,5.85-1.28c.5.72,2,2.91,3.7,5.74,1.23,2,2.42,4.34,3.18,5.9A26.53,26.53,0,0,1,286.61,209.48Zm20.14-6.73c-.84-1.67-2-3.89-3.22-5.89-1.55-2.56-2.92-4.62-3.64-5.68a28,28,0,0,0,5.22-5.9c1.29.64,4.53,2.25,6.64,3.27,1.46.69,3.57,1.72,5.16,2.5A42.27,42.27,0,0,1,306.75,202.75Zm14.81-22.41c-.32,1.08-.67,2.13-1.06,3.16-1.6-.78-3.69-1.8-5.14-2.49-2.15-1-5.51-2.71-6.66-3.28.06-.2.13-.39.19-.59a29.33,29.33,0,0,0,1.17-7.45,74,74,0,0,0,7.49-.92c2.24-.39,4.28-.82,5.82-1.15A44.93,44.93,0,0,1,321.56,180.34Z"/></svg>