<?xml version="1.0" encoding="UTF-8"?><svg id="Layer_4" xmlns="http://www.w3.org/2000/svg" viewBox="0 0 480 320"><defs><style>.cls-1{fill:#000;}</style></defs><path class="cls-1" d="M330.82,147.99c-.06-.4-.19-.77-.36-1.11-2.33-13.44-8.05-24.83-16.47-32.86-.09-.14-.18-.28-.29-.41-.3-.34-.65-.6-1.03-.82-8.22-7.25-18.82-11.44-31.23-11.44-30.6,0-60.33,34.39-60.33,68.52,0,4.71,.38,9.24,1.09,13.56,0,.23,.02,.46,.06,.69,.35,1.91,.66,3.52,1.05,5.16,.43,1.82,.94,3.57,1.51,5.2,.57,1.62,1.15,3.29,1.94,4.95,.21,.44,.43,.89,.64,1.33,7.98,17.23,23.17,28.11,43.4,28.11,30.6,0,60.85-33.82,60.85-67.94,0-4.08-.29-8.04-.84-11.85,.04-.36,.06-.72,0-1.09Zm-99.71,21.87c0-1.19,.06-2.38,.14-3.57l13.12-.6,.11,2.35c0,.18,.03,.36,.06,.53l.54,2.94c.03,.17,.07,.34,.13,.51l.6,1.85-11.37,17.79c-2.17-6.37-3.33-13.69-3.33-21.8Zm88.94-24.3l-29.36,4.4-.24-.77c-.06-.18-.12-.36-.21-.54l-1.24-2.63c-.07-.15-.15-.3-.24-.44l-1.47-2.32c-.13-.2-.28-.4-.44-.57l-.1-.11,22.16-19.47c5.29,5.74,9.12,13.36,11.13,22.44Zm-41.39,28.49l-1.8,2-1.82,1.57-2.01,1.26-2.19,1.03-2.06,.67-2.09,.3h-2.07l-1.98-.35-1.83-.63-1.78-1.01-1.67-1.25-1.4-1.51-1.23-1.85-1.07-2.14-.75-2.33-.45-2.42-.13-2.71,.13-2.69,.53-2.7,.82-2.72,1.06-2.58,1.36-2.34,1.67-2.2,1.76-1.89,2-1.61,2.11-1.34,2.1-.93,2.18-.62,2.04-.29,2.08,.12,2.04,.36,1.76,.66,1.69,1.05,1.67,1.36,1.42,1.54,1.14,1.8,1.01,2.14,.68,2.24,.39,2.53,.13,2.61-.13,2.6-.53,2.67-.73,2.64-1.12,2.43-1.34,2.41-1.58,2.11Zm1.92-36.69l-.74-.46c-.22-.14-.46-.25-.7-.35l-2.48-.93c-.23-.09-.47-.15-.71-.19l-2.39-.42,7.31-23.65c.19,0,.39-.02,.58-.02,8.15,0,15.38,2.29,21.4,6.47l-22.26,19.55Zm-15.58-1.75l-1.6,.46c-.18,.05-.35,.11-.51,.19l-2.63,1.16c-.18,.08-.36,.18-.53,.29l-2.55,1.62c-.13,.08-.25,.17-.36,.26l-.63,.51-6.15-13.71c6.49-6.57,14.13-11.48,22.06-13.71l-7.09,22.94Zm-20.75-2.54l5.95,13.28-.5,.66c-.1,.13-.18,.26-.27,.4l-1.62,2.79c-.09,.16-.17,.33-.25,.5l-1.24,3.02c-.05,.12-.09,.24-.13,.37l-.93,3.1c-.04,.13-.07,.25-.09,.38l-.02,.09-12.72,.58c2.01-9.06,6.22-17.76,11.81-25.16Zm6.03,48.68l1.46,1.58c.16,.18,.34,.34,.54,.49l2.17,1.62c.14,.1,.28,.2,.43,.28l2.32,1.32c.11,.06,.22,.1,.33,.15l-1.17,29.04c-7.54-2.99-13.66-8.43-17.98-15.85l11.91-18.62Zm14,36.62l1.18-29.5h1.52c.19,0,.38-.01,.57-.04l2.71-.39c.23-.03,.45-.08,.67-.15l2.34-.76,15.11,26.82c-5.65,2.87-11.62,4.51-17.57,4.51-2.25,0-4.43-.17-6.52-.5Zm15.98-34.69l2.02-1.74c.13-.11,.25-.23,.36-.35l2.09-2.32c.08-.09,.16-.18,.23-.28l1.85-2.47,26.98,12.66c-4.71,8.37-11.21,15.71-18.59,21.01l-14.94-26.51Zm41.39-22.76c0,7.14-1.59,14.32-4.37,21.07l-26.91-12.63,.81-2.93c.03-.09,.05-.18,.07-.28l.62-3.1c.04-.19,.06-.39,.07-.59l.15-3.1c0-.13,0-.27,0-.4l-.06-1.13,29.25-4.39c.24,2.41,.36,4.9,.36,7.46Z"/><path class="cls-1" d="M274.65,237.34c-3.93-.45-7.53,2.89-8.06,7.47-.52,4.57,2.24,8.64,6.16,9.09,3.93,.45,7.53-2.89,8.05-7.47,.52-4.57-2.24-8.64-6.16-9.09Z"/><path class="cls-1" d="M348.89,90.99c-.56-24.39-4.93-41.84-12.99-51.89-6.18-7.71-12.52-8.43-14.02-8.49l-84.59-7.31c-1.13-.1-2.28-.1-3.41,0l-78.77,3.89c-.06,0-.12,0-.17,.01-7.45,.69-14.09,4.93-18.68,11.93-4.02,6.13-6.2,14.02-5.98,21.64l4.72,163.64c.23,8.11,4.06,15.59,10.49,20.53l51.35,39.45s0,0,0,0l4.86,3.74c7.29,5.6,16.3,8.61,25.43,8.61,2.03,0,4.07-.15,6.1-.45,17.7-2.65,50.09-7.76,68.18-12.12,28.8-6.95,33.79-16.83,41.72-45.6,7.8-28.3,7.12-88.43,5.76-147.59ZM143,224.2l-4.72-163.64c-.33-11.37,6.2-24.28,17.32-25.37l78.76-3.89c.06,0,.12,0,.17-.01,.69-.06,1.39-.07,2.07,0l47.82,4.13-64.75,3.26c-12.31,.62-22.65,9.46-25.15,21.49-1.47,7.09-1.76,15.2-.86,24.12,3.33,33.07,6.99,76.29,5.71,117.34-.96,30.61-2.68,58.97-3.54,71.94l-45.47-34.93c-4.52-3.47-7.2-8.73-7.37-14.42Zm192.42,12.26c-7.61,27.6-11.54,34.08-35.88,39.95-17.79,4.29-49.92,9.35-67.49,11.99-8.98,1.35-18.26-1.06-25.47-6.59l-3.12-2.4c.59-8.54,2.78-41.49,3.91-77.55,1.29-41.51-2.39-85.07-5.74-118.39-.82-8.11-.57-15.4,.74-21.69,1.76-8.47,9.04-14.69,17.72-15.12l106.71-5.37c5.43,4.58,13.34,16.9,14.1,49.89,1.35,58.57,2.03,118.03-5.48,145.29Z"/></svg>