<?xml version="1.0" encoding="UTF-8"?><svg id="Layer_4" xmlns="http://www.w3.org/2000/svg" viewBox="0 0 480 320"><defs><style>.cls-1{fill:#000;}</style></defs><path class="cls-1" d="M226.17,94.9c6.64,0,11.65-8.63,11.65-20.08s-5.01-20.08-11.65-20.08-11.65,8.63-11.65,20.08,5.01,20.08,11.65,20.08Zm0-35.17c3.14,0,6.65,6.45,6.65,15.08s-3.51,15.08-6.65,15.08-6.65-6.45-6.65-15.08,3.51-15.08,6.65-15.08Z"/><path class="cls-1" d="M226.17,140.05c6.64,0,11.65-8.63,11.65-20.08s-5.01-20.08-11.65-20.08-11.65,8.63-11.65,20.08,5.01,20.08,11.65,20.08Zm0-35.17c3.14,0,6.65,6.45,6.65,15.08s-3.51,15.08-6.65,15.08-6.65-6.45-6.65-15.08,3.51-15.08,6.65-15.08Z"/><path class="cls-1" d="M292.39,288.51c-.95-3.44-5-5.04-6.77-5.59l-7.54-2.55-.24-255.76c0-2.07-1.58-3.8-3.65-3.98l-5.04-.45v-.65l-12.72-1.3-.03,.81c-6.5-.65-12.14,.24-12.42,.29l-38.99,6.7c-1.92,.33-3.32,2-3.32,3.94l.12,240.42c-2.37,.37-5.64,1.03-9.2,2.21-4.25,1.4-5.16,3.82-5.17,5.59-.03,3.76,3.95,5.72,6.32,6.55l44.18,15.49c1.16,.48,4.61,1.52,12.55,1.52,.58,0,1.18,0,1.8-.02,13.1-.24,34.7-3.44,38.73-7.88,1.4-1.55,1.91-3.5,1.4-5.36Zm-22.31-7.99l-18.71,3.21V107.75c1.82,4.43,5.1,7.22,9.1,7.22s7.58-2.97,9.45-7.57l.16,173.13Zm-15.26-181.28c0-6.74,3.06-11.43,5.8-11.43s5.8,4.69,5.8,11.43-3.09,10.73-5.95,10.73-5.66-4.01-5.66-10.73Zm.82-72.23h.05l.39,.04-.05,1.17,12.93,1.01,.02-1.03,.87,.08,.06,62.49c-1.87-4.79-5.28-7.95-9.28-7.95s-7.37,3.12-9.25,7.85V26.81c1.32,0,2.76,.05,4.26,.2Zm-12.26,.55v255.09l-33.59-11.55-.12-237.74,33.71-5.8Zm8.74,266.2c-7.58,.13-10.62-.73-11.12-.89-.13-.07-.12-.05-.31-.12l-39.98-14.02c2.07-.42,3.7-.62,4.59-.71l37.24,12.81c2.14,.74,4.39,1.11,6.65,1.11,1.15,0,2.3-.1,3.44-.29l22.14-3.8c.08-.01,.16-.04,.24-.06l6.06,2.05c-6.02,1.67-17.28,3.72-28.94,3.93Z"/></svg>