<svg id="Artwork" xmlns="http://www.w3.org/2000/svg" viewBox="0 0 480 320"><defs><style>.cls-1{fill:#000;}</style></defs><path class="cls-1" d="M446.4,213.72l-.23-72.33a4,4,0,0,0-1.26-2.9L391.25,88.07a19.75,19.75,0,0,0-14.18-5.39L45.24,91.92l-.19,0h0a.85.85,0,0,0-.16,0l-.47.06a4.08,4.08,0,0,0-.77.17l-.53.18a3.86,3.86,0,0,0-.72.32l-.41.24a3.81,3.81,0,0,0-.62.43l-.41.36a3.48,3.48,0,0,0-.47.47l-.29.35a4,4,0,0,0-.51.78l-.23.47a2.59,2.59,0,0,0-.17.38l-.18.47A4,4,0,0,0,38.83,98v.52h0L39,164.33a4,4,0,0,0,1,2.6l45.23,52.5a19.91,19.91,0,0,0,15.09,6.93l0,.09a1.9,1.9,0,0,0,.42.76l.41.47a2,2,0,0,0,.4.36l.4.26a2,2,0,0,0,.52.7l.41.36.11.06.44.43a.48.48,0,0,0,.34.13.41.41,0,0,0,.16,0l.18.09.12.06,1.12.46.19.07,1,.32.65.32.16.07,1.06.42.23.07,3,.72.12,0,3.84.59.13,0,4.43.41h.11l2.51.12,5.15.12,5.1-.12,2.52-.12,4.65-.35h.12l4.13-.62,3.27-.71.13,0,1.17-.35.24-.09.94-.41a2.5,2.5,0,0,0,.35-.21l0,0,.51-.15.12,0,1.18-.41.23-.1.53-.27a.47.47,0,0,0,.17,0,.5.5,0,0,0,.35-.15l.6-.6a1.92,1.92,0,0,0,.81-.9l.65-.47a2.09,2.09,0,0,0,.42-.42l.35-.47a2,2,0,0,0,.37-.81l.05-.29a2.09,2.09,0,0,0,0-.43l61.49-1.12a3.29,3.29,0,0,0,.44,0h0c3.34.67,17.85,3.29,41.59,3.29,3.45,0,7.1-.05,10.93-.18,29.86-1,44.21-5,47.37-5.94L370,220.05a1.71,1.71,0,0,0,.37.64l.41.47a1.3,1.3,0,0,0,.32.3l.5.36a1.87,1.87,0,0,0,.5.66l.41.35a1.76,1.76,0,0,0,.4.27l.82.41.13.06L375,224a1.31,1.31,0,0,0,.28.09l.78.21h0l.82.41.17.08,1.06.41.22.07,3,.72.11,0,3.85.58.13,0,7.05.54,5.14.11,5.11-.12,2.51-.12,2.48-.18,4.44-.48,2-.32,1.77-.36,1.47-.35.16,0,1.23-.41.18-.07.94-.41.2-.1.06,0,.64-.18.13,0,1.18-.41a1.39,1.39,0,0,0,.28-.12l.88-.47.23-.14.39-.29a2,2,0,0,0,.91-1h0l.65-.48a1.6,1.6,0,0,0,.41-.41l.36-.46a2,2,0,0,0,.37-.88l.06-.35a1.61,1.61,0,0,0,0-.58l14.53-.39a6.19,6.19,0,0,0,5.24-4.43Zm-24.52,5-2.38.79-1.55.32-4,.69-7.23.69-5.38.23h-5.6l-2.77-.05-2.66-.12-5-.35-4.48-.57-2.7-.5L422,218.66Zm-99.48-5.38-.2-64.25,116-3.29.21,64.43ZM377.3,90.68a11.82,11.82,0,0,1,8.47,3.22l46.87,44-114.22,3.25a1.75,1.75,0,0,0-.24,0H318a3.87,3.87,0,0,0-.49.05L219.58,144a4.05,4.05,0,0,0-.7-.07h-.19a4.08,4.08,0,0,0-.93.12l-117.47,3.34a11.82,11.82,0,0,1-8.51-4.29L91.7,143,53.94,99.68ZM262.87,151.56l2.42-.17,5.15-.23H273l5.25.11,2.48.12h.07l-.43,1.77L278,162l-2.71,8.65-1.5,4.12-1.79,3.9-.92,1.57-.91,1.12-1-1.21-1-1.63-2.87-6.19-2.26-6.67L261,158.74l-1.87-6.8ZM151.18,225.65l-1.29.36-1.59.33-4,.69-2.22.28-2.48.24-2.54.17-5.38.23h-5.6l-2.71,0-2.72-.12-5-.35-2.28-.28-4.06-.57-1.42-.35,43.9-.8Zm-50.65-7.29a12,12,0,0,1-3-.34,3.77,3.77,0,0,0,.08-.76l-.23-62.2a20.65,20.65,0,0,0,2.71.32h.28l114.34-3.25.21,64.15ZM47,162.83l-.16-59.12,38.8,44.52a19.93,19.93,0,0,0,3.73,3.44l.22,60.6Zm224.22,56.55c-24.71.8-41.52-1.41-48.12-2.51l-.21-65,27.69-.78,2.69,9.79,0,.1,2.12,7a.5.5,0,0,0,0,.13l2.35,6.93a2.78,2.78,0,0,0,.16.4l3,6.58c.06.13.13.26.2.38l1.23,2.05a4,4,0,0,0,.33.47l1.53,1.88a4,4,0,0,0,.73.7l1.35,1a3.79,3.79,0,0,0,1.11.58l.88.29a3.87,3.87,0,0,0,1.26.21h1.07a4,4,0,0,0,1.4-.26l.94-.35a3.57,3.57,0,0,0,1-.56l1.24-.93a4.15,4.15,0,0,0,.7-.69l1.46-1.82a5,5,0,0,0,.33-.47l1.18-2c.07-.12.13-.24.19-.36l1.94-4.24.12-.29,1.58-4.35.06-.18,2.76-8.81a.75.75,0,0,0,.05-.16l2.41-8.93a.29.29,0,0,0,0-.09l1.24-5.09,24.68-.7.16,65.12C308.83,215.79,295.23,218.59,271.22,219.38Z"/><path class="cls-1" d="M423.37,193.54v-.06l-.22-.86a.39.39,0,0,0-.06-.15l-.21-.33-.33-.39a.43.43,0,0,0-.17-.12l-.14-.14-.1-.07-.38-.22a.49.49,0,0,0-.19-.07l-.42,0-.38-.11h-.09l-.06,0-18.13.5-.06,0h-.06l-.31.09-.5.06a.54.54,0,0,0-.26.11l-.66.46a.46.46,0,0,0-.15.16l-.51.83a.64.64,0,0,0-.06.18l-.06.46v8.78h0V203a.77.77,0,0,0,0,.15l.17.5a.34.34,0,0,0,.06.12l0,0a.51.51,0,0,0,.21.42l0,0,.06.15a.44.44,0,0,0,.28.27l.37.13.77.44a.43.43,0,0,0,.25.07h.39l18.12-.49h.12l1-.24.38-.17a.45.45,0,0,0,.19-.14l.6-.71a.57.57,0,0,0,.08-.13l.19-.45.22-.82v0s0,0,0-.06v-8.44h0S423.37,193.57,423.37,193.54Z"/><polygon class="cls-1" points="200.78 175.25 201.6 175.95 202.54 176.37 203.6 176.48 204.66 176.31 205.65 175.84 206.48 175.07 207.01 174.19 207.36 173.13 207.36 172.07 207.01 171.07 206.42 170.19 205.65 169.55 204.66 169.08 203.6 168.96 202.54 169.14 201.54 169.61 200.78 170.37 200.19 171.25 199.9 172.31 199.9 173.37 200.19 174.37 200.78 175.25"/><polygon class="cls-1" points="206.48 183.77 205.66 183.06 204.71 182.65 203.66 182.53 202.6 182.71 201.6 183.18 200.78 183.88 200.25 184.83 199.96 185.83 199.96 186.88 200.25 187.94 200.84 188.82 201.66 189.47 202.6 189.88 203.66 190 204.71 189.82 205.71 189.35 206.48 188.65 207.06 187.7 207.36 186.71 207.36 185.65 207.06 184.59 206.48 183.77"/><polygon class="cls-1" points="207.12 198.17 206.53 197.28 205.71 196.64 204.71 196.16 203.66 196.05 202.6 196.29 201.66 196.69 200.84 197.46 200.25 198.34 199.95 199.4 199.95 200.46 200.31 201.46 200.84 202.34 201.66 203.04 202.66 203.45 203.71 203.57 204.77 203.39 205.71 202.92 206.53 202.16 207.12 201.28 207.42 200.22 207.42 199.17 207.12 198.17"/><polygon class="cls-1" points="179.27 184.47 178.45 183.83 177.51 183.41 176.45 183.3 175.39 183.48 174.39 183.94 173.57 184.65 173.04 185.59 172.69 186.59 172.75 187.65 173.04 188.7 173.63 189.59 174.39 190.23 175.39 190.64 176.45 190.76 177.51 190.58 178.51 190.11 179.27 189.41 179.86 188.47 180.15 187.47 180.15 186.41 179.86 185.36 179.27 184.47"/><polygon class="cls-1" points="152.06 185.24 151.24 184.59 150.24 184.18 149.19 184.06 148.13 184.24 147.19 184.71 146.36 185.41 145.78 186.35 145.48 187.35 145.48 188.41 145.84 189.41 146.36 190.29 147.19 191 148.19 191.41 149.24 191.52 150.3 191.35 151.24 190.88 152.06 190.17 152.65 189.23 152.95 188.23 152.95 187.17 152.65 186.12 152.06 185.24"/><polygon class="cls-1" points="159.94 176.37 160.76 177.07 161.76 177.48 162.82 177.6 163.87 177.42 164.81 176.95 165.64 176.25 166.22 175.31 166.52 174.31 166.52 173.25 166.22 172.19 165.64 171.31 164.81 170.67 163.82 170.25 162.76 170.14 161.7 170.31 160.76 170.78 159.94 171.49 159.35 172.43 159.06 173.43 159.06 174.49 159.35 175.54 159.94 176.37"/><polygon class="cls-1" points="166.22 185.77 165.64 184.88 164.87 184.18 163.87 183.77 162.82 183.65 161.76 183.83 160.76 184.3 160 185.06 159.41 185.94 159.12 187 159.12 188.06 159.41 189.06 160 189.94 160.82 190.58 161.76 191.06 162.82 191.17 163.87 191 164.87 190.53 165.7 189.76 166.22 188.88 166.58 187.83 166.52 186.76 166.22 185.77"/><polygon class="cls-1" points="165.7 198.4 164.87 197.75 163.93 197.34 162.88 197.22 161.82 197.4 160.82 197.87 160 198.57 159.47 199.52 159.17 200.52 159.17 201.57 159.47 202.63 160.06 203.51 160.88 204.16 161.82 204.57 162.88 204.69 163.93 204.51 164.93 204.04 165.7 203.34 166.28 202.39 166.58 201.4 166.58 200.34 166.28 199.28 165.7 198.4"/><polygon class="cls-1" points="127.47 200.73 126.47 199.4 125.05 198.31 123.46 197.55 121.78 197.14 119.94 197.22 118.27 197.63 116.68 198.47 115.34 199.73 114.26 201.15 113.59 202.82 113.25 204.5 113.34 206.34 113.84 208 114.76 209.51 116.01 210.76 117.44 211.69 119.11 212.19 120.95 212.36 122.7 212.11 124.38 211.44 125.8 210.44 127.05 209.18 127.97 207.59 128.47 205.92 128.56 204.08 128.22 202.41 127.47 200.73"/><path class="cls-1" d="M405.17,158.4l.06.12,0,0a.46.46,0,0,0,.2.38h0l0,.11a.53.53,0,0,0,.28.27l.3.1.64.37a.59.59,0,0,0,.25.07h.34l15.19-.42h.12l.82-.21.33-.14a.49.49,0,0,0,.18-.14l.51-.59.08-.13.16-.39.18-.69s0,0,0,0a.11.11,0,0,0,0-.05s0,0,0,0v-4h0a.31.31,0,0,0,0-.08v-.05l-.18-.72a.47.47,0,0,0-.06-.15l-.46-.61a.4.4,0,0,0-.16-.12l-.1-.1-.1-.08-.33-.18a.44.44,0,0,0-.19-.07l-.33,0-.32-.09h-.07l-.07,0h0l-15.21.42-.06,0h-.05l-.67.12a.47.47,0,0,0-.26.11l-.55.38a.57.57,0,0,0-.15.16l-.43.7a.64.64,0,0,0-.06.18l-.05.4v4.33h0v.33a.77.77,0,0,0,0,.15Z"/><path class="cls-1" d="M426.12,166.84l-94.57,3.06a3.74,3.74,0,0,0-3.62,3.74v11.07a3.42,3.42,0,0,0,3.53,3.41l95-3a3.42,3.42,0,0,0,3.33-3.43V170.38A3.55,3.55,0,0,0,426.12,166.84Z"/></svg>