<svg id="Artwork" xmlns="http://www.w3.org/2000/svg" viewBox="0 0 480 320"><defs><style>.cls-1{fill:#000;}</style></defs><path class="cls-1" d="M443.79,215.54l-.24-72.34a4,4,0,0,0-1.26-2.9L388.63,89.89a19.74,19.74,0,0,0-14.17-5.39L42.62,93.74l-.19,0h-.19l-.47.06A4.08,4.08,0,0,0,41,94l-.53.18a3.86,3.86,0,0,0-.72.32l-.41.23a4.61,4.61,0,0,0-.62.44l-.41.35a4.25,4.25,0,0,0-.47.48l-.29.35a4.28,4.28,0,0,0-.51.77l-.23.47c-.06.13-.12.26-.17.39l-.18.47a3.94,3.94,0,0,0-.25,1.4v.53h0l.17,65.76a4.08,4.08,0,0,0,1,2.6l45.23,52.49a19.84,19.84,0,0,0,15.09,6.93l0,.09a2.07,2.07,0,0,0,.42.77l.41.47a1.65,1.65,0,0,0,.4.35l.41.27a1.91,1.91,0,0,0,.51.7l.41.35.11.07.44.42a.49.49,0,0,0,.51.11l.17.08a.31.31,0,0,0,.13.06l1.11.47.19.07,1,.31.65.33.16.07,1.06.41.23.08,3,.72.12,0L113,235l.13,0,4.42.4h.11l2.51.12,5.15.12,5.1-.12,2.52-.12,4.65-.35.12,0,4.13-.61,3.27-.71.13,0,1.18-.36.23-.08.94-.42a1.75,1.75,0,0,0,.35-.2l0,0,.52-.15.12,0,1.17-.41.24-.1.52-.26a.47.47,0,0,0,.17,0,.52.52,0,0,0,.35-.14l.61-.61a2,2,0,0,0,.81-.9l.64-.46a2.09,2.09,0,0,0,.42-.42l.36-.47a2.19,2.19,0,0,0,.36-.81l.06-.29a1.59,1.59,0,0,0,0-.43L215.87,226a3.26,3.26,0,0,0,.45.05h0c3.34.68,17.86,3.3,41.6,3.3,3.44,0,7.09-.06,10.92-.18,29.86-1,44.21-4.95,47.37-5.95l51.17-1.37a2.27,2.27,0,0,0,.37.64l.41.47a3,3,0,0,0,.32.3l.5.36a2.1,2.1,0,0,0,.5.66l.41.35a2.8,2.8,0,0,0,.4.27l.83.41.12.06,1.11.47a2.29,2.29,0,0,0,.28.09l.78.2h0l.82.42.17.07,1.06.41.22.07,3,.73.12,0,3.85.59h.12l7.05.54,5.15.12,5.11-.12,2.5-.13,2.48-.17,4.45-.49,2-.31,1.76-.37,1.47-.35.16,0,1.24-.41.18-.07.94-.42.19-.09.06,0,.65-.18.12,0,1.18-.41.28-.13.88-.47.23-.14.39-.28a2,2,0,0,0,.91-.95h0l.64-.47a2,2,0,0,0,.42-.41l.35-.47a2.07,2.07,0,0,0,.38-.87l.05-.36a1.89,1.89,0,0,0,0-.58l14.53-.39a3.87,3.87,0,0,0,1.72-.46A4,4,0,0,0,443.79,215.54Zm-24.52,5-2.38.79-1.56.32-4,.69-7.23.69-5.38.23h-5.6l-2.77-.06-2.66-.11-5-.35-4.47-.57-2.71-.51,43.86-1.17Zm-99.49-5.37-.2-64.25,116-3.3.2,64.43ZM374.68,92.5a11.75,11.75,0,0,1,8.47,3.22l46.88,44L315.81,143l-.24,0h-.19a3.87,3.87,0,0,0-.49.05L217,145.81a4.05,4.05,0,0,0-.7-.07h-.19a4.08,4.08,0,0,0-.93.12L97.67,149.2a11.84,11.84,0,0,1-8.51-4.29l-.07-.09L51.32,101.5ZM260.25,153.37l2.42-.17,5.15-.22h2.53l5.25.12,2.49.11h.06l-.43,1.76-2.37,8.81-2.71,8.65-1.5,4.11-1.79,3.9-.92,1.57-.9,1.12-1-1.2-1-1.63-2.87-6.19-2.26-6.67-2.09-6.88-1.87-6.8ZM148.57,227.46l-1.3.37-1.59.33-4,.68-2.22.29-2.48.23-2.54.18-5.37.23h-5.6l-2.72-.06L118,229.6l-5-.35-2.28-.29-4.06-.56-1.42-.36,43.9-.8Zm-50.65-7.29a12.08,12.08,0,0,1-3-.33,3.87,3.87,0,0,0,.08-.77l-.22-62.2a18.75,18.75,0,0,0,2.71.33h.27L212.09,154l.21,64.14ZM44.38,164.64l-.16-59.11L83,150a19.9,19.9,0,0,0,3.73,3.44l.22,60.6ZM268.6,221.19c-24.7.81-41.52-1.4-48.12-2.5l-.21-65,27.69-.79,2.69,9.8,0,.1,2.12,7s0,.08,0,.12l2.35,6.94c.05.13.1.27.16.4l3,6.58c.06.13.13.25.2.37l1.24,2.06a2.91,2.91,0,0,0,.32.46l1.53,1.89a4.33,4.33,0,0,0,.73.69l1.35,1a4.2,4.2,0,0,0,1.11.58l.88.29a3.93,3.93,0,0,0,1.27.21h1.06a4,4,0,0,0,1.4-.26l.94-.35a4.21,4.21,0,0,0,1-.56l1.23-.94a3.76,3.76,0,0,0,.7-.68l1.47-1.82a3.08,3.08,0,0,0,.32-.48l1.18-2c.07-.12.13-.24.19-.37l1.94-4.23.12-.3,1.59-4.34.06-.18L283,166.1c0-.06,0-.11,0-.16l2.41-8.93,0-.1,1.23-5.08,24.68-.7.16,65.11C306.21,217.61,292.61,220.41,268.6,221.19Z"/><path class="cls-1" d="M420.75,195.36v-.07l-.21-.85a.77.77,0,0,0-.07-.16l-.21-.33-.33-.39a.48.48,0,0,0-.16-.12l-.14-.13-.1-.08-.39-.22A.6.6,0,0,0,419,193l-.41,0-.39-.11H418l-18.13.5h-.11l-.32.09-.49.05a.54.54,0,0,0-.27.11L398,194a.54.54,0,0,0-.15.15l-.51.84a.64.64,0,0,0-.06.18l-.06.46v8.78h0v.38a.41.41,0,0,0,0,.16l.16.5.06.12,0,0a.49.49,0,0,0,.21.41l0,0,.06.14a.5.5,0,0,0,.29.28l.36.13.77.44a.55.55,0,0,0,.25.07h.4l18.11-.5h.12l1-.25.39-.16a.49.49,0,0,0,.18-.14l.6-.71a.35.35,0,0,0,.08-.13l.19-.46.22-.82v0a.13.13,0,0,0,0-.06s0,0,0,0v-8.4h0A.14.14,0,0,0,420.75,195.36Z"/><polygon class="cls-1" points="198.16 177.06 198.98 177.77 199.92 178.18 200.98 178.3 202.04 178.12 203.04 177.65 203.86 176.89 204.39 176.01 204.74 174.95 204.74 173.89 204.39 172.89 203.8 172.01 203.04 171.36 202.04 170.89 200.98 170.78 199.92 170.95 198.92 171.43 198.16 172.19 197.57 173.07 197.28 174.13 197.28 175.18 197.57 176.18 198.16 177.06"/><polygon class="cls-1" points="203.86 185.59 203.04 184.88 202.1 184.47 201.04 184.35 199.98 184.53 198.98 185 198.16 185.7 197.63 186.64 197.34 187.64 197.34 188.7 197.63 189.75 198.22 190.64 199.04 191.29 199.98 191.69 201.04 191.81 202.1 191.63 203.1 191.16 203.86 190.46 204.45 189.52 204.74 188.52 204.74 187.47 204.45 186.41 203.86 185.59"/><polygon class="cls-1" points="204.5 199.98 203.92 199.1 203.09 198.45 202.1 197.98 201.04 197.86 199.98 198.1 199.04 198.51 198.22 199.28 197.63 200.16 197.34 201.21 197.34 202.27 197.69 203.27 198.22 204.15 199.04 204.86 200.04 205.27 201.1 205.39 202.15 205.21 203.09 204.74 203.92 203.97 204.5 203.09 204.8 202.04 204.8 200.98 204.5 199.98"/><polygon class="cls-1" points="176.65 186.29 175.83 185.64 174.89 185.23 173.83 185.11 172.78 185.29 171.78 185.76 170.95 186.47 170.42 187.41 170.07 188.4 170.13 189.46 170.42 190.52 171.01 191.4 171.78 192.05 172.78 192.46 173.83 192.58 174.89 192.4 175.89 191.93 176.65 191.22 177.24 190.28 177.53 189.29 177.53 188.23 177.24 187.17 176.65 186.29"/><polygon class="cls-1" points="149.45 187.05 148.62 186.41 147.63 185.99 146.57 185.88 145.51 186.06 144.57 186.52 143.75 187.23 143.16 188.17 142.87 189.17 142.87 190.23 143.22 191.23 143.75 192.11 144.57 192.81 145.57 193.22 146.63 193.34 147.68 193.16 148.62 192.69 149.45 191.99 150.03 191.05 150.33 190.05 150.33 188.99 150.03 187.94 149.45 187.05"/><polygon class="cls-1" points="157.32 178.18 158.14 178.88 159.14 179.3 160.2 179.41 161.26 179.24 162.2 178.77 163.02 178.06 163.61 177.13 163.9 176.12 163.9 175.06 163.61 174.01 163.02 173.13 162.2 172.48 161.2 172.07 160.14 171.95 159.08 172.13 158.14 172.6 157.32 173.31 156.73 174.24 156.44 175.24 156.44 176.3 156.73 177.36 157.32 178.18"/><polygon class="cls-1" points="163.61 187.58 163.02 186.7 162.26 185.99 161.26 185.58 160.2 185.47 159.14 185.64 158.14 186.12 157.38 186.88 156.79 187.76 156.5 188.82 156.5 189.87 156.79 190.87 157.38 191.75 158.2 192.4 159.14 192.87 160.2 192.99 161.26 192.81 162.26 192.34 163.08 191.58 163.61 190.7 163.96 189.64 163.9 188.58 163.61 187.58"/><polygon class="cls-1" points="163.08 200.22 162.26 199.57 161.32 199.16 160.26 199.04 159.2 199.22 158.2 199.69 157.38 200.39 156.85 201.33 156.56 202.33 156.56 203.39 156.85 204.44 157.44 205.33 158.26 205.98 159.2 206.38 160.26 206.5 161.32 206.32 162.31 205.85 163.08 205.15 163.67 204.21 163.96 203.21 163.96 202.16 163.67 201.1 163.08 200.22"/><polygon class="cls-1" points="124.85 202.54 123.85 201.21 122.43 200.12 120.84 199.37 119.17 198.95 117.33 199.03 115.65 199.45 114.06 200.29 112.73 201.54 111.64 202.97 110.97 204.64 110.64 206.31 110.72 208.15 111.22 209.82 112.14 211.33 113.4 212.58 114.82 213.51 116.49 214.01 118.33 214.18 120.09 213.92 121.76 213.25 123.18 212.25 124.44 210.99 125.36 209.41 125.86 207.74 125.94 205.89 125.61 204.22 124.85 202.54"/><path class="cls-1" d="M402.55,160.21l.06.13,0,0a.5.5,0,0,0,.2.38h0l0,.1a.46.46,0,0,0,.29.27l.29.11.65.37a.51.51,0,0,0,.25.06h.33l15.2-.41H420l.83-.22.32-.13a.62.62,0,0,0,.18-.14l.51-.6a.57.57,0,0,0,.08-.13l.16-.39.18-.69s0,0,0,0v-.05s0,0,0,0v-4h0s0-.05,0-.08,0,0,0-.05l-.18-.72a.39.39,0,0,0-.06-.15l-.46-.62a.58.58,0,0,0-.15-.11l-.11-.11-.1-.07-.32-.19a.66.66,0,0,0-.2-.06l-.33,0-.32-.09h-.15l-15.22.42h-.11l-.67.12a.54.54,0,0,0-.26.11l-.55.39a.54.54,0,0,0-.15.15l-.43.71a.55.55,0,0,0-.06.18l-.05.39v4.33h0v.32a.41.41,0,0,0,0,.16Z"/><path class="cls-1" d="M423.5,168.66l-94.56,3.06a3.73,3.73,0,0,0-3.62,3.73v11.08a3.41,3.41,0,0,0,3.52,3.41l95-3a3.43,3.43,0,0,0,3.32-3.43V172.2A3.54,3.54,0,0,0,423.5,168.66Z"/></svg>