<svg id="Artwork" xmlns="http://www.w3.org/2000/svg" viewBox="0 0 480 320"><defs><style>.cls-1{fill:#000;}</style></defs><path class="cls-1" d="M455.93,145.71l.28-.36-63-48.47a13.77,13.77,0,0,0-8.79-3.18H32.91a11.18,11.18,0,0,0-11.16,11.16v65.87a14.3,14.3,0,0,0,4,10l47.13,43.57.1-.1a9.16,9.16,0,0,0,5.92,2.14H449a9.27,9.27,0,0,0,9.27-9.26V151.82A9.2,9.2,0,0,0,455.93,145.71ZM388.2,103.06l51.32,39.5H78.9a9.51,9.51,0,0,0-3.08.54L34,101.7H384.45A5.79,5.79,0,0,1,388.2,103.06Zm-176.67,47.5h99v67.73h-99ZM29.75,170.73v-62l40.42,40a9.12,9.12,0,0,0-.53,3.06v58.54L31.45,175A6.35,6.35,0,0,1,29.75,170.73ZM77.64,217V151.82a1.26,1.26,0,0,1,1.26-1.26H205.49v67.73H78.9a1.24,1.24,0,0,1-1.26-1.24Zm372.62,0a1.26,1.26,0,0,1-1.26,1.26H316.54V150.56H449a1.27,1.27,0,0,1,1.27,1.26Z"/><rect class="cls-1" x="338.53" y="160.42" width="94.16" height="23.39"/><circle class="cls-1" cx="180.73" cy="199.18" r="8.94"/><circle class="cls-1" cx="345.91" cy="202.28" r="6.16" transform="translate(-37.22 84.87) rotate(-13.28)"/><circle class="cls-1" cx="375.35" cy="202.26" r="6.16" transform="translate(-33.08 324.65) rotate(-45)"/><circle class="cls-1" cx="394.53" cy="202.28" r="6.16" transform="translate(-35.92 96.04) rotate(-13.28)"/><circle class="cls-1" cx="141.56" cy="199.18" r="8.94"/><circle class="cls-1" cx="103.15" cy="199.19" r="8.94"/><rect class="cls-1" x="410.59" y="196.11" width="22.1" height="12.33"/></svg>