<svg id="Artwork" xmlns="http://www.w3.org/2000/svg" viewBox="0 0 480 320"><defs><style>.cls-1{fill:#000;}</style></defs><path class="cls-1" d="M464.91,119.86c-.48-3.65-3.73-7-8.1-8.2L289.16,59.93l-.14,0a29.07,29.07,0,0,0-13.57-.34L22.31,117.23A9.09,9.09,0,0,0,15,125.4a9.77,9.77,0,0,0,0,1.71V182.3c0,5.84,3.09,10.78,8.06,12.89l149.25,63.34a33,33,0,0,0,21.45,1.39l11.52-3.08A57.27,57.27,0,0,0,225.08,260c15.81,0,28.63-5.11,28.63-11.42v-4.68l145.45-38.86a57.07,57.07,0,0,0,19.85,3.2c15.81,0,28.63-5.11,28.63-11.42V192.1l8-2.14c5.42-1.45,9.35-6.3,9.35-11.52V119.86ZM24,125,277.17,67.36a21.06,21.06,0,0,1,9.7.24l167.64,51.72.14,0a4.5,4.5,0,0,1,1.63.79L191.69,188.51a25,25,0,0,1-16.33-1.08l-151.64-60a1.14,1.14,0,0,1-.72-1.24A1.18,1.18,0,0,1,24,125Zm337.12,28v53.93l-72,19.25V171.6ZM26.22,187.82C23.34,186.6,23,183.55,23,182.3V135.72l149.31,59.12a32,32,0,0,0,6.39,1.94v55.47a24.25,24.25,0,0,1-3.28-1.09ZM191.69,252.2a24.57,24.57,0,0,1-5,.81V197.35a31.69,31.69,0,0,0,7-1.11l87.38-22.57V228.3Zm261.9-70-84.44,22.56V150.92L457,128.23v50.21C457,180,455.48,181.72,453.59,182.23Z"/></svg>