<svg id="Artwork" xmlns="http://www.w3.org/2000/svg" viewBox="0 0 480 320"><defs><style>.cls-1{fill:#000;}</style></defs><path class="cls-1" d="M464.91,81.75c-.48-3.65-3.74-7-8.1-8.21L289.16,21.82l-.14,0a29.07,29.07,0,0,0-13.57-.34L22.31,79.12A9.09,9.09,0,0,0,15,87.29,9.77,9.77,0,0,0,15,89V220.41c0,5.84,3.09,10.78,8.06,12.89l149.25,63.34A33,33,0,0,0,193.79,298L205.31,295a57.27,57.27,0,0,0,19.77,3.17c15.81,0,28.63-5.11,28.63-11.42V282l145.45-38.86A57,57,0,0,0,419,246.37c15.81,0,28.63-5.12,28.63-11.43v-4.73l8-2.14c5.42-1.45,9.35-6.29,9.35-11.52V81.75ZM24,86.93,277.17,29.25a20.92,20.92,0,0,1,9.7.24L454.51,81.21l.14,0a4.5,4.5,0,0,1,1.63.79L191.69,150.4a25,25,0,0,1-16.33-1.08l-151.64-60A1.14,1.14,0,0,1,23,88,1.18,1.18,0,0,1,24,86.93Zm337.12,27.95V245l-72,19.24V133.49ZM26.22,225.93c-2.88-1.22-3.19-4.26-3.19-5.52V97.61l149.31,59.12a32.69,32.69,0,0,0,6.39,1.94V290.36a24.25,24.25,0,0,1-3.28-1.09Zm165.47,64.38a24.58,24.58,0,0,1-5,.82V159.24a32.9,32.9,0,0,0,7-1.11l87.38-22.57V266.41Zm261.9-70L369.15,242.9V112.81L457,90.11V216.55C457,218.14,455.48,219.84,453.59,220.34Z"/></svg>