<svg id="Artwork" xmlns="http://www.w3.org/2000/svg" viewBox="0 0 480 320"><defs><style>.cls-1{fill:#000;}</style></defs><path class="cls-1" d="M464.91,127.8c-.48-3.65-3.74-7-8.1-8.2L289.16,67.88l-.14,0a29.2,29.2,0,0,0-13.57-.34L22.31,125.17A9.1,9.1,0,0,0,15,133.34a9.77,9.77,0,0,0,0,1.71v39.31c0,5.84,3.09,10.77,8.06,12.88l149.25,63.34a32.92,32.92,0,0,0,21.45,1.4l11.52-3.08a57.27,57.27,0,0,0,19.77,3.17c15.81,0,28.63-5.11,28.63-11.42V236l145.45-38.86a57.07,57.07,0,0,0,19.85,3.2c15.81,0,28.63-5.11,28.63-11.42v-4.73l8-2.15c5.42-1.44,9.35-6.29,9.35-11.51V127.8ZM24,133,277.17,75.3a21.19,21.19,0,0,1,9.7.24l167.64,51.72.14,0a4.67,4.67,0,0,1,1.63.79L191.69,196.46a25.13,25.13,0,0,1-16.33-1.08l-151.64-60a1.14,1.14,0,0,1-.72-1.24A1.17,1.17,0,0,1,24,133Zm2.19,46.89c-2.88-1.22-3.19-4.27-3.19-5.52v-30.7l149.31,59.12a32.72,32.72,0,0,0,6.39,1.95v39.58a24.3,24.3,0,0,1-3.28-1.1Zm427.37-5.59-261.9,70a24.57,24.57,0,0,1-5,.81V205.29a32.27,32.27,0,0,0,7-1.1l263.25-68V170.5C457,172.08,455.48,173.78,453.59,174.29Z"/></svg>