<svg id="Artwork" xmlns="http://www.w3.org/2000/svg" viewBox="0 0 480 320"><defs><style>.cls-1{fill:#000;}</style></defs><path class="cls-1" d="M428.55,151.57,312.73,86.09a42.46,42.46,0,0,0-21.85-6H64c-11.16,0-20.23,8.81-20.23,19.63v59.77a15.54,15.54,0,0,0,6.27,12.38l93.16,78.73.1-.12a10.73,10.73,0,0,0,8.22,3.84H425.48a10.75,10.75,0,0,0,10.73-10.74V161.85A10.75,10.75,0,0,0,428.55,151.57ZM290.88,88.07A34.45,34.45,0,0,1,308.65,93l102.84,58.14h-260a10.56,10.56,0,0,0-4.29.9L58.71,89.24A12.7,12.7,0,0,1,64,88.07Zm-236,77.41a7.48,7.48,0,0,1-3.12-6V99.7a11.18,11.18,0,0,1,1.09-4.79l88.72,62.91a10.65,10.65,0,0,0-.8,4v76.21L55.13,165.65Zm373.3,78.08a2.74,2.74,0,0,1-2.73,2.74H151.54a2.74,2.74,0,0,1-2.74-2.74V161.85a2.74,2.74,0,0,1,2.74-2.73H425.48l.2,0,1.57.88.09-.16a2.74,2.74,0,0,1,.87,2Z"/><path class="cls-1" d="M195.64,200.62a1.58,1.58,0,0,0-.55-1.24,2.17,2.17,0,0,0-1.55-.49h-8.46v-15a2.73,2.73,0,0,0-.57-1.91,2,2,0,0,0-1.53-.64,1.91,1.91,0,0,0-1.5.64,2.72,2.72,0,0,0-.56,1.91v15.88a2.26,2.26,0,0,0,0,.82,2.17,2.17,0,0,0,2.54,1.73h10.08a2.34,2.34,0,0,0,1.57-.47A1.61,1.61,0,0,0,195.64,200.62Z"/><path class="cls-1" d="M201.42,187.64a1.89,1.89,0,0,0-1.4-.58,1.81,1.81,0,0,0-1.37.58,2.47,2.47,0,0,0-.52,1.71v10.94a2.51,2.51,0,0,0,.52,1.73,1.73,1.73,0,0,0,1.37.63,1.82,1.82,0,0,0,1.4-.59,2.48,2.48,0,0,0,.54-1.74V189.25A2.25,2.25,0,0,0,201.42,187.64Z"/><path class="cls-1" d="M200.05,185.27a2,2,0,0,0,1.33-.5,1.8,1.8,0,0,0,.56-1.39,1.71,1.71,0,0,0-.58-1.39,2.06,2.06,0,0,0-1.32-.48,2,2,0,0,0-1.35.53l0,0a1.9,1.9,0,0,0,0,2.7A2,2,0,0,0,200.05,185.27Z"/><path class="cls-1" d="M225.49,187.73a5.58,5.58,0,0,0-2.72-.63,5.28,5.28,0,0,0-2.46.56,6.87,6.87,0,0,0-2.08,1.75,4.47,4.47,0,0,0-1.71-1.74,5,5,0,0,0-2.49-.57,5.49,5.49,0,0,0-2.55.56,6.84,6.84,0,0,0-2.14,1.75v-.36a2,2,0,0,0-.53-1.46,1.78,1.78,0,0,0-1.31-.53,1.68,1.68,0,0,0-1.31.57,2.37,2.37,0,0,0-.5,1.64v10.95a2.62,2.62,0,0,0,.55,1.81,1.9,1.9,0,0,0,1.43.64,1.83,1.83,0,0,0,1.43-.64,2.68,2.68,0,0,0,.54-1.81V195a9.21,9.21,0,0,1,.59-3.71,2.45,2.45,0,0,1,2.49-1.27,1.73,1.73,0,0,1,1.38.5,2.56,2.56,0,0,1,.53,1.32,18.82,18.82,0,0,1,.1,2.25v6.11a2.65,2.65,0,0,0,.54,1.82,1.81,1.81,0,0,0,1.41.63,1.85,1.85,0,0,0,1.45-.63,2.6,2.6,0,0,0,.54-1.82v-5.09a9.59,9.59,0,0,1,.45-3.45,3,3,0,0,1,1.06-1.21,2.56,2.56,0,0,1,1.44-.45,1.78,1.78,0,0,1,1.4.51,2.29,2.29,0,0,1,.58,1.27,16.41,16.41,0,0,1,.1,2v6.47a2.56,2.56,0,0,0,.56,1.81l0,0a2,2,0,0,0,2.83,0,2.62,2.62,0,0,0,.55-1.81v-7.49a8.34,8.34,0,0,0-.49-3.28A4,4,0,0,0,225.49,187.73Z"/><path class="cls-1" d="M244.46,195.37a1.92,1.92,0,0,0,.83-1.87,6.47,6.47,0,0,0-.8-3.07,6.17,6.17,0,0,0-2.41-2.45,7.45,7.45,0,0,0-3.86-.95,8.65,8.65,0,0,0-3.15.56,6.43,6.43,0,0,0-2.39,1.59,7,7,0,0,0-1.48,2.5,9.62,9.62,0,0,0-.5,3.15,8,8,0,0,0,2.05,5.73,7.59,7.59,0,0,0,5.73,2.11,9.26,9.26,0,0,0,2.86-.42,7.15,7.15,0,0,0,2.07-1.07,4.88,4.88,0,0,0,1.23-1.33,2.46,2.46,0,0,0,.4-1.22,1.15,1.15,0,0,0-.36-.91,1.39,1.39,0,0,0-1-.32,1.28,1.28,0,0,0-.85.25c-.48.45-.86.81-1.17,1.07a8.68,8.68,0,0,1-1,.74,4.05,4.05,0,0,1-1.1.5,4.64,4.64,0,0,1-1.28.17,3.63,3.63,0,0,1-1.87-.51,3.7,3.7,0,0,1-1.37-1.51,5.07,5.07,0,0,1-.52-2.3h7.51A5.17,5.17,0,0,0,244.46,195.37Zm-9.87-1.74a4.92,4.92,0,0,1,1.11-2.93,3.07,3.07,0,0,1,2.36-1,3.19,3.19,0,0,1,2.43,1,4.67,4.67,0,0,1,1.06,2.94Z"/><path class="cls-1" d="M256.08,199.46a4.65,4.65,0,0,0-.9.13,5.39,5.39,0,0,1-.91.11,1.17,1.17,0,0,1-.89-.3,1.44,1.44,0,0,1-.34-.79,10.62,10.62,0,0,1-.06-1.38v-7.06h.72a3.93,3.93,0,0,0,1.75-.31,1.11,1.11,0,0,0,.63-1.08,1.27,1.27,0,0,0-.42-1,1.8,1.8,0,0,0-1.28-.39h-1.44v-2.61a7.57,7.57,0,0,0-.1-1.5,1.64,1.64,0,0,0-.49-.89,1.9,1.9,0,0,0-1.33-.55,1.81,1.81,0,0,0-.94.25,1.84,1.84,0,0,0-.64.63,2.51,2.51,0,0,0-.27.91,11.63,11.63,0,0,0,0,1.46v2.3h-.42a2.07,2.07,0,0,0-1.32.41,1.27,1.27,0,0,0-.45,1,1.3,1.3,0,0,0,.43,1,1.82,1.82,0,0,0,1.27.39h.51v7.33a11.48,11.48,0,0,0,.29,2.86,2.79,2.79,0,0,0,1.22,1.67,5,5,0,0,0,2.72.64,6.9,6.9,0,0,0,2.91-.49,1.54,1.54,0,0,0,1-1.42,1.25,1.25,0,0,0-.37-.93A1.19,1.19,0,0,0,256.08,199.46Z"/><path class="cls-1" d="M268,187.7a5.07,5.07,0,0,0-2.35-.64,2.94,2.94,0,0,0-1.91.64,6.77,6.77,0,0,0-1.4,1.79,3.4,3.4,0,0,0-.47-1.79,1.56,1.56,0,0,0-1.38-.64c-1.24,0-1.87.87-1.87,2.59v10.66a2.53,2.53,0,0,0,.54,1.74,1.72,1.72,0,0,0,1.36.59,1.79,1.79,0,0,0,1.39-.58,2.47,2.47,0,0,0,.55-1.75v-3.18c0-1.15,0-2.13.1-2.94a8.63,8.63,0,0,1,.41-2.07,2.74,2.74,0,0,1,.82-1.31,2.13,2.13,0,0,1,1.39-.45,4.86,4.86,0,0,1,1.41.3,5.09,5.09,0,0,0,1,.26,1.47,1.47,0,0,0,1-.46,1.53,1.53,0,0,0,.49-1.16A1.81,1.81,0,0,0,268,187.7Z"/><path class="cls-1" d="M283.68,195.37a1.92,1.92,0,0,0,.83-1.87,6.59,6.59,0,0,0-.8-3.07A6.37,6.37,0,0,0,281.3,188a7.45,7.45,0,0,0-3.86-.95,8.4,8.4,0,0,0-3.18.56,6.35,6.35,0,0,0-2.39,1.59,7,7,0,0,0-1.48,2.5,9.9,9.9,0,0,0-.51,3.15,8,8,0,0,0,2.06,5.73,7.59,7.59,0,0,0,5.73,2.11,9.26,9.26,0,0,0,2.86-.42,7.15,7.15,0,0,0,2.07-1.07,4.88,4.88,0,0,0,1.23-1.33,2.46,2.46,0,0,0,.4-1.22,1.15,1.15,0,0,0-.36-.91,1.4,1.4,0,0,0-1-.32,1.27,1.27,0,0,0-.84.25c-.48.45-.86.81-1.17,1.07a8.68,8.68,0,0,1-1,.74,4.05,4.05,0,0,1-1.1.5,4.64,4.64,0,0,1-1.28.17,3.56,3.56,0,0,1-3.24-2,5.21,5.21,0,0,1-.53-2.3h7.51A5.08,5.08,0,0,0,283.68,195.37Zm-9.91-1.74a5,5,0,0,1,1.12-2.93,3.07,3.07,0,0,1,2.36-1,3.19,3.19,0,0,1,2.43,1,4.6,4.6,0,0,1,1.05,2.94Z"/><path class="cls-1" d="M300.79,195.37a1.91,1.91,0,0,0,.82-1.87,6.47,6.47,0,0,0-.8-3.07A6.17,6.17,0,0,0,298.4,188a7.41,7.41,0,0,0-3.85-.95,8.48,8.48,0,0,0-3.19.56,6.39,6.39,0,0,0-2.38,1.59,6.83,6.83,0,0,0-1.48,2.5,9.37,9.37,0,0,0-.51,3.15,8,8,0,0,0,2.06,5.73,7.59,7.59,0,0,0,5.73,2.11,9.2,9.2,0,0,0,2.85-.42,6.9,6.9,0,0,0,2.07-1.07,4.73,4.73,0,0,0,1.23-1.33,2.57,2.57,0,0,0,.41-1.22,1.15,1.15,0,0,0-.36-.91,1.41,1.41,0,0,0-1-.32,1.29,1.29,0,0,0-.85.25c-.47.45-.86.81-1.16,1.07a8,8,0,0,1-1,.74,4.05,4.05,0,0,1-1.1.5,4.52,4.52,0,0,1-1.27.17,3.55,3.55,0,0,1-3.24-2,5.21,5.21,0,0,1-.53-2.3h7.51A5.11,5.11,0,0,0,300.79,195.37Zm-9.91-1.74A5,5,0,0,1,292,190.7a3,3,0,0,1,2.36-1,3.16,3.16,0,0,1,2.42,1,4.61,4.61,0,0,1,1.06,2.94Z"/><path class="cls-1" d="M202.53,212.43a8.27,8.27,0,1,0,8.26,8.26A8.26,8.26,0,0,0,202.53,212.43Z"/><path class="cls-1" d="M295.26,212.43a8.27,8.27,0,1,0,8.26,8.26A8.26,8.26,0,0,0,295.26,212.43Z"/><path class="cls-1" d="M324.81,212.43a8.27,8.27,0,1,0,8.26,8.26A8.26,8.26,0,0,0,324.81,212.43Z"/><path class="cls-1" d="M174.49,207.29l-4.85,1.1v11.38l2.58.59-1,.2v7.77l2.88.6a7.25,7.25,0,0,0,2.86,0l3.26-.64v-7.7l-1.24-.23,2.83-.59V208.39l-5.37-1.1A4.58,4.58,0,0,0,174.49,207.29Z"/><circle class="cls-1" cx="157.82" cy="168.65" r="4.22"/><circle class="cls-1" cx="157.82" cy="237.53" r="4.22"/><path class="cls-1" d="M419.07,164.43a4.22,4.22,0,1,0,4.22,4.22A4.23,4.23,0,0,0,419.07,164.43Z"/><path class="cls-1" d="M419.07,233.31a4.22,4.22,0,1,0,4.22,4.22A4.22,4.22,0,0,0,419.07,233.31Z"/></svg>