<svg xmlns="http://www.w3.org/2000/svg" viewBox="0 0 480 320"><defs><style>.cls-1{fill:#000;}</style></defs><title>Lindemann Musicbook</title><g id="Layer_4" data-name="Layer 4"><path class="cls-1" d="M449.86,136.36l.07-.27L310.58,95.35a34,34,0,0,0-9.25-1.28H37.66a12.73,12.73,0,0,0-12.72,12.71v40.27a36.66,36.66,0,0,0,6.6,21l35.18,50.55c1.77,7.29,10.19,7.29,14.48,7.29h359c4.81,0,14.82,0,14.82-10.27V145.05C455.06,139.6,452,137.3,449.86,136.36ZM32.94,147.05V106.78a4.72,4.72,0,0,1,4.72-4.71H301.33a26,26,0,0,1,7,1l110,32.15H80.88c-3.22,0-6.29,0-8.88,1-2.1.81-5.62,3-5.62,8.86v59.1L38.11,163.52A28.71,28.71,0,0,1,32.94,147.05Zm277.33-3.86V147h-2.4v-3.82ZM382.63,147v-3.82H385V147Zm-2,0h-2.4v-3.82h2.4Zm-4.4,0h-2.39v-3.82h2.39Zm-4.39,0h-2.4v-3.82h2.4Zm-4.4,0H365v-3.82h2.4Zm-4.4,0h-2.4v-3.82H363Zm-4.4,0h-2.39v-3.82h2.39Zm-4.39,0h-2.4v-3.82h2.4Zm-4.4,0h-2.4v-3.82h2.4Zm-4.4,0h-2.4v-3.82h2.4Zm-4.4,0h-2.39v-3.82h2.39Zm-4.39,0h-2.4v-3.82h2.4Zm-4.4,0h-2.4v-3.82h2.4Zm-4.4,0h-2.4v-3.82h2.4Zm-4.4,0h-2.39v-3.82h2.39Zm-4.39,0h-2.4v-3.82h2.4Zm-4.4,0h-2.4v-3.82h2.4Zm95.49,5a1.89,1.89,0,0,1,1.89,1.89v53.89a1.89,1.89,0,0,1-1.89,1.89H110.75a1.89,1.89,0,0,1-1.89-1.89V153.9a1.89,1.89,0,0,1,1.89-1.89ZM387,147v-3.82h2.4V147Zm60,68.65c0,1.61,0,2.27-6.82,2.27H81.2a25,25,0,0,1-5.49-.37l-1.33-1.91v-70.6a2.61,2.61,0,0,1,.19-1.23c.55-.61,4.06-.63,6.1-.63h225.2V147H110.75a6.89,6.89,0,0,0-6.89,6.89v53.89a6.9,6.9,0,0,0,6.89,6.89H410.16a6.89,6.89,0,0,0,6.89-6.89V153.9a6.88,6.88,0,0,0-6.89-6.89H391.43v-3.82h49.13c2,0,5.74,0,6.31.63a2.61,2.61,0,0,1,.19,1.23Z"/><path class="cls-1" d="M376.74,201.3a8.37,8.37,0,1,0-8.36-8.36A8.38,8.38,0,0,0,376.74,201.3Zm0-11.73a3.37,3.37,0,1,1-3.36,3.37A3.37,3.37,0,0,1,376.74,189.57Z"/></g></svg>