<svg id="Artwork" xmlns="http://www.w3.org/2000/svg" viewBox="0 0 480 320"><defs><style>.cls-1{fill:#000;}</style></defs><path class="cls-1" d="M428.55,144.39,312.73,78.91a42.46,42.46,0,0,0-21.85-6H64c-11.16,0-20.23,8.8-20.23,19.63v59.77a15.52,15.52,0,0,0,6.27,12.37l93.16,78.73.1-.12a10.69,10.69,0,0,0,8.22,3.84H425.48a10.74,10.74,0,0,0,10.73-10.73V154.67A10.75,10.75,0,0,0,428.55,144.39ZM290.88,80.89a34.44,34.44,0,0,1,17.77,4.9l102.84,58.14h-260a10.73,10.73,0,0,0-4.29.9L58.71,82.05A12.69,12.69,0,0,1,64,80.89Zm-236,77.41a7.5,7.5,0,0,1-3.12-6V92.52a11.18,11.18,0,0,1,1.09-4.79l88.72,62.9a10.66,10.66,0,0,0-.8,4v76.2l-85.67-72.4Zm373.3,78.08a2.73,2.73,0,0,1-2.73,2.73H151.54a2.74,2.74,0,0,1-2.74-2.73V154.67a2.74,2.74,0,0,1,2.74-2.74H425.48l.2,0,1.57.89.09-.16a2.71,2.71,0,0,1,.87,2Z"/><path class="cls-1" d="M195.64,193.43a1.58,1.58,0,0,0-.55-1.23,2.18,2.18,0,0,0-1.55-.5h-8.46v-15a2.74,2.74,0,0,0-.57-1.91,2,2,0,0,0-1.53-.63,1.9,1.9,0,0,0-1.5.63,2.75,2.75,0,0,0-.56,1.91v15.89a2.21,2.21,0,0,0,0,.81,2.17,2.17,0,0,0,2.54,1.73h10.08a2.34,2.34,0,0,0,1.57-.47A1.59,1.59,0,0,0,195.64,193.43Z"/><path class="cls-1" d="M201.42,180.46a1.89,1.89,0,0,0-1.4-.58,1.75,1.75,0,0,0-1.37.58,2.44,2.44,0,0,0-.52,1.71v10.94a2.48,2.48,0,0,0,.52,1.72,1.74,1.74,0,0,0,1.37.64,1.85,1.85,0,0,0,1.4-.59,2.48,2.48,0,0,0,.54-1.74V182.05h0A2.22,2.22,0,0,0,201.42,180.46Z"/><path class="cls-1" d="M200.05,178.08a2,2,0,0,0,1.33-.49,1.82,1.82,0,0,0,.56-1.39,1.73,1.73,0,0,0-.58-1.4,2,2,0,0,0-1.32-.47,1.89,1.89,0,0,0-1.35.53l0,0a1.9,1.9,0,0,0,0,2.7A2,2,0,0,0,200.05,178.08Z"/><path class="cls-1" d="M225.49,180.55a5.59,5.59,0,0,0-2.72-.64,5.29,5.29,0,0,0-2.46.57,6.73,6.73,0,0,0-2.08,1.75,4.56,4.56,0,0,0-1.71-1.75,5.14,5.14,0,0,0-2.49-.57,5.62,5.62,0,0,0-2.55.56,6.73,6.73,0,0,0-2.14,1.76v-.37a2,2,0,0,0-.53-1.45,1.78,1.78,0,0,0-1.31-.53,1.67,1.67,0,0,0-1.31.56,2.4,2.4,0,0,0-.5,1.65V193a2.63,2.63,0,0,0,.55,1.81,1.85,1.85,0,0,0,1.43.63,1.82,1.82,0,0,0,1.43-.63,2.68,2.68,0,0,0,.54-1.81v-5.18a9.26,9.26,0,0,1,.59-3.72,2.46,2.46,0,0,1,2.49-1.27,1.7,1.7,0,0,1,1.38.51,2.56,2.56,0,0,1,.53,1.32,18.56,18.56,0,0,1,.1,2.24v6.12a2.63,2.63,0,0,0,.54,1.81,1.82,1.82,0,0,0,1.41.64,1.85,1.85,0,0,0,1.45-.64,2.56,2.56,0,0,0,.54-1.81V188a9.65,9.65,0,0,1,.45-3.45,3,3,0,0,1,1.06-1.21,2.55,2.55,0,0,1,1.44-.44,1.8,1.8,0,0,1,1.4.5,2.32,2.32,0,0,1,.58,1.27,16.41,16.41,0,0,1,.1,2v6.48a2.58,2.58,0,0,0,.56,1.81l0,0a2,2,0,0,0,2.83,0,2.66,2.66,0,0,0,.55-1.82V185.6a8.29,8.29,0,0,0-.49-3.28A3.94,3.94,0,0,0,225.49,180.55Z"/><path class="cls-1" d="M244.46,188.19a1.92,1.92,0,0,0,.83-1.88,6.43,6.43,0,0,0-.8-3.06,6.17,6.17,0,0,0-2.41-2.45,7.45,7.45,0,0,0-3.86-1,8.43,8.43,0,0,0-3.15.55,6.45,6.45,0,0,0-2.39,1.6,7,7,0,0,0-1.48,2.49,9.68,9.68,0,0,0-.5,3.16,8,8,0,0,0,2.05,5.72,7.56,7.56,0,0,0,5.73,2.11,8.7,8.7,0,0,0,2.86-.42,6.88,6.88,0,0,0,2.07-1.06,5.07,5.07,0,0,0,1.23-1.34,2.39,2.39,0,0,0,.4-1.21,1.14,1.14,0,0,0-.36-.91,1.4,1.4,0,0,0-1-.33,1.23,1.23,0,0,0-.85.26c-.48.45-.86.8-1.17,1.06a8.68,8.68,0,0,1-1,.74,4.41,4.41,0,0,1-1.1.51,4.63,4.63,0,0,1-1.28.16,3.53,3.53,0,0,1-1.87-.51,3.67,3.67,0,0,1-1.37-1.5,5.12,5.12,0,0,1-.52-2.3h7.51A5.17,5.17,0,0,0,244.46,188.19Zm-9.87-1.75a4.92,4.92,0,0,1,1.11-2.93,3.11,3.11,0,0,1,2.36-1,3.19,3.19,0,0,1,2.43,1,4.71,4.71,0,0,1,1.06,2.94Z"/><path class="cls-1" d="M256.08,192.28a4.63,4.63,0,0,0-.9.12,4.53,4.53,0,0,1-.91.12,1.21,1.21,0,0,1-.89-.3,1.48,1.48,0,0,1-.34-.79,10.62,10.62,0,0,1-.06-1.38V183h.72a4.08,4.08,0,0,0,1.75-.31,1.12,1.12,0,0,0,.63-1.08,1.31,1.31,0,0,0-.42-1,1.84,1.84,0,0,0-1.28-.38h-1.44v-2.61a7.47,7.47,0,0,0-.1-1.5,1.64,1.64,0,0,0-.49-.9,2,2,0,0,0-1.33-.55,1.91,1.91,0,0,0-.94.25,2,2,0,0,0-.64.64,2.4,2.4,0,0,0-.27.91,11.45,11.45,0,0,0,0,1.45v2.31h-.42a2,2,0,0,0-1.32.41,1.24,1.24,0,0,0-.45,1,1.28,1.28,0,0,0,.43,1,1.83,1.83,0,0,0,1.27.4h.51v7.33a11.36,11.36,0,0,0,.29,2.85,2.84,2.84,0,0,0,1.22,1.68,5,5,0,0,0,2.72.63,6.9,6.9,0,0,0,2.91-.49,1.53,1.53,0,0,0,1-1.42,1.23,1.23,0,0,0-.37-.92A1.15,1.15,0,0,0,256.08,192.28Z"/><path class="cls-1" d="M268,180.51a5,5,0,0,0-2.35-.63,2.93,2.93,0,0,0-1.91.63,6.93,6.93,0,0,0-1.4,1.79,3.45,3.45,0,0,0-.47-1.79,1.58,1.58,0,0,0-1.38-.63c-1.24,0-1.87.87-1.87,2.59v10.66a2.52,2.52,0,0,0,.54,1.73,1.76,1.76,0,0,0,1.36.6,1.86,1.86,0,0,0,1.39-.58,2.47,2.47,0,0,0,.55-1.75v-3.19c0-1.15,0-2.12.1-2.93a8.71,8.71,0,0,1,.41-2.08,2.79,2.79,0,0,1,.82-1.31,2.06,2.06,0,0,1,1.38-.44,4.34,4.34,0,0,1,1.42.3,5.09,5.09,0,0,0,1,.26,1.51,1.51,0,0,0,1-.46,1.54,1.54,0,0,0,.49-1.16A1.83,1.83,0,0,0,268,180.51Z"/><path class="cls-1" d="M283.68,188.19a1.92,1.92,0,0,0,.83-1.88,6.44,6.44,0,0,0-.81-3.06,6.15,6.15,0,0,0-2.4-2.45,7.45,7.45,0,0,0-3.86-1,8.59,8.59,0,0,0-3.18.55,6.26,6.26,0,0,0-2.39,1.6,7,7,0,0,0-1.48,2.49,10,10,0,0,0-.51,3.16,8,8,0,0,0,2.06,5.72,7.56,7.56,0,0,0,5.73,2.11,8.7,8.7,0,0,0,2.86-.42A6.88,6.88,0,0,0,282.6,194a5.07,5.07,0,0,0,1.23-1.34,2.39,2.39,0,0,0,.4-1.21,1.14,1.14,0,0,0-.36-.91,1.41,1.41,0,0,0-1-.33,1.22,1.22,0,0,0-.84.26c-.48.45-.86.8-1.17,1.06a8.68,8.68,0,0,1-1,.74,4.41,4.41,0,0,1-1.1.51,4.63,4.63,0,0,1-1.28.16,3.55,3.55,0,0,1-3.24-2,5.27,5.27,0,0,1-.53-2.3h7.51A5.34,5.34,0,0,0,283.68,188.19Zm-9.91-1.75a5,5,0,0,1,1.12-2.93,3.11,3.11,0,0,1,2.36-1,3.19,3.19,0,0,1,2.43,1,4.64,4.64,0,0,1,1.05,2.94Z"/><path class="cls-1" d="M300.79,188.19c.55-.29.82-.91.82-1.88a6.43,6.43,0,0,0-.8-3.06,6.17,6.17,0,0,0-2.41-2.45,7.41,7.41,0,0,0-3.85-1,8.68,8.68,0,0,0-3.19.55A6.3,6.3,0,0,0,289,182a6.87,6.87,0,0,0-1.48,2.49,9.43,9.43,0,0,0-.51,3.16,8,8,0,0,0,2.06,5.72,7.56,7.56,0,0,0,5.73,2.11,8.64,8.64,0,0,0,2.85-.42A6.66,6.66,0,0,0,299.7,194a4.91,4.91,0,0,0,1.23-1.34,2.5,2.5,0,0,0,.41-1.21,1.14,1.14,0,0,0-.36-.91,1.43,1.43,0,0,0-1-.33,1.24,1.24,0,0,0-.84.26c-.47.45-.86.8-1.16,1.06a8,8,0,0,1-1,.74,4.41,4.41,0,0,1-1.1.51,4.52,4.52,0,0,1-1.27.16,3.54,3.54,0,0,1-3.24-2,5.27,5.27,0,0,1-.53-2.3h7.51A5.37,5.37,0,0,0,300.79,188.19Zm-9.91-1.75a5,5,0,0,1,1.12-2.93,3.08,3.08,0,0,1,2.36-1,3.16,3.16,0,0,1,2.42,1,4.65,4.65,0,0,1,1.06,2.94Z"/><path class="cls-1" d="M202.53,205.24a8.27,8.27,0,1,0,8.26,8.27A8.27,8.27,0,0,0,202.53,205.24Z"/><path class="cls-1" d="M295.26,205.24a8.27,8.27,0,1,0,8.26,8.27A8.27,8.27,0,0,0,295.26,205.24Z"/><path class="cls-1" d="M324.81,205.24a8.27,8.27,0,1,0,8.26,8.27A8.27,8.27,0,0,0,324.81,205.24Z"/><path class="cls-1" d="M174.49,200.1l-4.85,1.1v11.39l2.58.58-1,.21v7.76l2.88.6a7.25,7.25,0,0,0,2.86,0l3.26-.63v-7.7l-1.24-.24,2.83-.58V201.2l-5.37-1.1A4.58,4.58,0,0,0,174.49,200.1Z"/><circle class="cls-1" cx="157.82" cy="161.47" r="4.22"/><circle class="cls-1" cx="157.82" cy="230.34" r="4.22"/><path class="cls-1" d="M419.07,157.25a4.22,4.22,0,1,0,4.22,4.22A4.22,4.22,0,0,0,419.07,157.25Z"/><path class="cls-1" d="M419.07,226.12a4.22,4.22,0,1,0,4.22,4.22A4.23,4.23,0,0,0,419.07,226.12Z"/></svg>