<svg xmlns="http://www.w3.org/2000/svg" viewBox="0 0 480 320"><defs><style>.cls-1{fill:#000;}</style></defs><g id="Layer_1" data-name="Layer 1"><g id="Layer_6" data-name="Layer 6"><path class="cls-1" d="M413.16,197.84h0a2.5,2.5,0,0,0,.28,1l.34.65a2.59,2.59,0,0,0,.74.87l.57.42a2.51,2.51,0,0,0,.64.36h.13a2.57,2.57,0,0,0,1,.4l.72.11H418a2.76,2.76,0,0,0,.57-.06l.78-.18a2.78,2.78,0,0,0,.74-.29l.76-.45a2.87,2.87,0,0,0,.55-.44l.63-.65a3.17,3.17,0,0,0,.4-.56l.43-.79a2.85,2.85,0,0,0,.25-.69l.18-.83a2.48,2.48,0,0,0,0-.86l-.1-.77a2.52,2.52,0,0,0-.33-1l-.36-.61a2.42,2.42,0,0,0-.78-.84l-.38-.25a1.08,1.08,0,0,0-.24-.18l-.42-.28a2.74,2.74,0,0,0-.9-.38l-.72-.15a2.8,2.8,0,0,0-1,0l-.8.14a2.61,2.61,0,0,0-.77.27l-.78.42a2.73,2.73,0,0,0-.58.43l-.66.64a2.06,2.06,0,0,0-.42.55l-.47.79a2.68,2.68,0,0,0-.27.68l-.21.84a2.7,2.7,0,0,0-.07.85Z"/><path class="cls-1" d="M346.53,181.28l.23,3a2.54,2.54,0,0,0,0,.39l.6,2.89a1.82,1.82,0,0,0,.11.4l.94,2.73a1.15,1.15,0,0,0,.17.4l1.28,2.44a3.64,3.64,0,0,0,.23.39l1.6,2.24a2.6,2.6,0,0,0,.3.36l1.89,2a3.47,3.47,0,0,0,.34.32l2.14,1.64a2.65,2.65,0,0,0,.39.26l2.38,1.33a2.87,2.87,0,0,0,.4.18l2.58,1,.41.13,2.73.62.41.07,2.85.27h2.54l2.61.5a3.23,3.23,0,0,0,.44,0l2.72.13h.43l2.78-.23h.39l2.82-.61.36-.1,2.79-.95.33-.13,2.74-1.31a1.18,1.18,0,0,0,.29-.16l2.64-1.61a2.11,2.11,0,0,0,.27-.18l2.44-1.89.24-.21,2.3-2.16a1.7,1.7,0,0,0,.22-.24l2.09-2.44.18-.24L402,189.9c.06-.09.12-.17.17-.26l1.55-2.73.15-.28,1.22-2.84c0-.11.09-.2.12-.31l.92-2.9.09-.34.57-2.92a.76.76,0,0,1,.06-.36l.22-2.9v-.39l-.13-2.82v-.4l-.49-2.7a3.15,3.15,0,0,0-.11-.44l-.83-2.54a2.35,2.35,0,0,0-.19-.43L404.06,162c-.08-.14-.16-.28-.25-.41l-1.51-2.09a2,2,0,0,0-.33-.39l-.11-.11-.26-.65a2.59,2.59,0,0,0-.14-.29l-1.3-2.44c-.08-.14-.16-.27-.25-.4L398.29,153a2.52,2.52,0,0,0-.3-.35l-1.92-1.92-.35-.31-2.08-1.56a3.45,3.45,0,0,0-.41-.25l-2.44-1.29a2.65,2.65,0,0,0-.42-.18l-2.63-1-.43-.11-2.81-.58-.41-.06-2.95-.21h-.39l-3,.17h-.38l-3.08.56a.63.63,0,0,0-.35.07l-3.07.94-.33.11-3,1.3-.29.15-2.87,1.68-.27.17-2.79,2-.26.2-2.64,2.25-.23.22-2.44,2.44a2.05,2.05,0,0,0-.2.23l-2.16,2.8-.18.24-1.87,2.92a1.17,1.17,0,0,0-.15.27L349.68,167l-.14.29-1.22,3.14a.94.94,0,0,1-.11.32l-.86,3.18a2,2,0,0,0-.08.33l-.51,3.18v.36l-.13,3.13C346.52,181,346.53,181.16,346.53,181.28Zm20.25-1,.6-2.37.92-2.37,1.22-2.29L371,171.1l1.73-2,1.94-1.78,2.1-1.5,2.2-1.22,2.29-.93,2.21-.6,2.18-.27h2.09l1.93.35,1.77.64,1.57.89,1.37,1.14,1.22,1.38.93,1.6.7,1.8.41,2,.14,2.14-.17,2.23-.48,2.3-.77,2.31-1.07,2.27L394,186l-1.57,2-1.78,1.84-2,1.62-2.07,1.37-2.16,1.08-2.19.78-2.17.47-2.12.18-2-.15-1.87-.43-1.69-.69-1.52-1-1.32-1.22-1.11-1.44-.88-1.67-.62-1.88-.34-2.08v-2.21Zm6-23.76a1.49,1.49,0,0,0-.3.18l-2.68,1.75-.27.21-2.44,2.1a1,1,0,0,0-.24.22l-2.29,2.37-.22.24-2,2.59c0,.08-.14.18-.19.27l-1.74,2.77-.16.29-1.42,2.91a3.05,3.05,0,0,0-.13.32l-1.08,3a1.89,1.89,0,0,0-.09.34l-.71,3a2.45,2.45,0,0,0-.08.37l-.33,3a2.67,2.67,0,0,0,0,.4v.59l-.26-1.16-.21-2.44.12-2.54.44-2.57.76-2.61,1.08-2.58,1.38-2.44,1.66-2.44,1.91-2.19,2.11-2,2.28-1.72,2.45-1.43,2.44-1.12,1.93-.61Z"/><path class="cls-1" d="M301.12,190.12a3.34,3.34,0,0,0,.17.71l.7,1.95a3,3,0,0,0,.33.7l1.08,1.71a4.85,4.85,0,0,0,.49.63l1.43,1.42.38.33,10.9,8.32a5.39,5.39,0,0,0,.5.33l1.5.9a3.5,3.5,0,0,0,.71.32l2,.67a4.29,4.29,0,0,0,.71.16l2.17.24h.66l2.27-.18a3.29,3.29,0,0,0,.61-.12l2.26-.61a2.49,2.49,0,0,0,.54-.2l2.19-1a2.12,2.12,0,0,0,.49-.27l2-1.42a3,3,0,0,0,.43-.35l1.82-1.68a3.24,3.24,0,0,0,.36-.38l1.55-1.95.3-.44,1.19-2.12a3.65,3.65,0,0,0,.25-.53L342,195a4,4,0,0,0,.16-.57l.41-2.28c0-.21,0-.43,0-.64v-2.22a4.19,4.19,0,0,0-.09-.7l-.44-2.09a3.07,3.07,0,0,0-.22-.71l-.86-1.89a3.4,3.4,0,0,0-.41-.69l-1.24-1.62a3.84,3.84,0,0,0-.57-.57l-1-.84a4.72,4.72,0,0,0-.59-.5L325.7,172l-.22-.14a3.28,3.28,0,0,0-.37-.22l-1.83-.89a3.2,3.2,0,0,0-.71-.26l-2.05-.5a3.34,3.34,0,0,0-.7-.08l-2.19-.07a2.43,2.43,0,0,0-.66,0l-2.23.35a2.41,2.41,0,0,0-.6.16l-2.22.77a2.79,2.79,0,0,0-.53.24l-2.12,1.15-.45.31-1.94,1.51a4.59,4.59,0,0,0-.39.37l-1.68,1.81a3.5,3.5,0,0,0-.33.43l-1.35,2a3.1,3.1,0,0,0-.29.5l-1,2.17a3.73,3.73,0,0,0-.2.56l-.57,2.25a2.6,2.6,0,0,0-.11.62l-.15,2.22a4,4,0,0,0,0,.69ZM318.74,194l.44-1.71.78-1.71L321,189l1.34-1.42,1.55-1.22,1.71-.94,1.68-.6,1.67-.28h1.53l1.43.31,1.16.55,1,.77.77,1,.55,1.19.3,1.42v1.54l-.28,1.65-.63,1.69-.92,1.65-1.2,1.52-1.42,1.34-1.58,1.07L328,201l-1.68.46-1.6.15-1.43-.15L322,201l-1.09-.64-.89-.85-.68-1.07-.45-1.28-.19-1.42ZM323,178.92a2.94,2.94,0,0,0-.51.23l-2.18,1.21a4.53,4.53,0,0,0-.46.3l-2,1.56a3.41,3.41,0,0,0-.39.37l-1.73,1.85c-.12.14-.23.28-.34.43L314,187a4.67,4.67,0,0,0-.27.49l-1,2.23a2.64,2.64,0,0,0-.19.56l-.62,2.3a4.31,4.31,0,0,0-.1.61v.35L310,192.14l-1-.95-.67-1-.45-1.24-.19-1.43.1-1.6.42-1.61.74-1.65,1-1.55,1.29-1.43,1.49-1.16,1.61-.9,1.65-.58,1.61-.28h1.49l1.34.3,1.31.64,1.56,1.07Z"/></g><path class="cls-1" d="M441.09,120.75a4.26,4.26,0,0,0-.06-.5.57.57,0,0,0-.07-.33,3.57,3.57,0,0,0-.16-.46.78.78,0,0,0-.13-.3,3.35,3.35,0,0,0-.27-.45c0-.08-.1-.17-.16-.25a5.66,5.66,0,0,0-.42-.43l-.14-.15a4.7,4.7,0,0,0-.59-.4l-.12-.08L317.3,54.4a4,4,0,0,0-2.46-.4L43.66,97h-.1a3.65,3.65,0,0,0-.74-.08,4,4,0,0,0-4,4V187.4a4,4,0,0,0,1.8,3.34L154,265.5l.12.07.22.12a2.64,2.64,0,0,0,.38.18l.21.08a3.74,3.74,0,0,0,.45.12h.17a3.49,3.49,0,0,0,.65.06,3.36,3.36,0,0,0,.63-.06h.08l281-50.82a4,4,0,0,0,3.29-3.93v-90.4C441.11,120.85,441.09,120.85,441.09,120.75ZM152.16,254.66,46.8,185.24V107.11L152.16,172ZM55.57,103.17l259.2-41.1,110,57L157,165.6Zm231.82,131L160.16,257.36V173.17l127.23-22.42ZM433.11,208l-85.33,15.43v0l-8,1.42v0l-24.24,4.39v-.09l-8,1.42v.1l-12.15,2.07v-82.6a5.54,5.54,0,0,0-.07-.81l12.22-1.83h0l8-1.39h0l24.26-4.22,0,0,9.26-1.61v0l84.05-14.62Z"/></g></svg>