<svg xmlns="http://www.w3.org/2000/svg" viewBox="0 0 480 320"><defs><style>.cls-1{fill:#000;}</style></defs><title>Steinway Lyngdorf MP 50</title><g id="Layer_6" data-name="Layer 6"><path class="cls-1" d="M423.31,203.94h0a2.58,2.58,0,0,0,.28,1l.34.65a2.59,2.59,0,0,0,.74.87l.57.42a2.7,2.7,0,0,0,.64.36l.13,0a2.59,2.59,0,0,0,1,.4l.72.11a2.56,2.56,0,0,0,.39,0,2.76,2.76,0,0,0,.57-.06l.78-.18a2.54,2.54,0,0,0,.74-.29l.76-.45a2.59,2.59,0,0,0,.55-.44l.63-.65a2.73,2.73,0,0,0,.4-.56l.43-.79a2.49,2.49,0,0,0,.25-.69l.18-.83a2.48,2.48,0,0,0,0-.86l-.1-.77a2.43,2.43,0,0,0-.33-1l-.36-.61a2.42,2.42,0,0,0-.78-.84l-.38-.25a1.08,1.08,0,0,0-.24-.18l-.42-.28a2.74,2.74,0,0,0-.9-.38l-.72-.15a2.69,2.69,0,0,0-1,0l-.8.14a2.61,2.61,0,0,0-.77.27l-.78.42a2.64,2.64,0,0,0-.58.43l-.66.64a2.23,2.23,0,0,0-.42.55l-.47.79a2.68,2.68,0,0,0-.27.68l-.21.84a2.7,2.7,0,0,0-.07.85Z"/><path class="cls-1" d="M356.42,188.68l.19,2.48a3.11,3.11,0,0,0,0,.32l.49,2.37a1.59,1.59,0,0,0,.09.33l.77,2.23c0,.11.09.22.14.33l1.05,2a3.37,3.37,0,0,0,.19.32l1.31,1.83a2.25,2.25,0,0,0,.24.3l1.55,1.6a2.33,2.33,0,0,0,.28.26l1.75,1.35a2.92,2.92,0,0,0,.32.21l1.95,1.09a2.41,2.41,0,0,0,.33.15l2.11.81.34.1,2.23.51.34.06,2.33.22h.31l1.77,0,2.14.41a2.2,2.2,0,0,0,.36,0l2.23.11h.35l2.28-.19.32,0,2.31-.5.29-.08,2.29-.78.27-.11,2.24-1.07a1.36,1.36,0,0,0,.24-.13l2.16-1.32a1.43,1.43,0,0,0,.22-.15l2-1.55.2-.17,1.88-1.77a1.62,1.62,0,0,0,.18-.19l1.71-2,.15-.2,1.5-2.12c.05-.07.1-.14.14-.21l1.27-2.24.12-.23,1-2.32c0-.09.07-.17.1-.26l.75-2.37a2.86,2.86,0,0,0,.07-.28l.47-2.39c0-.1,0-.2.05-.3l.18-2.37c0-.11,0-.21,0-.32l-.11-2.31c0-.11,0-.22,0-.33l-.4-2.21a2.37,2.37,0,0,0-.09-.36l-.68-2.08a2.63,2.63,0,0,0-.15-.35l-1-1.91a3.87,3.87,0,0,0-.21-.34l-1.23-1.71a2.08,2.08,0,0,0-.27-.32l-.09-.09-.22-.53a2.56,2.56,0,0,0-.11-.24l-1.07-2a3.45,3.45,0,0,0-.2-.32l-1.33-1.8a2.09,2.09,0,0,0-.24-.28l-1.58-1.58-.28-.25L395,162.16a2.63,2.63,0,0,0-.33-.2l-2-1.06a2.52,2.52,0,0,0-.34-.15l-2.16-.78a2.25,2.25,0,0,0-.35-.09l-2.3-.48-.34-.05-2.41-.17c-.1,0-.21,0-.32,0l-2.48.14-.31,0-2.52.46c-.1,0-.19,0-.29.06l-2.51.77a1.71,1.71,0,0,0-.27.09l-2.48,1.06-.24.12L371,163.26l-.22.14-2.29,1.6-.21.16L366.12,167l-.19.18-2,2c-.06.06-.11.13-.16.19L362,171.66l-.15.2-1.53,2.39a.94.94,0,0,0-.12.22L359,177l-.11.24-1,2.57c0,.09-.06.18-.09.26l-.71,2.61a1.31,1.31,0,0,0-.06.27l-.42,2.6,0,.3-.11,2.56C356.41,188.47,356.42,188.58,356.42,188.68Zm16.59-.8.49-1.94.75-1.94,1-1.88,1.22-1.78,1.42-1.65,1.59-1.46L381.2,176l1.8-1,1.87-.76,1.81-.49,1.79-.22,1.71,0,1.58.29,1.45.52,1.29.73,1.12.93,1,1.13.76,1.31.57,1.48.34,1.63.11,1.75-.14,1.83-.39,1.88-.63,1.89-.88,1.86-1.09,1.77-1.29,1.66-1.46,1.51-1.6,1.33-1.7,1.12-1.77.88-1.79.64-1.78.39-1.73.14-1.64-.12-1.53-.35-1.39-.57-1.24-.78-1.08-1-.91-1.18-.72-1.37-.51-1.54-.28-1.7,0-1.81Zm4.87-19.46a1.28,1.28,0,0,0-.25.15L375.44,170l-.22.17-2,1.72a1.12,1.12,0,0,0-.2.18l-1.87,1.94-.18.2-1.66,2.12c0,.07-.11.15-.15.22l-1.43,2.27c-.05.08-.09.16-.13.24l-1.16,2.38a2,2,0,0,0-.11.26l-.88,2.44a2.29,2.29,0,0,0-.08.28l-.58,2.47a1.59,1.59,0,0,0-.06.3l-.27,2.44a1.83,1.83,0,0,0,0,.33v.48l-.22-.95-.17-2,.1-2.08.36-2.1.62-2.14.89-2.11,1.13-2,1.36-2,1.56-1.79,1.73-1.62,1.87-1.41,2-1.17,2-.92,1.58-.5Z"/><path class="cls-1" d="M281.1,202.19a2.15,2.15,0,0,0,.12.5l.49,1.37a2.75,2.75,0,0,0,.23.49l.76,1.2a2.94,2.94,0,0,0,.35.44l1,1a3.23,3.23,0,0,0,.27.23l7.66,5.85a4.14,4.14,0,0,0,.35.23l1.05.63a2.27,2.27,0,0,0,.5.23l1.4.47a3,3,0,0,0,.5.11l1.52.17h.47l1.59-.13a2.17,2.17,0,0,0,.43-.08l1.59-.43a1.74,1.74,0,0,0,.38-.14l1.54-.71a1.63,1.63,0,0,0,.34-.19l1.43-1a2.25,2.25,0,0,0,.3-.24l1.28-1.18a3.08,3.08,0,0,0,.25-.27l1.09-1.37.21-.31.84-1.49a2.48,2.48,0,0,0,.17-.37l.58-1.57a2.62,2.62,0,0,0,.11-.4l.29-1.6a3.27,3.27,0,0,0,0-.45v-1.56a2.73,2.73,0,0,0-.06-.49l-.31-1.47a2.24,2.24,0,0,0-.16-.5l-.6-1.33a2.36,2.36,0,0,0-.29-.48l-.87-1.14a2.52,2.52,0,0,0-.4-.4l-.72-.59a2.8,2.8,0,0,0-.41-.35l-8-5.45-.15-.1a2.2,2.2,0,0,0-.26-.15l-1.29-.63a2.3,2.3,0,0,0-.5-.18l-1.44-.35a2.73,2.73,0,0,0-.49-.06l-1.54-.05a2.37,2.37,0,0,0-.46,0l-1.57.25a1.85,1.85,0,0,0-.42.11l-1.56.54a2.48,2.48,0,0,0-.37.17l-1.49.81a3.62,3.62,0,0,0-.32.22l-1.36,1.06a3.45,3.45,0,0,0-.28.26l-1.18,1.27a2.37,2.37,0,0,0-.23.3l-.95,1.42a2.43,2.43,0,0,0-.2.35l-.69,1.53a3,3,0,0,0-.14.39l-.4,1.58a2.14,2.14,0,0,0-.08.44l-.1,1.56a1.93,1.93,0,0,0,0,.48Zm12.38,2.75.31-1.2.55-1.2.76-1.15.94-1,1.09-.86,1.2-.66,1.18-.42,1.17-.2,1.08,0,1,.22.82.39.68.54.54.69.39.83.21,1V203l-.2,1.16-.44,1.19-.65,1.16-.84,1.07-1,.94-1.11.75-1.17.55-1.18.32-1.13.11-1-.11-.9-.29-.77-.45-.62-.6-.48-.75-.32-.9-.13-1Zm3-10.62a2.32,2.32,0,0,0-.36.16l-1.53.85a2.2,2.2,0,0,0-.32.21l-1.39,1.1a1.73,1.73,0,0,0-.28.26l-1.21,1.3a3.15,3.15,0,0,0-.24.3l-1,1.47a2.27,2.27,0,0,0-.19.34l-.72,1.57a1.82,1.82,0,0,0-.14.39l-.43,1.62a2.14,2.14,0,0,0-.07.43l0,.24-1.25-.95-.69-.67-.47-.72-.32-.87-.13-1,.07-1.13.29-1.13.52-1.16.73-1.09.9-1,1.05-.82,1.13-.63,1.16-.41,1.13-.19,1.05,0,.94.21.92.45,1.1.75Z"/><path class="cls-1" d="M445.86,125.9a4.26,4.26,0,0,0-.06-.5c0-.11,0-.22-.07-.33a4.19,4.19,0,0,0-.16-.46c0-.1-.08-.2-.13-.3a3,3,0,0,0-.27-.45c-.05-.08-.1-.17-.16-.25a5.66,5.66,0,0,0-.42-.43l-.14-.15h0a4.7,4.7,0,0,0-.59-.4.5.5,0,0,1-.12-.08h0l-121.67-63a4,4,0,0,0-2.46-.4l-271.18,43-.1,0a3.57,3.57,0,0,0-.74-.08,4,4,0,0,0-4,4v86.48a4,4,0,0,0,1.8,3.34l113.36,74.76.12.07.22.12a3.26,3.26,0,0,0,.38.18l.21.08a3.74,3.74,0,0,0,.45.12l.17,0a3.57,3.57,0,0,0,.65.06,3.36,3.36,0,0,0,.63-.06h.08l281-50.82a4,4,0,0,0,3.29-3.93v-90.4C445.88,126,445.86,126,445.86,125.9ZM319.54,67.22l110,57L161.74,170.75,60.34,108.32ZM275.77,159l36.54-6.35v83.17l-36.47,6.59V159.81A4.9,4.9,0,0,0,275.77,159Zm-7.93,84.86L164.93,262.51V178.32l102.91-17.9Zm52.45-92.6,24.26-4.22V230l-24.24,4.39V151.5C320.31,151.43,320.29,151.37,320.29,151.3Zm-268.72-39,105.36,64.87v82.68L51.57,190.39ZM437.88,213.15l-85.33,15.43V145.69l85.33-14.84Z"/></g></svg>