<svg id="Artwork" xmlns="http://www.w3.org/2000/svg" viewBox="0 0 480 320"><defs><style>.cls-1{fill:#000;}</style></defs><g id="Layer_5" data-name="Layer 5"><path class="cls-1" d="M350.69,203.93a2.8,2.8,0,0,0-.36-1.1l-.41-.71a3.09,3.09,0,0,0-.91-1l-.42-.29-.29-.2-.48-.32a2.71,2.71,0,0,0-1-.43l-.82-.18a3,3,0,0,0-1.12,0l-.92.16a2.57,2.57,0,0,0-.88.31l-.89.48a2.86,2.86,0,0,0-.66.48l-.75.74a2.64,2.64,0,0,0-.48.62l-.54.91a2.7,2.7,0,0,0-.31.77l-.24,1a3.1,3.1,0,0,0-.08,1l.08.9h0a2.85,2.85,0,0,0,.32,1.11l.38.75a3.22,3.22,0,0,0,.85,1l.65.48a3.16,3.16,0,0,0,.74.41h.14a3.06,3.06,0,0,0,1.19.47l.84.13h.43a3.42,3.42,0,0,0,.64,0l.91-.22a2.92,2.92,0,0,0,.85-.32l.85-.51a3,3,0,0,0,.63-.5l.73-.75a2.79,2.79,0,0,0,.45-.63l.49-.91a2.89,2.89,0,0,0,.29-.79l.2-.95a3.22,3.22,0,0,0,0-1Z"/><path class="cls-1" d="M335,205.67a3.08,3.08,0,0,0-.39-1.1l-.41-.71a3,3,0,0,0-.89-1l-.44-.29a1.89,1.89,0,0,0-.27-.2l-.49-.32a2.83,2.83,0,0,0-1-.43l-.83-.18a3,3,0,0,0-1.12,0l-.92.16a2.8,2.8,0,0,0-.88.31l-.89.48a2.81,2.81,0,0,0-.65.48l-.77.74a2.93,2.93,0,0,0-.48.62l-.52.92a3.64,3.64,0,0,0-.33.76l-.22,1a2.83,2.83,0,0,0-.09,1l.09.92h0a3,3,0,0,0,.31,1.09l.4.75a2.84,2.84,0,0,0,.83,1l.65.48a3,3,0,0,0,.74.41h.15a3.14,3.14,0,0,0,1.18.45l.83.13H329a3.53,3.53,0,0,0,.65,0l.9-.2a2.65,2.65,0,0,0,.84-.34l.87-.51a3.75,3.75,0,0,0,.64-.49l.7-.75a3.3,3.3,0,0,0,.47-.64l.48-.9a2.86,2.86,0,0,0,.3-.78l.2-1a3.29,3.29,0,0,0,0-1Z"/><path class="cls-1" d="M358.78,185.45,359,188v.34l.5,2.44a1.15,1.15,0,0,0,.1.35l.79,2.29a2.07,2.07,0,0,0,.15.34l1.09,2.12a1.55,1.55,0,0,0,.2.32l1.34,1.9a2.42,2.42,0,0,0,.25.31l1.6,1.66.29.26,1.82,1.4a2.7,2.7,0,0,0,.33.22l2,1.12.35.16,2.17.83a1.89,1.89,0,0,0,.36.11l2.3.53.35.06,2.41.22h2.15l2.21.43h.38l2.3.11h.35l2.36-.2a1.63,1.63,0,0,0,.33-.05l2.39-.51.3-.08,2.37-.82.28-.11,2.31-1.1.25-.13,2.23-1.37.22-.15,2.11-1.61a1.16,1.16,0,0,0,.2-.18l2-1.83a1.07,1.07,0,0,0,.18-.19l1.77-2a1.46,1.46,0,0,0,.16-.21l1.55-2.18.14-.22,1.31-2.31a1.19,1.19,0,0,0,.13-.25l1.05-2.39a1,1,0,0,1,.1-.27l.78-2.45a1.37,1.37,0,0,1,.07-.29l.49-2.47a.67.67,0,0,1,.05-.31l.19-2.45a1.82,1.82,0,0,0,0-.33L410,176.7a1.09,1.09,0,0,0,0-.36l-.41-2.28a1.19,1.19,0,0,0-.09-.36l-.71-2.16a2.75,2.75,0,0,0-.15-.36l-1-2a1.31,1.31,0,0,0-.21-.36l-1.28-1.77a2.69,2.69,0,0,0-.27-.32l-.1-.1-.22-.55c0-.08-.07-.16-.12-.24l-1.1-2.07a2.2,2.2,0,0,0-.21-.32l-1.37-1.86a1.75,1.75,0,0,0-.26-.29l-1.62-1.63a2.35,2.35,0,0,0-.29-.26L398.72,158a3.62,3.62,0,0,0-.32-.22l-2.06-1.09-.35-.16-2.24-.8a2,2,0,0,0-.35-.1l-2.43-.45a2,2,0,0,0-.35-.05l-2.49-.18h-.33l-2.57.15h-.32l-2.6.47-.3.07-2.6.79-.27.1-2.57,1.09-.25.12-2.48,1.44-.23.14L371.23,161l-.2.16-2.22,1.91-.19.18-2,2.12c-.06.07-.12.13-.17.2l-1.83,2.31-.15.21-1.58,2.47-.13.23-1.32,2.58c0,.07-.08.16-.12.24l-1,2.66-.09.26-.74,2.7-.06.28-.46,2.69a1.61,1.61,0,0,0,0,.31l-.11,2.65Zm17.15-.82.51-2,.77-2,1-1.94,1.27-1.85,1.47-1.7,1.64-1.51,1.78-1.3,1.86-1,1.93-.79L390,170l1.85-.23h1.77l1.64.3,1.49.54,1.33.76,1.17,1,1,1.17.79,1.35.59,1.53.35,1.68.11,1.81-.14,1.9-.4,1.94-.65,2L400,187.7l-1.12,1.84-1.34,1.72-1.51,1.56-1.65,1.37-1.75,1-1.82.92-1.86.66-1.84.4-1.78.14-1.7-.12-1.58-.36-1.44-.59-1.28-.81-1.12-1-.94-1.22-.74-1.41-.58-1.61-.28-1.75v-1.88Zm5-20.12-.25.15-2.22,1.56-.24.17-2.11,1.78a1.9,1.9,0,0,0-.21.19l-1.93,2a1.2,1.2,0,0,0-.17.21l-1.72,2.2a1.84,1.84,0,0,0-.17.22l-1.47,2.35c0,.08-.1.16-.14.24L369.1,178c0,.09-.08.18-.11.27l-.91,2.52a1,1,0,0,1-.09.29l-.6,2.55c0,.1,0,.21-.05.31l-.29,2.53v.84l-.22-1-.18-2,.1-2.15.37-2.17.65-2.21.92-2.19,1.18-2.12,1.4-2,1.61-1.85,1.78-1.68,1.93-1.45,2-1.21,2.09-.95,1.65-.52Z"/><path class="cls-1" d="M453.37,138.11v-.5a1.7,1.7,0,0,0-.06-.31,2.43,2.43,0,0,0-.17-.52,1.06,1.06,0,0,0-.09-.25,4,4,0,0,0-.41-.69h0a3.6,3.6,0,0,0-.67-.62h0l-.17-.12a4.25,4.25,0,0,0-.43-.31l-117-67.57A14.7,14.7,0,0,0,325,65.45L30.58,109.85a4,4,0,0,0-3.29,3,.67.67,0,0,0,0,.2,3.93,3.93,0,0,0-.67,2.2v55.21a4,4,0,0,0,1.54,3.16l103.62,80.6.26.17.26.17.39.18.22.09a2.85,2.85,0,0,0,.48.13h.17a3.88,3.88,0,0,0,.67.06h.6L450,207.66a4,4,0,0,0,3.4-3.95V138.22S453.37,138.15,453.37,138.11ZM326.13,73.36a6.62,6.62,0,0,1,4.27.81L437.5,136,133.3,181.92,41.49,116.29Zm-20,90.56,35.7-5.39V187l-35.49,4.78V165.11a4.32,4.32,0,0,0-.22-1.19ZM136.39,189.54l119.42-18v57.27l-117.7,17.7ZM34.55,121.16l93.79,67.06L130,242.73l-95.43-74.2Zm410.83,79.11-181.57,27.3V170.3l34.51-5.21v31.47h0a1.85,1.85,0,0,0-.17-.5l-.6-1.33a2.31,2.31,0,0,0-.28-.48l-.87-1.14a2.21,2.21,0,0,0-.4-.41l-.72-.58a2.3,2.3,0,0,0-.41-.35l-8-5.45-.15-.1a1.17,1.17,0,0,0-.27-.15l-1.28-.63a2,2,0,0,0-.5-.18l-1.44-.35a2.63,2.63,0,0,0-.49-.07H281.2a1.77,1.77,0,0,0-.46,0l-1.58.25a3.48,3.48,0,0,0-.41.1l-1.56.55a3.08,3.08,0,0,0-.38.16l-1.48.82-.33.22L273.65,188a2.27,2.27,0,0,0-.28.26l-1.18,1.26a3.55,3.55,0,0,0-.23.31l-1,1.39a3.9,3.9,0,0,0-.19.35l-.69,1.53a1.64,1.64,0,0,0-.14.39l-.41,1.58c0,.14-.05.29-.07.43l-.11,1.57a3.84,3.84,0,0,0,0,.48l.19,1.49a2.8,2.8,0,0,0,.12.5l.48,1.38a3.71,3.71,0,0,0,.24.49l.76,1.2a3.65,3.65,0,0,0,.35.43l1,1a2.76,2.76,0,0,0,.27.23l7.65,5.85a2.32,2.32,0,0,0,.36.22l1.05.64a3.12,3.12,0,0,0,.49.23l1.41.46a1.8,1.8,0,0,0,.5.11l1.52.17h.47l1.58-.13a3,3,0,0,0,.43-.08l1.59-.43a2.24,2.24,0,0,0,.39-.14l1.54-.71a2.74,2.74,0,0,0,.34-.19l1.43-1a2.37,2.37,0,0,0,.3-.23l1.28-1.18a2.18,2.18,0,0,0,.25-.28l1.12-1.36.21-.31.85-1.5a3,3,0,0,0,.17-.36l.58-1.57c0-.13.07-.26.1-.4l.29-1.6a3.38,3.38,0,0,0,0-.45v-1.56a4.07,4.07,0,0,0-.05-.49v-.21a3.86,3.86,0,0,0,1.08,1.59,4,4,0,0,0,2.63,1h.54l43.48-5.86a4,4,0,0,0,3.47-4V157.32l95.58-14.43ZM285,191.22a2.37,2.37,0,0,0-.36.17l-1.52.85a1.77,1.77,0,0,0-.32.21l-1.4,1.1a2.26,2.26,0,0,0-.29.25l-1.2,1.31a1.76,1.76,0,0,0-.24.3l-1,1.46a4,4,0,0,0-.2.35l-.71,1.57a1.64,1.64,0,0,0-.14.39l-.43,1.61a3.11,3.11,0,0,0-.07.44v.24l-1.26-.95-.69-.67-.47-.73-.31-.87-.14-1,.08-1.14.29-1.12.52-1.16.72-1.1.91-1,1.05-.83,1.18-.68,1.16-.42,1.14-.18h1l.93.22.92.45,1.11.75Zm-3,10.63.33-1.2.54-1.21.77-1.14.94-1,1.08-.86,1.21-.67,1.17-.42,1.17-.2h1.09l1,.21.82.39.68.54.54.69.38.84.22,1v1.09l-.21,1.17-.43,1.19-.65,1.16-.85,1.07-1,.94-1.11.75-1.18.55-1.17.32-1.13.1-1-.1-.9-.29-.76-.45-.62-.61-.48-.74-.32-.9-.14-1Z"/><path class="cls-1" d="M317.18,204l-14.52,2.08a.51.51,0,0,0-.45.53v8.31a.46.46,0,0,0,.18.39.52.52,0,0,0,.35.14h.07l14.53-2.06a.57.57,0,0,0,.47-.54v-8.28a.55.55,0,0,0-.54-.55h-.09Z"/><path class="cls-1" d="M440.69,187.47a2.71,2.71,0,0,0-.37-1.1l-.41-.71a3.06,3.06,0,0,0-.9-1l-.43-.28-.28-.2-.48-.33a2.69,2.69,0,0,0-1-.42l-.82-.19a3,3,0,0,0-1.12,0l-.92.16a2.8,2.8,0,0,0-.88.31l-.89.48a2.86,2.86,0,0,0-.66.48l-.75.74a3,3,0,0,0-.49.62l-.53.91a3,3,0,0,0-.32.78l-.24,1a3.43,3.43,0,0,0-.07,1l.07.91h0a3,3,0,0,0,.33,1.1l.38.75a3.11,3.11,0,0,0,.85,1l.65.48a2.45,2.45,0,0,0,.74.41h.14a3,3,0,0,0,1.19.47l.83.13h.44a3.42,3.42,0,0,0,.64,0l.91-.21a2.68,2.68,0,0,0,.85-.33l.84-.51a3.1,3.1,0,0,0,.64-.49l.72-.75a2.89,2.89,0,0,0,.46-.64l.49-.91a3.12,3.12,0,0,0,.29-.79l.19-.95a2.69,2.69,0,0,0,0-1Z"/></g></svg>