<svg id="Artwork" xmlns="http://www.w3.org/2000/svg" viewBox="0 0 480 320"><defs><style>.cls-1{fill:#000;}</style></defs><path class="cls-1" d="M440,143.94a8.76,8.76,0,0,0-7.27-2.1h0L305.16,74.54a22.33,22.33,0,0,0-13.67-2.49l-243.14,34a13.21,13.21,0,0,0-11.34,13v27.94a16.18,16.18,0,0,0,5.71,12.35l101,87.61.05-.06a8.76,8.76,0,0,0,5.39,1.86,8.88,8.88,0,0,0,1.62-.15l283.73-52.84a8.76,8.76,0,0,0,7.2-8.35l1.3-36.61A8.77,8.77,0,0,0,440,143.94ZM292.6,80a14.27,14.27,0,0,1,8.78,1.62L419.67,144,150.33,188.89,51.11,113.78ZM45,147.06V119.2l95.49,72.28a6.09,6.09,0,0,0-.19,1.55v40.46L47.92,153.33A8.19,8.19,0,0,1,45,147.06Zm388.68,40.13a.81.81,0,0,1-.67.77L149.29,240.8a.8.8,0,0,1-.68-.17.81.81,0,0,1-.3-.63V197.29a6,6,0,0,0,.72-.07l285-47.49a.8.8,0,0,1,.68.2.83.83,0,0,1,.28.65Z"/><path class="cls-1" d="M345.38,171.47,249.9,188a2,2,0,0,0,.34,4,2,2,0,0,0,.34,0l12.22-2.12,1.81,15.65c-.35.47-2,2.23-9.05,4.65h0l-.25.12-.11.06-.21.15-.1.08-.18.2a.71.71,0,0,0-.07.09,1.09,1.09,0,0,0-.14.23l-.06.09a2.67,2.67,0,0,0-.09.26s0,.07,0,.11a2.17,2.17,0,0,0,0,.25c0,.05,0,.09,0,.13s0,.16,0,.25,0,.1,0,.15,0,0,0,.07a1.55,1.55,0,0,0,.06.23s0,0,0,.06h0a1.8,1.8,0,0,0,.28.51l0,.06a1.71,1.71,0,0,0,.39.37l.07.06a1.77,1.77,0,0,0,.48.23l.08,0a1.9,1.9,0,0,0,.53.09h0a2.07,2.07,0,0,0,.35,0h0l85.65-15.63h0a1.32,1.32,0,0,0,.3-.09l.09,0a1,1,0,0,0,.23-.12l.12-.06.16-.13a.81.81,0,0,0,.14-.12,1.31,1.31,0,0,0,.11-.12,2.09,2.09,0,0,1,.14-.17l.06-.11a2.53,2.53,0,0,0,.12-.23l0-.08a1.71,1.71,0,0,0,.09-.3.11.11,0,0,1,0-.05,2,2,0,0,0,0-.35h0v-.06c0-.1,0-.2,0-.3a0,0,0,0,0,0,0s0-.06,0-.09l-.09-.29v0a2,2,0,0,0-1.06-1h0a1.8,1.8,0,0,0-.33-.1h-.07a1.73,1.73,0,0,0-.32,0h0a23.41,23.41,0,0,1-8.94-1.69l1.57-15.31,11.57-2a2,2,0,1,0-.68-3.94ZM330.47,196l.71.32-63.34,11.55c.13-.18.25-.36.35-.53ZM329,192.23l-60.58,11-1.62-14.08,63.65-11.05Z"/></svg>