<svg id="Artwork" xmlns="http://www.w3.org/2000/svg" viewBox="0 0 480 320"><defs><style>.cls-1{fill:#000;}</style></defs><path class="cls-1" d="M439.49,150.43a10.14,10.14,0,0,0-7.92-2.47l-157.88-89a25.53,25.53,0,0,0-16.34-3.19L49.94,85.09A15,15,0,0,0,37.08,99.9v36.33a19.37,19.37,0,0,0,7.07,15l129.2,109.17.33-.38a10.28,10.28,0,0,0,1.92,2.15,10.16,10.16,0,0,0,6.49,2.34,9.75,9.75,0,0,0,1.86-.17l249-45.93a10.13,10.13,0,0,0,8.3-9.64l1.65-50.36A10.08,10.08,0,0,0,439.49,150.43Zm-181-86.78a17.43,17.43,0,0,1,11.23,2.22L419,150.07,180.49,190.65a9.7,9.7,0,0,0-1.87.49l-128-98a3.89,3.89,0,0,1,.47-.09ZM45.08,136.23V99.9a8.87,8.87,0,0,1,.06-.9l127.6,97.71a10.36,10.36,0,0,0-.81,4v48.05L49.27,145.1A11.45,11.45,0,0,1,45.08,136.23ZM433.26,208.5a2.16,2.16,0,0,1-1.76,2.05l-249,45.94a2.19,2.19,0,0,1-2.57-2.14V200.69a2.18,2.18,0,0,1,1.87-2.15L432.41,155.9l.36,0a2.18,2.18,0,0,1,2.15,2.27Z"/><path class="cls-1" d="M360.28,182.33l-99.85,17.33a2,2,0,0,0,.34,4,2,2,0,0,0,.34,0L274,201.36l1.91,16.51c-.33.46-2.05,2.34-9.53,4.92h0a2.06,2.06,0,0,0-.26.12l-.1.05a1.84,1.84,0,0,0-.22.17.31.31,0,0,0-.09.07,1.8,1.8,0,0,0-.19.2l-.07.08c0,.08-.1.16-.14.24l-.06.09-.09.26,0,.1a2.34,2.34,0,0,0,0,.26c0,.05,0,.09,0,.13a2.08,2.08,0,0,0,0,.25c0,.05,0,.1,0,.15V225a2,2,0,0,0,.07.23.13.13,0,0,0,0,.06h0a1.8,1.8,0,0,0,.28.51l0,.06a1.71,1.71,0,0,0,.39.37l.08.06a2.28,2.28,0,0,0,.47.23l.08,0a2.35,2.35,0,0,0,.53.09h0a1.34,1.34,0,0,0,.35,0h0L357,210.3h0l.28-.08.1,0,.22-.12.13-.07.15-.12.15-.12.1-.12.15-.18.06-.11a1.67,1.67,0,0,0,.12-.23s0-.05,0-.08a1.49,1.49,0,0,0,.09-.3.07.07,0,0,0,0-.05,2,2,0,0,0,0-.35h0s0-.05,0-.07a1.36,1.36,0,0,0,0-.29v0l0-.09a2.46,2.46,0,0,0-.09-.29h0a2,2,0,0,0-1.06-1.06h0a1.58,1.58,0,0,0-.37-.11h-.06a1.84,1.84,0,0,0-.33,0h0a24.63,24.63,0,0,1-9.46-1.81l1.66-16.15L361,186.27a2,2,0,1,0-.69-3.94Zm-15.59,25.48c.28.14.63.3,1.05.47L279,220.47a6.49,6.49,0,0,0,.54-.78ZM343.17,204,279.65,215.6l-1.72-14.92,66.78-11.59Z"/><path class="cls-1" d="M421.41,188a2,2,0,0,0-.09-.77,13.46,13.46,0,0,0-4.32-6.05,12.37,12.37,0,0,0-5-7.28c-6.61-4.4-16.61-1.13-22.28,7.29a20.48,20.48,0,0,0-3.51,15.12,12.4,12.4,0,0,0,5.23,8.16,12,12,0,0,0,6.74,2,14.77,14.77,0,0,0,3.05-.34,10.85,10.85,0,0,0,3.51,1.11,9.78,9.78,0,0,0,2.54.33c4.38,0,9.12-2.77,12.05-7.53a16.32,16.32,0,0,0,2.49-10A13.06,13.06,0,0,0,421.41,188ZM397.74,198.3c.05.44.11.87.19,1.29L393.62,197a6.34,6.34,0,0,1-2.54-4.1,12.67,12.67,0,0,1,2.22-9.18c3.36-5,9-7.12,12.61-4.71l3.49,2.14a15.82,15.82,0,0,0-9.16,7.15A16.3,16.3,0,0,0,397.74,198.3Zm18.15-.34a12.21,12.21,0,0,1-6.23,5.26,1.83,1.83,0,0,0-.66,0,12.85,12.85,0,0,1-3.43.1,5.11,5.11,0,0,1-1.12-.5,6.24,6.24,0,0,1-2.72-4.92,12.16,12.16,0,0,1,1.92-7.48c2.18-3.55,5.57-5.67,8.56-5.67a5.44,5.44,0,0,1,2.87.79,6.22,6.22,0,0,1,2.73,4.92A12.23,12.23,0,0,1,415.89,198Z"/><path class="cls-1" d="M218.43,221.13c-3.11-3.48-9.11-3.24-13.37.56s-5.19,9.73-2.07,13.22a7.76,7.76,0,0,0,5.88,2.48,10.26,10.26,0,0,0,2.23-.26,5.91,5.91,0,0,0,1.84.3,6.82,6.82,0,0,0,1.18-.11,8.23,8.23,0,0,0,4.61-2.66h0a8.22,8.22,0,0,0,2.15-4.86,6.1,6.1,0,0,0-.61-3.23A7.65,7.65,0,0,0,218.43,221.13Zm-10.71,3.54c2.48-2.21,5.85-2.64,7.53-1a8,8,0,0,0-5.74,2.74,8.28,8.28,0,0,0-2.15,4.86,6.67,6.67,0,0,0,.15,2,3.39,3.39,0,0,1-1.54-1C204.35,230.43,205.15,227,207.72,224.67Zm9.17,4.84a4.55,4.55,0,0,1-3.48,3.87,1.59,1.59,0,0,1-2.06-1.85,4.26,4.26,0,0,1,1.13-2.47,4,4,0,0,1,2.82-1.44,1.65,1.65,0,0,1,1.11.36A1.87,1.87,0,0,1,216.89,229.51Z"/></svg>