<?xml version="1.0" encoding="UTF-8"?><svg xmlns="http://www.w3.org/2000/svg" viewBox="0 0 480 320"><defs><style>.c{fill:#000;}</style></defs><g id="a"><g><path class="c" d="M439.97,143.83c-1.98-1.76-4.62-2.53-7.27-2.1h-.05l-127.54-67.3c-4.14-2.26-9-3.14-13.67-2.48L48.3,105.98c-6.46,.9-11.33,6.51-11.33,13.03v27.94c0,4.78,2.1,9.3,5.71,12.35l100.97,87.61,.05-.05c1.56,1.21,3.45,1.86,5.39,1.86,.54,0,1.08-.05,1.62-.15l283.73-52.84c4.09-.76,7.05-4.19,7.21-8.35l1.3-36.6c.1-2.65-.98-5.18-2.97-6.93Zm-147.42-63.97c2.98-.42,6.09,.15,8.78,1.61l118.29,62.43-269.34,44.88L51.06,113.67l241.49-33.81ZM44.97,146.95v-27.86l95.49,72.28c-.11,.46-.19,.97-.19,1.55v40.46L47.88,153.22c-1.85-1.56-2.91-3.85-2.91-6.27Zm388.68,40.13c-.01,.39-.29,.71-.67,.78l-283.73,52.84c-.31,.06-.54-.06-.68-.18-.14-.11-.3-.31-.3-.63v-42.7c.23-.01,.47-.04,.72-.08l285-47.48c.32-.05,.55,.08,.68,.2,.13,.12,.29,.33,.28,.65l-1.3,36.6Z"/><path class="c" d="M345.33,171.37l-95.48,16.57c-1.09,.19-1.82,1.22-1.63,2.31,.17,.97,1.01,1.66,1.97,1.66,.11,0,.23,0,.34-.03l12.22-2.12,1.81,15.65c-.34,.46-2.03,2.23-9.05,4.64-.01,0-.02,.01-.03,.02-.09,.03-.17,.07-.25,.11-.04,.02-.07,.04-.11,.06-.08,.05-.15,.1-.22,.16-.03,.03-.07,.05-.1,.08-.07,.06-.12,.13-.18,.2-.03,.03-.05,.06-.08,.09-.05,.07-.1,.15-.14,.23-.02,.03-.04,.06-.05,.1-.04,.08-.07,.17-.1,.25-.01,.04-.03,.07-.04,.11-.02,.08-.03,.17-.04,.26,0,.04-.01,.09-.02,.13,0,.08,0,.16,0,.24,0,.05,0,.1,.01,.16,0,.02,0,.04,0,.06,.02,.08,.04,.16,.07,.24,0,.02,0,.04,.01,.06h0c.07,.2,.16,.37,.27,.52,.02,.02,.03,.04,.04,.06,.11,.14,.24,.26,.39,.37,.03,.02,.05,.04,.08,.05,.15,.1,.3,.18,.47,.23,.03,0,.05,.01,.08,.02,.17,.05,.35,.08,.54,.08h.02c.12,0,.23,0,.35-.03h0l85.66-15.62h.01c.1-.02,.2-.05,.3-.09,.03-.01,.06-.02,.09-.03,.08-.03,.16-.08,.23-.12,.04-.02,.08-.04,.12-.06,.06-.04,.11-.08,.16-.13,.05-.04,.1-.07,.14-.12,.04-.04,.07-.08,.11-.13,.05-.06,.1-.11,.14-.17,.02-.04,.04-.08,.06-.11,.04-.07,.09-.15,.12-.23,.01-.03,.02-.06,.03-.08,.04-.1,.07-.19,.09-.29,0-.02,0-.03,0-.05,.02-.11,.03-.23,.04-.35h0s0-.05,0-.07c0-.1,0-.2-.02-.3,0-.01,0-.02,0-.03,0-.03-.02-.06-.03-.09-.03-.1-.05-.2-.09-.29h0c-.21-.49-.59-.87-1.05-1.06-.01,0-.03,0-.04-.01-.11-.04-.21-.08-.33-.1-.02,0-.05,0-.07,0-.11-.02-.21-.03-.33-.03h-.01c-4.22,0-7.37-1.04-8.94-1.7l1.57-15.31,11.57-2.01c1.09-.19,1.82-1.22,1.63-2.31-.19-1.09-1.22-1.82-2.31-1.63Zm-14.9,24.54c.2,.1,.43,.2,.71,.32l-63.34,11.55c.14-.18,.26-.36,.36-.53l62.28-11.35Zm-1.52-3.79l-60.58,11.04-1.63-14.09,63.65-11.04-1.45,14.1Z"/></g></g><g id="b"/></svg>