<svg id="Artwork" xmlns="http://www.w3.org/2000/svg" viewBox="0 0 480 320"><defs><style>.cls-1{fill:#000;}</style></defs><path class="cls-1" d="M441.3,184.88l-3.07-28.13a17.84,17.84,0,0,0-9-13.63L304.8,73.77a21.23,21.23,0,0,0-13-2.54L51,100.74a14.68,14.68,0,0,0-6,2.15l-.18-.14-.42.53A14.8,14.8,0,0,0,38,115.44V140.5a18.09,18.09,0,0,0,6.52,13.94L153.06,245a18.4,18.4,0,0,0,11.81,4.28l.87,0c17-.8,62.25-3.43,114-10.55,66.49-9.15,117.9-22.05,152.81-38.37A15.26,15.26,0,0,0,441.3,184.88ZM292.85,79.58a12.84,12.84,0,0,1,7.85,1.54l122.63,68.36c-50,18.09-117.29,28.26-166.23,33.66-50.4,5.56-91.6,7.29-99.88,7.6L52.78,109ZM49.9,148a9.7,9.7,0,0,1-3.5-7.48V115.44c0-.24,0-.47.06-.7L151.8,197.18,155,235.67ZM429,192.76c-27.18,12.7-62.46,22.14-98.48,29.13l-.64-5.07a1,1,0,0,0-1.18-.86l-15.52,2.95a1,1,0,0,0-.81,1.12l.63,5.07C247.52,236.4,183.54,240,165.35,240.9a10.84,10.84,0,0,1-1.51-.05L160.39,199c12.69-.52,51.27-2.42,97.57-7.53,50.51-5.57,120.48-16.18,171.6-35.34a9.51,9.51,0,0,1,.31,1.5l3.07,28.13A6.86,6.86,0,0,1,429,192.76Z"/><path class="cls-1" d="M353.6,182.48a4.18,4.18,0,0,0-4.62-2.24c-25.36,5.47-55.12,9.67-62.78,10.71h0l-.85.12a4.16,4.16,0,0,0-3.37,2.71l-8.4,22.85a4.19,4.19,0,0,0,3.91,5.64,4.87,4.87,0,0,0,.65-.05c11-1.68,49.32-7.78,81.6-15.9a4.19,4.19,0,0,0,2.72-5.93Zm-5.86,2.33h0ZM287.1,195.07c7.94-1.08,35.77-5,60.32-10.22l-2.13,13.7L287.1,209.34Zm-9.58,23,5.38-14.63v6.18a4,4,0,0,0,4,4,4.51,4.51,0,0,0,.73-.07l58.63-10.88a4,4,0,0,0,3.2-3.29l1.88-12.06,7.4,14.93C326.6,210.31,288.43,216.39,277.52,218.08Z"/></svg>