<svg id="Artwork" xmlns="http://www.w3.org/2000/svg" viewBox="0 0 480 320"><defs><style>.cls-1{fill:#000;}</style></defs><path class="cls-1" d="M439.49,150.84a10.14,10.14,0,0,0-7.92-2.47l-157.88-89a25.54,25.54,0,0,0-16.34-3.2L49.94,85.5a15,15,0,0,0-12.86,14.81v36.34a19.37,19.37,0,0,0,7.07,15l129.2,109.16.33-.38a10.28,10.28,0,0,0,1.92,2.15,10.17,10.17,0,0,0,6.49,2.35,10.64,10.64,0,0,0,1.86-.17l249-45.94a10.13,10.13,0,0,0,8.3-9.64l1.65-50.36A10.11,10.11,0,0,0,439.49,150.84Zm-181-86.78a17.5,17.5,0,0,1,11.23,2.22L419,150.48,180.49,191.06a10.48,10.48,0,0,0-1.87.49l-128-98,.47-.09ZM45.08,136.65V100.31a6.54,6.54,0,0,1,.07-.89l127.59,97.71a10.28,10.28,0,0,0-.81,4v48.05L49.27,145.51A11.45,11.45,0,0,1,45.08,136.65Zm388.18,72.26A2.18,2.18,0,0,1,431.5,211l-249,45.93a2.11,2.11,0,0,1-1.78-.46,2.14,2.14,0,0,1-.79-1.67V201.1A2.16,2.16,0,0,1,181.8,199l250.61-42.64.36,0a2.19,2.19,0,0,1,1.42.54,2.16,2.16,0,0,1,.73,1.72Z"/><path class="cls-1" d="M371.41,178.2,249.3,199.39a2,2,0,0,0,.34,4,2.07,2.07,0,0,0,.35,0l16.2-2.81,2.4,20.81c-.27.48-2.07,2.92-12,6.33h0a2.06,2.06,0,0,0-.26.12l-.09.05a2.07,2.07,0,0,0-.24.17l-.08.06a2,2,0,0,0-.19.22l-.06.07a2.26,2.26,0,0,0-.16.26.43.43,0,0,0,0,.07,2.31,2.31,0,0,0-.1.28l0,.08a2.74,2.74,0,0,0-.05.28s0,.07,0,.1a2.44,2.44,0,0,0,0,.27.66.66,0,0,0,0,.14v.06a2.76,2.76,0,0,0,.08.27,0,0,0,0,0,0,0h0a1.63,1.63,0,0,0,.28.52l0,.06a2,2,0,0,0,.4.37.18.18,0,0,0,.07,0,2.08,2.08,0,0,0,.47.24l.08,0a1.91,1.91,0,0,0,.54.08h0a2.21,2.21,0,0,0,.35,0h0l109.55-20h0l.28-.08.1,0a.69.69,0,0,0,.19-.1l.16-.08.09-.07a1.81,1.81,0,0,0,.21-.18l0,0a2,2,0,0,0,.53-1.76,2,2,0,0,0-1.56-1.59h-.05a2,2,0,0,0-.34,0h0a30.31,30.31,0,0,1-12-2.37l2.09-20.41,15.21-2.64a2,2,0,0,0-.68-3.94Zm-19.08,30.26a24.15,24.15,0,0,0,2.87,1.19l-84.61,15.43a7.14,7.14,0,0,0,1.63-2Zm-1.51-3.79L272.35,219l-2.21-19.14,82.65-14.34Z"/></svg>