<svg id="Artwork" xmlns="http://www.w3.org/2000/svg" viewBox="0 0 480 320"><defs><style>.cls-1{fill:#000;}</style></defs><path class="cls-1" d="M440,143.83a8.84,8.84,0,0,0-7.27-2.1h-.05L305.11,74.43a22.31,22.31,0,0,0-13.67-2.49L48.3,106A13.22,13.22,0,0,0,37,119V147a16.13,16.13,0,0,0,5.71,12.35l101,87.61.05,0a8.84,8.84,0,0,0,5.39,1.85,9.07,9.07,0,0,0,1.63-.15l283.72-52.84a8.77,8.77,0,0,0,7.21-8.35l1.3-36.6A8.85,8.85,0,0,0,440,143.83Zm-147.42-64a14.25,14.25,0,0,1,8.78,1.61l118.29,62.43L150.28,188.78,51.06,113.67ZM45,147V119.09l95.48,72.29a6.47,6.47,0,0,0-.18,1.55v40.46L47.88,153.22A8.19,8.19,0,0,1,45,147Zm388.67,40.13a.8.8,0,0,1-.67.78L149.24,240.7a.82.82,0,0,1-.68-.18.8.8,0,0,1-.29-.63v-42.7a5.94,5.94,0,0,0,.71-.08l285-47.48a.86.86,0,0,1,.68.19.83.83,0,0,1,.27.66Z"/><path class="cls-1" d="M345.33,171.37l-95.48,16.56a2,2,0,0,0,.34,4,2.07,2.07,0,0,0,.35,0l12.21-2.12,1.81,15.66c-.34.46-2,2.22-9.05,4.64l0,0-.25.11-.11.06-.22.16-.09.07a1.12,1.12,0,0,0-.18.2l-.08.09a1.76,1.76,0,0,0-.14.23.31.31,0,0,0,0,.1,1.86,1.86,0,0,0-.1.25l0,.11a1.09,1.09,0,0,0,0,.26s0,.08,0,.13a1.92,1.92,0,0,0,0,.24s0,.1,0,.16v.06a2.17,2.17,0,0,0,.07.24s0,0,0,.05h0a1.78,1.78,0,0,0,.27.51.43.43,0,0,0,0,.07,2.72,2.72,0,0,0,.39.37l.08,0a1.58,1.58,0,0,0,.47.23l.08,0a1.91,1.91,0,0,0,.54.08h0a2.19,2.19,0,0,0,.36,0h0l85.66-15.63h0l.3-.09.08,0,.24-.12s.08,0,.11-.07l.16-.13.14-.11.11-.13a1.15,1.15,0,0,0,.14-.17l.06-.11a1.71,1.71,0,0,0,.13-.23s0,0,0-.08a1.61,1.61,0,0,0,.09-.29.11.11,0,0,0,0,0,2.21,2.21,0,0,0,0-.35h0s0,0,0-.07a2.83,2.83,0,0,0,0-.29s0,0,0,0l0-.09a1.4,1.4,0,0,0-.09-.29h0a1.93,1.93,0,0,0-1-1.05l-.05,0a1.7,1.7,0,0,0-.32-.1h-.07l-.33,0h0a23.47,23.47,0,0,1-8.95-1.7l1.57-15.31,11.57-2a2,2,0,1,0-.68-3.94Zm-14.9,24.54.7.32-63.34,11.56a5.06,5.06,0,0,0,.36-.54Zm-1.53-3.79-60.57,11-1.63-14.09,63.65-11Z"/></svg>