<svg id="Artwork" xmlns="http://www.w3.org/2000/svg" viewBox="0 0 480 320"><defs><style>.cls-1{fill:#000;}</style></defs><path class="cls-1" d="M439.49,150.43a10.14,10.14,0,0,0-7.92-2.47l-157.88-89a25.53,25.53,0,0,0-16.34-3.19L49.94,85.09A15,15,0,0,0,37.08,99.9v36.33a19.37,19.37,0,0,0,7.07,15l129.2,109.17.33-.38a10.28,10.28,0,0,0,1.92,2.15,10.16,10.16,0,0,0,6.49,2.34,9.75,9.75,0,0,0,1.86-.17l249-45.93a10.13,10.13,0,0,0,8.3-9.64l1.65-50.36A10.08,10.08,0,0,0,439.49,150.43Zm-181-86.78a17.43,17.43,0,0,1,11.23,2.22L419,150.07,180.49,190.65a9.7,9.7,0,0,0-1.87.49l-128-98a3.89,3.89,0,0,1,.47-.09ZM45.08,136.23V99.9a8.87,8.87,0,0,1,.06-.9l127.6,97.71a10.36,10.36,0,0,0-.81,4v48.05L49.27,145.1A11.45,11.45,0,0,1,45.08,136.23ZM433.26,208.5a2.16,2.16,0,0,1-1.76,2.05l-249,45.94a2.19,2.19,0,0,1-2.57-2.14V200.69a2.18,2.18,0,0,1,1.87-2.15L432.41,155.9l.36,0a2.18,2.18,0,0,1,2.15,2.27Z"/><path class="cls-1" d="M371.41,177.79,249.3,199a2,2,0,0,0,.34,4,2.07,2.07,0,0,0,.35,0l16.2-2.82,2.4,20.81c-.27.48-2.07,2.92-12,6.33l0,0a1.11,1.11,0,0,0-.27.12l-.09.05a1.46,1.46,0,0,0-.24.17l-.07.06a2.18,2.18,0,0,0-.21.22l-.05.06-.16.26a.43.43,0,0,1,0,.07,2.47,2.47,0,0,0-.1.29l0,.07a2.93,2.93,0,0,0-.05.29s0,.07,0,.1a2.44,2.44,0,0,0,0,.27.57.57,0,0,0,0,.13v.07a2.58,2.58,0,0,0,.08.26,0,0,0,0,0,0,0h0a2,2,0,0,0,.27.52l.05.06a2.22,2.22,0,0,0,.38.37l.08,0a2.08,2.08,0,0,0,.47.24l.09,0a1.82,1.82,0,0,0,.52.08h0l.35,0,109.55-20h0l.29-.08.1,0,.21-.11.14-.08a.94.94,0,0,0,.12-.09l.18-.15.06-.07a2.11,2.11,0,0,0,.19-.23s0,0,0-.05a1.64,1.64,0,0,0,.16-.29v0a1.94,1.94,0,0,0,.15-.76h0v0a2,2,0,0,0,0-.34v-.08a2,2,0,0,0-1.17-1.4l0,0-.33-.1h-.07a3.11,3.11,0,0,0-.33,0h0a30.09,30.09,0,0,1-12-2.38l2.09-20.4,15.21-2.64a2,2,0,1,0-.68-3.94Zm-19.08,30.26a28.14,28.14,0,0,0,2.87,1.19l-84.61,15.43a7.28,7.28,0,0,0,1.63-2Zm-1.51-3.79-78.47,14.29-2.21-19.13,82.65-14.34Z"/></svg>