<svg id="Artwork" xmlns="http://www.w3.org/2000/svg" viewBox="0 0 480 320"><defs><style>.cls-1{fill:#000;}</style></defs><path class="cls-1" d="M434,186.11l-3.16-29a17.72,17.72,0,0,0-9-13.52L306.19,79.13a33.86,33.86,0,0,0-20.75-4.07L55.08,103.29a11,11,0,0,0-9.68,10.93v27.5a16.25,16.25,0,0,0,5.85,12.51l102.93,85.9a24.46,24.46,0,0,0,15.71,5.7c.41,0,.83,0,1.24,0,41-2.07,180.82-11.62,256.4-48A11.61,11.61,0,0,0,434,186.11ZM286.41,83a26,26,0,0,1,15.89,3.11l114.33,63.74C368.48,167.3,303.57,177.1,256.4,182.3c-48.59,5.37-88.29,7-96.22,7.33L59.46,110.81Zm-230,65.08a8.23,8.23,0,0,1-3-6.36v-25.5L155,195.75,158.09,233ZM424.06,190.6c-74.23,35.72-212.67,45.16-253.33,47.21a16.66,16.66,0,0,1-4.24-.35l-3.3-40c12.16-.5,49.36-2.32,94-7.25,48.65-5.36,116.05-15.59,165.29-34a9.56,9.56,0,0,1,.39,1.78l3.16,29A3.59,3.59,0,0,1,424.06,190.6Z"/><path class="cls-1" d="M349.32,183.17a4,4,0,0,0-4.43-2.14c-24.4,5.26-53.06,9.3-60.45,10.31h0l-.82.12a4,4,0,0,0-3.23,2.59l-8.08,22a4,4,0,0,0,3.73,5.4,4.46,4.46,0,0,0,.63-.05c10.58-1.62,47.52-7.5,78.58-15.32a4,4,0,0,0,2.66-2.19,4,4,0,0,0-.05-3.48Zm-64.05,12.1c7.61-1.05,34.45-4.85,58.15-9.84l-2.07,13.23-56.08,10.4ZM276,217.44l5.23-14.23v6.1a3.8,3.8,0,0,0,3.79,3.8,4.26,4.26,0,0,0,.7-.07l56.46-10.47a3.82,3.82,0,0,0,3.06-3.15l1.83-11.69,7.15,14.48C323.37,210,286.58,215.84,276,217.44Z"/></svg>