<?xml version="1.0" encoding="UTF-8"?>
<svg id="Artwork" xmlns="http://www.w3.org/2000/svg" viewBox="0 0 480 320">
  <defs>
    <style>
      .cls-1 {
        fill: #000;
      }
    </style>
  </defs>
  <path class="cls-1" d="m453.48,190.61l-5-36.6c-.5-4.43-3.12-8.36-7.01-10.53l-134.55-75c-3.48-1.94-7.41-2.71-11.37-2.23L33.76,98.33c-4.16.51-7.3,4.05-7.3,8.24v36.13c0,3.33,1.47,6.47,4.03,8.61l119.37,99.62c2.3,1.92,5.17,2.96,8.15,2.96.19,0,.37,0,.56-.01,33.1-1.45,202.61-10.85,289.72-53.83,3.53-1.74,5.62-5.54,5.19-9.44Zm-299.54,5.13l-2.22-1.77c41.67-1.98,192.03-11.31,281.95-45.68l3.01,1.68c-98.69,36.92-265.33,45.02-282.74,45.77Zm142.59-121.54c2.26-.27,4.51.16,6.5,1.27l121.43,67.7c-98.98,35.47-263.99,42.53-282.32,43.22L40.34,105.58l256.19-31.39ZM34.46,142.7v-31.57l102.66,81.46v37.28l-101.5-84.71c-.73-.61-1.15-1.51-1.15-2.47Zm110.66,93.86v-37.61l1.78,1.41,3.34,40.47-5.12-4.27Zm299.63-43.69c-36.45,17.98-92.22,32.15-165.76,42.09-56.63,7.66-105.86,10.26-120.31,10.9l-3.48-42.18c22.02-.99,187.46-9.54,285.61-46.73l4.72,34.55c.05.56-.27,1.11-.79,1.36Z"/>
  <path class="cls-1" d="m360.4,184.9c-1.06-2.14-3.42-3.28-5.75-2.78-27.82,6-60.88,10.58-67.22,11.44-1.92.26-3.52,1.55-4.18,3.36l-8.88,24.17c-.64,1.75-.32,3.66.86,5.1,1,1.23,2.46,1.91,4,1.91.27,0,.54-.02.81-.06,11.63-1.78,52.22-8.25,86.35-16.83,1.53-.38,2.78-1.43,3.44-2.86.66-1.44.64-3.08-.06-4.51l-9.36-18.94Zm-70.23,14.34c9.08-1.25,37.04-5.27,62.06-10.47l-2,12.81-60.06,11.14v-13.48Zm-9.71,22.66l3.71-10.1v2.16c0,1.48.65,2.88,1.79,3.82.9.75,2.02,1.15,3.17,1.15.3,0,.61-.03.91-.08l61.99-11.5c2.07-.38,3.68-2.04,4.01-4.12l1.61-10.33,6.29,12.73c-32.46,8.1-70.53,14.27-83.49,16.27Z"/>
</svg>