<svg id="Artwork" xmlns="http://www.w3.org/2000/svg" viewBox="0 0 480 320"><defs><style>.cls-1{fill:#000;}</style></defs><path class="cls-1" d="M441.61,184.68l-3.07-28.13a17.81,17.81,0,0,0-9-13.62L305.11,73.58a21.09,21.09,0,0,0-13-2.54L51.3,100.55a14.81,14.81,0,0,0-6,2.14l-.18-.14-.42.54a14.8,14.8,0,0,0-6.37,12.15V140.3a18.09,18.09,0,0,0,6.52,13.94l108.55,90.6a18.4,18.4,0,0,0,11.81,4.28c.29,0,.58,0,.87,0,17-.8,62.25-3.43,114-10.55,66.49-9.14,117.9-22.05,152.81-38.36A15.28,15.28,0,0,0,441.61,184.68ZM293.16,79.39A12.77,12.77,0,0,1,301,80.92l122.63,68.37c-50,18.09-117.29,28.25-166.23,33.65-50.41,5.56-91.6,7.29-99.88,7.6L53.08,108.8ZM50.21,147.78a9.69,9.69,0,0,1-3.5-7.48V115.24c0-.24,0-.46.06-.69L152.11,197l3.17,38.5Zm379.13,44.78c-27.18,12.7-62.46,22.14-98.48,29.13l-.64-5.07a1,1,0,0,0-1.19-.86l-15.51,3a1,1,0,0,0-.81,1.11l.63,5.07c-65.51,11.3-129.49,14.95-147.68,15.8a9.49,9.49,0,0,1-1.51,0l-3.45-41.82c12.69-.52,51.27-2.41,97.57-7.52,50.51-5.57,120.48-16.19,171.6-35.35a9.51,9.51,0,0,1,.31,1.5l3.07,28.13A6.86,6.86,0,0,1,429.34,192.56Z"/><path class="cls-1" d="M353.91,182.28a4.16,4.16,0,0,0-4.63-2.23c-25.35,5.46-55.11,9.66-62.77,10.7h0l-.85.11a4.19,4.19,0,0,0-3.37,2.71l-8.4,22.86a4.18,4.18,0,0,0,3.91,5.63,3.63,3.63,0,0,0,.65,0c11-1.68,49.32-7.78,81.59-15.9a4.18,4.18,0,0,0,2.73-5.93Zm-5.86,2.33H348l.07,0Zm-60.64,10.27c7.94-1.09,35.77-5,60.32-10.22l-2.14,13.69-58.18,10.8Zm-9.58,23,5.38-14.63v6.17a4,4,0,0,0,4,4,3.68,3.68,0,0,0,.73-.07l58.63-10.87a4,4,0,0,0,3.19-3.29l1.88-12.07L359,202C326.91,210.11,288.74,216.19,277.83,217.89Z"/></svg>