<svg id="Artwork" xmlns="http://www.w3.org/2000/svg" viewBox="0 0 480 320"><defs><style>.cls-1{fill:#000;}</style></defs><path class="cls-1" d="M449.94,151.67a24.43,24.43,0,0,0-14.59-22.36L297.78,68.77a40.93,40.93,0,0,0-16.6-3.49H46.66a16.61,16.61,0,0,0-16.6,16.6v81.54a18.77,18.77,0,0,0,6.78,14.47L110,238.7a21.74,21.74,0,0,0,13.85,5h1.91v7h45.77v-7H390.55v7h45.77v-7h13.62ZM281.18,73.28a33,33,0,0,1,13.38,2.81l132.36,58.25H117.55l-72.1-61a8.11,8.11,0,0,1,1.21-.09ZM405.71,172.6a18.83,18.83,0,0,0,0,37.16v6.33H379V142.34h26.73Zm-47.46,51.49V235.7H203.84V224.09Zm-167.67-8V142.34H371v73.75Zm-30.88-7.4a18.83,18.83,0,0,0,0-35V142.34h22.88v73.75H159.7ZM42,171.74a10.81,10.81,0,0,1-3.9-8.32V81.88a8.55,8.55,0,0,1,.8-3.61l74.56,63.06v89.84Zm79.46,63.75V142.34H151.7v30a18.83,18.83,0,0,0,0,37.6v14.11h44.14V235.7h-72A13.61,13.61,0,0,1,121.42,235.49Zm320.52.21H366.25V224.09h47.46V209.35a18.83,18.83,0,0,0,0-36.35V142.34H439a16.4,16.4,0,0,1,2.92,9.33Z"/><circle class="cls-1" cx="134.56" cy="224.48" r="5.21" transform="translate(-47.97 36.92) rotate(-13.28)"/><circle class="cls-1" cx="429.11" cy="224.48" r="5.21" transform="translate(-40.1 104.59) rotate(-13.28)"/><rect class="cls-1" x="230.51" y="150.39" width="101.32" height="46.13"/><path class="cls-1" d="M322.72,203.51H239.63a3.37,3.37,0,1,0,0,6.73h83.09a3.37,3.37,0,0,0,0-6.73Z"/><circle class="cls-1" cx="350.55" cy="155.61" r="5.21" transform="translate(-7.36 293.45) rotate(-45)"/><circle class="cls-1" cx="350.55" cy="172.31" r="5.21" transform="translate(-23.07 58.38) rotate(-9.22)"/><circle class="cls-1" cx="350.55" cy="189.01" r="5.21" transform="translate(-25.75 58.59) rotate(-9.22)"/><circle class="cls-1" cx="350.55" cy="205.7" r="5.21" transform="translate(-28.42 58.81) rotate(-9.22)"/><circle class="cls-1" cx="212.82" cy="155.61" r="5.21"/><circle class="cls-1" cx="212.82" cy="172.31" r="5.21"/><circle class="cls-1" cx="212.82" cy="189.01" r="5.21"/><circle class="cls-1" cx="212.82" cy="205.7" r="5.21"/></svg>