<svg id="Artwork" xmlns="http://www.w3.org/2000/svg" viewBox="0 0 480 320"><defs><style>.cls-1,.cls-2{fill:#000;}.cls-2{fill-rule:evenodd;}</style></defs><g id="Layer_5_copy" data-name="Layer 5 copy"><path class="cls-1" d="M431.89,106.7,274.29,35.07a14.45,14.45,0,0,0-12,0L48.38,131l-.16.07c-4.11,2.05-4.79,4.93-4.84,6.46a6.87,6.87,0,0,0,3.63,6l3.68,34.28a7.2,7.2,0,0,0-2.19,4.89,6.39,6.39,0,0,0,2.41,5.09l.14.11,148.34,95.66a14.72,14.72,0,0,0,15.26.44L390,184.69l3.82,1.95v-.09l.25.16a10.94,10.94,0,0,0,5.44,1.42,14.89,14.89,0,0,0,7.1-2c6.16-3.4,11.17-10.67,13.16-18.32l9.32-5.28a13.89,13.89,0,0,0,7-11.89l.5-36.51A8,8,0,0,0,431.89,106.7ZM265.6,42.34a6.48,6.48,0,0,1,5.38,0l152.63,69.4-12,6.49L258.52,45.51ZM383.72,172.55c-1.23-.91-2-3-2.09-5.59-.23-7,4.32-15.64,10-18.76a6.06,6.06,0,0,1,3.82-.93l4.46,2.11c-7.29,5.12-12.55,15.58-12.24,24.86v.31ZM251.32,48.74l153.8,73L204.76,230.48a3.63,3.63,0,0,1-3.66-.11c-41.36-25.88-133.89-83.76-148.24-92.66ZM57.47,182.49l1.65-1.17-3.49-32.46c22.15,13.81,83.54,52.2,141.23,88.3a12.1,12.1,0,0,0,2.87,1.28l2.11,37.17ZM210.71,277a6.9,6.9,0,0,1-2.74.84l-2.22-39.24a11.92,11.92,0,0,0,2.84-1.09L409.34,128.61,409,144.85,398.1,139.7l-.34-.09a13.31,13.31,0,0,0-10.08,1.6c-8.22,4.55-14.4,16-14.06,26,.18,5.46,2.25,9.76,5.83,12.11l1.93,1ZM412.65,160.38c.24,7-4.32,15.64-9.94,18.75-1.1.61-3.17,1.5-4.73.62-1.39-.79-2.27-2.95-2.37-5.78-.23-7.05,4.32-15.64,9.94-18.75a7.07,7.07,0,0,1,3.22-1,2.94,2.94,0,0,1,1.51.37c1.39.79,2.28,2.95,2.37,5.78Zm7.84-2.19c-.56-4.46-2.53-8-5.56-10.07l.47-22.81,13.14-7.13-.44,32.35a5.93,5.93,0,0,1-3,5Z"/><polygon class="cls-1" points="282.83 231.06 356.73 190.5 356.73 163.5 282.83 204.34 282.83 231.06"/><path class="cls-1" d="M267.57,214c-5.3,2.91-9.41,10.55-9.17,17.08s4.74,9.46,10,6.55,9.41-10.55,9.17-17.07S272.87,211.12,267.57,214Z"/><path class="cls-1" d="M246.54,226.78c-5.31,2.91-9.41,10.55-9.17,17.08s4.74,9.45,10,6.55,9.41-10.55,9.17-17.08S251.84,223.88,246.54,226.78Z"/><path class="cls-1" d="M225.5,239.54c-5.3,2.91-9.4,10.55-9.16,17.08s4.73,9.45,10,6.55,9.4-10.55,9.16-17.08S230.81,236.61,225.5,239.54Z"/><path class="cls-1" d="M367.56,167.82a7.91,7.91,0,0,0,3.74-7.54c-.36-2.89-2.63-4.2-5.06-2.93a8,8,0,0,0-3.74,7.54C362.86,167.78,365.13,169.09,367.56,167.82Z"/><path class="cls-1" d="M366.92,175a7.93,7.93,0,0,0-3.74,7.58c.36,2.89,2.63,4.2,5.06,2.92A7.91,7.91,0,0,0,372,178C371.62,175.06,369.35,173.75,366.92,175Z"/><path class="cls-1" d="M420.43,134.79a9.12,9.12,0,0,0-4.31,8.68c.42,3.33,3,4.84,5.83,3.37a9.12,9.12,0,0,0,4.31-8.68C425.84,134.83,423.23,133.32,420.43,134.79Z"/></g><g id="_" data-name=" "><path class="cls-2" d="M375.59,120.61l-1.77,6.15c0,.06-.11.07-.21,0l-4.55-1.86h-.21l-1.77,6.15H367l-11.39,2.22c-.1,0-.11.07,0,.11l7.9,3.23a.31.31,0,0,0,.19,0l2.09-1.33v-.09l-3-1.22c-.1,0-.09-.09,0-.11l7.51-1.47a.09.09,0,0,0,.07,0l1.16-4.06c0-.05.11-.07.21,0l3,1.21a.21.21,0,0,0,.19,0l1-.66a3.68,3.68,0,0,0,1.42-1.77l1.5-5.2h.06l11.39-2.22c.11,0,.11-.07,0-.11l-3-1.24a.38.38,0,0,0-.15,0l-11.5,2.27h-.07Z"/></g></svg>