<svg xmlns="http://www.w3.org/2000/svg" viewBox="0 0 480 320"><defs><style>.cls-1{fill:#000;}</style></defs><g id="图层_1" data-name="图层 1"><path class="cls-1" d="M447.2,142.6l1.32-10.52V132c1.1-14.27-.43-18.68-.76-19.45a6.41,6.41,0,0,0-3.51-3.73l.25-.33-5.89-4.53a4.93,4.93,0,0,0-2-1.72L264.19,22.56a10.55,10.55,0,0,0-8-.15l-14.5,4.47L52.41,116.55l-14.36,9.7-.31.24c-.33.27-8.07,6.84-8.07,16.89l2.76,36.13a9.35,9.35,0,0,0,3.81,6.87l.13.1L203.62,291.35a5.57,5.57,0,0,0,.72.44l.09-.15,10.29,5.61.76-1.39a8,8,0,0,0,3.29.67,14,14,0,0,0,6.13-1.64l15.91-6.58,4.67-2.33,172.4-104.42,7.41,2.65,1.27-.64c.26,0,.51,0,.78,0a15.29,15.29,0,0,0,9.05-3.48,34.91,34.91,0,0,0,10-12.93C451,157.41,451.09,147.88,447.2,142.6Zm-40.47,34.57.63.63h0l-24.12,14.81a11,11,0,0,0-.07-1.88l1.65-31.45,20.54-11.93a27.45,27.45,0,0,0-1.29,3.7C397.87,168,406.36,176.8,406.73,177.17Zm-31.57,14.14-74.84,45,.43-26.47,75.68-43.31-1.3,24.62ZM292.44,243a5.21,5.21,0,0,0,2.51,2.9L259,267.27l-.16.1a49,49,0,0,1-9.33,5.21c-5.34,1.61-7.72-.85-7.79-.92l-.13-.14c-1.76-1.76-2.49-5.17-2-9.61,1-10.78,8.74-23.29,17.56-28.47l35.56-20.66-.48,29.61Zm124.26-70.4L412,171c-1.2-1.76-4-7.35-.31-17.33l.14-.49a23.63,23.63,0,0,1,12.69-14.95l.45-.22.35-.27a4,4,0,0,1,1-.52l5.77,3.46c-4.49,2.66-8.81,7.63-11.91,14.25C417.1,161.28,416,167.57,416.7,172.64ZM210.83,250.28a256.85,256.85,0,0,1,.17,35.83l-2.88-1.57a3.78,3.78,0,0,1-.2-1.36l-.55-37.36c.12-.95,1.08-6.42,7.2-10.4l18.71-7.15,188.21-108,1.82-1.2,12.26-7.44.83.63c-4.54,4-11.9,9-12.71,9.61l-6.54,3.82c-6.59,3.79-161.5,92.92-165.91,95.67l-.13.09c-2.65,1.9-19.32,8.8-29.87,13l-.25.12a19.73,19.73,0,0,0-10.17,15.31v.19ZM40.94,179.9a1.34,1.34,0,0,1-.51-.76l-2.76-35.9c.07-5.66,4.35-9.84,5.08-10.51l13.36-9.08,188.51-89.3L258.72,30l.31-.11a2.58,2.58,0,0,1,1.81-.09l167,77.17-8.79,5.33-1.69,1.13L229.84,221,211,228.23l-.33.2C200.19,235,199.41,245,199.38,245.38v.16l.5,34ZM243.06,281.6l-4.25,2.12-15.95,6.6-.26.13c-.75.41-3.08,1.38-4.7,1l.65-1.18-2.66-1.46a1,1,0,0,1,0-.16,265.72,265.72,0,0,0,0-38.54,14.7,14.7,0,0,1,7.39-11c3.3-1.31,26.56-10.57,30.72-13.45,5.43-3.33,164.1-94.62,165.72-95.56l6.63-3.87.15-.09c.44-.3,10.75-7.37,15.28-11.91l.12-.12a2.69,2.69,0,0,1,.73-.55,3.14,3.14,0,0,1,.6,1c.12.38,1.34,4.53.38,17l-.78,6.24-10.45-6.28a4.79,4.79,0,0,0-2-1.2l-.47-.28-.26-.15c-3.12-1.55-6.6-.37-8.83,1.24a30.26,30.26,0,0,0-9.55,7.08l-26.07,15.15.05-1-92.37,52.86,0,1.78-38.19,22.18c-10.22,6-18.83,19.91-20,32.31-.76,7.58,1.45,11.58,3.46,13.6a11.15,11.15,0,0,0,8.08,3.1,15.65,15.65,0,0,0,3.25-.37ZM439.12,163.8a27.18,27.18,0,0,1-7.55,9.94c-2.06,1.55-4,2.2-5.09,1.69-2.34-1.1-3.19-8.5.87-17.15s10.3-12.73,12.64-11.63S443.18,155.15,439.12,163.8Z"/><path class="cls-1" d="M261.54,248.58c-2.36-1.4-6.3.86-8.8,5.06s-2.61,8.74-.25,10.14,6.3-.85,8.8-5S263.9,250,261.54,248.58Z"/><path class="cls-1" d="M278.11,241.75c-1.31-.78-3.39.29-4.64,2.39s-1.2,4.43.11,5.21,3.39-.29,4.64-2.38S279.42,242.53,278.11,241.75Z"/><path class="cls-1" d="M57.43,172.13a1,1,0,0,0-1.65.55,4.2,4.2,0,0,0,1.1,2.21l14.93,9.4c1.1.55,1.66.55,1.66-.56a4.25,4.25,0,0,0-1.11-2.21Z"/><path class="cls-1" d="M79,184.84a1.06,1.06,0,0,0-1.66.55,4.18,4.18,0,0,0,1.11,2.21L93.37,197c.55.55,1.65.55,1.65-.55a4.2,4.2,0,0,0-1.1-2.21Z"/><path class="cls-1" d="M101.1,198.66a1.05,1.05,0,0,0-1.65.55,4.2,4.2,0,0,0,1.1,2.21l15.48,9.4a1.06,1.06,0,0,0,1.66-.55,4.18,4.18,0,0,0-1.11-2.21Z"/><path class="cls-1" d="M123.22,211.93a1.06,1.06,0,0,0-1.66.55,4.2,4.2,0,0,0,1.1,2.21l16,9.95c.56.55,1.11,0,1.11-1.11a4.18,4.18,0,0,0-1.11-2.21Z"/><path class="cls-1" d="M147,226.3a1.05,1.05,0,0,0-1.65.55,4.2,4.2,0,0,0,1.1,2.21l16,9.95c.56.55,1.11,0,1.66-.55a4.2,4.2,0,0,0-1.1-2.21Z"/><path class="cls-1" d="M170.2,240.67a1.06,1.06,0,0,0-1.66.55,4.18,4.18,0,0,0,1.11,2.21l16,9.95c1.1.56,1.66,0,1.66-.55a4.22,4.22,0,0,0-1.11-2.21Z"/><polygon class="cls-1" points="232.11 132.33 229.35 130.12 240.4 128.46 243.72 122.93 247.04 124.59 251.46 122.38 256.99 114.08 272.46 111.32 268.6 109.11 252.56 111.87 247.04 120.17 241.51 117.4 235.43 126.8 218.85 129.01 228.8 133.98 232.11 132.33"/></g></svg>