<?xml version="1.0" encoding="UTF-8"?><svg id="_层_1" xmlns="http://www.w3.org/2000/svg" viewBox="0 0 480 320"><defs><style>.cls-1{fill:#000;}</style></defs><path class="cls-1" d="M223.99,192.37l10.54,3.86c.07,.04,.22,.04,.3,0l3.97-1.43c.26-.11,.41-.32,.04-.43l-3.78-1.39,.15-.07,12.98-1.57s.11-.04,.15-.04l4.34-4.75c.07-.07,.26-.07,.37-.04l4.08,1.5c.07,.04,.22,.04,.33,0l2.04-.75c.52-.18,1-.39,1.48-.64,.78-.39,1.3-.75,1.85-1.39l5.42-5.96c.11-.11,.22-.21,.41-.25l19.51-2.39c.22-.04,.37-.25,0-.39l-3.93-1.43c-.11-.04-.22-.04-.33-.04l-19.77,2.39c-.11,0-.11,.04-.19,.11-2.19,2.39-4.27,4.64-6.46,7-.15,.14-.44,.29-.78,.14l-6.08-2.21c-.07-.04-.19,0-.26,.07l-6.42,7.07c-.07,.07-.11,.14-.3,.18l-19.66,2.39c-.45,.04-.63,.29,0,.46Z"/><path class="cls-1" d="M458.11,164.7c-.21-1.12-.49-2.16-.84-3.22,0-.03,0-.05,0-.07v-26.16c0-.36-.03-.71-.06-1.05-.02-.18-.04-.36-.07-.54v-.03h0c-.1-.69-.28-1.35-.52-1.96-.45-1.16-1.08-2.15-1.85-2.94-.02-.02-.04-.03-.05-.04-.02-.02-.03-.04-.04-.06-.6-.67-1.34-1.26-2.15-1.71-.38-.22-.72-.34-.9-.42-.01,0-.02,0-.03,0,0,0-.02,0-.03-.01L246.39,51.53h-.02c-.55-.21-1.14-.35-1.85-.46-.5-.06-1.08-.13-1.7-.13-.68,0-1.28,.05-1.85,.15-.54,.08-1.01,.21-1.45,.35-.11,.03-.21,.04-.32,.08L57.3,117.98c-.36,.03-.72,.08-1.08,.21l-30.57,11.16s-.07,.03-.1,.05c-.04,.02-.08,.02-.12,.04-.1,.04-.25,.1-.33,.14-.25,.12-.68,.33-1.13,.67-.06,.05-.11,.11-.17,.16l-.45,.35s-.02,.03-.04,.04c-.45,.36-.75,.72-.89,.91-.16,.2-.3,.42-.41,.65-.34,.66-.52,1.39-.52,2.12h0v3.33c0,.73,.18,1.46,.52,2.12,.12,.23,.26,.45,.42,.65,.14,.18,.44,.54,.89,.9,.01,.01,.03,.03,.04,.04l.45,.35c.06,.05,.11,.11,.17,.16,.46,.35,.9,.56,1.13,.67,.08,.04,.22,.1,.33,.14h0c-.86,.7-1.29,1.51-1.5,2.16-.05,.16-.07,.32-.1,.49,0,.02,0,.05-.01,.07-.04,.24-.07,.47-.07,.71,0,.02,0,.04,0,.06v1.99c0,.28,.03,.55,.08,.81,.06,.34,.17,.66,.31,.97,.21,.5,.52,.95,.9,1.32,.19,.19,.4,.36,.63,.51h0c-1.02,.74-1.51,1.63-1.74,2.34-.05,.16-.07,.33-.1,.49,0,.03-.01,.05-.02,.08-.04,.23-.07,.47-.07,.7,0,.02,0,.04,0,.06v1.99c0,.28,.03,.55,.08,.81,.06,.34,.17,.66,.31,.97,.09,.22,.21,.42,.33,.62,0,0,0,.02,.01,.03,.16,.25,.34,.48,.55,.69,0,0,.01,.01,.02,.02h0c.06,.07,.14,.12,.2,.17,.03,.03,.06,.05,.09,.07,.13,.11,.25,.22,.39,.31-.99,.73-1.46,1.61-1.68,2.3-.03,.08-.03,.17-.05,.25-.05,.18-.09,.37-.11,.57,0,.08-.02,.16-.02,.24,0,.09-.03,.18-.03,.27v1.99h0s0,.04,0,.06c0,.25,.03,.51,.08,.75,.12,.6,.36,1.17,.71,1.66,.15,.22,.32,.42,.51,.61,.12,.13,.27,.23,.4,.33,.03,.02,.05,.05,.08,.07,.06,.04,.11,.09,.17,.13-1.02,.74-1.51,1.63-1.73,2.34-.03,.08-.03,.16-.05,.25-.05,.19-.09,.37-.12,.57,0,.08-.02,.16-.02,.24,0,.09-.03,.18-.03,.27v1.99c0,.28,.03,.55,.08,.81,.06,.33,.17,.66,.31,.97,.09,.22,.21,.43,.34,.63h0c.16,.26,.35,.49,.56,.7,.28,.29,.6,.5,.93,.69l-.43,.16s-.06,.03-.09,.05c-.04,.01-.08,.02-.11,.04-.1,.04-.25,.11-.34,.15-.25,.12-.68,.33-1.14,.68-.02,.02-.04,.04-.06,.06-.02,.02-.04,.03-.06,.04l-.57,.47s-.01,.02-.02,.02c-.41,.34-.68,.67-.82,.85-.16,.21-.3,.43-.42,.66-.34,.67-.51,1.38-.51,2.12v3.3h0c0,.73,.18,1.46,.52,2.12,.12,.23,.26,.45,.42,.65,.14,.17,.41,.51,.82,.85,.01,0,.02,.02,.03,.03l.57,.47s.04,.03,.06,.04c.02,.02,.04,.04,.06,.05,.46,.36,.91,.57,1.11,.67,.1,.05,.23,.11,.37,.16,.04,.02,.07,.02,.11,.03,.03,.01,.06,.03,.09,.05l205.05,75.01h0l.06,.02c.14,.05,.28,.08,.42,.11,.57,.17,1.17,.28,1.76,.28,.5,0,.97-.06,1.41-.16,.13-.02,.26-.06,.39-.09,.02,0,.04,0,.05,0,.46,0,.92-.08,1.37-.24l191.35-69.92c.28-.1,.54-.24,.79-.4l1.21,.36c.11,.04,.21,.1,.33,.13,.84,.24,1.66,.4,2.5,.49,.53,.06,1.09,.09,1.71,.09,.28,0,.57,0,.87-.02,.05,0,.1,0,.14,0,.69-.05,1.62-.14,2.53-.35,.78-.17,1.43-.34,2.03-.54,.2-.04,.4-.09,.6-.16,1.08-.4,2.15-.89,3.15-1.47,1.11-.63,2.09-1.29,2.97-1.99,.97-.76,1.89-1.58,2.77-2.5,.59-.63,1.19-1.32,1.8-2.07l2.38-1.02c2.44-1.04,3.96-3.52,3.96-6.46v-4.77c.22-.79,.41-1.52,.55-2.2,.25-1.16,.44-2.38,.56-3.72,.11-1.16,.15-2.36,.12-3.67-.03-1.23-.16-2.46-.38-3.68ZM241.81,59.09c.07-.02,.15-.04,.22-.06,.06-.02,.13-.03,.19-.04,.06,0,.11-.02,.17-.03,.09-.02,.24-.03,.43-.03,.16,0,.51,.04,.6,.06,.13,.02,.19,.04,.21,.04h.01l197.54,72.16-206.38,75.38c-.16-.1-.34-.2-.52-.29-.24-.15-.5-.29-.78-.39L36.7,134.02,241.81,59.09Zm207.47,77.66v15.03c-.24-.12-.48-.25-.74-.37h-.02s-.01-.02-.02-.02l-3.1-1.35c-.29-.44-.6-.87-.94-1.29-.61-.78-1.33-1.55-2.1-2.22-.03-.02-.05-.05-.08-.07-.85-.7-1.6-1.24-2.3-1.64-.77-.46-1.62-.86-2.57-1.2-.01,0-.03-.02-.04-.02-.02,0-.03-.01-.05-.02-.01,0-.03-.01-.04-.02-.01,0-.03,0-.04-.01-.58-.21-1.14-.35-1.58-.46-.13-.03-.25-.03-.38-.05-.75-.16-1.54-.26-2.38-.31l16.39-5.98Zm-221.58,92.47L32.12,157.8l.18-.07c2.04-.78,3.06-3.05,2.33-5.09l193.07,70.51v6.07ZM32.19,167.1l.27-.11c2-.79,3-3.01,2.3-5.03l192.93,70.46v6.1L32.19,167.1Zm195.51,49.62v3.24L32.43,148.65c1.38-.12,2.55-.93,3.17-2.09l192.1,70.17ZM35.56,177.6c-.48-.86-1.27-1.52-2.22-1.83,1.4-1.01,2.01-2.84,1.43-4.53l192.93,70.48v6.07L35.56,177.6Zm.53,3.76v-.38l191.61,70v3.53L35.41,184.26c.58-.83,.84-1.87,.67-2.9Zm203.14,33.28c0-.38-.04-.76-.08-1.13l178.96-65.36c-.68,.55-1.36,1.15-2.07,1.83v.02h-.03c-.28,.29-.57,.56-.83,.84-.07,.07-.13,.14-.21,.22h0s-.04,.04-.05,.05c-.02,.02-.03,.04-.05,.06-.03,.03-.06,.05-.08,.07-.12,.12-.26,.29-.41,.48-1.39,1.55-2.64,3.19-3.69,4.86-1.18,1.84-2.23,3.83-3.11,5.92-.88,2.1-1.59,4.22-2.08,6.29-.54,2.21-.88,4.39-.99,6.48,0,.01,0,.02,0,.03-.03,.38-.06,.77-.06,1.15v.32h0v.32s0,.03,0,.04,0,.03,0,.04v.67c0,.3,.02,.74,.04,1.11,0,.08-.01,.16,0,.25,.12,1.85,.42,3.7,.91,5.54,.48,1.77,1.16,3.44,2.01,4.96,.9,1.62,1.96,3.03,3.16,4.18,.64,.62,1.26,1.14,1.9,1.6,.05,.03,.1,.06,.15,.1l-173.38,63.35v-44.26s0-.02,0-.04Zm187.31-55.6c-1.04,1.26-1.93,2.5-2.7,3.74-.81,1.29-1.54,2.66-2.21,4.16-.67,1.47-1.24,2.98-1.67,4.49-.46,1.55-.8,3.08-1.02,4.53-.21,1.36-.32,2.74-.34,4.1-.02,.15-.04,.29-.04,.44,0,1.02,.06,2.06,.18,3.09,.14,1.17,.31,2.11,.51,2.89,.06,.26,.14,.52,.21,.78-.03,0-.05,0-.08-.01-.35-.11-.7-.26-1.08-.46-.36-.19-.73-.43-1.06-.71-.34-.28-.69-.63-1.03-1.04-.28-.33-.56-.72-.92-1.33-.25-.4-.48-.89-.73-1.51-.24-.6-.43-1.19-.55-1.7-.17-.8-.3-1.54-.38-2.18-.08-.67-.12-1.36-.12-2.04,0-.07,.02-.13,.02-.2v-.88c.07-1.56,.29-3.13,.68-4.74,.17-.79,.39-1.56,.65-2.3,.32-.93,.62-1.69,.91-2.37,.41-.91,.76-1.64,1.14-2.32,.39-.73,.81-1.42,1.27-2.1,.46-.69,.94-1.34,1.49-2.01,.41-.53,.91-1.08,1.52-1.69,.59-.59,1.1-1.05,1.66-1.49,.6-.49,1.12-.87,1.67-1.21,.62-.39,1.15-.68,1.67-.92,.52-.24,1.06-.45,1.54-.59,.7-.19,1.21-.31,1.67-.37,.5-.07,1-.1,1.4-.09,.49,.02,.94,.07,1.32,.16,.28,.06,.52,.13,.75,.21-.43,.27-.92,.59-1.44,.99-.62,.45-1.22,.94-1.74,1.41-1.16,1.03-2.23,2.12-3.17,3.26Zm16.79,27.73c-.59,.61-1.24,1.19-1.96,1.75-.58,.46-1.21,.89-1.96,1.31-.54,.31-1.1,.57-1.67,.79-.14,.04-.28,.06-.42,.12-.36,.14-.79,.26-1.47,.41-.33,.08-.74,.13-1.31,.18-.54,.02-.94,0-1.28-.03-.33-.04-.65-.1-.98-.18-.04-.01-.07-.04-.12-.05-.44-.14-.84-.3-1.12-.45-.42-.23-.74-.44-1.03-.68-.3-.25-.62-.56-.93-.94-.28-.32-.53-.69-.83-1.2-.24-.4-.46-.85-.67-1.38-.23-.6-.4-1.17-.56-1.84-.14-.52-.24-1.12-.34-1.93-.08-.64-.11-1.28-.12-1.92,0-.07,.02-.13,.02-.2,0-1.1,.09-2.22,.26-3.35,.17-1.12,.43-2.29,.79-3.51,.33-1.15,.76-2.29,1.28-3.42,.53-1.19,1.09-2.24,1.71-3.23,.6-.96,1.28-1.91,2.08-2.88,.67-.81,1.45-1.61,2.35-2.4,.35-.32,.73-.63,1.12-.91,.03-.02,.05-.04,.08-.06,.32-.25,.68-.49,1.15-.78,.8-.49,1.58-.87,2.34-1.16h.02c.47-.18,.98-.32,1.51-.43,.84-.14,1.59-.15,2.3-.1,.15,.01,.29,.03,.44,.06,.24,.05,.49,.1,.74,.18,.12,.04,.27,.09,.49,.19,.02,.01,.05,.01,.07,.02,.26,.12,.51,.24,.76,.37,.13,.07,.38,.25,.58,.41,.21,.16,.4,.33,.62,.51,.21,.2,.39,.4,.54,.57,.38,.45,.73,.95,1.02,1.49,.3,.55,.58,1.18,.82,1.86,.24,.7,.43,1.44,.58,2.22,.14,.78,.23,1.6,.25,2.41,.02,.98,0,1.86-.09,2.71-.1,1.02-.23,1.93-.42,2.8-.1,.48-.24,1.01-.39,1.56-.13,.3-.22,.62-.28,.95-.03,.1-.06,.2-.09,.3-.34,1-.71,1.94-1.09,2.78-.38,.83-.85,1.72-1.36,2.6-.52,.87-1.05,1.64-1.59,2.33-.66,.83-1.28,1.55-1.86,2.17Z"/><path class="cls-1" d="M250.61,251.61c.43,.3,.93,.45,1.43,.45,.29,0,.58-.05,.86-.15l149.31-54.69c.99-.36,1.64-1.3,1.64-2.35v-35.94c0-.82-.4-1.58-1.07-2.05-.67-.47-1.53-.58-2.29-.3l-149.31,54.74c-.99,.36-1.64,1.3-1.64,2.35v35.89c0,.82,.4,1.58,1.07,2.05Zm3.93-36.2l144.31-52.91v30.62l-144.31,52.86v-30.57Z"/><path class="cls-1" d="M285.95,220.26c-.17-.29-.4-.69-.78-1.06-.29-.28-.62-.5-.97-.68-.03-.02-.05-.04-.08-.05-.02,0-.04-.01-.05-.02-.03-.01-.06-.03-.09-.05-.11-.05-.22-.08-.34-.11-.4-.14-.83-.23-1.33-.23-.58,0-1.06,.14-1.4,.26-.03,0-.05,.01-.08,.02-.56,.19-1.1,.5-1.61,.9-.2,.16-.4,.35-.6,.54-.28,.27-.47,.53-.63,.75-.15,.2-.29,.42-.46,.67-.21,.32-.37,.65-.5,.98-.19,.44-.41,1.02-.52,1.66-.08,.45-.17,1.06-.13,1.78,.03,.46,.1,1.05,.34,1.69,.1,.29,.23,.57,.41,.84,.15,.26,.33,.5,.56,.73,.23,.25,.5,.48,.85,.68,.16,.09,.32,.18,.51,.27,.22,.11,.44,.16,.67,.18,.32,.07,.64,.12,.95,.12,.65,0,1.18-.18,1.52-.31,0,0,.02,0,.03-.01,.16-.06,.31-.12,.4-.17,.35-.17,.66-.37,.96-.6,.12-.07,.24-.15,.35-.25l.06-.05c.16-.13,.31-.27,.49-.46,.03-.03,.05-.05,.08-.08,.35-.38,.65-.77,.84-1.12,.25-.42,.45-.81,.61-1.21,.2-.5,.33-.96,.41-1.44,.04-.26,.07-.43,.09-.66,.01-.06,.03-.12,.04-.18,.09-.68-.02-1.48-.1-1.92-.09-.45-.25-.91-.52-1.42Zm-4.67,5.53c-.13,.11-.24,.19-.38,.25l-.08,.04s-.02,.01-.03,.01c0,0-.02,0-.03,0-.04,.02-.08,.03-.08,.04,0,0-.04,0-.09-.02l-.03-.03s-.03-.06-.05-.08c-.01-.05-.03-.09-.05-.13-.04-.1-.07-.25-.08-.49-.01-.22,0-.47,.08-.84,.04-.22,.12-.47,.28-.84,.02-.04,.04-.09,.05-.13,.01-.04,.03-.09,.11-.2,.1-.16,.2-.31,.3-.45,.06-.08,.12-.17,.2-.25,.11-.11,.22-.21,.33-.3,.14-.11,.28-.19,.4-.24,.03-.01,.07-.02,.1-.03,.04-.02,.09-.04,.08-.04,.02,0,.04,0,.06,0h0c.04,.06,.07,.11,.07,.12,.06,.12,.09,.21,.09,.21h0c.04,.23,.06,.45,.06,.59-.01,.07-.03,.14-.04,.21-.02,.26-.04,.38-.08,.65-.02,.14-.08,.32-.17,.54-.08,.2-.18,.4-.35,.68-.07,.13-.18,.27-.31,.41h0l-.09,.1s-.06,.05-.09,.07c-.06,.04-.13,.08-.19,.13Z"/><path class="cls-1" d="M273.98,225.25c-.15-.65-.38-1.24-.69-1.81-.32-.57-.72-1.08-1.2-1.5-.03-.02-.06-.05-.08-.07-.21-.17-.42-.33-.62-.46-.3-.19-.59-.31-.83-.41h0c-.21-.09-.42-.15-.65-.17-.79-.19-1.6-.18-2.34-.05-.02,0-.04,.01-.06,.02-.02,0-.04,0-.06,0-.16,.04-.31,.08-.43,.12-.34,.11-.74,.25-1.16,.46h-.02l-.02,.02s-.06,.04-.09,.06c0,0-.02,0-.03,.01-.21,.12-.46,.26-.73,.46-.57,.4-1.09,.88-1.57,1.4-.07,.06-.14,.11-.2,.18-.45,.5-.86,1.07-1.16,1.63-.35,.59-.65,1.22-.87,1.86-.23,.67-.4,1.27-.51,1.83-.12,.63-.19,1.27-.19,1.91,0,0,0,.02,0,.02h0v.02s0,.02,0,.03c0,.36,.03,.73,.06,1.06,0,.06,.01,.12,.02,.18,.06,.37,.13,.73,.23,1.1,.19,.63,.47,1.2,.81,1.72,.06,.13,.13,.26,.22,.38,.29,.39,.65,.76,1.06,1.07,.42,.31,.86,.55,1.31,.71,.07,.02,.13,.04,.2,.05,.3,.1,.59,.17,.83,.2,.28,.03,.57,.06,.82,.06,.62,0,1.26-.12,1.97-.38,.61-.23,1.17-.53,1.68-.89,.55-.37,1.06-.82,1.54-1.35,.48-.52,.89-1.08,1.23-1.63,.36-.58,.68-1.21,.95-1.9,.29-.77,.47-1.38,.58-1.97,.1-.52,.15-1.06,.17-1.59,.03-.14,.05-.28,.05-.42,0-.64-.07-1.3-.21-1.97Zm-3.94,3.23c-.07,.35-.19,.76-.38,1.27-.17,.43-.38,.84-.63,1.25-.21,.36-.47,.7-.77,1.03-.27,.3-.54,.54-.86,.75-.26,.18-.53,.32-.79,.42-.41,.15-.55,.15-.99,.08-.04-.02-.08-.02-.12-.04h0c-.07-.03-.15-.07-.23-.14-.08-.06-.15-.13-.2-.19-.02-.03-.03-.05-.05-.08-.18-.23-.31-.51-.4-.81-.05-.18-.09-.38-.12-.58-.02-.22-.04-.45-.04-.68,0-.38,.04-.78,.12-1.16,.08-.38,.2-.81,.37-1.3,.14-.39,.31-.76,.56-1.18,.18-.33,.38-.61,.6-.87,.03-.03,.07-.06,.1-.1,.32-.38,.68-.71,1.07-.98,.01,0,.1-.07,.11-.08,.07-.05,.15-.09,.23-.13h0s.03-.03,.05-.04c.14-.07,.31-.13,.54-.21l.14-.04c.18-.04,.38-.08,.64,.01,.05,.02,.1,.03,.16,.04,.02,0,.05,.02,.07,.03,.1,.06,.19,.14,.22,.16,.14,.12,.25,.27,.35,.44,.13,.24,.23,.49,.28,.74,.06,.3,.09,.62,.1,.93,0,.06-.02,.11-.02,.17,0,.42-.04,.85-.12,1.27Z"/></svg>