<?xml version="1.0" encoding="UTF-8"?><svg id="_层_1" xmlns="http://www.w3.org/2000/svg" viewBox="0 0 480 320"><defs><style>.cls-1{fill:#000;fill-rule:evenodd;}</style></defs><path class="cls-1" d="M458.5,125.53c0-.99-.2-1.99-.56-2.95-.38-1.01-.93-1.91-1.65-2.69-.03-.03-.06-.05-.09-.08-.02-.03-.05-.05-.07-.08-.02-.03-.04-.06-.07-.08-.02-.02-.03-.03-.05-.04-.01-.01-.02-.03-.04-.04-.02-.02-.05-.04-.07-.06-.54-.54-1.09-.97-1.68-1.3-.28-.17-.57-.29-.87-.4-.02,0-.04-.02-.06-.03L280.77,53.63h-.01c-.49-.18-.99-.32-1.62-.42-1-.16-2.18-.17-3.3,.01-.37,.06-.9,.16-1.5,.39-.03,0-.06,.01-.08,.02L51.9,136.33h-.02l-.03,.02c-.07,.03-.13,.07-.2,.1-.02,0-.04,.02-.06,.03-.09,.02-.18,.06-.28,.09-.07,.02-.14,.03-.21,.05l-25.72,9.56h0c-.15,.06-.31,.12-.49,.21-.44,.2-.76,.43-.94,.55-.05,.04-.1,.09-.15,.13h-.01s-.02,.02-.03,.03l-.49,.39c-.16,.13-.29,.28-.43,.42-.33,.34-.63,.71-.84,1.13-.15,.3-.31,.73-.41,1.23v.03c-.05,.25-.09,.51-.09,.79v2.83c0,.28,.03,.54,.08,.79v.03c.1,.51,.27,.93,.42,1.23,.05,.1,.1,.19,.16,.28,.21,.34,.46,.63,.73,.9,.03,.03,.05,.06,.08,.09,.06,.06,.12,.1,.18,.15,.05,.04,.08,.09,.13,.13l.49,.39s.03,.02,.04,.03c.05,.04,.09,.09,.15,.13,.16,.11,.33,.21,.51,.3-.47,.55-.71,1.1-.84,1.5-.03,.08-.03,.17-.05,.25-.05,.19-.09,.38-.12,.57,0,.08-.02,.15-.02,.23,0,.1-.03,.19-.03,.3v1.71c0,.26,.03,.52,.08,.78,0,.02,0,.03,0,.05,.08,.41,.21,.81,.41,1.2,.22,.42,.5,.78,.83,1.08-.64,.64-.96,1.32-1.11,1.78-.03,.08-.03,.17-.05,.25-.05,.19-.09,.38-.12,.57,0,.08-.02,.15-.02,.23,0,.1-.03,.19-.03,.3v1.71c0,.26,.03,.51,.08,.76,0,.04,.02,.08,.03,.12,.1,.5,.29,.97,.56,1.4,.02,.03,.03,.05,.05,.08,.02,.03,.03,.06,.05,.09,.05,.07,.11,.12,.16,.18,.09,.12,.17,.24,.27,.35,.03,.03,.05,.05,.08,.08,.01,.01,.08,.08,.09,.09h0c-.61,.63-.92,1.29-1.07,1.74-.03,.08-.03,.16-.05,.24-.05,.19-.09,.38-.12,.58,0,.07-.02,.15-.02,.22,0,.1-.03,.2-.03,.3v1.71c0,.26,.03,.52,.08,.78,0,.01,0,.03,0,.04,.08,.4,.2,.79,.39,1.17,.22,.44,.51,.81,.85,1.12-.64,.64-.96,1.32-1.11,1.78-.03,.08-.03,.16-.05,.24-.05,.19-.09,.38-.12,.58,0,.07-.02,.15-.02,.22,0,.1-.03,.2-.03,.3v1.7c0,.26,.03,.52,.08,.78,0,.01,0,.03,0,.04,.08,.4,.2,.79,.39,1.17,.22,.44,.52,.81,.85,1.12-.03,.01-.05,.02-.08,.04-.28,.15-.53,.29-.77,.46-.05,.03-.09,.08-.13,.11-.01,0-.02,.02-.03,.03-.01,0-.03,.01-.04,.02l-.49,.39c-.16,.13-.29,.27-.42,.42-.33,.34-.63,.71-.85,1.14-.15,.29-.3,.7-.4,1.18,0,.03-.01,.07-.02,.1-.04,.22-.07,.46-.07,.71,0,.02,0,.03,0,.04v2.85s0,.03,0,.04c0,.25,.03,.49,.07,.71,0,.03,.01,.07,.02,.1,.1,.48,.26,.89,.4,1.19,.21,.41,.5,.78,.83,1.11,.05,.05,.08,.11,.13,.15,.06,.06,.12,.1,.18,.15,.05,.04,.08,.09,.13,.13l.49,.39s.03,.02,.04,.03c.05,.04,.09,.09,.15,.13,.17,.12,.5,.35,.94,.55,.19,.09,.35,.16,.49,.21h0l172.5,64.25c.06,.02,.12,.03,.18,.05,.63,.22,1.27,.34,1.9,.34,.44,0,.87-.06,1.29-.16h.04c.06-.02,.13-.04,.19-.05,.12-.03,.25-.05,.37-.09,.02,0,.03-.01,.04-.02,.02,0,.04,0,.06-.01,0,0,.02,0,.02-.01,0,0,.02,0,.03,0l27.57-10.25s.05-.03,.08-.04c.83-.04,1.6-.33,2.22-.81l189.74-70.57c.19,.03,.38,.07,.58,.09,.53,.07,1.05,.1,1.58,.1,.24,0,.49,0,.74-.02,.74-.03,1.48-.12,2.31-.3,.7-.15,1.42-.36,2.18-.63h.02l.03-.02h.01c.87-.32,1.74-.72,2.8-1.32,.89-.52,1.75-1.11,2.53-1.73,.6-.47,1.19-1.01,1.79-1.59l18.42-6.84c.26-.1,.5-.22,.73-.36,.37-.2,.72-.43,1.06-.73,.54-.48,.98-1.03,1.31-1.65,.29-.53,.5-1.11,.63-1.71,0-.04,.02-.08,.03-.12,.11-.55,.16-1.06,.16-1.56h0v-40.69s-.01-.09-.01-.14c0-.05,.01-.09,.01-.14ZM277.02,61.14s.05-.01,.07-.02h.05s.15-.03,.39-.03c.22,0,.38,.02,.33,0,.1,.02,.14,.03,.15,.03h0l164.62,61.22-213.62,79.45c-.24-.13-.49-.24-.74-.33h0L63.98,140.37,277.02,61.14Zm139.83,88.55c-.81,1-1.59,2.1-2.31,3.28-.66,1.08-1.28,2.27-1.89,3.65-.58,1.33-1.05,2.6-1.41,3.88-.4,1.37-.68,2.67-.87,3.95-.2,1.31-.3,2.64-.31,3.96h0v.02h0c0,.96,.05,1.83,.15,2.7,.08,.66,.19,1.3,.33,1.96-.18-.12-.35-.23-.49-.35-.32-.27-.56-.51-.75-.75-.02-.03-.04-.05-.06-.08-.25-.29-.48-.62-.72-1.04-.21-.34-.38-.72-.58-1.23-.17-.43-.32-.91-.44-1.43-.13-.54-.23-1.11-.3-1.71-.06-.53-.09-1.11-.09-1.72,0-.05,.01-.09,.01-.14v-.76c.04-1.26,.22-2.57,.53-3.88,.19-.8,.37-1.45,.56-2.03,.26-.78,.5-1.41,.75-1.99,.25-.57,.54-1.17,.93-1.92,.32-.6,.67-1.19,1.06-1.78,.36-.55,.76-1.1,1.16-1.6,.39-.47,.82-.96,1.29-1.45,.43-.43,.88-.85,1.35-1.24,.46-.38,.9-.7,1.37-1.01,.46-.3,.88-.54,1.36-.76,.39-.19,.8-.35,1.27-.49,.37-.12,.75-.2,1.18-.26,.36-.05,.74-.07,1.1-.06,.1,0,.18,.03,.28,.04-.06,.04-.12,.08-.18,.13-.48,.35-.94,.74-1.51,1.25-.99,.89-1.88,1.82-2.74,2.87Zm-364.36-5.05l165.12,61.41-16.16,6.01c-.27-.14-.55-.27-.83-.37-.04-.02-.09-.02-.13-.03L36.39,150.62l16.11-5.99Zm142.05,74.46c.02,.53,.14,1.06,.36,1.54v3.19L32.65,163.48c.97-.43,1.73-1.23,2.12-2.22,.13-.22,.25-.46,.33-.7,.08-.23,.14-.46,.18-.69l159.26,59.23Zm.36,12.67L32.1,171.21c1.39-.84,2.12-2.44,1.86-4.03l160.94,59.85v4.74ZM32.19,179.18c1.4-.84,2.14-2.44,1.89-4.04l160.83,59.82v4.73L32.19,179.18Zm2.5,8.86c-.33-.73-.87-1.33-1.54-1.75,.75-.87,1.11-2.04,.93-3.21l160.83,59.81v4.74L34.68,188.04Zm.36,3.34l159.86,59.46v4.84L32.78,195.37c1.55-.73,2.43-2.34,2.27-4Zm170.86,28.37c0-.26-.03-.53-.06-.79l19.61-7.29v37.64l-19.55,7.27v-36.83Zm27.55-10.06c0-.06,.02-.11,.02-.17,0-.27-.03-.54-.06-.82l172.24-64.06c-.74,.93-1.45,1.92-2.13,2.99-1.01,1.58-1.91,3.32-2.66,5.12-.73,1.71-1.34,3.56-1.81,5.53-.43,1.81-.71,3.69-.83,5.59h0c-.02,.36-.04,.73-.04,1.09v.54s0,.02,0,.03,0,.02,0,.03,0,.02,0,.03,0,.02,0,.03h0v.54h0c0,.32,.02,.86,.04,1.18h0c.12,1.8,.37,3.39,.78,4.86,.43,1.59,1.02,3.06,1.73,4.35,.76,1.39,1.67,2.63,2.73,3.69,.03,.03,.06,.06,.09,.09,.47,.45,1,.92,1.59,1.34,.25,.19,.51,.36,.78,.52l-172.48,64.15v-36.65Zm192.84-33.09c-.42,.15-.78,.26-1.14,.33-.39,.08-.69,.13-.96,.13-.04,0-.09,0-.13,0-.31,.02-.6,0-.9-.03-.35-.04-.65-.11-.94-.19h-.03s-.04-.01-.06-.02c-.21-.07-.42-.15-.63-.27-.32-.18-.58-.35-.79-.52-.24-.2-.46-.43-.69-.7-.22-.26-.43-.57-.6-.88-.24-.43-.43-.82-.58-1.23-.17-.43-.3-.89-.42-1.37-.13-.58-.23-1.14-.29-1.69-.06-.54-.09-1.12-.09-1.75,0-.93,.07-1.83,.22-2.78,.14-.94,.35-1.9,.65-2.94,.27-.93,.61-1.87,1.04-2.85,.46-1.04,.92-1.93,1.4-2.71,.54-.88,1.12-1.7,1.7-2.41,.59-.71,1.2-1.36,1.88-1.97,.38-.34,.68-.59,.93-.78,.34-.25,.67-.48,1.02-.7,.62-.39,1.25-.7,1.87-.93h.02c.42-.16,.83-.28,1.23-.35,.54-.11,1.03-.14,1.54-.09,.14,.02,.29,.02,.43,.06,.05,.01,.16,.03,.21,.04,.13,.02,.25,.07,.37,.11l.35,.16h.03c.15,.08,.3,.16,.44,.24,.17,.11,.35,.22,.51,.34,.13,.1,.28,.22,.33,.27,.03,.03,.06,.06,.09,.09,.16,.16,.31,.31,.42,.44,.33,.4,.62,.83,.87,1.27,.21,.38,.42,.86,.63,1.44,.21,.62,.36,1.23,.46,1.77,.11,.69,.18,1.39,.21,2.09,.03,.68,0,1.41-.07,2.19-.07,.79-.19,1.57-.35,2.35-.14,.7-.35,1.47-.63,2.35-.22,.69-.51,1.43-.9,2.28-.31,.7-.69,1.41-1.12,2.16-.46,.77-.89,1.42-1.33,1.99-.53,.69-1.01,1.26-1.48,1.75-.53,.55-1.05,1.02-1.58,1.44-.5,.4-1.04,.77-1.54,1.06-.62,.35-1.1,.58-1.55,.74h-.04Zm18.58-18.63c-.04-1.03-.14-2.06-.31-3.09-.17-.98-.42-1.98-.78-3.06-.25-.69-.64-1.73-1.22-2.76-.47-.84-1.02-1.64-1.66-2.42-.28-.34-.59-.67-.96-1.04-.42-.43-.84-.76-1.15-1.01-.04-.03-.08-.06-.12-.09-.35-.26-.72-.5-1.1-.73-.04-.03-.09-.06-.14-.08-.25-.15-.62-.35-1.03-.54-.07-.04-.13-.09-.21-.12-.11-.05-.24-.09-.36-.14l-2.14-.95c-.23-.34-.47-.68-.74-1.03-.55-.71-1.18-1.36-1.86-1.96-.66-.58-1.36-1.09-2.16-1.56-.55-.31-1.07-.56-1.58-.77l23.14-8.61v37.65l-7.31,2.72c.08-.24,.18-.48,.25-.71,.37-1.17,.65-2.22,.85-3.19,.22-1.06,.38-2.14,.48-3.22,.11-1.12,.14-2.22,.1-3.26Z"/><path class="cls-1" d="M223.41,232.77c-.02-.65-.09-1.28-.22-1.83-.16-.79-.44-1.53-.83-2.21-.36-.63-.79-1.18-1.29-1.66-.29-.28-.59-.49-.83-.66-.38-.26-.75-.4-1.04-.51h-.03s-.03-.02-.05-.03h0s-.04-.02-.06-.02c-.18-.08-.37-.11-.56-.13-.35-.08-.71-.15-1.11-.18-.68-.05-1.3,.06-1.71,.16h-.04c-.08,.03-.17,.05-.28,.07-.07,.01-.13,.03-.19,.05-.5,.15-.93,.33-1.33,.53-.05,.02-.1,.03-.15,.06-.23,.11-.44,.24-.66,.38l-.16,.1s-.06,.04-.09,.06c-.82,.56-1.55,1.22-2.23,2.02-.09,.11-.17,.22-.23,.34-.37,.46-.73,.97-1.09,1.58-.35,.59-.67,1.27-1.05,2.21-.22,.6-.48,1.41-.63,2.27-.11,.6-.23,1.41-.23,2.3,0,.14,.02,.28,.04,.41,.02,.37,.04,.75,.1,1.14,.06,.39,.14,.87,.29,1.35,.29,.91,.68,1.72,1.18,2.41,.08,.12,.18,.22,.29,.31,.3,.36,.62,.67,.91,.88,.4,.31,.86,.56,1.45,.8,.01,0,.02,0,.04,.01,.01,0,.02,.01,.03,.01,.35,.13,.68,.21,.98,.27,.07,.01,.21,.03,.28,.04,.3,.03,.58,.06,.89,.06,.84,0,1.58-.2,2.22-.41,.87-.3,1.6-.76,2.1-1.1,.72-.52,1.32-1.05,1.81-1.62,.56-.65,1.04-1.27,1.46-1.94,.39-.64,.76-1.35,1.13-2.24,.29-.76,.53-1.56,.69-2.36,.16-.76,.25-1.59,.25-2.48,0-.15-.02-.3-.05-.44Zm-4.59,3.77c-.28,.64-.55,1.19-.82,1.63-.3,.46-.65,.93-1.09,1.44-.29,.34-.65,.65-1.08,.96-.44,.3-.78,.48-1.07,.58-.33,.11-.68,.21-.96,.21-.13,0-.25-.01-.42-.03-.12-.03-.23-.05-.34-.09-.26-.11-.4-.19-.53-.29-.11-.08-.23-.2-.36-.37,0-.01-.02-.02-.03-.04-.22-.32-.41-.71-.55-1.18-.06-.2-.11-.48-.16-.8-.04-.28-.06-.6-.06-.9,0-.07-.01-.15-.02-.22,.01-.39,.06-.83,.17-1.39,.08-.45,.21-.94,.43-1.54,.27-.67,.51-1.18,.76-1.6,.33-.55,.63-1,.94-1.35,.03-.04,.05-.08,.08-.12,.41-.46,.84-.86,1.31-1.19l.15-.1c.08-.05,.16-.1,.25-.15,.03-.01,.06-.02,.09-.03,.02-.01,.04-.03,.07-.04,.02-.01,.05-.02,.08-.03,.15-.09,.35-.17,.6-.24,.13-.03,.24-.05,.35-.08,.11-.02,.34-.08,.5-.06,.25,.02,.43,.05,.6,.1,.04,.01,.08,0,.12,.02,.07,.02,.13,.04,.16,.06,.11,.08,.23,.15,.32,.24,.23,.22,.43,.48,.6,.78,.17,.3,.3,.65,.39,1.07,.1,.43,.15,.89,.15,1.41,0,.07,.01,.13,.02,.19-.01,.53-.06,1.02-.15,1.46-.12,.6-.3,1.19-.48,1.67Z"/><path class="cls-1" d="M286.09,211.79c.11,.19,.25,.37,.42,.54,.17,.19,.38,.36,.61,.49,.13,.07,.26,.15,.41,.22,.16,.08,.33,.11,.5,.13,.24,.05,.47,.09,.71,.09,.48,0,.88-.13,1.13-.23,0,0,.01,0,.02-.01,.12-.05,.23-.09,.3-.13,.33-.16,.61-.35,.9-.59,.04-.03,.09-.04,.12-.08,.12-.1,.24-.2,.34-.31,0,0,.08-.09,.09-.09,.26-.28,.48-.57,.63-.84,.18-.3,.33-.6,.46-.91,.15-.38,.24-.71,.3-1.04,.04-.23,.06-.36,.08-.57,0-.03,.02-.05,.02-.07,.07-.5-.01-1.1-.07-1.43-.06-.34-.18-.67-.39-1.06-.12-.2-.3-.51-.59-.8-.23-.22-.46-.37-.73-.5-.02-.01-.03-.03-.05-.04-.01,0-.03,0-.04-.01-.02-.01-.04-.03-.07-.04-.09-.04-.18-.06-.27-.08-.3-.1-.61-.17-.98-.17-.41,0-.74,.1-1,.19-.04,0-.07,.01-.11,.03-.42,.14-.82,.37-1.2,.67-.15,.12-.29,.25-.45,.41-.17,.17-.32,.36-.47,.55-.11,.15-.23,.33-.34,.5-.16,.24-.28,.48-.37,.73-.14,.33-.3,.76-.38,1.23-.06,.34-.13,.79-.1,1.33,.02,.34,.07,.78,.26,1.26,.07,.22,.17,.43,.3,.63Zm2.55-1.55h0Zm1.17-2.92h.02s.04-.01,.05-.02c.03-.01,.06-.02,.1-.02,.02,.04,.04,.07,.04,.07,.04,.08,.06,.14,.06,.15,.03,.19,.04,.35,.05,.45,0,.05-.02,.09-.02,.14-.01,.2-.03,.29-.06,.49-.02,.1-.06,.23-.12,.39-.07,.16-.14,.31-.26,.5-.05,.09-.14,.2-.18,.25l-.12,.13-.06,.04s-.1,.06-.15,.1c-.09,.08-.17,.14-.29,.19l-.05,.03h-.02l-.02,.02s-.06,.02-.05,.03h0s-.04,0-.06-.01c-.01-.01-.03-.03-.04-.04,0,0,.01,.01,.03,.04h-.02v-.02c-.02-.05-.04-.1-.06-.15-.03-.07-.05-.18-.06-.36,0-.16,0-.35,.06-.62,.03-.16,.09-.35,.21-.63,.01-.03,.03-.06,.04-.1,0-.03,.03-.06,.07-.14,.08-.12,.16-.24,.23-.35,.05-.06,.09-.13,.15-.19,.08-.08,.16-.15,.24-.22,.11-.09,.21-.15,.3-.18Z"/><path class="cls-1" d="M273.7,213.76c0,.27,.02,.54,.04,.79,0,.05,.01,.12,.02,.16,.05,.26,.1,.52,.17,.79,.17,.58,.43,1.11,.78,1.56,.24,.31,.57,.5,.93,.57,.16,.32,.42,.59,.77,.73,.3,.12,.59,.18,.83,.21,.21,.02,.42,.05,.6,.05,.47,0,.94-.09,1.46-.28,.46-.17,.88-.39,1.26-.66,.41-.28,.79-.61,1.15-1,.35-.39,.67-.8,.92-1.22,.27-.43,.5-.9,.71-1.41,.13-.36,.33-.9,.44-1.47,.07-.39,.11-.79,.13-1.18,.02-.1,.03-.21,.03-.32,0-.48-.05-.97-.15-1.46-.11-.48-.28-.92-.51-1.35-.24-.43-.54-.8-.95-1.16-.16-.13-.32-.25-.47-.35-.16-.1-.35-.19-.54-.27h-.03s-.04-.03-.06-.04c-.04-.02-.09-.03-.13-.04-.11-.04-.23-.08-.35-.09-.59-.14-1.2-.13-1.75-.04-.02,0-.03,0-.05,.01-.01,0-.02,0-.04,0-.12,.03-.24,.06-.33,.09-.27,.09-.56,.19-.86,.35h-.02s-.05,.04-.07,.06h-.02c-.19,.11-.37,.22-.54,.35-.45,.32-.87,.7-1.24,1.13-.02,.02-.05,.03-.07,.05-.34,.38-.64,.8-.87,1.21-.26,.44-.48,.91-.65,1.39-.17,.5-.3,.95-.38,1.36-.09,.47-.14,.95-.14,1.42v.02h0v.04Zm7.12-1.74c-.05,.26-.14,.57-.28,.94-.13,.32-.28,.62-.47,.92-.16,.26-.35,.52-.57,.76-.2,.22-.4,.4-.64,.56-.19,.13-.38,.24-.58,.31-.3,.11-.4,.11-.73,.06-.1-.04-.2-.07-.3-.09-.04-.08-.09-.16-.14-.24-.13-.17-.23-.37-.29-.59-.04-.13-.06-.27-.09-.43-.01-.16-.03-.33-.03-.5,0-.29,.03-.58,.09-.87,.05-.28,.14-.59,.27-.96,.1-.29,.23-.56,.42-.88,.13-.25,.29-.46,.46-.65,.02-.02,.04-.04,.06-.06,.24-.28,.51-.53,.8-.73,0,0,.07-.05,.08-.06,.05-.04,.11-.07,.17-.1h0s.02-.02,.03-.03c.13-.07,.27-.11,.4-.16l.07-.02c.15-.03,.29-.07,.49,0,.02,0,.05,0,.07,.01,.03,.01,.07,.03,.09,.04,.07,.05,.14,.11,.16,.12,.1,.09,.18,.19,.25,.32,.1,.18,.17,.36,.21,.54,.05,.23,.07,.48,.07,.72,0,.03,0,.06,0,.1,0,.31-.03,.63-.09,.94Z"/><path class="cls-1" d="M385.87,156.87c-.67-.47-1.53-.58-2.29-.29l-117.04,43.18c-1.02,.37-1.68,1.36-1.63,2.44l1,25.28c.03,.8,.45,1.54,1.11,1.98,.42,.28,.9,.42,1.38,.42,.29,0,.59-.05,.87-.16l116.04-43.31c.98-.36,1.63-1.3,1.63-2.34v-25.15c0-.82-.4-1.58-1.07-2.05Zm-3.93,25.47l-111.17,41.49-.79-20.01,111.97-41.31v19.83Z"/><path class="cls-1" d="M349.76,137.67l10.54,3.86c.07,.04,.22,.04,.3,0l3.97-1.43c.26-.11,.41-.32,.04-.43l-3.78-1.39,.15-.07,12.98-1.57s.11-.04,.15-.04l4.34-4.75c.07-.07,.26-.07,.37-.04l4.08,1.5c.07,.04,.22,.04,.33,0l2.04-.75c.52-.18,1-.39,1.48-.64,.78-.39,1.3-.75,1.85-1.39l5.42-5.96c.11-.11,.22-.21,.41-.25l19.51-2.39c.22-.04,.37-.25,0-.39l-3.93-1.43c-.11-.04-.22-.04-.33-.04l-19.77,2.39c-.11,0-.11,.04-.19,.11-2.19,2.39-4.27,4.64-6.46,7-.15,.14-.44,.29-.78,.14l-6.08-2.21c-.07-.04-.19,0-.26,.07l-6.42,7.07c-.07,.07-.11,.14-.3,.18l-19.66,2.39c-.45,.04-.63,.29,0,.46Z"/></svg>