<svg xmlns="http://www.w3.org/2000/svg" viewBox="0 0 480 320"><defs><style>.cls-1{fill:#000;}</style></defs><g id="图层_1" data-name="图层 1"><path class="cls-1" d="M446.83,143.52,448.14,133v-.12c1.1-14.26-.43-18.68-.76-19.45a6.38,6.38,0,0,0-3.51-3.73l.26-.33-5.9-4.52a4.8,4.8,0,0,0-2-1.72L263.82,23.49a10.51,10.51,0,0,0-8-.15L241.34,27.8,52,117.47l-14.36,9.71-.31.23c-.33.28-8.07,6.85-8.07,16.9l2.77,36.12a9.33,9.33,0,0,0,3.8,6.88l.14.1L203.24,292.28a6.3,6.3,0,0,0,.73.43l.08-.15,10.29,5.61.76-1.39a8.07,8.07,0,0,0,3.29.67,13.85,13.85,0,0,0,6.13-1.64l15.91-6.58,4.68-2.33,172.4-104.42,7.41,2.65,1.26-.63c.26,0,.52,0,.78,0a15.29,15.29,0,0,0,9.05-3.49,34.71,34.71,0,0,0,10-12.92C450.58,158.33,450.71,148.8,446.83,143.52Zm-40.48,34.57.64.64h0l-24.12,14.81a10.11,10.11,0,0,0-.08-1.88l1.66-31.45L405,148.28a26.11,26.11,0,0,0-1.3,3.69C397.49,169,406,177.72,406.35,178.09Zm-31.57,14.14-74.83,45,.42-26.47,75.68-43.32-1.29,24.62ZM292.06,244a5.19,5.19,0,0,0,2.51,2.9l-35.92,21.33-.16.1a48.7,48.7,0,0,1-9.33,5.21c-5.33,1.61-7.72-.85-7.79-.92l-.13-.14c-1.76-1.76-2.48-5.17-2-9.6,1-10.78,8.75-23.29,17.56-28.48l35.57-20.65-.48,29.61Zm124.27-70.39-4.74-1.7c-1.21-1.76-4-7.34-.32-17.33l.15-.48a23.64,23.64,0,0,1,12.68-15l.45-.22.36-.27a4.15,4.15,0,0,1,1-.52l5.77,3.47c-4.49,2.65-8.81,7.63-11.92,14.24C416.73,162.21,415.64,168.5,416.33,173.57ZM210.45,251.21a257.13,257.13,0,0,1,.18,35.82l-2.89-1.57a4,4,0,0,1-.19-1.36L207,246.75c.12-.95,1.07-6.42,7.2-10.41l18.7-7.15L421.12,121.24l1.81-1.2,12.27-7.44.82.64c-4.53,4-11.89,9.05-12.7,9.61l-6.54,3.81c-6.6,3.79-161.5,92.92-165.92,95.68l-.12.08c-2.66,1.9-19.32,8.8-29.87,13l-.26.12a19.71,19.71,0,0,0-10.16,15.32v.37ZM40.57,180.83a1.49,1.49,0,0,1-.52-.77l-2.76-35.9c.07-5.66,4.36-9.84,5.09-10.51l13.36-9.08,188.5-89.29,14.1-4.34.31-.11a2.55,2.55,0,0,1,1.81-.08l167.05,77.16-8.8,5.34L417,114.37,229.46,221.94l-18.86,7.21-.33.21C199.81,235.9,199,245.88,199,246.3v.17l.5,34ZM242.69,282.52l-4.25,2.13-15.95,6.6-.26.12c-.76.42-3.09,1.38-4.7,1l.64-1.19-2.66-1.45a1.09,1.09,0,0,0,0-.17,262.47,262.47,0,0,0,0-38.53,14.74,14.74,0,0,1,7.39-11c3.31-1.31,26.57-10.57,30.73-13.45C259,223.21,417.66,131.92,419.28,131l6.64-3.87.15-.1c.44-.3,10.74-7.37,15.28-11.9l.11-.12a2.41,2.41,0,0,1,.74-.55,3.3,3.3,0,0,1,.59,1c.13.38,1.34,4.53.38,17l-.78,6.23L432,132.41a4.79,4.79,0,0,0-2-1.2l-.46-.28-.27-.15c-3.11-1.56-6.6-.37-8.83,1.23a30,30,0,0,0-9.54,7.09l-26.08,15.14.05-1-92.36,52.87,0,1.78L254.24,230c-10.23,6-18.84,19.91-20,32.31-.75,7.59,1.46,11.58,3.46,13.6a11.13,11.13,0,0,0,8.08,3.1,16.47,16.47,0,0,0,3.26-.36ZM438.75,164.73a27,27,0,0,1-7.56,9.93c-2.05,1.56-4,2.2-5.09,1.7-2.34-1.1-3.19-8.51.87-17.16s10.3-12.73,12.65-11.63S442.81,156.07,438.75,164.73Z"/><path class="cls-1" d="M261.17,249.51c-2.36-1.41-6.3.86-8.8,5.05s-2.61,8.74-.25,10.15,6.3-.86,8.8-5.06S263.53,250.91,261.17,249.51Z"/><path class="cls-1" d="M277.73,242.68c-1.31-.78-3.38.28-4.63,2.38s-1.2,4.43.11,5.22,3.39-.29,4.64-2.39S279.05,243.46,277.73,242.68Z"/><path class="cls-1" d="M57.06,173.05a1.06,1.06,0,0,0-1.66.55,4.11,4.11,0,0,0,1.11,2.21l14.92,9.4c1.11.55,1.66.55,1.66-.55A4.15,4.15,0,0,0,72,182.45Z"/><path class="cls-1" d="M78.62,185.76a1.06,1.06,0,0,0-1.66.56,4.2,4.2,0,0,0,1.1,2.21L93,197.93c.55.55,1.66.55,1.66-.56a4.15,4.15,0,0,0-1.11-2.21Z"/><path class="cls-1" d="M100.73,199.58a1.06,1.06,0,0,0-1.66.56,4.18,4.18,0,0,0,1.11,2.21l15.47,9.39a1.06,1.06,0,0,0,1.66-.55,4.2,4.2,0,0,0-1.1-2.21Z"/><path class="cls-1" d="M122.84,212.85a1.06,1.06,0,0,0-1.66.55,4.11,4.11,0,0,0,1.11,2.21l16,9.95c.55.56,1.1,0,1.1-1.1a4.2,4.2,0,0,0-1.1-2.21Z"/><path class="cls-1" d="M146.61,227.22a1.06,1.06,0,0,0-1.66.56,4.18,4.18,0,0,0,1.11,2.21l16,9.95c.55.55,1.1,0,1.66-.56a4.25,4.25,0,0,0-1.11-2.21Z"/><path class="cls-1" d="M169.83,241.59a1.06,1.06,0,0,0-1.66.56,4.2,4.2,0,0,0,1.1,2.21l16,9.95c1.11.55,1.66,0,1.66-.55a4.22,4.22,0,0,0-1.1-2.22Z"/><polygon class="cls-1" points="231.74 133.25 228.97 131.04 240.03 129.38 243.34 123.85 246.66 125.51 251.08 123.3 256.61 115.01 272.09 112.24 268.22 110.03 252.19 112.8 246.66 121.09 241.13 118.33 235.05 127.72 218.47 129.93 228.42 134.91 231.74 133.25"/></g></svg>