<?xml version="1.0" encoding="UTF-8"?><svg id="_层_1" xmlns="http://www.w3.org/2000/svg" viewBox="0 0 480 320"><defs><style>.cls-1{fill:#000;}</style></defs><path class="cls-1" d="M458.48,161.32c-.02-.85-.09-1.65-.2-2.42v-28.04c0-.07,0-.13-.01-.21,0-.04,.01-.07,.01-.11,0-1.04-.22-2.14-.63-3.18-.41-1.03-.99-1.96-1.72-2.74-.03-.03-.07-.06-.1-.09h0s-.03-.06-.06-.08c-.09-.1-.2-.19-.3-.28-.06-.05-.11-.11-.17-.16-.49-.46-1.02-.88-1.6-1.2-.29-.16-.59-.29-.89-.4-.02,0-.03-.02-.05-.03L260.14,51.5s-.03,0-.04-.01c-.01,0-.02-.01-.04-.02-.56-.19-1.12-.33-1.66-.41-1.07-.17-2.38-.17-3.45,0-.55,.08-1.11,.21-1.67,.41-.03,0-.05,.03-.08,.04h0L56.19,125.41c-.1,.04-.19,.1-.29,.14-.24,.05-.47,.13-.7,.23-.32,.03-.63,.1-.94,.21l-28.69,10.55h0s-.07,.03-.11,.04c-.07,.03-.14,.05-.22,.08-.38,.16-.72,.36-1.04,.58-.05,.03-.09,.08-.14,.11-.05,.03-.1,.06-.15,.09l-.54,.42c-.06,.05-.11,.11-.17,.16-.06,.05-.12,.09-.17,.14-.22,.22-.44,.45-.61,.67-.15,.2-.29,.41-.4,.63-.35,.68-.53,1.39-.53,2.1,0,.07,.02,.14,.02,.21v2.73c0,.07-.02,.14-.02,.21,0,.71,.18,1.41,.52,2.09,.12,.23,.25,.44,.41,.65,.16,.2,.35,.41,.56,.61h0v.02s.04,.03,.05,.04c.04,.04,.09,.07,.14,.11,.04,.04,.07,.08,.12,.12l.54,.44c.07,.06,.15,.1,.22,.15,.3,.23,.63,.43,.99,.6-.73,.69-1.07,1.44-1.23,1.94-.03,.1-.03,.2-.06,.3-.04,.14-.06,.28-.08,.42-.02,.13-.03,.27-.04,.4,0,.06-.02,.11-.02,.17v1.9c0,.26,.03,.52,.08,.78,0,.03,.01,.06,.02,.08,.12,.57,.34,1.12,.69,1.62,.01,.02,.03,.03,.04,.04,.08,.12,.18,.22,.28,.33,.03,.04,.07,.08,.1,.12,.03,.03,.06,.07,.09,.11,.03,.03,.07,.05,.1,.08,.04,.04,.08,.07,.12,.11,.06,.05,.11,.11,.17,.16-.9,.75-1.31,1.6-1.49,2.15-.04,.12-.04,.24-.07,.36-.03,.11-.05,.22-.07,.34-.02,.15-.04,.29-.04,.44,0,.06-.02,.12-.02,.18v1.87c0,.26,.03,.52,.08,.77,0,.03,.01,.06,.02,.09,.12,.57,.34,1.12,.68,1.61,0,.01,.02,.02,.03,.03,.09,.13,.19,.24,.3,.35,.03,.04,.06,.08,.1,.12,.03,.03,.06,.07,.09,.1,.03,.03,.07,.05,.1,.08,.04,.04,.08,.07,.12,.11,.08,.07,.15,.15,.24,.22-.87,.74-1.28,1.58-1.44,2.12-.03,.1-.04,.2-.06,.3-.03,.13-.06,.27-.08,.41-.02,.14-.04,.27-.04,.41,0,.06-.02,.11-.02,.17v1.9c0,.26,.03,.52,.08,.77,0,.03,.02,.07,.02,.1,.11,.55,.33,1.09,.65,1.57,.02,.02,.04,.04,.05,.07,.02,.03,.04,.05,.06,.08,.14,.19,.29,.36,.45,.51,.02,.02,.03,.03,.04,.05h0s.02,.01,.03,.02c.09,.08,.19,.16,.29,.24,0,0,.01,.01,.02,.02-.91,.75-1.32,1.61-1.5,2.16-.03,.1-.04,.2-.06,.31-.03,.13-.06,.27-.08,.41-.02,.14-.04,.27-.04,.41,0,.06-.02,.11-.02,.17v1.9c0,.26,.03,.52,.08,.77,0,.03,.02,.07,.02,.1,.11,.55,.33,1.09,.65,1.57,.02,.02,.04,.04,.05,.07,.02,.03,.04,.05,.06,.08,.14,.19,.29,.36,.45,.51,.02,.02,.03,.03,.04,.05h0s.02,.01,.03,.02c.09,.08,.19,.16,.29,.24,.04,.03,.07,.06,.11,.08,.02,.01,.04,.03,.06,.04h0s-.08,.03-.12,.04c-.07,.03-.14,.05-.22,.08-.39,.16-.73,.37-1.06,.6-.02,.02-.05,.04-.07,.06-.03,.02-.06,.05-.09,.07-.06,.04-.13,.07-.19,.12l-.54,.44s-.08,.09-.13,.13c-.04,.04-.1,.07-.14,.11-.22,.22-.44,.45-.61,.67-.15,.2-.29,.41-.4,.63-.35,.68-.53,1.39-.53,2.1,0,.07,.02,.14,.02,.21v2.73c0,.07-.02,.14-.02,.21,0,.71,.18,1.41,.52,2.09,.12,.23,.25,.44,.41,.65,.16,.2,.35,.41,.56,.61h0v.02s.04,.03,.05,.04c.05,.05,.12,.09,.17,.14,.05,.05,.1,.1,.15,.15l.54,.42c.06,.04,.12,.07,.18,.12,.35,.26,.73,.5,1.16,.67,.06,.03,.13,.05,.2,.08,.03,.01,.08,.03,.12,.04h0l192.51,70.95s.02,0,.03,0c0,0,.02,0,.02,.01,.71,.25,1.41,.38,2.09,.38,.5,0,.95-.07,1.39-.17,.11-.02,.21-.05,.32-.08,.1-.03,.2-.04,.3-.08,.43-.01,.86-.08,1.28-.24l30.8-11.33c.49-.18,.91-.45,1.28-.78,.12-.03,.24-.05,.35-.1l175.28-65.75c.16-.06,.3-.15,.45-.22,.66,.17,1.33,.31,1.98,.39,.57,.08,1.14,.11,1.71,.11,.29,0,.58,0,.87-.03,.82-.05,1.63-.17,2.49-.34,.92-.21,1.67-.43,2.36-.69,.03-.01,.07-.02,.1-.03,1.08-.41,2.09-.89,3.01-1.42,.92-.54,1.82-1.15,2.71-1.83,.9-.68,1.79-1.47,2.65-2.36,.05-.05,.09-.1,.14-.15,.04-.01,.07-.02,.11-.03l4.3-1.68c.07-.02,.14-.03,.21-.06,.08-.03,.15-.08,.22-.11l.37-.14c.83-.32,1.48-.9,1.92-1.6,.24-.3,.46-.63,.64-.99,.26-.5,.45-1.02,.59-1.59,.16-.59,.24-1.22,.24-1.92v-10.29c.03-.26,.07-.53,.09-.78,.11-1.28,.14-2.43,.1-3.43ZM256.01,59h0s.04,0,.04,0c.06,0,.11-.02,.17-.02,.05,0,.18-.03,.45-.03,.2,0,.35,0,.45,.03,.03,0,.13,.02,.17,.02,0,0,.05,0,.15,.04l184.89,68.03-189.5,70.29h0L68.28,129.43,256.01,59Zm194.28,73.64v13.09c-.35-.19-.77-.42-1.25-.62-.05-.02-.08-.05-.13-.07-.06-.03-.12-.05-.19-.07l-2.61-1.14c-.29-.44-.58-.85-.89-1.22-.57-.72-1.23-1.42-1.96-2.07-.7-.62-1.46-1.17-2.36-1.7-.81-.47-1.66-.86-2.52-1.17h-.02l-.02-.02c-.28-.1-.58-.18-.87-.26l12.81-4.75Zm-393.68,1.01l184.69,67.97-20.09,7.45c-.05-.02-.1-.04-.16-.07-.07-.03-.13-.07-.21-.1L36.48,141.06l20.13-7.41Zm158.03,83.02c.02,.57,.16,1.12,.41,1.63v3.94L32.61,155.1c1.29-.3,2.33-1.22,2.8-2.43,.06-.1,.11-.18,.15-.26,.09-.17,.17-.35,.23-.54,.08-.22,.17-.54,.22-.93l178.64,65.73Zm.41,14.33L32.15,163.7c1.84-.8,2.78-2.83,2.24-4.75l180.66,66.48v5.57ZM32.22,172.49c1.86-.78,2.81-2.81,2.29-4.72l180.54,66.44v5.57L32.22,172.49Zm3.01,9.87c-.41-.8-1.08-1.44-1.9-1.81,1.11-.99,1.59-2.54,1.18-4.02l180.54,66.44v5.57L35.23,182.36Zm-2.11,7.9c1.85-.67,2.89-2.56,2.57-4.43v-.11l179.36,66v5.68L32.85,190.36l.27-.1Zm193.25,27.15c0-.53-.07-1.08-.17-1.65l24.17-8.96v20.57c0,.32,.05,.64,.12,.94-.07,.3-.12,.61-.12,.94v20.85l-23.99,8.83v-41.52Zm31.87,10.9c.07-.3,.12-.61,.12-.94v-21.53c0-.25-.03-.5-.07-.74-.03-.4-.09-.8-.17-1.18l158.9-58.94s-.07,.07-.1,.1c0,0-.01,.02-.02,.03h-.01c-1.36,1.51-2.61,3.16-3.73,4.92-1.11,1.73-2.1,3.63-2.94,5.63-.85,2-1.52,4.03-1.98,6.01-.5,2.04-.81,4.1-.93,6.12h0v.03h0c-.03,.4-.05,.77-.05,1.16v.61s0,.02,0,.03,0,.02,0,.03,0,.02,0,.03,0,.02,0,.03v.59c0,.09,.02,.17,.03,.25,0,.35,.03,.77,.05,1.07h0c.1,1.77,.39,3.52,.85,5.27,.48,1.72,1.11,3.3,1.88,4.7,.81,1.48,1.81,2.82,2.94,3.94,.57,.58,1.2,1.12,1.94,1.65,.31,.22,.61,.4,.9,.58l-157.48,59.08v-17.59c0-.32-.05-.64-.12-.94Zm167.22-72.38c-.75,1.2-1.43,2.49-2.11,3.98-.61,1.37-1.13,2.8-1.56,4.23-.42,1.44-.74,2.89-.97,4.38-.22,1.55-.32,2.96-.32,4.3h0v.02c0,.96,.05,1.93,.15,2.91,.09,.84,.25,1.72,.5,2.82,.02,.07,.04,.14,.05,.21-.18-.07-.36-.16-.53-.25-.03-.02-.07-.04-.1-.05-.29-.15-.59-.35-.93-.63-.29-.24-.58-.53-.87-.88-.34-.41-.61-.79-.81-1.14-.31-.55-.53-1-.7-1.46-.24-.62-.41-1.18-.53-1.67-.16-.73-.28-1.4-.35-2.05-.08-.61-.12-1.29-.12-2.03v-.66s.02-.09,.02-.14c.05-1.4,.26-2.9,.61-4.4,.21-.85,.42-1.61,.66-2.32,.24-.72,.51-1.43,.83-2.15,.39-.87,.73-1.56,1.06-2.17,.38-.69,.77-1.35,1.2-2,.44-.65,.89-1.27,1.31-1.79,.4-.48,.93-1.1,1.48-1.65,.55-.56,1.05-1.01,1.57-1.43,.52-.43,1.02-.8,1.52-1.11,.53-.34,1.04-.62,1.51-.83,.6-.27,1.09-.46,1.49-.58,.46-.13,.95-.24,1.45-.32,.5-.06,.92-.08,1.32-.07,.38,.01,.77,.06,1.1,.14,.09,.02,.18,.05,.26,.07-.34,.23-.69,.47-1.03,.72-.5,.38-1.09,.83-1.61,1.31-1.04,.91-2.02,1.94-3.03,3.16-.95,1.17-1.81,2.37-2.53,3.54Zm18.34,22.61c-.58,.6-1.16,1.12-1.76,1.57-.66,.51-1.28,.93-1.89,1.29-.52,.3-1.12,.59-1.79,.84-.02,0-.04,0-.06,.02-.35,.13-.77,.25-1.28,.37-.42,.09-.87,.15-1.33,.18-.33,.02-.67,.01-1-.03-.04,0-.08-.01-.12-.01-.33-.04-.7-.11-1.04-.21h0l-.06-.02c-.31-.09-.67-.26-.93-.39-.29-.16-.6-.37-.9-.61-.26-.21-.51-.46-.73-.74-.03-.03-.06-.07-.08-.1-.25-.29-.51-.69-.74-1.06-.25-.44-.46-.89-.62-1.27-.24-.64-.42-1.19-.52-1.62-.17-.74-.28-1.33-.33-1.85-.07-.68-.11-1.37-.11-2.04h0v-.02c0-.96,.08-2.04,.24-3.15,.17-1.1,.41-2.18,.73-3.29,.32-1.09,.72-2.18,1.18-3.21,.52-1.14,1.04-2.13,1.61-3.05,.55-.9,1.2-1.81,1.92-2.69,.71-.87,1.41-1.59,2.19-2.28,.33-.3,.7-.59,1.03-.84,.38-.28,.79-.55,1.19-.82,.69-.42,1.38-.76,2.08-1.01,.03,0,.05-.01,.08-.02,.42-.16,.92-.3,1.44-.4,.62-.12,1.27-.14,1.94-.1,.2,.03,.4,.05,.6,.09,.17,.03,.32,.08,.42,.11,.18,.06,.35,.13,.53,.19l.06,.02h.02l.02,.02c.21,.09,.42,.21,.63,.32,.21,.12,.41,.27,.63,.43,.11,.08,.24,.19,.43,.37,.21,.2,.42,.42,.57,.6,.35,.4,.64,.84,.91,1.33,.3,.54,.56,1.14,.75,1.69,.25,.77,.43,1.44,.54,2.11,0,.04,.01,.09,.02,.13v5.68c-.07,.49-.16,1.01-.28,1.58-.18,.84-.42,1.74-.72,2.67-.24,.76-.58,1.6-1.02,2.58-.35,.79-.77,1.6-1.26,2.42-.46,.76-.96,1.5-1.52,2.25-.51,.67-1.07,1.32-1.69,1.96Z"/><path class="cls-1" d="M360.11,142.1l10.54,3.86c.07,.04,.22,.04,.3,0l3.97-1.43c.26-.11,.41-.32,.04-.43l-3.78-1.39,.15-.07,12.98-1.57s.11-.04,.15-.04l4.34-4.75c.07-.07,.26-.07,.37-.04l4.08,1.5c.07,.04,.22,.04,.33,0l2.04-.75c.52-.18,1-.39,1.48-.64,.78-.39,1.3-.75,1.85-1.39l5.42-5.96c.11-.11,.22-.21,.41-.25l19.51-2.39c.22-.04,.37-.25,0-.39l-3.93-1.43c-.11-.04-.22-.04-.33-.04l-19.77,2.39c-.11,0-.11,.04-.19,.11-2.19,2.39-4.27,4.64-6.46,7-.15,.14-.44,.29-.78,.14l-6.08-2.21c-.07-.04-.19,0-.26,.07l-6.42,7.07c-.07,.07-.11,.14-.3,.18l-19.66,2.39c-.45,.04-.63,.29,0,.46Z"/><path class="cls-1" d="M246.21,231.4c-.02-.66-.09-1.28-.22-1.83-.16-.79-.44-1.53-.83-2.21-.36-.62-.79-1.18-1.29-1.66-.29-.28-.58-.48-.83-.65-.42-.29-.84-.44-1.12-.54h0l-.05-.02c-.19-.08-.38-.12-.58-.14-.34-.08-.7-.15-1.11-.18-.68-.05-1.3,.06-1.7,.15h-.04c-.09,.03-.17,.05-.28,.07-.06,.01-.13,.03-.19,.05-.5,.15-.93,.33-1.33,.53-.05,.02-.1,.03-.15,.05-.23,.11-.45,.24-.67,.38l-.16,.1s-.06,.04-.09,.06c-.82,.56-1.55,1.22-2.23,2.02-.09,.11-.17,.22-.23,.34-.37,.46-.73,.97-1.09,1.58-.45,.77-.8,1.59-1.05,2.21-.22,.6-.48,1.41-.63,2.27-.11,.6-.23,1.41-.23,2.3,0,.14,.02,.28,.04,.41,.02,.37,.04,.75,.11,1.17,.06,.38,.13,.85,.29,1.33,.29,.92,.68,1.73,1.18,2.41,.08,.11,.18,.21,.27,.3,.31,.36,.62,.68,.92,.89,.39,.31,.86,.56,1.45,.8,.01,0,.02,0,.04,.01,.01,0,.02,.01,.04,.02,.35,.13,.68,.21,.98,.27,.07,.01,.2,.03,.26,.04,.31,.03,.59,.06,.9,.06,.84,0,1.58-.2,2.22-.41,.86-.29,1.56-.73,2.1-1.1,.73-.53,1.31-1.04,1.81-1.62,.57-.65,1.04-1.27,1.46-1.94,.4-.65,.76-1.36,1.13-2.24,.29-.76,.53-1.56,.69-2.36,.16-.76,.25-1.59,.25-2.48,0-.15-.02-.3-.05-.44Zm-4.59,3.77c-.27,.64-.55,1.18-.82,1.63-.3,.46-.65,.93-1.09,1.44-.29,.34-.64,.65-1.08,.96-.44,.3-.78,.49-1.07,.58-.33,.11-.68,.21-.96,.21-.14,0-.26-.01-.42-.03-.12-.03-.23-.05-.34-.09-.26-.11-.4-.19-.52-.29-.11-.08-.23-.2-.36-.37,0-.01-.02-.02-.03-.04-.22-.32-.4-.71-.55-1.17-.06-.2-.11-.48-.16-.8-.04-.28-.06-.6-.06-.9,0-.07-.01-.15-.02-.22,.01-.39,.06-.83,.17-1.39,.08-.45,.21-.94,.43-1.54,.27-.68,.51-1.19,.76-1.6,.33-.55,.63-.99,.94-1.35,.03-.04,.05-.08,.08-.11,.41-.46,.84-.86,1.31-1.19l.16-.1c.08-.05,.16-.1,.24-.15,.03-.01,.06-.02,.09-.03,.02-.01,.04-.03,.06-.04,.03-.01,.05-.02,.08-.03,.16-.09,.35-.17,.6-.25,.12-.02,.22-.05,.32-.07h0c.09-.02,.34-.09,.54-.07,.25,.02,.43,.05,.59,.1,.04,.01,.08,0,.11,.02,.07,.02,.14,.04,.17,.06,.11,.08,.23,.15,.32,.24,.23,.22,.43,.49,.61,.79,.17,.3,.3,.65,.39,1.07,.1,.43,.15,.89,.15,1.41,0,.07,.01,.13,.02,.19-.01,.53-.06,1.02-.15,1.46-.12,.6-.3,1.19-.48,1.68Z"/><path class="cls-1" d="M299.35,211.55c-.17-.29-.39-.68-.77-1.04-.3-.28-.61-.49-.96-.67-.03-.02-.05-.04-.08-.05-.02,0-.03-.01-.05-.02-.03-.01-.05-.03-.08-.05-.12-.05-.23-.09-.35-.11-.39-.13-.81-.22-1.29-.22-.57,0-1.04,.14-1.37,.26-.03,0-.05,0-.08,.02-.55,.19-1.08,.49-1.58,.89-.19,.15-.38,.33-.58,.53-.26,.25-.45,.51-.63,.74-.15,.2-.29,.42-.44,.65-.21,.32-.37,.63-.49,.96-.18,.43-.4,.99-.5,1.62-.08,.44-.17,1.04-.13,1.74,.03,.45,.09,1.03,.34,1.65,.09,.29,.23,.56,.4,.83,.15,.25,.33,.49,.55,.71,.23,.25,.5,.47,.83,.66,.16,.09,.32,.18,.51,.27,.22,.1,.44,.15,.66,.18,.31,.07,.63,.12,.93,.12,.63,0,1.16-.17,1.49-.3,.01,0,.02-.01,.03-.02,.16-.06,.3-.12,.4-.17,.33-.16,.63-.35,.92-.57,.15-.08,.29-.18,.42-.3,.17-.13,.31-.27,.45-.41,0,0,.11-.11,.11-.12,.34-.37,.63-.75,.82-1.1,.24-.4,.44-.78,.6-1.19,.2-.49,.32-.94,.4-1.39,.04-.26,.07-.43,.09-.66,.01-.06,.03-.11,.04-.17,.09-.67-.02-1.44-.09-1.88-.08-.44-.24-.89-.51-1.4Zm-4.62,5.34c-.12,.11-.23,.18-.36,.24l-.07,.04s-.02,0-.03,.01c0,0-.02,0-.02,0-.03,.01-.06,.02-.06,.03h0s-.04,0-.06,0h0s-.03-.05-.04-.07c-.01-.04-.03-.08-.05-.13-.04-.09-.06-.23-.08-.45-.01-.21,0-.44,.07-.8,.04-.21,.12-.45,.27-.81,.02-.04,.04-.09,.05-.13,.01-.03,.03-.08,.09-.17,.1-.16,.21-.32,.31-.46,.06-.08,.11-.16,.19-.24,.1-.1,.2-.19,.3-.27,.14-.11,.26-.18,.37-.22,.03-.01,.07-.02,.1-.03,.03-.01,.06-.02,.1-.02l.04,.07c.05,.1,.08,.18,.08,.19,.04,.22,.06,.43,.06,.57-.01,.07-.03,.13-.04,.2-.02,.25-.04,.37-.08,.63-.02,.13-.07,.3-.15,.51-.08,.2-.18,.39-.34,.65-.07,.12-.17,.26-.23,.32l-.15,.16s-.06,.05-.08,.07c-.06,.04-.12,.08-.18,.13Z"/><path class="cls-1" d="M287.75,216.41c-.15-.63-.37-1.21-.67-1.77-.31-.56-.71-1.06-1.25-1.53-.21-.17-.42-.33-.63-.47-.3-.19-.6-.32-.82-.41-.06-.03-.13-.04-.19-.06-.15-.05-.3-.1-.45-.11-.77-.18-1.57-.17-2.29-.05-.02,0-.04,.01-.06,.02-.02,0-.03,0-.05,0-.16,.04-.32,.08-.43,.12-.35,.11-.73,.25-1.13,.45h-.03l-.02,.02s-.06,.04-.09,.06h-.02c-.21,.12-.46,.26-.72,.46-.55,.39-1.05,.85-1.52,1.36-.07,.06-.14,.11-.2,.18-.44,.49-.84,1.05-1.14,1.59-.34,.57-.63,1.19-.85,1.82-.23,.66-.39,1.24-.5,1.78-.12,.61-.18,1.24-.19,1.86v.02h0v.02s0,.02,0,.03c0,.35,.03,.71,.05,1.03,0,.06,.02,.15,.03,.21,.06,.35,.13,.69,.22,1.04,.18,.61,.46,1.17,.79,1.68,.06,.13,.13,.26,.21,.37,.28,.39,.64,.75,1.05,1.05,.41,.31,.84,.54,1.29,.69,.07,.02,.14,.04,.2,.05,.29,.09,.57,.16,.79,.19,.28,.03,.57,.06,.81,.06,.61,0,1.24-.12,1.93-.37,.6-.22,1.15-.52,1.65-.87,.54-.37,1.03-.8,1.5-1.31,.46-.51,.87-1.05,1.2-1.59,.35-.57,.66-1.18,.93-1.85,.19-.51,.43-1.19,.57-1.92,.1-.51,.15-1.03,.17-1.55,.03-.13,.04-.27,.04-.42,0-.62-.07-1.27-.2-1.92Zm-3.94,3.14c-.06,.34-.18,.72-.37,1.22-.17,.42-.36,.81-.61,1.2-.21,.34-.45,.67-.74,.99-.26,.29-.52,.52-.82,.72-.25,.17-.5,.31-.76,.4-.4,.14-.56,.14-.92,.08-.04-.02-.08-.02-.12-.04h0s-.11-.05-.21-.12c-.09-.06-.14-.13-.18-.17-.02-.03-.03-.05-.05-.08-.17-.22-.29-.48-.38-.77-.05-.17-.08-.35-.12-.56-.02-.21-.03-.43-.03-.65,0-.37,.04-.75,.11-1.12,.07-.36,.19-.77,.35-1.25,.13-.38,.3-.74,.54-1.14,.17-.32,.37-.59,.58-.83,.03-.03,.07-.06,.1-.09,.31-.37,.65-.68,1.03-.94,.04-.03,.07-.05,.11-.08,.07-.05,.15-.09,.22-.13,.02,0,.03-.02,.05-.03,.13-.07,.3-.13,.52-.2l.12-.03h0c.17-.04,.35-.07,.58,.01,.05,.02,.1,.03,.15,.04,.02,0,.04,.02,.06,.02,.09,.06,.18,.14,.21,.15,.13,.11,.24,.25,.32,.4,.13,.23,.22,.47,.27,.7,.06,.29,.09,.6,.1,.9,0,.06-.02,.11-.02,.17,0,.4-.04,.81-.12,1.22Z"/><path class="cls-1" d="M267.07,240.34c.42,.29,.92,.44,1.42,.44,.3,0,.6-.05,.89-.16l135.33-51.24c.97-.37,1.61-1.3,1.61-2.34v-30.79c0-.82-.4-1.58-1.07-2.05-.67-.47-1.53-.58-2.3-.29l-135.33,50.21c-.98,.36-1.63,1.3-1.63,2.34v31.82c0,.82,.4,1.59,1.08,2.06Zm3.92-32.14l130.33-48.36v25.47l-130.33,49.35v-26.46Z"/></svg>