<svg id="Artwork" xmlns="http://www.w3.org/2000/svg" viewBox="0 0 480 320"><defs><style>.cls-1,.cls-2{fill:#000;}.cls-2{fill-rule:evenodd;}</style></defs><g id="Layer_5_copy" data-name="Layer 5 copy"><path class="cls-1" d="M431.89,106.7,274.29,35.07a14.45,14.45,0,0,0-12,0L48.38,131l-.16.07c-4.11,2.05-4.79,4.93-4.84,6.46a6.85,6.85,0,0,0,3.63,6l3.68,34.28a7.16,7.16,0,0,0-2.19,4.89,6.39,6.39,0,0,0,2.41,5.09l.14.11,148.34,95.66a14.71,14.71,0,0,0,15.26.44L404.57,176.4l1.55.79.05-.09c.09,0,.16.12.25.16a11,11,0,0,0,5.43,1.43,15,15,0,0,0,7.11-2c5.46-3,10-9.09,12.35-15.76a14,14,0,0,0,4.79-10.32l.5-36.51A8.07,8.07,0,0,0,431.89,106.7Zm-3.64,32.68a9.54,9.54,0,0,0-1.65-1.18,10.37,10.37,0,0,0-2.5-1l.19-.4-13.79-6.52-.34-.09a10.51,10.51,0,0,0-3-.38l21.39-11.61ZM396.09,163.1c-1.22-.91-2-3-2.08-5.59-.24-7,4.32-15.64,9.94-18.75a6.09,6.09,0,0,1,3.83-.94l4.46,2.11c-7.26,5.13-12.56,15.58-12.26,24.86v.31ZM265.6,42.34a6.48,6.48,0,0,1,5.38,0l152.63,69.4L236.7,213.15,83.9,123.8ZM77.17,126.81,230.53,216.5l-25.77,14a3.63,3.63,0,0,1-3.66-.11C178,215.92,68.58,147.46,52.86,137.71Zm-19.7,55.68,1.65-1.17-3.49-32.46c24.52,15.29,96,60,141.22,88.3a11.82,11.82,0,0,0,2.88,1.28l2.11,37.17ZM210.71,277a7,7,0,0,1-2.74.84l-2.22-39.24a12.08,12.08,0,0,0,2.84-1.09l25.81-14,.32,10.55a19.75,19.75,0,0,0-5.15,14.39c.61,7,6,10.43,12,7.57s10.39-10.89,9.78-17.93c-.57-6.55-5.26-9.93-10.75-8.08l-.29-9.71,153.43-83.23c-4.83,5.58-8,13.5-7.73,20.72.19,5.47,2.26,9.77,5.84,12.11l4.19,2.15ZM425,150.93c.23,7.06-4.32,15.65-9.94,18.76-1.1.61-3.18,1.5-4.73.62-1.39-.79-2.28-2.95-2.37-5.78-.24-7,4.32-15.64,9.94-18.76a7.07,7.07,0,0,1,3.22-1,2.89,2.89,0,0,1,1.51.37c1.39.79,2.27,3,2.37,5.77Z"/><polygon class="cls-1" points="274.36 235.63 359.66 189.21 359.66 162.19 274.36 208.91 274.36 235.63"/><path class="cls-1" d="M372.65,153.74a7.91,7.91,0,0,0-4,7.39c.25,2.9,2.46,4.3,4.94,3.12a8,8,0,0,0,4-7.39C377.34,154,375.13,152.61,372.65,153.74Z"/><ellipse class="cls-1" cx="373.08" cy="176.67" rx="5.96" ry="4.12" transform="translate(54.19 438.8) rotate(-64.76)"/></g><g id="_" data-name=" "><path class="cls-2" d="M393.15,111.76l-1.77,6.15c0,.06-.11.07-.21,0l-4.55-1.85h-.21l-1.77,6.15h-.07l-11.39,2.22c-.1,0-.11.07,0,.11l7.9,3.23a.31.31,0,0,0,.19,0l2.09-1.33v-.1l-3-1.22c-.1,0-.09-.09,0-.11l7.51-1.46.07,0,1.16-4c0-.06.11-.07.21,0l3,1.22a.31.31,0,0,0,.19,0l1-.66a3.77,3.77,0,0,0,1.48-1.75l1.5-5.21h.06l11.39-2.23c.11,0,.11-.07,0-.11l-3-1.23a.38.38,0,0,0-.15,0l-11.5,2.25h0Z"/></g></svg>