<svg id="Artwork" xmlns="http://www.w3.org/2000/svg" viewBox="0 0 480 320"><defs><style>.cls-1{fill:#000;}</style></defs><g id="Ebene_1" data-name="Ebene 1"><path class="cls-1" d="M255.27,151a4.43,4.43,0,1,0-4.43-4.43h0A4.43,4.43,0,0,0,255.27,151Z"/><path class="cls-1" d="M255.27,171a4.43,4.43,0,1,0-4.43-4.43h0A4.43,4.43,0,0,0,255.27,171Z"/><path class="cls-1" d="M259.69,187.3a4.44,4.44,0,1,0-4.45,4.43h0A4.44,4.44,0,0,0,259.69,187.3Z"/><path class="cls-1" d="M363.58,123A4.44,4.44,0,1,0,368,127.4v0A4.43,4.43,0,0,0,363.58,123Z"/><path class="cls-1" d="M363.58,142.93a4.43,4.43,0,1,0,4.43,4.43h0A4.43,4.43,0,0,0,363.58,142.93Z"/><path class="cls-1" d="M363.58,163.62a4.44,4.44,0,1,0,4.43,4.45h0a4.43,4.43,0,0,0-4.42-4.44Z"/><path class="cls-1" d="M448.69,83.78,299.05,35.41A34.33,34.33,0,0,0,284.36,34L35.62,64.38A13.28,13.28,0,0,0,29,67.12a0,0,0,0,0-.05,0,13.4,13.4,0,0,0-5.14,10.6v49.13a13.42,13.42,0,0,0,2.35,7.58l-.11,34.76a4,4,0,0,0,.19,1.24,14.32,14.32,0,0,0,7.31,8A16.92,16.92,0,0,0,41,180.05a28.18,28.18,0,0,0,8.63-1.53L106.71,251v24.22a4.13,4.13,0,0,0,.22,1.3c.36,1,4,10.11,23.45,10.11,7.94,0,14.41-1.73,19.25-5.13a16.15,16.15,0,0,0,5.46-6,4.06,4.06,0,0,0,.35-1.64V256.62l163.52-39q6.9-1.43,12.85-3.07L412,195.4V197a4,4,0,0,0,2.11,3.52,43.19,43.19,0,0,0,18.72,4.55,30.56,30.56,0,0,0,16.6-4.7A4,4,0,0,0,451.3,197v-35.1a12.16,12.16,0,0,0,4.86-9.77v-58A10.76,10.76,0,0,0,448.69,83.78Zm-24.45,77h0L378.1,171V105.41l70-11.84a3.84,3.84,0,0,1,0,.48v58a4.2,4.2,0,0,1-3.31,4.12Zm-107.12,49c-1,.2-1.91.39-2.89.57a309.59,309.59,0,0,1-71.52,5v-9.42h0V128.29l127.38-21.53V176h0v10.8c-3.1,3-14.62,12.8-40.47,20ZM150.63,221.45h0L130,226a18.35,18.35,0,0,1-16.35-4.41,3.89,3.89,0,0,0-.47-.44c-.3-.29-.59-.6-.87-.92L33.17,130.45a5.45,5.45,0,0,1-1.36-3.6V77.72a5.4,5.4,0,0,1,.25-1.55L103.49,138A37.42,37.42,0,0,0,128,147.16a39.11,39.11,0,0,0,6.3-.54l100.48-17v73.15ZM285.33,41.94A26.35,26.35,0,0,1,296.59,43L434.82,87.71l-301.92,51a29.37,29.37,0,0,1-24.17-6.78l-69.3-60ZM37.15,171.28a6.66,6.66,0,0,1-3.1-2.88l.08-24.78L37,146.93l.9,15.58a4,4,0,0,0,.85,2.25l5.44,6.9A11.66,11.66,0,0,1,37.15,171.28Zm8.71-10.46-.24-4.15,60.7,68.88c.12.14.26.28.39.42v12.08Zm84.52,117.8c-11,0-14.7-3.29-15.67-4.49V231.88a26.37,26.37,0,0,0,17,2l15.69-3.48v42.31C146.27,274.21,141.91,278.62,130.38,278.62Zm25.06-50L234.71,211v8.11a4,4,0,0,0,3.62,4c.62,0,7.34.67,18.27.67h2L155.44,248.38ZM377.21,191a4,4,0,0,0,.88-2.51v-9.24l43-9.52V185l-50.68,12.1a40.55,40.55,0,0,0,6.85-6.17ZM420,194.39v-.91l6-1.42a4,4,0,0,0,3.07-3.89V167.89l14.23-3.16v29.89c-8.93,4.51-19,1.45-23.25-.27Z"/><path class="cls-1" d="M248,98c4.26,0,41.6-.39,41.6-13.84S252.27,70.32,248,70.32s-41.6.39-41.6,13.84S243.75,98,248,98Zm0-19.68c18.41,0,30.47,3.51,33.24,5.84C278.48,86.49,266.42,90,248,90s-30.48-3.51-33.24-5.84C217.53,81.83,229.6,78.32,248,78.32Z"/><path class="cls-1" d="M357.91,182.52l-96.79,22.1a4,4,0,0,0,.88,7.9,3.94,3.94,0,0,0,.9-.1l96.79-22.07a4,4,0,1,0-1.78-7.8Z"/><path class="cls-1" d="M293.89,130.18a3.79,3.79,0,0,0,.67-.06l30.26-5.07a4,4,0,1,0-1.25-7.9h-.07l-30.23,5.07a4,4,0,1,0,.66,8Z"/><path class="cls-1" d="M269,198.68a3.55,3.55,0,0,0,.86-.1l83.85-18.37a4,4,0,0,0,3.14-3.93l-.31-50.73a4,4,0,0,0-4-4,3.82,3.82,0,0,0-.68.06l-83.56,14.73A4,4,0,0,0,265,140.3v54.38a4,4,0,0,0,4,4Zm4-55,75.57-13.33.26,42.76L273,189.73Z"/><path class="cls-1" d="M153.64,184.29c-5-.19-9.36,4.06-9.36,9.64,0,5.74,4.57,10,9.8,9.39,4.83-.56,8.3-5.09,8.08-10A9.16,9.16,0,0,0,153.64,184.29Z"/></g></svg>