<svg id="Artwork" xmlns="http://www.w3.org/2000/svg" viewBox="0 0 480 320"><defs><style>.cls-1{fill:#000;}</style></defs><g id="Ebene_1" data-name="Ebene 1"><path class="cls-1" d="M459.23,102.5a2.35,2.35,0,0,0,0-.53c0-.08,0-.17-.05-.26a3.31,3.31,0,0,0-.12-.42c0-.08-.07-.17-.1-.25s-.13-.26-.2-.39l-.14-.23a3.07,3.07,0,0,0-.28-.35,1.19,1.19,0,0,0-.15-.18l-.39-.35-.14-.1a4.48,4.48,0,0,0-.6-.35l-.19-.06-.41-.16-14.17-3.82c-.6-.32-1.25-.7-1.86-1.06-2.87-1.74-6.89-4.11-12.37-4.11a16.3,16.3,0,0,0-3.62.37L294.8,55.4a3.57,3.57,0,0,0-1.29-.34l-1.15-.32c-.61-.29-1.4-.76-2-1.12-2.57-1.51-6-3.58-10.85-3.58s-7.85,2.08-10.08,3.6c-.48.32-.88.59-1.24.81L55.32,75.86a19.4,19.4,0,0,0-9.56-2.68c-5.1,0-8.37,2.23-10.76,3.82-.6.41-1.12.76-1.58,1l-9.31,1H24a2,2,0,0,0-.34.06l-.22.07-.31.09-.22.11a.31.31,0,0,0-.13.06l-.15.08-.21.13-.24.18-.19.15-.24.23-.14.16-.21.28-.11.16a4,4,0,0,0-.22.4v.09a3.35,3.35,0,0,0-.19.53h0v.14a2.5,2.5,0,0,0-.06.38v.47l0,47.62a3.82,3.82,0,0,0,1.18,2.71l3.83,3.62v33a.43.43,0,0,0,0,.16,9.11,9.11,0,0,0,3.18,6.08c3.09,2.79,8,4.19,14.51,4.19h1.79l72.68,74.72v14c0,7.59,12.43,11.68,24.1,11.68,14.2,0,24.11-5.44,24.11-13.23V255.89l244.55-58.21v1.23a4.46,4.46,0,0,0,.05.63c.25,1.49,2.33,8.91,19,8.91,8.84,0,14.9-1.74,18-5.17a7.88,7.88,0,0,0,2.17-5.39V164.42l4.78-1a3.82,3.82,0,0,0,3-3.65l1.52-57.1A.56.56,0,0,1,459.23,102.5ZM426.4,169.44l.16,16.57-12.8,3.06h-.08l-20.83,5V176.7Zm-41.2,26.42-7.06,1.69a3.39,3.39,0,1,0-5.1,1.21L248,228.53a4,4,0,0,0,.41-1.71,3.89,3.89,0,0,0-7.77,0,3.93,3.93,0,0,0,1.56,3.13l-18.81,4.49v-21l39.38-8.49,2.14.82a4.06,4.06,0,0,0,.85.21,80.44,80.44,0,0,0,10.3.6c13.47,0,30.91-2.53,48.87-7.19,30.41-7.89,38.26-13.78,40.8-16.74l19.44-4.2ZM142.94,152l-11.79,2-6.25-4.45C127.7,150.67,133.05,151.93,142.94,152Zm216.78-24.68v50.44c-2.12,2.12-9.7,7.12-36.68,14.12-21.51,5.58-42.83,8-55.83,6.46l-.58-.22V141.59a126.46,126.46,0,0,0,14.43.76,223.43,223.43,0,0,0,40.05-4C336.56,135.47,350.55,131.45,359.72,127.33Zm-40,3.49c-19.35,3.59-37.65,4.78-51.64,3.24l-10.75-5.16,82.82-12.75L354,121.47C345.44,124.92,333,128.35,319.71,130.82ZM28.39,128.66,28.31,90.2l69.22,49.27L126.36,160l-1,61ZM134,161.29l125-21.36v57.81l-97.42,21.09h0L132.93,225Zm32.11,64.39L215.77,215v21.23L166.11,248ZM358.88,115.16,342,108.65a3.76,3.76,0,0,0-2-.22l-96,14.8a3.83,3.83,0,0,0-1.07,7.23l6.91,3.31-86.6,14.77a5.36,5.36,0,0,0,1.22-1.25,3.87,3.87,0,0,0,.59-2v-3.83a3.82,3.82,0,0,0-3.83-3.82c-1,0-2.69-1-4.49-2.09-3.31-2-7.84-4.68-14-4.68s-9.86,2.59-12.91,4.65c-2.16,1.48-3.46,2.31-4.93,2.31a3.82,3.82,0,0,0-3.82,3.82v3.64a3.89,3.89,0,0,0,.53,1.91L43.41,91.56c1,0,2.11.06,3.27.06,9.76,0,15.31-1.35,17.11-4.14a3.84,3.84,0,0,0,.6-2.06V82.55L262.7,62.7a3.81,3.81,0,0,0,1.21,1.91c1.1,1,4.92,3,16.47,3,9.05,0,14.28-1.28,16-3.91L414.23,95.44a3.59,3.59,0,0,1-1.63.45,3.82,3.82,0,0,0-3.82,3.83v3.13a3.81,3.81,0,0,0,1.42,2.94,7,7,0,0,0,.71.5ZM33.41,169.68v-.18h0Zm0-.32V144l1.08,1v22.45a3.83,3.83,0,0,0,1.08,2.67l1.58,1.63C34.61,171.05,33.6,170,33.41,169.36Zm8.73-3.45V152.69l75.79,71.72V243.8ZM158.46,267.23c0,1.91-5.81,5.57-16.46,5.57-9.69,0-15.52-3-16.45-4.29V253.3h0V231.74l.84.8.13.1.08.08a2.17,2.17,0,0,0,.22.15l.24.17.39.19.23.11a3.88,3.88,0,0,0,.45.14l.21.05a4,4,0,0,0,.69.06h0a5.14,5.14,0,0,0,.78-.07h0l28.62-6.18v39.91Zm283.82-69.36-.06.1-.13.17h0c-.58.62-3.14,2.67-12.36,2.67-7.6,0-10.63-1.77-11.41-2.71v-2.23l13-3.08a3.83,3.83,0,0,0,2.93-3.76l-.2-21.21,8.24-1.78Zm-54-28h0l-20.89,4.5V121.47l84.15-14.34-1.28,49.37Z"/><path class="cls-1" d="M281,72.17h-.12c-2.35.15-18.61,1.92-157.5,17.22A3.85,3.85,0,0,0,120.73,91c-3.75,5.21-3,9.56-1.78,12.37,3.27,7.2,14.56,12.82,34.49,17.16a260.73,260.73,0,0,0,27.38,4.33h.36a5.23,5.23,0,0,0,.56,0l172.54-25.3a3.81,3.81,0,0,0,3.22-4.34,3.68,3.68,0,0,0-.41-1.25C347.18,75.51,296.4,72.62,281,72.17Zm-99.94,45a252.61,252.61,0,0,1-26.1-4.15c-23.3-5.09-28.1-10.68-29.08-12.85a3.58,3.58,0,0,1,.19-3.36c17.21-1.92,148.52-16.36,154.79-17,25,.74,53.55,5.14,65,13.19Z"/><circle class="cls-1" cx="246.72" cy="153.28" r="3.88"/><circle class="cls-1" cx="246.72" cy="162.88" r="3.88"/><path class="cls-1" d="M246.72,176.37a3.89,3.89,0,1,0-3.87-3.93,3.89,3.89,0,0,0,3.87,3.93Z"/><circle class="cls-1" cx="246.72" cy="182.08" r="3.88"/><path class="cls-1" d="M246.72,195.57a3.89,3.89,0,1,0-3.88-3.88h0A3.88,3.88,0,0,0,246.72,195.57Z"/><path class="cls-1" d="M244.56,214a3.88,3.88,0,1,0,3.88,3.88h0A3.88,3.88,0,0,0,244.56,214Z"/><path class="cls-1" d="M375.1,192.06a3.39,3.39,0,1,0-3.39-3.39A3.39,3.39,0,0,0,375.1,192.06Z"/><path class="cls-1" d="M380.93,126.83a3.5,3.5,0,1,0,3.5,3.5h0A3.5,3.5,0,0,0,380.93,126.83Z"/><path class="cls-1" d="M380.93,135.15a3.5,3.5,0,1,0,3.5,3.5h0A3.5,3.5,0,0,0,380.93,135.15Z"/><path class="cls-1" d="M380.93,143.51a3.5,3.5,0,1,0,3.5,3.5h0A3.5,3.5,0,0,0,380.93,143.51Z"/><path class="cls-1" d="M380.93,151.84a3.5,3.5,0,1,0,3.5,3.5,3.5,3.5,0,0,0-3.5-3.5Z"/><path class="cls-1" d="M380.93,160.17a3.51,3.51,0,1,0,3.5,3.51,3.51,3.51,0,0,0-3.5-3.51Z"/></g></svg>