<svg xmlns="http://www.w3.org/2000/svg" viewBox="0 0 480 320"><defs><style>.cls-1{fill:#000;}</style></defs><g id="Layer_1" data-name="Layer 1"><path class="cls-1" d="M321.93,45.26l-7.45-1.64L258,27.57l-.5-.11a21.14,21.14,0,0,0-3.57-.21l-94.77,3.42A7.33,7.33,0,0,0,152,38V225.58a7.31,7.31,0,0,0,2.24,5.24l1.39,1.32a4.59,4.59,0,0,0-2.52,2.82,4.75,4.75,0,0,0-.22,1.33h0v4.6l53.16,50.42a5.11,5.11,0,0,0,3.56,1.45,5,5,0,0,0,.77-.06l109.16-16.78a4.65,4.65,0,0,0,4-4.63v-1.75h0a4.12,4.12,0,0,0-1.84-3.53l-.43-.29.54-.09a4.88,4.88,0,0,0,4.19-4.86V202.68a5.54,5.54,0,0,0,1.41-3.44L328,52.08A6.89,6.89,0,0,0,321.93,45.26ZM160,40.47l40.91,14.87V264.2L160,225.26Zm52.06,233.58L212,216.84l106-11.79v53.07Zm107.33-77.21L212,208.79l-.23-152L316,52.15,320,53ZM254.21,35.25a11.72,11.72,0,0,1,1.87.09L291,45.25,206.84,49,176.75,38Z"/><path class="cls-1" d="M284.42,219.79a4.21,4.21,0,0,0-3.29-1l-31.3,3.58a4.23,4.23,0,0,0-3.74,4.19v12.09a4.22,4.22,0,0,0,4.22,4.22l.48,0,31.3-3.58a4.23,4.23,0,0,0,3.74-4.19V222.94A4.22,4.22,0,0,0,284.42,219.79Zm-2.78,15.46-31.31,3.58a.22.22,0,0,1-.17-.06.19.19,0,0,1-.07-.16V226.52a.22.22,0,0,1,.19-.22l31.31-3.58h0a.25.25,0,0,1,.15.05.22.22,0,0,1,.07.17V235A.22.22,0,0,1,281.64,235.25Z"/><path class="cls-1" d="M229.25,252.46a2.2,2.2,0,0,0-2.47,1.54,1.76,1.76,0,0,0,1.25,2.34,2.21,2.21,0,0,0,2.47-1.54A1.77,1.77,0,0,0,229.25,252.46Z"/><path class="cls-1" d="M302.27,243.68a2.21,2.21,0,0,0-2.47,1.55,1.76,1.76,0,0,0,1.25,2.34,2.21,2.21,0,0,0,2.47-1.54A1.77,1.77,0,0,0,302.27,243.68Z"/><path class="cls-1" d="M235.37,225.42h0a9.28,9.28,0,0,0-6-1.31,11.83,11.83,0,0,0-10.23,11.48,9,9,0,0,0,10.23,9.13c.35,0,.68-.09,1-.16s.65,0,1-.07A11.2,11.2,0,0,0,241,233.63,8.49,8.49,0,0,0,235.37,225.42Zm-4,16a5.85,5.85,0,0,1-6.66-5.95,7.71,7.71,0,0,1,6.66-7.47A5.85,5.85,0,0,1,238,234,7.71,7.71,0,0,1,231.34,241.45Z"/><path class="cls-1" d="M306.39,217.29h0a9.29,9.29,0,0,0-6-1.31,11.83,11.83,0,0,0-10.24,11.48,9,9,0,0,0,10.24,9.13c.34,0,.68-.1,1-.17a8.22,8.22,0,0,0,1-.06,11.2,11.2,0,0,0,9.69-10.86A8.47,8.47,0,0,0,306.39,217.29Zm-4,16a5.85,5.85,0,0,1-6.66-5.94,7.71,7.71,0,0,1,6.66-7.47,5.85,5.85,0,0,1,6.66,5.94A7.7,7.7,0,0,1,302.36,233.31Z"/></g></svg>