<svg xmlns="http://www.w3.org/2000/svg" viewBox="0 0 480 320"><defs><style>.cls-1{fill:#000;}</style></defs><g id="Layer_1" data-name="Layer 1"><path class="cls-1" d="M432,115.9a10.13,10.13,0,0,0-6.57-2.68L360.07,85.37,50.68,106.91a6.35,6.35,0,0,0-5.89,6.31v61a11.38,11.38,0,0,0,2.06,6.55l26.84,38.46a7.21,7.21,0,0,0,5.9,3.07c.24,0,.49,0,.73,0l13.08-1.35-.48.4,8.7,10.63a6.49,6.49,0,0,0,5.25,2.65l.7,0,288.24-30.23a4.69,4.69,0,0,0,2.11-8.57l-8.3-5.27,39.51-4.06a6.75,6.75,0,0,0,6.08-6.73v-56.4A10.15,10.15,0,0,0,432,115.9ZM358.7,93.49l49.41,21.06L83.17,140.81a1.39,1.39,0,0,1-1.09-.42L57.52,114.45Zm-16.92,72.29a9.8,9.8,0,0,1-10.54-9.93,11.46,11.46,0,0,1,10.54-11.29,9.8,9.8,0,0,1,10.54,9.93A11.46,11.46,0,0,1,341.78,165.78Zm4-26.33a15.23,15.23,0,0,0-7.17-1.25,17.59,17.59,0,0,0-16.2,17.35,15.06,15.06,0,0,0,16.2,15.26c.54,0,1.07-.1,1.6-.19a13.74,13.74,0,0,0,1.57,0,15.7,15.7,0,0,0,4-.81V187L174.4,204.58v-18a15.82,15.82,0,0,0,5.37.59c.54,0,1.07-.1,1.6-.19s1,0,1.57,0a16.67,16.67,0,0,0,15.33-16.42,14.27,14.27,0,0,0-9-13.44h0a15.27,15.27,0,0,0-9.56-2.54,16.69,16.69,0,0,0-5.36,1.28V141.47l171.38-13.85ZM84.05,148.77l86.35-7v16.37a17.54,17.54,0,0,0-6.83,13.73,15.12,15.12,0,0,0,6.83,12.84V205l-86.35,8.87Zm88.35,23.42a11.45,11.45,0,0,1,10.54-11.29,9.8,9.8,0,0,1,10.54,9.93,11.46,11.46,0,0,1-10.54,11.29A9.81,9.81,0,0,1,172.4,172.19Zm-119,4a3.39,3.39,0,0,1-.62-2V121.09l23.26,24.56v63ZM385.53,197.4l-278,29.15L102.19,220l274.58-28.2Zm41.68-18.79-77.43,8V167.79a16.65,16.65,0,0,0,7.33-13.61,14.29,14.29,0,0,0-7.33-12.66V127.29l75.14-6.07a2.12,2.12,0,0,1,2.29,2.11Z"/><path class="cls-1" d="M253.8,147.55l-46.43,3.61,0,22.76,46.43-3.69Zm-4,19-38.42,3.05V154.87l38.42-3Z"/><path class="cls-1" d="M304.18,176.65a4.51,4.51,0,0,0,1.1,3.45,4.07,4.07,0,0,0,3,1.35h0a5,5,0,0,0,4.82-4.56,4.5,4.5,0,0,0-1.1-3.45,4,4,0,0,0-3-1.35h0A5,5,0,0,0,304.18,176.65Zm2,.19a3,3,0,0,1,2.83-2.75h0a2.1,2.1,0,0,1,1.57.69,2.47,2.47,0,0,1,.59,1.92,3,3,0,0,1-2.83,2.75h0a2.1,2.1,0,0,1-1.57-.69A2.47,2.47,0,0,1,306.17,176.84Z"/><path class="cls-1" d="M308,143l-46.43,3.62,0,22.76L308,165.72Zm-4,19-38.43,3.05,0-14.73,38.42-3Z"/><path class="cls-1" d="M337.7,180.67a3,3,0,0,0,2.9-2.75,2.45,2.45,0,0,0-2.37-2.79,3,3,0,0,0-2.9,2.75A2.44,2.44,0,0,0,337.7,180.67Z"/><path class="cls-1" d="M320.51,143.31a3,3,0,0,0,2.89-2.75,2.43,2.43,0,0,0-2.37-2.79,3,3,0,0,0-2.89,2.75A2.43,2.43,0,0,0,320.51,143.31Z"/><path class="cls-1" d="M324.45,176.58a3,3,0,0,0,2.9-2.75A2.45,2.45,0,0,0,325,171a3,3,0,0,0-2.9,2.75A2.45,2.45,0,0,0,324.45,176.58Z"/><path class="cls-1" d="M181.56,191.63a3,3,0,0,0-2.9,2.75,2.43,2.43,0,0,0,2.37,2.79,3,3,0,0,0,2.89-2.75A2.43,2.43,0,0,0,181.56,191.63Z"/></g></svg>