<svg xmlns="http://www.w3.org/2000/svg" viewBox="0 0 480 320"><defs><style>.cls-1{fill:#000;}</style></defs><g id="Layer_1" data-name="Layer 1"><path class="cls-1" d="M464.91,116.89c-.48-3.65-3.74-7-8.1-8.2L289.16,57l-.14,0a29.07,29.07,0,0,0-13.57-.34L22.31,114.26A9.09,9.09,0,0,0,15,122.43a9.77,9.77,0,0,0,0,1.71v61.13c0,5.84,3.09,10.78,8.06,12.89L172.33,261.5a33.09,33.09,0,0,0,12.77,2.56,32.74,32.74,0,0,0,8.69-1.17l261.87-70c5.42-1.45,9.35-6.3,9.35-11.52V116.89ZM178.73,255.22a24.25,24.25,0,0,1-3.28-1.09L26.22,190.79c-2.88-1.22-3.19-4.27-3.19-5.52V132.75l149.3,59.12a32.32,32.32,0,0,0,6.4,1.94Zm-3.37-70.76-151.64-60a1.14,1.14,0,0,1-.72-1.24,1.18,1.18,0,0,1,1-1.11L277.17,64.39a21.06,21.06,0,0,1,9.7.24l167.64,51.72.14,0a4.5,4.5,0,0,1,1.63.79L191.69,185.54A25,25,0,0,1,175.36,184.46ZM457,181.41c0,1.58-1.53,3.28-3.42,3.79l-261.9,70a24.57,24.57,0,0,1-5,.81v-61.6a31.69,31.69,0,0,0,7-1.11l263.25-68Z"/><path class="cls-1" d="M254.9,217.85l129.47-33.48.92,1.55a3.77,3.77,0,0,0,.26.39l1.13,1.42a3.8,3.8,0,0,0,.33.37l1.29,1.22a3.09,3.09,0,0,0,.39.33l1.44,1a3.23,3.23,0,0,0,.44.27l1.57.79a3.76,3.76,0,0,0,.46.2l1.68.56a2.81,2.81,0,0,0,.48.12l1.77.33a3.78,3.78,0,0,0,.47.06l1.84.08H399l.28,0,1.89-.15.35,0,1.27-.23h.1l1.73-.19a2.9,2.9,0,0,0,.41-.06l1.75-.4.37-.1,1.75-.61a1.89,1.89,0,0,0,.33-.13l1.14-.53.29-.06a3.25,3.25,0,0,0,.42-.11l1.76-.6a2.87,2.87,0,0,0,.37-.15l1.73-.83.33-.17,1.69-1,.29-.2,1.62-1.24a2.65,2.65,0,0,0,.26-.21l1.53-1.42a2.39,2.39,0,0,0,.22-.23l1.42-1.57.2-.24,1.29-1.72.17-.25,1.14-1.84.15-.26,1-1.93c0-.09.09-.18.13-.27l.79-2c0-.1.08-.2.11-.3l.6-2c0-.1.06-.21.08-.31l.41-2c0-.12,0-.23,0-.34l.2-2c0-.12,0-.24,0-.36v-2c0-.13,0-.26,0-.39l-.21-1.88c0-.14,0-.27-.07-.41l-.42-1.78a3,3,0,0,0-.12-.43l-.62-1.66A2.35,2.35,0,0,0,427,158l-.8-1.51a3.87,3.87,0,0,0-.27-.43l-1-1.34a3.34,3.34,0,0,0-.35-.4l-1.15-1.16a2.79,2.79,0,0,0-.42-.35l-1.3-1a2.92,2.92,0,0,0-.48-.29l-.66-.34-.6-.77a2.82,2.82,0,0,0-.33-.36l-1.28-1.23a3.9,3.9,0,0,0-.38-.33l-1.43-1a3.23,3.23,0,0,0-.44-.27l-1.56-.81a3.32,3.32,0,0,0-.47-.2l-1.67-.58a4.21,4.21,0,0,0-.48-.12l-1.77-.34-.48-.06-1.84-.1a3.38,3.38,0,0,0-.45,0l-1.9.14a3.18,3.18,0,0,0-.43.06l-1.92.39a2.79,2.79,0,0,0-.39.1l-1.94.63a2.48,2.48,0,0,0-.35.13l-1.92.86a1.82,1.82,0,0,0-.31.16l-1.88,1.07-.28.18L394.23,150l-.25.19-1.73,1.48-.23.21-1.63,1.65-.2.22-1.51,1.81c-.06.08-.12.15-.17.23l-1.37,1.95a1.4,1.4,0,0,0-.15.24l-1.21,2.05-.14.25-1,2.15a1,1,0,0,1-.06.16,3.63,3.63,0,0,0-.56,1l-.05.13v0h0l-.51,1.5L253,199.2a5.59,5.59,0,0,0-4.18,5.42v8.55A4.83,4.83,0,0,0,254.9,217.85Zm150.49-57.31,1.33-1.12,1.39-.94,1.4-.74,1.38-.55,1.35-.36,1.29-.17h1.21l1.11.18.11,0,.57.58.72,1,.62,1.12.51,1.24.38,1.38.25,1.52.06.81,0,.53,0,1.7-.2,1.7-.37,1.72-.52,1.73-.67,1.72-.82,1.67-.95,1.6-1.07,1.52-1.17,1.41L412,181.08l-1.33,1.15-1.39,1-1.22.72-.36.07-1.25.09L405.3,184l-1.08-.24-1-.39-.9-.53-.82-.68-.73-.83-.64-1-.53-1.15-.4-1.31-.26-1.43-.1-1.56.08-1.64.25-1.71.42-1.73.6-1.73.77-1.7.92-1.63,1.05-1.54,1.18-1.42Zm-13.51,2.94,1.07-1.81,1.2-1.71,1.32-1.59,1.43-1.45,1.5-1.28,1.56-1.09,1.58-.91,1.59-.71,1.37-.44-.17.1-1.68,1.14-.27.2-1.6,1.34-.25.22L399,157l-.21.24-1.37,1.66c-.07.08-.13.17-.19.25L396,161a2.33,2.33,0,0,0-.17.26l-1.07,1.91c-.05.09-.1.18-.14.27l-.89,2-.12.3-.7,2a1.58,1.58,0,0,0-.09.31l-.51,2.05a1.91,1.91,0,0,0-.06.33l-.3,2.05c0,.11,0,.23,0,.35l-.09,2c0,.13,0,.25,0,.38l.12,1.94a2.71,2.71,0,0,0,0,.4l.33,1.85a2.75,2.75,0,0,0,.11.41l.53,1.73a3.34,3.34,0,0,0,.17.44l.73,1.58a2.22,2.22,0,0,0,.23.43l.89,1.38L394,184.8l-1-.72-.92-.88-.83-1-.71-1.2a3.64,3.64,0,0,0-.12-.86l-.1-.36a.61.61,0,0,1-.05-.12l0-.12-.56-1.52-.34-1.46-.2-1.57-.05-1.66.12-1.73.29-1.78.45-1.8.63-1.87a2.89,2.89,0,0,0,.39-.61Z"/></g></svg>