<svg xmlns="http://www.w3.org/2000/svg" viewBox="0 0 480 320"><defs><style>.cls-1{fill:#000;}</style></defs><g id="Layer_1" data-name="Layer 1"><path class="cls-1" d="M449.25,142.92,311.88,73,22.05,98.35l1.12,56.16,103.06,86.87v.43l6.8,5.24,31.18-3.74c1.91,1.23,6.73,3.52,16,3.52,11.89,0,16.45-4.71,16.94-5.24l1-1.14v-1.2l186.25-22.32c1.89,1.22,6.71,3.54,16,3.54,11.88,0,16.45-4.7,16.93-5.24l1-1.14v-1.22l39.14-4.69.44-61.91-6.38-3.59Zm-14.56,1.56L131.31,177.09l-95-71.95,274-24ZM31.1,150.72l-.8-40.08,96.81,73.3-.72,47.12Zm106.21,87.76.8-51.64,311.72-33.78-.34,48Z"/><path class="cls-1" d="M341.78,175l-86.48,9.52a2.35,2.35,0,0,0-2.09,2.29l-.51,26.58a2.34,2.34,0,0,0,2.62,2.37L342,205.67a2.36,2.36,0,0,0,2.08-2.3l.34-26A2.35,2.35,0,0,0,341.78,175Z"/><ellipse class="cls-1" cx="159.3" cy="218.76" rx="10.86" ry="9.5" transform="translate(-85.97 333.1) rotate(-78.93)"/><path class="cls-1" d="M435.1,179.74a7.52,7.52,0,0,0-9.69,4.32h0a7.53,7.53,0,0,0,3.71,9.95,7,7,0,0,0,2.67.53,7.37,7.37,0,0,0,3.19-.74,8.13,8.13,0,0,0,4.08-9.73A7.11,7.11,0,0,0,435.1,179.74Zm-3.67,6.85-2.33-1,2.34.94Zm1.32.55a1,1,0,0,1-.74,0,1,1,0,0,1-.54-.52.09.09,0,0,1,0,0l.07,0a1,1,0,0,1,.68,0,1.09,1.09,0,0,1,.5.42l.11,0Z"/><path class="cls-1" d="M415.3,182.22a7.53,7.53,0,0,0-9.7,4.32h0a7.52,7.52,0,0,0,3.71,9.94A7,7,0,0,0,412,197a7.78,7.78,0,0,0,7-4.86A7.53,7.53,0,0,0,415.3,182.22Zm-3.68,6.85-2.33-1,2.35.94Zm1.33.56h0a1,1,0,0,1-.74,0,.93.93,0,0,1-.53-.51h0a.17.17,0,0,1,0-.05l.07,0a1.05,1.05,0,0,1,.69,0,1,1,0,0,1,.49.43l.11,0S413,189.61,413,189.63Z"/><path class="cls-1" d="M395,184.63a7.1,7.1,0,0,0-5.86.21,8.14,8.14,0,0,0-4.09,9.73,7.11,7.11,0,0,0,4,4.33,6.87,6.87,0,0,0,2.66.54,7.78,7.78,0,0,0,7-4.86,8,8,0,0,0,.24-5.62A7.13,7.13,0,0,0,395,184.63Zm-3.1,7.38a1,1,0,0,1-.54-.51,1,1,0,0,1,1.28.54A1,1,0,0,1,391.87,192Z"/><path class="cls-1" d="M374.56,186.74a7.53,7.53,0,0,0-9.7,4.32h0a7.53,7.53,0,0,0,3.71,9.95,6.84,6.84,0,0,0,2.67.53,7.31,7.31,0,0,0,3.19-.74,8.1,8.1,0,0,0,4.08-9.73A7.07,7.07,0,0,0,374.56,186.74Zm-3.68,6.85-2.33-1,2.35.94Zm1.32.55a.94.94,0,0,1-.74,0,1,1,0,0,1-.53-.51l0-.05.07,0a1.14,1.14,0,0,1,.69,0,1,1,0,0,1,.49.43l.11,0A.14.14,0,0,1,372.2,194.14Z"/></g></svg>