<svg xmlns="http://www.w3.org/2000/svg" viewBox="0 0 480 320"><defs><style>.cls-1{fill:#000;}</style></defs><g id="Layer_2" data-name="Layer 2"><path class="cls-1" d="M447.92,100.2,283.39,71.94l-5.12.3-.48.34-243,20.2-.8-.49L26.52,93l-1.67,3.78-1.52,14.29,4.38,46.41,4.17,11.77,55.31,78.62,10.24-1.48a75.15,75.15,0,0,0,16.11,1.62,91,91,0,0,0,10.6-.63c13.62-1.61,20.44-5.85,22.93-7.78L369.18,211a67.26,67.26,0,0,0,15,1.46,103.6,103.6,0,0,0,10.53-.55c12.37-1.25,17.73-4.47,20-6.78L439.64,202l.65.26,8.53-1.12,7.91-27.39ZM99.64,237.68l.32-17.74,294.62-35.61-.51,9a1.57,1.57,0,0,0,1.78,1.64l20.72-2.77a1.86,1.86,0,0,0,1.6-1.69l.71-9.13,23.91-2.89-4.92,15.61Zm337-129,7.51,61.62L99.54,211.94l-1.26-11.1,10.32-1A5,5,0,0,0,112,198a4.69,4.69,0,0,0,1-3.53l0-.24a4.86,4.86,0,0,0-5.34-4.17l-10.44,1-5.56-49.18Zm-157-28.2,132,22.57L88.46,134.09,44.3,100ZM39.05,165.58l-3.47-9.8-4.21-44.62.88-8.25,47,38.08,8.47,76.44-.32,16.82Z"/><path class="cls-1" d="M198,190.57a3.81,3.81,0,0,0,4.23,3.34l149.54-18.14a3.9,3.9,0,0,0,3.4-4.32l-5.29-46.18a4,4,0,0,0-4.41-3.56L195.65,136.53a3.75,3.75,0,0,0-3.36,4.17Z"/><path class="cls-1" d="M140.39,217l-20.89,2.48a2.21,2.21,0,0,0-2,2.08l-.51,9.21a1.57,1.57,0,0,0,1.77,1.64l20.72-2.78a1.83,1.83,0,0,0,1.6-1.68l.74-9.53A1.32,1.32,0,0,0,140.39,217Z"/><ellipse class="cls-1" cx="395.95" cy="129.46" rx="9.71" ry="10.19"/><ellipse class="cls-1" cx="398.69" cy="153.78" rx="9.71" ry="10.19"/><ellipse class="cls-1" cx="421.19" cy="127.02" rx="9.71" ry="10.19"/><ellipse class="cls-1" cx="423.93" cy="151.35" rx="9.71" ry="10.19"/></g></svg>