<?xml version="1.0" encoding="UTF-8"?>
<svg id="Layer_2" data-name="Layer 2" xmlns="http://www.w3.org/2000/svg" viewBox="0 0 480 320">
  <defs>
    <style>
      .cls-1 {
        fill: #000;
      }
    </style>
  </defs>
  <path class="cls-1" d="m227.41,210.52c2.42.84,5.3-.55,6.43-3.1,1.13-2.55.08-5.31-2.34-6.15-2.42-.84-5.3.55-6.43,3.1s-.08,5.31,2.34,6.15Z"/>
  <path class="cls-1" d="m351.27,189.8c2.42.84,5.3-.55,6.43-3.1,1.13-2.55.08-5.31-2.34-6.15-2.42-.84-5.3.55-6.43,3.1s-.08,5.31,2.34,6.15Z"/>
  <path class="cls-1" d="m365.25,188.15c2.42.84,5.3-.55,6.43-3.1,1.13-2.55.08-5.31-2.34-6.15-2.42-.84-5.3.55-6.43,3.1-1.13,2.55-.08,5.31,2.34,6.15Z"/>
  <path class="cls-1" d="m351.26,203.81c2.42.84,5.3-.55,6.43-3.1s.08-5.31-2.34-6.15-5.3.55-6.43,3.1c-1.13,2.55-.08,5.31,2.34,6.15Z"/>
  <path class="cls-1" d="m365.24,202.15c2.42.84,5.3-.55,6.43-3.1s.08-5.31-2.34-6.15-5.3.55-6.43,3.1-.08,5.31,2.34,6.15Z"/>
  <path class="cls-1" d="m420.05,186.38l-11.34,1.34c-2.39.28-4.26,2.38-4.26,4.77v3.81c0,1.21.48,2.31,1.35,3.09.74.66,1.72,1.02,2.74,1.02.17,0,.34-.01.51-.03l11.34-1.34c2.39-.28,4.26-2.38,4.26-4.77v-3.81c0-1.21-.48-2.31-1.35-3.09-.87-.77-2.05-1.13-3.25-.99Zm1.61,7.88c0,.87-.74,1.69-1.61,1.79l-11.34,1.34c-.36.04-.68-.05-.91-.25-.23-.2-.35-.49-.35-.84v-3.81c0-.87.74-1.69,1.61-1.79l11.34-1.34c.06,0,.11-.01.17-.01.29,0,.55.09.74.26.23.2.35.49.35.84v3.81Z"/>
  <path class="cls-1" d="m457.76,148.26c-1.13-1.03-2.52-1.71-4-1.98l-138.6-70.83c-2.94-1.45-6.23-2.08-9.45-1.81L27.51,92.73c-4.53.38-8,4.23-7.91,8.76l.91,48.7c.06,3.02,1.44,5.83,3.81,7.73l103.58,82.49c3.25,2.59,7.13,4.24,11.21,4.78,4.94.65,10.45,1.22,16.39,1.22,4.07,0,8.33-.27,12.74-.97,12.36-1.97,29.19-5.27,31-5.63l192.94-22.44c2.33-.12,28.82-1.56,36.93-2.63,5.9-.78,16.97-2.74,23.04-3.84,4.21-.76,7.32-4.42,7.4-8.7l.86-47.81c.04-2.33-.92-4.56-2.64-6.13Zm-151.44-66.65c1.82-.15,3.66.2,5.25.98l127.22,65.02-291.28,32.76c-5.81.69-11.67-.77-16.48-4.1l-11.8-8.16L32.92,100.38l273.4-18.76Zm82.05,128.15l-186.48,21.69.02-49.15,186.47-20.97-.02,48.43Zm-221.4,27.78c-9.8,1.56-18.68.79-26.82-.28-2.65-.35-5.16-1.42-7.27-3.1L29.31,151.69c-.5-.4-.8-1.01-.81-1.64l-.81-43.6,86.69,68.04,12.1,8.37c6.42,4.44,14.21,6.38,21.94,5.46l47.49-5.34-.02,49.34c-4.98.97-18.56,3.58-28.92,5.23Zm284.57-35.49c0,.48-.36.89-.83.97-6,1.09-16.92,3.02-22.66,3.78-6.51.86-26.36,2.02-33.68,2.43l.02-48.59,57.31-6.45.69.35-.86,47.49Z"/>
  <path class="cls-1" d="m259.46,212.52l68-7.92c.92-.11,1.62-.88,1.63-1.8l.27-20.41c.01-1.11-.94-1.97-2.04-1.85l-67.86,7.47c-.92.1-1.62.87-1.64,1.79l-.4,20.86c-.02,1.12.95,1.99,2.05,1.86Z"/>
</svg>