<svg id="Artwork" xmlns="http://www.w3.org/2000/svg" viewBox="0 0 480 320"><defs><style>.cls-1{fill:#000;}</style></defs><path class="cls-1" d="M458.11,122c0-.14,0-.27,0-.41v-.13h0c-.26-5.29-7.62-7.59-10.84-8.58l-41.18-12.73c-45-13.89-112.94-34.89-120.32-37.2-11.36-3.55-15.61-3.22-24.14-2.16-2.17.27-217,27.13-225.34,28.51-9.91,1.65-14.74,4.89-14.37,9.63,0,.11,0,.21.05.32h0c1,6.18,3,34.34,3.84,46.37.24,3.39.41,5.72.46,6.29a7.14,7.14,0,0,0,3,5l.1.09c.47.38,101.4,80.22,110.08,86.88a35.3,35.3,0,0,0,11.78,6.25c1,2.08,4.38,5.6,13.07,5.81,11.11.28,15.53-1.71,17.69-2.7s4.53-2.94,4.58-4.59a.76.76,0,0,0,0-.15l4.35-.86c24.73-5,174.76-40.12,230.35-53.19a42.83,42.83,0,0,0,8.72.22c4.59-.31,7.79-1.33,8.49-1.78s1.93-1.07,2-1.93c0-.19,0-.58.07-1.05l1.16-.27c8.5-2,11-4,11.72-8.87l0-.15c.32-2.27,3.82-47.47,4.61-57.65A7,7,0,0,0,458.11,122ZM37.58,97.18c6.76-1.13,164.72-20.93,225-28.46,7.48-.93,10.58-1.32,20.76,1.86,7.4,2.31,75.37,23.31,120.35,37.21l41.18,12.72c1.26.39,2.25.75,3,1.07l-1,.25c-7,1.5-265.23,50.33-270.94,51.23-5.92.94-21.63,3.42-34.41-4.15-4.82-3.09-96.76-61.93-110-70.24A33.53,33.53,0,0,1,37.58,97.18ZM189.27,239.77c-30.28,6.12-36.69,4.12-45-2.27C135.33,230.67,35,151.31,34.37,150.78l-.15-.12-.06,0c-.07-1-.21-3-.4-5.56-.66-9.45-1.84-26.21-2.85-37.35,21.62,13.72,105.45,67.38,106.39,68l.12.07c8.61,5.13,18,6.47,25.84,6.47a87.93,87.93,0,0,0,14-1.26c3.3-.52,92.69-17.39,168-31.65l-2.41,55.24C279.64,219.32,205.92,236.4,189.27,239.77Zm256.17-60.15-.06.39c-.46.28-1.81.91-5.61,1.82-2.76.66-26.95,6.36-59.38,13.95l2.88-53.67c36.15-6.85,63.11-12,65.31-12.46l.88-.21c-1.68,21.69-3.77,48.29-4,50Z"/><path class="cls-1" d="M415.07,149.85a58.6,58.6,0,0,0-7.8-3.27c-3.08-.84-6-.26-10.09,2a20.67,20.67,0,0,0-10.12,13.12c-2.16,7.67,2.31,15.07,3.23,16.12s3.59,2.33,9.06,4.82h0a6.83,6.83,0,0,0,.72.43,13.58,13.58,0,0,0,5.95,1.29,11.67,11.67,0,0,0,3.33-.44v0c9-1.16,14.21-11.44,14.51-19,.16-4.14-.75-7.52-2.61-10A10.35,10.35,0,0,0,415.07,149.85Zm-24.16,12.92a16.86,16.86,0,0,1,8.19-10.7c3.61-2,5.46-2.08,7.13-1.63h.06a18.74,18.74,0,0,0-6.36,4.51,23.44,23.44,0,0,0-5.86,15.7,18.4,18.4,0,0,0,.77,5.42,9.36,9.36,0,0,1-1.54-.91C392.75,174.53,389.28,168.57,390.91,162.77ZM407.66,180h0a7.23,7.23,0,0,1-5.65-2.21c-1.7-1.89-2.44-5-2.05-8.65h0c.62-5.69,3.07-10.2,6.89-12.69a10.75,10.75,0,0,1,5.77-1.87,5.76,5.76,0,0,1,1.79.25c3.84,1.21,5.68,4.55,5.47,9.93C419.61,171,415.13,180,407.66,180Z"/><path class="cls-1" d="M432.61,150.17c2.38.26,4.6-2,5-5.07s-1.25-5.75-3.63-6-4.61,2-5,5.07S430.23,149.91,432.61,150.17Z"/><path class="cls-1" d="M436,155.75c-3.4-.59-6.88,3.08-7.78,8.21s1.12,9.77,4.51,10.37,6.88-3.08,7.78-8.21S439.38,156.35,436,155.75Z"/><path class="cls-1" d="M214.36,190.8c-.8-1.11-1.55-1.62-2.31-1.57s-1.31.59-1.84,1.64c-.44.89-2.14,4.54-4.12,8.76-3,6.33-6.62,14.19-8.13,17.23h0a2.72,2.72,0,0,0,.1,2.86,2.18,2.18,0,0,0,1.79.81,2.94,2.94,0,0,0,.65-.07c1.77-.35,22.28-4.77,24.35-5.39a3,3,0,0,0,2.15-1.63,3.29,3.29,0,0,0-.57-2.89C225.56,209.11,215.39,192.24,214.36,190.8Zm11.71,22.28c-.17.44-.68.79-1.51,1-2,.59-22.51,5-24.25,5.36a1.41,1.41,0,0,1-1.46-.37,1.77,1.77,0,0,1,0-1.8c1.51-3.05,5.19-10.93,8.14-17.25,2-4.22,3.67-7.87,4.11-8.75.34-.67.7-1.05,1-1.08s.87.38,1.42,1.15c1,1.35,10.51,17.15,12,19.69A2.49,2.49,0,0,1,226.07,213.08Z"/><path class="cls-1" d="M222.38,206.43l-.42-.65.13-.27-8.22-13.45c-.29-.48-.76-1.13-1.44-1.09s-1.17.85-1.31,1.12c-.66,1.27-11.65,24.52-12.12,25.51a1.28,1.28,0,0,0,0,1.38,1.18,1.18,0,0,0,1,.42,2.82,2.82,0,0,0,.48,0c1-.17,15.82-3.73,16.45-3.88l.23,0,1-1.94-1,2,1-.19c.18,0,4.64-.9,6-1.4a2.11,2.11,0,0,0,1.43-1.19,2.42,2.42,0,0,0-.45-2C224.43,209.59,222.38,206.43,222.38,206.43Zm-5.91,8.13c-5.39,1.3-15.4,3.68-16.16,3.81a1.77,1.77,0,0,1-.5,0h0a.79.79,0,0,1,.11-.36h0c.11-.24,11.44-24.23,12.1-25.47.28-.55.46-.59.46-.59s.18,0,.55.62l7.93,13Zm8.18-2.16c-.09.26-.49.46-.82.58-.94.34-3.49.87-4.91,1.16l3.1-6.42c.65,1,1.78,2.75,2.28,3.56C224.61,211.79,224.73,212.17,224.65,212.4Z"/><path class="cls-1" d="M200.7,124.26a33.7,33.7,0,0,0,5.3-.66c5.81-1,67.94-11.22,75.29-12.33,7.1-1.07,7.1-2,7.1-2.53,0-.79-1-1.26-3.47-1.63-3.6-.55-39.47-5.3-60.9-8.15L209.51,97c-4.92-.65-7.58-.46-8.9.65a3,3,0,0,0-1,2.28c-.08,2.25-1.41,19.13-1.72,22.1a1.77,1.77,0,0,0,.5,1.57A3.28,3.28,0,0,0,200.7,124.26Zm1.94-2.51c-.08-.07-.15-.19-.12-.57.06-.85.3-4.08.57-7.76.4-5.53.86-11.8,1-13,.07-.79.3-1.06.48-1.2.58-.46,1.92-.37,3.76-.1,3.07.45,44.8,6.26,49.17,6.87l1.13,6.86c-5.2.88-49.8,8.47-52.94,9C203.46,122.16,202.82,121.92,202.64,121.75Zm78.15-12.29c-5.42.72-15.64,2.29-18,2.65l-1-5.38c3.24.39,16.68,2,19,2.18.87.07,1.54.14,2,.22C282.4,109.22,281.74,109.34,280.79,109.46Zm-81.9,12.71h0c.3-3,1.64-19.91,1.72-22.17a2,2,0,0,1,.64-1.55c.63-.53,1.79-.79,3.57-.79a34.58,34.58,0,0,1,4.56.37L223.89,100c21.43,2.85,57.29,7.6,60.88,8.15a7.8,7.8,0,0,1,2.54.65,8.88,8.88,0,0,1-2.93,1,.65.65,0,0,0,.4-.62c0-.4,0-.89-3.89-1.16-2.59-.18-19.49-2.25-19.66-2.27l-.69-.08,1.5,7.68.47-.07c.08,0,4.92-.77,10-1.53-7,1.13-17.07,2.78-27.31,4.46l14-2.39.49-.09-1.41-8.56-.36,0c-.46-.07-46.3-6.45-49.53-6.92-2.26-.33-3.65-.38-4.52.31a2.54,2.54,0,0,0-.86,1.89c-.11,1.24-.56,7.51-1,13-.27,3.68-.5,6.91-.57,7.76a1.62,1.62,0,0,0,.44,1.39,2.5,2.5,0,0,0,1.66.49c-2.15.32-4,.45-4.55-.08C199,122.81,198.84,122.62,198.89,122.17Z"/><path class="cls-1" d="M236.76,206l-1.69,3.65-1.12-3-3.31.72-.54,6.27,2.1-.45.32-4.08,1.54,3.67,1.65-.36,2.13-4.28-.36,3.9,2.1-.46.53-6.28Zm2.35,5.14-1.07.23.4-4.32-.71.16L235.37,212l-1,.22-1.63-3.88-.67.15-.33,4.3-1.07.23.45-5.23,2.52-.55L235,211l2.09-4.51,2.45-.53Z"/><path class="cls-1" d="M251.65,204.26a.8.8,0,0,0-.31,0l-.69.14-2.44.53-.16,1.94,2.6-.57.72-.18a.75.75,0,0,0,.29-.16.73.73,0,0,0,.24-.35,2.26,2.26,0,0,0,.09-.5,1.52,1.52,0,0,0,0-.5A.52.52,0,0,0,251.65,204.26Zm-.16.8a1.2,1.2,0,0,1-.06.37.28.28,0,0,1-.09.14.23.23,0,0,1-.12.06c-.07,0-.3.08-.68.17l-1.94.43.08-.9,2.08-.45.66-.14h.07A.92.92,0,0,1,251.49,205.06Z"/><path class="cls-1" d="M261,203.48l0-.49a5.41,5.41,0,0,0,0-1,1,1,0,0,0-.87-.95,4.37,4.37,0,0,0-1,0q-.58.07-1.59.3a15.93,15.93,0,0,0-2.55.71,2,2,0,0,0-1.18,1.16,3.81,3.81,0,0,0-.23.8.17.17,0,0,1,0,.07,2.53,2.53,0,0,0-.05-.78.9.9,0,0,0-.5-.62,1.1,1.1,0,0,0-.64-.1c-.19,0-.72.12-1.66.33l-4.07.88-.38,4.37-4.28.94,0-.4,4.05-.88.15-1.79-4.05.88,0-.31,4.26-.93.16-1.87-6.36,1.38-.53,6.28,6.38-1.39h0l2.12-.46.13-1.46,2.09-.46c.41-.09.56-.11.64-.12a.28.28,0,0,1,0,.14c0,.07,0,.25,0,.64l-.06.65,2.1-.46.06-.72a6.14,6.14,0,0,0,.05-1,.82.82,0,0,0-.19-.51.86.86,0,0,0-.14-.13l.1-.09a1.63,1.63,0,0,0,.37-.64,1.37,1.37,0,0,0,.05-.25v0a15.57,15.57,0,0,0-.09,1.57,2,2,0,0,0,.13.73.92.92,0,0,0,.42.47,1.6,1.6,0,0,0,.77.17H255a16,16,0,0,0,2-.35c.81-.18,1.29-.29,1.62-.38a7.85,7.85,0,0,0,1-.34,2.07,2.07,0,0,0,1.29-1.61c.07-.41.14-1,.21-1.84C261,203.67,261,203.62,261,203.48Zm-15.31,6.22-5.37,1.17.45-5.24,5.34-1.16-.07.83-4.27.93-.11,1.35,4-.88-.06.75-4.05.88-.12,1.44,4.3-.94Zm7.4-5.25a4.23,4.23,0,0,1-.14.89,1.09,1.09,0,0,1-.25.43,1.68,1.68,0,0,1-.57.34l.12.48c.24,0,.41,0,.47.07a.35.35,0,0,1,.07.23,7.67,7.67,0,0,1,0,.93l0,.35-1.08.23a4.36,4.36,0,0,0,0-.69.71.71,0,0,0-.16-.44.53.53,0,0,0-.43-.15q-.18,0-.69.12l-2.45.53-.12,1.47-1.1.24.44-5.24,3.71-.8c.9-.2,1.45-.31,1.62-.33a.78.78,0,0,1,.37.06.42.42,0,0,1,.23.3A3.33,3.33,0,0,1,253.13,204.45Zm7.46-1.69-1.12.25v-.07a.47.47,0,0,0-.21-.29,1.12,1.12,0,0,0-.72,0c-.27,0-.66.12-1.19.24s-1,.22-1.22.3a1.64,1.64,0,0,0-.6.33,1.15,1.15,0,0,0-.27.54,6.16,6.16,0,0,0-.14,1,9.27,9.27,0,0,0,0,1.06.73.73,0,0,0,.25.54.74.74,0,0,0,.5.12l1.36-.26c.73-.17,1.19-.27,1.35-.32a1.71,1.71,0,0,0,.46-.19.73.73,0,0,0,.27-.33,1.51,1.51,0,0,0,.1-.46l0-.49-2.11.46,0-.63,3.18-.69c-.07.73-.13,1.27-.2,1.64a1.54,1.54,0,0,1-1,1.24,6.43,6.43,0,0,1-.91.32c-.32.09-.79.2-1.59.37a17.07,17.07,0,0,1-1.88.34,1.38,1.38,0,0,1-.73-.1.48.48,0,0,1-.2-.22,1.8,1.8,0,0,1-.09-.56,14.69,14.69,0,0,1,.09-1.51c0-.5.09-.89.14-1.17a3.08,3.08,0,0,1,.19-.7,1.55,1.55,0,0,1,.9-.89,17.83,17.83,0,0,1,2.47-.68c.66-.15,1.18-.24,1.56-.29a4.38,4.38,0,0,1,.59,0h.29c.19,0,.39.11.44.51A4.2,4.2,0,0,1,260.59,202.76Zm-1.74,2.52,0,.12a.31.31,0,0,1-.08.11,1.26,1.26,0,0,1-.33.13c-.15.05-.62.15-1.31.31-.92.19-1.22.24-1.31.25a.24.24,0,0,1-.15,0,.3.3,0,0,1,0-.18,6.7,6.7,0,0,1,0-1,6.81,6.81,0,0,1,.12-.89.6.6,0,0,1,.15-.31.91.91,0,0,1,.4-.2q.36-.12,1.17-.3c.51-.11.9-.18,1.16-.22l.36-.05s0,.11,0,.24l0,.32-2.07.45-.15,1.67Z"/><path class="cls-1" d="M269.56,198.86l-.31,4L267,199.42l-3.17.68v.2l-2.18.32-.78,6.27,3-.44,0-.2,1.56-.33.31-4,2.26,3.45,3.14-.68.54-6.28Zm-7.46,2.2,1.68-.25-.44,5.21-1.9.28Zm8.6,3.2-2.44.53-2.42-3.68-.52.11L265,205.5l-1,.23.66-5.28,2.15-.47,2.4,3.68.52-.1.33-4.29,1.12-.25Z"/><path class="cls-1" d="M278.27,197.12a4.36,4.36,0,0,0-1,0c-.39,0-.93.15-1.6.3a16.25,16.25,0,0,0-2.55.71,2.06,2.06,0,0,0-1.18,1.15,3.53,3.53,0,0,0-.22.81,10.91,10.91,0,0,0-.15,1.22c-.06.77-.09,1.3-.08,1.57a2,2,0,0,0,.12.73,1,1,0,0,0,.42.47,1.6,1.6,0,0,0,.77.16H273a14.41,14.41,0,0,0,1.95-.34l1.62-.38a6.84,6.84,0,0,0,1-.34,2.07,2.07,0,0,0,1.29-1.62,18.1,18.1,0,0,0,.21-1.84l.05-.69a4.53,4.53,0,0,0,0-1A1,1,0,0,0,278.27,197.12Zm.38,1.71-1.12.24s0,0,0-.06a.42.42,0,0,0-.2-.29,1.05,1.05,0,0,0-.72,0c-.28,0-.67.12-1.19.23s-1,.23-1.22.31a1.55,1.55,0,0,0-.61.33,1.07,1.07,0,0,0-.27.53,7.15,7.15,0,0,0-.13,1,6,6,0,0,0,0,1,.7.7,0,0,0,.24.55.71.71,0,0,0,.51.11c.14,0,.53-.09,1.36-.25l1.35-.32a1.9,1.9,0,0,0,.45-.19.73.73,0,0,0,.27-.33,1.51,1.51,0,0,0,.1-.47l0-.49-2.11.46.06-.63,3.17-.69c-.06.72-.13,1.27-.19,1.65a1.58,1.58,0,0,1-1,1.24,6.45,6.45,0,0,1-.91.31c-.35.1-.88.22-1.59.38a18.46,18.46,0,0,1-1.89.34,1.38,1.38,0,0,1-.73-.1.46.46,0,0,1-.2-.23,1.48,1.48,0,0,1-.08-.55,13.24,13.24,0,0,1,.08-1.51c0-.49.09-.9.14-1.18a3.39,3.39,0,0,1,.2-.7,1.53,1.53,0,0,1,.9-.88,16.29,16.29,0,0,1,2.47-.69c.65-.14,1.17-.23,1.55-.28a4.62,4.62,0,0,1,.6,0h.28c.19,0,.4.11.44.51A4,4,0,0,1,278.65,198.83Zm-1.75,2.52a.4.4,0,0,1,0,.12.31.31,0,0,1-.08.11,1.41,1.41,0,0,1-.32.13l-1.32.31-1.31.25c-.07,0-.13,0-.15,0a.47.47,0,0,1-.05-.19,6.72,6.72,0,0,1,0-1,5.82,5.82,0,0,1,.13-.89.65.65,0,0,1,.14-.3,1.09,1.09,0,0,1,.4-.2,11.32,11.32,0,0,1,1.17-.3c.51-.11.9-.19,1.17-.23l.35,0s0,.1,0,.24l0,.31-2.07.45-.14,1.68Z"/><path class="cls-1" d="M283.65,196.06l-1.46.32-.18,2-2.11.46-.13,1.56,2.11-.47-.17,2,1.46-.32.17-2,2.11-.46.14-1.56-2.11.46Zm1.38,2.2,0,.52-2.11.46-.18,2-.44.09.18-2-2.12.46.05-.51,2.11-.46.17-2,.44-.1-.17,2Z"/><path class="cls-1" d="M298.2,193.94l-1.49,3,3.16-.69-1-2.43Zm-.57,2.26.91-1.83h0l.64,1.49Z"/><path class="cls-1" d="M309.55,195.13a4.81,4.81,0,0,0,.21-.79c.05-.27.09-.65.14-1.2s.06-.83.06-1.06a3.66,3.66,0,0,0-.07-.69,1.13,1.13,0,0,0-1.2-.94,3.56,3.56,0,0,0-.68.05c-.21,0-.66.13-1.34.27l-4,.88-.47,5.46-2.16-4.89-2.81.61L294,199l.48-5.6-2.16.47-.3,4-2.24-3.45-3.17.7-.53,6.27,2.15-.46.31-4,2.25,3.45,2.82-.61h0l2.47-.54.54-1.07,3.17-.69.37.87,1.94-.42h0l4.15-.9c.6-.13,1-.24,1.3-.31a4.94,4.94,0,0,0,.77-.29A2.14,2.14,0,0,0,309.55,195.13Zm-18.49,4.69-2.41-3.68-.52.11-.33,4.29-1.13.24.45-5.23,2.47-.54,2.4,3.69.52-.11.32-4.29,1.13-.25-.45,5.24Zm9.44-2-.36-.88-3.82.83-.54,1.07-1.2.27,3-5.79,2.19-.48,2.07,4.69Zm7.66-1.8a6.55,6.55,0,0,1-.71.26l-1.27.3-3.48.76.44-5.23,3.63-.8,1.32-.27a3.7,3.7,0,0,1,.6,0,.64.64,0,0,1,.71.55,2.58,2.58,0,0,1,.06.58q0,.31-.06,1c0,.53-.09.9-.13,1.15a4.91,4.91,0,0,1-.19.71A1.7,1.7,0,0,1,308.16,196Z"/><path class="cls-1" d="M308.13,192.23a.65.65,0,0,0-.56-.19,5.93,5.93,0,0,0-1,.17l-2.4.53-.29,3.37,2.58-.56a9.61,9.61,0,0,0,.94-.25,1.32,1.32,0,0,0,.52-.31,1.17,1.17,0,0,0,.28-.53,4.37,4.37,0,0,0,.13-.86,4.14,4.14,0,0,0,0-.84A.85.85,0,0,0,308.13,192.23Zm-.33,1.33a3.55,3.55,0,0,1-.11.76.64.64,0,0,1-.16.32.83.83,0,0,1-.33.19,6.57,6.57,0,0,1-.88.23l-1.91.42.2-2.33,2-.45a6.32,6.32,0,0,1,.94-.16.23.23,0,0,1,.17,0,.46.46,0,0,1,.07.23A5.73,5.73,0,0,1,307.8,193.56Z"/><path class="cls-1" d="M312.52,189.5l-3.59,6.94,2.47-.53.53-1.08,3.18-.69.37.88,2.33-.51-2.48-5.62Zm3.26,4.94-.37-.88-3.81.83-.54,1.08-1.2.26,3-5.79,2.19-.48,2.06,4.69Z"/><path class="cls-1" d="M313.48,190.61l-1.49,3,3.16-.68-1-2.43Zm-.58,2.26.92-1.83h0l.64,1.49Z"/><path class="cls-1" d="M324.7,187.76a1,1,0,0,0-.63-.6,2.32,2.32,0,0,0-.82,0c-.32,0-.83.13-1.5.28a16.16,16.16,0,0,0-2.78.78,2,2,0,0,0-1.09,1,3.33,3.33,0,0,0-.21.77c-.05.31-.1.79-.16,1.47s-.09,1.18-.08,1.43a1.85,1.85,0,0,0,.14.83.92.92,0,0,0,.54.48,1.79,1.79,0,0,0,.56.08l.5,0c.44-.06,1.17-.2,2.16-.41a11.86,11.86,0,0,0,2.09-.61,1.92,1.92,0,0,0,.95-.86,3.08,3.08,0,0,0,.3-1.17c0-.08,0-.27,0-.55l0-.33-2.11.46,0,.18c0,.42-.12.55-.15.58a.79.79,0,0,1-.31.17c-.15,0-.48.13-1.22.29-.5.11-.83.17-1,.19a.48.48,0,0,1-.26,0,.26.26,0,0,1-.05-.16,4.83,4.83,0,0,1,0-.87,7.41,7.41,0,0,1,.13-.92.86.86,0,0,1,.18-.36.83.83,0,0,1,.32-.16,8.49,8.49,0,0,1,1-.26,9.67,9.67,0,0,1,1.11-.2l.26,0c0,.07,0,.16,0,.3v.33l2.1-.46,0-.18a2.57,2.57,0,0,1,0-.3A2.93,2.93,0,0,0,324.7,187.76Zm-.43,1.08a.85.85,0,0,1,0,.13l-1.12.24s0-.08,0-.1a.45.45,0,0,0-.17-.3.87.87,0,0,0-.64-.08c-.25,0-.63.1-1.16.21s-.86.2-1.07.27a1.45,1.45,0,0,0-.52.29,1.36,1.36,0,0,0-.3.59,6.35,6.35,0,0,0-.15,1,4.57,4.57,0,0,0,0,1,.63.63,0,0,0,.26.52.81.81,0,0,0,.58.1,7.19,7.19,0,0,0,1.08-.19c.6-.13,1-.23,1.26-.31a1.15,1.15,0,0,0,.54-.31,1.36,1.36,0,0,0,.25-.68l1.11-.24c0,.09,0,.16,0,.2a2.86,2.86,0,0,1-.24,1,1.51,1.51,0,0,1-.72.63,9.86,9.86,0,0,1-2,.58c-1,.21-1.7.35-2.12.4a1.9,1.9,0,0,1-.83,0,.43.43,0,0,1-.26-.23,1.46,1.46,0,0,1-.09-.61c0-.23,0-.68.08-1.38s.11-1.15.16-1.44a2.63,2.63,0,0,1,.17-.65,1.52,1.52,0,0,1,.83-.78,16.54,16.54,0,0,1,2.68-.74c.66-.14,1.15-.23,1.46-.27l.3,0a1.13,1.13,0,0,1,.32,0,.46.46,0,0,1,.3.29A2.56,2.56,0,0,1,324.27,188.84Z"/></svg>