<svg xmlns="http://www.w3.org/2000/svg" viewBox="0 0 480 320"><defs><style>.cls-1{fill:#000;}</style></defs><g id="Layer_1" data-name="Layer 1"><path class="cls-1" d="M25.94,95.61v47.66L161.78,254.52l292.28-64.47V133.32L262.71,65.48ZM434.83,135,163.71,186.82l-122.91-85,221-28.13ZM33.94,106.76l124.87,86.4v48.59L33.94,139.48ZM166.81,245.22V194.37L446.06,141v42.64Z"/><path class="cls-1" d="M168.26,241.25,444.62,180.8V149.37L168.26,205.51Zm6-30.84,264.36-53.7V176L174.26,233.8Z"/><path class="cls-1" d="M243.72,201.53a6.34,6.34,0,1,0,6.34,6.34A6.33,6.33,0,0,0,243.72,201.53Z"/><circle class="cls-1" cx="285.92" cy="199.03" r="6.34"/><path class="cls-1" d="M334.72,182.07a6.34,6.34,0,1,0,6.34,6.33A6.32,6.32,0,0,0,334.72,182.07Z"/><path class="cls-1" d="M381.32,172.18a6.34,6.34,0,1,0,6.34,6.33A6.33,6.33,0,0,0,381.32,172.18Z"/></g></svg>