<svg xmlns="http://www.w3.org/2000/svg" viewBox="0 0 480 320"><defs><style>.cls-1{fill:#000;}</style></defs><g id="Artwork"><path class="cls-1" d="M439.18,112.11a3.85,3.85,0,0,0-.21-1.48v-.48h-.22a4,4,0,0,0-3-2.17l-221-32.87a88.49,88.49,0,0,0-19.31-.74L53.53,84.56a5,5,0,0,0-.54.08c-6,1.28-11.42,2.79-11.84,7.24a4.94,4.94,0,0,0,.39,2.46l1.54,92a11.14,11.14,0,0,0,7.63,10.36L189.2,240.72a62.71,62.71,0,0,0,19,2.92,61.79,61.79,0,0,0,8.49-.58l212.69-29.44a11.29,11.29,0,0,0,9.59-11.13l0-89.3A3.83,3.83,0,0,0,439.18,112.11ZM196,82.35a80.5,80.5,0,0,1,17.55.67l183.33,27.26-185.29,11.4a48.38,48.38,0,0,1-12.13-.81L55,92.48ZM428.21,205.7,215.55,235.14a54.58,54.58,0,0,1-23.92-2l-138.43-44a3.1,3.1,0,0,1-2.12-2.89L49.63,99.58l148.28,29.14a55.56,55.56,0,0,0,10.75,1.05c1.14,0,2.28,0,3.42-.11L431,116.2l0,86.3A3.25,3.25,0,0,1,428.21,205.7Z"/></g><g id="Layer_1" data-name="Layer 1"><ellipse class="cls-1" cx="209.62" cy="100.88" rx="8.46" ry="1.81"/></g></svg>