<svg xmlns="http://www.w3.org/2000/svg" viewBox="0 0 480 320"><defs><style>.cls-1{fill:#000;}</style></defs><g id="Layer_1" data-name="Layer 1"><path class="cls-1" d="M440.84,94.67A9.87,9.87,0,0,0,438.2,93c-11.21-4.71-18.1-6.46-23.05-5.86l-7.2.78L275.54,67c-8.07-1.28-10.31-1.56-19.08-1L43.22,78.39c-4.95.28-8,3.81-8,9.21v76.19c0,5.47.18,7.31,4.19,13.38l53.21,60v3.94a3.1,3.1,0,0,0,.87,2.17l10.11,10.23.74.67.1-.1a3.11,3.11,0,0,0,1.38.32,2.2,2.2,0,0,0,.62-.07L442.3,189.75a3.08,3.08,0,0,0,2.51-3V106.6C444.81,102.7,444.36,97.83,440.84,94.67ZM98.78,138.92c0-9.37,1.85-12.14,8.58-12.88L415.79,93.25a11.66,11.66,0,0,1,1.36-.07l-301.6,34.27c-11.91,1-12.86,7.17-12.86,15.08V243.78l-3.91-4Zm10.11,3.57c0-7,.22-8.3,7.29-8.9L429.27,98h.15c.8-.08,1.57-.15,2.27-.15a8.83,8.83,0,0,1,4.13.8,5.46,5.46,0,0,1,.87.58c1.71,1.53,1.93,4.73,1.93,7.35v77.58L108.89,247.56ZM47,84.33,256.79,72.08h0c8.38-.5,10.26-.27,17.73.91L384.19,90.34l-277.5,29.52a17.3,17.3,0,0,0-8,2.65Zm47.55,42.93c-1.76,3.48-2,7.67-2,11.71v88.85L44.32,173.45c-2.94-4.48-2.94-5.09-2.94-9.71V87.91Z"/><path class="cls-1" d="M423.32,104l-296,32.74c-12,1.35-12.54,6.1-12.54,15.08v81.43a7.51,7.51,0,0,0,2.46,5.89,6.57,6.57,0,0,0,4.24,1.44,7.55,7.55,0,0,0,1.69-.18l305.32-57.15c5.12-1,6.85-3.07,6.85-8.28V114c0-3.83-.16-6.69-2.3-8.58S428,103.43,423.32,104Zm5.82,10,0,61a8,8,0,0,1-.09,1.77,6.9,6.9,0,0,1-1.69.43l-9.18,1.71V110.76l5.91-.65a29.48,29.48,0,0,1,3.41-.25,5.09,5.09,0,0,1,1.4.12A15.4,15.4,0,0,1,429.14,114ZM412,111.49V180l-14.06,2.64V113Zm-20.29,2.22v70.08l-15.07,2.82V115.38Zm-21.22,2.35v71.72l-19.59,3.65v-73.2Zm-25.78,2.85V192.6l-19.39,3.61V121Zm-25.58,2.81v75.66l-20,3.73V123.93Zm-26.16,2.89v77.68l-21,3.94V127Zm-27.21,3V207.4l-22.61,4.24V130.13Zm-28.81,3.19v82l-24.12,4.53V133.49Zm-30.31,3.35v84.3l-23.66,4.45V136.8Zm-29.85,3.27V224l-24.46,4.58V140.15Zm-30.65,3.4v88.91l-24,4.54c-.58.08-.79.06-.88,0a2.11,2.11,0,0,1-.22-1.11V151.63c0-7.85,0-8,7-8.78Z"/></g></svg>