<svg xmlns="http://www.w3.org/2000/svg" viewBox="0 0 480 320"><defs><style>.cls-1{fill:#000;}</style></defs><g id="Layer_1" data-name="Layer 1"><path class="cls-1" d="M446.21,126.84l-13-4-.11,0a14,14,0,0,0-5.24-.37l-4.11.47,0-.08L273.45,71l-.32-.11-6.41-.78L30.46,92.25a3.94,3.94,0,0,0-3.69,3.93L26.84,157a3.94,3.94,0,0,0,1.3,2.93l.1.09,110.41,82.91,0,2.38,9.81,8.25,297-46.92a7,7,0,0,0,6-6.89l.71-65A8.1,8.1,0,0,0,446.21,126.84Zm-17.71,1.6a8.09,8.09,0,0,1,3,.2l6.47,2L152.08,163.39v-.14h-.42l-3.78-2.44ZM271.8,76.73l138.33,47.79-266,30.68a7,7,0,0,0-5.78,4.52L40.11,97.37,266.63,76.11ZM32.84,156l-.06-53.77L137.66,168.8l.25-.4.66,67Zm111,8.21,3.24,2.09.71,78.9-3.18-2.67Zm301.61,35.52a1,1,0,0,1-.89,1L152.83,246.8l-.7-78.38,294.06-33.73Z"/><path class="cls-1" d="M434.73,141.69l-272,31.71c-3.22.38-3.54,6.91-3.54,7v54.1a4,4,0,0,0,4,4,4.3,4.3,0,0,0,.61,0l272-41.78a4,4,0,0,0,3.39-4v-47a4,4,0,0,0-4.46-4ZM207.86,172.17l13.54-1.58v54.94l-13.54,2.08ZM193,229.9l-14.15,2.18V175.55L193,173.9Zm32.45-59.78,11.06-1.29v54.39l-11.06,1.7Zm15.06-1.75,11.06-1.29v53.83l-11.06,1.7Zm15.06-1.76L269.67,165v53.16l-14.15,2.17Zm29.06-3.39L298,161.66v52.11l-13.38,2.06Zm17.38-2L312,160v51.59L302,213.16ZM316,159.56,389.57,151V199.7L316,211Zm77.55-9.05,12.06-1.4v48.12l-12.06,1.86Zm16.06-1.87,11.06-1.29v47.57l-11.06,1.7ZM163.19,234.47v-54.1a12.4,12.4,0,0,1,.69-3.08L174.8,176v56.67Zm272-41.78-10.5,1.62V146.89l10.5-1.23Z"/><polygon class="cls-1" points="321.6 164.1 321.6 204.92 384.33 196.14 384.33 156.58 321.6 164.1"/></g></svg>