<svg id="Artwork" xmlns="http://www.w3.org/2000/svg" viewBox="0 0 480 320"><defs><style>.cls-1{fill:#000;}</style></defs><path class="cls-1" d="M438.58,198.31l-1.08-11.23-.76-10.9-.43-10.55-.12-10.41.17-10.47.49-10.75.82-11a4,4,0,0,0-1-3.84l-7.49-7.56a4,4,0,0,0-3.08-1.16H426l-1.85,0a3.91,3.91,0,0,0-2.06-.53l-33.78.82-70.57-8.2h-.27l-2.12-.24a28.73,28.73,0,0,0-4-.18L49,110.18a8,8,0,0,0-7.71,8.06l1,74.85s0,.07,0,.11a2.71,2.71,0,0,0,0,.4c0,.13,0,.26.07.38s.07.24.11.36a2.35,2.35,0,0,0,.14.37c.05.11.11.21.17.32s.13.23.21.34a3.11,3.11,0,0,0,.23.28,3.71,3.71,0,0,0,.27.29l.28.23.32.23a3.3,3.3,0,0,0,.32.18l.37.17a1.93,1.93,0,0,0,.34.11l.42.11.15,0,108.47,14.93.48,0a3.91,3.91,0,0,0,1.7-.37l4.93,5a4,4,0,0,0,2.77,1.19l.23,0,.16,0h.19l36.44-1,36.89-1,37.13-.95,37.46-.92,37.83-.88,38.29-.84,38.54-.79a1.81,1.81,0,0,0,.23,0,4,4,0,0,0,2.88-1.28l7.3-7.91A4,4,0,0,0,438.58,198.31ZM49.29,120,149.64,131.8a3.92,3.92,0,0,0,1.78.53l-.59,7.94s0,.07,0,.11l-.49,10.87s0,.07,0,.11L150.14,162v.12l.13,10.52v.12l.44,10.66a.37.37,0,0,0,0,.11l.76,11a.37.37,0,0,0,0,.11l.86,9-102.08-14Zm113.16,85,2.36-8.65a3.21,3.21,0,0,0,.08-.36l1.94-11.1a2.35,2.35,0,0,0,0-.37l.91-11.24c0-.12,0-.24,0-.37l-.13-11.26c0-.13,0-.25,0-.37l-1.17-11.19-.06-.37-2.21-11-.09-.37-2.57-8.53,3.92-4.25,35.14,2.45h.12l37.64,1.44h.12l37.74.26h.14l37.57-.92h.15l37.65-2.11h.12l37.58-3.29h.12l35-4.16,3.94,4-2.36,8.64c0,.12-.06.24-.08.36l-1.94,11.11c0,.12,0,.24,0,.36L423.19,155c0,.13,0,.25,0,.37l.14,11.27a2.3,2.3,0,0,0,0,.37l1.18,11.19c0,.12,0,.24.05.37l2.21,11,.09.36,2.57,8.54-3.91,4.25-35.15-2.45h-.12l-37.64-1.44h-.12l-37.74-.26h-.13l-37.6.92h-.13l-37.64,2.1h-.13l-37.58,3.28h-.12l-35,4.17Zm149.17-94.86a20.26,20.26,0,0,1,2.81.12l16.46,1.92-172,4.21h0a4.38,4.38,0,0,0-.62.08l-.17,0a4.32,4.32,0,0,0-.66.23l-.07,0a3.54,3.54,0,0,0-.33.19,4,4,0,0,0-.35.2l-.18.16a3.6,3.6,0,0,0-.41.37l0,0-5.64,6.11-59-6.93Z"/><polygon class="cls-1" points="363 177.68 363.67 179.65 364.58 181.51 365.71 183.23 367.05 184.77 368.57 186.12 370.25 187.24 372.06 188.13 373.97 188.75 375.94 189.11 377.94 189.2 379.94 189.02 381.9 188.56 383.79 187.84 385.57 186.87 387.23 185.66 388.72 184.24 390.02 182.63 391.11 180.86 391.97 178.96 392.59 176.96 392.96 174.89 393.07 172.8 392.91 170.71 392.49 168.66 391.82 166.69 390.92 164.83 389.78 163.12 388.44 161.57 386.92 160.23 385.24 159.1 383.43 158.22 381.52 157.59 379.55 157.23 377.55 157.14 375.56 157.33 373.6 157.78 371.7 158.5 369.92 159.48 368.27 160.68 366.78 162.1 365.48 163.71 364.38 165.48 363.52 167.38 362.9 169.38 362.53 171.45 362.43 173.55 362.58 175.64 363 177.68"/><polygon class="cls-1" points="233.78 152.72 234.1 153.66 234.53 154.54 235.08 155.36 235.71 156.1 236.44 156.74 237.24 157.28 238.1 157.7 239.01 158 239.95 158.17 240.91 158.21 241.86 158.12 242.79 157.91 243.7 157.56 244.55 157.1 245.34 156.52 246.05 155.85 246.67 155.08 247.19 154.23 247.6 153.33 247.9 152.37 248.07 151.39 248.12 150.39 248.05 149.39 247.85 148.42 247.53 147.48 247.09 146.59 246.55 145.77 245.91 145.03 245.19 144.39 244.39 143.86 243.53 143.44 242.62 143.14 241.68 142.97 240.72 142.92 239.77 143.01 238.84 143.23 237.93 143.57 237.08 144.04 236.29 144.61 235.58 145.29 234.96 146.06 234.44 146.9 234.03 147.81 233.74 148.76 233.56 149.75 233.51 150.75 233.59 151.74 233.78 152.72"/><polygon class="cls-1" points="203.58 157.63 204.37 157.05 205.08 156.38 205.7 155.61 206.22 154.76 206.63 153.86 206.93 152.9 207.1 151.92 207.15 150.92 207.08 149.92 206.88 148.95 206.56 148.01 206.13 147.12 205.59 146.3 204.95 145.56 204.22 144.92 203.42 144.39 202.56 143.97 201.65 143.67 200.71 143.49 199.75 143.45 198.8 143.54 197.87 143.76 196.97 144.1 196.11 144.57 195.32 145.14 194.61 145.82 193.99 146.59 193.47 147.43 193.06 148.34 192.76 149.29 192.59 150.28 192.54 151.28 192.62 152.27 192.81 153.25 193.13 154.19 193.56 155.07 194.11 155.89 194.75 156.63 195.47 157.27 196.27 157.81 197.13 158.23 198.04 158.53 198.98 158.7 199.94 158.74 200.89 158.65 201.83 158.43 202.73 158.09 203.58 157.63"/><polygon class="cls-1" points="347.16 146.13 347.48 147.07 347.91 147.95 348.45 148.77 349.09 149.51 349.82 150.15 350.62 150.69 351.48 151.11 352.39 151.41 353.33 151.58 354.29 151.62 355.24 151.53 356.17 151.31 357.07 150.97 357.93 150.51 358.71 149.93 359.42 149.26 360.05 148.49 360.57 147.64 360.98 146.74 361.27 145.78 361.45 144.8 361.5 143.8 361.42 142.8 361.23 141.82 360.91 140.89 360.47 140 359.93 139.18 359.29 138.44 358.57 137.8 357.77 137.27 356.9 136.85 355.99 136.55 355.05 136.37 354.1 136.33 353.15 136.42 352.21 136.64 351.31 136.98 350.46 137.45 349.67 138.02 348.96 138.7 348.34 139.47 347.82 140.31 347.41 141.22 347.11 142.17 346.94 143.16 346.89 144.16 346.96 145.15 347.16 146.13"/><polygon class="cls-1" points="392.37 144.19 392.58 144.8 392.86 145.38 393.21 145.91 393.63 146.39 394.11 146.81 394.63 147.16 395.19 147.43 395.78 147.63 396.39 147.74 397.02 147.76 397.64 147.71 398.25 147.56 398.83 147.34 399.39 147.04 399.9 146.67 400.37 146.22 400.77 145.72 401.11 145.17 401.38 144.58 401.57 143.96 401.68 143.32 401.72 142.67 401.67 142.02 401.54 141.38 401.33 140.77 401.05 140.19 400.7 139.66 400.28 139.18 399.81 138.76 399.28 138.41 398.72 138.14 398.13 137.94 397.52 137.83 396.9 137.8 396.27 137.86 395.67 138 395.08 138.22 394.52 138.53 394.01 138.9 393.55 139.34 393.14 139.84 392.8 140.39 392.53 140.98 392.34 141.61 392.23 142.25 392.19 142.9 392.24 143.55 392.37 144.19"/></svg>