<?xml version="1.0" encoding="UTF-8"?><svg id="Layer_1" xmlns="http://www.w3.org/2000/svg" viewBox="0 0 480 320"><defs><style>.cls-1{fill:#000;}</style></defs><path class="cls-1" d="M440.84,94.63c-.66-.62-1.46-1.14-2.64-1.7-11.21-4.71-18.1-6.46-23.05-5.86l-7.2,.78-132.4-20.94c-8.08-1.28-10.31-1.56-19.08-.98l-213.24,12.41c-4.95,.28-8.03,3.81-8.03,9.22v76.18c0,5.47,.18,7.32,4.19,13.38l53.21,59.99v3.94c0,.82,.32,1.61,.88,2.17l10.1,10.23,.75,.67,.1-.1c.43,.21,.89,.31,1.38,.31,.15,0,.37,0,.62-.07l335.89-64.56c1.48-.31,2.51-1.56,2.51-3.03V106.56c0-3.89-.45-8.77-3.97-11.93ZM98.78,138.89c0-9.37,1.85-12.14,8.58-12.88l308.43-32.79c.42-.05,.87-.07,1.35-.07L115.56,127.41c-11.92,1.03-12.86,7.17-12.86,15.08v101.25l-3.91-3.97v-100.89Zm10.1,3.56c0-6.97,.22-8.3,7.29-8.9l313.1-35.55h.14c.81-.09,1.57-.16,2.28-.16,1.75,0,3.14,.27,4.13,.8,.34,.19,.65,.4,.87,.58,1.71,1.53,1.93,4.73,1.93,7.35v77.58L108.89,247.53v-105.08Zm-61.87-58.16l209.77-12.25h0c8.38-.51,10.26-.27,17.73,.91l109.67,17.35L106.69,119.82c-3.24,.34-5.94,1.23-8.03,2.65l-51.65-38.17Zm47.54,42.93c-1.76,3.48-2.01,7.67-2.01,11.71v88.85l-48.22-54.37c-2.94-4.48-2.94-5.09-2.94-9.7V87.88l53.17,39.35Z"/><path class="cls-1" d="M423.32,103.93L127.27,136.68c-11.99,1.35-12.54,6.1-12.54,15.08v81.42c0,2.46,.87,4.55,2.46,5.89,.8,.66,2.19,1.44,4.24,1.44,.6,0,1.17-.06,1.69-.18l305.32-57.15c5.12-.98,6.85-3.07,6.85-8.28v-60.96c0-3.83-.17-6.69-2.3-8.58-2.09-1.9-5.01-1.96-9.67-1.43Zm5.82,10.01l-.04,60.96c0,.79,0,1.61-.09,1.77-.15,.13-.93,.28-1.69,.43l-9.17,1.71V110.73l5.91-.66c.52-.06,2.09-.24,3.41-.24,.91,0,1.28,.08,1.4,.12,.19,.45,.28,1.79,.28,4Zm-17.19-2.49v68.54l-14.06,2.64V112.99l14.06-1.54Zm-20.29,2.22v70.08l-15.07,2.81V115.34l15.07-1.67Zm-21.22,2.35v71.72l-19.59,3.65V118.19l19.59-2.17Zm-25.79,2.85v73.69l-19.38,3.61V121l19.38-2.13Zm-25.58,2.81v75.66l-19.97,3.73V123.89l19.97-2.21Zm-26.16,2.89v77.67l-21.02,3.94V126.91l21.02-2.34Zm-27.21,3.02v79.77l-22.61,4.24v-81.5l22.61-2.5Zm-28.8,3.19v81.95l-24.12,4.53v-83.81l24.12-2.67Zm-30.31,3.35v84.3l-23.66,4.45v-86.12l23.66-2.63Zm-29.85,3.27v86.6l-24.46,4.57v-88.46l24.46-2.71Zm-30.65,3.4v88.91l-24.03,4.54c-.58,.09-.78,.06-.88,0-.07-.08-.22-.45-.22-1.11v-81.55c0-7.85,0-8,7.04-8.78l18.09-2.01Z"/></svg>