<svg id="Artwork" xmlns="http://www.w3.org/2000/svg" viewBox="0 0 480 320"><defs><style>.cls-1{fill:none;stroke:#000;stroke-miterlimit:10;stroke-width:8px;}.cls-2{fill:#000;}</style></defs><path class="cls-1" d="M36.73,104.56l151.68,60.06a28.91,28.91,0,0,0,18.87,1.22l236.33-59c5.14-1.42,2.71-6.92-2.45-8.3L273.45,46.75a24.9,24.9,0,0,0-11.64-.3L37.67,94.61A5.24,5.24,0,0,0,36.73,104.56Z"/><line class="cls-1" x1="197.26" y1="164.12" x2="197.26" y2="274.1"/><path class="cls-1" d="M446.48,102.86v99.2c0,3.59-2.92,6.73-6.38,7.65L207.28,270.14a28.79,28.79,0,0,1-18.87-1.22L39.18,205.59c-3.69-1.57-5.63-5.19-5.63-9.2V100.16"/><path class="cls-1" d="M272.13,168.66,382,140.32h0c25.23,7.46,25.75,44.65.92,65.69l-.5.43-110,28.38c-1.18.3-1.72-1.07-.83-2.09h0c18.18-20.89,18.15-50.1-.08-61.6l-.14-.09C270.51,170.51,271,169,272.13,168.66Z"/><path class="cls-2" d="M264.38,181.23a22.46,22.46,0,0,0-13.55-4.62,24.54,24.54,0,0,0-17-1.3c-15.31,3.94-27.74,20.06-27.72,35.93,0,8.12,3.15,15,8.83,19.41a22.06,22.06,0,0,0,12.4,4.53,23,23,0,0,0,11,2.68,28,28,0,0,0,7.08-.93c15.64-4,27.89-19.9,27.86-36.13C273.27,192.62,270.11,185.67,264.38,181.23ZM229.29,226.9c-3.74-2.89-5.8-7.59-5.81-13.25,0-12.53,9.79-25.26,21.87-28.38a20.4,20.4,0,0,1,5-.66,14.64,14.64,0,0,1,9.1,2.95c3.74,2.89,5.8,7.59,5.8,13.25,0,12.54-9.79,25.26-21.86,28.38C238,230.58,233,229.77,229.29,226.9Zm-15.54-15.67c0-9.8,5.93-19.7,14.27-25.12-7.61,7.08-12.55,17.24-12.54,27.55a28.28,28.28,0,0,0,1,7.48A18.1,18.1,0,0,1,213.75,211.23Z"/></svg>