<svg id="Layer_1" data-name="Layer 1" xmlns="http://www.w3.org/2000/svg" viewBox="0 0 480 320"><defs><style>.cls-1{fill:#000;}</style></defs><title>miniDSP - SHD </title><path class="cls-1" d="M456.59,197.5l-.16-8h-.05l-.37-35h.12l-.15-8-1,0L369.72,116.7l-348.43,7v48l43.88,33.4,0,0v.22Zm-8.21-7.84L69.11,197.2V161.73L448,154.62Zm-16.44-42.74L66.47,153.78,36.58,131.36l331.86-6.63Zm-402.65-11,31.82,23.87v32.18L29.29,167.72Z"/><circle class="cls-1" cx="98.07" cy="178.85" r="14.86" transform="translate(-38.47 27.32) rotate(-13.28)"/><polygon class="cls-1" points="211.57 163.29 121.63 165.12 121.63 192.56 211.57 190.73 211.57 163.29"/></svg>