<svg xmlns="http://www.w3.org/2000/svg" viewBox="0 0 480 320"><defs><style>.cls-1{fill:#000;fill-rule:evenodd;}</style></defs><title>Mola Mola - Makua</title><g id="Laag_1" data-name="Laag 1"><path class="cls-1" d="M278,184.15a22.2,22.2,0,0,0,1.45,3.43,19.85,19.85,0,0,0,2,3.11,19.49,19.49,0,0,0,5.43,4.72l0,.06.5.19a18.22,18.22,0,0,0,3,1.34,21.86,21.86,0,0,0,3.45.82,16.31,16.31,0,0,0,2.55.23h.19l.21.14.37.3,0,0c.07,0,.13.12.19.17a14.81,14.81,0,0,0,2.29,1.58,18.31,18.31,0,0,0,4.81,1.95,19.05,19.05,0,0,0,2.58.44c.61.06,1.23.09,1.85.09l.77,0a19.56,19.56,0,0,0,2.63-.28,21.59,21.59,0,0,0,2.58-.64,22,22,0,0,0,4.87-2.25,25.68,25.68,0,0,0,2.23-1.57,25.34,25.34,0,0,0,2-1.83,26,26,0,0,0,1.84-2.06,22.69,22.69,0,0,0,1.61-2.27,25,25,0,0,0,1.36-2.42,27.49,27.49,0,0,0,1.09-2.57,25.35,25.35,0,0,0,.8-2.66,25.69,25.69,0,0,0,.51-2.73,23.44,23.44,0,0,0,.2-2.76,22.82,22.82,0,0,0-.12-2.75,22,22,0,0,0-.43-2.7,21.63,21.63,0,0,0-.76-2.61,22.52,22.52,0,0,0-1.08-2.47,19.46,19.46,0,0,0-1.38-2.28,18.65,18.65,0,0,0-1.67-2.07,18.3,18.3,0,0,0-1.93-1.81,18.53,18.53,0,0,0-2.16-1.5,18.73,18.73,0,0,0-2.33-1.16,15.45,15.45,0,0,0-2.58-.84c-.48-.11-.94-.19-1.38-.26v0L315,158a13.72,13.72,0,0,0-2.39-2.36,19.13,19.13,0,0,0-2.9-1.89,17.44,17.44,0,0,0-2.17-.92l-.06,0v0c-.37-.13-.73-.26-1.1-.36a18.5,18.5,0,0,0-3.52-.61,20.89,20.89,0,0,0-3.62.07,22.77,22.77,0,0,0-3.57.71,24.13,24.13,0,0,0-3.47,1.29,25.45,25.45,0,0,0-3.29,1.84,26.22,26.22,0,0,0-3,2.33,26.49,26.49,0,0,0-2.71,2.79,27.08,27.08,0,0,0-2.31,3.18,26.78,26.78,0,0,0-1.82,3.49,24.12,24.12,0,0,0-1.29,3.81,33.84,33.84,0,0,0-.72,5v.45a31.94,31.94,0,0,0,.2,3.58A21,21,0,0,0,278,184.15Zm25.19-10.24,1.17-1.53,1.31-1.35,1.43-1.13,1.51-.89,1.54-.66,1.55-.41,1.52-.16,1.46.07,1.39.3,1.3.51,1.2.71,1.09.92,1,1.12.82,1.31.65,1.48.45,1.62.24,1.75,0,1.83-.22,1.86-.44,1.86-.68,1.81-.88,1.73-1.06,1.59-1.24,1.43-1.36,1.24-1.45,1-1.52.79-1.54.54-1.53.3-1.49.06-1.42-.17-1.35-.39-1.26-.6-1.16-.8-1.05-1-.91-1.21-.74-1.39-.57-1.56-.36-1.7-.14-1.8.09-1.87.33-1.88.56-1.86.79-1.8Zm-17,1.57.31-2,.55-2,.78-1.92,1-1.81,1.18-1.68,1.35-1.49,1.48-1.3,1.57-1.06,1.64-.82,1.66-.58,1.66-.32,1.61-.07,1.56.16.12,0-.1.05-2.43,1.61-2.22,1.92-2,2.18-1.74,2.41-1.44,2.6-1.15,2.75-.82,2.86-.48,2.91-.13,2.92.22,2.89.29,1.41a10.48,10.48,0,0,1-3.93-5.81l-.43-2-.17-1.91Z"/><path class="cls-1" d="M461,126.32l-.09-1.9-.37-1.25-.47.14.23-.15a17.25,17.25,0,0,0-8.65-7.06c-2-1.29-4-2.56-6.12-3.8s-4.14-2.41-6.11-3.47-3.86-2-5.75-3-3.64-1.72-5.42-2.48c-2.23-1-4.47-1.83-6.65-2.62s-4.16-1.4-6.23-2c-1.91-.55-3.87-1-5.84-1.49-2.34-.52-4.8-1-7.32-1.36-2.1-.32-4.34-.6-6.86-.87-2.14-.22-4.27-.41-6.39-.6h-.13c-2.11-.19-4.21-.38-6.31-.6-1.82-.19-3.45-.39-5-.61-1.74-.25-3.44-.53-5-.84-1.75-.34-3.48-.73-5.16-1.17s-3.6-1-5.36-1.6-3.78-1.35-5.66-2.14c-1.54-.65-3.12-1.36-4.69-2.12s-3.3-1.66-4.95-2.57-3.44-2-5.23-3.06-3.74-2.37-5.51-3.58c-2-1.35-3.95-2.79-5.91-4.21l-2.7-.75L31.7,97.51a4.71,4.71,0,0,0-4.27,4.73l0,3-.75.08-1.56.26-1.4.32-1.26.42-.65.3-.58.32-1.2,1-.26.34-.6,2.63H19l1.72,65.92.18,1.09.08.27,1.06,1.7,1,.83,7.15,4.68.1,4.12s-.26,2.31,2.49,4.09L114.65,248c2.46,1.48,8.22,2.33,8.39-4.34l0-2.54,1-.14,1,0,2-.19v-.17l.13,0v0l.26,0v0l298.83-39.83,13.07,5.65s6.23.06,6.42-5.38c0-1.21.07-2.15.09-2.88l8.57-1.14a4.17,4.17,0,0,0,3.45-4.36c0-.33,0-.59,0-.81v.3c0-.3-.08-2.45,0-.3l2.05-59.32Q460.44,129.38,461,126.32ZM28.65,174.92,27.16,118l82,45.2.88,64.87ZM83,134.08c1,.23,2,.47,2.93.71,1.73.47,3.35,1,5,1.57,1.32.49,2.65,1,4,1.64s2.83,1.38,4.25,2.17,3.08,1.81,4.64,2.84c1.26.84,2.55,1.75,3.85,2.71s2.75,2.09,4.14,3.23c.8.66,1.63,1.35,2.46,2.07ZM121.29,233l-1.57-.1-1.39-.19-.26,0-.9-66.8.74.09,2,.12,1.91,0,.79,66.93Zm5.3-81.49c-1.64-1.59-3.34-3.18-5.06-4.71s-3.21-2.81-4.74-4.06-3-2.39-4.45-3.47-2.81-2-4.19-2.95c-1.72-1.14-3.46-2.2-5.15-3.15s-3.22-1.72-4.81-2.46-3-1.31-4.53-1.87c-1.8-.67-3.7-1.27-5.65-1.79-1.61-.43-3.32-.83-5.24-1.22-1.63-.32-3.23-.61-4.91-.9s-3.11-.56-4.66-.87c-1.32-.26-2.51-.53-3.63-.81-1.28-.33-2.47-.67-3.64-1.06s-2.51-.88-3.72-1.4-2.62-1.18-3.91-1.87-2.77-1.56-4.16-2.46c-1.14-.75-2.32-1.57-3.48-2.44s-2.46-1.88-3.7-2.92-2.6-2.23-3.94-3.48c-1-.93-2-1.88-3-2.84l286.5-25.5c1.6,1.16,3.23,2.33,4.87,3.45,1.88,1.29,3.85,2.57,5.85,3.8s3.76,2.26,5.55,3.25,3.57,1.91,5.32,2.76,3.42,1.61,5.1,2.31c2.05.86,4.14,1.65,6.19,2.34s3.92,1.25,5.9,1.76,3.74.91,5.65,1.29c1.73.33,3.56.64,5.44.9,1.63.23,3.35.44,5.27.65,2.14.22,4.28.41,6.44.61h.13c2.08.18,4.16.37,6.26.59,2.4.25,4.52.52,6.5.82,2.34.36,4.62.78,6.79,1.26,1.8.4,3.61.86,5.37,1.37,1.91.54,3.84,1.16,5.74,1.84s4.11,1.54,6.19,2.43c1.66.72,3.37,1.5,5.08,2.33s3.61,1.8,5.43,2.79,3.84,2.13,5.83,3.32c1.3.77,2.57,1.55,3.83,2.34l-314.68,34C129.28,154.18,127.94,152.83,126.59,151.53ZM452,131.59h0v.09a238.41,238.41,0,0,0-2.35,57.85L133.38,231.69a368.71,368.71,0,0,1-.1-68.41L452.44,128.8C452.27,129.73,452.12,130.66,452,131.59Z"/><path class="cls-1" d="M301.26,184.59a4.6,4.6,0,0,0,.05,1.56,4.24,4.24,0,0,0,.63,1.52,4.6,4.6,0,0,0,.73.85l.58.44.58.32a4.58,4.58,0,0,0,1.63.38h.17a4.46,4.46,0,0,0,1.26-.18,4.51,4.51,0,0,0,1.31-.63,4.63,4.63,0,0,0,1-.94,4.51,4.51,0,0,0,.67-1.17,4.67,4.67,0,0,0,.29-1.44,4.34,4.34,0,0,0-.21-1.52,4.48,4.48,0,0,0-.76-1.41,4.3,4.3,0,0,0-1.23-1.06,4.38,4.38,0,0,0-1.5-.54,4.49,4.49,0,0,0-1.55,0,4.57,4.57,0,0,0-1.34.48,4.62,4.62,0,0,0-1.1.85,4.83,4.83,0,0,0-.81,1.18A4.51,4.51,0,0,0,301.26,184.59Z"/><path class="cls-1" d="M206.39,187.54a3,3,0,0,0,2.78-2.65,2.2,2.2,0,0,0-2.55-2.23,3,3,0,0,0-2.77,2.65A2.2,2.2,0,0,0,206.39,187.54Z"/><path class="cls-1" d="M232.2,185a3,3,0,0,0,2.78-2.65,2.2,2.2,0,0,0-2.54-2.23,3,3,0,0,0-2.78,2.65A2.2,2.2,0,0,0,232.2,185Z"/><path class="cls-1" d="M257.37,182.08a3,3,0,0,0,2.77-2.65,2.19,2.19,0,0,0-2.54-2.23,3,3,0,0,0-2.77,2.65A2.19,2.19,0,0,0,257.37,182.08Z"/><path class="cls-1" d="M338.85,172.41a3,3,0,0,0,2.78-2.65,2.21,2.21,0,0,0-2.54-2.23,3,3,0,0,0-2.78,2.65A2.2,2.2,0,0,0,338.85,172.41Z"/><path class="cls-1" d="M363.16,169.47a3,3,0,0,0,2.78-2.65,2.2,2.2,0,0,0-2.54-2.23,3,3,0,0,0-2.78,2.65A2.2,2.2,0,0,0,363.16,169.47Z"/><path class="cls-1" d="M385.92,166.71a3,3,0,0,0,2.78-2.65,2.2,2.2,0,0,0-2.54-2.23,3,3,0,0,0-2.78,2.65A2.19,2.19,0,0,0,385.92,166.71Z"/></g></svg>