<svg id="Artwork" xmlns="http://www.w3.org/2000/svg" viewBox="0 0 480 320"><defs><style>.cls-1{fill:#000;}</style></defs><g id="Laag_1" data-name="Laag 1"><path class="cls-1" d="M451.59,117.64l-.53-2a3.83,3.83,0,0,0-.37-.94,3.41,3.41,0,0,0-1-1.09l-10.59-7.56L439,106,429,99.54l-.13-.08L419.75,94l-.17-.09L411,89.43l-.15-.07-8-3.79-.21-.08L393,81.61l-.25-.1-9-2.84-.28-.07L375,76.48l-.25,0-10.5-1.76H364l-9.82-1H354L344.59,73l-9.25-.56-7.28-.7-2.83-.41s-11.16-1.53-27.12-7.51a62.54,62.54,0,0,1-14.27-7.21l-7.31-4.57-7.72-5.44-8.2-6.32-.38-.27a3.59,3.59,0,0,0-.85-.37,3.25,3.25,0,0,0-.88-.15h-.44L44.93,52.3a4.16,4.16,0,0,0-1.1.24l-.23.09a4.88,4.88,0,0,0-.73.44,3.16,3.16,0,0,0-.43.39,3.59,3.59,0,0,0-.76,1.16c0,.09-.07.19-.1.28a4,4,0,0,0-.18,1.19v8.3h-.1a4.21,4.21,0,0,0-.71,0l-4.44.46-.31,0-1.77.34h-.2l-1.37.34a4.1,4.1,0,0,0-.59.2l-.95.41a3.77,3.77,0,0,0-1.15.78l-.46.47a3.74,3.74,0,0,0-1.11,2.73v.1l1.31,101.92a4.87,4.87,0,0,0,.05.65,5.06,5.06,0,0,0,.17.67l.1.25a3.53,3.53,0,0,0,1.06,1.62l.51.46.28.24.31.22,11.65,7.49.09,7.93a3.79,3.79,0,0,0,.4,1.69l.1.2a4,4,0,0,0,.46.67,3.22,3.22,0,0,0,.32.32,3.91,3.91,0,0,0,.56.79.52.52,0,0,0,.11.1,2.83,2.83,0,0,0,.35.34l.31.22L173,279.7a4.71,4.71,0,0,0,.48.29l.16.07a4,4,0,0,0,1.16.36l.4.07h1.93l.4-.07a3.58,3.58,0,0,0,1.15-.36l.24-.11a3.43,3.43,0,0,0,.94-.71l.12-.11c.13-.14.25-.28.37-.43a3.75,3.75,0,0,0,.88-.66l.12-.11a4.13,4.13,0,0,0,.71-.95v-.05a3.84,3.84,0,0,0,.43-1.82v-7.29l3,.06h.14l3.08-.06H189l2.84-.28h.89l83.39-9.25h.24a1.93,1.93,0,0,0,.48,0l81.59-9a3.86,3.86,0,0,0,.57-.12h.23l43.48-4.79,17.11,8.19.11,0a4,4,0,0,0,.76.27h.5l.34.05h.16l.45.06a4.27,4.27,0,0,0,1,0l.82-.13a3.39,3.39,0,0,0,.57-.14l.17-.06a3.77,3.77,0,0,0,2.52-2.84c.09-.13.17-.27.25-.41l.06-.11a3.85,3.85,0,0,0,.39-1.7l.19-6.12,8.26-.95a2.83,2.83,0,0,0,.58-.11h.25l2.27-.33.3-.06,2-.45.51-.16,1.48-.58a3.23,3.23,0,0,0,.62-.3l1-.62a3.82,3.82,0,0,0,1.29-1.33l.4-.68a3.5,3.5,0,0,0,.32-.71v-.08a3.32,3.32,0,0,0,.16-.62,4.5,4.5,0,0,0,.07-.63l3.78-113,.24-1.38a4.3,4.3,0,0,0,.05-1A3.24,3.24,0,0,0,451.59,117.64ZM49.22,178.43l-11.41-7.35-1.31-94,131.18,64.27-.3,113.18L49.73,178.78A3.07,3.07,0,0,0,49.22,178.43ZM188,244.6l-.09,12.64v2.94l-2.24.05-2.83-.06-2.77-.26-2.05-.26h-.21l-2.18-.51-.2-.05-.51-.18.26-115,1.44.24h.24l2.83.29h.16l3.06.17,3.13.13h.22l2.18-.05ZM107.35,95.85l13.91,1.48,7.65,1.17,8.11,1.89,6.4,2.23,7,3.07,7.62,4.09,6.3,4,6.8,4.91,7.35,5.83,8,6.92,5.28,4.94Zm84.28,30-.11-.1-8.08-7-.12-.1-7.48-5.94-.14-.1-7-5-.19-.13L162,103.34l-.23-.13L153.93,99l-.28-.13-7.3-3.2-.28-.11-6.73-2.34L139,93.1l-8.46-2-.3,0-7.87-1.2h-.17L107.3,88.26l-5.75-.89-5.74-1.2-5.94-1.8-6.05-2.49-6.44-3.43-5.3-3.4-5.57-4.13L60.66,66l-6.2-5.81-.79-.82L257.1,47.18l7.15,5.53.13.1,7.92,5.5a.52.52,0,0,0,.17.12l7.47,4.72.17.11,7.19,4,.22.11,6.91,3.25.25.11L303.07,74l.3.09,8,2.35.27.06,7.77,1.66h.22l4,.62h.17l3.3.55a.74.74,0,0,0,.21,0l7.42.69h.13l9.28.56,9.36.63,9.63.94,10.25,1.72,8.12,1.94,8.71,2.77,9.45,3.78L407.49,96l8.4,4.42,9,5.32,9.8,6.37,2.08,1.48-112,9.17h0L199.19,133Zm250.8,3.25-1.59,11.07v.12l-1.25,11.34a.17.17,0,0,0,0,.1l-.95,11.34v.12l-.73,11.57-.4,11.59v.12l-.06,11.7v.11l.29,11.83.52,11.91.7,10.3-.7.16-1.29.19-.33-.05h0a3.88,3.88,0,0,0-1.36.1l-.2,0a4.35,4.35,0,0,0-.76.28l-9.93,1.09a3.72,3.72,0,0,0-.67.08h-.36a4.23,4.23,0,0,0-.79.08l-2.33.27a3.05,3.05,0,0,0-.6.06l-60.32,6.62-.27-.06h0a4.24,4.24,0,0,0-1.33,0l-.25.06a3.92,3.92,0,0,0-1,.31l-79.39,8.78a3.76,3.76,0,0,0-.88-.09h-.34a3.77,3.77,0,0,0-1.68.39l-73.89,8.19-.83-10.9-.68-12.43-.45-12.35-.17-12.29.06-12.2.28-12.14.51-11.95.79-11.86,1-11.67L202,140.34l123.28-10h0l118.48-9.62Z"/><path class="cls-1" d="M269.42,186.3a2.49,2.49,0,0,0-.48-.77l-1.05-1.22a2.83,2.83,0,0,0-.85-.65l-1.23-.61-.21-.15a2.69,2.69,0,0,0-2.53-.34h-.22a2.16,2.16,0,0,0-.76.07l-1.72.4a3,3,0,0,0-1,.44l-1.46,1.07a2,2,0,0,0-.56.53l-1.15,1.48a3.67,3.67,0,0,0-.36.6l-.73,1.72a2.3,2.3,0,0,0-.19.68l-.16,1.15a2.36,2.36,0,0,0,0,.75l.24,1.8a2.71,2.71,0,0,0,.31,1l.82,1.47a2.85,2.85,0,0,0,.53.67l.89.84.26.25h0a2.64,2.64,0,0,0,1.05.61l1.54.49a2.92,2.92,0,0,0,.83.12h.12l1.73-.08a3,3,0,0,0,.88-.19l1.63-.66a2.61,2.61,0,0,0,.72-.42l1.36-1.15a2.26,2.26,0,0,0,.59-.71l1-1.62a2.76,2.76,0,0,0,.29-.66l.49-1.72a3.09,3.09,0,0,0,.11-.75v-1.8a2.5,2.5,0,0,0-.21-1Z"/><path class="cls-1" d="M323.77,149.32l-4.9.85a1.58,1.58,0,0,0-.31.09l-4.9,1.71a1.53,1.53,0,0,0-.27.11l-4.72,2.51a1,1,0,0,0-.24.15l-4.34,3.19-.21.18-4,3.94a1.07,1.07,0,0,0-.2.23l-3.31,4.51a.83.83,0,0,0-.14.22l-2.7,4.94-.12.27-1.82,5.25a2,2,0,0,0-.09.35l-1.08,7.38v.45l.28,5.28a1.5,1.5,0,0,0,0,.3l1.14,5.14a1.12,1.12,0,0,0,.1.31l1.93,4.72a3,3,0,0,0,.16.31l2.82,4.27a1.44,1.44,0,0,0,.22.27l3.49,3.66a1.84,1.84,0,0,0,.25.23l4,2.91a3.37,3.37,0,0,0,.32.19h0a2.47,2.47,0,0,0,.47.29l2.18.94.3.16.28.11,1.37.68a1.72,1.72,0,0,0,.45.16l2.5,1.09.26.08,3.6.95.28.05,3.72.4h.25l3.83-.11h.25l3.83-.64a1.22,1.22,0,0,0,.26-.06l3.78-1.19.24-.1,3.6-1.72.13-.06,1.12-.66a1.54,1.54,0,0,0,.54-.2l.68-.4.18-.11,3.08-2.29.16-.13,2.83-2.62.15-.16,2.57-3,.12-.15,2.28-3.25.11-.19,1.89-3.48.08-.16,1.54-3.66a1.07,1.07,0,0,0,.07-.19l1.14-3.83a1.06,1.06,0,0,0,0-.19l.75-3.87v-.22l.28-3.78v-2.25a.67.67,0,0,0,0-.2l-.34-3.19a1.91,1.91,0,0,0-.19-.67l-.45-2.5a.26.26,0,0,0-.05-.18L354.22,169a1.34,1.34,0,0,0-.09-.26l-1.6-3.59a1,1,0,0,0-.12-.23l-2.05-3.31c-.06-.08-.1-.15-.16-.22l-2.46-2.91-.18-.19-2.83-2.51-.22-.17-3.08-2-.28-.16-1.75-.79-.34-.23a1.58,1.58,0,0,0-.36-.2l-4.34-1.77a2.35,2.35,0,0,0-.35-.11l-4.73-.94h-.34l-4.9-.06ZM329,160.1l2.94.46,2.83.94,2.69,1.35,2.37,1.8,2.14,2.18,1.77,2.57,1.42,2.83,1,3.11.14.54.42,2.68.16,3.41-.32,3.47-.75,3.42-1.18,3.38-1.55,3.16-1.89,2.94L338.91,201l-2.56,2.3-2.83,2h0l-2.84,1.39-3.05,1-3.09.53-3.08.11-2.94-.42-2.91-.88-2.67-1.33L310.5,204l-2.19-2.18-1.82-2.5-1.41-2.83L304,193.33l-.65-3.34-.15-3.4.27-3.53.74-3.46,1.18-3.38L307,173l2-3,2.29-2.66,2.61-2.3,2.84-2,2.95-1.42,3.11-1,3.09-.53Z"/><path class="cls-1" d="M235.77,191.52l-.57-1.64a2.51,2.51,0,0,0-.58-.95l-1.14-1.24a2.68,2.68,0,0,0-.83-.59l-1-.45-.19-.15a2.7,2.7,0,0,0-2.44-.45h-.64a3.22,3.22,0,0,0-.88.11l-1.73.49a2.93,2.93,0,0,0-.7.31l-1.55,1a2.86,2.86,0,0,0-.75.68l-1.14,1.56a2.9,2.9,0,0,0-.31.54l-.73,1.73a2.22,2.22,0,0,0-.19.68l-.18,1.15a2.54,2.54,0,0,0,0,.87l.33,1.8a2.18,2.18,0,0,0,.21.67l.74,1.56a2.75,2.75,0,0,0,.74.95l.53.42a2.71,2.71,0,0,0,1,.8l.16.08H224l.36.17,1.55.57a2.73,2.73,0,0,0,.94.16H227l1.73-.08a2.32,2.32,0,0,0,.82-.18l1.73-.65a3.06,3.06,0,0,0,.83-.5l1.35-1.24a2.29,2.29,0,0,0,.48-.55l1.07-1.63a2.72,2.72,0,0,0,.34-.78l.49-1.8a2.33,2.33,0,0,0,.09-.83l-.08-1.81A2.22,2.22,0,0,0,235.77,191.52Z"/><path class="cls-1" d="M421.47,171.24a2.69,2.69,0,0,0-.48-.77l-1.06-1.22a2.67,2.67,0,0,0-.84-.65l-1.24-.61-.2-.15a2.71,2.71,0,0,0-2.54-.34h-.21a2.14,2.14,0,0,0-.76.07l-1.73.4a2.89,2.89,0,0,0-1,.44L410,169.48a2.13,2.13,0,0,0-.55.53l-1.16,1.48a2.55,2.55,0,0,0-.35.6l-.73,1.72a2.3,2.3,0,0,0-.19.68l-.17,1.15a2.36,2.36,0,0,0,0,.75l.25,1.8a2.42,2.42,0,0,0,.31.95l.81,1.48a3.48,3.48,0,0,0,.53.67l.9.84.26.24h0a2.51,2.51,0,0,0,1,.62l1.55.48a2.62,2.62,0,0,0,.83.13h.12l1.72-.08a3.37,3.37,0,0,0,.89-.19l1.62-.66a2.47,2.47,0,0,0,.72-.42l1.36-1.15a2.17,2.17,0,0,0,.6-.71l1-1.63a2.93,2.93,0,0,0,.29-.65l.48-1.72a2.72,2.72,0,0,0,.11-.75v-1.8a2.67,2.67,0,0,0-.2-1Z"/><path class="cls-1" d="M387.82,176.46l-.57-1.64a2.67,2.67,0,0,0-.59-.95l-1.14-1.24a2.71,2.71,0,0,0-.82-.6l-.95-.44-.19-.15a2.73,2.73,0,0,0-2.45-.45h-.64a3,3,0,0,0-.88.11l-1.72.49a2.64,2.64,0,0,0-.71.31l-1.55,1a2.82,2.82,0,0,0-.74.68l-1.14,1.56a2.43,2.43,0,0,0-.31.54l-.74,1.73a2.53,2.53,0,0,0-.19.68l-.17,1.15a2.54,2.54,0,0,0,0,.87l.32,1.8a2.2,2.2,0,0,0,.22.67l.73,1.56a2.78,2.78,0,0,0,.75,1l.53.42a2.63,2.63,0,0,0,.95.8l.16.08h.08l.37.17,1.55.57a2.93,2.93,0,0,0,.93.16h.14l1.72-.08a2.33,2.33,0,0,0,.83-.18l1.73-.65a2.87,2.87,0,0,0,.82-.5l1.36-1.24a2.5,2.5,0,0,0,.48-.55l1.07-1.63a3,3,0,0,0,.34-.78l.49-1.8A2.58,2.58,0,0,0,388,179l-.08-1.81A2.49,2.49,0,0,0,387.82,176.46Z"/></g></svg>