<svg xmlns="http://www.w3.org/2000/svg" viewBox="0 0 480 320"><defs><style>.cls-1{fill:#000;}</style></defs><g id="Artwork"><path class="cls-1" d="M462.32,144a12,12,0,0,0-9.4-2.93l-6.68.81L314,88.48,19.47,118.1a6.35,6.35,0,0,0-5.83,6.36v32.89A8.9,8.9,0,0,0,20,165.9l102.66,57.76a11.91,11.91,0,0,0,11.21,7.78,12.58,12.58,0,0,0,1.73-.12l320.53-46.45A12.07,12.07,0,0,0,466.36,173V153A12,12,0,0,0,462.32,144Zm-32.5-.13-286,34.67L32.22,124.86,312.8,96.64ZM22.38,158.28a1,1,0,0,1-.74-.93V128.64l108,52a12,12,0,0,0-7.8,11.23V214L22.94,158.41Zm210.24,50.89,57.26-13.71a251.27,251.27,0,0,1,55.23-6.86l32.24-.41ZM458.36,173a4,4,0,0,1-3.43,4l-54.91,8-54.94.69a253.68,253.68,0,0,0-55.9,7l-86.55,20.71.06.24-68.29,9.9a4,4,0,0,1-4.57-4V191.88a4,4,0,0,1,3.52-4l311.81-37.8.1,0,0-.05,8.6-1a4.19,4.19,0,0,1,.5,0,4,4,0,0,1,4,4Z"/><path class="cls-1" d="M178.23,189.32a1.74,1.74,0,0,0-1.57,1.68v4.15a1.38,1.38,0,0,0,1.57,1.38,1.73,1.73,0,0,0,1.57-1.68V190.7A1.41,1.41,0,0,0,178.23,189.32Z"/><path class="cls-1" d="M166.19,190.67l-2.89.27a1.4,1.4,0,0,0-1.25,1.34l0,14.18a1.1,1.1,0,0,0,1.25,1.1l2.9-.28a1.37,1.37,0,0,0,1.24-1.33l0-14.19A1.11,1.11,0,0,0,166.19,190.67Z"/></g></svg>