<svg xmlns="http://www.w3.org/2000/svg" viewBox="0 0 480 320"><defs><style>.cls-1{fill:#000;}</style></defs><g id="Layer_1" data-name="Layer 1"><path class="cls-1" d="M291.83,97.05,194,104V28.05a4.38,4.38,0,0,0-4.37-4.37h-.37a4.31,4.31,0,0,0-2.43.75,4.37,4.37,0,0,0-1.94,3.62v76.59l-127.35,9V241.09l97.17,55a18.34,18.34,0,0,0,11.93,3.94c.65,0,1.33,0,2-.09,7.41-.62,231.58-24.8,245.42-26.29a7.9,7.9,0,0,0,5.46-1.87c1.3-1.12,2.85-3.28,2.85-7.16V126.47Zm122.6,140.86-246,27.21V244.23l246-27.21Zm0-28.94-246,27.21V156.57l246-22.52ZM392.8,128,164.93,148.86,81.37,120l209.85-14.9ZM159.52,289.65l-94-53.22V123l94.87,32.76V290.42a4.39,4.39,0,0,1-.53-.39Zm254.82-24-.72.08c-2.36.25-232.19,25-245.18,26.27v-18.8l246-27.21v18.7A4,4,0,0,1,414.34,265.62Z"/><ellipse class="cls-1" cx="291.89" cy="241.1" rx="4" ry="4.39"/></g></svg>