<svg xmlns="http://www.w3.org/2000/svg" viewBox="0 0 480 320"><defs><style>.cls-1,.cls-2{fill:#000;}.cls-1{fill-rule:evenodd;}</style></defs><g id="Layer_1" data-name="Layer 1"><path class="cls-1" d="M459.13,131.88l-2.71-.36c-.82-.12-18.11-2.41-30.36-1.76L325,91.4V84l-2.61-.44c-16.53-2.75-23.64-1.35-26.44,1.07h-3.75l-7-1.12L255.6,85.14l-7.5-1.66L184.31,87.7V55.93a3.57,3.57,0,0,0-3.56-3.56h-.17A3.56,3.56,0,0,0,177,55.93V88.18l-76.47,5.06-7.21,3.05-34,2.49L50.18,102l-1.55-.15c-5.38-3-18.14.42-25.6,2.84l-2.16.7v59.43h6.51l20.08,52.87.51,36,2.22.65a74.54,74.54,0,0,0,10.67,2.09l2.63,6.51a7.47,7.47,0,0,0,7,4.71H72a7.48,7.48,0,0,0,7.19-5.32l.57-1.88c2.95.16,6.55.27,10.9.27,16,0,41.84-1.48,80.93-7.51l1.6-.25,1.08-2.17L378.14,224.5l3.52,1.62.8-.06c4.1-.3,30.24-2.32,50.3-6.89l.29,1.13a7,7,0,0,0,6.57,5.45h1.31a6.91,6.91,0,0,0,6.4-4.86l2.46-7.19a21.06,21.06,0,0,0,4-2.47l1.15-.93v-3.46l4.22-3.8Zm-26.05,80.79c-15.16,3.57-35.94,5.9-47.72,6.89l-.05-65.37c31.26-1.15,54.3-7.1,63.35-9.81v62.84a25.17,25.17,0,0,1-3.38,1.72ZM291.42,90.82l4.78,0c2.5,2,9.11,5.5,25,5.82l97.16,36.87a5.28,5.28,0,0,0-.11,2.26,7.2,7.2,0,0,0,2.48,4.14l-43.13,4.13L267.56,90.74l17.27-1Zm-37.12.44,111.34,54L168.33,164.1,104.94,99.22l142.68-9.44ZM60.66,105l34.18-2.5L98,101.1l62.3,63.77-70.88,6.79c-1.43-5.84-6.84-7.66-9.09-8.4l-.9-.3-.72.09c-11.73,1.58-20.26,3.49-25.46,5.7L33.35,120.47l16-6.56.48-.54a11.47,11.47,0,0,0,2.83-5.62Zm-28,56.18-.17-26.36L48,172.27a4.48,4.48,0,0,0-1.12,3.27l.34,23.87Zm21.5,87.75-1-71.2c2.53.88,6.6,1.54,13.53,1.59v71.36c-1,0-2.07-.13-3.06-.22l-5.78-1.5.31.76C56.55,249.4,55.19,249.12,54.16,248.88Zm23.67,5.22-4.91-1.28V180.4A157.79,157.79,0,0,0,94,181.53c15.33,0,38.86-1.27,73.65-5.89l.33,71.77C121.54,254.44,92,255.07,77.83,254.1Zm96.39-9.63-.33-69.95,205.17-19.46.05,63Z"/><path class="cls-1" d="M177.11,124.37l23.79,19.8a11.58,11.58,0,0,0,7.41,2.67c.34,0,.68,0,1,0l89.11-8.14a3.29,3.29,0,0,0,1.2-6.19L262,112.7a7.28,7.28,0,0,0-4.33-1l-78.72,6.83a3.3,3.3,0,0,0-1.83,5.81ZM258.2,118a1,1,0,0,1,.65.15l29,15.24-79.1,7.22a5.32,5.32,0,0,1-3.87-1.2l-18.26-15.2Z"/><path class="cls-1" d="M337.21,196.74,220.52,210.08a2.21,2.21,0,0,0-2.07,2.08v15.92a2.25,2.25,0,0,0,2.67,2l116.56-14.93a1.87,1.87,0,0,0,1.63-1.85V198.61A1.9,1.9,0,0,0,337.21,196.74Z"/><path class="cls-1" d="M278.88,187.7a2,2,0,1,0-1.83-2A1.92,1.92,0,0,0,278.88,187.7Z"/><ellipse class="cls-2" cx="202.61" cy="215.77" rx="2.95" ry="3.16"/><ellipse class="cls-2" cx="187.07" cy="217.48" rx="2.95" ry="3.16"/><ellipse class="cls-2" cx="202.61" cy="227.52" rx="2.95" ry="3.16"/><ellipse class="cls-2" cx="187.29" cy="229.48" rx="2.95" ry="3.16"/><ellipse class="cls-2" cx="354.48" cy="198.46" rx="2.95" ry="3.22"/><ellipse class="cls-2" cx="354.48" cy="209.37" rx="2.95" ry="3.16"/><ellipse class="cls-2" cx="368.14" cy="196.7" rx="2.95" ry="3.16"/><ellipse class="cls-2" cx="368.14" cy="207.49" rx="2.95" ry="3.16"/></g></svg>