<svg id="Artwork" xmlns="http://www.w3.org/2000/svg" viewBox="0 0 480 320"><defs><style>.cls-1{fill:#000;fill-rule:evenodd;}</style></defs><path class="cls-1" d="M441.4,142.5A11.81,11.81,0,0,0,433,131.35L313.56,94.73l-86.3,5.35V70.27a2.12,2.12,0,0,0-2.12-2.12H225a2.13,2.13,0,0,0-2.12,2.12v30.08L48.3,111.17a11.32,11.32,0,0,0-10.61,11.28v44.71a18.44,18.44,0,0,0,1.81,7.92l27.31,64.81a19.26,19.26,0,0,0,17.11,11.73c4.2.13,9.4.23,15.39.23a511.26,511.26,0,0,0,76.5-5.59l2.05-.31,1-2,190.23-24.52,3.27,1.51,1-.07c5.64-.41,55.37-4.27,67.43-14.14l1.5-1.22Zm-21.67-6.86-9.67,1L305.34,103.25l7.27-.45Zm-249.32,25.2L95.92,168,61.69,118.35l222-13.76-.05.16,106.38,33.89Zm-88.16,8.44L49.34,119.12l3-.19L86.8,168.85Zm-35.42,2.6-.09-.21a10.26,10.26,0,0,1-1.05-4.51v-39l30.54,46.55V240a11.09,11.09,0,0,1-2-3.18Zm37.4,71.74V177.13l85-8.14,1.65,1.77.31,68.1A515.48,515.48,0,0,1,84.23,243.62Zm94.94-7.8-.29-63.38,190.17-18,0,56.95Zm197.92-23.29L377,148l32.18-3.25.18.06,0-.08,23.95-2.42a3.16,3.16,0,0,1,0,.32l.85,58.91C425,206.84,396.48,210.87,377.09,212.53Z"/><path id="Fill-16" class="cls-1" d="M282.24,174.5a3.74,3.74,0,1,1-3.73-4.09,3.92,3.92,0,0,1,3.73,4.09"/><path id="Fill-18" class="cls-1" d="M221.54,201.21a4.28,4.28,0,1,1-4.27-4.57,4.42,4.42,0,0,1,4.27,4.57"/><path id="Fill-20" class="cls-1" d="M205,202.68a4.27,4.27,0,1,1-4.26-4.57,4.41,4.41,0,0,1,4.26,4.57"/><path id="Fill-22" class="cls-1" d="M221.54,214.2a4.27,4.27,0,1,1-4.27-4.56,4.43,4.43,0,0,1,4.27,4.56"/><path id="Fill-24" class="cls-1" d="M205.27,216a4.27,4.27,0,1,1-4.26-4.57,4.42,4.42,0,0,1,4.26,4.57"/><path id="Fill-32" class="cls-1" d="M240.23,215.33l76.87-9.61a3.27,3.27,0,0,0,2.77-3.29V183.9a3,3,0,0,0-3.29-3.13l-76.88,8.38a3.28,3.28,0,0,0-2.84,3.3V212.2a3,3,0,0,0,3.37,3.13"/><path id="Fill-34" class="cls-1" d="M221.54,186.91a4.28,4.28,0,1,1-4.27-4.66,4.47,4.47,0,0,1,4.27,4.66"/><path id="Fill-40" class="cls-1" d="M343,164.25a2.58,2.58,0,1,1-2.57-2.81,2.7,2.7,0,0,1,2.57,2.81"/><path id="Fill-42" class="cls-1" d="M343,172.18a2.58,2.58,0,1,1-2.57-2.82,2.7,2.7,0,0,1,2.57,2.82"/><path id="Fill-44" class="cls-1" d="M343,180.11a2.58,2.58,0,1,1-2.57-2.82,2.7,2.7,0,0,1,2.57,2.82"/><path id="Fill-46" class="cls-1" d="M343,188a2.58,2.58,0,1,1-2.57-2.81A2.7,2.7,0,0,1,343,188"/><path id="Fill-48" class="cls-1" d="M343,196a2.58,2.58,0,1,1-2.57-2.82A2.7,2.7,0,0,1,343,196"/><path id="Fill-50" class="cls-1" d="M343,207.69a2.58,2.58,0,1,1-2.57-2.82,2.7,2.7,0,0,1,2.57,2.82"/><path id="Fill-52" class="cls-1" d="M205,188.82a4.28,4.28,0,1,1-4.26-4.65,4.47,4.47,0,0,1,4.26,4.65"/></svg>