<svg id="Artwork" xmlns="http://www.w3.org/2000/svg" viewBox="0 0 480 320"><defs><style>.cls-1,.cls-2{fill:#000;}.cls-1{fill-rule:evenodd;}</style></defs><g id="Page-1"><g id="SVGS"><g id="signal_path_moon_390_icon" data-name="signal path moon 390 icon"><path id="Fill-23" class="cls-1" d="M346.51,171.44a3.28,3.28,0,1,1-3.27-3.57,3.43,3.43,0,0,1,3.27,3.57"/><path id="Fill-25" class="cls-1" d="M346.51,183.94a3.28,3.28,0,1,1-3.27-3.5,3.39,3.39,0,0,1,3.27,3.5"/><path id="Fill-39" class="cls-1" d="M355.66,198.5a5.16,5.16,0,1,1-5.15-5.57,5.38,5.38,0,0,1,5.15,5.57"/><path id="Fill-51" class="cls-1" d="M360.5,169.93a3.28,3.28,0,1,1-3.27-3.58,3.43,3.43,0,0,1,3.27,3.58"/><path id="Fill-53" class="cls-1" d="M360.5,182.43a3.28,3.28,0,1,1-3.27-3.5,3.39,3.39,0,0,1,3.27,3.5"/><path id="Fill-55" class="cls-1" d="M332.4,172.9a3.28,3.28,0,1,1-3.27-3.57,3.43,3.43,0,0,1,3.27,3.57"/></g></g></g><path id="Fill-16" class="cls-1" d="M282.24,174.5a3.74,3.74,0,1,1-3.73-4.09,3.92,3.92,0,0,1,3.73,4.09"/><path id="Fill-18" class="cls-1" d="M221.54,201.21a4.28,4.28,0,1,1-4.27-4.57,4.42,4.42,0,0,1,4.27,4.57"/><path id="Fill-20" class="cls-1" d="M205,202.68a4.27,4.27,0,1,1-4.26-4.57,4.41,4.41,0,0,1,4.26,4.57"/><path id="Fill-22" class="cls-1" d="M221.54,214.2a4.27,4.27,0,1,1-4.27-4.56,4.43,4.43,0,0,1,4.27,4.56"/><path id="Fill-24" class="cls-1" d="M205.27,216a4.27,4.27,0,1,1-4.26-4.57,4.42,4.42,0,0,1,4.26,4.57"/><path id="Fill-32" class="cls-1" d="M240.23,215.33l76.87-9.61a3.27,3.27,0,0,0,2.77-3.29V183.9a3,3,0,0,0-3.29-3.13l-76.88,8.38a3.28,3.28,0,0,0-2.84,3.3V212.2a3,3,0,0,0,3.37,3.13"/><path id="Fill-34" class="cls-1" d="M221.54,186.91a4.28,4.28,0,1,1-4.27-4.66,4.47,4.47,0,0,1,4.27,4.66"/><path id="Fill-52" class="cls-1" d="M205,188.82a4.28,4.28,0,1,1-4.26-4.65,4.47,4.47,0,0,1,4.26,4.65"/><path class="cls-2" d="M441.4,142.5A11.81,11.81,0,0,0,433,131.35L313.56,94.73l-86.3,5.35V70.27a2.12,2.12,0,0,0-2.12-2.12H225a2.13,2.13,0,0,0-2.12,2.12v30.08L48.3,111.17a11.32,11.32,0,0,0-10.61,11.28v44.71a18.44,18.44,0,0,0,1.81,7.92l27.31,64.81a19.26,19.26,0,0,0,17.11,11.73c4.2.13,9.4.23,15.39.23a511.26,511.26,0,0,0,76.5-5.59l2.05-.31,1-2,190.23-24.52,3.27,1.51,1-.07c5.64-.41,55.37-4.27,67.43-14.14l1.5-1.22ZM312.61,102.8l107.12,32.84-9.67,1L305.34,103.25ZM76.23,240a11.09,11.09,0,0,1-2-3.18l-27.36-64.9-.09-.21a10.26,10.26,0,0,1-1.05-4.51v-39l30.54,46.55Zm6-70.68L49.34,119.12l3-.19L86.8,168.85Zm2,74.34V177.13l85-8.14,1.65,1.77.31,68.1A515.48,515.48,0,0,1,84.23,243.62Zm86.18-82.78L95.92,168,61.69,118.35l222-13.76-.05.16,106.38,33.89Zm8.76,75-.29-63.38,190.17-18,0,56.95Zm197.92-23.29V197a26.81,26.81,0,0,0,19.26,8.15,28,28,0,0,0,4-.29,26.84,26.84,0,0,0,17.53-10.21,25.6,25.6,0,0,0-5.31-36.5,27.16,27.16,0,0,0-35.46,3.32V148l32.18-3.25.18.06,0-.08,23.95-2.42a3.16,3.16,0,0,1,0,.32l.85,58.91C425,206.84,396.48,210.87,377.09,212.53Zm4.52-44.07A18.88,18.88,0,0,1,394,161.29a19.12,19.12,0,0,1,2.82-.21,18.75,18.75,0,0,1,11.05,3.57,17.57,17.57,0,0,1,3.65,25.14A18.84,18.84,0,0,1,399.13,197c-10.17,1.49-19.63-5.31-21.06-15.15A17.57,17.57,0,0,1,381.61,168.46Z"/></svg>