<svg id="Artwork" xmlns="http://www.w3.org/2000/svg" viewBox="0 0 480 320"><defs><style>.cls-1,.cls-3{fill:#000;}.cls-1{fill-rule:evenodd;}.cls-2{fill:none;}</style></defs><path class="cls-1" d="M441.4,142.5A11.81,11.81,0,0,0,433,131.35L313.56,94.73l-86.3,5.35V70.27a2.12,2.12,0,0,0-2.12-2.12H225a2.13,2.13,0,0,0-2.12,2.12v30.08L48.3,111.17a11.32,11.32,0,0,0-10.61,11.28v44.71a18.44,18.44,0,0,0,1.81,7.92l27.31,64.81a19.26,19.26,0,0,0,17.11,11.73c4.2.13,9.4.23,15.39.23a511.26,511.26,0,0,0,76.5-5.59l2.05-.31,1-2,190.23-24.52,3.27,1.51,1-.07c5.64-.41,55.37-4.27,67.43-14.14l1.5-1.22Zm-21.67-6.86-9.67,1L305.34,103.25l7.27-.45Zm-249.32,25.2L95.92,168,61.69,118.35l222-13.76-.05.16,106.38,33.89Zm-88.16,8.44L49.34,119.12l3-.19L86.8,168.85Zm-35.42,2.6-.09-.21a10.26,10.26,0,0,1-1.05-4.51v-39l30.54,46.55V240a11.09,11.09,0,0,1-2-3.18Zm37.4,71.74V177.13l85-8.14,1.65,1.77.31,68.1A515.48,515.48,0,0,1,84.23,243.62Zm94.94-7.8-.29-63.38,190.17-18,0,56.95Zm197.92-23.29L377,148l32.18-3.25.18.06,0-.08,23.95-2.42a3.16,3.16,0,0,1,0,.32l.85,58.91C425,206.84,396.48,210.87,377.09,212.53Z"/><g id="Fill-16"><path class="cls-1" d="M278.76,174.89a3.84,3.84,0,1,1-3.82-4.19,4,4,0,0,1,3.82,4.19"/></g><g id="Fill-18"><path class="cls-1" d="M222.7,199.81a4.89,4.89,0,1,1-4.87-5.23,5.06,5.06,0,0,1,4.87,5.23"/></g><g id="Fill-20"><path class="cls-1" d="M201,202.63a4.89,4.89,0,1,1-4.88-5.22,5.07,5.07,0,0,1,4.88,5.22"/></g><g id="Fill-22"><path class="cls-1" d="M222.7,215.25a4.89,4.89,0,1,1-4.87-5.22,5.06,5.06,0,0,1,4.87,5.22"/></g><g id="Fill-24"><path class="cls-1" d="M201.35,218.5a4.89,4.89,0,1,1-4.88-5.23,5.06,5.06,0,0,1,4.88,5.23"/></g><g id="Fill-26"><path class="cls-1" d="M336.92,170.7a4.18,4.18,0,1,1-4.16-4.55,4.37,4.37,0,0,1,4.16,4.55"/></g><g id="Fill-28"><path class="cls-1" d="M336.92,186.61a4.17,4.17,0,1,1-4.16-4.45,4.32,4.32,0,0,1,4.16,4.45"/></g><g id="Fill-36"><path class="cls-2" d="M416.71,175.62c1.81,12.45-7.11,24-19.92,25.91s-24.65-6.71-26.47-19.16,7.11-24,19.92-25.9,24.66,6.71,26.47,19.15"/></g><g id="Stroke-38"><path class="cls-3" d="M393.27,205.79a27.5,27.5,0,0,1-16.18-5.23A26.33,26.33,0,0,1,371.63,163a27.93,27.93,0,0,1,38.31-5.57,26.31,26.31,0,0,1,10.73,17.61h0c2.12,14.61-8.33,28.26-23.3,30.44A28.38,28.38,0,0,1,393.27,205.79Zm.48-45.58A20.11,20.11,0,0,0,378,167.89a18.31,18.31,0,0,0,3.81,26.19,19.63,19.63,0,0,0,14.44,3.49c10.6-1.54,18-11.13,16.53-21.37a18.33,18.33,0,0,0-7.5-12.28A19.55,19.55,0,0,0,393.75,160.21Z"/></g><g id="Fill-40"><path class="cls-1" d="M237.5,215.68l75.17-9.41a3.2,3.2,0,0,0,2.72-3.21V184.94a3,3,0,0,0-3.23-3.06L237,190.07a3.21,3.21,0,0,0-2.78,3.23v19.32a3,3,0,0,0,3.29,3.06"/></g><g id="Fill-42"><path class="cls-1" d="M357,199.87a6.57,6.57,0,1,1-6.55-7.09,6.83,6.83,0,0,1,6.55,7.09"/></g><g id="Fill-44"><path class="cls-1" d="M211.84,184.76a4.89,4.89,0,1,1-4.87-5.33,5.12,5.12,0,0,1,4.87,5.33"/></g><g id="Stroke-52"><path class="cls-3" d="M396.21,206.92A27.47,27.47,0,0,1,380,201.69a26.29,26.29,0,0,1-5.46-37.54,27.92,27.92,0,0,1,38.31-5.58,26.33,26.33,0,0,1,5.46,37.55,27.6,27.6,0,0,1-18,10.5A28.52,28.52,0,0,1,396.21,206.92Zm.49-45.57a21,21,0,0,0-2.94.21A19.64,19.64,0,0,0,380.92,169a18.31,18.31,0,0,0,3.81,26.19,19.91,19.91,0,0,0,27.28-4,18.31,18.31,0,0,0-3.81-26.19A19.54,19.54,0,0,0,396.7,161.35Z"/></g></svg>