<svg id="Artwork" xmlns="http://www.w3.org/2000/svg" viewBox="0 0 480 320"><defs><style>.cls-1,.cls-2{fill:#000;}.cls-1{fill-rule:evenodd;}</style></defs><path class="cls-1" d="M441.4,142.5A11.81,11.81,0,0,0,433,131.35L313.56,94.73l-86.3,5.35V70.27a2.12,2.12,0,0,0-2.12-2.12H225a2.13,2.13,0,0,0-2.12,2.12v30.08L48.3,111.17a11.32,11.32,0,0,0-10.61,11.28v44.71a18.44,18.44,0,0,0,1.81,7.92l27.31,64.81a19.26,19.26,0,0,0,17.11,11.73c4.2.13,9.4.23,15.39.23a511.26,511.26,0,0,0,76.5-5.59l2.05-.31,1-2,190.23-24.52,3.27,1.51,1-.07c5.64-.41,55.37-4.27,67.43-14.14l1.5-1.22Zm-21.67-6.86-9.67,1L305.34,103.25l7.27-.45Zm-249.32,25.2L95.92,168,61.69,118.35l222-13.76-.05.16,106.38,33.89Zm-88.16,8.44L49.34,119.12l3-.19L86.8,168.85Zm-35.42,2.6-.09-.21a10.26,10.26,0,0,1-1.05-4.51v-39l30.54,46.55V240a11.09,11.09,0,0,1-2-3.18Zm37.4,71.74V177.13l85-8.14,1.65,1.77.31,68.1A515.48,515.48,0,0,1,84.23,243.62Zm94.94-7.8-.29-63.38,190.17-18,0,56.95Zm197.92-23.29L377,148l32.18-3.25.18.06,0-.08,23.95-2.42a3.16,3.16,0,0,1,0,.32l.85,58.91C425,206.84,396.48,210.87,377.09,212.53Z"/><path class="cls-1" d="M279.69,182.27a4.73,4.73,0,1,0-4.29-4.7A4.51,4.51,0,0,0,279.69,182.27Z"/><ellipse class="cls-2" cx="279.69" cy="203.12" rx="6.92" ry="7.42"/><path class="cls-1" d="M229.74,180.37a3.4,3.4,0,1,0,3.09,3.39A3.25,3.25,0,0,0,229.74,180.37Z"/><ellipse class="cls-2" cx="229.74" cy="193.29" rx="3.09" ry="3.39"/><ellipse class="cls-2" cx="229.74" cy="202.81" rx="3.09" ry="3.39"/><ellipse class="cls-2" cx="229.74" cy="212.34" rx="3.09" ry="3.39"/><path class="cls-1" d="M238.56,179a3.4,3.4,0,1,0,3.09,3.39A3.25,3.25,0,0,0,238.56,179Z"/><path class="cls-1" d="M238.56,188.52a3.4,3.4,0,1,0,3.09,3.39A3.25,3.25,0,0,0,238.56,188.52Z"/><path class="cls-1" d="M238.56,198.05a3.4,3.4,0,1,0,3.09,3.39A3.25,3.25,0,0,0,238.56,198.05Z"/><path class="cls-1" d="M238.56,207.58a3.4,3.4,0,1,0,3.09,3.39A3.24,3.24,0,0,0,238.56,207.58Z"/><path class="cls-1" d="M315,170.79a3.4,3.4,0,1,0,3.09,3.39A3.25,3.25,0,0,0,315,170.79Z"/><path class="cls-1" d="M315,180.32a3.4,3.4,0,1,0,3.09,3.39A3.25,3.25,0,0,0,315,180.32Z"/><path class="cls-1" d="M315,189.85a3.4,3.4,0,1,0,3.09,3.39A3.25,3.25,0,0,0,315,189.85Z"/><path class="cls-1" d="M315,199.38a3.4,3.4,0,1,0,3.09,3.39A3.24,3.24,0,0,0,315,199.38Z"/><ellipse class="cls-2" cx="323.86" cy="172.8" rx="3.09" ry="3.39"/><ellipse class="cls-2" cx="323.86" cy="182.33" rx="3.09" ry="3.39"/><path class="cls-1" d="M323.86,188.47a3.4,3.4,0,1,0,3.09,3.39A3.25,3.25,0,0,0,323.86,188.47Z"/><path class="cls-1" d="M323.86,198a3.4,3.4,0,1,0,3.09,3.39A3.25,3.25,0,0,0,323.86,198Z"/><path class="cls-1" d="M355.51,176.8a3.4,3.4,0,1,0-3.09-3.38A3.24,3.24,0,0,0,355.51,176.8Z"/><path class="cls-1" d="M355.51,179.56a3.4,3.4,0,1,0,3.09,3.38A3.24,3.24,0,0,0,355.51,179.56Z"/><path class="cls-1" d="M355.51,189.09a3.4,3.4,0,1,0,3.09,3.38A3.24,3.24,0,0,0,355.51,189.09Z"/><ellipse class="cls-2" cx="194.84" cy="203.49" rx="4.98" ry="5.34"/><ellipse class="cls-2" cx="195.21" cy="223.78" rx="4.98" ry="5.34"/><ellipse class="cls-2" cx="194.84" cy="182.62" rx="4.98" ry="5.44"/></svg>