<svg xmlns="http://www.w3.org/2000/svg" viewBox="0 0 480 320"><defs><style>.cls-1{fill:#000;}</style></defs><g id="Layer_1" data-name="Layer 1"><path class="cls-1" d="M441.37,161.67a9.34,9.34,0,0,0-2.46-6.63c-2.23-2.39-5.62-3.52-10.09-3.4l-2,.14L252.37,81l-90.9,4.93V28.41a5,5,0,0,0-5-5h-.28a5,5,0,0,0-5,5V86.16c0,.1,0,.19,0,.28L38.89,92.53v91.56l126,107.62c1.08,1.27,5.32,5.81,10.32,5.94.82.08,3.7.33,10.05.33,21.87,0,84.86-2.87,246.55-24.82l.17,0a11.65,11.65,0,0,0,9.4-11.26C441.55,255.21,441.38,166.72,441.37,161.67Zm-30.25-8.76L173.64,170a10.76,10.76,0,0,0-5.81,2L52.24,98.77,251.19,88Zm2.25,6.81c-44.88,12.4-92.81,19-142.79,19.75a624.73,624.73,0,0,1-78.84-3.84ZM162.63,280.66,45.84,180.89V103L163.71,177.6a19,19,0,0,0-1.05,6.22C162.5,192.71,162.59,258,162.63,280.66Zm271.79-19a4.69,4.69,0,0,1-3.68,4.6c-212.17,28.79-254.52,24.48-254.91,24.43l-.42,0c-1.63,0-4.17-2.17-5.37-3.63l-.2-.25-.25-.22c0-12.42-.15-92.94,0-102.66a12.18,12.18,0,0,1,.64-4c1.24.14,3,.37,4.82.61a632.56,632.56,0,0,0,86.49,5.93c3,0,6,0,9.12-.07,57.73-.82,112.79-9.47,163.66-25.69a1.94,1.94,0,0,1,.09.52l0,.07v.26C434.42,162.52,434.6,255.07,434.42,261.69Z"/><path class="cls-1" d="M312.85,230.22a3.32,3.32,0,1,0-3-3.31A3.17,3.17,0,0,0,312.85,230.22Z"/><ellipse class="cls-1" cx="254.42" cy="265.74" rx="4.87" ry="5.21"/><path class="cls-1" d="M312.85,256.13a5.23,5.23,0,1,0,4.86,5.21A5.05,5.05,0,0,0,312.85,256.13Z"/><ellipse class="cls-1" cx="226.01" cy="267.88" rx="4.87" ry="5.21"/><path class="cls-1" d="M201.57,261.43c-4.23,0-7.66,3.71-7.66,8.29s3.43,8.29,7.66,8.29,7.66-3.71,7.66-8.29S205.8,261.43,201.57,261.43Z"/><path class="cls-1" d="M219.7,208.66a3.32,3.32,0,1,0-3-3.31A3.16,3.16,0,0,0,219.7,208.66Z"/><path class="cls-1" d="M219.7,217.7a3.32,3.32,0,1,0-3-3.31A3.16,3.16,0,0,0,219.7,217.7Z"/><path class="cls-1" d="M219.7,227.32a3.32,3.32,0,1,0-3-3.31A3.16,3.16,0,0,0,219.7,227.32Z"/><path class="cls-1" d="M222.71,233.63a3,3,0,1,0-3,3.31A3.16,3.16,0,0,0,222.71,233.63Z"/><path class="cls-1" d="M204.59,208.66a3.32,3.32,0,1,0-3-3.31A3.17,3.17,0,0,0,204.59,208.66Z"/><path class="cls-1" d="M204.59,217.7a3.32,3.32,0,1,0-3-3.31A3.17,3.17,0,0,0,204.59,217.7Z"/></g></svg>