<svg xmlns="http://www.w3.org/2000/svg" viewBox="0 0 480 320"><defs><style>.cls-1,.cls-2{fill:#000;}.cls-1{fill-rule:evenodd;}</style></defs><g id="Layer_1" data-name="Layer 1"><path class="cls-1" d="M459.13,132.54l-2.71-.37c-.82-.11-18.11-2.4-30.36-1.75L325,92.05V84.64l-2.61-.44c-16.53-2.76-23.64-1.35-26.44,1.06h-3.75l-7-1.12L255.6,85.8l-7.5-1.67-63.79,4.22V56.58A3.56,3.56,0,0,0,180.75,53h-.17A3.55,3.55,0,0,0,177,56.58V88.84L100.56,93.9l-7.21,3-34,2.49-9.19,3.23-1.55-.14c-5.38-3-18.14.42-25.6,2.84l-2.16.7V165.5h6.51l20.08,52.87L48,254.32l2.22.65a71.42,71.42,0,0,0,10.67,2.09l2.63,6.52a7.47,7.47,0,0,0,7,4.71H72A7.47,7.47,0,0,0,79.19,263l.57-1.87c2.95.16,6.55.27,10.9.27,16,0,41.84-1.48,80.93-7.52l1.6-.24,1.08-2.18,203.87-26.27,3.52,1.63.8-.06c4.1-.3,30.24-2.32,50.3-6.89l.29,1.12a7,7,0,0,0,6.57,5.46h1.31a6.91,6.91,0,0,0,6.4-4.87l2.46-7.19a21.58,21.58,0,0,0,4-2.46l1.15-.94V207.5l4.22-3.8Zm-26.05,80.79c-15.16,3.57-35.94,5.9-47.72,6.89l-.05-65.37c31.26-1.15,54.3-7.1,63.35-9.81v62.83a23,23,0,0,1-3.38,1.72ZM291.42,91.48l4.78,0c2.5,2,9.11,5.49,25,5.82l97.16,36.87a5.28,5.28,0,0,0-.11,2.26,7.23,7.23,0,0,0,2.48,4.14l-43.13,4.13L267.56,91.39l17.27-1Zm-37.12.44,111.34,53.94-197.31,18.9L104.94,99.87l142.68-9.44ZM60.66,105.61l34.18-2.5,3.2-1.36,62.3,63.77-70.88,6.79c-1.43-5.84-6.84-7.65-9.09-8.39l-.9-.31-.72.1c-11.73,1.58-20.26,3.49-25.46,5.7L33.35,121.13l16-6.57.48-.54a11.38,11.38,0,0,0,2.83-5.61Zm-28,56.17-.17-26.35L48,172.93a4.47,4.47,0,0,0-1.12,3.27l.34,23.87Zm21.5,87.75-1-71.19c2.53.87,6.6,1.53,13.53,1.59v71.35c-1-.05-2.07-.12-3.06-.22l-5.78-1.49.31.76C56.55,250.06,55.19,249.77,54.16,249.53Zm23.67,5.22-4.91-1.27V181.06A158.36,158.36,0,0,0,94,182.18c15.33,0,38.86-1.26,73.65-5.88l.33,71.77C121.54,255.09,92,255.73,77.83,254.75Zm96.39-9.62-.33-70,205.17-19.46.05,63Z"/><path class="cls-1" d="M177.11,125l23.79,19.8a11.63,11.63,0,0,0,7.41,2.67,8.71,8.71,0,0,0,1-.05l89.11-8.13a3.29,3.29,0,0,0,1.2-6.19L262,113.36a7.28,7.28,0,0,0-4.33-1l-78.72,6.83a3.3,3.3,0,0,0-1.83,5.82Zm81.09-6.42a1.05,1.05,0,0,1,.65.16l29,15.24-79.1,7.22A5.28,5.28,0,0,1,204.9,140l-18.26-15.2Z"/><path class="cls-1" d="M337.21,197.39,220.52,210.74a2.2,2.2,0,0,0-2.07,2.08v15.91a2.24,2.24,0,0,0,2.67,2l116.56-14.92a1.87,1.87,0,0,0,1.63-1.85V199.27A1.9,1.9,0,0,0,337.21,197.39Z"/><path class="cls-1" d="M278.88,188.36a2,2,0,1,0-1.83-2A1.92,1.92,0,0,0,278.88,188.36Z"/><ellipse class="cls-2" cx="202.61" cy="216.43" rx="2.95" ry="3.16"/><ellipse class="cls-2" cx="187.07" cy="218.13" rx="2.95" ry="3.16"/><ellipse class="cls-2" cx="202.61" cy="228.17" rx="2.95" ry="3.16"/><ellipse class="cls-2" cx="187.29" cy="230.13" rx="2.95" ry="3.16"/><ellipse class="cls-2" cx="354.48" cy="199.12" rx="2.95" ry="3.22"/><ellipse class="cls-2" cx="354.48" cy="210.03" rx="2.95" ry="3.16"/><ellipse class="cls-2" cx="368.14" cy="197.36" rx="2.95" ry="3.16"/><ellipse class="cls-2" cx="368.14" cy="208.14" rx="2.95" ry="3.16"/></g></svg>