<svg id="Artwork" xmlns="http://www.w3.org/2000/svg" viewBox="0 0 480 320"><defs><style>.cls-1{fill:#000;}</style></defs><ellipse class="cls-1" cx="341.85" cy="211.24" rx="6.16" ry="4.78" transform="translate(52.66 490.26) rotate(-75.69)"/><ellipse class="cls-1" cx="342.54" cy="197.75" rx="6.16" ry="4.78" transform="translate(66.25 480.77) rotate(-75.69)"/><ellipse class="cls-1" cx="342.96" cy="187.39" rx="3" ry="2.33" transform="translate(76.61 473.38) rotate(-75.69)"/><polygon class="cls-1" points="319.53 156.4 320.07 157.83 320.84 159 321.81 159.86 322.92 160.39 324.15 160.55 325.44 160.36 364.2 149.3 365.38 148.79 366.55 147.97 367.64 146.86 368.62 145.51 369.45 143.97 370.1 142.3 370.55 140.55 370.78 138.81 371.65 125.54 371.65 123.84 371.42 122.25 370.96 120.85 370.3 119.68 369.46 118.8 368.46 118.23 367.35 118 366.17 118.13 327.05 127.82 325.72 128.33 324.43 129.18 323.22 130.34 322.14 131.77 321.23 133.41 320.52 135.21 320.06 137.07 319.83 138.95 319.18 152.99 319.22 154.77 319.53 156.4"/><path class="cls-1" d="M462.42,84.84a3.3,3.3,0,0,0-.13-.64l-.1-.34a3.4,3.4,0,0,0-.86-1.45l-.33-.33a3,3,0,0,0-.71-.57l-.58-.34a3.49,3.49,0,0,0-.44-.24l-.87-.37-1.2-.41-1.52-.35L300.18,44.57a39.65,39.65,0,0,0-10.65-.64c-13.63.92-28,2.55-42.78,4.83L73.6,76.5A502.52,502.52,0,0,0,23.24,87.05l-1.54.44-.16.14-.82.38a3.67,3.67,0,0,0-.48.25l-.63.4a3.58,3.58,0,0,0-.73.62l-.35.4a3.58,3.58,0,0,0-.82,1.58l-.05.25a3.54,3.54,0,0,0-.09.59c0,.1,0,.2,0,.29l2.05,43.24v.25a3.41,3.41,0,0,0,.26,1l.18.43a3.37,3.37,0,0,0,.82,1.22l.48.45a4.6,4.6,0,0,0,.68.5l.75.42,9.28,4.18c-2.08.67-4.17,1.36-6.23,2.06l-1.43.52-1.18.61a3.23,3.23,0,0,0-.51.34l-.6.48a3.22,3.22,0,0,0-.67.71l-.35.5a3.49,3.49,0,0,0-.59,1.44l0,.36a4.28,4.28,0,0,0-.07.81l1.93,41.46a2.5,2.5,0,0,0,0,.46,5.47,5.47,0,0,0,3.34,4.2l142,75.78.22.1a27,27,0,0,0,10.79,2.26,27.71,27.71,0,0,0,5.43-.55,426,426,0,0,0,64.22-16.46l173.28-61a105.68,105.68,0,0,0,30.31-15.42,4.93,4.93,0,0,0,.5-.44l.38-.42a3.32,3.32,0,0,0,.74-1.23l.15-.44a2.94,2.94,0,0,0,.18-.82l3.54-38.78v-.09a3.88,3.88,0,0,0,0-.58l-.13-.79a3.52,3.52,0,0,0-.63-1.34l-.35-.45a3.46,3.46,0,0,0-.64-.63l-.65-.49-1.27-.72-1.26-.53-4.5-1.3c2.93-1.46,5.81-3.06,8.6-4.76a3.36,3.36,0,0,0,1-.9l.53-.72a3.41,3.41,0,0,0,.69-1.77l3.66-40.12c0-.2,0-.4,0-.61ZM247.38,205a473.5,473.5,0,0,1-64.29,14.37,23.78,23.78,0,0,1-12.47-1.14L31,152.09a1.42,1.42,0,0,0-.11-.35l.58-.19.75-.22c3.44-1.12,6.5-2.08,9.35-2.92l126.22,56.78.19.08a32.3,32.3,0,0,0,11,1.92h0a32.1,32.1,0,0,0,5.2-.42A505.84,505.84,0,0,0,249.75,193L426,141.89a116.11,116.11,0,0,0,11.75-3.73l9.64,2.62A104.66,104.66,0,0,1,422.83,151ZM409.48,111l1.16-.88,1.07-.59,1-.34.82-.13.75.06.63.18.61.36.62.55.62.82.59,1.09.5,1.34.37,1.57.21,1.72.06,1.92-.11,2-.3,2.08-.46,2.09-.63,2.06-.79,2-1,1.88-1,1.72L413.1,134,412,135.3l-1.16,1-1.11.76-1,.49-.9.27-.76.06-.67-.09-.61-.23-.62-.41-.64-.64-.61-.9-.57-1.18-.46-1.45-.33-1.67-.16-1.79v-2l.17-2.1.38-2.14.57-2.14.72-2.08.88-2,1-1.85,1.09-1.62,1.19-1.44Zm-16.73,18.79Zm35-36.7L249.3,136.52a579.62,579.62,0,0,1-65.65,11.56h-.14a31.06,31.06,0,0,1-13.16-1L29.66,92.6c14.72-3.76,29.85-6.86,45-9.23L247.84,55.65c13.77-2.15,28-3.77,42.19-4.81a33,33,0,0,1,8.71.5l151.8,34.38A118.72,118.72,0,0,1,427.75,93.11Zm-243.3,61.82A590,590,0,0,0,251,143.25l147.83-35.92-1.28,1.73-1.35,2.12a2.07,2.07,0,0,0-.15.28l-1.09,2.16c-.06.12-.11.24-.12.27l-1,2.31-.85,2.66-.65,2.7,0,.15v.21l-.37,2.44a2.17,2.17,0,0,0,0,.26l-.17,2.35a1.28,1.28,0,0,0,0,.28v2.27a1.74,1.74,0,0,0,0,.39l.22,2.17.47,2.46a2.15,2.15,0,0,0,.1.38l.63,1.89c.05.14.11.28.17.41l.8,1.63a2.64,2.64,0,0,0,.27.46l1,1.43a3.79,3.79,0,0,0,.38.45l1.16,1.18a2.94,2.94,0,0,0,.53.43l.11.08L247.92,186.24a496.47,496.47,0,0,1-64.7,13.61,25.39,25.39,0,0,1-12.66-1.11L26.44,133.91l-1.7-35.79L168,153.53l.21.07a38,38,0,0,0,11.16,1.68h0A37.7,37.7,0,0,0,184.45,154.93Zm-16.69,69.64.23.1a30.92,30.92,0,0,0,10.93,2H179a30.62,30.62,0,0,0,5.26-.46,478.27,478.27,0,0,0,65.18-14.58l175.38-53.9a112,112,0,0,0,25-10.36L447,177.66a99.3,99.3,0,0,1-27.61,13.92L246,252.56A418.09,418.09,0,0,1,182.8,268.8a20.21,20.21,0,0,1-12-1.18L29.2,192l-1.61-33.85Zm269-93.59a3.52,3.52,0,0,0-1.13.43,103.29,103.29,0,0,1-11.5,3.68l-4.25,1.24,1.24-2a1.26,1.26,0,0,0,.16-.29l1-2.08a2.7,2.7,0,0,0,.13-.3l.85-2.16a2.74,2.74,0,0,0,.12-.32l.71-2.31,0-.06.58-2.56,0-.17v-.18l.34-2.34v-.22l.13-2.31a1.49,1.49,0,0,0,0-.3l-.06-2.16a2.77,2.77,0,0,0,0-.41l-.26-2.06-.48-2.32a2.3,2.3,0,0,0-.13-.44l-.64-1.74a2.75,2.75,0,0,0-.21-.48l-.82-1.53a3.19,3.19,0,0,0-.31-.47l-.95-1.28a3,3,0,0,0-.48-.53l-1.12-.94a3.44,3.44,0,0,0-.6-.44l-1.27-.73-.44-.34,11.87-2.88a125.42,125.42,0,0,0,25.58-8.47l-3,32.14A108.44,108.44,0,0,1,436.78,131Z"/><ellipse class="cls-1" cx="241.54" cy="166.66" rx="7.81" ry="6.06" transform="translate(20.34 359.51) rotate(-75.69)"/><ellipse class="cls-1" cx="266.61" cy="159.76" rx="7.81" ry="6.06" transform="translate(45.9 378.61) rotate(-75.69)"/><ellipse class="cls-1" cx="290.82" cy="153.34" rx="7.81" ry="6.06" transform="translate(70.35 397.23) rotate(-75.69)"/></svg>