<svg xmlns="http://www.w3.org/2000/svg" viewBox="0 0 480 320"><defs><style>.cls-1{fill:#000;}</style></defs><g id="Layer_1" data-name="Layer 1"><path class="cls-1" d="M276.86,160.06c-.09.21-.16.43-.23.65a5.37,5.37,0,0,0-.15.67,4.91,4.91,0,0,0-.06.66,3.64,3.64,0,0,0,0,.66,4.1,4.1,0,0,0,.11.61,2.78,2.78,0,0,0,.21.57,2.34,2.34,0,0,0,.77.88,1.94,1.94,0,0,0,.53.23,2,2,0,0,0,.54.08h0a2.9,2.9,0,0,0,.59-.09,3.88,3.88,0,0,0,.56-.23,2.93,2.93,0,0,0,.53-.33,5,5,0,0,0,.49-.43,5.4,5.4,0,0,0,.43-.52c.13-.19.25-.39.36-.59a3.65,3.65,0,0,0,.28-.64,5.12,5.12,0,0,0,.19-.67,5.05,5.05,0,0,0,.08-.68,3.86,3.86,0,0,0,0-.68,3.5,3.5,0,0,0-.15-.64,3.06,3.06,0,0,0-.27-.58,2.59,2.59,0,0,0-.37-.5,2.93,2.93,0,0,0-.48-.39,2.27,2.27,0,0,0-.55-.25,2.49,2.49,0,0,0-.61-.08,1.53,1.53,0,0,0-.6.08,2.42,2.42,0,0,0-.58.23,3,3,0,0,0-.52.36c-.15.14-.3.3-.45.47a4,4,0,0,0-.38.54A4.18,4.18,0,0,0,276.86,160.06Z"/><path class="cls-1" d="M253.63,167.24a2.69,2.69,0,0,0-.29-.59,2.46,2.46,0,0,0-.39-.51,2.69,2.69,0,0,0-.5-.39,2.09,2.09,0,0,0-.58-.24,2.16,2.16,0,0,0-.62-.09h0a3.42,3.42,0,0,0-.63.09,3.13,3.13,0,0,0-.6.24,4,4,0,0,0-.54.37,4.25,4.25,0,0,0-.47.48,4.37,4.37,0,0,0-.71,1.19q-.13.33-.24.66t-.15.69a3.82,3.82,0,0,0-.06.68,4.72,4.72,0,0,0,.15,1.3,3,3,0,0,0,.24.58,2.15,2.15,0,0,0,.35.5,1.87,1.87,0,0,0,.46.38,1.8,1.8,0,0,0,.55.24,2.33,2.33,0,0,0,.53.06h.07a3.1,3.1,0,0,0,.61-.09,4.12,4.12,0,0,0,.58-.23,3.19,3.19,0,0,0,.55-.35,4.23,4.23,0,0,0,.51-.44,5.85,5.85,0,0,0,.45-.54,4.67,4.67,0,0,0,.38-.6,5.3,5.3,0,0,0,.28-.65,3.46,3.46,0,0,0,.19-.7,4.06,4.06,0,0,0,.08-.7,4,4,0,0,0,0-.69A3.75,3.75,0,0,0,253.63,167.24Z"/><path class="cls-1" d="M434.72,120.55a1.82,1.82,0,0,0,.2.45,1.48,1.48,0,0,0,.31.39,1.21,1.21,0,0,0,.43.27,1.25,1.25,0,0,0,.5.11h0a1.41,1.41,0,0,0,.45-.07,1.86,1.86,0,0,0,.46-.19,2.42,2.42,0,0,0,.42-.29,3.32,3.32,0,0,0,.38-.37c.12-.14.24-.29.35-.44s.2-.33.29-.5.17-.36.24-.54a4,4,0,0,0,.16-.57,2.9,2.9,0,0,0,.09-.59,5.61,5.61,0,0,0,0-.58,3.43,3.43,0,0,0-.08-.56,3.39,3.39,0,0,0-.17-.51,3,3,0,0,0-.26-.46,2.1,2.1,0,0,0-.36-.37,1.76,1.76,0,0,0-.44-.26,1.56,1.56,0,0,0-1,0,1.63,1.63,0,0,0-.47.2,2.51,2.51,0,0,0-.41.32,3.26,3.26,0,0,0-.34.4,3.21,3.21,0,0,0-.29.46,4,4,0,0,0-.24.51,6.1,6.1,0,0,0-.31,1.11,5.54,5.54,0,0,0-.07.57,5,5,0,0,0,0,.55,4.69,4.69,0,0,0,0,.53A3.16,3.16,0,0,0,434.72,120.55Z"/><path class="cls-1" d="M238.85,171.23a2.69,2.69,0,0,0-.29-.59,2.24,2.24,0,0,0-.41-.51,1.92,1.92,0,0,0-.51-.39,2.55,2.55,0,0,0-.59-.25,2.7,2.7,0,0,0-.63-.07,2.74,2.74,0,0,0-.64.08,2.7,2.7,0,0,0-.61.25,2.94,2.94,0,0,0-.55.37,3.7,3.7,0,0,0-.48.49,5.21,5.21,0,0,0-1,1.87,4.15,4.15,0,0,0-.15.7,5.53,5.53,0,0,0-.07.7,3.86,3.86,0,0,0,0,.68,2.82,2.82,0,0,0,.14.64,3,3,0,0,0,.24.58,2.54,2.54,0,0,0,.36.5,2,2,0,0,0,.48.38,1.62,1.62,0,0,0,.56.23,2.33,2.33,0,0,0,.53.06h.08a3.2,3.2,0,0,0,.62-.09,3.32,3.32,0,0,0,.59-.24,2.93,2.93,0,0,0,.56-.35,3.17,3.17,0,0,0,.52-.45,4.69,4.69,0,0,0,.46-.54,4.78,4.78,0,0,0,.38-.61,4,4,0,0,0,.3-.67,5.56,5.56,0,0,0,.19-.7,4.05,4.05,0,0,0,.07-.7,3.35,3.35,0,0,0-.05-.71A3,3,0,0,0,238.85,171.23Z"/><path class="cls-1" d="M268,163.39a3.06,3.06,0,0,0-.27-.58,2.46,2.46,0,0,0-.39-.51,2.28,2.28,0,0,0-.48-.39,2.87,2.87,0,0,0-.57-.24,2.33,2.33,0,0,0-1.23,0,2.49,2.49,0,0,0-.59.23,3.25,3.25,0,0,0-.52.37,3.41,3.41,0,0,0-.46.47,5.44,5.44,0,0,0-.39.55,5.12,5.12,0,0,0-.31.62q-.14.33-.24.66c-.06.22-.11.45-.15.67a5.2,5.2,0,0,0-.06.68,3.64,3.64,0,0,0,0,.66,3.24,3.24,0,0,0,.12.62,2.32,2.32,0,0,0,.22.57,2.06,2.06,0,0,0,.33.5,2.11,2.11,0,0,0,.45.39,2.21,2.21,0,0,0,.55.23,1.88,1.88,0,0,0,.53.07h.06a2.7,2.7,0,0,0,1.17-.32,3.06,3.06,0,0,0,.54-.34,3.42,3.42,0,0,0,.49-.44,5.59,5.59,0,0,0,.45-.52,6,6,0,0,0,.36-.6,5.24,5.24,0,0,0,.29-.64,5.91,5.91,0,0,0,.19-.69,4,4,0,0,0,.07-.69,3.86,3.86,0,0,0,0-.68A4.74,4.74,0,0,0,268,163.39Z"/><path class="cls-1" d="M430.43,171.82a1.75,1.75,0,0,0,.2.44,1.65,1.65,0,0,0,.33.37,1.26,1.26,0,0,0,.44.24,1.61,1.61,0,0,0,.44.06h.06a1.32,1.32,0,0,0,.48-.09,3.55,3.55,0,0,0,.44-.21,2.78,2.78,0,0,0,.78-.67,4.7,4.7,0,0,0,.34-.44c.1-.15.2-.32.29-.49a5.15,5.15,0,0,0,.23-.54,3.58,3.58,0,0,0,.16-.56,5.62,5.62,0,0,0,.09-.57,2.62,2.62,0,0,0,0-.56,3.35,3.35,0,0,0-.08-.54,3.05,3.05,0,0,0-.17-.51,3.12,3.12,0,0,0-.27-.43,2,2,0,0,0-.36-.36,1.65,1.65,0,0,0-.46-.23,1.47,1.47,0,0,0-.51-.08,1.43,1.43,0,0,0-.5.09,2.43,2.43,0,0,0-.46.22,3.09,3.09,0,0,0-.39.33,3.26,3.26,0,0,0-.34.4c-.1.15-.19.31-.28.47a3.32,3.32,0,0,0-.23.51,4.72,4.72,0,0,0-.18.53,4.9,4.9,0,0,0-.13.55,5.35,5.35,0,0,0-.07.56h0a4.69,4.69,0,0,0,0,.53,4.4,4.4,0,0,0,.05.51A2.46,2.46,0,0,0,430.43,171.82Z"/><path class="cls-1" d="M294,167a1,1,0,0,0,.23.12.86.86,0,0,0,.32,0A1.86,1.86,0,0,0,295,167l93.82-26.56a2.26,2.26,0,0,0,.39-.15,3.61,3.61,0,0,0,.44-.22l.45-.29c.15-.11.3-.22.44-.34a5.43,5.43,0,0,0,.81-.78,4.87,4.87,0,0,0,.63-.86,17.63,17.63,0,0,0,1-1.93,18.83,18.83,0,0,0,.76-2.06,20.36,20.36,0,0,0,.53-2.18,22,22,0,0,0,.29-2.29,22.79,22.79,0,0,0-.15-4.67c-.06-.4-.12-.8-.2-1.19s-.15-.79-.25-1.18c-.18-.77-.41-1.54-.67-2.3a3.38,3.38,0,0,0-.22-.52,4.67,4.67,0,0,0-.27-.49c-.11-.15-.22-.3-.33-.43s-.24-.26-.37-.38a3.91,3.91,0,0,0-.41-.3,2,2,0,0,0-.42-.2,1.89,1.89,0,0,0-.41-.1,1.21,1.21,0,0,0-.38,0L296,141.92a1.3,1.3,0,0,0-.42.18,1.62,1.62,0,0,0-.33.31,1.79,1.79,0,0,0-.25.42,2.84,2.84,0,0,0-.17.49,3.91,3.91,0,0,0-.11,1.13,6.29,6.29,0,0,0,.17,1.22c.21.88.4,1.76.55,2.65s.27,1.77.35,2.65.15,1.76.18,2.63,0,1.76,0,2.61a30.54,30.54,0,0,1-.57,4.86c-.08.39-.16.77-.26,1.14s-.19.74-.29,1.09a21.06,21.06,0,0,1-.72,2,3.29,3.29,0,0,0-.16.44,2.74,2.74,0,0,0-.09.39,1.82,1.82,0,0,0,0,.33.86.86,0,0,0,.05.27A.62.62,0,0,0,294,167Z"/><path class="cls-1" d="M473.1,107.93l-.15-2.42a1.22,1.22,0,0,0,0-.27l-.4-2.41a2.21,2.21,0,0,0-.05-.25l-.64-2.37a.9.9,0,0,0-.08-.25l-.87-2.28a2.56,2.56,0,0,0-.11-.24l-1.09-2.17a1.71,1.71,0,0,0-.13-.23l-1.3-2-.16-.23L466.65,91a2.09,2.09,0,0,0-.2-.22l-1.63-1.63-.22-.2-1.77-1.39a1.51,1.51,0,0,0-.26-.18l-1.87-1.15-.29-.16-2-.88-.32-.12-2-.6-.08-.06h-.08L299.71,48.73h0a11.14,11.14,0,0,0-4.38-.15h0L273,52.28h-.11a11.05,11.05,0,0,0-3.76,1.41L54.59,89.39a8.24,8.24,0,0,0-3.91-.32h0L15.9,94.82a2.38,2.38,0,0,0-.52.15l-.44.09a2.87,2.87,0,0,0-.62.22l-1.14.57a2.41,2.41,0,0,0-.5.33l-1,.87a3.06,3.06,0,0,0-.36.36l-.94,1.16a2.62,2.62,0,0,0-.24.34l-.82,1.42a3,3,0,0,0-.16.31l-.69,1.67a1,1,0,0,1-.1.27l-.55,1.89a.86.86,0,0,0-.06.23l-.41,2.08V107L7,109.24v.15l-.11,2.37v2.8l.21,2.54v.14l.36,2.56V120L8,122.5v.14l.64,2.51v.15l.78,2.42v.15l.9,2.32.06.15,1,2.17.09.17,1.09,2a1.74,1.74,0,0,0,.11.18L14,136.67l.14.19,1.26,1.53a1.12,1.12,0,0,0,.18.2l1.28,1.32a1.64,1.64,0,0,0,.25.21l1.31,1a1.9,1.9,0,0,0,.33.22l1.32.75.21.11,3.2,1.46A2.61,2.61,0,0,0,27,142.37a3.12,3.12,0,0,0,.15-.43l.52-2,.61-1.61.7-1.28.74-.94.73-.61.69-.34.7-.14.81.06,1.08.35,13.57,6-29.44,6.1-.24.08a3.2,3.2,0,0,0-.42.1l-1.13.46a2.94,2.94,0,0,0-.55.3l-1.05.75a2.34,2.34,0,0,0-.4.37l-.94,1a2.48,2.48,0,0,0-.28.36l-.82,1.3c-.06.11-.12.22-.17.33l-.69,1.55c0,.09-.08.19-.11.28l-.55,1.77a.37.37,0,0,1-.06.25l-.39,2v.22l-.25,2.14a.61.61,0,0,0,0,.19l-.1,2.28a.49.49,0,0,0,0,.17v2.54l.18,2.46v.15l.36,2.5v.14l.5,2.5v.14l.63,2.47v.14l.77,2.41a.78.78,0,0,0,.05.14l.88,2.31.06.14,1,2.18.07.15,1.08,2,.1.17,1.16,1.82.12.18,1.23,1.62c0,.06.1.13.16.19l1.26,1.37a1.45,1.45,0,0,0,.22.21l1.29,1.12a1.61,1.61,0,0,0,.3.21l1.3.84h.07l.11.08,3.25,1.82h0a2.36,2.36,0,0,0,.52.21h0a2.37,2.37,0,0,0,.65.09h0a2.57,2.57,0,0,0,.62-.08h.11a3,3,0,0,0,.56-.23l.09-.06a3.48,3.48,0,0,0,.48-.38h0a2.39,2.39,0,0,0,.38-.52v-.12a1.66,1.66,0,0,0,.12-.31.44.44,0,0,0,.06-.16h0l.51-1.88.59-1.46.66-1.12.68-.78.65-.48.63-.24.67-.07.81.13,1.1.44L146,245.16l1.8,1.1,1.76,1.44,1.75,1.8,1.71,2.14,1.62,2.44,1.48,2.7,1.33,2.89,1.13,3.05.94,3.22h0V266a3.65,3.65,0,0,0,.14.35l.08.12a1.27,1.27,0,0,0,.18.27.64.64,0,0,0,.1.13l.23.23.12.1a1.85,1.85,0,0,0,.34.23h.05l4.61,2.46h.08l.09.06,1.93.85.4.14,1.9.49a2.67,2.67,0,0,0,.48.08l1.85.12h.53l1.79-.25a2.5,2.5,0,0,0,.54-.13l.21-.08a3.2,3.2,0,0,0,.42-.1l281-95.91h.06l1.07-.42.29-.13,1.69-.92.33-.2,1.56-1.18a2.09,2.09,0,0,0,.28-.24l1.4-1.41a2.09,2.09,0,0,0,.24-.28l1.22-1.63a1.81,1.81,0,0,0,.19-.29l1-1.83a1.59,1.59,0,0,0,.15-.29l.8-2a1.76,1.76,0,0,0,.1-.3l.58-2.14a1.27,1.27,0,0,0,.06-.28l.35-2.25v-.28l.1-2.33v-.27l-.15-2.36a1.13,1.13,0,0,0,0-.26l-.39-2.36a1.13,1.13,0,0,0,0-.26l-.63-2.33a2.25,2.25,0,0,0-.08-.24l-.86-2.26a2.44,2.44,0,0,0-.1-.24l-1.07-2.16-.13-.23-1.27-2-.15-.22-1.45-1.85a1.68,1.68,0,0,0-.18-.21l-1.6-1.66-.21-.2-1.73-1.44-.24-.18-1.84-1.2-.28-.16-1.91-.94a1.69,1.69,0,0,0-.31-.13l-2-.68h-.16L447,131.77l12.7-3.64h0l.44-.14.23-.08,1.84-.75a1.54,1.54,0,0,0,.34-.17l1.73-1a1.61,1.61,0,0,0,.3-.21l1.59-1.27a2.16,2.16,0,0,0,.27-.25l1.43-1.51.22-.27,1.25-1.73.18-.28,1-1.93a2.39,2.39,0,0,0,.13-.28l.83-2.1a1,1,0,0,1,.1-.28l.59-2.23a1.27,1.27,0,0,0,.06-.28l.35-2.32v-.28l.1-2.39A2.11,2.11,0,0,0,473.1,107.93Zm-40.51-13.2,1.76.55,1.66.77,1.62,1,1.55,1.26,1.45,1.47,1.31,1.67,1.17,1.85,1,2,.8,2.1.58,2.18.37,2.22L446,114l-.09,2.18-.3,2.1-.51,2-.71,1.85-.89,1.68-1.05,1.49-1.19,1.29-1.3,1.06-1.4.84-1.55.63-.31.1-6.47,1.85c.28-.55.55-1.11.78-1.69s.49-1.29.69-1.95.36-1.33.5-2,.23-1.33.3-2,.11-1.38.11-2a19.33,19.33,0,0,0-.12-2,17.11,17.11,0,0,0-.36-2,12.86,12.86,0,0,0-.64-1.9,10,10,0,0,0-.94-1.77,9.5,9.5,0,0,0-1.12-1.41,9.27,9.27,0,0,0-1.31-1.11,7,7,0,0,0-1.82-1,1.93,1.93,0,0,1-.44-.12l-.15-.06-.19-.07h-.07l-3.52-.91a8.91,8.91,0,0,0-2.16-.85,9.88,9.88,0,0,0-1.7-.28,7.16,7.16,0,0,0-1.85.09,6.84,6.84,0,0,0-1.76.57,6.66,6.66,0,0,0-1.52,1,8.83,8.83,0,0,0-2,2.69,16,16,0,0,0-.74,1.76c-.2.57-.38,1.18-.55,1.86s-.34,1.42-.49,2.24-.26,1.53-.36,2.32-.2,1.51-.28,2.27-.16,1.51-.22,2.23v.53h0c0,.63-.09,1.26-.12,1.86s-.06,1.21-.07,1.76,0,1.11,0,1.6.05,1,.09,1.48a10.66,10.66,0,0,0,.26,1.48,5.88,5.88,0,0,0,.56,1.46,4.47,4.47,0,0,0,1.36,1.54l.14.07-190,54.36.43-.81c0-.1.09-.2.13-.3l.89-2.37.06-.26.66-2.61a2.21,2.21,0,0,0,.05-.25l.42-2.8v-.23l.17-2.95v-.22l-.08-3.05v-.21l-.32-3.11v-.2l-.57-3.12a.61.61,0,0,0,0-.19l-.81-3.09a1.33,1.33,0,0,0-.05-.19l-1-3a1.07,1.07,0,0,0-.07-.19l-1.24-2.87-.09-.18-1.43-2.69-.12-.19-1.59-2.47c-.05-.07-.09-.14-.14-.2L214,151.17a1.63,1.63,0,0,0-.17-.2L212,149l-.21-.2-1.94-1.61a1.57,1.57,0,0,0-.26-.19l-2-1.28a2,2,0,0,0-.32-.18l-2-.92h-.1l-.09,0L64.56,93,270.39,58.79h0l6.54-1.08Zm-4.27,49.51,1.74.63,1.64.83,1.6,1.08,1.52,1.3,1.43,1.51,1.31,1.7,1.15,1.86,1,2,.78,2.09.52,2.15.36,2.17.15,2.15-.08,2.11-.29,2-.5,1.9-.68,1.74-.86,1.57-1,1.37-1.1,1.17-1.25,1-1.38.75-.88.34L220.29,250.39l.67-1.71a1,1,0,0,1,.1-.29l.64-2.46a1.1,1.1,0,0,0,.06-.26l.41-2.66v-.24l.17-2.82v-.23l-.07-2.94v-.2l-.32-3v-.2l-.56-3a.61.61,0,0,0,0-.19l-.8-3a1.21,1.21,0,0,0-.05-.18l-1-3-.07-.18L218.25,221a1.42,1.42,0,0,0-.08-.18l-1.41-2.69a1.14,1.14,0,0,0-.1-.19L215,215.39a1.27,1.27,0,0,0-.13-.19l-1.7-2.26-.15-.19-1.81-2-.19-.19-1.9-1.7-.23-.19L207,207.26l-.29-.18-2-1h-.16l-6.66-2.93,217.85-62.37ZM185.91,185.3v-.19l-.36-3.22v-.19l-.6-3.22a.61.61,0,0,0,0-.19l-.84-3.19a1.21,1.21,0,0,0-.05-.18l-1.05-3.1-.07-.18-1.26-3-.08-.18-1.45-2.79a1.14,1.14,0,0,0-.1-.19l-1.6-2.57-.13-.18-1.74-2.31a1.56,1.56,0,0,0-.16-.2l-1.85-2-.2-.2-2-1.63-.26-.19-2-1.35a2,2,0,0,0-.32-.18l-2-1-.19-.08L27.49,98.19l24-4a3.32,3.32,0,0,1,1.71.19h0l149.9,55,1.76.8,1.7,1.09,1.69,1.42,1.76,1.8,1.59,2,1.41,2.3,1.33,2.5L215.5,164l1,2.81.76,2.9.54,2.92.3,2.91.08,2.84-.17,2.72-.38,2.55L217,186l-.79,2.09-.94,1.8-1.08,1.49L213,192.51l-1.24.87-1.38.63-.26.08L183.2,201.8l.53-1.07a1.88,1.88,0,0,0,.12-.3l.85-2.43a2.76,2.76,0,0,0,.08-.27l.62-2.68v-.24l.39-2.88v-.23l.13-3a.74.74,0,0,0,0-.21ZM417.53,122l.65-1.59.78-1.46.86-1.27.9-1,.9-.79.83-.52.71-.28.57-.07h.43a3,3,0,0,1,.43.11,2,2,0,0,1,.52.29,4.26,4.26,0,0,1,.57.48,4.56,4.56,0,0,1,.51.65,5,5,0,0,1,.5.94,7.62,7.62,0,0,1,.38,1.14c.1.43.18.86.24,1.3a13.52,13.52,0,0,1,.08,1.42,9.56,9.56,0,0,1-.08,1.5c-.08.5-.13,1-.23,1.54s-.23,1-.38,1.53-.33,1-.52,1.49-.42,1-.66,1.42a14.78,14.78,0,0,1-.75,1.28,13.08,13.08,0,0,1-.84,1.12,7.74,7.74,0,0,1-.89.92,7.43,7.43,0,0,1-.88.69,5.46,5.46,0,0,1-.85.48,3.71,3.71,0,0,1-.77.27,4,4,0,0,1-.77.11,1.51,1.51,0,0,1-.52,0l-.29-.08h-.14l-.55-.28-.45-.43-.45-.68-.4-1-.3-1.21-.17-1.42V127l.18-1.66.34-1.7Zm-2-7.37a3.92,3.92,0,0,1,.81-1.12,1.41,1.41,0,0,1,.36-.24h0l-1,1.12-.19.24-.05.08ZM35.39,130.56l-1.5-.48a3.19,3.19,0,0,0-.6-.12l-1.46-.11a3.86,3.86,0,0,0-.68,0l-1.39.27a3,3,0,0,0-.66.22l-1.29.64a2.59,2.59,0,0,0-.52.34l-1.18,1a2.22,2.22,0,0,0-.37.38l-1,1.32a2.92,2.92,0,0,0-.24.37L23.61,136a1.87,1.87,0,0,0-.15.32l-.52,1.37L21.55,137l-1-.81-1.08-1.1-1.08-1.36-1.05-1.62-1-1.82-.92-2-.84-2.17-.73-2.28-.61-2.36L12.76,119l-.34-2.42-.19-2.38-.05-2.31.09-2.19.24-2,.37-1.86.48-1.64.57-1.39.64-1.09.66-.8.62-.53.59-.29L17,100h.65l.89.25,147.07,58.13,1.74.85,1.65,1.15,1.69,1.49,1.67,1.82,1.59,2.11,1.49,2.38,1.34,2.61,1.19,2.8,1,2.92.79,3,.56,3,.34,3,.11,2.94-.13,2.82L180.3,194l-.56,2.42-.75,2.15-.88,1.85-1,1.52L176,203.1l-1.18.87-1.24.57-1.29.29H170.9l-1.47-.26-1.65-.6-3.57-1.58-.65-2.22a1.34,1.34,0,0,0-.07-.18l-1.22-3.25a1.07,1.07,0,0,0-.07-.19l-1.43-3.08-.1-.18-1.66-2.9a.76.76,0,0,0-.12-.19l-1.77-2.58-.15-.2-1.9-2.27-.19-.2-2-1.91a1.21,1.21,0,0,0-.24-.21l-2-1.53-.32-.2L148.25,180l-.19-.09L35.65,130.65Zm110.47,54.1,1.8,1,1.77,1.31,1.77,1.71,1.73,2.06,1.64,2.38,1.51,2.67,1.34,2.89,1.15,3.07,1,3.27a2.63,2.63,0,0,0,1.42,1.64l4.71,2.16.2.07,2,.72a3,3,0,0,0,.43.12l1.95.34a1.7,1.7,0,0,0,.45,0h1.94a2.48,2.48,0,0,0,.54-.06l1.17-.27a1,1,0,0,0,.37-.05l15.36-4.4,12.32,5.42,1.74.92,1.69,1.19,1.68,1.52,1.64,1.81,1.56,2.08,1.45,2.31,1.31,2.52,1.14,2.67,1,2.78.75,2.84.52,2.85.3,2.81.07,2.73-.15,2.58-.38,2.4-.69,2.17-.75,1.91-.9,1.61-1,1.31-1.1,1-1.2.74-.74.3-26.58,9.07.73-2a1.57,1.57,0,0,1,.08-.29l.61-2.51v-.26l.37-2.73v-.24l.13-2.9v-.21l-.11-3v-.2l-.36-3.11v-.19L184.6,242v-.17l-.82-3.13a.25.25,0,0,0-.05-.18l-1-3.06-.06-.17-1.23-3a.38.38,0,0,0-.08-.17l-1.41-2.8a1,1,0,0,0-.1-.17l-1.57-2.6a1.74,1.74,0,0,0-.11-.18l-1.71-2.36-.14-.18-1.81-2.09-.18-.18-1.88-1.79-.23-.19-1.93-1.45A1.67,1.67,0,0,0,170,218l-2-1.11h-.16L28.19,150.71l27.07-5.6.21-.07Zm25.22,81.66-1.46-.38-1.64-.73-3.56-1.9-.66-2.25-.06-.18-1.19-3.22a1.34,1.34,0,0,1-.07-.18L161,254.39l-.09-.18-1.56-2.82-.11-.18-1.74-2.63-.14-.19-1.86-2.33a1.54,1.54,0,0,0-.17-.19l-2-2-.22-.2-2-1.63a2.83,2.83,0,0,0-.28-.2l-2-1.25h-.09l-.08-.05-110.53-57H38l-.11-.05-1.48-.6a2.73,2.73,0,0,0-.56-.15l-1.44-.23a3.75,3.75,0,0,0-.67,0l-1.37.14a3.17,3.17,0,0,0-.69.17l-1.27.5a2.59,2.59,0,0,0-.59.32l-1.16.85a4,4,0,0,0-.43.39l-1,1.19a2.07,2.07,0,0,0-.28.38l-.88,1.5a1.54,1.54,0,0,0-.17.34l-.41,1-.29-.16-1.08-.76-1-.89L22,186.39,20.93,185l-1.05-1.66-1-1.86L18,179.39l-.82-2.17L16.47,175l-.6-2.33-.47-2.36L15,167.93l-.19-2.31,0-2.23.1-2.1.23-1.93.36-1.74.47-1.5.55-1.24.6-.95.59-.65.56-.41.52-.21.55-.06.66.08.91.33,144.68,68.47,1.72,1,1.68,1.27,1.68,1.59,1.65,1.9,1.57,2.18,1.46,2.42,1.33,2.62,1.16,2.79,1,2.89.77,3,.56,3,.33,2.92.1,2.82-.12,2.68-.34,2.48-.54,2.24-.72,2-.87,1.65-1,1.32-1.05,1-1.1.7-1.16.42-1.24.17Zm284-126.07,1.51,1.25L458,143l1.28,1.65,1.13,1.8,1,1.92.76,2,.57,2.08.34,2.11.13,2.09-.08,2-.3,2-.5,1.85-.69,1.7-.86,1.53-1,1.35-1.14,1.14-1.25.95-1.38.74-.87.34-10.46,3.57a2.44,2.44,0,0,0,.14-.28l.8-2a1.71,1.71,0,0,0,.09-.3l.57-2.18a1.36,1.36,0,0,0,.06-.29l.33-2.3a1.22,1.22,0,0,0,0-.27l.09-2.38a1.22,1.22,0,0,0,0-.27l-.16-2.42a1,1,0,0,0,0-.25l-.4-2.43-.06-.25-.64-2.39a2.25,2.25,0,0,0-.08-.24l-.87-2.32a1.6,1.6,0,0,0-.1-.23l-1.09-2.22a.94.94,0,0,0-.12-.22L442,148.46l-.15-.22-1.47-1.91a1.63,1.63,0,0,0-.17-.2l-1.65-1.74-.21-.19-1.75-1.49a1.3,1.3,0,0,0-.23-.18l-1.85-1.25-.27-.16-1.93-1L432,140l-2-.71h-.17L425.2,138l12.44-3.58,12.54,3.43,1.72.6,1.63.8Zm12.68-30-.31,2-.52,1.94-.71,1.8-.89,1.64-1.05,1.46-1.16,1.3-1.31,1-1.4.82-1.55.64-.32.09-10.24,2.93.78-1.46c.05-.09.09-.19.13-.28L450,122l.09-.29.58-2.27a1.27,1.27,0,0,0,.06-.28l.34-2.38v-.28l.1-2.45v-.26L451,111.3a1.13,1.13,0,0,0,0-.26l-.41-2.47a2.21,2.21,0,0,0-.05-.25l-.66-2.43a2.25,2.25,0,0,0-.08-.24L449,103.3l-.11-.24-1.11-2.22c0-.08-.08-.16-.13-.24l-1.31-2.07-.15-.22-1.49-1.89c-.06-.08-.13-.15-.19-.22l-1.65-1.68-.22-.2-1.79-1.44a1.44,1.44,0,0,0-.25-.18l-1.89-1.19a2.69,2.69,0,0,0-.29-.16l-2-.91a1.75,1.75,0,0,0-.32-.12l-2-.63h-.17L288.25,55l7.89-1.31h0a6.15,6.15,0,0,1,2.38.08h0L454.68,89.45l1.76.53,1.64.74,1.6,1,1.53,1.21,1.43,1.46,1.3,1.61,1.14,1.79,1,1.93.78,2,.57,2.11.35,2.15.13,2.15Z"/><path class="cls-1" d="M234.46,234.15a4.29,4.29,0,0,0-.26-.58,3.14,3.14,0,0,0-.38-.5,2.34,2.34,0,0,0-1-.63,2,2,0,0,0-.6-.09,2.49,2.49,0,0,0-.61.08,2,2,0,0,0-.57.24,2.68,2.68,0,0,0-.52.36,3.41,3.41,0,0,0-.46.47,4,4,0,0,0-.37.54,5,5,0,0,0-.31.61,4.88,4.88,0,0,0-.23.64,5,5,0,0,0-.14.67,5.08,5.08,0,0,0-.07.67,3.53,3.53,0,0,0,0,.65,4.23,4.23,0,0,0,.11.62,3.83,3.83,0,0,0,.22.56,2.3,2.3,0,0,0,.32.49,2.32,2.32,0,0,0,.44.39,1.7,1.7,0,0,0,.53.24,2,2,0,0,0,.54.07h0a2.9,2.9,0,0,0,.59-.09,3,3,0,0,0,.56-.22,3.67,3.67,0,0,0,.53-.34,4,4,0,0,0,.49-.43,4.24,4.24,0,0,0,.43-.52,4.49,4.49,0,0,0,.37-.59,5.17,5.17,0,0,0,.28-.64,3.9,3.9,0,0,0,.18-.67,5.83,5.83,0,0,0,.08-1.36A3.5,3.5,0,0,0,234.46,234.15Z"/></g></svg>