<svg id="Artwork" xmlns="http://www.w3.org/2000/svg" viewBox="0 0 480 320"><defs><style>.cls-1{fill:#000;}</style></defs><path class="cls-1" d="M19.43,116v.16L21,133.25c0,.08-.07.15,0,.27a.57.57,0,0,1,.07.33,4,4,0,0,0,.15.45,1.07,1.07,0,0,0,.07.19v.07l.1.18a7.49,7.49,0,0,0,2.88,3v.43l-.26.2a3.42,3.42,0,0,0-.63.63l-.52.64A3.88,3.88,0,0,0,22.2,141l-.19.63a3.83,3.83,0,0,0-.16,1.5v.15l1.55,16.83a.43.43,0,0,1,0,.16c.07.12,0,.22.07.36a1.56,1.56,0,0,1,.13.4.43.43,0,0,0,0,.16l.09.19.09.19a7.77,7.77,0,0,0,2.87,3.22l.15,1.62a5.12,5.12,0,0,0,2.05,3.89,17.88,17.88,0,0,0,1.84,1.29h.09l.18.1.48.21.11,0L257.12,246l.22.06h.13a56.65,56.65,0,0,0,12.45,1.41h.33c2.7,0,5.33-.26,7.07-.44l.74-.08h0a11.58,11.58,0,0,1,5.09.52h0l2.23.74.3.08,2.49.62h.26l2.69.46h.24l2.87.31h.22l2.92.14h3.37l2.88-.18h.23l2.78-.35h.24l2.63-.51.26-.06,2.41-.65.31-.09,2.12-.78L315,247l1.8-.88a5,5,0,0,0,.46-.26l1.45-1a4.51,4.51,0,0,0,.54-.44l1.06-1.05a3.31,3.31,0,0,0,.59-.75l.66-1.09a3.72,3.72,0,0,0,.47-1.15l.25-1.12a4.78,4.78,0,0,0,.09-.76h0l2.27-.62c4.55-1.25,9.09-2.64,13.54-4.12,4.21-1.41,8.51-2.95,12.76-4.6,3.24-1.24,6.5-2.56,9.68-3.92,7.56-3.24,14.36-6.51,21.24-9.87h0l27-13.5h0c4.59-2.4,10-5.27,14.91-8.3,7.39-4.55,12.7-8.78,16.22-12.93a2.85,2.85,0,0,1,1.54-.33H442l2.35-.15h.21l2.21-.26H447l2-.36.28-.06,1.78-.46a1.91,1.91,0,0,0,.34-.1l1.52-.54a4.17,4.17,0,0,0,.44-.19l1.21-.61a4.49,4.49,0,0,0,.59-.37l.89-.68a3.88,3.88,0,0,0,.73-.73l.55-.71a3.88,3.88,0,0,0,.65-1.32l.11-.41h0l.08-.29a3.83,3.83,0,0,0,.09-1.58l.91-17.38h0a3.75,3.75,0,0,0,0-.67v-.31l-.15-.73a3.83,3.83,0,0,0-.62-1.38l-.5-.73a4.71,4.71,0,0,0-.68-.73l-.85-.7a3.18,3.18,0,0,0-.37-.27,3.43,3.43,0,0,0,.49-.28l.89-.62a3.62,3.62,0,0,0,.76-.7l.55-.66a3.74,3.74,0,0,0,.73-1.36l.2-.65a.11.11,0,0,1,0-.08c0-.14.06-.27.08-.41a.87.87,0,0,0,.05-.36v-.06l.88-18.49h0a3.75,3.75,0,0,0,0-.67.48.48,0,0,0,0-.17.89.89,0,0,0,0-.23l-.16-.65a3.78,3.78,0,0,0-.71-1.45l-.51-.66a4,4,0,0,0-.72-.7l-.86-.63a3.51,3.51,0,0,0-.52-.33l-1.3-.75-.38-.17L454,118l-.29-.09-1.73-.52-.22-.07-1.92-.45h-.19l-2.14-.38a1.93,1.93,0,0,0-.34,0h-.34a1.07,1.07,0,0,1-.3-.06,8.35,8.35,0,0,0-.87-1.18,10.28,10.28,0,0,0-3.45-2.46,27.7,27.7,0,0,0-2.83-1c-.45-.14-.93-.27-1.4-.4l-.66-.18h-.38l-221.41-40h-.15a.49.49,0,0,0-.17,0h0l-.63-.07-1.38-.12c-1.16-.11-2.08-.2-3-.2-1.44-.07-3-.07-4.79,0-1.19,0-2.38.11-3.55.2h-.05a13.41,13.41,0,0,1-3.35-.16l-1.33-.25h-.21l-1.52-.21h-.17l-1.68-.15h-.14l-1.79-.08h-4.15l-1.91.08h-.12l-1.91.14h-.14l-1.8.21h-.13l-1.75.41h-.16l-1.56.29h-.18l-1.39.35-.24.07-1.19.37-.31.11-1,.41a2.92,2.92,0,0,0-.47.23l-.71.42a4,4,0,0,0-.7.52l-.45.44a3.09,3.09,0,0,0-.33.39h-.33l-.29,0c-9.23,1.39-18.58,3.14-28.62,5.31-6.62,1.45-12.89,2.92-18.11,4.18h0L94.55,91.4h0c-7.12,1.8-14.08,3.54-20.92,5.46-2.85.79-5.65,1.59-8.31,2.38-3.55,1.06-6.74,2.11-9.76,3.07s-6.15,2.11-8.88,3.17l-1.34.51a13,13,0,0,1-3.91.66h-.16l-2.24.13H38.9l-2.24.19h-.14l-2.21.27h-.13l-2.13.34H31.9l-2,.4h-.18l-1.85.5-.2.06-1.63.51-.26.08-1.39.55-.33.14-1.14.58a2.69,2.69,0,0,0-.46.28l-.84.58a3.6,3.6,0,0,0-.65.58l-.53.59a4,4,0,0,0-.76,1.28l-.2.59A3.58,3.58,0,0,0,19.43,116Zm14.8,32a3.7,3.7,0,0,0,.37-1.53V146l222.06,66.08H257a62.21,62.21,0,0,0,12.41,1.18h.47c2.71,0,5.35-.25,7.11-.41l.74-.08h0a13.17,13.17,0,0,1,5.33.48h0l2.26.68.27.07,2.52.55.24,0,2.72.41h.22l2.87.28h.21l2.95.12h3.38l2.93-.18h.21l2.81-.32h.23l2.65-.47h.25l2.43-.61.29-.08,2.15-.72.35-.14,1.19-.53-.22.22a3.31,3.31,0,0,0-.58.77l-.2.33a4.34,4.34,0,0,0-.44,1.17l-.06.34a4,4,0,0,0,0,1.38l.05.34v.1l-.41.38-1,.61-1.4.65-1.8.62-2.14.55-2.38.44-2.59.31-2.7.17h-2.76l-2.73-.13-2.64-.26-2.48-.4-2.24-.51-2.1-.66h0A20.09,20.09,0,0,0,277,218h0l-.7.08c-2.56.25-4.58.38-6.4.38a53.14,53.14,0,0,1-11-1.12Zm344.82,40.67c-6.82,3.14-13.56,6.21-21,9.23-3.11,1.27-6.3,2.49-9.48,3.65-4.18,1.53-8.39,3-12.53,4.27-4.34,1.37-8.81,2.65-13.26,3.83l-2.43.62h-.14l-.71.22-.28.09h0l1.07-1a3.33,3.33,0,0,0,.63-.72l.67-1a3.82,3.82,0,0,0,.54-1.22l.5-1.09v-.21a.17.17,0,0,1,0-.1V205l2.28-.58c4.58-1.18,9.19-2.46,13.66-3.83,4.28-1.3,8.61-2.73,12.9-4.25,3.27-1.16,6.55-2.38,9.76-3.63,7.65-3,14.51-6,21.44-9.11h0l27.2-12.45h0c4.63-2.21,10-4.85,15-7.66,7.45-4.22,12.79-8.05,16.34-11.88h0a8.43,8.43,0,0,0,3.83,1.25l1.79.37,2,.54-.31.07-1.81.3-2,.23-2.1.1a10.9,10.9,0,0,0-6.35,1.77l-.1.09a3.92,3.92,0,0,0-.32.25l-.28.27-.1.11-.1.1c-2.93,3.41-7.88,7.09-14.72,11.07-4.76,2.79-10,5.44-14.48,7.66l-27.06,12.87Zm-91.05,4h.22l2.74.4h.21l2.87.25h.19l3,.11h3.24l2.95-.17h.19l2.87-.32h.21l2.67-.45h.23l2.44-.56.28-.08,2.17-.68.31-.11v11.81h0v1.44h0l-.45.4-1,.6-1.41.64-1.82.6L308,207l-2.41.42-2.61.3-2.72.17h-2.77l-2.75-.12-2.66-.26-2.5-.38-2.26-.5-2.12-.63h0a21,21,0,0,0-8.3-.75h0l-.71.07c-2.55.25-4.6.38-6.44.38a56.76,56.76,0,0,1-11.11-1.07L31.84,137.18,31,127.72l225.38,62.54h.31A67,67,0,0,0,269,191.43h.56c2.08,0,4.35-.16,7.15-.42l.74-.06h.05a14.37,14.37,0,0,1,5.46.45h0l2.28.63.26.07ZM209.83,78.49c.78,0,1.58.08,2.62.17l1.3.12.51,0,221.16,40,.5.14,1.28.36c.57.18,1.42.44,2,.68a3.81,3.81,0,0,1,.76.43h0l.08.16c.08.15.16.3.25.45l.12.17a2.79,2.79,0,0,0,.35.42l.08.09.05,0,.09.08a8.57,8.57,0,0,0,5.42,2.29l2.15.4-.43.07-2.06.21-2.17.13a11.31,11.31,0,0,0-6.24,1.58l-.12.08-.31.23c-.11.09-.21.17-.3.26l-.11.1-.08.07c-3,3.09-7.94,6.49-14.82,10.14-4.81,2.53-10.1,5-14.63,7l-27.44,11.78c-6.86,2.9-13.7,5.72-21.23,8.49-3.12,1.16-6.35,2.29-9.57,3.36-4.22,1.41-8.48,2.73-12.67,3.94-4.39,1.26-8.9,2.45-13.41,3.53l-2.46.58h-.13l-.72.2-.28.08-.64.23a2.17,2.17,0,0,0-.35.15l-.53.24a2.52,2.52,0,0,0-.43.24l-.44.27a4.34,4.34,0,0,0-.54.42l-.32.29a4.29,4.29,0,0,0-.64.77l-.19.3a3.91,3.91,0,0,0-.51,1.23l-.07.32a3.94,3.94,0,0,0,0,1.53v.06l-.23.2-1,.56-1.45.6-1.85.59-2.18.51-2.44.41-2.65.3-2.74.22H297.4l-2.79-.11-2.69-.24-2.54-.36-2.28-.47-2.16-.61h0a22.08,22.08,0,0,0-8.29-.68h0l-.71.07c-2.58.23-4.65.37-6.5.37a59.85,59.85,0,0,1-11.26-1L31.94,120a4,4,0,0,0,.21-1.08v-.18a3.83,3.83,0,0,0-.41-1.91l-.09-.18a3.83,3.83,0,0,0-.81-1.07l.71-.18,1.84-.37,2-.32,2.07-.25,2.11-.19,2.18-.12h0a20.48,20.48,0,0,0,6.11-1.06H48l1.39-.55c2.64-1,5.62-2.07,8.56-3s6.07-2,9.53-3c2.62-.77,5.37-1.57,8.17-2.34,6.76-1.87,13.67-3.62,20.75-5.42l29.15-7.21c5.17-1.25,11.34-2.7,17.92-4.12,9.88-2.15,19.08-3.85,28.14-5.23h.06a7.17,7.17,0,0,0,4.73-1.92l.14-.13.07-.06V80a2.88,2.88,0,0,0,.44-.54l.41-.18,1-.24,1.18-.29,1.38-.27,1.54-.23,1.67-.19L186,77.9l1.79-.09h3.52l1.65.09,1.52.13,1.34.18,1.26.23h0a20.79,20.79,0,0,0,3.61.32c.55,0,1.11-.07,1.66-.07h0c1.09-.08,2.2-.18,3.31-.18h4.17Zm243,52.93-.5,10.46-.5.23-1.16.37-1.51.36-1.81.3-2,.22-2.15.13a11,11,0,0,0-6.31,1.69,4,4,0,0,0-.79.7h0L436,146c-2.91,3.24-7.88,6.87-14.73,10.7-4.78,2.68-10,5.25-14.53,7.4l-27.18,12.45c-6.83,3.06-13.59,6-21.07,9-3.18,1.22-6.39,2.41-9.58,3.54-4.18,1.48-8.41,2.87-12.57,4.15-4.37,1.33-8.85,2.58-13.32,3.72l-.34.08V183.34l2.24-.52c4.62-1.11,9.25-2.33,13.76-3.62,4.3-1.24,8.65-2.6,13-4,3.3-1.09,6.6-2.25,9.82-3.43,7.68-2.88,14.58-5.69,21.57-8.62h0l27.37-11.79h0c4.65-2.09,10.08-4.59,15.09-7.23,7.47-4,12.83-7.62,16.4-11.23a3.8,3.8,0,0,1,1.85-.35h.49l2.38-.13h.16l2.24-.24h.2l2.05-.33h.24Zm-117,95.21c-4.32,1.44-8.74,2.79-13.17,4l-.19.06V217.54l2.26-.58c4.57-1.2,9.15-2.52,13.62-3.93,4.23-1.34,8.57-2.82,12.85-4.39,3.26-1.18,6.53-2.45,9.72-3.74,7.61-3.07,14.45-6.2,21.37-9.39h0l27.11-12.86h.05c4.62-2.29,10-5,15-7.91,7.41-4.32,12.74-8.33,16.28-12.27a3.26,3.26,0,0,1,1.65-.35h.51l2.36-.14h.19l2.23-.25h.21l2-.35.25,0,1.08-.26-.53,10.05-.5.25-1.13.4-1.47.38-1.75.25-2,.24-2.12.13a10.52,10.52,0,0,0-6.4,1.92l-.11.08L435,175c-.1.1-.19.18-.28.28l-.1.09-.1.13c-2.92,3.55-7.86,7.48-14.66,11.65-4.74,2.91-9.95,5.7-14.44,8l-26.9,13.47c-6.78,3.31-13.48,6.53-20.87,9.69-3.11,1.33-6.28,2.62-9.43,3.83C344.08,223.86,339.89,225.32,335.89,226.63ZM259.3,238.77l-225-74h-.06l-.27-3h0l-.55-6,223.29,69H257a60.66,60.66,0,0,0,12.45,1.32h.43c2.71,0,5.34-.25,7.09-.42l.74-.08h.06a12.58,12.58,0,0,1,5.24.49h0l2.25.71.27.07,2.51.57.25.05,2.71.44h.23l2.87.29h.22l2.94.13h3.38l2.87-.18h.22l2.8-.34h.23l2.65-.49a1.22,1.22,0,0,0,.26-.06l2.41-.61.31-.1,2.13-.74.15-.05v12.55l-.08.15-.47.46-1,.63-1.38.68-1.77.64-2.11.56-2.35.46-2.55.32-2.67.17h-2.72l-2.7-.13-2.61-.29-2.45-.42-2.21-.54-2.09-.69h0a19.35,19.35,0,0,0-8.38-.84h0l-.69.07q-3.15.36-6.33.4A49.24,49.24,0,0,1,259.3,238.77Z"/></svg>