<svg id="Artwork" xmlns="http://www.w3.org/2000/svg" viewBox="0 0 480 320"><defs><style>.cls-1{fill:#000;}</style></defs><path class="cls-1" d="M454.64,118.2l-.1-.41a3.75,3.75,0,0,0-.72-1.29l-.36-.4a3.36,3.36,0,0,0-.63-.55l-.56-.38a2.78,2.78,0,0,0-.47-.28l-.82-.38-1.25-.48-1.49-.37L298.3,75.86a34.69,34.69,0,0,0-10.41-.67c-13.78,1.15-27.7,3-41.38,5.4L79.27,111.19a440.93,440.93,0,0,0-48.61,11.6l-1.39.45-1.14.53a2.88,2.88,0,0,0-.49.29l-.63.44a5.17,5.17,0,0,0-.68.65l-.33.43a3.34,3.34,0,0,0-.68,1.47l-.06.3a3.23,3.23,0,0,0-.08.61l2,41.51v.33l0,.19a5.28,5.28,0,0,0,3.38,4L170,242.76l.29.14a28.82,28.82,0,0,0,10.66,2h0a27.57,27.57,0,0,0,5.15-.48,451,451,0,0,0,63.32-14.79l170.24-54.75a106.36,106.36,0,0,0,29.6-13.82,3.23,3.23,0,0,0,.92-.92l.53-.77a3.38,3.38,0,0,0,.58-1.61l3.52-38.41A3.48,3.48,0,0,0,454.64,118.2ZM296.74,82.54l147.35,37a106.67,106.67,0,0,1-23,8.53L248.72,175.65a505.25,505.25,0,0,1-63.27,12.66h-.15a26.08,26.08,0,0,1-12.48-1l-136.76-59a431.81,431.81,0,0,1,44.43-10.4L247.73,87.34c13.41-2.4,27.12-4.19,40.74-5.33A27.62,27.62,0,0,1,296.74,82.54ZM186.35,195.12a512.19,512.19,0,0,0,64.2-12.85L392.9,143l-.92,1.26a1.51,1.51,0,0,0-.18.26l-1.18,2c-.06.09-.11.18-.15.25l-1,2.09a1.34,1.34,0,0,0-.12.28l-.91,2.18a1.88,1.88,0,0,0-.12.3l-.73,2.31-.62,2.6,0,.18a1,1,0,0,0,0,.17l-.36,2.34v.21l-.16,2.29a1.36,1.36,0,0,0,0,.29v2.15a2.66,2.66,0,0,0,0,.4l.23,2.13a2.79,2.79,0,0,0,.06.33l.4,1.88a2.06,2.06,0,0,0,.12.46l.62,1.75a3.46,3.46,0,0,0,.17.43l.78,1.54a2.81,2.81,0,0,0,.29.46l.92,1.29a3,3,0,0,0,.41.49l1.07,1a2,2,0,0,0,.39.33L247.36,223.11A443.74,443.74,0,0,1,185,237.72a21.87,21.87,0,0,1-12-1.12L33.94,168l-1.6-33.87,137.92,59.49.2.08A33.26,33.26,0,0,0,186.35,195.12Zm212.4-24.27-.59-.73-.54-1-.46-1.27-.36-1.51-.19-1.7V162.8l.15-2,.32-2,.5-2.06.66-2,.8-1.92L400,151l1-1.65,1.13-1.48,1.15-1.2,1.13-.94,1.08-.68,1-.42.84-.19H408l.6.11.55.26.57.43.58.65.55.91.49,1.17.38,1.4L412,151l.1,1.72-.06,1.9-.24,2-.41,2-.57,2-.73,1.94-.9,1.75-.95,1.68-1,1.53-1.13,1.35L405,169.88l-1.11.85-1,.59-.92.34-.81.14h-.66l-.56-.15-.55-.3Zm16.41-3.32a2.55,2.55,0,0,0,.17-.32l.92-2.06a1.27,1.27,0,0,0,.1-.25l.83-2.23.7-2.43.54-2.54.3-2.58v-.22l.08-2.23-.11-2.31a1.93,1.93,0,0,0,0-.41l-.3-1.93a1.93,1.93,0,0,0-.09-.41l-.49-1.8a2.57,2.57,0,0,0-.14-.42l-.68-1.63a2.38,2.38,0,0,0-.23-.45l-.84-1.4a3.43,3.43,0,0,0-.36-.47l-1-1.13a3.9,3.9,0,0,0-.51-.48l-1.13-.85a3.5,3.5,0,0,0-.65-.39l-.34-.16-.63-.54,11.5-3.11a113.68,113.68,0,0,0,24.55-9.14L444.57,156a99.77,99.77,0,0,1-26.12,12.1l0,0-4.38,1.41ZM170.63,242Z"/><path class="cls-1" d="M314,173.72l-1.58,15.4a5.54,5.54,0,0,0,7.18,5.85l45.3-14.32a5.52,5.52,0,0,0,3.77-4.26l2.81-15a5.54,5.54,0,0,0-7-6.32l-46.53,14A5.54,5.54,0,0,0,314,173.72Z"/><ellipse class="cls-1" cx="241.24" cy="204.01" rx="7.81" ry="6.06" transform="translate(-16.08 387.33) rotate(-75.69)"/><ellipse class="cls-1" cx="266.31" cy="197.12" rx="7.81" ry="6.06" transform="translate(9.48 406.43) rotate(-75.69)"/><ellipse class="cls-1" cx="290.52" cy="190.69" rx="7.81" ry="6.06" transform="translate(33.94 425.06) rotate(-75.69)"/></svg>