<svg xmlns="http://www.w3.org/2000/svg" viewBox="0 0 480 320"><defs><style>.cls-1{fill:#000;}</style></defs><g id="Layer_1" data-name="Layer 1"><path class="cls-1" d="M239,168.79l-.47-.81a.58.58,0,0,0-.22-.22l-.71-.43a.63.63,0,0,0-.5-.07l-1.78.47a.7.7,0,0,0-.32.19l-.73.81a.57.57,0,0,0-.11.16l-.51,1.07a.49.49,0,0,0-.06.17l-.2,1.16a.67.67,0,0,0,0,.2l.15,1.06a.5.5,0,0,0,.09.24l.47.8a.63.63,0,0,0,.23.23l.73.43a.63.63,0,0,0,.33.09h.87a.59.59,0,0,0,.29-.07l.87-.46a.49.49,0,0,0,.18-.14l.75-.82a.57.57,0,0,0,.11-.16l.51-1.06a.49.49,0,0,0,.06-.17l.19-1.15a.67.67,0,0,0,0-.2l-.15-1.06A.48.48,0,0,0,239,168.79Z"/><path class="cls-1" d="M254.45,164.65l-.46-.79a.54.54,0,0,0-.22-.23l-.68-.43a.65.65,0,0,0-.51-.07l-1.74.46a.63.63,0,0,0-.31.19l-.72.8a.4.4,0,0,0-.1.15l-.51,1.06a.84.84,0,0,0,0,.17l-.2,1.14a.67.67,0,0,0,0,.2l.14,1a.68.68,0,0,0,.08.24l.46.8a.63.63,0,0,0,.23.23l.7.42a.56.56,0,0,0,.33.1h.86A.74.74,0,0,0,252,170l.85-.44a.86.86,0,0,0,.18-.14l.73-.81a.57.57,0,0,0,.11-.16l.5-1.05a.49.49,0,0,0,.06-.17l.19-1.14a.61.61,0,0,0,0-.19l-.14-1A.77.77,0,0,0,254.45,164.65Z"/><path class="cls-1" d="M269.56,160.63l-.43-.78a.64.64,0,0,0-.22-.24l-.66-.42a.68.68,0,0,0-.52-.08l-1.69.45a.7.7,0,0,0-.32.19l-.7.79-.1.15-.49,1a.49.49,0,0,0-.06.17l-.2,1.13a.61.61,0,0,0,0,.19l.13,1a.63.63,0,0,0,.08.23l.44.79a.63.63,0,0,0,.23.23l.68.43a.67.67,0,0,0,.34.09h.83a.59.59,0,0,0,.29-.07l.83-.44a.49.49,0,0,0,.18-.14l.72-.8a.4.4,0,0,0,.1-.15l.49-1a.44.44,0,0,0,.06-.16l.2-1.13a.61.61,0,0,0,0-.19l-.13-1A.68.68,0,0,0,269.56,160.63Z"/><path class="cls-1" d="M284.24,156.72l-.42-.78a.64.64,0,0,0-.22-.24l-.64-.41a.68.68,0,0,0-.52-.09l-1.64.44a.6.6,0,0,0-.32.2l-.68.77a.33.33,0,0,0-.11.15l-.48,1-.06.16L279,159a.61.61,0,0,0,0,.19l.13,1a.62.62,0,0,0,.07.23l.42.78a.59.59,0,0,0,.23.24l.66.42a.67.67,0,0,0,.34.1h.8a.63.63,0,0,0,.3-.07l.81-.43a.62.62,0,0,0,.18-.14l.7-.79.11-.15.48-1a.49.49,0,0,0,0-.17l.2-1.1V158l-.12-1A.85.85,0,0,0,284.24,156.72Z"/><path class="cls-1" d="M449.12,112.79l-.26-.69a.56.56,0,0,0-.17-.26l-.43-.38a.65.65,0,0,0-.6-.14l-1.18.31a.57.57,0,0,0-.33.22l-.52.63a.42.42,0,0,0-.09.14l-.39.87a.58.58,0,0,0,0,.14l-.19.94a.43.43,0,0,0,0,.16v.88a.34.34,0,0,0,0,.2l.26.69a.68.68,0,0,0,.18.26l.44.39a.71.71,0,0,0,.4.16h.56a.72.72,0,0,0,.32-.08l.59-.34a.65.65,0,0,0,.18-.15l.53-.65.09-.14.39-.86V115L449,114v-1A.71.71,0,0,0,449.12,112.79Zm-1.39,1.85-.28.7-.4.49-.32.18h-.14l-.15-.13-.17-.44v-.7l.16-.79.33-.72.33-.41.63-.17.22.49v.69Z"/><path class="cls-1" d="M402.18,120.09c-.05-.15-.1-.29-.16-.43a2.42,2.42,0,0,0-.21-.39,2.91,2.91,0,0,0-.26-.33,1.42,1.42,0,0,0-.3-.25,1.34,1.34,0,0,0-.31-.17,1,1,0,0,0-.33-.07,1.61,1.61,0,0,0-.31,0l-98.11,25.44a1.2,1.2,0,0,0-.37.15,1.3,1.3,0,0,0-.31.26,2.24,2.24,0,0,0-.27.34,2.74,2.74,0,0,0-.21.42,2.64,2.64,0,0,0-.14.48,4.54,4.54,0,0,0-.09.51,4.69,4.69,0,0,0,0,.53,4.69,4.69,0,0,0,0,.53,34.1,34.1,0,0,1,.36,3.77l-.23,5.47a26.14,26.14,0,0,1-.65,3.4,2.36,2.36,0,0,0-.08.45,2.67,2.67,0,0,0,0,.4,1.93,1.93,0,0,0,0,.34,1.48,1.48,0,0,0,.12.29.91.91,0,0,0,.18.21.55.55,0,0,0,.24.12.81.81,0,0,0,.31,0,1,1,0,0,0,.35-.06l97.69-26.94a1.33,1.33,0,0,0,.33-.13l.34-.2c.12-.09.24-.18.35-.28l.33-.32c.11-.12.21-.24.31-.37l.27-.4a4.11,4.11,0,0,0,.21-.42,3.69,3.69,0,0,0,.17-.42,23.56,23.56,0,0,0,.73-3.12l.36-5a29.93,29.93,0,0,0-.26-3.41A1,1,0,0,0,402.18,120.09Z"/><path class="cls-1" d="M470,82.1a2.85,2.85,0,0,0-.29-.75l-.3-.52a2.26,2.26,0,0,0-.54-.65l-.6-.53a3.6,3.6,0,0,0-.4-.28l-.9-.52-.27-.14-1.16-.5-.2-.08-1.41-.48h-.15l-1.63-.45H462l-1.83-.41h-.1L458,76.34,455.8,76l-2.26-.26-2.3-.2-2.32-.12-2.28-.09H445a2.31,2.31,0,0,0-.71-.38c-48.67-16.19-72.8-20.68-132.31-29.62a.67.67,0,0,0-.12-.26l-.23-.38A2.45,2.45,0,0,0,311,44l-.48-.38a2.44,2.44,0,0,0-.43-.28l-.73-.38-.27-.12-1-.36-.2-.06-1.17-.34h-.14l-1.37-.31h-.11l-1.61-.35-1.75-.24-1.85-.2-1.92-.15-2-.11-2,0h-3.84l-1.81.11-1.6.16h-.11l-1.44.2H285l-1.27.24h-.17l-1.06.28-.25.07-.84.31a2.53,2.53,0,0,0-.37.18l-.61.34a2.56,2.56,0,0,0-.59.45l-.35.36a2.51,2.51,0,0,0-.27.37l-3.73.61h-.09a11.62,11.62,0,0,0-3.78,1.38l-225.47,37a8.72,8.72,0,0,0-3.9-.3h0l-3.92.64h-.07l-2.37-.14-2.43-.07H31l-2.5.09L26,83.14l-2.41.25-2.19.31h-.11l-2,.37h-.12l-1.84.43h-.15l-1.7.58-.19.07-1.35.52-.26.12-1,.55a1.92,1.92,0,0,0-.38.25l-.75.57a2.22,2.22,0,0,0-.52.54l-.43.58a2.44,2.44,0,0,0-.41,1,2.52,2.52,0,0,0-.29,1.29L12,135.92v.38a1.6,1.6,0,0,0,0,.21,1.65,1.65,0,0,0,.07.32l.26.68a2.62,2.62,0,0,0,.51.83l.59.64a2.47,2.47,0,0,0,.49.42l.91.6a2.64,2.64,0,0,0,.37.2l1.22.56.27.1,1.51.49.21.06,1.77.42h.16l2,.34h.14l2.19.25h.12l2.33.16h.11l2.43.06h3.53a59.81,59.81,0,0,0-9.33,1.09h-.09l-2,.46h-.15l-1.8.54-.18.06-1.57.59-.22.1-1.32.64-.29.16-1,.68a2.85,2.85,0,0,0-.38.31l-.72.7a2.51,2.51,0,0,0-.45.58l-.41.72a2.4,2.4,0,0,0-.32,1,2.51,2.51,0,0,0-.22,1.15l2.08,43.69v.51h0a.57.57,0,0,0,.06.31l.26.79a2.65,2.65,0,0,0,.41.78l.58.76a2.79,2.79,0,0,0,.46.45l.91.71a1.85,1.85,0,0,0,.37.25l1.21.64a1,1,0,0,0,.3.14l1.49.57.23.08,1.74.48.19,0,2,.39h.16l2.15.28h.14l2.29.17h.13l2.39.06H34C78.56,234.94,124.21,253,154.62,265v3.71a3,3,0,0,0,.07.52l.3,1.17a2.44,2.44,0,0,0,.28.69l.68,1.15a2.74,2.74,0,0,0,.36.48l1.06,1.09a2.43,2.43,0,0,0,.34.3l.19.14.27.24,1.11.77a2.26,2.26,0,0,0,.26.16l1.73.93.26.12,2,.81.22.08,2.29.69h.19l2.51.55h.18l2.67.4h.16l2.79.24h.16l2.85.08h.15l2.86-.09h.15l2.8-.25h.16l2.7-.42h.17l2.53-.56.19-.05,2.33-.7.21-.08,2.07-.82.24-.11,1.79-.94.27-.17,1.38-.95.15-.13h.06l.34-.28,1.11-1.1a2.11,2.11,0,0,0,.36-.43l.74-1.15a2.53,2.53,0,0,0,.31-.64l.2-.65a2.59,2.59,0,0,0,.33-.64h.36a2.4,2.4,0,0,0,.84-.15L442.61,186.5l1.36.09h.11l2.21.06h2.43l2-.14h.14l1.87-.25h.17l1.67-.34.22,0,1.45-.42.27-.1,1.19-.49.37-.19.92-.56a4.06,4.06,0,0,0,.46-.36l.63-.62a2.52,2.52,0,0,0,.51-.7l.33-.66a2.63,2.63,0,0,0,.23-.72l.05-.26v-.21l3.71-40.69a6.92,6.92,0,0,0-.35-1.8l-.29-.63a2.42,2.42,0,0,0-.45-.69l-.58-.63a2.57,2.57,0,0,0-.39-.35l-.87-.63a1.75,1.75,0,0,0-.29-.18l-1.14-.62-.22-.1-1.38-.58-.18-.07-1.59-.54H457l-1.78-.49h-.13l-1.94-.44h-.11l-2.06-.37h-.1l-2.24-.31-2.29-.23-2-.13,1.17-.33,3.36.25,2.26.06h2.38l2.06-.12h.12l1.89-.19h.15l1.7-.28h.18l1.47-.35.24-.07,1.21-.41a2.41,2.41,0,0,0,.33-.15l.93-.47a3,3,0,0,0,.48-.31l.63-.53a2.34,2.34,0,0,0,.59-.7l.33-.56a2.33,2.33,0,0,0,.3-.81l0-.22a.24.24,0,0,1,0-.12v-.14l3.94-42.31A2.63,2.63,0,0,0,470,82.1Zm-29-1.33,1.75-.14,1.87-.08h4.12l2.16.12,2.15.19,2.1.24,2,.3,1.94.35,1.71.39,1.47.41-1.37.18-1.79.15-1.91.08h-2.1l-2.19-.06-2.23-.12-2.19-.14-2.15-.25-2.06-.31-1.95-.38-1.72-.4L439.4,81ZM307.32,50.64h.18l1.05-.3a1.14,1.14,0,0,0,.26-.09l.16-.06c57.16,8.56,81.77,12.94,125.13,27l-.16.08-.68.43a2.9,2.9,0,0,0-.62.54l-.38.47a1.83,1.83,0,0,0-.28.44.61.61,0,0,0-.18.46,1.93,1.93,0,0,0-.11.34l-.05.33L306.45,50.81ZM294,45.84h1.83l3.59.24,1,.1h-5.25l-1.87-.1L291.45,46l-.86-.09Zm-14.42,4L432.28,85.7l-229,53.92L56.22,86.34Zm-70,100.26,1.67,2.12,1.56,2.4,1.4,2.63,1.22,2.81,1,3,.8,3,.57,3.08.32,3.07.08,3-.17,2.87-.41,2.7-.63,2.47-.83,2.22-1,1.92L214,189l-1.25,1.27-1.32.94-1.47.67-.35.11-5.48,1.55a2.58,2.58,0,0,0-1.36.93l-.18-49.06a4.34,4.34,0,0,0,0-.51l1.66.76,1.8,1.14,1.79,1.49ZM196,217.52l-.1.14-.75.64L194,219l-1.55.71-1.9.66-2.18.57-2.42.47-2.59.34-2.72.21-2.77.07-2.76-.08-2.7-.21-2.57-.34-2.39-.47-2.14-.58-1.84-.66L162,219l-1.13-.67-.67-.61-.29-.42,0-.18.15-.41.45-.53.86-.66,1.24-.71,1.61-.68,1.9-.63,2.16-.54,2.37-.43,2.51-.31,2.62-.19,2.66-.06,2.65.07,2.6.2,2.48.32,2.32.44,2.11.54,1.84.62,1.53.68,1.17.7.77.63.26.34a2.34,2.34,0,0,0-.12.74Zm-5.21-15.45-2.22.55-2.46.45-2.63.32-2.76.2-2.81.07-2.81-.08-2.78-.24-2.61-.34-2.43-.45-2.18-.56-1.88-.65-1.52-.69-1.11-.68-.68-.59-.27-.39-.08-.28-.14-47.58.14.07,1.8.7.21.07,2.12.62h.16l2.39.53h.14l2.61.43h.13l2.78.32h.12l2.9.2h.11l3,.07h3.22l2.91-.16h.12l2.8-.29h.12l2.64-.4H190l2.42-.5h.17l2.15-.59.2-.07,1.85-.68.26-.1.41-.21.16,44.58a2.58,2.58,0,0,0-.84,1.88v1.09l-.11.35-.34.43-.75.62-1.19.7-1.58.68Zm-31-56.79.26-.25.88-.55,1.3-.59,1.67-.57,2-.52,2.24-.44,2.44-.35,2.61-.25,2.69-.14h2.75l2.74.07,2.69.18,2.56.28,2.41.38,2.19.47,1.92.53,1.6.59,1.22.59.79.53.15.16-.84.62-1.21.6-1.63.59-2,.54-2.26.47-2.51.38-2.68.28L181,149h-2.86l-2.86-.07-2.79-.2-2.66-.3-2.48-.4-2.22-.5-1.93-.56-1.56-.61-1.14-.6-.67-.5ZM46.16,94.34l.21-.07,1.3-.54.29-.14L49,93a3.19,3.19,0,0,0,.42-.3l.66-.58a2.48,2.48,0,0,0,.55-.66l.34-.59a2.7,2.7,0,0,0,.28-.78l127.87,46.32h-3.47l-2.81.15h-.11l-2.71.26h-.12l-2.57.36h-.14l-2.38.46h-.15l-2.17.67-.18,0-1.89.65a.92.92,0,0,0-.23.09l-1.57.71a1.87,1.87,0,0,0-.31.17l-.24.14c-12.54-3.11-73.86-19-121.33-43.92l1.38-.15,2.23-.32h.11l2-.42h.13l1.87-.5h.16ZM27.52,137.42l-2.22-.15L23.24,137l-1.79-.31-1.64-.38-1.28-.41-.9-.41-.46-.3L15.26,95.14l1.11.31h.18l1.78.37h.14l2,.3h.11l2.2.22h.11l2.44.15H26.9a2.78,2.78,0,0,0,.72.6l.94,40.23Zm3.19-46a2.11,2.11,0,0,0-.61-.06,2.8,2.8,0,0,0-.58.09H27.93l-2.35-.11-2.3-.14L21.19,91l-1.88-.28-1.63-.34-.92-.25,1.69-.51,1.7-.39,1.92-.36,2.05-.29,2.26-.23,2.31-.16L31,88.09h2.33l2.28.06,2.17.13,2.09.2,1.84.27,1.61.31,1.17.31-1.42.45-1.65.4-2,.37-2.07.3-2.28.25-2.33.2Zm2.2,8.68c45.65,24.24,104.54,40.15,121.43,44.46a2.55,2.55,0,0,0-.15.86l.17,45.85c-26-6.94-78.1-29.12-120.59-54.36Zm-2.75,97.24L28,197.18l-2-.27-1.79-.35-1.53-.43-1.23-.47-.87-.46-.47-.37-.11-.15h0l-1.82-38.09.89.3.21.07,1.76.43h.17l2,.35h.15l2.16.26h.13l2.3.16h1.24a2.73,2.73,0,0,0,.47.35l.85.46,1.28,38.37ZM32.88,153H30.53L28.24,153l-2.18-.16-2-.24-1.82-.32-1.56-.39-1.23-.38-.86-.41.45-.3,1.06-.51,1.37-.52,1.64-.49,1.85-.43a54.82,54.82,0,0,1,13.59-.95,2.57,2.57,0,0,0,2.15-1c2,1.16,4.1,2.31,6.18,3.45l-.24.12-1.32.53-1.62.5-1.86.45-2.05.39-2.21.31-2.3.23Zm5.57,46.32A2.57,2.57,0,0,0,37,197.57L35.82,162c40.91,22.48,93.53,48,118.68,55.08v.16l.16,42.26C124.78,247.69,81.08,230.08,38.45,199.34Zm120.14,11.74a2.11,2.11,0,0,0-.31.21l-1.21.94-.08.07-.08,0c-23.38-6.32-76.34-31.74-118-54.6l1.65-.23h.12l2.19-.42H43l2-.49h.15l1.79-.56.19-.07,1.54-.61.24-.11,1.27-.66a2.23,2.23,0,0,0,.27-.26l1-.69a2.92,2.92,0,0,0,.38-.32l.14-.16c38.76,20.82,80.58,37.92,102.44,43.52v2.65a3.16,3.16,0,0,0,.11.6l.3,1a2.6,2.6,0,0,0,.36.75l.7,1a3,3,0,0,0,.41.46l1.08.94a2.88,2.88,0,0,0,.35.26l1.44.88a1.59,1.59,0,0,0,.29.15l1.78.81.24.09,2.09.72.19.05,2.36.61h.16l.89.16h-.11l-2.33.57-.19.06-2.1.69-.22.08-1.84.78-.26.13ZM196,267.92l-.18.75-.4.6-.76.75-1.15.81-1.53.8-1.86.74L188,273l-2.37.53-2.55.39-2.67.24-2.72.09-2.72-.07-2.65-.23-2.53-.38-2.34-.51-2.1-.64-1.8-.72-1.46-.79-1.08-.78-.69-.71-.33-.56-.14-.54v-5.15l-.15-39.47,1.64.78.24.1,2.07.74.2.06,2.33.62h.17l2.55.51h.16l2.72.37h.14l2.84.23h.13l2.9.08H178l2.9-.07H181l2.86-.22H184l2.74-.36h.15l2.58-.49h.16l2.37-.62.19-.06,2.11-.73.23-.1.33-.15a1.32,1.32,0,0,0,.08.14.66.66,0,0,0,.92.06l.21-.19.16,42.86a2.31,2.31,0,0,0-.2.63Zm-2.3-61.32.71-.26.22-.09,1.84-.79.27-.14,1.5-.88a4,4,0,0,0,.34-.23l1.14-.94a2.59,2.59,0,0,0,.4-.41l.76-1a2.73,2.73,0,0,0,.34-.6,2.61,2.61,0,0,0,1.49-2.36v-1.3a2.64,2.64,0,0,0,2.06,1,2.37,2.37,0,0,0,.7-.1l210.23-59.42,13.71,4-226.91,67.4Zm241-96a3,3,0,0,1,.58.33,4.33,4.33,0,0,1,1.17,1.23,6.43,6.43,0,0,1,.54,1,8.28,8.28,0,0,1,.42,1.18,10.94,10.94,0,0,1,.25,1.39,12.75,12.75,0,0,1,.09,1.51,11.06,11.06,0,0,1-.08,1.59c-.08.59-.14,1.09-.25,1.63s-.25,1.09-.41,1.63a16.16,16.16,0,0,1-.55,1.57c-.21.51-.44,1-.69,1.49a14.24,14.24,0,0,1-.8,1.36,14.73,14.73,0,0,1-.89,1.19,11.12,11.12,0,0,1-.94,1c-.17.15-.34.27-.51.4l-.12.09c-.11.08-.21.18-.32.25a4.93,4.93,0,0,1-.9.5,4.09,4.09,0,0,1-.83.29,6.07,6.07,0,0,1-.84.12,1.82,1.82,0,0,1-.57,0,1.58,1.58,0,0,1-.31-.09h-.14l-.64-.32-.49-.47-.49-.75-.44-1-.32-1.3-.17-1.51v-1.66l.18-1.77.36-1.79.54-1.78.69-1.68.82-1.54.91-1.34,1-1.11,1-.84.89-.56,1-.5.19-.1.61.15h0Zm-7.65,25.86v.25a1.31,1.31,0,0,0,0,.28l-1.86-.53.22-.12.68.08h1Zm-.38-27.83L425.54,110l-.19.24-.76,1.13a.86.86,0,0,1,.09-.27,8,8,0,0,1,.58-1.26,3.74,3.74,0,0,1,.58-.79,2.69,2.69,0,0,1,.41-.33,1.57,1.57,0,0,1,.42-.18h.14ZM216.81,249l-.39,2.52-.61,2.29-.79,2-1,1.7L213,258.84l-1.17,1.06-1.28.78-.84.35a2.55,2.55,0,0,0-.46.25L201.36,264l-.17-45.23.19-.52a2.64,2.64,0,0,0,.14-.92v-1a3.2,3.2,0,0,0-.09-.62l1.81,1L205,218l1.78,1.6,1.73,1.91,1.64,2.19,1.53,2.44,1.37,2.65,1.2,2.8,1,2.93.78,3,.56,3,.31,3,.07,2.87Zm235.26-80.61-.31,2.1-.52,2-.72,1.84-.9,1.66-1.07,1.4-1.2,1.23-1.33,1-1.46.8-.91.36-2.15.73h-.05L219.88,257.63l.83-2.11a1.4,1.4,0,0,0,.09-.29l.68-2.56.06-.27.43-2.78v-.24l.17-2.95v-.22l-.08-3.08v-.21l-.34-3.16v-.2l-.59-3.19v-.18L220.3,233l-.06-.19-1.06-3.1a1.34,1.34,0,0,0-.07-.18l-1.27-3-.09-.18-1.46-2.82-.11-.18-1.63-2.62-.13-.18-1.78-2.38-.15-.19-1.9-2.09-.19-.19-1.79-1.61,230.05-68.34,1.15.41,1.78.89,1.73,1.15L445,149.6l1.54,1.6,1.4,1.79,1.23,2,1.05,2.1.84,2.2.62,2.26.39,2.28.15,2.27Zm4.07,11.45-.56.37-.87.36-1.2.35-1.36.27.25-.25a3.11,3.11,0,0,0,.23-.28l1.28-1.74a2.9,2.9,0,0,0,.19-.29l1.06-2a1.55,1.55,0,0,0,.14-.29l.84-2.14a1.11,1.11,0,0,1,.1-.29l.6-2.29a2.93,2.93,0,0,0,.05-.29V171Zm3.21-35.28-2,22.07v-.69l-.17-2.54a1.13,1.13,0,0,0,0-.26l-.43-2.54-.06-.25-.69-2.51a2.17,2.17,0,0,0-.07-.24l-.94-2.44a.64.64,0,0,0-.1-.23l-1.16-2.32a1.71,1.71,0,0,0-.13-.23l-1.37-2.18-.15-.21-.28-.37a.64.64,0,0,0-.22-.55l-.18-.16-.16-.17h0a.61.61,0,0,0-.28-.19l-.41-.53-.18-.2-1.73-1.8-.21-.19-.36-.31,1.93.05h2.37l2-.12h.14l1.87-.2h.15l1.68-.29h.2Zm-13.3-8.17,2.09.21,2.09.29,2,.35,1.82.41,1.66.46,1.44.49,1.17.49.44.24-1.52.42-1.5.26-1.73.19-1.91.11h-2L448,140.2l-2.11-.13-2.2-.23-2.1-.3-2-.36-1.84-.43-1.66-.47-1.41-.5-1.14-.51-.22-.13,1.7-.45,1.49-.25,1.7-.18,1.86-.1h2l2,.05Zm9.55-19.11-.94,1.79-1.12,1.59L452.28,122l-1.39,1.14-1.48.89-1.64.68-.43.13-6.48,1.83a9.37,9.37,0,0,0,.44-1c.27-.66.51-1.35.72-2a19.52,19.52,0,0,0,.52-2.1c.14-.7.25-1.42.32-2.13s.11-1.42.11-2.12a18.52,18.52,0,0,0-.12-2.11,19.53,19.53,0,0,0-.37-2,14.19,14.19,0,0,0-.66-2,11.59,11.59,0,0,0-1-1.83,10.12,10.12,0,0,0-1.15-1.46,8.79,8.79,0,0,0-1.35-1.16,7.32,7.32,0,0,0-1.87-1c-.16-.06-.33-.09-.5-.14a2.75,2.75,0,0,0-.45-.17l-4.05-1.08a12.22,12.22,0,0,0-2.36-.9,8.19,8.19,0,0,0-3.78.06,7.13,7.13,0,0,0-3.17,1.87,9.27,9.27,0,0,0-1.39,1.84,13.55,13.55,0,0,0-.95,2,19.3,19.3,0,0,0-.61,2c-.19.76-.33,1.32-.48,2.08s-.24,1.32-.35,2-.2,1.38-.29,2.08c-.06.51-.11,1-.18,1.63l-.38,4.9V124c0,.77-.05,1.55-.05,2.24s0,1.33.06,1.91a14.42,14.42,0,0,0,.25,1.73,7.14,7.14,0,0,0,.5,1.5,5.12,5.12,0,0,0,.94,1.32L415,133.9h-.14l-194.74,55,.65-1.24c0-.1.09-.2.13-.3l.93-2.5a1.43,1.43,0,0,0,.09-.27l.69-2.74v-.25l.45-2.94v-.24l.19-3.1v-.22l-.08-3.21v-.2l-.35-3.27a.67.67,0,0,0,0-.2l-.6-3.28v-.19l-.85-3.24-.06-.18-1.08-3.15-.08-.18-1.3-3-.09-.19L217.28,152l-.11-.19-1.72-2.46-.14-.19-1.83-2.32c0-.07-.11-.13-.17-.2l-1.94-2-.21-.2-1.19-1,233.6-55.09,1.42.44,1.76.81,1.7,1.11L450.09,92l1.53,1.55,1.4,1.77,1.23,2,1.05,2.1.84,2.21.62,2.3.39,2.34.15,2.35-.09,2.3-.32,2.23-.54,2.11Zm5.58,7.18-.41.22-.91.31-1.25.3-1.53.25-1.07.11,1.47-1.59.22-.27,1.31-1.87a2.61,2.61,0,0,0,.17-.28l1.09-2.07a1.43,1.43,0,0,0,.13-.28l.86-2.25a1.31,1.31,0,0,0,.09-.28l.62-2.4a2.74,2.74,0,0,0,0-.28l.3-2.06Zm1.27-13.6.08-2.16v-.31l-.17-2.6v-.26l-.43-2.59-.06-.26-.68-2.54a1.83,1.83,0,0,0-.08-.25l-.93-2.46a2.56,2.56,0,0,0-.11-.24l-1.16-2.33a1.71,1.71,0,0,0-.13-.23l-1.43-2.14-.16-.22-.41-.51a.61.61,0,0,0-.18-.27l-.09-.08-.89-1.12a2,2,0,0,0-.19-.22l-1.73-1.76-.09-.08h3.7l2.06-.09h.08l1.9-.16h.13l1.7-.22h.16l1.18-.24Z"/></g></svg>