<svg id="Artwork" xmlns="http://www.w3.org/2000/svg" viewBox="0 0 480 320"><defs><style>.cls-1{fill:#000;}</style></defs><polygon class="cls-1" points="338.65 163.5 339.06 164.89 339.66 166.05 340.42 166.99 341.33 167.65 342.35 168.03 343.47 168.1 344.62 167.87 381.61 156.12 382.66 155.65 383.72 154.91 384.72 153.93 385.65 152.75 386.48 151.39 387.18 149.89 387.74 148.31 388.14 146.67 388.35 145.05 389.17 134.97 389.2 133.39 389.06 131.9 388.74 130.56 388.23 129.39 387.59 128.46 386.79 127.77 385.89 127.34 384.89 127.21 383.85 127.35 346.53 137.75 345.34 138.23 344.17 139 343.04 140.03 342 141.29 341.09 142.75 340.31 144.36 339.71 146.06 339.3 147.82 339.09 149.57 338.44 160.28 338.44 161.95 338.65 163.5"/><path class="cls-1" d="M452.4,96.73l-.22-.91a3.12,3.12,0,0,0-.29-.79l-.48-.88a3.11,3.11,0,0,0-.36-.59l-.76-.92q-.15-.18-.33-.36l-1-.9a2.09,2.09,0,0,0-.3-.25l-1.27-.92-1.73-1.09-1.95-1.05-2.05-1-1.87-.76-.06-.19L436.82,85l-2.62-.85-2.78-.82-2.92-.78-3-.74L279.11,48.42a200.76,200.76,0,0,0-65.93-2.14L58.65,69.54l-3.2.52-3.09.57-3,.6-2.79.65L44,72.59l-2.49.75-2,.7h-.13l-2,.84h-.16l-2,.89-1.79,1-1.58,1-1.35,1.11c-.11.1-.22.2-.33.32l-.84.93a4.62,4.62,0,0,0-.36.48l-.56.91a3.06,3.06,0,0,0-.35.73l-.3.9a3.17,3.17,0,0,0-.18,1v.37a3,3,0,0,0,0,.6l2,39.72a2.06,2.06,0,0,0,0,.48l.18,1a2.75,2.75,0,0,0,.24.81l.49,1.11a3.57,3.57,0,0,0,.34.59l.75,1a3.55,3.55,0,0,0,.4.47l1,1,.32.28,1.35,1,1.45.88-1.83,1.41L33,136.16a3,3,0,0,0-.33.36l-.78,1.08a2.65,2.65,0,0,0-.3.5L31,139.22a3.35,3.35,0,0,0-.22.63l-.29,1.1a3.08,3.08,0,0,0-.1.8v.47a3.2,3.2,0,0,0,0,.62l1.92,38.26v.55l.27,1.47a6,6,0,0,0,.19.61l.52,1.22a4.44,4.44,0,0,0,.27.53l.78,1.21c.1.14.21.28.31.4l1.05,1.2a3.45,3.45,0,0,0,.29.27l1.36,1.21,1.82,1.3,2.15,1.27,133.55,71.79,3.07,1.54,3.44,1.51,3.71,1.37L189,269.8l4.25,1.18,4.3,1L202,273l4.62.78,4.72.65,4.8.49,4.86.35,4.91.21,4.91.05,4.89-.1,4.85-.24,4.78-.39,4.63-.53,4.56-.68,4.41-.82,4-.89,4-1,3.79-1.16,3.84-1.35,155.76-60.92,2.17-.91,2.13-1.09a1.15,1.15,0,0,0,.28-.16l1.66-1a1.69,1.69,0,0,0,.3-.21l1.46-1.14,1.44-1.41c.1-.11.2-.22.29-.34l.92-1.21a2.53,2.53,0,0,0,.31-.49l.64-1.26a4.73,4.73,0,0,0,.22-.58l.35-1.24a2.71,2.71,0,0,0,.1-.51l3.92-39.11a3.12,3.12,0,0,0,0-.52v-.3a2.92,2.92,0,0,0,0-.78l-.19-1.16a3.69,3.69,0,0,0-.19-.67l-.47-1.17a3.33,3.33,0,0,0-.25-.5l-.76-1.23-1.25-1.52L442,147.42l-.52-.43.69-.38,1.68-1.06a2.46,2.46,0,0,0,.34-.25l1.17-1a3.51,3.51,0,0,0,.34-.33l.92-1a3.43,3.43,0,0,0,.38-.52l.62-1.06a3.13,3.13,0,0,0,.3-.68l.34-1.08a3.52,3.52,0,0,0,.12-.52l.05-.37a1.79,1.79,0,0,0,0-.23l4-40c0-.16,0-.33,0-.49l0-.28A3.1,3.1,0,0,0,452.4,96.73ZM277.7,55,423.9,88.47l2.92.7,2.73.74,2.6.76,2.42.79,2.27.82,2,.82,1.79.83,1.53.81,1.27.79,1,.74.73.68.39.51.16.3v0l-.17.25-.45.44-.81.58-1.09.61-1.47.65-1.79.65-2.1.62L277.29,145.15l-3.5.91-3.76.8-4,.73-4.21.63-4.4.55-4.57.45-4.7.34-4.8.25-4.88.13h-4.94l-5-.07-5-.18-4.9-.28-4.84-.4-4.75-.49-4.57-.59-4.46-.68-4.28-.77-4.08-.84-3.85-.91-3.59-1L181,142.69l-3.06-1.11L39.6,87.93l-1.72-.73-1.35-.68-1.08-.69-.7-.57-.37-.42-.1-.17.18-.29.46-.49.75-.61,1-.66L38,81.9l1.61-.73,1.79-.71,2-.7,2.28-.68,2.47-.66,2.66-.64,2.8-.58,2.93-.54,3.11-.5L214.12,53A193.61,193.61,0,0,1,277.7,55ZM439.93,156.16l-.11.36-.28.5-.52.61-.82.72-1.08.74-1.44.8-1.72.78-2,.76L274.32,215l-3.44,1.09-3.6,1-3.87.91-4.08.79-4.26.67-4.43.57-4.56.44-4.66.32-4.75.19-4.78.06-4.81-.06-4.79-.19-4.76-.31-4.7-.44-4.56-.57-4.48-.67-4.31-.78-4.15-.92-3.94-1-3.78-1.1-3.48-1.16-3.22-1.23-3-1.31L42.62,147.18l-1.69-.88-1.32-.82-1.06-.81-.7-.72-.45-.61-.22-.45-.07-.34v-.31l.1-.36.25-.53.49-.66.71-.73,1.06-.89,1.24-.85,1.53-.89.85-.41,131.93,60,3.13,1.33,3.54,1.31,3.9,1.23,4,1.12,4.2,1,4.4.92,4.56.81,4.69.68,9.7,1.12,5,.32,5,.19,5,.08,5-.07,5-.18,4.88-.32L252,206l4.62-.57,4.51-.67,4.34-.8,4.13-.93,3.67-.94,3.89-1.13L433.9,150l.9.51,1.46,1,1.21.94,1,1,.75.77.42.68.22.53.07.44Zm-16.25-13a10.65,10.65,0,0,1-1,1c-.32.3-.65.59-1,.85a8.61,8.61,0,0,1-1,.62,7.22,7.22,0,0,1-.88.44,7.41,7.41,0,0,1-.77.24,4.83,4.83,0,0,1-.8.11,3,3,0,0,1-.51,0l-.55-.13-.63-.32-.44-.38-.49-.62-.47-.87-.41-1.12-.33-1.35-.29-1.59-.06-1.63.08-1.82.24-1.89.38-1.92.53-1.91.66-1.85.79-1.78.88-1.63.95-1.48,1-1.31,1-1.06,1-.84.91-.58.77-.35.65-.14h.69l.44.08a1.6,1.6,0,0,1,.45.2,4.94,4.94,0,0,1,.65.44,5.66,5.66,0,0,1,.6.6,6.53,6.53,0,0,1,.56.77,8.91,8.91,0,0,1,.5,1,9.25,9.25,0,0,1,.4,1.19,12.83,12.83,0,0,1,.3,1.38c.07.53.13,1,.16,1.53a10,10,0,0,1,0,1.55c0,.26,0,.51,0,.77s0,.65-.06,1c-.07.59-.14,1.17-.24,1.78s-.21,1.12-.37,1.77-.31,1.16-.5,1.78c-.06.21-.12.41-.17.6a9.35,9.35,0,0,1-.34,1.06c-.21.53-.46,1.08-.72,1.61s-.53,1-.82,1.52-.59,1-.87,1.39A13.62,13.62,0,0,1,423.68,143.17Zm-386.62-49L175.5,147.86l3.18,1.15,3.71,1.14,3.83,1,8.31,1.85,4.47.8,4.61.71,4.78.61,4.89.5,5,.41,5.06.29,5.09.19,5.09.07h5.09l5-.14,5-.25,4.86-.36,4.72-.46,4.56-.56,4.4-.67,4.19-.76,4-.85,3.69-.93L410.37,116l-.17.18L409,117.59a2,2,0,0,0-.28.35l-1.17,1.63-1.25,2.11-1.06,2.15-.88,2.2a2.24,2.24,0,0,0-.12.29l-.68,2.14-.54,2.41-.38,2.49a2.09,2.09,0,0,0,0,.25l-.18,2.08a1.17,1.17,0,0,0,0,.27v2a2.16,2.16,0,0,0,0,.36l.16,1.9v.25l.34,1.91a2.84,2.84,0,0,0,.1.44l.53,1.69.79,1.8a2.79,2.79,0,0,0,.26.45l.78,1.19a2.89,2.89,0,0,0,.39.5l.91,1a3.17,3.17,0,0,0,.52.45l.46.32a3.09,3.09,0,0,0,.64.45,2.92,2.92,0,0,0,.61.31l.13.06L275.28,194.5l-3.46,1.05-3.65.91-3.91.86-4.11.75-4.3.65-4.47.54-4.57.42-4.69.3-4.78.19-4.84.06-4.84-.07-4.85-.18-4.8-.31-4.73-.43-4.64-.55-4.51-.67-4.36-.76-4.19-.91-7.84-1.95-3.56-1.14-3.24-1.21-3-1.29L41.74,128.82,40,127.93l-1.35-.86-1-.76-.7-.69-.4-.55-.17-.39-.09-.46-1.56-31.1Zm2.6,59.05L175.14,217.4l3.09,1.36,3.53,1.36,3.75,1.22,4.1,1.17,4.17,1.05,4.37.92,4.52.83,4.63.7,4.79.59,4.86.45,5,.33,5,.2,5,.06,5-.06,4.93-.21,4.84-.33,4.75-.46L256,226l4.48-.71,4.3-.82,4.11-.93,3.64-1,3.87-1.18L434.16,167.8l2.2-.82,2.19-1,.45-.22-2.89,28.67-.24,1-.34.67-.57.79-.81.82-1.08.82-1.43.88-1.69.89-2,.85L272.34,262,269,263.21l-3.56,1.11-3.8,1-3.95.91-4.17.78-4.33.64-4.47.51-4.56.37-4.64.24-4.68.08-4.7,0-4.71-.2-4.65-.34-4.57-.47-4.5-.61-4.37-.74-4.23-.87-4-1-3.92-1.15-3.64-1.2L184.07,261l-3.14-1.38L178,258.16,44.67,186.49l-1.66-1-1.36-1-1-.87-.72-.8-.48-.78-.28-.65-.14-.69-1.42-28.62Zm399.27-12.47-1.41.73-1.72.76-2.06.72-2.28.75c.29-.5.6-1.08.92-1.72s.49-1.05.73-1.58l.2-.44a21.36,21.36,0,0,0,.74-2l.05-.17q.36-1.09.63-2.19c.17-.69.32-1.41.46-2.22s.22-1.41.31-2.22.12-1.52.13-2.23c0-.47,0-1,0-1.43v-.69a12.76,12.76,0,0,0-.24-2.19,19.44,19.44,0,0,0-.44-2.09,16.61,16.61,0,0,0-.67-2,13.68,13.68,0,0,0-.93-1.88,12.62,12.62,0,0,0-1.2-1.72A10.2,10.2,0,0,0,429,114.4a7.62,7.62,0,0,0-2.09-.86l-.36,0-3.12-.86-.08,0,16.22-4.41,2.29-.66h.17l2.17-.79.76-.33-3.21,31.33-.16.55-.25.43-.51.58-.82.7Z"/><ellipse class="cls-1" cx="268.15" cy="175.58" rx="7.81" ry="6.06" transform="translate(31.74 392.01) rotate(-75.69)"/><ellipse class="cls-1" cx="293.22" cy="168.68" rx="7.81" ry="6.06" transform="translate(57.29 411.11) rotate(-75.69)"/><ellipse class="cls-1" cx="317.44" cy="162.26" rx="7.81" ry="6.06" transform="translate(81.75 429.73) rotate(-75.69)"/><ellipse class="cls-1" cx="358.93" cy="221.56" rx="6.16" ry="4.78" transform="translate(55.52 514.58) rotate(-75.69)"/><ellipse class="cls-1" cx="359.62" cy="208.07" rx="6.16" ry="4.78" transform="translate(69.11 505.1) rotate(-75.69)"/><ellipse class="cls-1" cx="360.04" cy="197.71" rx="3" ry="2.33" transform="translate(79.47 497.7) rotate(-75.69)"/></svg>