<svg id="Artwork" xmlns="http://www.w3.org/2000/svg" viewBox="0 0 480 320"><defs><style>.cls-1{fill:#000;}</style></defs><path class="cls-1" d="M296.94,105.83l.92,1,1.24.9,1.45.77,1.66.69,1.9.63,2.15.57,2.24.5,2.39.43,2.5.36,2.61.29,2.64.19,2.69.13h5.23l2.5-.14,2.38-.21,2.13-.28,2-.37,1.81-.44,1.6-.53,1.38-.62,1.36-.87.94-1,.67-1.46-.06-1.54-.66-1.38-.88-1-1.24-1-.14-.09a8.12,8.12,0,0,0-.72-.46,7.75,7.75,0,0,0-.88-.49c-.3-.16-.95-.46-1.44-.68s-1-.4-1.57-.59-1.09-.37-1.67-.54-1.29-.35-1.89-.5-1.23-.29-1.87-.42l-.09,0c-.64-.14-1.24-.24-1.89-.34l-.1,0c-.68-.11-1.29-.21-1.95-.29l-1.76-.22-2.86-.27-1.51-.09-2.4-.09h-4.31l-1.75.1c-.63,0-1.23.08-1.79.14s-1.2.12-1.79.2L306.4,97c-.59.1-1.15.21-1.72.34s-1.13.27-1.67.43-.91.28-1.43.46a13.15,13.15,0,0,0-1.31.56,6.88,6.88,0,0,0-.76.4c-.23.13-.54.32-.75.47l-1.06.72-.94,1-.6,1.48.12,1.53Zm3.75-2.25.47-.35h0a2.36,2.36,0,0,1,.41-.25l.48-.26.68-.29.26-.12a9.65,9.65,0,0,1,1.11-.36c.41-.12.94-.26,1.41-.37s1-.2,1.51-.3,1-.17,1.57-.23l.28,0,1.35-.15,1.65-.13c.31,0,.64,0,1,0l.69,0h4.05l2.3.09,1.43.08,2.69.25,1.66.2,1.83.29c.63.1,1.24.21,1.88.34s1.29.27,1.79.39,1.16.29,1.72.45,1,.31,1.47.47a10.46,10.46,0,0,1,1.29.5l.47.21.69.32.63.36c.16.09.31.18.47.29l.85.67.05,0-.38.27-.92.43-1.25.41-1.55.38-1.8.33-2,.26-2.2.2-2.35.12h-5l-2.54-.12-2.52-.2-2.46-.26-2.36-.34-2.23-.4-2.05-.45-1.87-.52-1.61-.53-1.32-.54-1-.53-.66-.45Z"/><path class="cls-1" d="M391.92,88.5v.93a3.53,3.53,0,0,1,0,.65,6.78,6.78,0,0,1-.23,1.36,9.54,9.54,0,0,1-.5,1.42,13.86,13.86,0,0,1-.79,1.47,17.47,17.47,0,0,1-1.12,1.55,17.86,17.86,0,0,1-1.44,1.57,22.22,22.22,0,0,1-1.76,1.61c-.77.64-1.47,1.17-2.12,1.63a50.42,50.42,0,0,1-5.29,3.26c-1.08.57-2.16,1.11-3.21,1.6l-1.75.8-1.88.79c-2.68,1.1-5.53,2.14-8.48,3.07-.9.29-1.84.57-2.81.85l-2,.6c-1.33.41-2.71.76-4.17,1.13l-1.08.27c-3.25.85-7,1.67-11.67,2.59-1.94.38-4.1.77-6.4,1.18s-4.69.78-6.74,1.1c-4.89.74-9.71,1.38-14.31,1.88l-.73.08c-4.68.52-9.52,1-14.52,1.5s-10.28.85-16.1,1.23c-2.73.18-5.54.34-8.35.49l-8.54.4c-6,.24-11.83.42-17.44.52-2.93,0-5.91.08-8.85.1h-9.18v4.27h9.22c3,0,6,0,8.91-.1,5.62-.1,11.52-.28,17.54-.52l8.59-.41c2.86-.15,5.68-.31,8.39-.49,5.68-.37,11.13-.78,16.2-1.24,5.68-.51,10.86-1,15.38-1.59,5.3-.63,10.16-1.28,14.45-1.94,2-.31,4.19-.66,6.83-1.11,2.11-.35,4.29-.76,6.49-1.19,4.16-.82,8.17-1.71,11.89-2.64,1.86-.46,3.67-1,5.38-1.43l.58-.17c1.53-.43,3-.84,4.38-1.34,3.11-1,6.06-2.06,8.75-3.17l2-.84,1.89-.84c1.23-.57,2.38-1.15,3.41-1.71a52.45,52.45,0,0,0,5.77-3.54c.92-.67,1.7-1.26,2.37-1.83a19.83,19.83,0,0,0,2.05-1.91l.45-.48c.46-.48.88-.93,1.28-1.41a21.75,21.75,0,0,0,1.4-1.91,15.74,15.74,0,0,0,1.09-2,14.19,14.19,0,0,0,.74-2.07,11.83,11.83,0,0,0,.35-2.13,9.37,9.37,0,0,0,0-1.06,4.86,4.86,0,0,0,0-.54V88Z"/><polygon class="cls-1" points="427.53 125.78 427.12 124.68 426.57 123.79 425.9 123.13 425.12 122.72 424.25 122.58 423.34 122.71 297.98 158.05 296.65 158.58 295.35 159.41 294.11 160.52 292.97 161.87 291.97 163.41 291.13 165.12 290.5 166.91 290.08 168.76 289.89 170.59 289.44 181.66 289.49 183.4 289.76 185.01 290.25 186.44 290.96 187.64 291.85 188.6 292.89 189.26 294.05 189.63 295.31 189.68 296.61 189.41 420.8 149.51 421.74 149.09 422.67 148.41 423.57 147.51 424.4 146.41 425.15 145.14 425.8 143.75 426.31 142.28 426.7 140.75 426.92 139.23 427.82 129.92 427.89 128.43 427.79 127.04 427.53 125.78"/><path class="cls-1" d="M455.26,103l.46-.15h-.47a6.19,6.19,0,0,0-.15-.86,9,9,0,0,0-.5-1.63,9.19,9.19,0,0,0-.82-1.59,10.92,10.92,0,0,0-1.08-1.45,15.11,15.11,0,0,0-1.31-1.34,18.55,18.55,0,0,0-1.59-1.32c-.51-.36-1.07-.74-1.72-1.15s-1.38-.82-2-1.11l-.73-.35a67.91,67.91,0,0,0-9.58-3.74l-3.65-1.1-163-38.77H269c-1-.4-2-.79-3.08-1.18s-2.39-.85-3.46-1.21-2.4-.78-3.56-1.12-2.39-.68-3.54-1l-.38-.09c-1.06-.26-2.12-.51-3.2-.74-1.29-.28-2.55-.52-3.74-.72-1.37-.23-2.62-.41-3.81-.56-1.5-.19-2.81-.33-4-.43s-2.51-.18-4-.25-2.81-.08-4.09-.07h-.59c-1.1,0-2.24,0-3.37.09-4.88.22-9.77.67-14.55,1.34L57,65.19a121.91,121.91,0,0,0-15.36,3.15l-.61.14a26.24,26.24,0,0,0-2.55.84,19.36,19.36,0,0,0-2.36,1l-.91.42c-.41.19-.83.38-1.23.58a20.92,20.92,0,0,0-2,1.26A23.25,23.25,0,0,0,30.08,74a17.37,17.37,0,0,0-1.61,1.6,14.26,14.26,0,0,0-1.36,1.76,13.76,13.76,0,0,0-1.83,3.92,17.63,17.63,0,0,0-.42,2,12.14,12.14,0,0,0-.14,2.31l2.16,44.18.39,2,.72,1.57.22.34c-.13.39-.24.79-.34,1.19-.16.68-.29,1.37-.38,2a12.92,12.92,0,0,0-.13,2.39l2.09,42.63.33,2,.72,1.92,1.09,1.77L33,189.25l1.64,1.49,1.95,1.42,2.18,1.29,135.94,73.76,3.14,1.59,3.52,1.54,3.76,1.45,4,1.33,4.28,1.22,4.37,1.08,4.53.95,4.67.79,4.75.67,4.87.5,4.94.36,5,.21,5,.06,5-.1,4.92-.26,4.84-.4,4.75-.55,4.62-.7,4.47-.84,4.21-.95,4.1-1.11,3.91-1.23,3.7-1.36,157.6-62.67,2.27-1,2.22-1.18,1.88-1.19,1.72-1.34,1.48-1.47,1.21-1.61.93-1.76.59-1.9,4-39.12v-.85a9.61,9.61,0,0,0-.24-2,10.46,10.46,0,0,0-.55-1.75,10.84,10.84,0,0,0-.84-1.71,13.3,13.3,0,0,0-1-1.51l1-.86,1.25-1.4,1.12-1.82.52-1.59h.08l.1-1,.15-.85h-.07c.67-6.65,3.84-38.06,3.87-38.48,0,0,0-.08,0-.07l.06-.27A6,6,0,0,0,455.26,103ZM178.37,204.73l3.6,1.33,3.92,1.27,4.05,1.14,4.27,1,4.45.95,4.63.82,4.74.7,4.89.58,5,.45,5.05.33,5.08.2,5.08.07,5.06-.07,5-.19,4.94-.32,4.84-.45,4.75-.58,4.54-.69,4.39-.81,4.18-1,3.88-1,3.8-1.14,160.32-52.66,2.08-.84.2-.09c.26.27.47.52.66.73a7.76,7.76,0,0,1,.57.84,5,5,0,0,1,.39.8,5.08,5.08,0,0,1,.23.75,2.1,2.1,0,0,1,.06.48V158l-.12.53-.29.51-.52.65-.84.74-1.13.8-1.4.79-1.73.81-2.05.78L275.5,219,272,220.1l-3.63,1-3.91.93-4.12.82-4.32.7-4.48.58-4.61.46-4.69.34-4.8.2-4.85.07-4.87-.06-4.86-.2-4.82-.32-4.76-.46-4.69-.57-4.53-.7-4.38-.81-4.22-.93-4-1L187.64,219l-3.53-1.2-3.29-1.29-3-1.27L40.16,149a12.62,12.62,0,0,1-1.33-.78,6.35,6.35,0,0,1-1-.83,10.86,10.86,0,0,1-1-1.12,14.15,14.15,0,0,1-.85-1.21,13.5,13.5,0,0,1-.89-1.88,10.73,10.73,0,0,1-.55-1.78c-.1-.54-.16-1.12-.22-1.74v-.13l.59-.06v-.25l1.62.81,138.68,63.29ZM34.92,153.86c.64.42,1.31.82,2,1.19l138,66.36,3.19,1.42,3.57,1.4,3.81,1.3,4.13,1.22,4.25,1.09,4.43.95,4.59.85,4.75.72,4.86.61,4.95.46,5,.34,5,.2,5.05.07,5-.08,5-.21,4.92-.34,4.81-.48,4.68-.61,4.53-.73,4.36-.87,4.17-.95,3.81-1.07,3.75-1.21,159.59-55.56,2.27-.87,2.19-1,.29-.17-2.78,27.64-.24,1-.34.7L438,198l-.84.84-1.09.85-1.43.9-1.72.91-2,.89L273.51,265l-3.41,1.27-3.6,1.14-3.84,1-4,.94-4.23.79-4.38.67-4.52.52-4.63.39-4.68.24-4.75.1-4.78-.06-4.76-.19-4.69-.35-4.68-.49L208,270.4l-4.44-.76-4.29-.89-4.13-1-4-1.14-3.73-1.23L184,264.05l-3.21-1.41-2.94-1.48L42.1,187.49l-1.69-1-1.33-1-1.1-1-.75-.83-.5-.8-.29-.69-.14-.72-1.38-27.69Zm409.57-11-.16.6-.26.45-.51.58-.84.71-1.09.73-1.44.77-1.75.77-2.07.75L276.28,200.82l-3.5,1.07-3.67.93-3.95.87-4.15.78-4.35.67-4.51.54-4.69.43-4.75.31-4.84.19-4.89.06-4.91-.07-4.9-.19-4.86-.31-4.8-.43-4.69-.57-4.57-.67-4.41-.78-8.3-1.87-3.81-1.06-3.61-1.17-3.3-1.23-3-1.29L39.34,133.85,37.61,133l-1.36-.83-1.08-.81-.74-.7-.43-.59-.21-.42-.1-.43L32.22,98.89l.35.21c.58.33,1.14.6,1.64.83l.38.18,140.75,55.15,3.26,1.2,3.75,1.24,3.88,1.08,4.1,1,4.34.95,4.52.81,4.69.73,4.84.62,5,.52,5,.41,5.12.3,5.16.2,5.15.07h5.15l5.09-.14,5-.27,4.91-.37,4.74-.47,4.63-.58,4.44-.68,4.24-.79,4-.88,3.71-1L351,139.65l91.39-25.21,2.29-.7,2.19-.8.66-.3C446.49,122.63,445,138.14,444.49,142.88Zm3.7-38.74-.44.45-.79.56-1.14.65-1.47.66-1.84.66-2.09.65L367.15,128l-88.81,24.57-3.52.93-3.79.83-4,.74-4.24.65-4.44.57-4.6.46-4.74.35-4.86.26-4.93.14h-5l-5-.08-5-.17-5-.3-4.89-.4L209.5,156l-4.69-.6-4.51-.69-4.34-.79-4.13-.87-3.9-.93-3.65-1L180.87,150l-3.11-1.14-140.52-55a14.26,14.26,0,0,1-1.3-.63,10.15,10.15,0,0,1-1-.74,10.28,10.28,0,0,1-1-1,8.13,8.13,0,0,1-.83-1,10.74,10.74,0,0,1-.88-1.64,8.94,8.94,0,0,1-.5-1.45A10.41,10.41,0,0,1,31.6,86v-.72a4.44,4.44,0,0,1,.06-1,11.38,11.38,0,0,1,.24-1.13,7.74,7.74,0,0,1,.36-1,7.27,7.27,0,0,1,.58-1,9.1,9.1,0,0,1,.73-1c.31-.32.65-.63,1-.94a12.49,12.49,0,0,1,1.23-.94q.71-.48,1.47-.9c.52-.28,1.08-.56,1.67-.82s1.16-.49,1.93-.78,1.3-.46,1.91-.63l.56-.12A111.8,111.8,0,0,1,58,72L214.68,49.25c4.61-.64,9.28-1.07,13.83-1.27.67,0,1.33,0,2,0l1.78,0h.78c.9,0,1.87,0,2.93.08l.93,0c.95.05,1.87.1,2.82.18,1.2.1,2.42.23,3.73.39,1.15.15,2.22.31,3.49.53s2.33.42,3.47.66,2.24.5,3.34.77,2.13.57,3.24.93l1.36.42c.65.2,1.32.4,2,.63,1.14.38,2.19.75,3.25,1.14L267.17,55,430.09,93.74l3.72,1.11a59.29,59.29,0,0,1,8.61,3.36l.62.3a16.26,16.26,0,0,1,1.46.83,12.19,12.19,0,0,1,1.3.89c.35.26.69.53,1,.81a10.15,10.15,0,0,1,.73.74,6.42,6.42,0,0,1,.48.65,2.93,2.93,0,0,1,.26.5,2.52,2.52,0,0,1,.15.52,1.15,1.15,0,0,1,0,.14l-.09.28Z"/><ellipse class="cls-1" cx="360.14" cy="224.3" rx="6.16" ry="4.78" transform="translate(53.77 517.81) rotate(-75.69)"/><ellipse class="cls-1" cx="360.82" cy="210.81" rx="6.16" ry="4.78" transform="translate(67.36 508.33) rotate(-75.69)"/><ellipse class="cls-1" cx="361.24" cy="200.45" rx="3" ry="2.33" transform="translate(77.72 500.93) rotate(-75.69)"/></svg>