<svg id="Artwork" xmlns="http://www.w3.org/2000/svg" viewBox="0 0 480 320"><defs><style>.cls-1{fill:#000;}</style></defs><path class="cls-1" d="M447.9,136.7,329.32,108.43a4.08,4.08,0,0,0-.93-.11H35.45a11.14,11.14,0,0,0-7.32,2.74l-.26.23a11.16,11.16,0,0,0-3.63,8.24v45.36a13.62,13.62,0,0,0,6.89,11.83L79.34,204l.26.14a31.17,31.17,0,0,0,13.09,3l18.88,0,3.51,4.54h15.34l3.25-4.59,276.78-.54,4,5.13h15.34l3.66-5.17,14,0c5.8,0,8.38-2.58,8.38-8.38v-53A8.39,8.39,0,0,0,447.9,136.7Zm-34.56,0H91.09c-.32,0-.63,0-.93,0L45.24,116.32H327.92Zm-35.49,58.51V184.45a13,13,0,0,0,11.53-.1v10.84l2.44,3.4-16.43,0Zm.44-22.58a5.23,5.23,0,1,1,5.22,5.12A5.17,5.17,0,0,1,378.29,172.61Zm11.09-24.89v13.16a13,13,0,0,0-11.53-.1V147.72l-2.17-3h15.87Zm-306.67,49-47.63-27a5.59,5.59,0,0,1-2.84-4.87V119.53c0-.1,0-.2,0-.31l50.7,23a14.28,14.28,0,0,0-.26,2.83Zm8,2.31v-54c0-.14,0-.27,0-.38h280l3.09,4.32v14.75a13,13,0,0,0,0,17.73V193.9l-3.39,4.73-277.73.54C92.05,199.16,91.38,199.13,90.71,199.06Zm357.05-1v.38h-.39l-50.64.1-3.35-4.68V181.25a13,13,0,0,0,0-17.28V149l3.09-4.32h50.44a3.34,3.34,0,0,0,.7.08.39.39,0,0,1,.15.31Z"/></svg>