<?xml version="1.0" encoding="UTF-8"?><svg id="Layer_5" xmlns="http://www.w3.org/2000/svg" viewBox="0 0 480 320"><defs><style>.cls-1{fill:#000;}</style></defs><path class="cls-1" d="M235.43,180.35s.06,0,.09,0c1.23-.02,2.43-.53,3.31-1.39,.99-.86,1.58-2.2,1.57-3.61,0-1.36-.55-2.68-1.51-3.62-.93-.91-2.12-1.39-3.45-1.38-1.27,.02-2.41,.5-3.31,1.39-.99,.86-1.58,2.2-1.57,3.61,0,1.36,.55,2.68,1.51,3.62,.91,.89,2.1,1.38,3.36,1.38Z"/><path class="cls-1" d="M211.04,172.43c-1.27,.02-2.41,.5-3.31,1.39-.99,.86-1.58,2.2-1.57,3.61,0,1.36,.55,2.68,1.51,3.62,.92,.9,2.12,1.4,3.4,1.38h.05c1.09-.02,2.2-.48,3.22-1.32,1.04-.86,1.66-2.23,1.66-3.68,0-1.36-.55-2.68-1.51-3.62-.93-.91-2.11-1.41-3.44-1.38Z"/><path class="cls-1" d="M178.93,183.61c.94-.86,1.5-2.17,1.5-3.54,0-1.36-.55-2.68-1.51-3.62-.93-.91-2.12-1.4-3.44-1.38-1.27,.02-2.41,.5-3.31,1.39-.99,.86-1.57,2.2-1.57,3.6,0,1.36,.55,2.68,1.51,3.62,.91,.89,2.1,1.38,3.36,1.38,.03,0,.06,0,.09,0,1.74-.03,2.79-.78,3.39-1.46Z"/><path class="cls-1" d="M194.46,174.14c-1.27,.02-2.41,.5-3.31,1.39-.99,.86-1.57,2.2-1.57,3.61,0,1.36,.55,2.68,1.51,3.62,.91,.89,2.1,1.38,3.36,1.38h.09c1.09-.02,2.2-.48,3.22-1.32,1.04-.86,1.66-2.23,1.66-3.68,0-1.36-.55-2.68-1.51-3.62-.93-.91-2.12-1.4-3.44-1.38Z"/><path class="cls-1" d="M186.89,193.92c-1.14-1.02-2.64-1.49-4.23-1.31-3.1,.34-5.53,3.02-5.53,6.06l-.12,7.42c0,1.58,.61,2.99,1.72,3.98,.97,.87,2.22,1.33,3.57,1.33,.22,0,.45-.01,.68-.04,3.1-.35,5.53-3.02,5.53-6.06l.12-7.42c0-1.53-.64-2.97-1.75-3.96Zm-3.79,2.67c.07,0,.14-.01,.21-.01,.36,0,.67,.11,.91,.32,.27,.24,.41,.59,.41,.95l-.02,1.36c-.21-.25-.46-.46-.76-.6-.75-.34-1.63-.22-2.3,.31-.16,.13-.3,.28-.43,.44v-.66c.01-1.01,.93-2,1.98-2.11Zm-.56,10.79c-.47,.05-.88-.05-1.14-.29-.25-.23-.39-.57-.39-.97l.05-3.17c.21,.23,.44,.44,.74,.57,.28,.13,.58,.19,.88,.19,.5,0,1-.17,1.41-.5,.17-.14,.32-.3,.46-.48l-.04,2.53c0,1.01-.92,2-1.97,2.12Z"/><path class="cls-1" d="M378.56,168.65c-.75-.63-1.7-.93-2.66-.84l-17.81,1.64c-1.96,.2-3.43,1.87-3.43,3.84l-.18,6.32c0,1.16,.46,2.25,1.26,2.98,.67,.61,1.51,.93,2.41,.93,.11,0,.23,0,.34-.02l17.98-1.73c1.96-.19,3.44-1.87,3.44-3.87l.09-6.26v-.09c-.1-1.17-.6-2.2-1.43-2.9Zm-2.66,9.16l-17.42,1.67,.18-6.07,17.33-1.59-.09,5.99Z"/><path class="cls-1" d="M437.25,116.56l-15.44,1.25v-.02l-133.34-44.25c-8.77-3.02-17.9-4.24-27.16-3.63l-217.84,14.84c-10,.66-17.84,9.03-17.84,19.05v57.57c0,3.56,1.72,6.93,4.58,9l95.15,69.89,8.92,9.98,312.14-34.13,7.68-18.14v-61.04l.26-6.06-17.12-14.3Zm3.8,13.59l-308.63,24.87v-1.09l-2.23-4.48,304.45-24.65,6.41,5.36ZM44,92.73l217.84-14.84c8.19-.54,16.27,.54,24.07,3.23l115.54,38.34-282.91,22.91h-1.07v6.31L37.1,95.77c1.82-1.73,4.22-2.87,6.9-3.04Zm-10.37,68.64v-57.57c0-.24,.02-.48,.03-.71l83.8,55.17v66.28l-82.54-60.63c-.81-.59-1.3-1.54-1.3-2.54Zm407.27,47.27l-303.37,33.22-5.11-5.71v-73.09l313.69-25.28v58.57l-5.21,12.29Z"/><path class="cls-1" d="M239.26,189.41c-1.14-1.02-2.64-1.49-4.23-1.31-3.1,.34-5.53,3.02-5.53,6.06l-.12,7.42c0,1.58,.61,2.99,1.72,3.98,.97,.87,2.22,1.33,3.57,1.33,.22,0,.45-.01,.68-.04,3.1-.34,5.53-3.02,5.53-6.06l.12-7.42c0-1.53-.64-2.97-1.75-3.96Zm-3.79,2.67c.07,0,.14-.01,.21-.01,.36,0,.67,.11,.91,.32,.27,.24,.41,.59,.41,.95l-.02,1.36c-.21-.25-.46-.46-.76-.6-.75-.34-1.63-.22-2.3,.31-.16,.13-.3,.28-.43,.44v-.66c.01-1.01,.93-2,1.98-2.11Zm-.56,10.79c-.47,.05-.87-.05-1.14-.29-.25-.23-.39-.57-.39-.97l.05-3.17c.21,.23,.44,.44,.73,.57,.28,.13,.58,.19,.89,.19,.5,0,1-.17,1.42-.5,.17-.14,.32-.3,.46-.48l-.04,2.53c0,1.01-.92,2-1.97,2.11Z"/><path class="cls-1" d="M235.16,195.98c-.09,.07-.18,.19-.24,.36-.07,.15-.1,.34-.1,.5,.02,.32,.2,.46,.4,.29,.1-.08,.19-.2,.24-.36,.07-.15,.1-.34,.1-.5-.02-.32-.2-.46-.4-.29Z"/></svg>