<svg id="Artwork" xmlns="http://www.w3.org/2000/svg" viewBox="0 0 480 320"><defs><style>.cls-1{fill:#000;}</style></defs><path class="cls-1" d="M440.85,122.76h-.25L342.11,95.84a34.3,34.3,0,0,0-9-1.2L46.69,94.31a15.26,15.26,0,0,0-15.22,15l-.69,58.36a21.36,21.36,0,0,0,8.64,17.39l34.85,28.08A22,22,0,0,0,88,218H95.4l5.39,6.26a4,4,0,0,0,3,1.39H117.3a4,4,0,0,0,2.87-1.21l6.26-6.44H400.72l5.38,6.26a4,4,0,0,0,3,1.39h13.47a4,4,0,0,0,2.87-1.21l6.26-6.44h9.11c8.37,0,8.37-6.63,8.37-10.19V133C449.22,129.39,449.22,122.76,440.85,122.76ZM340,103.56l70.26,19.2H85.71c-.36,0-.68,0-1,0l-34.95-20.5,283.4.33A26,26,0,0,1,340,103.56Zm40.37,81.18a14,14,0,0,0,1.95-.15V210H378.2V184.56A15.49,15.49,0,0,0,380.37,184.74Zm0-29.64a14.12,14.12,0,0,0-2.17.18V130.76h4.12v24.48A15.7,15.7,0,0,0,380.37,155.1Zm-303,50.28-33-26.57-.14-.11a13.33,13.33,0,0,1-5.45-10.89l.69-58.37a7.09,7.09,0,0,1,.91-3.41,3.18,3.18,0,0,0,.35.26l37.09,21.76a18.23,18.23,0,0,0-.48,4.9Zm8,4.39V133a20,20,0,0,1,.09-2.19H370.2v28.42a14.76,14.76,0,0,0,0,21.47V210H88A13.51,13.51,0,0,1,85.34,209.77Zm355.88-1.92a19.8,19.8,0,0,1-.09,2.18H390.32V180.87a14.77,14.77,0,0,0,0-21.9V130.76h49.21l.1,0a3.9,3.9,0,0,0,1.51.12,19.27,19.27,0,0,1,.08,2Z"/><path class="cls-1" d="M118.94,135.38a24.14,24.14,0,1,0,24.14,24.14A24.17,24.17,0,0,0,118.94,135.38Zm0,40.28a16.14,16.14,0,1,1,16.14-16.14A16.16,16.16,0,0,1,118.94,175.66Z"/><path class="cls-1" d="M212.93,135.38a28.16,28.16,0,0,0-15,52l-3.86,6.83a4,4,0,0,0,1.51,5.45,3.89,3.89,0,0,0,2,.52,4,4,0,0,0,3.49-2l4.23-7.49a27.9,27.9,0,0,0,7.69,1.08,28.32,28.32,0,0,0,7.91-1.14l4.3,7.59a4,4,0,0,0,3.48,2,4,4,0,0,0,3.48-6l-4-7a28.16,28.16,0,0,0-15.21-51.86Zm0,48.34a20.17,20.17,0,1,1,20.17-20.17A20.2,20.2,0,0,1,212.93,183.72Z"/></svg>