<?xml version="1.0" encoding="UTF-8"?><svg id="Artwork" xmlns="http://www.w3.org/2000/svg" viewBox="0 0 480 320"><defs><style>.cls-1{fill:#000;}</style></defs><path class="cls-1" d="M152.6,235.09c-1.7-1.53-4.06-2.27-6.48-2.02-4.73,.49-8.56,4.61-8.54,9.2,0,2.26,.92,4.32,2.57,5.8,1.49,1.34,3.47,2.07,5.56,2.07,.3,0,.61-.02,.92-.05,4.73-.49,8.56-4.61,8.54-9.2,0-2.26-.92-4.32-2.57-5.8Zm-6.42,10.57c-1.18,.12-2.26-.2-3.04-.9-.7-.63-1.09-1.52-1.09-2.51,0-2.32,2.07-4.49,4.54-4.75,.16-.02,.32-.03,.48-.03,.99,0,1.89,.32,2.56,.93,.7,.63,1.09,1.52,1.09,2.51,0,2.32-2.07,4.49-4.54,4.75Z"/><path class="cls-1" d="M165.58,237.78c-2.63,.27-4.77,2.57-4.76,5.12,0,1.25,.51,2.39,1.42,3.21,.83,.74,1.93,1.15,3.08,1.15,.17,0,.34,0,.51-.03,2.63-.27,4.77-2.57,4.76-5.12,0-1.25-.51-2.39-1.42-3.21-.95-.85-2.26-1.26-3.59-1.12Zm.03,7.24c-.72,.08-1.39-.13-1.88-.56-.44-.39-.68-.95-.68-1.57,0-1.41,1.26-2.74,2.76-2.89,.1-.01,.2-.02,.3-.02,.61,0,1.16,.2,1.58,.58,.44,.39,.68,.95,.68,1.57,0,1.41-1.26,2.74-2.76,2.89Z"/><path class="cls-1" d="M451.07,151.61s-.01-.09-.01-.13c0-.21-.03-.42-.07-.62-.01-.06-.02-.13-.03-.19-.06-.25-.13-.49-.23-.73-.03-.06-.06-.12-.09-.18-.08-.17-.17-.34-.28-.5-.05-.07-.09-.14-.14-.21-.12-.16-.24-.31-.38-.45-.04-.04-.08-.09-.12-.13-.18-.18-.38-.34-.59-.48-.05-.03-.11-.06-.16-.09-.12-.08-.24-.15-.37-.22l-121.09-59.84c-4.86-2.4-10.28-3.38-15.68-2.82l-195.21,20.23-4.75-50.36c-.13-.77-.89-2.2-2.83-2.06-2.34,.16-2.88,2.05-2.91,2.13l-.02,.06,1.99,51.11-13.23,1.37-4.83-51.29c-.13-.77-.9-2.2-2.83-2.06-2.34,.16-2.88,2.05-2.91,2.13l-.02,.06,2.03,52.05-53.36,5.53s-.01,0-.02,0c-.13,.01-.25,.05-.37,.07-.16,.03-.31,.05-.46,.1-.09,.03-.18,.08-.27,.11-.17,.07-.34,.13-.5,.21-.09,.05-.18,.12-.27,.17-.15,.09-.3,.18-.43,.29-.08,.07-.16,.15-.24,.22-.13,.12-.26,.25-.37,.38-.02,.03-.05,.05-.08,.08-.05,.06-.08,.13-.13,.2-.1,.14-.2,.28-.28,.43-.06,.11-.11,.22-.16,.33-.06,.14-.12,.29-.17,.44-.04,.12-.07,.25-.1,.37-.03,.15-.06,.29-.08,.44-.02,.14-.03,.27-.03,.41,0,.07-.02,.14-.02,.21l.74,62.95c.02,1.25,.55,2.44,1.49,3.27l91.09,81.46c.82,.74,1.88,1.13,2.97,1.13,.2,0,.4-.01,.61-.04l108.89-14.98,1.84-.25s0,0,.02,0l206.94-28.46c2.11-.29,3.72-2.04,3.84-4.17l3.7-67.39c0-.06,0-.12,0-.18,0-.04,.01-.07,0-.11Zm-79.8,69.29l-6.78,2.95-6.68,2.3-1.05,.26-122.75,16.88-3.71,.51s-.02,0-.03,0l-8.81,1.21-3.68-.14-6.33-.75-7.92-1.64-7.76-2.31-7.6-2.9-7.39-3.42-9.54-5.26-9.23-5.95-8.96-6.49-11.65-9.5-11.35-10.22c-.12-.11-.25-.19-.38-.28v-1.24c12.1-3.75,60.76-17.64,145.62-26.96,84.33-9.26,149.02-11.32,166.61-11.73l-.12,2.19-5.64,6.85-6.85,7.94-7.06,7.72-7.27,7.46-8.84,8.34-9.2,7.77-6.15,4.67-6.36,4.33-6.49,3.95-6.65,3.45Zm-241.59-15.83l7.32,6.59s.08,.07,.12,.11l11.78,9.62c.05,.04,.1,.08,.15,.12l9.11,6.6s.1,.07,.15,.1l9.4,6.07c.06,.04,.13,.08,.2,.12l9.74,5.37c.07,.04,.14,.07,.21,.11l7.61,3.52c.07,.03,.14,.06,.21,.09l7.83,2.99c.08,.03,.16,.06,.24,.08l5.25,1.57-69.32,9.53v-52.57Zm183.06-111.2c3.72-.39,7.46,.29,10.82,1.94l104.98,51.88c-27.48,.95-84.11,3.69-154.21,11.39-88.66,9.74-137.22,24.07-148.21,27.58L44.67,121.64l268.06-27.78ZM37.95,127.68l82.81,66.11v58.99L38.56,179.27l-.61-51.59Zm343.72,95.3l6.27-3.82s.1-.06,.14-.09l6.51-4.43s.1-.07,.14-.1l6.28-4.78s.09-.07,.13-.11l9.33-7.89s.09-.08,.14-.12l8.96-8.45s.07-.06,.1-.1l7.39-7.59,7.2-7.87,6.88-7.98-2.5,45.48-56.99,7.84Z"/><path class="cls-1" d="M332.63,216.67s0-.09,0-.13l-7.32-41.63s-.02-.06-.03-.1c0-.03,0-.07-.01-.1l-.12-.52c-.05-.23-.13-.45-.23-.66l-.22-.47c-.08-.17-.18-.34-.29-.49l-.3-.42c-.11-.15-.23-.3-.36-.43l-.37-.37c-.17-.17-.35-.32-.55-.44l-.42-.27c-.15-.09-.3-.18-.46-.25l-.45-.2c-.22-.1-.44-.17-.67-.22l-.47-.1c-.28-.06-.57-.08-.86-.07l-.47,.02s-.08,.01-.11,.02c-.04,0-.08,0-.12,0l-76.94,9.4c-.07,0-.13,.03-.2,.05-.07,.01-.13,.01-.2,.03l-.5,.12c-.19,.05-.37,.11-.55,.19l-.45,.2s0,0,0,0c-.01,0-.03,0-.04,.01l-.3,.15c-.21,.1-.4,.23-.58,.37l-.37,.3c-.13,.1-.25,.21-.36,.34l-.35,.37c-.22,.23-.4,.5-.54,.78l-.22,.45c-.06,.13-.12,.25-.16,.39l-.17,.5c-.13,.36-.19,.73-.19,1.1v.03c0,.36,.07,.69,.17,1.01v.09c0,.07,.03,.13,.03,.2,0,.06,0,.13,.01,.19l7.22,42.88s.02,.06,.02,.09c0,.03,0,.06,.01,.09l.12,.55s0,0,0,.01c.03,.6,.21,1.2,.58,1.74l.27,.4c.14,.2,.29,.38,.47,.54l.4,.37c.14,.14,.3,.26,.47,.37l.42,.27c.18,.12,.38,.22,.58,.3l.5,.2c.24,.1,.49,.16,.75,.2l.5,.07c.16,.02,.33,.04,.49,.04h.48s0,0,.01,0c.02,0,.03,0,.05,0,.14,0,.28,0,.41-.03l77.04-10.72s.02,0,.02,0c.06,0,.12-.03,.19-.04,.03,0,.06,0,.08,0l.32-.07c.14-.03,.26-.09,.39-.13l.09-.03c.18-.05,.36-.12,.53-.2l.42-.2c.28-.13,.53-.3,.77-.5l.37-.32c.15-.13,.29-.28,.42-.44l.3-.37c.15-.18,.27-.38,.38-.59l.22-.45c.08-.16,.14-.32,.2-.49l.15-.47c.07-.22,.12-.45,.14-.69l.05-.52c.02-.21,.02-.43,0-.64l-.05-.52s-.02-.08-.03-.12Zm-13.82-40.11l7.1,40.37-75.31,10.48-7.01-41.65,75.23-9.2Z"/><path class="cls-1" d="M386.61,203.05l2.77-1.73c.1-.06,.2-.13,.28-.21l2.23-1.95c.09-.08,.17-.16,.24-.25l1.92-2.29c.07-.09,.14-.18,.2-.28l1.45-2.39c.06-.1,.12-.22,.16-.33l1.04-2.61c.05-.12,.08-.24,.11-.36l.6-2.8c.03-.12,.04-.24,.05-.37l.13-2.83s0-.09,0-.13c0-.06,0-.11,0-.17l-.09-1.04c0-.07-.02-.13-.03-.2l-.07-.49c0-.06-.02-.13-.03-.19l-.07-.5c0-.07-.02-.13-.03-.2l-.06-.35s-.02-.05-.02-.08c0-.02,0-.05-.01-.07l-.35-1.35c-.02-.09-.05-.18-.09-.27l-1.07-2.7c-.04-.11-.09-.21-.15-.31l-1.48-2.51c-.07-.11-.14-.22-.22-.31l-2.29-2.7c-.08-.1-.18-.19-.28-.27l-2.73-2.26c-.1-.08-.2-.15-.31-.21l-3.11-1.79c-.11-.06-.22-.11-.33-.16l-3.36-1.26c-.12-.04-.24-.08-.37-.1l-3.36-.63c-.12-.02-.23-.03-.35-.04l-3.39-.09c-.11,0-.23,0-.35,.02l-3.17,.41c-.13,.02-.26,.04-.38,.08l-3.02,.94c-.12,.04-.24,.09-.36,.15l-2.67,1.38c-.11,.06-.21,.12-.31,.2l-2.39,1.79c-.1,.08-.2,.16-.29,.26l-1.98,2.11c-.09,.09-.16,.19-.23,.3l-1.6,2.42c-.07,.11-.13,.22-.18,.33l-1.16,2.64c-.05,.11-.09,.23-.12,.35l-.72,2.83c-.03,.11-.05,.22-.06,.34l-.28,2.92c-.01,.13-.01,.25,0,.38l.22,2.99c0,.12,.03,.24,.05,.36l.72,3.02c.03,.11,.06,.22,.11,.33l1.19,2.89c.05,.11,.1,.23,.17,.33l1.73,2.77c.06,.1,.13,.19,.21,.28l2.14,2.45c.09,.1,.19,.2,.3,.28l2.7,2.14c.1,.08,.21,.15,.33,.22l2.99,1.6c.12,.06,.24,.11,.36,.15l3.36,1.1c.13,.04,.27,.08,.41,.09l3.46,.44c.09,.01,.19,.02,.28,.02,.03,0,.07,0,.1,0l3.46-.16c.13,0,.26-.02,.38-.05l3.39-.75c.13-.03,.25-.07,.37-.12l3.02-1.26c.11-.05,.22-.1,.32-.17Zm-19.63-4.73l-2.39-1.89-1.88-2.16-1.54-2.46-1.06-2.56-.64-2.67-.19-2.62,.25-2.56,.64-2.48,1.01-2.3,.81-1.23,5.36-.22-.45,.64c-.05,.07-.1,.15-.13,.23l-.75,1.54c-.03,.07-.07,.15-.09,.22l-.53,1.67c-.03,.08-.05,.16-.06,.25l-.28,1.76c-.01,.09-.02,.18-.02,.26v1.79c0,.07,0,.13,.01,.2l.22,1.82c.01,.09,.03,.17,.05,.26l.5,1.76c.02,.07,.04,.13,.07,.2l.72,1.7c.03,.08,.07,.15,.12,.23l.97,1.57c.04,.07,.09,.13,.14,.19l1.16,1.38c.05,.06,.1,.11,.16,.16l1.32,1.19c.06,.05,.12,.1,.19,.15l1.45,.97c.07,.05,.15,.09,.23,.13l1.57,.72c.08,.04,.17,.07,.26,.1l1.63,.44s.03,0,.04,0l-4.54,3.57-1.7-.56-2.64-1.42Zm14.75-5.74l-1.21,.57-1.28,.33-1.34,.1-1.35-.13-1.36-.37-1.32-.61-1.24-.83-1.15-1.04-1.01-1.2-.84-1.36-.63-1.48-.44-1.53-.19-1.59v-1.56l.24-1.5,.46-1.43,.64-1.31,.8-1.14,.99-.94,1.09-.78,1.2-.53,1.28-.33,1.34-.08,1.36,.13,1.33,.37,1.32,.61,1.24,.83,1.15,1.04,1.01,1.2,.81,1.33,.63,1.49,.44,1.55,.22,1.55-.03,1.59-.22,1.49-.45,1.42-.64,1.31-.82,1.16-.95,.95-1.08,.75Zm0,7.71l-3.01,.67-3.03,.14,6.28-4.94,1.3-.61c.08-.04,.17-.09,.24-.14l1.32-.91c.08-.06,.16-.12,.23-.19l1.16-1.16c.07-.07,.13-.14,.18-.22l.97-1.38c.05-.07,.1-.15,.13-.23l.75-1.54c.04-.07,.07-.15,.09-.23l.53-1.67c.03-.09,.05-.18,.06-.27l.25-1.73c0-.07,.02-.14,.02-.21l.03-1.82c0-.09,0-.17-.02-.26l-.25-1.79c-.01-.08-.03-.15-.05-.23l-.5-1.76c-.02-.07-.04-.13-.07-.2l-.72-1.7c-.03-.08-.07-.15-.11-.22l-.94-1.54c-.04-.07-.09-.14-.15-.2l-1.16-1.38c-.05-.06-.1-.11-.16-.16l-1.32-1.19c-.06-.05-.12-.1-.19-.15l-1.45-.97c-.07-.05-.15-.09-.23-.13l-1.57-.72c-.08-.04-.17-.07-.26-.09l-1.6-.44c-.09-.03-.19-.04-.28-.05l-1.63-.16c-.08,0-.17,0-.26,0l-1.63,.09c-.11,0-.22,.02-.33,.05l-1.57,.41c-.09,.02-.18,.05-.26,.09l-1.19,.53-6.04,.25,1.05-.79,2.33-1.21,2.64-.83,2.81-.36,3.05,.08,3,.56,3.01,1.12,2.79,1.61,2.44,2.02,2.04,2.41,1.29,2.2,.95,2.41,.28,1.08,.31,2.44-.11,2.46-.52,2.43-.9,2.26-1.26,2.09-1.7,2.03-1.97,1.72-2.46,1.54-2.67,1.11Z"/></svg>