<svg xmlns="http://www.w3.org/2000/svg" viewBox="0 0 480 320"><defs><style>.cls-1{fill:#000;}</style></defs><g id="Layer_1" data-name="Layer 1"><path class="cls-1" d="M450,139.73l-151.75-22.9a63.34,63.34,0,0,0-10-.8H27.62a12.55,12.55,0,0,0-12.53,12.54v22.71a10.94,10.94,0,0,0,6.45,9.95l72.79,31.52a5.19,5.19,0,0,0,2.13.45h6l2.49,6.15a1.79,1.79,0,0,0,3.29.06L111,193.2h316l2.49,6.15a1.79,1.79,0,0,0,3.29.06l2.76-6.21h24.09a5.36,5.36,0,0,0,5.35-5.35v-30.8A17.41,17.41,0,0,0,450,139.73Zm-152.83-16L424.07,142.9H94.19a5.88,5.88,0,0,1-2.07-.38L39.94,123H288.25A57.09,57.09,0,0,1,297.18,123.74ZM22.09,151.28V128.57a5.49,5.49,0,0,1,1.79-4.06l65.8,24.57a12.77,12.77,0,0,0,2.57.66L91.78,184l-67.4-29.19A3.93,3.93,0,0,1,22.09,151.28ZM457.91,186.2H98.76l.49-36.3H455.11a10.44,10.44,0,0,1,2.8,7.15Z"/><path class="cls-1" d="M350.21,154.22h-148a3.85,3.85,0,0,0-3.85,3.85v20.09a3.86,3.86,0,0,0,3.85,3.85h148a3.86,3.86,0,0,0,3.85-3.85V158.07A3.85,3.85,0,0,0,350.21,154.22ZM350.06,178H202.33V158.22H350.06Z"/><path class="cls-1" d="M402.85,151.27a16,16,0,1,0,16,16A16.07,16.07,0,0,0,402.85,151.27Zm0,27.46a11.41,11.41,0,1,1,11.41-11.41A11.42,11.42,0,0,1,402.85,178.73Z"/><circle class="cls-1" cx="117.26" cy="169.92" r="6.84" transform="translate(-84.6 213.23) rotate(-67.5)"/><circle class="cls-1" cx="437.75" cy="175.55" r="6.84"/><path class="cls-1" d="M186.05,162.87a5.83,5.83,0,0,0-5.83,5.83h0a5.83,5.83,0,0,0,11.65,0h0A5.83,5.83,0,0,0,186.05,162.87Z"/><path class="cls-1" d="M367.43,162.87a5.83,5.83,0,0,0-5.83,5.83h0a5.83,5.83,0,0,0,11.65,0h0A5.83,5.83,0,0,0,367.43,162.87Z"/><circle class="cls-1" cx="437.61" cy="159.68" r="5.82"/><path class="cls-1" d="M163.25,167.19l-7.67-4.6a1.41,1.41,0,0,0-1.94.48,1.36,1.36,0,0,0-.2.76v10.22a1.42,1.42,0,0,0,1.41,1.43,1.47,1.47,0,0,0,.85-.28l7.66-5.63a1.41,1.41,0,0,0,.34-2A1.27,1.27,0,0,0,163.25,167.19Z"/><path class="cls-1" d="M145.62,162.59l-7.67,4.6a1.36,1.36,0,0,0-.45.41,1.41,1.41,0,0,0,.34,2l7.67,5.63a1.42,1.42,0,0,0,2.26-1.15V163.83a1.45,1.45,0,0,0-.21-.76A1.4,1.4,0,0,0,145.62,162.59Z"/></g></svg>