<svg id="Artwork" xmlns="http://www.w3.org/2000/svg" viewBox="0 0 480 320"><defs><style>.cls-1{fill:#000;}</style></defs><path class="cls-1" d="M462.66,168.44a4,4,0,0,0-1.83-1.43l-1.37-.54a4.78,4.78,0,0,0-.84-.25,4.06,4.06,0,0,0-.85-.06l-1.91,0-61.19-19.88a37.61,37.61,0,0,0-12.38-2l-313.1,2.82L67.58,67.22c-.28-5.24-4-4.89-4-4.89h-.46a3.46,3.46,0,0,0-2.46,1.14c-1.08,1-1.08,4-1.08,4l-.77,79.7-26,.23a16.42,16.42,0,0,0-13,6.65c-.11.14-.21.28-.31.43a16.31,16.31,0,0,0-2.92,9.32v56.59a3.75,3.75,0,0,0,0,1.16l.09.67a3.94,3.94,0,0,0,.27,1l.47,1.12a4,4,0,0,0,.7,1.11l.81.91a4.15,4.15,0,0,0,1.12.88l.67.35a3.68,3.68,0,0,0,.65.35l62.16,26a4,4,0,0,0,.6,1.33,3.86,3.86,0,0,0,1.26,1.18,3.6,3.6,0,0,0,.69.32l1.39.53a4,4,0,0,0,.82.22,4.65,4.65,0,0,0,.66.05H89l370.18-5.87h.34a4,4,0,0,0,4-4V170.88A4,4,0,0,0,462.66,168.44ZM83.38,245.32,24.77,220.78h0l-.19-.1V163.85a8.1,8.1,0,0,1,.36-2.42L83.35,179v1.41a3.91,3.91,0,0,0,0,.49ZM88.09,172,32.82,155.45h.06l349.48-3.14a29,29,0,0,1,9.78,1.59l39,12.69Zm367.4,71.83L91.38,249.63V180l363.54-5.77a3.62,3.62,0,0,0,.57,0Z"/><path class="cls-1" d="M450,207.92c0-.09,0-.19,0-.29l-.32-2c0-.11,0-.22-.07-.33l-.48-1.93a2.45,2.45,0,0,0-.08-.29l-.62-1.88-.12-.32-.78-1.82c0-.1-.09-.18-.13-.27l-.91-1.75-.16-.29-1.05-1.67c-.06-.08-.11-.17-.18-.25l-1.17-1.58c-.06-.09-.13-.17-.2-.26l-1.3-1.48-.23-.24-1.41-1.36-.24-.21L439,188.46l-.3-.22-1.6-1.08-.2-.13-1.69-1-.31-.16-1.77-.85-.32-.14-1.83-.69a1.52,1.52,0,0,0-.28-.09l-1.87-.55c-.11,0-.22-.06-.33-.09l-1.92-.39-.33,0-1.95-.23-.31,0-1.95-.08h-.34l-2,.09-.3,0-2,.24-.32.05-1.92.39-.33.09-1.9.56a2.46,2.46,0,0,0-.29.09l-1.84.7-.28.12-1.79.84-.31.16-1.72,1-.26.17-1.63,1.12-.25.19L403,189.78l-.22.19-1.45,1.36a1.75,1.75,0,0,0-.23.24l-1.33,1.48a2.31,2.31,0,0,0-.2.24l-1.22,1.59a2.27,2.27,0,0,0-.18.25l-1.09,1.67-.12.2-1,1.75a2.31,2.31,0,0,0-.18.35l-.82,1.83-.12.29-.67,1.88-.09.28-.53,1.93c0,.11,0,.22-.07.33l-.37,2c0,.1,0,.2,0,.3l-.22,2c0,.09,0,.19,0,.29l-.07,2v.32l.09,2,0,.32.25,2a2.93,2.93,0,0,0,0,.29l.4,2a3,3,0,0,0,.08.32l.55,1.9a2.81,2.81,0,0,0,.1.31l.7,1.85.12.28.84,1.79a3.24,3.24,0,0,0,.17.32l1,1.71.15.25,1.12,1.63c.06.08.12.17.19.25l1.23,1.52a2.62,2.62,0,0,0,.22.25l1.36,1.42.22.21,1.46,1.31a2.65,2.65,0,0,0,.26.21l1.56,1.18a2.54,2.54,0,0,0,.34.23l1.65,1,.19.11,1.73.92.32.16,1.8.76.28.1,1.86.63.34.1,1.9.46.29.06,1.93.32.34,0,1.95.15h2.63l2-.16.33,0,1.94-.32.33-.07,1.91-.48.28-.08,1.87-.62.31-.12,1.83-.78.27-.13,1.76-.92.28-.16,1.67-1.05a4.1,4.1,0,0,0,.86-.73l1-.76.25-.2,1.49-1.31.22-.21,1.4-1.43.22-.24,1.27-1.53.11-.15,1.16-1.54a2,2,0,0,0,.26-.39l1-1.71c.05-.08.09-.16.13-.24l.89-1.79c.05-.09.09-.19.13-.28l.75-1.86.11-.3.6-1.91c0-.09.05-.19.08-.29l.45-1.94.06-.31.3-2,0-.32.14-2a2.53,2.53,0,0,0,0-.28v-2c0-.11,0-.22,0-.34Zm-24.85-17,1.59.32,1.56.46,1.53.57,1.45.7,1.44.85,1.35.91,1.24,1,1.17,1.14,1.08,1.23,1,1.32.89,1.4.76,1.48.66,1.52.51,1.57.41,1.62.27,1.69.14,1.68v1.69l-.12,1.71-.25,1.68-.38,1.64-.51,1.61-.63,1.57-.76,1.53-.81,1.39-1,1.28-1.1,1.33-1.18,1.21-1.26,1.1-1.47,1.09-.41.35-.89.56L430,231l-1.52.65-1.57.52-1.6.4-1.62.27-1.67.13h-1.69l-1.62-.12-1.61-.27-1.59-.38-1.55-.53-1.5-.63L411,230.2l-1.38-.83-1.26-1-1.23-1.09L406,226.13l-1-1.27-.95-1.38-.84-1.43-.69-1.49-.59-1.55-.46-1.59-.34-1.69-.21-1.7-.08-1.68.06-1.69L401,209l.31-1.69.45-1.62.57-1.6.67-1.5.84-1.48.95-1.44,1-1.35L407,197l1.22-1.14,1.32-1.07,1.37-1,1.44-.83,1.49-.7,1.56-.59,1.59-.47,1.59-.33,1.69-.2,1.68-.07"/><circle class="cls-1" cx="116.89" cy="231.91" r="7.17"/><circle class="cls-1" cx="139.82" cy="232.27" r="7.17"/><circle class="cls-1" cx="163.74" cy="232.03" r="7.17" transform="matrix(0.99, -0.16, 0.16, 0.99, -35.05, 29.22)"/><circle class="cls-1" cx="186.29" cy="231.79" r="7.17" transform="matrix(0.99, -0.16, 0.16, 0.99, -34.72, 32.83)"/><circle class="cls-1" cx="353.99" cy="228.78" r="7.17" transform="translate(7.16 468.28) rotate(-67.5)"/><circle class="cls-1" cx="375.44" cy="228.69" r="7.17" transform="translate(-51.75 332.46) rotate(-45)"/><path class="cls-1" d="M333.91,184.42h-.13L215,186.3h-.22a2.77,2.77,0,0,0-.3,0c-.13,0-.26,0-.39,0a4,4,0,0,0-3.25,4,3.86,3.86,0,0,0,.09.77v44.05a4,4,0,0,0,4,4h.09L334,237.3l.37-.05.41,0c.13,0,.25-.08.37-.12s.26-.07.38-.12.22-.13.34-.19a2.17,2.17,0,0,0,.33-.19,3.5,3.5,0,0,0,.3-.24,3.47,3.47,0,0,0,.29-.25,3.36,3.36,0,0,0,.24-.29c.08-.1.17-.2.24-.3s.12-.22.18-.33.13-.23.19-.36.07-.23.11-.35a3,3,0,0,0,.11-.4,2.33,2.33,0,0,0,0-.38c0-.13,0-.26,0-.39V188.42A4,4,0,0,0,333.91,184.42Zm-4,44.94L219,231.12V194.24l110.94-1.76Z"/></svg>