<svg id="Artwork" xmlns="http://www.w3.org/2000/svg" viewBox="0 0 480 320"><defs><style>.cls-1{fill:#000;}</style></defs><path class="cls-1" d="M119.17,221.21a4,4,0,0,0,2.79,1.13h.1l179.14-4.71a4,4,0,0,0,3.89-4l0-92.64a4,4,0,0,0-4.1-4L121.83,121.7a4,4,0,0,0-3.89,4l0,92.64A4,4,0,0,0,119.17,221.21Zm177.9-96.11,0,84.64L126,214.23l0-84.64Z"/><path class="cls-1" d="M355,187.39h.93a35.9,35.9,0,0,0,34.66-35.72,33.89,33.89,0,0,0-34.88-34.1A35.9,35.9,0,0,0,321,153.28,33.88,33.88,0,0,0,355,187.39Zm.92-61.83a25.75,25.75,0,0,1,18.81,7.3,26,26,0,0,1,7.86,18.8,27.84,27.84,0,0,1-26.87,27.72,25.7,25.7,0,0,1-18.82-7.3,26,26,0,0,1-7.85-18.8A27.84,27.84,0,0,1,355.88,125.56Z"/><path class="cls-1" d="M341.4,197.09a8.84,8.84,0,0,0-8.54,8.81,8.31,8.31,0,0,0,8.55,8.36,8.84,8.84,0,0,0,8.54-8.81A8.3,8.3,0,0,0,341.4,197.09Z"/><path class="cls-1" d="M372.17,196.28a8.85,8.85,0,0,0-8.55,8.81,8.31,8.31,0,0,0,8.55,8.36,8.85,8.85,0,0,0,8.55-8.81A8.3,8.3,0,0,0,372.17,196.28Z"/><path class="cls-1" d="M421.67,90.33a10,10,0,0,0-7.3-3l-.57-.42L318.31,64.27a51.88,51.88,0,0,0-13.14-1.57L75.58,68.16A20.37,20.37,0,0,0,55.35,88.48v97A32.61,32.61,0,0,0,58.77,200l19,38a20.74,20.74,0,0,0,20.71,19.28H99l10-.27c1.92-.06,5.62-5,7.64-5.11,81.52-2.62,212-10.4,276.63-13.23,2.72-.12,4.95,3.61,7.32,3.51,3.73-.15,7-.27,9.79-.36a12.33,12.33,0,0,0,12-12.14c.48-24.24,1.82-113.67,2.24-132.08A10.15,10.15,0,0,0,421.67,90.33Zm-344,68.5-1,47.62L66.94,187a21.06,21.06,0,0,1-2.21-9.38V86.82c0-.28,0-.55,0-.82L78.55,98.35ZM71.13,79.26a10.32,10.32,0,0,1,4.54-1.07l229.62-5.47A42.12,42.12,0,0,1,316,74l74.86,15.34L97.69,93.44a18,18,0,0,0-8.34,2.15ZM412.32,229.57a2.33,2.33,0,0,1-2.27,2.29c-3,.09-6.49.23-10.52.39-2.28.1-4.39-3.64-7-3.52-64.51,2.83-193.17,10.5-274.87,13.17-1.9.06-5.49,5-7.31,5.09-4.11.13-8,.24-11.64.32a10.74,10.74,0,0,1-11-10.57l.85-38.32L90,111.24a7.93,7.93,0,0,1,7.86-7.77l316.76-6C414.14,115.85,412.81,205.3,412.32,229.57Z"/></svg>