<svg id="Artwork" xmlns="http://www.w3.org/2000/svg" viewBox="0 0 480 320"><defs><style>.cls-1{fill:#000;}</style></defs><path class="cls-1" d="M444.15,127.08a8,8,0,0,0-8.49-7.61h-.11l-14.48,1.65,0-.19L293.39,105.05a42.58,42.58,0,0,0-8.06-.22L43.66,121.94a8.35,8.35,0,0,0-7.73,8.86l1.31,19.61a14.71,14.71,0,0,0,6.94,11.51l38,23.5.81,20a10.44,10.44,0,0,0,10.44,10.06,10.56,10.56,0,0,0,1.68-.13l340.47-54.52.16,0a8,8,0,0,0,6.4-7.44l2-25.73,0-.25ZM285.89,112.82a32.93,32.93,0,0,1,6.51.17L388,124.89,111.28,156.35,54.92,129.16ZM48.38,155.12a6.68,6.68,0,0,1-3.15-5.24l-1.14-17.06L96.38,158l-5.45.62a10.42,10.42,0,0,0-9.34,11l.24,6.13Zm385.82-2.36v.15L93.87,207.4a2.4,2.4,0,0,1-2-.52,2.46,2.46,0,0,1-.9-1.82l-1.44-35.77v-.08a2.46,2.46,0,0,1,2.23-2.59l344.32-39.15Z"/><path class="cls-1" d="M429.91,137.26a4,4,0,1,0-4-4A4,4,0,0,0,429.91,137.26Z"/><path class="cls-1" d="M428.88,152.55a4,4,0,1,0-3.95-4A4,4,0,0,0,428.88,152.55Z"/><path class="cls-1" d="M95.75,175.61l5.25-.88a3.21,3.21,0,0,0,1.54-5.62,3.24,3.24,0,0,0-2.62-.71l-5.33.89a3.21,3.21,0,0,0,1.16,6.32Z"/><path class="cls-1" d="M100.52,197.41l-5.32.88a3.22,3.22,0,0,0,1.16,6.33l5.24-.88a3.2,3.2,0,0,0,2.69-3.16,3.2,3.2,0,0,0-3.77-3.17Z"/><path class="cls-1" d="M139.62,195.38a11,11,0,1,0-11-11A11,11,0,0,0,139.62,195.38Zm0-17a6,6,0,1,1-6,6A6,6,0,0,1,139.62,178.4Z"/><circle class="cls-1" cx="161.85" cy="181.11" r="5.06"/></svg>