<svg id="Artwork" xmlns="http://www.w3.org/2000/svg" viewBox="0 0 480 320"><defs><style>.cls-1{fill:#000;}</style></defs><path class="cls-1" d="M460.05,113.9a8,8,0,0,0-5.82-2.4l-11.05.14L362.06,93.1a41.07,41.07,0,0,0-10.48-1.25L33.71,96.28a16.24,16.24,0,0,0-16.14,16.21v58.39a26.14,26.14,0,0,0,2.73,11.58L35.46,212.8A16.54,16.54,0,0,0,52,228.19h.4c65.54-1.59,359.17-11.1,398.65-12.4a9.83,9.83,0,0,0,9.56-9.69c.39-19.34,1.45-71.65,1.79-86.35A8.07,8.07,0,0,0,460.05,113.9Zm-423.4,41-.9,40.62-8.29-16.61a17.93,17.93,0,0,1-1.89-8V112.49c0-.24,0-.47,0-.7l11.76,10.53Zm-6.49-49.74a8.14,8.14,0,0,1,3.62-.85l317.89-4.43a32.9,32.9,0,0,1,8.52,1l48.91,11.18L51.36,116.45a14.32,14.32,0,0,0-6.66,1.71ZM452.59,206a1.85,1.85,0,0,1-1.81,1.83c-39.49,1.3-333.08,10.82-398.6,12.4a8.57,8.57,0,0,1-8.79-8.43l.68-30.58,1.11-50.52a6.32,6.32,0,0,1,6.27-6.2l402.93-4.89C454.05,134.26,453,186.59,452.59,206Z"/><path class="cls-1" d="M352.58,171.91a5.52,5.52,0,0,0,6.64-6.63,5.46,5.46,0,0,0-4.11-4.11,5.52,5.52,0,1,0-2.53,10.74Z"/><path class="cls-1" d="M143.44,177.4a5.52,5.52,0,1,0-4.11-4.11A5.44,5.44,0,0,0,143.44,177.4Z"/><path class="cls-1" d="M61.55,211.8a7.66,7.66,0,1,0-5.71-5.7A7.66,7.66,0,0,0,61.55,211.8Z"/><path class="cls-1" d="M366.44,171.91a5.52,5.52,0,1,0-4.11-4.11A5.44,5.44,0,0,0,366.44,171.91Z"/><path class="cls-1" d="M411.69,185.81c11.5,0,20.86-9.91,20.86-22.08s-9.36-22.09-20.86-22.09-20.86,9.91-20.86,22.09S400.19,185.81,411.69,185.81Zm0-36.17c7.09,0,12.86,6.32,12.86,14.09s-5.77,14.08-12.86,14.08-12.86-6.32-12.86-14.08S404.6,149.64,411.69,149.64Z"/><path class="cls-1" d="M101.93,195c11.51,0,20.86-9.91,20.86-22.09s-9.35-22.08-20.86-22.08-20.86,9.91-20.86,22.08S90.43,195,101.93,195Zm0-36.17c7.09,0,12.86,6.32,12.86,14.08S109,187,101.93,187s-12.86-6.32-12.86-14.09S94.84,158.79,101.93,158.79Z"/><path class="cls-1" d="M197.09,194.81a10.81,10.81,0,0,0,7.6,3.1h.24l112.41-2.48A10.94,10.94,0,0,0,328,184.54l0-32.37a10.88,10.88,0,0,0-11.11-10.87l-112.42,2.48a10.93,10.93,0,0,0-10.63,10.88l0,32.38A10.77,10.77,0,0,0,197.09,194.81Zm7.51-43L317,149.3h.07a2.87,2.87,0,0,1,2.87,2.87l0,32.38a2.89,2.89,0,0,1-2.81,2.88l-112.41,2.48a2.93,2.93,0,0,1-2.08-.82,2.86,2.86,0,0,1-.86-2.06l0-32.38A2.88,2.88,0,0,1,204.6,151.78Z"/></svg>