<?xml version="1.0" encoding="UTF-8"?>
<svg id="Layer_3" data-name="Layer 3" xmlns="http://www.w3.org/2000/svg" viewBox="0 0 480 320">
  <defs>
    <style>
      .cls-1 {
        fill: #000;
      }
    </style>
  </defs>
  <path class="cls-1" d="m451.11,136.13c-.03-2.34-1.06-4.58-2.85-6.14-1.42-1.24-3.19-1.94-5.01-2.02l-150.42-67.49c-2.11-.98-4.43-1.42-6.73-1.29l-250.95,16.35c-4.06.25-7.12,3.52-7.12,7.71l1.65,70.77c0,3.27,1.33,6.51,3.65,8.89l.11.12,109.66,95.45.32-.37c.26.32.54.62.85.89,1.35,1.18,3.06,1.82,4.81,1.82.29,0,.58-.02.87-.05l294.56-36.43c4.3-.53,7.5-4.23,7.46-8.61l-.86-79.61Zm-302.26,36.19l294.05-36.37c.06.01.21.14.21.27l.54,50.09-294.26,36.39-.54-50.38Zm137.75-105.14c.97-.06,1.96.14,2.91.58l138.2,62.01-280.79,34.73c-.52.06-1.01.2-1.49.37L42.64,83.07l243.96-15.89ZM37.68,153.93l-1.53-65.81,104.71,83.32c0,.09-.01.18,0,.27l.81,74.91-102.69-89.39c-.82-.89-1.28-2.05-1.28-3.3Zm405.85,62.48l-293.81,36.34-.28-26.02,294.26-36.39.27,25.5c0,.12-.03.53-.44.58Z"/>
  <path class="cls-1" d="m219.74,172.38c-1.3-1.14-3.04-1.67-4.77-1.46l-39.15,4.84c-3.35.41-5.95,3.49-5.91,7l.23,20.93c.02,1.89.82,3.66,2.18,4.86,1.11.97,2.54,1.5,4.01,1.5.25,0,.5-.01.75-.05l39.15-4.84c3.35-.42,5.95-3.49,5.91-7l-.23-20.93c-.02-1.89-.82-3.66-2.18-4.86Zm-41.62,29.44l-.2-18.26,36.02-4.46.2,18.26-36.02,4.46Z"/>
  <path class="cls-1" d="m276.9,165.56c-1.3-1.14-3.05-1.68-4.77-1.46l-39.15,4.84c-3.35.42-5.95,3.49-5.91,7l.23,20.92c.02,1.89.82,3.67,2.18,4.86,1.11.97,2.55,1.5,4.02,1.5.25,0,.5-.01.75-.05l39.15-4.84c3.35-.42,5.95-3.49,5.91-7l-.23-20.92c-.02-1.89-.82-3.67-2.18-4.86Zm-41.62,29.44l-.2-18.26,36.02-4.46.2,18.26-36.02,4.46Z"/>
  <path class="cls-1" d="m414.09,154.02c-.52-.67-1.09-1.3-1.73-1.86-2.82-2.47-6.46-3.57-10.23-3.1-8.04,1-14.51,8.97-14.42,17.77.05,4.55,1.87,8.73,4.99,11.46,1.9,1.66,4.17,2.7,6.61,3.06,2.01.99,4.31,1.42,6.75,1.12,7.62-.94,13.72-8.54,13.62-16.97-.05-4.96-2.25-9.1-5.6-11.47Zm-12.69-.76c-5.46,2.69-9.36,8.9-9.29,15.64,0,.38.04.76.06,1.13-.28-1.03-.45-2.12-.46-3.25-.07-6.37,4.18-12.16,9.68-13.53Z"/>
  <path class="cls-1" d="m174.93,236.05c2.13-.26,3.83-2.38,3.81-4.74s-1.77-4.05-3.9-3.79-3.83,2.38-3.81,4.74,1.77,4.05,3.9,3.79Z"/>
  <path class="cls-1" d="m175.37,237.93c-2.37.29-4.28,2.63-4.25,5.2.01,1.34.56,2.58,1.49,3.4.73.63,1.63.97,2.58.97.17,0,.34,0,.51-.03,2.37-.29,4.28-2.63,4.25-5.2-.01-1.34-.56-2.58-1.49-3.4-.85-.75-1.96-1.08-3.09-.94Zm.08,7.55c-.57.07-1.1-.09-1.53-.46-.5-.44-.8-1.14-.8-1.91-.02-1.56,1.13-3.03,2.49-3.2.09-.01.18-.02.26-.02.47,0,.9.16,1.26.48.5.44.8,1.14.8,1.91.02,1.56-1.13,3.03-2.49,3.2Z"/>
  <path class="cls-1" d="m364.65,208.39c-.26-.35-.55-.67-.88-.95-1.3-1.14-2.97-1.64-4.7-1.43-3.61.45-6.51,4-6.47,7.92.02,2.05.85,3.93,2.26,5.17.82.71,1.78,1.18,2.81,1.37,1.15,1.14,2.75,1.74,4.5,1.53,3.47-.43,6.25-3.89,6.21-7.73-.03-2.81-1.57-5.04-3.75-5.87Zm-5.2.6s.05,0,.08,0c-2.06,1.26-3.52,3.64-3.68,6.27-.14-.42-.23-.88-.24-1.36-.03-2.4,1.73-4.65,3.83-4.91Z"/>
  <path class="cls-1" d="m390.05,205.25c-.26-.35-.55-.67-.88-.95-1.3-1.13-2.97-1.64-4.7-1.43-3.61.45-6.51,4-6.47,7.92.02,2.05.85,3.93,2.26,5.17.82.71,1.78,1.18,2.81,1.37,1.15,1.14,2.75,1.74,4.5,1.53,3.47-.43,6.25-3.89,6.21-7.73-.03-2.81-1.57-5.04-3.75-5.87Zm-5.2.59s.05,0,.08,0c-2.06,1.26-3.52,3.64-3.68,6.27-.14-.42-.23-.88-.24-1.36-.03-2.4,1.73-4.65,3.83-4.91Z"/>
  <path class="cls-1" d="m213.56,227.08c-.26-.35-.55-.67-.88-.95-1.3-1.13-2.96-1.65-4.7-1.43-3.61.45-6.51,4-6.47,7.92.02,2.05.85,3.93,2.26,5.17.82.71,1.78,1.18,2.81,1.37,1.15,1.14,2.75,1.75,4.5,1.53,3.47-.43,6.25-3.89,6.21-7.73-.03-2.81-1.57-5.04-3.75-5.87Zm-5.2.59s.05,0,.08,0c-2.06,1.26-3.52,3.64-3.68,6.27-.14-.42-.24-.88-.24-1.36-.03-2.4,1.73-4.65,3.83-4.91Z"/>
  <path class="cls-1" d="m238.97,223.93c-.26-.35-.55-.67-.88-.96-1.3-1.13-2.96-1.64-4.69-1.43-3.61.45-6.51,4-6.47,7.92.02,2.05.85,3.93,2.26,5.17.82.71,1.78,1.18,2.81,1.37,1.15,1.14,2.75,1.75,4.5,1.53,3.47-.43,6.25-3.89,6.21-7.73-.03-2.81-1.57-5.04-3.75-5.87Zm-5.2.6s.05,0,.08,0c-2.06,1.26-3.52,3.64-3.68,6.27-.14-.42-.24-.88-.24-1.36-.03-2.4,1.73-4.65,3.84-4.91Z"/>
  <path class="cls-1" d="m272.77,219.21c-1-.88-2.3-1.27-3.64-1.1-2.82.35-5.09,3.13-5.05,6.2.02,1.6.66,3.07,1.76,4.03.85.75,1.92,1.14,3.04,1.14.2,0,.4-.01.6-.04.27-.03.53-.09.78-.17.03,0,.06,0,.1,0,1.67-.21,3.07-1.57,3.58-3.29.39-.84.6-1.78.59-2.74-.02-1.6-.66-3.07-1.76-4.03Zm-3.39.88c.12-.01.23-.02.35-.02.64,0,1.25.22,1.73.65.06.05.1.11.15.17-.42-.12-.87-.17-1.34-.11-2.12.26-3.82,2.38-3.8,4.73,0,.17.03.33.05.5-.27-.5-.43-1.08-.44-1.71-.02-2.09,1.46-3.97,3.3-4.2Z"/>
  <path class="cls-1" d="m286.07,217.57c-1.01-.88-2.3-1.28-3.64-1.11-2.82.35-5.08,3.13-5.05,6.2.02,1.6.66,3.07,1.76,4.03.85.75,1.92,1.14,3.04,1.14.2,0,.4-.01.6-.04.27-.03.53-.09.78-.17.03,0,.06,0,.1,0,1.67-.21,3.07-1.57,3.58-3.29.39-.84.6-1.78.59-2.74-.02-1.6-.66-3.07-1.76-4.03Zm-3.39.88c.12-.01.23-.02.35-.02.64,0,1.25.22,1.73.65.06.05.1.11.15.17-.42-.12-.87-.17-1.34-.11-2.12.26-3.82,2.38-3.8,4.73,0,.17.03.33.05.5-.27-.5-.43-1.08-.44-1.71-.02-2.09,1.46-3.97,3.3-4.2Z"/>
  <path class="cls-1" d="m300.06,215.84c-1-.88-2.3-1.27-3.64-1.1-2.82.35-5.09,3.13-5.05,6.2.02,1.6.66,3.07,1.76,4.03.85.75,1.92,1.14,3.04,1.14.2,0,.4-.01.6-.04.27-.03.52-.09.78-.17.03,0,.06,0,.1,0,1.67-.21,3.07-1.57,3.58-3.29.39-.84.6-1.78.59-2.74-.02-1.6-.66-3.07-1.76-4.03Zm-3.39.88c.12-.01.23-.02.35-.02.64,0,1.25.22,1.73.65.06.05.1.11.15.17-.42-.12-.87-.17-1.34-.11-2.12.26-3.82,2.38-3.8,4.73,0,.17.03.33.05.5-.27-.5-.43-1.08-.44-1.71-.02-2.09,1.46-3.97,3.3-4.2Z"/>
  <path class="cls-1" d="m313.99,214.11c-1-.88-2.3-1.27-3.64-1.1-2.82.35-5.09,3.13-5.05,6.2.02,1.6.66,3.07,1.76,4.03.85.75,1.92,1.14,3.04,1.14.2,0,.4-.01.6-.04.27-.03.53-.09.78-.17.03,0,.06,0,.1,0,1.67-.21,3.07-1.57,3.58-3.29.39-.84.61-1.78.6-2.74-.02-1.6-.66-3.07-1.76-4.03Zm-3.39.88c.12-.01.23-.02.35-.02.64,0,1.25.22,1.73.65.06.05.1.11.15.17-.42-.12-.87-.17-1.34-.11-2.12.26-3.82,2.38-3.8,4.73,0,.17.03.33.05.5-.27-.5-.43-1.08-.44-1.71-.02-2.09,1.46-3.97,3.3-4.2Z"/>
  <path class="cls-1" d="m328.06,212.37c-1-.88-2.3-1.27-3.64-1.1-2.82.35-5.08,3.13-5.05,6.2.02,1.6.66,3.07,1.76,4.03.85.75,1.92,1.14,3.04,1.14.2,0,.4-.01.6-.04.27-.03.53-.09.78-.17.03,0,.06,0,.1,0,1.67-.21,3.07-1.57,3.58-3.29.39-.84.61-1.78.6-2.74-.02-1.6-.66-3.07-1.76-4.03Zm-3.39.88c.12-.01.23-.02.35-.02.64,0,1.25.22,1.73.65.06.05.1.11.15.17-.42-.12-.87-.17-1.34-.11-2.12.26-3.82,2.38-3.8,4.73,0,.17.03.33.05.5-.27-.5-.43-1.08-.44-1.71-.02-2.08,1.46-3.97,3.3-4.2Z"/>
  <path class="cls-1" d="m415.49,198.09c-2.13.26-3.83,2.38-3.8,4.74s1.77,4.05,3.9,3.79,3.83-2.38,3.81-4.74-1.77-4.05-3.9-3.79Z"/>
  <path class="cls-1" d="m415.48,208.92c-2.13.26-3.83,2.38-3.8,4.74s1.77,4.05,3.9,3.79,3.83-2.38,3.81-4.74-1.77-4.05-3.9-3.79Z"/>
</svg>