<svg id="Artwork" xmlns="http://www.w3.org/2000/svg" viewBox="0 0 480 320"><defs><style>.cls-1{fill:#000;}</style></defs><path class="cls-1" d="M433.4,105h-.16l-8.06.33L338.27,85.63a33.41,33.41,0,0,0-8.69-.81L45.2,96a9,9,0,0,0-8.58,9.16l.4,74.34a4,4,0,0,0,.54,2l26.12,45.31a13.83,13.83,0,0,0,3.7,5.09,13.5,13.5,0,0,0,8.82,3.32c.34,0,.68,0,1,0l353.29-23.95a13.67,13.67,0,0,0,12.88-13.57v-83A9.8,9.8,0,0,0,433.4,105Zm.06,8c.94,0,1.93.66,1.93,1.59v18.93L70.78,149.82l-.17-21.95Zm-10.15,50.69c0,7.86-5.68,14.26-12.66,14.26a10.71,10.71,0,0,1-2.35-.26,14.47,14.47,0,0,1-7.12-4.56,15.25,15.25,0,0,1-3.2-9.44c0-7.87,5.68-14.27,12.67-14.27a11.74,11.74,0,0,1,8,3.18,16.74,16.74,0,0,1,4.67,10C423.29,163,423.31,163.35,423.31,163.72Zm-30.34.05a18.42,18.42,0,0,0,2.15,9.35,15.86,15.86,0,0,1-4.32-10.2A15.44,15.44,0,0,1,396.09,152,18,18,0,0,0,393,163.77Zm-178.3-12.36,107.75-4.81v34.28a2.83,2.83,0,0,1-2.38,2.4l-102.83,6.38-.2,0a2.15,2.15,0,0,1-1.67-.54,2,2,0,0,1-.67-1.48Zm115.22-58.6a25.78,25.78,0,0,1,6.61.62l58.06,13.19L68.31,120a2.66,2.66,0,0,1-2-.83l-16-15.31ZM44.64,109.49l16,15.34a10.25,10.25,0,0,0,2,1.54L63.25,210,45,178.4Zm385.29,93.74-353.29,24a5.51,5.51,0,0,1-4-1.36,6.08,6.08,0,0,1-1.24-1.53l-.51-66.47,135.82-6.06v35.9A10,10,0,0,0,210,195.1a10.14,10.14,0,0,0,6.77,2.59c.33,0,.67,0,1-.05l102.9-6.38.24,0a10.77,10.77,0,0,0,9.49-10.36V146.24L394,143.4a22.85,22.85,0,1,0,22-1l19.43-.87v56.09A5.65,5.65,0,0,1,429.93,203.23Z"/><circle class="cls-1" cx="91.04" cy="177.86" r="9.79"/><circle class="cls-1" cx="345.44" cy="165.63" r="6.95"/><circle class="cls-1" cx="368.02" cy="165.63" r="6.95"/><polygon class="cls-1" points="179.96 195.85 199.09 194.84 199.09 184.27 179.96 185.28 179.96 195.85"/><path class="cls-1" d="M161.57,161.82a14.09,14.09,0,1,0,14.09,14.09A14.1,14.1,0,0,0,161.57,161.82Zm0,22.17a8.09,8.09,0,1,1,8.09-8.08A8.08,8.08,0,0,1,161.57,184Z"/></svg>