<svg id="Artwork" xmlns="http://www.w3.org/2000/svg" viewBox="0 0 480 320"><defs><style>.cls-1{fill:#000;}</style></defs><path class="cls-1" d="M460.05,94.86a7.93,7.93,0,0,0-5.82-2.39l-11.05.13L362.06,74.07a40.64,40.64,0,0,0-10.48-1.26L33.71,77.24A16.24,16.24,0,0,0,17.57,93.45v77.43a26.14,26.14,0,0,0,2.73,11.58L35.46,212.8A16.54,16.54,0,0,0,52,228.19h.4c65.54-1.59,359.17-11.1,398.65-12.4a9.83,9.83,0,0,0,9.56-9.69c.39-19.34,1.45-90.69,1.79-105.39A8.07,8.07,0,0,0,460.05,94.86Zm-423.4,60-.9,40.62-8.29-16.61a17.93,17.93,0,0,1-1.89-8V93.45c0-.23,0-.47,0-.7l11.76,10.53ZM30.16,86.09a8.28,8.28,0,0,1,3.62-.85l317.89-4.43a33.34,33.34,0,0,1,8.52,1L409.1,93,51.36,97.41a14.44,14.44,0,0,0-6.66,1.71ZM452.59,206a1.85,1.85,0,0,1-1.81,1.83c-39.49,1.3-333.08,10.82-398.6,12.4a8.57,8.57,0,0,1-8.79-8.43l.68-30.58,1.11-69.56a6.32,6.32,0,0,1,6.27-6.2l402.93-4.89C454.05,115.22,453,186.59,452.59,206Z"/><path class="cls-1" d="M88.44,192.64c5.9,4.49,12.57-2.18,8.08-8.08C90.61,180.06,83.94,186.73,88.44,192.64Z"/><path class="cls-1" d="M91.37,144.78a7.65,7.65,0,1,0-6-6A7.67,7.67,0,0,0,91.37,144.78Z"/><path class="cls-1" d="M398,172.62c12.57,0,22.81-10.83,22.81-24.15S410.59,124.32,398,124.32s-22.82,10.83-22.82,24.15S385.44,172.62,398,172.62Zm0-39.55c7.75,0,14.06,6.91,14.06,15.4s-6.31,15.4-14.06,15.4S384,157,384,148.47,390.26,133.07,398,133.07Z"/><path class="cls-1" d="M174.48,194.2a9.53,9.53,0,0,0,6.71,2.73h.26l141.74-3.71h0a9.57,9.57,0,0,0,9.37-9.63l0-55.24a9.61,9.61,0,0,0-9.87-9.61L180.9,122.45a9.56,9.56,0,0,0-9.37,9.62l0,55.24A9.55,9.55,0,0,0,174.48,194.2Zm6.63-63.76,141.75-3.71h0a1.62,1.62,0,0,1,1.62,1.63l0,55.24a1.61,1.61,0,0,1-1.58,1.62h0l-141.74,3.71a1.47,1.47,0,0,1-1.18-.46,1.64,1.64,0,0,1-.49-1.16l0-55.24A1.62,1.62,0,0,1,181.11,130.44Z"/><polygon class="cls-1" points="379.54 192.28 379.59 198.32 397.11 197.72 397.05 191.68 379.54 192.28"/><polygon class="cls-1" points="401.26 191.46 401.32 197.5 418.83 196.9 418.78 190.86 401.26 191.46"/></svg>