<svg id="Artwork" xmlns="http://www.w3.org/2000/svg" viewBox="0 0 480 320"><defs><style>.cls-1{fill:#000;}</style></defs><path class="cls-1" d="M457.3,83.9a7.8,7.8,0,0,0-5.62-2.22l-9.38.2v0L348.18,68.38a37.91,37.91,0,0,0-6.11-.37L32,74.2a12,12,0,0,0-11.66,12l1,101.67a21.25,21.25,0,0,0,1.74,8.46l24.77,50.06A7.78,7.78,0,0,0,55.36,252h.45L452.38,228a7.8,7.8,0,0,0,7.25-7.78V89.47A7.8,7.8,0,0,0,457.3,83.9Zm-5.67,24.89L54.14,121l-.27-22.83,397.76-8.5ZM326.91,120.63v55a3.86,3.86,0,0,1-3.7,3.86l-112.87,5a3.84,3.84,0,0,1-2.82-1.06,3.89,3.89,0,0,1-1.21-2.77l-.63-56.34ZM342.24,76a28.71,28.71,0,0,1,4.81.29l46.32,6.63L53.72,90.18h-.06a7.73,7.73,0,0,0-2.53.43L37,82.11ZM29.36,187.82l-1-101.56L46,96.84a7,7,0,0,0-.09,1.21l1.5,129.3-17-34.28A13.37,13.37,0,0,1,29.36,187.82ZM55.57,244,54.23,129l143.45-4.41.63,56.17a11.85,11.85,0,0,0,11.88,11.75h.5l112.87-5a11.83,11.83,0,0,0,11.35-11.86V120.38l116.72-3.59V220Z"/><path class="cls-1" d="M79.16,160.37a5.7,5.7,0,1,0,5.69,5.7A5.7,5.7,0,0,0,79.16,160.37Z"/><path class="cls-1" d="M166.05,157a5.37,5.37,0,1,0,5.37,5.37A5.37,5.37,0,0,0,166.05,157Z"/><path class="cls-1" d="M185.1,157a5.37,5.37,0,1,0,5.36,5.37A5.36,5.36,0,0,0,185.1,157Z"/><path class="cls-1" d="M346.64,150.2a5.37,5.37,0,1,0,5.36,5.37A5.36,5.36,0,0,0,346.64,150.2Z"/><path class="cls-1" d="M370.62,154.93a5.37,5.37,0,1,0-5.36,5.37A5.37,5.37,0,0,0,370.62,154.93Z"/><path class="cls-1" d="M400.83,180.09v0a22.73,22.73,0,0,0,7.31,1.2c13.32,0,24.15-11.43,24.15-25.47,0-12.19-8.17-22.41-19-24.89a23.5,23.5,0,0,0-11-2.75h-.14a26.07,26.07,0,0,0-1.26,51.94Zm23.47-24.31c0,9.63-7.24,17.47-16.15,17.47S392,165.42,392,155.8v0a18.43,18.43,0,0,1,1.79-8,16.89,16.89,0,0,1,14.43-9.3,15.24,15.24,0,0,1,3.3.37l.07-.17C418.85,140.43,424.3,147.43,424.3,155.78Z"/><path class="cls-1" d="M78.16,217.35a5.37,5.37,0,1,0,5.37,5.37A5.36,5.36,0,0,0,78.16,217.35Z"/><path class="cls-1" d="M126.22,143.79h-.85a20.33,20.33,0,1,0,0,40.65l.32,0,.32,0h.21a20.33,20.33,0,0,0,0-40.65Zm-12.33,20.32a11.91,11.91,0,1,1,11.9,12.3A12.33,12.33,0,0,1,113.89,164.11Z"/><path class="cls-1" d="M433.74,193.36l-65.85,3a2.76,2.76,0,0,0-2.46,2.72v8.5a2.75,2.75,0,0,0,2.89,2.76l65.68-3a2.77,2.77,0,0,0,2.63-2.77v-8.5a2.79,2.79,0,0,0-.85-2A2.75,2.75,0,0,0,433.74,193.36Z"/><path class="cls-1" d="M190.74,211.43a5.36,5.36,0,1,0,5.65,5.06A5.35,5.35,0,0,0,190.74,211.43Z"/><path class="cls-1" d="M206.21,210.57a5.37,5.37,0,1,0,5.65,5.07A5.38,5.38,0,0,0,206.21,210.57Z"/><path class="cls-1" d="M233.23,209.09a5.36,5.36,0,1,0,5.65,5.06A5.37,5.37,0,0,0,233.23,209.09Z"/><path class="cls-1" d="M248.7,208.23a5.37,5.37,0,1,0,5.65,5.07A5.38,5.38,0,0,0,248.7,208.23Z"/><path class="cls-1" d="M264.22,207.38a5.37,5.37,0,1,0,5.65,5.06A5.37,5.37,0,0,0,264.22,207.38Z"/><path class="cls-1" d="M279.69,206.53a5.37,5.37,0,1,0,5.65,5.06A5.37,5.37,0,0,0,279.69,206.53Z"/><path class="cls-1" d="M294.82,205.69a5.37,5.37,0,1,0,5.65,5.07A5.37,5.37,0,0,0,294.82,205.69Z"/><path class="cls-1" d="M310.29,204.84a5.37,5.37,0,1,0,5.65,5.07A5.38,5.38,0,0,0,310.29,204.84Z"/></svg>