<?xml version="1.0" encoding="UTF-8"?>
<svg id="Layer_3" data-name="Layer 3" xmlns="http://www.w3.org/2000/svg" viewBox="0 0 480 320">
  <defs>
    <style>
      .cls-1 {
        fill: #000;
      }
    </style>
  </defs>
  <path class="cls-1" d="m402.19,127.65c.25-2.51-.78-4.97-2.86-6.59-.04-.03-.07-.06-.11-.08l-64.78-47.1c-3.79-2.76-8.27-4.22-13.03-4.22l-225.98,3.69c-8.74,0-15.8,6.84-16.08,15.62l-1.58,82.54c-.18,5.49,2.07,10.75,6.16,14.42l59.11,53.08c3.94,3.54,9.03,5.49,14.41,5.49h0l16.62-.35,1.01,3.32c.51,1.68,2.06,2.84,3.82,2.84l18.59.03h0c1.69,0,3.19-1.06,3.76-2.64l1.49-4.14,136.88-2.84,1.25,4.11c.51,1.68,2.06,2.84,3.82,2.84l18.59.03h0c1.69,0,3.19-1.06,3.76-2.64l1.78-4.94,17.74-.37c8.02,0,14.61-6.52,14.69-14.54l.97-96.83c0-.24-.02-.48-.06-.71ZM95.49,81.35l225.98-3.69c2.99,0,5.84.93,8.26,2.69l63.49,46.16-237.74,6.44c-2.83-.01-5.57-1.04-7.66-2.86l-53.92-48.6c.51-.1,1.04-.15,1.58-.15Zm-6.22,98.63c-2.33-2.09-3.61-5.08-3.51-8.27l1.58-82.54c.03-.85.18-1.67.45-2.43l54.74,49.33c1.12.97,2.34,1.79,3.62,2.48l-1.14,91.46-55.74-50.05Zm304.01,45.14c-.04,3.65-3.04,6.62-6.77,6.62l-229.14,4.76c-1.53,0-3.02-.27-4.44-.76l1.18-94.85c.47.03.94.06,1.42.06.04,0,.07,0,.11,0l238.54-6.46-.91,90.63Z"/>
  <path class="cls-1" d="m186.41,198.3c5.8-.39,10.49-5.47,10.49-11.34,0-5.88-4.71-10.34-10.51-9.95-5.79.39-10.48,5.47-10.48,11.35,0,5.87,4.71,10.33,10.5,9.94Z"/>
</svg>