<svg id="Artwork" xmlns="http://www.w3.org/2000/svg" viewBox="0 0 480 320"><defs><style>.cls-1{fill:#000;}</style></defs><path class="cls-1" d="M454.3,91.08a7.79,7.79,0,0,0-5.61-2.22l-9.39.2v0L345.18,75.56a37.84,37.84,0,0,0-6.11-.37L29,81.38a12,12,0,0,0-11.67,12l1,101.66a21.44,21.44,0,0,0,1.74,8.47l24.77,50.06a7.78,7.78,0,0,0,7.5,5.65h.44l396.57-24.06a7.81,7.81,0,0,0,7.26-7.78V96.65A7.81,7.81,0,0,0,454.3,91.08ZM448.64,116,51.14,128.19l-.26-22.83,397.76-8.5ZM323.91,127.81v55a3.86,3.86,0,0,1-3.7,3.87l-112.86,5a3.88,3.88,0,0,1-2.83-1.06,3.92,3.92,0,0,1-1.2-2.77l-.64-56.34Zm15.34-44.62a28.52,28.52,0,0,1,4.8.29l46.32,6.62L50.73,97.36h-.07a7.71,7.71,0,0,0-2.52.43L34,89.29ZM26.36,195l-1-101.56L43,104a8.12,8.12,0,0,0-.1,1.21l1.51,129.3-17-34.28A13.55,13.55,0,0,1,26.36,195Zm26.21,56.2-1.34-115,143.45-4.41.64,56.17a11.87,11.87,0,0,0,11.87,11.75h.51l112.86-5a11.83,11.83,0,0,0,11.35-11.86V127.56L448.64,124v103.2Z"/><path class="cls-1" d="M76.16,167.55a5.7,5.7,0,1,0,5.7,5.7A5.7,5.7,0,0,0,76.16,167.55Z"/><path class="cls-1" d="M163.06,164.18a5.37,5.37,0,1,0,5.36,5.37A5.36,5.36,0,0,0,163.06,164.18Z"/><path class="cls-1" d="M182.1,164.18a5.37,5.37,0,1,0,5.37,5.37A5.37,5.37,0,0,0,182.1,164.18Z"/><path class="cls-1" d="M343.64,157.38a5.37,5.37,0,1,0,5.37,5.37A5.37,5.37,0,0,0,343.64,157.38Z"/><path class="cls-1" d="M367.63,162.11a5.37,5.37,0,1,0-5.37,5.36A5.36,5.36,0,0,0,367.63,162.11Z"/><path class="cls-1" d="M397.83,187.27v0a23.1,23.1,0,0,0,7.31,1.2c13.32,0,24.15-11.43,24.15-25.47,0-12.19-8.16-22.41-19-24.89a23.57,23.57,0,0,0-11-2.75h-.14a26.07,26.07,0,0,0-1.26,52ZM421.3,163c0,9.63-7.24,17.47-16.15,17.47S389,172.6,389,163v0a18.73,18.73,0,0,1,1.79-7.95,16.9,16.9,0,0,1,14.43-9.3,15.24,15.24,0,0,1,3.3.37l.08-.17C415.85,147.61,421.3,154.6,421.3,163Z"/><path class="cls-1" d="M76.16,219.53a5.37,5.37,0,1,0,5.37,5.37A5.36,5.36,0,0,0,76.16,219.53Z"/><path class="cls-1" d="M123.22,151h-.85a20.32,20.32,0,0,0,0,40.64h.85a20.32,20.32,0,1,0,0-40.64ZM110.9,171.29a11.91,11.91,0,1,1,11.9,12.3A12.32,12.32,0,0,1,110.9,171.29Z"/><path class="cls-1" d="M430.75,200.54l-65.85,3a2.76,2.76,0,0,0-2.47,2.72v8.5a2.76,2.76,0,0,0,.86,2,2.73,2.73,0,0,0,2,.76l65.68-3a2.77,2.77,0,0,0,2.64-2.77v-8.5a2.76,2.76,0,0,0-.86-2A2.73,2.73,0,0,0,430.75,200.54Z"/></svg>