<svg id="Artwork" xmlns="http://www.w3.org/2000/svg" viewBox="0 0 480 320"><defs><style>.cls-1{fill:#000;}</style></defs><path class="cls-1" d="M385.49,133.52h-.2a22.18,22.18,0,0,0-4.74.65l0-.16a22,22,0,0,0-3.24-.28h-.12a22.5,22.5,0,0,0-21.89,23.55,22.26,22.26,0,0,0,21.93,22.94h.11a21.59,21.59,0,0,0,3-.28l-.06-.37a22.88,22.88,0,0,0,5,.66h.2a23.4,23.4,0,0,0,0-46.69Zm-24.17,23.85v-.27A16.61,16.61,0,0,1,365.67,145a16.83,16.83,0,0,1,1.37-1.3,22.68,22.68,0,0,0-3.65,13.34,22.45,22.45,0,0,0,3.87,13.46,18.92,18.92,0,0,1-1.48-1.36A16.36,16.36,0,0,1,361.32,157.37Zm40-.61a17,17,0,0,1-16,17.45,16.25,16.25,0,0,1-15.92-17v-.3a16.51,16.51,0,0,1,16-17.37,16.89,16.89,0,0,1,16,17.11v.13Z"/><path class="cls-1" d="M416.83,118.31,124.89,109a8.09,8.09,0,0,0-5.92,2.38,11.68,11.68,0,0,0-3.29,8.4v78.43c0,6,4,10.69,9.09,10.69h.09l292-12.81h.06a9.43,9.43,0,0,0,8.85-9.41V127.73A9.32,9.32,0,0,0,416.83,118.31Zm-208.14,8.11,124.84,3.24v53.48l-124.84,4.44Zm0,69.17,124.84-4.44v.54l-124.84,5.48Zm-83.94,5.26c-.25-.06-1.07-.92-1.07-2.69V119.73a3.59,3.59,0,0,1,1-2.78l76,2.44v78.13Zm293-14.22a1.43,1.43,0,0,1-1.31,1.42l-75,3.29V123.9l75,2.41a1.33,1.33,0,0,1,1.27,1.38Z"/><path class="cls-1" d="M436.73,108.28,99.39,95.13a12.3,12.3,0,0,0-2.41.08l-54.52,5.72A13.11,13.11,0,0,0,30.68,114v73.75A16.23,16.23,0,0,0,41,202.91l50.36,20a28,28,0,0,0,10.28,2c.52,0,1,0,1.55,0l329.43-18.72a17.77,17.77,0,0,0,16.75-17.73v-67A13.07,13.07,0,0,0,436.73,108.28ZM43.91,195.47a8.25,8.25,0,0,1-5.23-7.71V114a5.14,5.14,0,0,1,4.61-5.13L93,103.67l.6,111.58Zm397.41-7.07a9.77,9.77,0,0,1-9.21,9.75L102.69,216.86l-1,0L101,103.2l335.39,13.08a5.07,5.07,0,0,1,4.9,5.09Z"/></svg>