<svg id="Artwork" xmlns="http://www.w3.org/2000/svg" viewBox="0 0 480 320"><defs><style>.cls-1{fill:#000;}</style></defs><path class="cls-1" d="M399.2,135.43H399a23.37,23.37,0,0,0-3.24.3,22.62,22.62,0,0,0-3.49-.3h-.1a24.31,24.31,0,0,0-23.71,25.49,24,24,0,0,0,23.74,25h.11a23.23,23.23,0,0,0,3.22-.3A24.1,24.1,0,0,0,399,186h.19a24.81,24.81,0,0,0,23.62-25.49A24.53,24.53,0,0,0,399.2,135.43Zm-24.74,25.62v-.3a18.39,18.39,0,0,1,3-11,24.33,24.33,0,0,0-2.15,11.21,24.05,24.05,0,0,0,2.13,10.89A18.15,18.15,0,0,1,374.46,161.05Zm42.39-.51A18.84,18.84,0,0,1,399,179.94a18,18,0,0,1-17.71-18.89v-.31a17.83,17.83,0,1,1,35.56-.33v.13Z"/><path class="cls-1" d="M433.22,106.19h-.07l-319.27,7.24a8.49,8.49,0,0,0-6.09,2.5,12.42,12.42,0,0,0-3.48,8.92v85.66c0,6.35,4.21,11.33,9.58,11.33H114l319.6-15.56h.08a10,10,0,0,0,9.26-9.92V116.11A9.87,9.87,0,0,0,433.22,106.19ZM342.73,191l-137.34,6.46V131l137.34-2.72ZM205.39,205.42,342.73,199v3.73l-137.34,6.69Zm137.34-85.1L205.39,123v-3.69l137.34-3.11ZM113.84,213.84c-.56-.07-1.53-1.32-1.53-3.33V124.85a4.55,4.55,0,0,1,1.06-3.18.78.78,0,0,1,.4-.25h.1l83.52-1.9v90.24Zm321.08-17.48a2,2,0,0,1-1.78,1.93l-82.41,4V116.06l82.42-1.87a1.86,1.86,0,0,1,1.77,1.89Z"/><path class="cls-1" d="M152.38,221.14a3.46,3.46,0,0,0-2.76,3.72c0,2,1.23,3.51,2.76,3.51a3.51,3.51,0,0,0,2.76-3.73C155.14,222.63,153.91,221.06,152.38,221.14Z"/><path class="cls-1" d="M456.93,91.17v-.11h-.54L386.13,80a29.79,29.79,0,0,0-8.87-1.16L23.07,85.26a10.13,10.13,0,0,0-11.75,10V199.85A19.46,19.46,0,0,0,23.66,218l55.81,21.83a20.28,20.28,0,0,0,7.42,1.4c.38,0,.77,0,1.15,0L468.68,220V105.22A14.21,14.21,0,0,0,456.93,91.17ZM377.41,86.8a22.45,22.45,0,0,1,6.71.91l.25.08L410.78,92,84.25,98.34,57.58,92.63ZM80.25,231.56l-53.65-21a11.48,11.48,0,0,1-7.28-10.73V95.27a2.14,2.14,0,0,1,2.12-2.14,1.9,1.9,0,0,1,.46.05l58.35,12.48v125.9Zm380.43-19.15L88.25,233.19V106.26l367.43-7.17a6.23,6.23,0,0,1,5,6.13Z"/></svg>