<svg id="Artwork" xmlns="http://www.w3.org/2000/svg" viewBox="0 0 480 320"><defs><style>.cls-1{fill:#000;}</style></defs><path class="cls-1" d="M460.6,122.24a10.78,10.78,0,0,0-10.51-10.18H450l-18.76.14L284.42,86.54l-.38-.06L27.51,90.61a7.93,7.93,0,0,0-2.39.4l-.63-.18-.14.47a8.29,8.29,0,0,0-5,7.56v78.08a16.28,16.28,0,0,0,9.88,15l81.59,32.27a11.07,11.07,0,0,0,10.57,9.33h.13L449.9,221.64a10.85,10.85,0,0,0,10.7-10.24V122.24ZM283.41,94.49l103.3,18.05-266.06,2h-.12a11.14,11.14,0,0,0-5.79,1.92L50.56,98.24Zm-256,82.45V100l82.74,23.52a11,11,0,0,0-.2,2.81l.74,89.21-78.3-31A8.28,8.28,0,0,1,27.39,176.94Zm425.22,34.11a2.85,2.85,0,0,1-2.82,2.59L121.58,225.52a3.1,3.1,0,0,1-2.87-3.28v-.15l-.79-96v-.28a3,3,0,0,1,2.87-3.27l329.13-2.5a2.83,2.83,0,0,1,2.69,2.56Z"/><path class="cls-1" d="M428.86,123.48h-2.18l-46.88.45-238,2.22a10.54,10.54,0,0,0-1.37.11h-1A11.07,11.07,0,0,0,128.85,138l.5,69.37A11.13,11.13,0,0,0,140,219h.14l286.63-8.76h.09c.36,0,.72,0,1.07,0l1,0a10.79,10.79,0,0,0,10.68-10.33v-66A10.78,10.78,0,0,0,428.86,123.48Zm-190.13,9.83,97.33-.95v29.69a.18.18,0,0,1-.17.17l-97,2.86-.11-.05a.17.17,0,0,1,0-.13Zm-5.81,37.18a8.18,8.18,0,0,0,6,2.59h0l97-2.87a8.17,8.17,0,0,0,8.1-8.16V132.28l4.92-.05.19,72.34-124,3.71-.42-74.84,6-.05V164.5A8.19,8.19,0,0,0,232.92,170.49Zm-16.22-37,.42,75-74.73,2.24a3.07,3.07,0,0,1-2.87-3.26v-.14L139,137.7v-.27a3,3,0,0,1,.78-2.29,3,3,0,0,1,1.47-.88Zm140.47,70.81L357,132.16l21.93-.22,48.15-.44a2.82,2.82,0,0,1,2.62,2.56v65.57a2.84,2.84,0,0,1-2.39,2.6Z"/><path class="cls-1" d="M164.69,193.74a12.28,12.28,0,0,0,8.65,3.92,10.56,10.56,0,0,0,2.95-.46,12.14,12.14,0,0,0,3.47.51h0a12.16,12.16,0,0,0,8.77-3.76,12.95,12.95,0,0,0,0-17.94,12.15,12.15,0,0,0-8.76-3.72h0a12.27,12.27,0,0,0-3.48.52,10.89,10.89,0,0,0-3.26-.57h-.1A12.08,12.08,0,0,0,161.47,185,12.2,12.2,0,0,0,164.69,193.74ZM189.14,185a9.8,9.8,0,0,1-2.75,6.89,9.15,9.15,0,0,1-6.61,2.84h0a9.23,9.23,0,0,1-1.18-.08l-1.34-.55a9.67,9.67,0,0,1-6.05-9.11v-.06a9.58,9.58,0,0,1,5.75-9.1l.42-.19a8.92,8.92,0,0,1,2.37-.33h0a9.15,9.15,0,0,1,6.61,2.82A9.76,9.76,0,0,1,189.14,185Zm-22.38-6.71a9.06,9.06,0,0,1,4.85-2.83c-.22.2-.44.39-.65.61A12.95,12.95,0,0,0,171,194l.42.39a9.14,9.14,0,0,1-6.95-9.35v-.17A9,9,0,0,1,166.76,178.27Z"/><path class="cls-1" d="M402.27,152.15v0l-7.64-.28h-.14a18.76,18.76,0,0,0-.31,37.51l2.69.39a19.79,19.79,0,0,0,2.58.37l1.09.16,0-.1.43,0a19.44,19.44,0,0,0,19.42-19.42v-.15A19.31,19.31,0,0,0,402.27,152.15Zm-1.28,30-.66,0-2-.29a11.42,11.42,0,0,1-8.8-11,10.92,10.92,0,0,1,10.93-10.74h.75a11.29,11.29,0,0,1,11.17,10.75A11.44,11.44,0,0,1,401,182.19Z"/><path class="cls-1" d="M178,165.81a6.73,6.73,0,1,0-6.69-6.76A6.72,6.72,0,0,0,178,165.81Z"/><path class="cls-1" d="M247.71,190.78a5.27,5.27,0,1,0-5.5-5A5.27,5.27,0,0,0,247.71,190.78Z"/><path class="cls-1" d="M260.29,190.31a5.26,5.26,0,1,0-5.51-5A5.27,5.27,0,0,0,260.29,190.31Z"/><path class="cls-1" d="M273.26,189.83a5.27,5.27,0,1,0-5.5-5A5.27,5.27,0,0,0,273.26,189.83Z"/><path class="cls-1" d="M286.23,189.34a5.26,5.26,0,1,0-5.5-5A5.25,5.25,0,0,0,286.23,189.34Z"/><path class="cls-1" d="M299,188.87a5.27,5.27,0,1,0-5.5-5A5.27,5.27,0,0,0,299,188.87Z"/><path class="cls-1" d="M311.77,188.39a5.26,5.26,0,1,0-5.51-5A5.26,5.26,0,0,0,311.77,188.39Z"/><path class="cls-1" d="M325,187.9a5.26,5.26,0,1,0-5.51-5A5.27,5.27,0,0,0,325,187.9Z"/></svg>