<svg id="Artwork" xmlns="http://www.w3.org/2000/svg" viewBox="0 0 480 320"><defs><style>.cls-1{fill:#000;}</style></defs><path class="cls-1" d="M384.73,66.81a13.36,13.36,0,0,0-10.55-3.41l-63.61,7.29c-11.82-3-111.31-31-150.28-42l-.62-.18-55.62,3.79A14,14,0,0,0,90.92,46.85l3.74,99.92a17.91,17.91,0,0,0,7.44,13.9l166,118.79a13.35,13.35,0,0,0,16.14,11.7l90.39-19.66a13.32,13.32,0,0,0,10.53-12.78L389.09,77A13.35,13.35,0,0,0,384.73,66.81ZM290.45,73l-7.41.84L154.81,36.4l4.07-.28C168.05,38.71,251.53,62.23,290.45,73ZM268,133.57,99,61l-.09-2.38L268,129.19Zm0,2.05v4.45L99.14,65.48l-.09-2.37ZM99.22,67.57,268,142.13v4.36L99.31,69.94ZM269,82.42l-138.11-44L140,38,273.29,76.87A13.53,13.53,0,0,0,269,82.42ZM104.55,39.82l10.14-.69L268,88v39.13L98.81,56.58l-.38-10A6.52,6.52,0,0,1,104.55,39.82Zm-2.37,106.67L99.39,72,268,148.55v121.6L106.5,154.56A10.36,10.36,0,0,1,102.18,146.49ZM377.65,258.55a5.83,5.83,0,0,1-4.61,5.6l-90.39,19.66a5.85,5.85,0,0,1-7.1-5.68V87.49a5.87,5.87,0,0,1,5.18-5.81L375,70.87h0a5,5,0,0,1,.67,0,5.86,5.86,0,0,1,5.86,6Z"/><path class="cls-1" d="M327.34,101.19a10.26,10.26,0,0,0,4,.83c6,0,10.86-5.18,10.86-11.54s-4.87-11.54-10.86-11.54a10.26,10.26,0,0,0-4,.83,10.85,10.85,0,0,0,0,21.42Zm1.73-16.87a6.16,6.16,0,1,1,0,12.32l-.4,0a7.18,7.18,0,0,1,0-12.28Z"/><path class="cls-1" d="M328,151.43c-9.83,0-17.83,9-17.83,20s8,20.05,17.83,20.05,17.84-9,17.84-20.05S337.8,151.43,328,151.43Zm0,32.1c-5.42,0-9.83-5.4-9.83-12.05s4.41-12,9.83-12,9.84,5.41,9.84,12S333.39,183.53,328,183.53Z"/><path class="cls-1" d="M360,205.26a12.27,12.27,0,0,0-9.25-2.79L306,210.42l-.17,0a12.3,12.3,0,0,0-9.57,11.42v36.05a12.28,12.28,0,0,0,12.26,11.54,12.47,12.47,0,0,0,1.73-.12l44.77-9.58.15,0a12.33,12.33,0,0,0,9.2-11.41V213.88A12.31,12.31,0,0,0,360,205.26Zm-3.14,42.82a4.73,4.73,0,0,1-3.5,4.34l-44.28,9.49a4.81,4.81,0,0,1-3.57-1,4.75,4.75,0,0,1-1.73-3.3V222.14a4.76,4.76,0,0,1,3.63-4.33l44.28-7.88a4.76,4.76,0,0,1,5.17,4.33Z"/><path class="cls-1" d="M203.07,152V137.41a2.78,2.78,0,0,0-5.55,0V152a13.46,13.46,0,0,0-1.61,6.72c0,4.82,2.05,8.76,4.38,8.76s4.39-3.94,4.39-8.76A13.46,13.46,0,0,0,203.07,152Z"/><path class="cls-1" d="M138.67,105.68a2.19,2.19,0,1,0-4.38,0v10.95a10.41,10.41,0,0,0-1,5.26c0,3.8,1.46,6.87,3.36,6.87s3.36-3.07,3.36-6.87a10.3,10.3,0,0,0-1.31-5.26Z"/></svg>