<svg id="Artwork" xmlns="http://www.w3.org/2000/svg" viewBox="0 0 480 320"><defs><style>.cls-1{fill:#000;}</style></defs><path class="cls-1" d="M462.35,114a10.77,10.77,0,0,0-10.5-10.17h-.07l-18.77.14L286.17,78.26l-.37-.06L29.27,82.33a8.19,8.19,0,0,0-2.39.39l-.64-.18-.13.48a8.29,8.29,0,0,0-5,7.56v78.08a16.28,16.28,0,0,0,9.88,15l81.58,32.27a11.07,11.07,0,0,0,10.57,9.33h.14l328.34-11.88a10.86,10.86,0,0,0,10.7-10.24V114ZM285.17,86.21l103.3,18.05-266.06,2h-.12a11.14,11.14,0,0,0-5.79,1.92L52.31,90Zm-256,82.45v-77l82.73,23.52a11,11,0,0,0-.19,2.81l.73,89.21-78.29-31A8.27,8.27,0,0,1,29.15,168.66Zm425.21,34.1a2.84,2.84,0,0,1-2.81,2.6L123.34,217.23a3.1,3.1,0,0,1-2.08-1,3.13,3.13,0,0,1-.79-2.28v-.14l-.79-96,0-.28a3,3,0,0,1,2.87-3.28l329.14-2.49a2.8,2.8,0,0,1,2.68,2.56Z"/><path class="cls-1" d="M430.62,115.2h-1.56l-.35,0h-.27l-46.88.45-238,2.22a10.4,10.4,0,0,0-1.37.11h-1a11.05,11.05,0,0,0-10.6,11.74l.5,69.37a11.13,11.13,0,0,0,10.68,11.63h.14L428.55,202h.1c.36,0,.72,0,1.07,0l1,0a10.77,10.77,0,0,0,10.67-10.33v-66A10.77,10.77,0,0,0,430.62,115.2ZM240.48,125l97.34-1v29.69a.17.17,0,0,1-.17.16l-97,2.87a.21.21,0,0,1-.1-.06.18.18,0,0,1-.05-.12Zm-5.8,37.18a8.2,8.2,0,0,0,6,2.59h0l97.06-2.87a8.17,8.17,0,0,0,8.1-8.16V124l4.91,0,.19,72.33-124,3.72-.41-74.84,6-.06v31.12A8.21,8.21,0,0,0,234.68,162.21Zm-16.22-37,.41,75-74.72,2.24a3.09,3.09,0,0,1-2.88-3.26v-.14l-.54-69.66,0-.28a3.07,3.07,0,0,1,.79-2.28A3,3,0,0,1,143,126ZM358.92,196l-.19-72.17,21.94-.21,48.14-.45a2.85,2.85,0,0,1,2.63,2.57v65.56a2.84,2.84,0,0,1-2.4,2.6Z"/><path class="cls-1" d="M166.44,185.46a12.31,12.31,0,0,0,8.65,3.92,10.45,10.45,0,0,0,2.95-.46,12.24,12.24,0,0,0,3.47.51h0a12.12,12.12,0,0,0,8.76-3.76,12.92,12.92,0,0,0,0-17.94,12.13,12.13,0,0,0-8.75-3.72h0a11.85,11.85,0,0,0-3.47.52,10.89,10.89,0,0,0-3.26-.57h-.11a12.12,12.12,0,0,0-11.42,12.72A12.31,12.31,0,0,0,166.44,185.46Zm24.46-8.76a9.84,9.84,0,0,1-2.75,6.89,9.23,9.23,0,0,1-6.62,2.84h0a9.08,9.08,0,0,1-1.17-.09L179,185.8a9.65,9.65,0,0,1-6.05-9.11v-.07a9.58,9.58,0,0,1,5.74-9.1l.42-.18a9,9,0,0,1,2.38-.33h0a9.2,9.2,0,0,1,6.61,2.81A9.87,9.87,0,0,1,190.9,176.7ZM168.52,170a9,9,0,0,1,4.85-2.83c-.22.2-.44.39-.65.61a12.95,12.95,0,0,0,0,17.94c.13.14.28.26.42.39a9.16,9.16,0,0,1-7-9.36v-.16A9,9,0,0,1,168.52,170Z"/><path class="cls-1" d="M404,143.86h0l-7.64-.28h-.15a18.76,18.76,0,0,0-.3,37.51l2.68.39a20,20,0,0,0,2.58.37l1.1.16v-.1l.43,0a19.46,19.46,0,0,0,19.43-19.43v-.14A19.31,19.31,0,0,0,404,143.86Zm-1.29,30c-.22,0-.44,0-.65,0l-2-.28a11.4,11.4,0,0,1-8.8-11,10.92,10.92,0,0,1,10.93-10.75H403a11.28,11.28,0,0,1,11.17,10.75A11.44,11.44,0,0,1,402.74,173.91Z"/><path class="cls-1" d="M179.75,157.53a6.73,6.73,0,1,0-6.68-6.76A6.72,6.72,0,0,0,179.75,157.53Z"/><path class="cls-1" d="M249.47,182.5a5.27,5.27,0,1,0-5.51-5A5.28,5.28,0,0,0,249.47,182.5Z"/><path class="cls-1" d="M262,182a5.27,5.27,0,1,0-5.5-5A5.26,5.26,0,0,0,262,182Z"/><path class="cls-1" d="M275,181.54a5.26,5.26,0,1,0-5.51-5A5.26,5.26,0,0,0,275,181.54Z"/><path class="cls-1" d="M288,181.06a5.26,5.26,0,1,0-5.5-5A5.26,5.26,0,0,0,288,181.06Z"/><path class="cls-1" d="M300.76,180.58a5.26,5.26,0,1,0-5.51-5A5.25,5.25,0,0,0,300.76,180.58Z"/><path class="cls-1" d="M313.52,180.11a5.26,5.26,0,1,0-5.5-5A5.27,5.27,0,0,0,313.52,180.11Z"/><path class="cls-1" d="M326.71,179.62a5.27,5.27,0,1,0-5.5-5A5.26,5.26,0,0,0,326.71,179.62Z"/></svg>