<svg id="Artwork" xmlns="http://www.w3.org/2000/svg" viewBox="0 0 480 320"><defs><style>.cls-1{fill:#000;}.cls-2{fill:none;stroke:#000;stroke-linejoin:round;stroke-width:5px;}</style></defs><path class="cls-1" d="M451,102.93l0-.13a2.06,2.06,0,0,0-.52-.1,13.05,13.05,0,0,0-2.63-.94l-134-32.62a36.64,36.64,0,0,0-10.89-1L31.86,84.59l-.26,0a11.27,11.27,0,0,0-9.93,10.83v54.18A51.62,51.62,0,0,0,23,161.18L41.48,242c1.32,6.47,6.08,10,13.08,10a24.58,24.58,0,0,0,4.81-.5l389.46-59.91a11.14,11.14,0,0,0,9.5-11.07V115.06A13.66,13.66,0,0,0,451,102.93ZM303.49,76.15a28.6,28.6,0,0,1,8.5.77l113.43,27.6c-15.91,1.4-42,3.79-84.95,7.82-61.17,5.74-135.56,12.86-195.34,18.58L70,138.08a12.5,12.5,0,0,1-11.82-5.84L33.38,92.51ZM30.78,159.4a43.46,43.46,0,0,1-1.11-9.78V101.67L46,127.82h-.16l.07,97.86ZM54,244.06l-.08-104.41a20.18,20.18,0,0,0,3.37,2.9V243.8A15.18,15.18,0,0,1,54,244.06Zm396.37-63.49a3.18,3.18,0,0,1-2.71,3.16L65.25,242.56V145.82a20.17,20.17,0,0,0,3.57.32q1,0,2-.09c16.88-1.6,43.53-4.15,75.09-7.17,107.05-10.24,283.68-27.13,302.36-28.2a5.65,5.65,0,0,1,2.08,4.38Z"/><path class="cls-1" d="M126.83,163.81a22.51,22.51,0,1,0,22.51,22.51A22.54,22.54,0,0,0,126.83,163.81Zm0,38.58a16.08,16.08,0,1,1,16.08-16.07A16.09,16.09,0,0,1,126.83,202.39Z"/><path class="cls-1" d="M79.25,212.32a9.15,9.15,0,0,0,0,18.29h.43v0a8.27,8.27,0,0,0,8.09-12.28A9.41,9.41,0,0,0,79.25,212.32Zm-7.14,9.15a7.48,7.48,0,0,1,5.81-7,8.29,8.29,0,0,0-5.67,7.85,5.68,5.68,0,0,0,0,.59A6.3,6.3,0,0,1,72.11,221.47Zm8.43,7.14a6.19,6.19,0,0,1-2.17-.39,6.87,6.87,0,0,1-4.12-5.9,6.17,6.17,0,0,1,6.29-5.86A6.38,6.38,0,0,1,86.41,222l.4,0c0,.11,0,.22,0,.33A6.29,6.29,0,0,1,80.54,228.61Z"/><path class="cls-1" d="M329.73,138.59h-.2L221.3,149.76l-.37.06a9.56,9.56,0,0,0-7.43,7.42l-.07.39V187.5l0,.33a8.92,8.92,0,0,0,3.65,5.89,7.62,7.62,0,0,0,4.34,1.38,7.15,7.15,0,0,0,1.3-.12l108.34-14.13.27,0a8.58,8.58,0,0,0,7.07-8.21V146.05l-.08-.38A8.63,8.63,0,0,0,329.73,138.59Zm.16,34.35L221.62,187.06h0a.9.9,0,0,1-.18-.33V158.55a1.51,1.51,0,0,1,.94-.86L329.89,146.6a.6.6,0,0,1,.56.38v25.6A.88.88,0,0,1,329.89,172.94Z"/><circle class="cls-1" cx="181.34" cy="177.89" r="7.57" transform="translate(-36.02 46.42) rotate(-13.28)"/><circle class="cls-1" cx="356.21" cy="156.51" r="6.83" transform="translate(-26.43 86.03) rotate(-13.28)"/><circle class="cls-1" cx="376.76" cy="154.35" r="6.83"/><circle id="Oval" class="cls-2" cx="417.02" cy="150.91" r="20.36"/><path id="Shape" class="cls-2" d="M406.64,151.7A15.25,15.25,0,0,1,437,148.51v2.4a18.77,18.77,0,0,0-20-17.57c-9.58.8-17.16,8-17.56,17.57a18.24,18.24,0,0,0,18.76,17.56h2C412.23,166.87,406.24,160.09,406.64,151.7Z"/><ellipse id="Oval-2" data-name="Oval" class="cls-2" cx="421.81" cy="151.7" rx="15.17" ry="16.76"/></svg>