<svg id="Artwork" xmlns="http://www.w3.org/2000/svg" viewBox="0 0 480 320"><defs><style>.cls-1{fill:#000;}</style></defs><path class="cls-1" d="M460.05,113.9a8,8,0,0,0-5.82-2.4l-11.05.14L362.06,93.1a41.07,41.07,0,0,0-10.48-1.25L33.71,96.28a16.24,16.24,0,0,0-16.14,16.21v58.39a26.14,26.14,0,0,0,2.73,11.58L35.46,212.8A16.54,16.54,0,0,0,52,228.19h.4c65.54-1.59,359.17-11.1,398.65-12.4a9.83,9.83,0,0,0,9.56-9.69c.39-19.34,1.45-71.65,1.79-86.35A8.07,8.07,0,0,0,460.05,113.9ZM33.78,104.28l317.89-4.43a32.9,32.9,0,0,1,8.52,1l48.91,11.18L51.36,116.45a14.32,14.32,0,0,0-6.66,1.71l-14.54-13A8.14,8.14,0,0,1,33.78,104.28Zm-8.21,66.6V112.49c0-.24,0-.47,0-.7l11.76,10.53-.71,32.55-.9,40.62-8.29-16.61A17.93,17.93,0,0,1,25.57,170.88Zm427,35.07a1.85,1.85,0,0,1-1.81,1.83c-39.49,1.3-333.08,10.82-398.6,12.4a8.57,8.57,0,0,1-8.79-8.43l.68-30.58,1.11-50.52a6.32,6.32,0,0,1,6.27-6.2l402.93-4.89C454.05,134.26,453,186.59,452.59,206Z"/><path class="cls-1" d="M73.2,207.69a10.58,10.58,0,0,0,7.37,3h.34l352.51-9.57a10.44,10.44,0,0,0,10.22-10.5V135.12A10.5,10.5,0,0,0,433,124.61L80.51,129.37a10.53,10.53,0,0,0-10.43,10.51V200A10.58,10.58,0,0,0,73.2,207.69Zm127.68-71.95,124.68-1.68-1.41,33.34a6.42,6.42,0,0,1-6.29,5.81L207.39,175a6.42,6.42,0,0,1-6.51-6.42Zm-3.23,43.37a6.25,6.25,0,0,0,4.5,1.79l122.31-2.71a6.25,6.25,0,0,0,6.11-6.12l.79-38.09,7.22-.09v61.82L189,199.77V135.91l6.74-.1v38.84A6.23,6.23,0,0,0,197.65,179.11Zm235.45-46.5h0a2.49,2.49,0,0,1,2.5,2.51v55.52a2.5,2.5,0,0,1-2.44,2.51l-86.62,2.35V133.78Zm-355,7.27a2.51,2.51,0,0,1,2.51-2.51L181,136v64L80.67,202.71a2.6,2.6,0,0,1-1.85-.72,2.54,2.54,0,0,1-.74-1.92Z"/><circle class="cls-1" cx="124.1" cy="170.11" r="9.98"/><path class="cls-1" d="M156.33,197.42a5.52,5.52,0,1,0-5.52-5.52A5.52,5.52,0,0,0,156.33,197.42Z"/><circle class="cls-1" cx="172.18" cy="191.9" r="5.51"/><circle class="cls-1" cx="354.46" cy="186.97" r="5.51"/><path class="cls-1" d="M368.31,192.48A5.52,5.52,0,1,0,362.8,187,5.52,5.52,0,0,0,368.31,192.48Z"/><path class="cls-1" d="M397.05,141.34c-11.5,0-20.86,9.91-20.86,22.08s9.36,22.09,20.86,22.09,20.87-9.91,20.87-22.09S408.56,141.34,397.05,141.34Zm0,8c7.1,0,12.87,6.32,12.87,14.08s-5.77,14.09-12.87,14.09-12.86-6.32-12.86-14.09S390,149.34,397.05,149.34Z"/><path class="cls-1" d="M203.2,194l120.3-3.27a1.26,1.26,0,0,0,1.22-1.31V187a1.27,1.27,0,0,0-.4-.88,1.29,1.29,0,0,0-.91-.34l-120.3,3.32a1.26,1.26,0,0,0-1.22,1.26v2.45a1.23,1.23,0,0,0,.4.88A1.26,1.26,0,0,0,203.2,194Z"/><path class="cls-1" d="M397.41,203.17l-7.7.26a2.57,2.57,0,1,0,0,5.14l7.7-.27a2.57,2.57,0,1,0,0-5.13Z"/></svg>