<svg id="Artwork" xmlns="http://www.w3.org/2000/svg" viewBox="0 0 480 320"><defs><style>.cls-1{fill:#000;}</style></defs><path class="cls-1" d="M460.05,113.9a8,8,0,0,0-5.82-2.4l-11.05.14L362.06,93.1a41.07,41.07,0,0,0-10.48-1.25L33.71,96.28a16.24,16.24,0,0,0-16.14,16.21v58.39a26.14,26.14,0,0,0,2.73,11.58L35.46,212.8A16.54,16.54,0,0,0,52,228.19h.4c65.54-1.59,359.17-11.1,398.65-12.4a9.83,9.83,0,0,0,9.56-9.69c.39-19.34,1.45-71.65,1.79-86.35A8.07,8.07,0,0,0,460.05,113.9Zm-423.4,41-.9,40.62-8.29-16.61a17.93,17.93,0,0,1-1.89-8V112.49c0-.24,0-.47,0-.7l11.76,10.53Zm-6.49-49.74a8.14,8.14,0,0,1,3.62-.85l317.89-4.43a32.9,32.9,0,0,1,8.52,1l48.91,11.18L51.36,116.45a14.32,14.32,0,0,0-6.66,1.71ZM452.59,206a1.85,1.85,0,0,1-1.81,1.83c-32,1.05-231.47,7.52-340.5,10.77,1.47-1.88,1.75-4.73-.31-7.43h0a6.87,6.87,0,0,0-3.27-1.42l317.2-9.45a11,11,0,0,0,10.63-10.82l1.33-49.79v-.11a10.88,10.88,0,0,0-11.08-10.86L76,133.06a10.92,10.92,0,0,0-10.63,10.85l-.46,55.84a10.89,10.89,0,0,0,10.9,10.87h.25l28.79-.85a5.61,5.61,0,0,0-3.48,8.65,3,3,0,0,0,.31.4c-21.34.63-38.58,1.11-49.49,1.37a8.57,8.57,0,0,1-8.79-8.43l.68-30.58,1.11-50.52a6.32,6.32,0,0,1,6.27-6.2l402.93-4.89C454.05,134.26,453,186.59,452.59,206Zm-27.67-69.28H425a2.89,2.89,0,0,1,2.88,2.83l-1.33,49.77v.11a2.9,2.9,0,0,1-2.82,2.88l-84.89,2.53,1.3-57.05ZM330.81,195,184.1,199.39l.82-59.7,147.19-1.86Zm-154.72,4.61-100.25,3a2.89,2.89,0,0,1-2.94-2.84l.46-55.84a2.87,2.87,0,0,1,2.77-2.88l100.79-1.27Z"/><path class="cls-1" d="M383.53,188.8v0a19.56,19.56,0,0,0,6.23,1c11.34,0,20.56-9.73,20.56-21.69,0-10.38-6.95-19.08-16.21-21.19a20.07,20.07,0,0,0-9.39-2.34h-.12a22.2,22.2,0,0,0-1.08,44.23Zm-6-27.47a14.39,14.39,0,0,1,12.29-7.92,13.29,13.29,0,0,1,2.81.31l.06-.14c6.18,1.45,10.82,7.41,10.82,14.52,0,8.2-6.17,14.88-13.75,14.88S376,176.31,376,168.12v0A15.81,15.81,0,0,1,377.54,161.33Z"/></svg>