<svg id="Artwork" xmlns="http://www.w3.org/2000/svg" viewBox="0 0 480 320"><defs><style>.cls-1,.cls-2,.cls-3,.cls-5{fill:none;stroke:#000;stroke-miterlimit:10;}.cls-1{stroke-width:8px;}.cls-2{stroke-width:6px;}.cls-3{stroke-width:3px;}.cls-4{fill:#000;}.cls-5{stroke-width:4px;}</style></defs><path class="cls-1" d="M171.15,220.56h0a.36.36,0,0,0,.36-.36v-.55a.38.38,0,0,0-.37-.37h0a.37.37,0,0,0-.36.37v.55A.36.36,0,0,0,171.15,220.56Z"/><path class="cls-1" d="M145.77,222a.35.35,0,0,0,.26-.12.37.37,0,0,0,0-.52l-.14-.13a.36.36,0,0,0-.49.54l.14.13A.39.39,0,0,0,145.77,222Z"/><path class="cls-1" d="M170.36,221.51a.35.35,0,0,0,.25-.1l.64-.64a.36.36,0,1,0-.51-.51l-.64.63a.37.37,0,0,0,0,.52A.35.35,0,0,0,170.36,221.51Z"/><path class="cls-1" d="M146.2,222.24a.36.36,0,0,0,.33-.21.38.38,0,0,0-.18-.49,1.1,1.1,0,0,1-.33-.2.37.37,0,0,0-.52,0,.37.37,0,0,0,0,.52,1.79,1.79,0,0,0,.52.33A.32.32,0,0,0,146.2,222.24Z"/><path class="cls-1" d="M156.8,223.36l1.56,0c1.07,0,10.59-.28,12.25-1.93a.37.37,0,0,0,0-.52.37.37,0,0,0-.52,0c-1.1,1.09-7.8,1.64-11.76,1.72-3.43.08-9.82-.07-12-1.07a.37.37,0,0,0-.48.18.35.35,0,0,0,.18.48C148.26,223.22,154,223.36,156.8,223.36Z"/><path class="cls-1" d="M156.66,222.8c1.09,0,1.87,0,2.12,0,2.36-.06,4.46-.2,6.44-.43,1.24-.15,2.26-.31,3.2-.5a10.32,10.32,0,0,0,2.18-.65c.32-.15.92-.43.92-1a.37.37,0,0,0-.37-.36h0a.36.36,0,0,0-.36.36s-.06.13-.47.31a8.83,8.83,0,0,1-2,.61,31.31,31.31,0,0,1-3.14.49c-1.95.23-4,.37-6.37.43-.92,0-9.16.21-12.63-.94a.36.36,0,0,0-.46.23.37.37,0,0,0,.23.46C148.53,222.66,153.71,222.8,156.66,222.8Z"/><path class="cls-1" d="M90.14,216.9,26.43,172.41a12,12,0,0,1-5.09-9.79V77.51A2.68,2.68,0,0,1,24,74.82l270.41-4.89a20.71,20.71,0,0,1,6.72,1l146.35,44.44"/><path class="cls-1" d="M101.57,120.8l-1.41.07a31.44,31.44,0,0,1-10-1.2l-.71-.2L90,214.8l.19,2.1a15,15,0,0,0,9.81,1.42h0l338.45-7.44h3.13a12.8,12.8,0,0,0,6.57-1.82h0V116.11l-.64.26"/><line class="cls-1" x1="99.57" y1="120.8" x2="452.1" y2="114.26"/><line class="cls-1" x1="21.34" y1="74.87" x2="101.57" y2="120.8"/><line class="cls-1" x1="100.57" y1="120.8" x2="101.57" y2="218.32"/><line class="cls-2" x1="437.72" y1="115.09" x2="437.72" y2="212.6"/><ellipse class="cls-3" cx="192.34" cy="168.35" rx="4.36" ry="4.23" transform="translate(-62.69 151.13) rotate(-37.33)"/><ellipse class="cls-4" cx="340.93" cy="163.28" rx="5.98" ry="5.8" transform="translate(-29.17 240.21) rotate(-37.33)"/><ellipse class="cls-4" cx="124.55" cy="189.21" rx="5.98" ry="5.8" transform="translate(-89.23 114.3) rotate(-37.33)"/><ellipse class="cls-5" cx="156.39" cy="168.59" rx="14.15" ry="13.72" transform="matrix(0.8, -0.61, 0.61, 0.8, -70.2, 129.38)"/><ellipse class="cls-4" cx="156.39" cy="168.59" rx="7.99" ry="7.75" transform="translate(-70.2 129.38) rotate(-37.33)"/><path class="cls-4" d="M317.65,178.75l-86.12,2.53a5.89,5.89,0,0,1-6.1-5.88V157.91a6.31,6.31,0,0,1,6.1-6.23l86.12-2.54a5.9,5.9,0,0,1,6.11,5.88v17.49A6.33,6.33,0,0,1,317.65,178.75Z"/><ellipse class="cls-4" cx="357.61" cy="162.79" rx="5.98" ry="5.8" transform="translate(-25.46 250.22) rotate(-37.33)"/><ellipse class="cls-4" cx="397.56" cy="164.11" rx="19.54" ry="18.95" transform="translate(-18.08 274.72) rotate(-37.33)"/><ellipse class="cls-2" cx="394.71" cy="159.69" rx="19.54" ry="18.95" transform="translate(-15.97 272.09) rotate(-37.33)"/><path class="cls-1" d="M399.85,215.15h0a.37.37,0,0,0,.36-.37v-.55a.36.36,0,0,0-.36-.36h0a.36.36,0,0,0-.36.36v.55A.38.38,0,0,0,399.85,215.15Z"/><path class="cls-1" d="M374.46,216.55a.36.36,0,0,0,.25-.63l-.15-.14a.37.37,0,0,0-.51,0,.37.37,0,0,0,0,.52l.14.13A.35.35,0,0,0,374.46,216.55Z"/><path class="cls-1" d="M399.05,216.09a.37.37,0,0,0,.26-.1l.63-.63a.36.36,0,0,0,0-.52.36.36,0,0,0-.51,0l-.64.63a.37.37,0,0,0,0,.52A.37.37,0,0,0,399.05,216.09Z"/><path class="cls-1" d="M374.89,216.82a.37.37,0,0,0,.15-.7,1.25,1.25,0,0,1-.33-.2.36.36,0,1,0-.5.53,1.71,1.71,0,0,0,.53.33A.28.28,0,0,0,374.89,216.82Z"/><path class="cls-1" d="M385.5,217.94c.78,0,1.34,0,1.55,0,1.08,0,10.59-.28,12.26-1.93a.37.37,0,0,0-.52-.52c-1.1,1.09-7.79,1.64-11.76,1.72-3.43.08-9.82-.07-12-1.07a.36.36,0,0,0-.3.66C377,217.8,382.66,217.94,385.5,217.94Z"/><path class="cls-1" d="M385.36,217.38c1.08,0,1.86,0,2.12,0,2.35-.06,4.46-.2,6.43-.43,1.24-.15,2.26-.3,3.2-.5a10.59,10.59,0,0,0,2.19-.65c.31-.15.91-.42.91-1a.36.36,0,0,0-.36-.36h0a.37.37,0,0,0-.37.36s-.06.13-.46.32a10,10,0,0,1-2.06.61c-.92.19-1.91.34-3.13.48-2,.23-4,.37-6.37.43-.93,0-9.17.21-12.64-.94a.36.36,0,0,0-.46.23.37.37,0,0,0,.23.46C377.22,217.24,382.4,217.38,385.36,217.38Z"/></svg>