<svg id="Artwork" xmlns="http://www.w3.org/2000/svg" viewBox="0 0 480 320"><defs><style>.cls-1{fill:#000;}</style></defs><path class="cls-1" d="M119.19,221.19a4,4,0,0,0,2.8,1.13h.1l263-10.31a4,4,0,0,0,3.89-4l0-88.65a4,4,0,0,0-4.1-4l-263,6.31a4,4,0,0,0-3.89,4l0,92.64A4,4,0,0,0,119.19,221.19ZM381,123.47l0,80.64-255,10.1V129.57Z"/><path class="cls-1" d="M421.7,90.31a10,10,0,0,0-7.3-3l-.57-.42-95.5-22.65a51.8,51.8,0,0,0-13.13-1.57L75.6,68.15A20.35,20.35,0,0,0,55.38,88.46v97A32.61,32.61,0,0,0,58.8,200l19,38A20.72,20.72,0,0,0,98.5,257.32H99l10-.27c1.92-.06,5.62-5,7.64-5.11,81.51-2.62,212-10.4,276.62-13.23,2.73-.12,5,3.61,7.33,3.51,3.73-.15,7-.27,9.79-.36a12.33,12.33,0,0,0,12-12.14c.48-24.24,1.82-113.67,2.24-132.08A10.19,10.19,0,0,0,421.7,90.31Zm-344,68.5-1,47.62L67,187a21.06,21.06,0,0,1-2.21-9.38V86.8c0-.28,0-.55,0-.82L78.58,98.33ZM71.15,79.24a10.33,10.33,0,0,1,4.55-1.07L305.32,72.7A42.18,42.18,0,0,1,316,74l74.86,15.34L97.72,93.42a18,18,0,0,0-8.34,2.15Zm341.2,150.31a2.33,2.33,0,0,1-2.27,2.29c-3,.09-6.49.23-10.52.39-2.28.1-4.4-3.64-7-3.52-64.51,2.83-193.17,10.5-274.87,13.17-1.91.06-5.49,5-7.31,5.09-4.11.13-8,.24-11.65.32a10.74,10.74,0,0,1-11-10.57l.84-38.32L90,111.22a7.92,7.92,0,0,1,7.86-7.77l316.76-6C414.17,115.83,412.84,205.28,412.35,229.55Z"/></svg>