<svg xmlns="http://www.w3.org/2000/svg" viewBox="0 0 480 320"><defs><style>.cls-1{fill:#000;}</style></defs><g id="Layer_1" data-name="Layer 1"><path class="cls-1" d="M444.09,77.58,340.74,54.13,35.91,99.81l5.89,66.26,35.51,99.8,46.64-17V260l295.37-108.1V141.48L439,134.34ZM422,80.77,72.78,162.87,46.14,106.36l294.3-44.09ZM46.21,125.26l20.42,43.32,5.91,60L49.68,164.35Zm365.11,21.08L132,248.58V246L411.32,144.39ZM83.2,255.21,74.86,170.6,435.31,85.86l-3.87,42.7Z"/><path class="cls-1" d="M83,120.87c.38,4.78,4.07,11.34,19.53,15.41a109.49,109.49,0,0,0,27.28,3.09c3.91,0,7.93-.16,12-.48,14.61-1.13,28.25-4.21,38.4-8.65,14.65-6.42,17.28-13.47,16.91-18.25s-4.07-11.34-19.53-15.41C166.91,93.76,153,92.83,138.35,94s-28.24,4.21-38.4,8.65C85.3,109,82.67,116.09,83,120.87Zm32.46-7.67c6.23-2.73,14.73-4.62,23.93-5.34s17.9-.16,24.47,1.57c6.13,1.61,8.23,3.73,8.29,4.5s-1.69,3.19-7.49,5.73c-6.23,2.73-14.73,4.62-23.93,5.34s-17.9.16-24.47-1.57c-6.13-1.62-8.23-3.73-8.29-4.5S109.7,115.74,115.5,113.2Zm73.68-.59c.27,3.44-5.91,8.3-17,12.22,6.91-4.09,8.26-8.41,8-11.52s-2.24-7.16-9.69-10.13c1.78.33,3.49.71,5.11,1.13C185.34,106.88,189,110.39,189.18,112.61ZM108.06,108c-6.92,4.09-8.27,8.41-8,11.52s2.25,7.17,9.71,10.14c-11.6-2.15-18.45-6-18.72-9.44S96.93,111.94,108.06,108Z"/></g></svg>