<svg xmlns="http://www.w3.org/2000/svg" viewBox="0 0 480 320"><defs><style>.cls-1{fill:#000;}</style></defs><g id="Layer_1" data-name="Layer 1"><path class="cls-1" d="M236.85,58.19c-13.81,0-26.72-.47-36.48-1.34-15-1.34-17.56-2.9-17.56-6.09s2.54-4.72,17.6-6.06c9.77-.86,22.71-1.33,36.48-1.33s26.72.47,36.48,1.33c15.06,1.37,17.66,3,17.66,6.06s-2.54,4.72-17.61,6.05C263.61,57.72,250.66,58.19,236.85,58.19Zm-39.72-7.43a390.16,390.16,0,0,0,39.72,1.73,390.94,390.94,0,0,0,39.76-1.73,391,391,0,0,0-39.76-1.66,392.21,392.21,0,0,0-39.68,1.66Z"/><path class="cls-1" d="M380.26,48.37a4.68,4.68,0,0,0-.73-.53,4.53,4.53,0,0,0-1.7-.62L242.22,29.3a36.25,36.25,0,0,0-9.87.05L104,47.83a4.46,4.46,0,0,0-1,.26,4.25,4.25,0,0,0-4.63,3.83,3,3,0,0,0,0,.42V235.28a4.24,4.24,0,0,0,3.19,4.11l9.56,2.43v11.84a4.26,4.26,0,0,0,3.18,4.11L240.43,291a4.22,4.22,0,0,0,1.06.13,4.15,4.15,0,0,0,1.06-.12l127.09-32.14a4.23,4.23,0,0,0,3.18-4.12V240.82l5.62-1.43a4.24,4.24,0,0,0,3.19-4.11V51.5A4.28,4.28,0,0,0,380.26,48.37ZM233.54,37.75a28.07,28.07,0,0,1,7.55,0L342.77,51.18l-106,11.91L136.09,51.82ZM106.87,57.07,232.6,71.17l1,193.21L106.91,232Zm12.74,187,119,30.43a3.85,3.85,0,0,0,1.06.13,5.81,5.81,0,0,0,.59,0v7.69L119.58,250.47Zm244.8,7.44L246.18,281.34V273l118.2-30ZM373.23,232,242.07,265.34l-1-194.17L373.24,56.29Z"/></g></svg>