<svg id="Artwork" xmlns="http://www.w3.org/2000/svg" viewBox="0 0 480 320"><defs><style>.cls-1{fill:#000;}</style></defs><g id="Layer_1" data-name="Layer 1"><path class="cls-1" d="M261.62,180a18.83,18.83,0,0,0-17.47,11.83h34.93A18.81,18.81,0,0,0,261.62,180Z"/><path class="cls-1" d="M454,133.42v-.58h-1.56L349.23,107.3a4.21,4.21,0,0,0-1-.12l-319.78-.12h0a4,4,0,0,0-3.86,3,4.22,4.22,0,0,0-.13,1h0l-.54,63a4,4,0,0,0,1.7,3.31L69.2,207.86v0h.07l.16.11.08-.11H83c.14.11.29.23.45.34,2.71,3.43,8.81,4.69,14,4.69s11.26-1.26,14-4.7l.44-.33h91.9a4.34,4.34,0,0,0,.88-.12l3.48-.93a4,4,0,0,0,2.71,1.06H312.46a4,4,0,0,0,2.79-1.13h.21l4.09,1a4.22,4.22,0,0,0,.93.11H413l.45.34c2.71,3.43,8.82,4.69,14,4.69s11.25-1.26,14-4.7l.43-.33h12.26v-.58a4,4,0,0,0,2-3.42V136.84A4,4,0,0,0,454,133.42ZM347.78,115.18l71.38,17.66H321.5l-10.4-3.11h-99l-9.86,3.11h-128L43.45,115.07ZM220.13,197V137.73h83V197ZM32,172l.48-54L69,139l.21,59Zm45.27,27.9v-59H203.4l.6-.17.21,58.84-1.54.38Zm244.23,0-2.41-.51v-58.9l1.52.36H446v59Z"/><rect class="cls-1" x="88.45" y="182.89" width="19.77" height="13.23"/><path class="cls-1" d="M326.79,195.54h90.8V145.83h-90.8Zm8-41.71h74.8v33.71h-74.8Z"/><path class="cls-1" d="M437.38,141.25a6.63,6.63,0,1,0,6.63,6.63A6.63,6.63,0,0,0,437.38,141.25Z"/><path class="cls-1" d="M437.38,154.71a6.63,6.63,0,1,0,6.63,6.63A6.63,6.63,0,0,0,437.38,154.71Z"/><path class="cls-1" d="M437.38,168.17A6.63,6.63,0,1,0,444,174.8a6.63,6.63,0,0,0-6.63-6.63Z"/><path class="cls-1" d="M437.38,181.63a6.63,6.63,0,1,0,6.63,6.63,6.63,6.63,0,0,0-6.63-6.63Z"/></g></svg>