<svg xmlns="http://www.w3.org/2000/svg" viewBox="0 0 480 320"><defs><style>.cls-1{fill:#000;}</style></defs><g id="Layer_1" data-name="Layer 1"><path class="cls-1" d="M459.07,120.63c0-.06,0-.11,0-.16s0-.32-.05-.48,0-.19-.05-.29-.11-.36-.18-.54a1.34,1.34,0,0,0-.07-.18,3.21,3.21,0,0,0-.37-.65l-.14-.18a4.64,4.64,0,0,0-.36-.4l-.08-.09s-.1-.06-.14-.1a3.69,3.69,0,0,0-.4-.29l-.25-.16-.44-.19-.28-.11-.08,0L318.89,77.56a4.07,4.07,0,0,0-1.39-.15L24.63,99.23h-.1l-.46.07-.17,0-.45.15-.12,0a3.4,3.4,0,0,0-.5.26h0l-.1.07-.38.29-.14.12-.28.3-.12.15a2.45,2.45,0,0,0-.26.37l-.08.11a5.12,5.12,0,0,0-.25.53.74.74,0,0,0,0,.14,3.66,3.66,0,0,0-.13.44l0,.09a.31.31,0,0,1,0,.1c0,.15,0,.29,0,.43s0,.13,0,.19v67.72a.92.92,0,0,0,0,.16,1.09,1.09,0,0,0,0,.18,4.09,4.09,0,0,0,.1.61.13.13,0,0,0,0,.06,4.88,4.88,0,0,0,.23.64l.08.16a5.24,5.24,0,0,0,.3.51l.06.08a4.23,4.23,0,0,0,.45.5l.14.12a3.35,3.35,0,0,0,.57.42h0l3,1.79v5.43a4,4,0,0,0,2,3.44L124.74,242a3.9,3.9,0,0,0,2,.56,3.4,3.4,0,0,0,.45,0L450.52,206a4,4,0,0,0,3.55-4v-6l1.45-.17h0a3.9,3.9,0,0,0,.77-.16,1.76,1.76,0,0,0,.2-.09,4.4,4.4,0,0,0,.5-.21l.21-.14a3.81,3.81,0,0,0,.41-.29c.07,0,.12-.11.19-.17s.23-.23.34-.36l.15-.2a3.62,3.62,0,0,0,.27-.41l.12-.24a3,3,0,0,0,.18-.45,2.5,2.5,0,0,0,.07-.26,4.1,4.1,0,0,0,.1-.48c0-.1,0-.19,0-.28a1.79,1.79,0,0,0,0-.23ZM289.48,141v65.55L128.07,224.81V157Zm160.14,47.45-152.14,17.2V140.22L451.07,125V188.3l-1.45.16ZM120.07,155.79v66.5l-6-3.57L32,170.37l0,0-3-1.77V109.72ZM433.8,118.71,294,132.52,192.19,94.77l125.19-9.33ZM173,96.2l102.79,38.12-151,14.91-85.26-43.1Zm273,102.28-318.42,36-2.23-1.31,320.65-36.25Z"/><path class="cls-1" d="M248.79,111.21c7,7.38,33.81,11.13,57.32,11.57,1.73,0,3.44,0,5.14,0,13.31,0,25.73-1,35.42-2.8,13.42-2.53,19.77-6.26,20-11.74a7.27,7.27,0,0,0-2.18-5.33c-7-7.38-33.82-11.13-57.32-11.57-15.23-.28-29.64.7-40.56,2.76-13.42,2.53-19.77,6.26-20,11.74A7.28,7.28,0,0,0,248.79,111.21ZM307,99.38c30.37.56,47.64,5.65,51.22,8.62-3.71,2.86-21.29,7.34-52,6.78-30.37-.57-47.64-5.65-51.22-8.62C258.74,103.3,276.32,98.8,307,99.38Z"/><path class="cls-1" d="M321.5,188.34c-1.43.16-2.59,1.76-2.59,3.58s1.16,3.16,2.59,3,2.59-1.77,2.59-3.58S322.94,188.18,321.5,188.34Z"/><path class="cls-1" d="M333.27,197.46l98.44-10.86V130.85l-98.44,10.24Zm8-49.15,82.44-8.58v39.7l-82.44,9.1Z"/><path class="cls-1" d="M444.78,128.7c-1.84.21-3.36,2.28-3.4,4.64s1.43,4.09,3.27,3.88,3.36-2.29,3.39-4.64S446.62,128.49,444.78,128.7Z"/><path class="cls-1" d="M444.5,148.29c-1.83.21-3.36,2.29-3.39,4.64s1.42,4.09,3.26,3.88,3.36-2.29,3.4-4.64S446.34,148.08,444.5,148.29Z"/><path class="cls-1" d="M444.25,162.53c-1.84.21-3.36,2.28-3.4,4.64s1.42,4.09,3.26,3.88,3.37-2.29,3.4-4.64S446.09,162.32,444.25,162.53Z"/><path class="cls-1" d="M444,176.68c-1.84.21-3.36,2.29-3.4,4.64s1.43,4.1,3.26,3.89,3.37-2.29,3.4-4.65S445.88,176.47,444,176.68Z"/><path class="cls-1" d="M311.78,190.16,302,191.27a.67.67,0,0,0-.59.65V196a.51.51,0,0,0,.59.52l9.76-1.11a.68.68,0,0,0,.59-.65v-4.12A.52.52,0,0,0,311.78,190.16Z"/></g></svg>