<svg xmlns="http://www.w3.org/2000/svg" viewBox="0 0 480 320"><defs><style>.cls-1{fill:#000;}</style></defs><g id="Layer_1" data-name="Layer 1"><path class="cls-1" d="M263,180.25a18.8,18.8,0,0,0-17.46,11.83h34.93A18.82,18.82,0,0,0,263,180.25Z"/><path class="cls-1" d="M455.4,133.65v-.57h-1.56L350.62,107.53a3.89,3.89,0,0,0-1-.12l-319.78-.12h0a4,4,0,0,0-3.87,3,4.88,4.88,0,0,0-.12,1h0l-.55,63A4,4,0,0,0,27,177.59l43.58,30.49v0h.07l.16.11.07-.11H84.36l.46.34c2.71,3.44,8.81,4.69,14,4.69s11.26-1.26,14-4.7c.16-.11.29-.22.43-.33h91.91a3.65,3.65,0,0,0,.87-.12l3.49-.93a4,4,0,0,0,2.71,1.06H313.85a4,4,0,0,0,2.79-1.13l.21,0,4.09,1a3.59,3.59,0,0,0,.93.11h92.47a5.3,5.3,0,0,0,.45.34c2.71,3.44,8.81,4.69,13.95,4.69s11.26-1.26,14-4.7c.16-.11.3-.22.44-.33H455.4v-.58a4,4,0,0,0,2-3.42v-67A4,4,0,0,0,455.4,133.65ZM349.17,115.41l71.37,17.67H322.89L312.49,130h-99l-9.86,3.12h-128L44.84,115.3ZM221.52,197.19V138h83v59.23ZM33.35,172.24l.47-54.06,36.56,21.08.21,59Zm45.26,27.88v-59H204.78l.61-.18.21,58.85-1.54.37Zm244.23,0-2.41-.5V140.71l1.52.37H447.4v59Z"/><rect class="cls-1" x="89.83" y="183.12" width="19.77" height="13.23"/><path class="cls-1" d="M328.17,195.77H419v-49.7h-90.8Zm8-41.7H411v33.7h-74.8Z"/><path class="cls-1" d="M438.76,141.49a6.63,6.63,0,1,0,6.63,6.63A6.64,6.64,0,0,0,438.76,141.49Z"/><path class="cls-1" d="M438.76,155a6.63,6.63,0,1,0,6.63,6.62A6.64,6.64,0,0,0,438.76,155Z"/><path class="cls-1" d="M438.76,168.4a6.63,6.63,0,1,0,6.63,6.63A6.64,6.64,0,0,0,438.76,168.4Z"/><path class="cls-1" d="M438.76,181.86a6.63,6.63,0,1,0,6.63,6.63A6.64,6.64,0,0,0,438.76,181.86Z"/></g></svg>