<svg xmlns="http://www.w3.org/2000/svg" viewBox="0 0 480 320"><defs><style>.cls-1{fill:#000;}</style></defs><g id="Layer_1" data-name="Layer 1"><path class="cls-1" d="M465.1,119.52s0-.1,0-.15a3.87,3.87,0,0,0-.05-.49c0-.09,0-.19,0-.28a5.6,5.6,0,0,0-.17-.54c0-.06,0-.12-.07-.19a5.07,5.07,0,0,0-.37-.64c-.05-.07-.11-.13-.16-.19a3.25,3.25,0,0,0-.35-.39l-.08-.09-.14-.11-.39-.28L463,116l-.43-.19-.29-.11-.08,0L321.07,75.36a4.07,4.07,0,0,0-1.39-.15L18.61,97.64H18.5l-.45.07-.18,0a3.81,3.81,0,0,0-.44.15l-.13,0a3.29,3.29,0,0,0-.49.26h0l-.1.07a3.37,3.37,0,0,0-.37.29l-.14.12a4,4,0,0,0-.28.3.93.93,0,0,0-.13.15,3.47,3.47,0,0,0-.26.37l-.07.11a3.65,3.65,0,0,0-.25.53l0,.14a3.17,3.17,0,0,0-.12.44l0,.09a.38.38,0,0,0,0,.1,3.34,3.34,0,0,0-.05.43,1.21,1.21,0,0,0,0,.19s0,0,0,.06v69.55c0,.06,0,.11,0,.16a1.09,1.09,0,0,1,0,.18,4.22,4.22,0,0,0,.1.62.13.13,0,0,1,0,.06,3.41,3.41,0,0,0,.24.63c0,.06.05.11.07.16a3.3,3.3,0,0,0,.31.51l0,.08a3.64,3.64,0,0,0,.46.5.86.86,0,0,0,.14.13,3.84,3.84,0,0,0,.56.41h0l3.18,1.87v5.65A4,4,0,0,0,22,185.57L120.8,245a4.07,4.07,0,0,0,2.06.57l.45,0,332.36-37.58a4,4,0,0,0,3.54-3.69l.5-7.3,1.83-.2h0a4,4,0,0,0,.76-.17l.2-.08a4.46,4.46,0,0,0,.5-.22c.08,0,.14-.09.22-.14l.4-.28.19-.18a3.73,3.73,0,0,0,.34-.35l.16-.21c.09-.13.18-.27.26-.41s.08-.16.12-.23a3.66,3.66,0,0,0,.18-.46,2,2,0,0,0,.08-.26,4,4,0,0,0,.09-.48l0-.28c0-.08,0-.15,0-.23ZM124.82,226.75V186.81l166.16-17V208ZM291,140.35V151L124.82,168V156.77Zm-165.87,38,27.39-2.8c0,.13.08.25.12.37l-27.51,2.81Zm133.3-13.48v-.15L291,161.4v.38l-32.59,3.33A1.79,1.79,0,0,0,258.41,164.88ZM299,157.33v-2.68h0V139.56L457.1,123.94v65.25L299,207.06ZM116.82,155.6v68.63l-9.42-5.55L26.08,170.76l0,0-3.15-1.85V108.13Zm323-38L295.48,131.87l-105.15-39,129.23-9.63ZM171.17,94.29l106.14,39.37L121.59,149.05l-88-44.51ZM451.63,197.86l-.17,2.5-327.7,37L120,235.14l.08,0h.13l.11,0h0a3.87,3.87,0,0,0,.48,0h0a3.4,3.4,0,0,0,.45,0l251-28.37Z"/><path class="cls-1" d="M249.12,109.76c7.15,7.57,34.7,11.41,58.84,11.86,1.78,0,3.54,0,5.29,0,13.67,0,26.43-1,36.39-2.88,13.73-2.59,20.23-6.39,20.44-12a7.29,7.29,0,0,0-2.21-5.39C360.72,93.86,333.17,90,309,89.57c-15.65-.29-30.45.71-41.68,2.83-13.73,2.59-20.23,6.4-20.44,12A7.33,7.33,0,0,0,249.12,109.76Zm59.76-12.19c31.61.59,49.37,5.91,52.83,9-3.75,3.09-23.07,7.66-53.6,7.08-31.61-.59-49.37-5.91-52.83-9C259,101.56,278.33,97,308.88,97.57Z"/><path class="cls-1" d="M323.78,189.13c-1.46.17-2.66,1.82-2.66,3.68s1.2,3.25,2.66,3.08,2.67-1.82,2.67-3.68S325.26,189,323.78,189.13Z"/><path class="cls-1" d="M430.36,130.7l-88.48,9.21a3.46,3.46,0,0,0-3.1,3.44v51.06a3.47,3.47,0,0,0,3.46,3.46l.38,0,88.48-9.77a3.46,3.46,0,0,0,3.08-3.44V134.15a3.48,3.48,0,0,0-3.82-3.45Zm-3.1,50.84-81.56,9V146.47L427.26,138Z"/><path class="cls-1" d="M450.52,127.82c-1.89.21-3.46,2.35-3.5,4.77s1.47,4.21,3.36,4,3.46-2.35,3.49-4.77S452.41,127.6,450.52,127.82Z"/><path class="cls-1" d="M450.23,148c-1.89.22-3.45,2.35-3.49,4.77s1.46,4.21,3.35,4,3.46-2.35,3.5-4.77S452.12,147.75,450.23,148Z"/><path class="cls-1" d="M450,162.6c-1.89.22-3.46,2.35-3.5,4.77s1.47,4.21,3.36,4,3.46-2.35,3.49-4.77S451.86,162.38,450,162.6Z"/><path class="cls-1" d="M449.75,177.15c-1.89.22-3.45,2.35-3.49,4.77s1.46,4.21,3.35,4,3.46-2.35,3.5-4.77S451.64,176.93,449.75,177.15Z"/><path class="cls-1" d="M313.79,191l-10,1.14a.7.7,0,0,0-.61.67v4.23a.53.53,0,0,0,.61.53l10-1.14a.7.7,0,0,0,.6-.67v-4.23A.52.52,0,0,0,313.79,191Z"/></g></svg>