<svg id="Artwork" xmlns="http://www.w3.org/2000/svg" viewBox="0 0 480 320"><defs><style>.cls-1{fill:#000;}</style></defs><g id="Layer_1" data-name="Layer 1"><path class="cls-1" d="M462.28,112.31a5.7,5.7,0,0,0-.06-.58v-.17a3.12,3.12,0,0,0-.24-.73l-.06-.13a6.05,6.05,0,0,0-.32-.55l-.12-.16a5.82,5.82,0,0,0-.4-.45l-.08-.09h-.06a5.13,5.13,0,0,0-.6-.44h0a3.6,3.6,0,0,0-.69-.32L263.05,40.86a10.45,10.45,0,0,0-4.12-.53L21.32,58.46h-.11l-.44.07h-.18a3.26,3.26,0,0,0-.44.15l-.13,0a3.75,3.75,0,0,0-.49.25h0l-.1.08a2.51,2.51,0,0,0-.37.27l-.14.13a3.84,3.84,0,0,0-.28.3l-.13.14a2.26,2.26,0,0,0-.25.38l-.08.11a3.65,3.65,0,0,0-.25.53.33.33,0,0,0,0,.14,2.44,2.44,0,0,0-.13.44v.19a1.35,1.35,0,0,1-.05.44c-.05.15,0,.11,0,.17v107a.38.38,0,0,0,0,.15.61.61,0,0,0,0,.19q0,.3.09.6v.07A3.76,3.76,0,0,0,18,171a.89.89,0,0,0,.08.17,5.09,5.09,0,0,0,.3.5l.06.09a3,3,0,0,0,.45.5l.14.12a3,3,0,0,0,.57.42h0l5.94,3.5v9.36a4,4,0,0,0,2,3.45l153,90.15a4,4,0,0,0,2.53.52l267.86-34.24a4,4,0,0,0,3.49-4v-11l4.42-.56a4,4,0,0,0,3.49-4V112.43S462.28,112.35,462.28,112.31Zm-8,4.55V222.51l-4.41.56h0l-267.61,34V145.23l51.92-5.41Zm-280,27.23V254.64L154.61,243l-123-72.49h-.05l-5.89-3.48V69ZM440,110.31,229.7,132.24,179,137.53l-29.85-15.09-113-57.1,219.34-16.8a20.83,20.83,0,0,1,8.43,1.09ZM446.42,238l-263,33.62L33.54,183.36V181l142.7,84.09a2.88,2.88,0,0,0,.59.27h.27a2.34,2.34,0,0,0,.38.09h1.25l76.89-9.78h0l190.76-24.07Z"/><path class="cls-1" d="M138.66,94.44c7.61,8,38.05,16.6,88.91,17.55,2.72,0,5.41.08,8.09.08,20.88,0,40.35-1.53,55.52-4.39,19.69-3.72,29.4-9.07,29.68-16.37A9.27,9.27,0,0,0,318,84.58C310.43,76.58,280,68,229.13,67c-23.91-.44-46.5,1.08-63.61,4.31-19.69,3.72-29.4,9.07-29.68,16.37h0A9.18,9.18,0,0,0,138.66,94.44ZM167.55,79.1C184.08,76,205.89,74.6,229,75c22.93.43,44.5,2.67,60.73,6.3C308.56,85.53,312.77,90,312.87,91c-.13,1-4.52,5.36-23.72,8.92-16.52,3.06-38.34,4.5-61.43,4.07-22.93-.42-44.5-2.66-60.74-6.29C148.17,93.49,144,89,143.84,88,144,87,148.38,82.65,167.55,79.1Z"/><path class="cls-1" d="M227.83,102.47h5.42a287.14,287.14,0,0,0,37.19-2.12c14.75-2,20.87-4.87,21.13-9.85a5.82,5.82,0,0,0-1.67-4.31c-8.14-8.7-55.64-9.59-61-9.67a302,302,0,0,0-42.62,2.09c-14.75,2-20.87,4.88-21.13,9.86a5.73,5.73,0,0,0,1.67,4.31C175,101.51,222.44,102.4,227.83,102.47Zm.94-17.92c27.69.38,45.15,3.32,52.1,5.63-7.07,2.15-24.83,4.67-52.94,4.29-27.69-.38-45.15-3.31-52.1-5.62C182.9,86.69,200.67,84.17,228.77,84.55Z"/><path class="cls-1" d="M214.35,217.81h.74c3.8-.44,6.77-4.19,6.77-8.55a8.14,8.14,0,0,0-2.55-6.09,6.4,6.4,0,0,0-5-1.61c-3.79.43-6.76,4.18-6.76,8.54a8.1,8.1,0,0,0,2.56,6.09A6.37,6.37,0,0,0,214.35,217.81Zm.42-8.64v.05a2.41,2.41,0,0,1-.16.88v0a2.65,2.65,0,0,1,.13-.88Z"/><path class="cls-1" d="M213.62,192.47h.44a4.91,4.91,0,0,0,4-5.05,4.8,4.8,0,0,0-1.51-3.6,3.76,3.76,0,0,0-3-1,4.93,4.93,0,0,0-4,5,4.81,4.81,0,0,0,1.52,3.61A3.71,3.71,0,0,0,213.62,192.47Zm.25-5.1v0a1.39,1.39,0,0,1-.1.53v0a1.75,1.75,0,0,1,.08-.51Z"/><path class="cls-1" d="M250.09,243.19h.49l142.47-17.51a4,4,0,0,0,3.51-4V132a4,4,0,0,0-4-4l-.42,0-142.47,14.4a4,4,0,0,0-3.6,4v92.77a4,4,0,0,0,4,4Zm4-93.15,134.47-13.6v81.73l-134.47,16.5Z"/><path class="cls-1" d="M427.91,149.6h.78c4.16-.48,7.48-4.65,7.54-9.51a9,9,0,0,0-2.74-6.85,6.77,6.77,0,0,0-5.38-1.75c-4.15.47-7.47,4.64-7.54,9.51h0a9,9,0,0,0,2.75,6.8A6.84,6.84,0,0,0,427.91,149.6Z"/><path class="cls-1" d="M427.54,179.69a4.14,4.14,0,0,0,.79-.05c4.16-.47,7.48-4.65,7.54-9.51a8.92,8.92,0,0,0-2.74-6.84,6.74,6.74,0,0,0-5.38-1.76c-4.16.47-7.47,4.65-7.55,9.51a9,9,0,0,0,2.74,6.85A6.89,6.89,0,0,0,427.54,179.69Z"/><path class="cls-1" d="M427.68,200.67a6.81,6.81,0,0,0,.78,0c4.16-.48,7.48-4.65,7.55-9.51a9,9,0,0,0-2.74-6.84,6.8,6.8,0,0,0-5.39-1.76c-4.15.48-7.46,4.65-7.53,9.51a8.92,8.92,0,0,0,2.74,6.84A6.72,6.72,0,0,0,427.68,200.67Z"/><path class="cls-1" d="M426.91,221.53a7.13,7.13,0,0,0,.79-.05c4.16-.46,7.47-4.65,7.54-9.5a9,9,0,0,0-2.74-6.85,6.78,6.78,0,0,0-5.39-1.75c-4.14.47-7.46,4.65-7.53,9.5a9,9,0,0,0,2.74,6.85A6.75,6.75,0,0,0,426.91,221.53Z"/><path class="cls-1" d="M207.87,237.4l15.44-1.76a1.08,1.08,0,0,0,.92-1v-6.5a.81.81,0,0,0-.79-.83h-.13l-15.43,1.76a1,1,0,0,0-.92,1v6.5a.8.8,0,0,0,.79.82Z"/></g></svg>