<?xml version="1.0" encoding="UTF-8"?><svg xmlns="http://www.w3.org/2000/svg" xmlns:xlink="http://www.w3.org/1999/xlink" viewBox="0 0 480 320"><defs><style>.d{fill:none;}.e{fill:#000;}.f{clip-path:url(#c);}</style><clipPath id="c"><rect class="d" x="493.19" y="338.68" width="493.63" height="168.93"/></clipPath></defs><g id="a"/><g id="b"><g class="f"><image transform="translate(392.86 198.03) scale(.08)" xlink:href="../Assets/NSS 333/22_04_13_NAIM_AUDIO_NSS_333_Device Image.jpg"/></g><g><path class="e" d="M280.85,69.15l-.97-.27-82.67,18.74v3.05l-46.61,9.32,.09,.46-3.98-1.57-107.12,23.14,3.81,59.03,139.7,84.27,114.57-41.34,.07-3.06,50.14-17.42,3.16,1.68,84.71-32.83,4.71-58.55-159.6-44.64Zm128.81,44.33l-68.57,20.01-125.08-41.94,63.66-14.43,129.99,36.35Zm-208.72-15.4l125.74,42.59-41.13,12.85-121.9-47.98,37.3-7.46Zm71.79,58.99l-97.89,28.57-.08-.04L55.83,126.69l90.21-19.48,126.69,49.87Zm-224.49-25.22l122.88,60.87,1.84,.97-.34,55.95L51.11,176.35l-2.87-44.49Zm139.25,123.36l-.41-57.36,103.89-31.04-1.18,51.49-102.3,36.92Zm111.54-90.84l47.14-14.43-1.86,46.3-46.39,16.12,1.1-47.99Zm56.5,30.45l1.99-49.87,74.22-22.67-3.57,44.39-72.64,28.15Z"/><path class="e" d="M252.22,222.74l14.97-5.1v-10.23l-14.97,5.08v10.26Zm3-8.11l8.97-3.04v3.9l-8.97,3.06v-3.92Z"/><path class="e" d="M218.69,198.05c-4.27-1.45-9-.63-13.31,2.31-4.18,2.85-7.48,7.37-9.3,12.74-3.81,11.24,.13,22.77,8.79,25.7,1.37,.46,2.78,.69,4.19,.69,.25,0,.49-.02,.74-.04,7.63,1.86,16.27-4.34,19.67-14.35,2.79-8.21,1.21-16.54-3.41-21.01-1.79-2.91-4.32-5-7.36-6.04Zm-17.68,17.4c-2.27,6.71-1.64,13.48,1.18,18.18-4.31-4.01-5.78-11.81-3.17-19.53,1.6-4.73,4.48-8.7,8.1-11.17,2.39-1.63,4.9-2.47,7.32-2.47,.87,0,1.72,.11,2.55,.33-6.56,.49-13.13,6.22-15.99,14.65Z"/><path class="e" d="M242.46,217.08c-1.99,.48-3.67,2.46-3.77,4.43s1.43,3.18,3.42,2.7,3.67-2.46,3.77-4.43-1.43-3.18-3.42-2.7Z"/><path class="e" d="M321.81,186.09c-7.71,2.42-14.63,9.26-17.47,17.27l35.01-10.96c-2.88-6.23-9.82-8.73-17.53-6.32Z"/></g></g></svg>