<svg xmlns="http://www.w3.org/2000/svg" viewBox="0 0 480 320"><defs><style>.cls-1{fill:#000;}</style></defs><g id="Layer_1" data-name="Layer 1"><path class="cls-1" d="M462.32,112.33a5.7,5.7,0,0,0-.06-.58,1,1,0,0,0,0-.17,3.12,3.12,0,0,0-.24-.73.75.75,0,0,0-.06-.13,4.37,4.37,0,0,0-.32-.55l-.12-.16a4.28,4.28,0,0,0-.4-.45l-.08-.09-.06,0a3.86,3.86,0,0,0-.6-.44h0a3.11,3.11,0,0,0-.69-.32L261.7,40.4a4,4,0,0,0-1.61-.21L21.36,58.48l-.11,0a3.64,3.64,0,0,0-.44.07l-.18,0a3.81,3.81,0,0,0-.44.15l-.13.05a3.78,3.78,0,0,0-.49.25l0,0-.1.08a3.18,3.18,0,0,0-.37.27l-.14.13a4,4,0,0,0-.28.3l-.13.14a3.11,3.11,0,0,0-.25.38l-.08.11a5.12,5.12,0,0,0-.25.53.57.57,0,0,0,0,.14,3.19,3.19,0,0,0-.13.44l0,.09a.34.34,0,0,1,0,.1c0,.14,0,.29-.05.44s0,.11,0,.17v107a.76.76,0,0,0,0,.15,1.15,1.15,0,0,0,0,.19,5.4,5.4,0,0,0,.09.6.64.64,0,0,0,0,.07A4.29,4.29,0,0,0,18,171a1.3,1.3,0,0,0,.08.17,5.09,5.09,0,0,0,.3.5l.06.09a4.23,4.23,0,0,0,.45.5l.14.12a3.35,3.35,0,0,0,.57.42h0l5.94,3.5v9.36a4,4,0,0,0,2,3.45l153,90.15a4.05,4.05,0,0,0,2.53.52l267.86-34.24a4,4,0,0,0,3.49-4v-11l4.42-.56a4,4,0,0,0,3.49-4V112.45S462.32,112.37,462.32,112.33Zm-8,4.55V222.53l-4.41.56h0l-267.61,34V145.25l51.92-5.41Zm-280,27.23v10.58s0,0,0,.05v99.92l-19.67-11.6-123-72.49-.05,0-5.89-3.48V69ZM440,110.33,229.74,132.26l-50.68,5.29-29.85-15.09-113-57.1L259.88,48.23Zm6.46,127.73-263,33.62L33.58,183.38V181l142.7,84.09a2.88,2.88,0,0,0,.59.27l.1,0,.07,0,.1,0a2.62,2.62,0,0,0,.38.09l.12,0,.29,0H178l.27,0,.5,0,76.89-9.78h0L446.42,231.6Z"/><path class="cls-1" d="M138.7,94.46c7.61,8.05,38.05,16.6,88.91,17.55,2.72,0,5.41.08,8.09.08,20.88,0,40.35-1.53,55.52-4.39,19.69-3.72,29.4-9.07,29.68-16.37a9.2,9.2,0,0,0-2.82-6.73c-7.61-8-38.05-16.61-88.91-17.55-23.91-.44-46.5,1.08-63.61,4.31-19.69,3.72-29.4,9.07-29.68,16.37h0A9.2,9.2,0,0,0,138.7,94.46Zm28.89-15.34c16.53-3.06,38.34-4.5,61.43-4.08,22.93.43,44.5,2.67,60.73,6.3,18.85,4.21,23.06,8.72,23.16,9.68-.13,1-4.52,5.36-23.72,8.92-16.52,3.06-38.34,4.5-61.43,4.07-22.93-.42-44.5-2.66-60.74-6.29C148.21,93.51,144,89,143.88,88,144,87,148.42,82.67,167.59,79.12Z"/><path class="cls-1" d="M227.87,102.49l5.42,0a288.62,288.62,0,0,0,37.19-2.12c14.75-2,20.87-4.87,21.13-9.85a5.77,5.77,0,0,0-1.67-4.31c-8.14-8.7-55.64-9.59-61-9.67a302,302,0,0,0-42.62,2.09c-14.75,2-20.87,4.88-21.13,9.86a5.77,5.77,0,0,0,1.67,4.31C175,101.53,222.48,102.42,227.87,102.49Zm.94-17.92c27.69.38,45.15,3.32,52.1,5.63-7.07,2.15-24.83,4.67-52.94,4.29-27.69-.38-45.15-3.31-52.1-5.62C182.94,86.71,200.71,84.19,228.81,84.57Z"/><path class="cls-1" d="M232,236.88a7.86,7.86,0,0,0,.83,0c4.29-.49,7.64-4.72,7.64-9.64a9.16,9.16,0,0,0-2.88-6.87,7.18,7.18,0,0,0-5.67-1.82c-4.28.49-7.63,4.72-7.63,9.63a9.15,9.15,0,0,0,2.89,6.88A7.17,7.17,0,0,0,232,236.88Zm.47-9.74v.05a2.67,2.67,0,0,1-.18,1v-.06A2.82,2.82,0,0,1,232.44,227.14Z"/><path class="cls-1" d="M250.13,243.21l.49,0L393.09,225.7a4,4,0,0,0,3.51-4V132a4,4,0,0,0-4.4-4l-142.47,14.4a4,4,0,0,0-3.6,4v92.77a4,4,0,0,0,4,4Zm4-93.15,134.47-13.6v81.73l-134.47,16.5Z"/><path class="cls-1" d="M426.43,145.73c.31,0,.62,0,.93,0,4.92-.56,8.84-5.5,8.91-11.24a10.6,10.6,0,0,0-3.24-8.1,8,8,0,0,0-6.36-2.07c-4.91.55-8.83,5.49-8.92,11.24h0A10.6,10.6,0,0,0,421,143.6,8.05,8.05,0,0,0,426.43,145.73Z"/><path class="cls-1" d="M426,176.69c.31,0,.62,0,.93-.05,4.92-.56,8.84-5.51,8.92-11.25a10.6,10.6,0,0,0-3.24-8.09,8,8,0,0,0-6.37-2.08c-4.91.56-8.83,5.5-8.92,11.25a10.63,10.63,0,0,0,3.24,8.09A8.05,8.05,0,0,0,426,176.69Z"/><path class="cls-1" d="M425.58,199.19a7.26,7.26,0,0,0,.93-.06c4.92-.56,8.84-5.5,8.92-11.24a10.6,10.6,0,0,0-3.24-8.09,8,8,0,0,0-6.37-2.08c-4.91.56-8.82,5.5-8.91,11.24a10.6,10.6,0,0,0,3.24,8.09A8,8,0,0,0,425.58,199.19Z"/><path class="cls-1" d="M425.25,221.55a7.26,7.26,0,0,0,.93-.06c4.92-.55,8.84-5.5,8.92-11.24a10.6,10.6,0,0,0-3.24-8.09,8,8,0,0,0-6.37-2.08c-4.9.56-8.82,5.5-8.91,11.24a10.64,10.64,0,0,0,3.24,8.1A8,8,0,0,0,425.25,221.55Z"/><path class="cls-1" d="M201.56,235.46,217,233.7a1.07,1.07,0,0,0,.92-1v-6.5a.81.81,0,0,0-.92-.82l-15.43,1.76a1.05,1.05,0,0,0-.92,1v6.5A.81.81,0,0,0,201.56,235.46Z"/></g></svg>