<svg id="Artwork" xmlns="http://www.w3.org/2000/svg" viewBox="0 0 480 320"><defs><style>.cls-1{fill:#000;}</style></defs><g id="Layer_1" data-name="Layer 1"><path class="cls-1" d="M452,139.41l-99.7-26-.53-.15-324.57,2.5a4.28,4.28,0,0,0-3.83,2.47h-.77v49.93a4.08,4.08,0,0,0,1.57,3.23l36.76,28.86,24.53.36c2.85,3.22,8.21,5.13,14.47,5.13s11.6-1.91,14.46-5.13h85l7.78-1.28,104.13-.06,9,1.34h93.28c2.54,3.76,8.27,6.07,15.16,6.07s12.61-2.31,15.15-6.07h8.71a4.87,4.87,0,0,0,4.86-4.86V145.42A6.1,6.1,0,0,0,452,139.41Zm-146.61,6.31v43.79H213V145.72Zm8.27.44,6.22,1.35H449.07l0,44.93H320.71l-7.07-1.06Zm-108.77,0v45.26l-6,1H69.09v-44.9H198.87Zm1-8.67L198,139.34H66.15L41,123.89l309.68-2.38,68.41,17.83H320.72l-7.1-1.55v-.27Zm-145,8.22v44.12L30.77,166.2v-39Z"/><path class="cls-1" d="M259.07,171.92a19.38,19.38,0,0,0-18,12.19h36A19.38,19.38,0,0,0,259.07,171.92Z"/><path class="cls-1" d="M435.15,175.69a8,8,0,1,0-8-8h0A8,8,0,0,0,435.15,175.69Z"/><path class="cls-1" d="M413.81,174.52a6.27,6.27,0,1,0-6.28-6.27A6.27,6.27,0,0,0,413.81,174.52Z"/><rect class="cls-1" x="100.94" y="178.02" width="10.17" height="10.18"/></g></svg>