<svg xmlns="http://www.w3.org/2000/svg" viewBox="0 0 480 320"><defs><style>.cls-1{fill:#000;}</style></defs><g id="Layer_1" data-name="Layer 1"><path class="cls-1" d="M234.52,181.4a3.08,3.08,0,0,0-2.15,3.09,2.93,2.93,0,0,0,.64,1.88,1.88,1.88,0,0,0,1.82.66,3.08,3.08,0,0,0,2.15-3.09,3,3,0,0,0-.64-1.88A1.88,1.88,0,0,0,234.52,181.4Z"/><path class="cls-1" d="M379.15,160.5a3.52,3.52,0,0,0,.14-.91Z"/><path class="cls-1" d="M379,158.1a1.59,1.59,0,0,0-1.13-.87l.09.16h-.11l0-.15a1.69,1.69,0,0,0-1.5.71,3,3,0,0,0-.67,1.57,3.09,3.09,0,0,0,.18,1.7,1.63,1.63,0,0,0,1.23,1.09l0-.14.12,0-.14.12a1.57,1.57,0,0,0,1.33-.5,3,3,0,0,0,.18-.24,1.3,1.3,0,0,0,.15-.2,1.78,1.78,0,0,0,.17-.27,2.88,2.88,0,0,0,.19-.47.79.79,0,0,0,0-.09h0s0,0,0,0l.14-1v0h0A2.89,2.89,0,0,0,379,158.1Z"/><path class="cls-1" d="M371,159a1.62,1.62,0,0,0-1.15-.9l.1.16h-.13l0-.15a1.73,1.73,0,0,0-1.52.7,3.11,3.11,0,0,0-.68,1.58,3.35,3.35,0,0,0,.18,1.72,1.71,1.71,0,0,0,1.25,1.11l0-.14h.12l-.14.12a1.6,1.6,0,0,0,1.34-.51,2.66,2.66,0,0,0,.56-.79v0c0-.08.07-.17.11-.26s0-.08,0-.13l0-.07h0a2.29,2.29,0,0,0,.07-.28l.09-.69v0h0A2.78,2.78,0,0,0,371,159Z"/><path class="cls-1" d="M394.71,165.34l-.24,1.18A3.19,3.19,0,0,0,394.71,165.34Z"/><path class="cls-1" d="M394.69,165h0c-.06-.78-.46-1.81-1.39-2l.11.16h-.13l0-.15a1.65,1.65,0,0,0-1.46.71,2.88,2.88,0,0,0-.65,1.53,3,3,0,0,0,.15,1.67,1.62,1.62,0,0,0,1.2,1.09l0-.14.13,0-.15.11a1.83,1.83,0,0,0,1.76-1.15.93.93,0,0,1,.05-.1l.07-.15h0l.05-.11.23-1.5A.43.43,0,0,1,394.69,165Z"/><path class="cls-1" d="M379,168.16a3.64,3.64,0,0,0,.16-1Z"/><path class="cls-1" d="M378.82,165.71a1.58,1.58,0,0,0-1.11-.86l.1.16h-.12l0-.15a1.69,1.69,0,0,0-1.5.69,3.14,3.14,0,0,0-.68,1.56,3.09,3.09,0,0,0,.17,1.7,1.67,1.67,0,0,0,1.22,1.11l0-.14.12,0-.14.12a1.56,1.56,0,0,0,1.3-.47,2.81,2.81,0,0,0,.75-1.22h0l0-.06.16-1v0h0A2.77,2.77,0,0,0,378.82,165.71Z"/><path class="cls-1" d="M387,159.76a3.18,3.18,0,0,0,.18-1Z"/><path class="cls-1" d="M387.13,158.46h0c0-.84-.44-2-1.44-2.1l.1.14h-.12l0-.14a1.65,1.65,0,0,0-1.47.7,3.2,3.2,0,0,0-.66,1.56,3.11,3.11,0,0,0,.18,1.68,1.66,1.66,0,0,0,1.22,1.1l0-.15a.53.53,0,0,0,.12,0l-.14.12a1.87,1.87,0,0,0,1.79-1.2,1.75,1.75,0,0,0,.11-.24,1.42,1.42,0,0,0,.08-.18h0l0,0,.18-1.26Z"/><path class="cls-1" d="M386.78,167.35a3.44,3.44,0,0,0,.2-1.09Z"/><path class="cls-1" d="M385.56,163.93l.1.15h-.12l0-.14a1.67,1.67,0,0,0-1.48.69,3.11,3.11,0,0,0-.66,1.56,2.94,2.94,0,0,0,.16,1.68,1.65,1.65,0,0,0,1.2,1.1l0-.14.12,0-.15.11a1.9,1.9,0,0,0,1.85-1.26s0,0,0,0,.07-.15.1-.22h0l0-.09.2-1.29v0h0C386.94,165.2,386.55,164.08,385.56,163.93Z"/><path class="cls-1" d="M370.88,166.67a1.57,1.57,0,0,0-1.13-.88l.1.15h-.12l0-.14a1.7,1.7,0,0,0-1.52.68,3,3,0,0,0-.68,1.58,3.22,3.22,0,0,0,.16,1.71,1.7,1.7,0,0,0,1.23,1.12l0-.14h.13l-.15.13a1.65,1.65,0,0,0,1.39-.54,2.69,2.69,0,0,0,.63-1,2,2,0,0,0,.14-.43l.1-.76v0h0A2.79,2.79,0,0,0,370.88,166.67Z"/><path class="cls-1" d="M400.39,159.64l0-.13h.13l-.15.12a1.79,1.79,0,0,0,1.7-1.11l0,0,.09-.19h0l.06-.12.24-1.65s0,0,0-.06h0c-.08-.75-.48-1.71-1.38-1.84l.12.16-.14,0,0-.14a1.65,1.65,0,0,0-1.44.72,3.05,3.05,0,0,0-.63,1.53,2.91,2.91,0,0,0,.17,1.65A1.58,1.58,0,0,0,400.39,159.64Z"/><path class="cls-1" d="M394.85,157.46h0c-.06-.79-.47-1.83-1.41-2l.11.15h-.13l0-.14a1.62,1.62,0,0,0-1.46.71,3.42,3.42,0,0,0-.47,3.21,1.61,1.61,0,0,0,1.2,1.08l0-.13.12,0-.14.11c.92.14,1.59-.71,1.89-1.42h0l0-.1.22-1.48S394.86,157.47,394.85,157.46Z"/><path class="cls-1" d="M402.25,158.2a3.18,3.18,0,0,0,.26-1.22Z"/><path class="cls-1" d="M402.06,165.69a3.2,3.2,0,0,0,.27-1.26Z"/><path class="cls-1" d="M402,165.81h0l.06-.13.26-1.68,0-.11h0c-.08-.72-.49-1.65-1.35-1.78l.12.16-.14,0,0-.14a1.63,1.63,0,0,0-1.44.7A3.44,3.44,0,0,0,399,166a1.6,1.6,0,0,0,1.18,1.08l0-.13.14,0-.16.11C401.05,167.22,401.71,166.46,402,165.81Z"/><path class="cls-1" d="M349.55,136.72a3.26,3.26,0,0,0-2.47-.86h0l-7.4.65-55.59,4.91h0a3.35,3.35,0,0,0-3,3.33s0,0,0,.06l-.11,36h0v0a3,3,0,0,0,0,.42,3.37,3.37,0,0,0,1.07,2.12,3.23,3.23,0,0,0,2.16.82h0l.37,0h0l62.6-7.68.09,0a3.35,3.35,0,0,0,2.82-3.28h0v0l.5-34c0-.14,0-.29,0-.43A3.36,3.36,0,0,0,349.55,136.72Zm-62.62,41.16.09-30.69,53.17-4.7,4.37-.38-.43,28.76Z"/><path class="cls-1" d="M394.87,157.83l-.22,1.16A3.27,3.27,0,0,0,394.87,157.83Z"/><path class="cls-1" d="M453.14,121.38c0-.06,0-.11,0-.17a4,4,0,0,0,0-.6.17.17,0,0,1,0-.07,2.66,2.66,0,0,0-.07-.39v0l-.05-.21s0,0,0-.05a.13.13,0,0,0,0-.06,4.53,4.53,0,0,0-3.07-3.15l0,0a5.57,5.57,0,0,0-.71-.14h-.18l-8.81-.82c-.12,0-.24,0-.36,0s-.22,0-.34,0l-7.24.59L308.62,104.58a2.61,2.61,0,0,0-.28,0c-.12,0-.23,0-.35,0L31.35,122.31h0a2.51,2.51,0,0,0-.27,0l-.45.07a4.81,4.81,0,0,0-3.77,4.9h0l1.76,48.47h0a4.76,4.76,0,0,0,3.52,4.45h0l15,4,.05,1.53h0c.06,1.91,1.06,4.43,5.43,5.59a27.29,27.29,0,0,0,3.83.68c2,.24,4.26.38,7,.43l1.94,0a107.73,107.73,0,0,0,11-.56l52.61,13.84,0,1.86h0c.07,3.22,2.46,5.41,7.11,6.51a38.81,38.81,0,0,0,5.68.88c2.71.27,5.55.4,8.64.4l2.22,0a94,94,0,0,0,10.83-.8,42.09,42.09,0,0,0,5.69-1.11c2.91-.82,4.88-2,5.93-3.65L401,180.6c1.57.17,3.24.3,5.1.4h.27c1.48.09,3,.15,4.47.15l1.56,0h.08c2.76,0,5.07-.12,7.26-.34a32.65,32.65,0,0,0,3.91-.59,12,12,0,0,0,2.48-.81,5.85,5.85,0,0,0,2.64-2.4l18.84-2.44h0l.19,0,.13,0,.42-.11h0a4.7,4.7,0,0,0,2.52-2,0,0,0,0,1,0,0,.08.08,0,0,0,0,0l.1-.15h0l0,0h0a4.51,4.51,0,0,0,.62-2.13v0h0ZM78,184.05h-.07l-.09,0-25.66-6.75h0l-15.61-4.11L35,130.94,136.3,148.52l1,51.14-3.21-.85h0Zm230.22-71.48L386.6,120,140.76,140.13a4.7,4.7,0,0,0-2.06.68L65.57,128.13ZM438,158.33a10.86,10.86,0,0,1-3.73,3.75,4.81,4.81,0,0,1-4.76.19,8.79,8.79,0,0,1-3.54-4.55,17.68,17.68,0,0,1-1.06-6.69,20.58,20.58,0,0,1,1.78-7.87,12.44,12.44,0,0,1,4.65-5.7,4.79,4.79,0,0,1,5.5,0,9.83,9.83,0,0,1,3.33,5.21c0,.12.07.24.11.36s.08.32.12.46a20.2,20.2,0,0,1-1.9,14h0l-.24.41C438.13,158.06,438,158.19,438,158.33Zm-253.56,3.6a26.69,26.69,0,0,0-4.45,15,23.84,23.84,0,0,0,2.84,11.3,13.65,13.65,0,0,1-4.58-5.57,20.21,20.21,0,0,1,4.51-22.42,13.57,13.57,0,0,1,6.35-3.36A22.85,22.85,0,0,0,184.39,161.93Zm17.34-2.67a10.7,10.7,0,0,1,7,4.86,17.2,17.2,0,0,1,2.63,9.26h0a19.72,19.72,0,0,1-4.69,13.05c-3.19,3.65-7.42,5.3-11.31,4.41l-.1,0-.09,0-2.55-.58a11.81,11.81,0,0,1-2.86-2.38,16.75,16.75,0,0,1-3.84-11,20.64,20.64,0,0,1,3.43-11.56c1.39-2.06,4.45-5.65,9.25-6.46l.33,0Zm219.16-23a5.84,5.84,0,0,1,3.8-1.08h.09a20.79,20.79,0,0,0-3.61,5.54,26.3,26.3,0,0,0-2.3,10.18h0a23.48,23.48,0,0,0,1.45,9,19.61,19.61,0,0,0,.87,1.94l-.14,0h0c-2.58-.38-4.12-2.77-4.81-4.17a17.05,17.05,0,0,1-1.55-7.83,20.22,20.22,0,0,1,2.91-10A11.64,11.64,0,0,1,420.89,136.23Zm23.75,1.54a16.53,16.53,0,0,0-2-3.14,11.45,11.45,0,0,0-7.72-4.41l-2.73-.3a12.84,12.84,0,0,0-4.84-2.66l0-1L445,124.76Zm-273,64.49h0l-18.54,2.41-1-55.47,33.2-2.77v.86a24.23,24.23,0,0,0-12.35,8.43,31,31,0,0,0-6.38,15.7,29.18,29.18,0,0,0,3,16.8,21.2,21.2,0,0,0,13.87,11.13c.07,0,.14,0,.21,0l.23.08c.67.15,1.34.27,2,.35v.6Zm22.62-3.5c.4.08.79.14,1.19.19a4.16,4.16,0,0,0,.5.16l-1.28.17A3.48,3.48,0,0,0,194.22,198.76Zm18.12-6.66.11.13a6.82,6.82,0,0,0,1.08.88l.11.07a6.71,6.71,0,0,0,3.57,1,7.07,7.07,0,0,0,3.67-1.08l.32-.21c.08-.06.17-.1.26-.17l.06,0a7.6,7.6,0,0,0,1.28-1.2,8.71,8.71,0,0,0,2-5.63h0a8.05,8.05,0,0,0-1-3.88s0,0,0-.07a5.2,5.2,0,0,0-.37-.61l0-.07a6.85,6.85,0,0,0-4.4-2.87,28.23,28.23,0,0,0,.42-5h0a24.88,24.88,0,0,0-3.95-13.61,18.61,18.61,0,0,0-12.34-8.35l-8.81-1.52a4.71,4.71,0,0,0-1,0,2,2,0,0,0,0-.25h0l0-3.6c0-.07.11-.14.15-.21l226-18.85-.05,1.88v.11a6.2,6.2,0,0,0,.08.93s0,.06,0,.1,0,0,0,.05a.15.15,0,0,1,0,.07,1,1,0,0,1,0,.1v0a13,13,0,0,0-1.92,1.06,17.63,17.63,0,0,0-5,5.29,26,26,0,0,0-3.85,13.13,23,23,0,0,0,2.18,10.63,13.27,13.27,0,0,0,7.5,7v0a4.14,4.14,0,0,0-.05.79l-.05,1.86a.64.64,0,0,0-.08.14l-.09.16,0,.06-17.59,2.28L203.15,198.17A21.54,21.54,0,0,0,212.34,192.1Zm213.94-22.84v-.08l.13-.2.64-.28,1.69.24Zm12.08-2.53a19,19,0,0,0,5.23-6.13s0,0,0-.07l.08-.12h0c.1-.18.18-.38.28-.57l-.22,7.16-7.44,1A14.46,14.46,0,0,0,438.36,166.73Z"/><polygon class="cls-1" points="241.18 187.46 258.12 185.95 258.12 177.49 241.18 179 241.18 187.46"/></g></svg>