<svg id="Layer_1" data-name="Layer 1" xmlns="http://www.w3.org/2000/svg" viewBox="0 0 480 320"><defs><style>.cls-1{fill:#000;}</style></defs><title>Cocktail Audio - X50D</title><path class="cls-1" d="M455,101.86a4,4,0,0,0-3.14-1L442.58,102,290.17,79.28a4,4,0,0,0-1,0L28.94,108.87a4,4,0,0,0-3.53,3.58c0,.13,0,.26,0,.39h0v67.58a4,4,0,0,0,2.35,3.64l104.12,47.15,0,7.08a4,4,0,0,0,1.4,3.06,4,4,0,0,0,2.6,1,3.57,3.57,0,0,0,.65-.06l316-52.26a4,4,0,0,0,3.35-3.93l.44-81.2A4,4,0,0,0,455,101.86ZM289.51,87.27l122.72,18.26L135.8,138a4,4,0,0,0-3.49,3.5L48.37,114.71ZM33.39,152.59l98.66,37,0,6.09L33.39,155.2Zm0-8.55v-2.66l98.72,34.67,0,5Zm0-11.13v-2.65l98.78,33.68,0,3.64Zm98.82,22.59L33.39,121.81v-3.49l98.84,31.59Zm-98.82,8.35L132,204.32l0,5.4L33.39,166.35Zm0,14v-2.75l98.53,43.35,0,4Zm414.51,4.81-308,50.94.4-88L448.3,109.34Z"/><path class="cls-1" d="M298.92,206.1a4.21,4.21,0,0,0,.62,0L404,189.5a4,4,0,0,0,3.38-3.95V118.82a4,4,0,0,0-4.48-4L298.44,127.48a4,4,0,0,0-3.52,4V202.1a4,4,0,0,0,4,4Zm4-71.1,96.41-11.67v58.8l-96.41,15.29Z"/><path class="cls-1" d="M166.67,203.06a19.22,19.22,0,0,0,5.48.79c9.43,0,18.47-6.87,21.61-17.27h0a24.74,24.74,0,0,0-1.67-18.78,20,20,0,0,0-11.85-9.85c-11.2-3.33-23.35,4.07-27.09,16.5a24.75,24.75,0,0,0,1.68,18.76A20,20,0,0,0,166.67,203.06Zm-5.86-26.32c2.1-7,7.93-11.6,13.9-11.6a11.24,11.24,0,0,1,3.24.47,12.06,12.06,0,0,1,7.1,6,16.75,16.75,0,0,1,1,12.68c-2.47,8.21-10.16,13.21-17.14,11.13a12,12,0,0,1-7.09-6A16.78,16.78,0,0,1,160.81,176.74Z"/><path class="cls-1" d="M421.8,165.28a16.92,16.92,0,0,0,4.91.72c8.4,0,16.45-6.11,19.24-15.37h0a22,22,0,0,0-1.49-16.69,17.87,17.87,0,0,0-10.59-8.8c-10-3-20.83,3.6-24.16,14.66a22.05,22.05,0,0,0,1.49,16.69A17.84,17.84,0,0,0,421.8,165.28Zm-4.43-23.18c1.75-5.8,6.6-9.68,11.55-9.68a9.35,9.35,0,0,1,2.66.38,10,10,0,0,1,5.84,4.93,14,14,0,0,1,.87,10.59c-2.06,6.85-8.44,11-14.2,9.3a9.93,9.93,0,0,1-5.84-4.92A14,14,0,0,1,417.37,142.1Z"/><path class="cls-1" d="M195.82,156.3H196l.35,0a1.53,1.53,0,0,0,.3,0l90.86-11.63a6.59,6.59,0,0,0,5.65-7.09,6.35,6.35,0,0,0-7.12-5.71l-90.85,11.63a6.53,6.53,0,0,0-5.67,7.09A6.36,6.36,0,0,0,195.82,156.3Z"/><path class="cls-1" d="M155.61,221.23a7.45,7.45,0,0,0,2.32.37,9.27,9.27,0,0,0,8.46-6.46v0c.08-.25.15-.5.22-.76a4.4,4.4,0,0,0,1.91,1.25,4.48,4.48,0,0,0,1.39.22,4.75,4.75,0,0,0,4.47-3.26,4.87,4.87,0,0,0-.25-3.71,4.55,4.55,0,0,0-6.08-2,4.8,4.8,0,0,0-1.78,1.57c-.09-.22-.18-.43-.28-.64a7.78,7.78,0,0,0-4.54-4c-4.33-1.41-9.17,1.33-10.79,6.1a9.53,9.53,0,0,0,.39,7.37A7.7,7.7,0,0,0,155.61,221.23ZM166.81,210a3.3,3.3,0,0,1,4.17-2l-.73,2.39.81-2.37a3.48,3.48,0,0,1,2,1.72,3.22,3.22,0,0,1,.19,2.41l-2.62-.86,2.61.91a3.17,3.17,0,0,1-1.62,1.81,3.42,3.42,0,0,1-2.57.18,3.48,3.48,0,0,1-2-1.72c0-.06,0-.12-.07-.18a9.74,9.74,0,0,0-.15-2.16A.53.53,0,0,1,166.81,210Zm-8.57,2.47a1.9,1.9,0,0,1,.67-1,2,2,0,0,1-.08,1,2,2,0,0,1-.68,1A1.92,1.92,0,0,1,158.24,212.48Z"/><path class="cls-1" d="M203.24,202.64a6.34,6.34,0,0,0-7.76,3.94,4.54,4.54,0,0,0-5.17-3.63l-10.1,1.53a4.85,4.85,0,0,0-4.05,4.75V214a4.57,4.57,0,0,0,4.56,4.6,4.39,4.39,0,0,0,.72-.07L191.6,217a4.87,4.87,0,0,0,4-4.74V212l.06.16a5.9,5.9,0,0,0,3.45,3,6,6,0,0,0,1.81.28,6.56,6.56,0,0,0,6.08-4.57v0a6.8,6.8,0,0,0-.31-5.23A5.86,5.86,0,0,0,203.24,202.64Zm-.34,6.91a1.71,1.71,0,0,1-2.12.71,2.16,2.16,0,0,1-1.25-1,1.26,1.26,0,0,1-.12-.95l3.52,1.19Zm0-.09-3.51-1.22a1.5,1.5,0,0,1,1.46-.81,2,2,0,0,1,.67.11,2.13,2.13,0,0,1,1.24,1A1.36,1.36,0,0,1,202.93,209.46Z"/><path class="cls-1" d="M438.92,165a5.06,5.06,0,0,0-5.66,2,4.93,4.93,0,0,0-1.68-.93,5.12,5.12,0,0,0-5.65,2,4.84,4.84,0,0,0-1.68-.92,5,5,0,0,0-5.65,2,5.13,5.13,0,0,0-1.7-.94,5.19,5.19,0,0,0-6.38,3.39,5.37,5.37,0,0,0,.24,4.11,4.92,4.92,0,0,0,2.89,2.53,4.84,4.84,0,0,0,1.49.24,5.23,5.23,0,0,0,4.2-2.2,4.82,4.82,0,0,0,1.63.9,5,5,0,0,0,1.55.25,5.1,5.1,0,0,0,4.16-2.21,5.06,5.06,0,0,0,1.69.93,5,5,0,0,0,1.46.22,5.15,5.15,0,0,0,4.18-2.21,4.85,4.85,0,0,0,3.15,1.16,4.92,4.92,0,0,0,2.23-.54,5.46,5.46,0,0,0,2.45-7.19A4.92,4.92,0,0,0,438.92,165ZM414.48,175.8a3.12,3.12,0,0,1-1.8-1.54,2.72,2.72,0,0,1-.16-2l3.78,1.31-3.78-1.31a2.86,2.86,0,0,1,3.64-1.61,3,3,0,0,1,1.44,1,5.34,5.34,0,0,0,.39,2.74A2.87,2.87,0,0,1,414.48,175.8Zm7.38-1a3,3,0,0,1-1.52-1,5.32,5.32,0,0,0-.4-2.76,2.84,2.84,0,0,1,3.48-1.43,3.08,3.08,0,0,1,1.52,1.05,5.36,5.36,0,0,0,.27,2.42l-1.58-.54,1.58.55c0,.1.07.21.12.31A2.85,2.85,0,0,1,421.86,174.76Zm7.31-1.06a3.15,3.15,0,0,1-1.51-1,5.34,5.34,0,0,0-.39-2.74,2.86,2.86,0,0,1,3.52-1.43,3.12,3.12,0,0,1,1.47,1,5.32,5.32,0,0,0,.28,2.44L431,171.4l1.58.56.12.3A2.85,2.85,0,0,1,429.17,173.7ZM440.1,171l-1.81-.6,1.8.63s0,0,0,.05a2.87,2.87,0,0,1-3.62,1.6l.43-1.4-.47,1.38a3.18,3.18,0,0,1-1.42-1,5.3,5.3,0,0,0-.39-2.76,2.59,2.59,0,0,1,1.22-1.27,3.12,3.12,0,0,1,2.29-.16,3.08,3.08,0,0,1,1.8,1.53A2.69,2.69,0,0,1,440.1,171Z"/></svg>