<svg xmlns="http://www.w3.org/2000/svg" viewBox="0 0 480 320"><defs><style>.cls-1{fill:#000;}</style></defs><title>Cocktail Audio - X45</title><g id="_1" data-name="1"><path class="cls-1" d="M457.14,157.06c-.25-6.1-2.66-11.54-6.61-14.92a14.68,14.68,0,0,0-7.61-3.41,1.29,1.29,0,0,0-.21-.06l-12.1-2.59a3.21,3.21,0,0,0-1.25-.25h-.1q-.6,0-1.23.09l-.14,0-1.06.17-.14,0c-9.61,2-16.76,12.7-16.27,24.39.42,10.16,6.76,17.79,15,18.41l8.55,2.42a3.33,3.33,0,0,0,.88.12H435a14.49,14.49,0,0,0,2.87.3,15,15,0,0,0,3-.31C450.48,179.47,457.63,168.75,457.14,157.06Zm-40.24,3.2c-.34-8.29,4.71-16.4,11-17.76l.9-.14h.08l1.52.33c-5.5,4.54-9,12.33-8.66,20.63a23.15,23.15,0,0,0,2,8.71C420,170.57,417.14,166,416.9,160.26Zm22.65,14.84a7.88,7.88,0,0,1-6.63-1.55c-2.78-2.17-4.48-6-4.66-10.51-.35-8.29,4.7-16.41,11-17.76l.9-.15a7.91,7.91,0,0,1,6.11,1.94c2.59,2.21,4.17,6,4.35,10.26C451,165.65,445.92,173.79,439.55,175.1Z"/><path class="cls-1" d="M197.19,159.73a14.68,14.68,0,0,0-7.61-3.41,1.29,1.29,0,0,0-.21-.06l-12.1-2.59a3.21,3.21,0,0,0-1.25-.25h-.1q-.61,0-1.23.09l-.14,0-1.06.17-.14,0c-9.61,2-16.76,12.7-16.27,24.39.42,10.16,6.76,17.79,15,18.41l8.55,2.42a3.33,3.33,0,0,0,.88.12h.14a14.46,14.46,0,0,0,2.86.3,15,15,0,0,0,3-.32c9.61-2,16.75-12.7,16.27-24.39C203.55,168.55,201.14,163.11,197.19,159.73Zm-33.63,18.12c-.34-8.29,4.71-16.4,11-17.76l.9-.14h.08l1.52.33c-5.5,4.54-9,12.33-8.66,20.63a23.15,23.15,0,0,0,2,8.71C166.62,188.15,163.8,183.6,163.56,177.85Zm22.65,14.84a7.89,7.89,0,0,1-6.63-1.55c-2.78-2.17-4.48-6-4.66-10.51-.35-8.29,4.7-16.41,11-17.77l.9-.14a7.91,7.91,0,0,1,6.11,1.94c2.59,2.21,4.17,6,4.35,10.26C197.66,183.24,192.58,191.38,186.21,192.69Z"/><path class="cls-1" d="M464.39,122.11a4,4,0,0,0-3.38-1.47l-7.31.49a4,4,0,0,0-1.36-.66L335.1,89.27a4.5,4.5,0,0,0-.51-.08l-.16,0h-.21a3.19,3.19,0,0,0-.62,0L19.33,110.35h0c-.07,0-.13,0-.2,0l-.11,0A4.65,4.65,0,0,0,15,115s0,0,0,0l-.21,69.28h0a4.17,4.17,0,0,0,.07.71c0,.14.07.27.11.41a2.17,2.17,0,0,0,.07.24,4.52,4.52,0,0,0,.23.5l0,.08a3.48,3.48,0,0,0,.34.51h0a4.15,4.15,0,0,0,.76.75h0l.18.12a2.77,2.77,0,0,0,.34.2l.05,0,.24.15a2.57,2.57,0,0,0,.33.18,3.52,3.52,0,0,0,.39.17l.17.07,119.16,37.3a4.14,4.14,0,0,0,.68.15v1.06s0,0,0,.06l-.85-.22-.33-.35a.15.15,0,0,0-.21,0,.13.13,0,0,0,0,.2l.36.39h0l0,0,.89.23a3.84,3.84,0,0,0-.1,1.13,4,4,0,0,0,4,3.73H142l319.3-21.56a4.82,4.82,0,0,0,4.09-4.41l.25-81.12A4,4,0,0,0,464.39,122.11Zm-318.23,27.8,311.3-21-.23,73.91-311.29,21Zm-3.8-7.76-4.12-1.07-.25,0-.44-.07h-.38a2.55,2.55,0,0,0-.39,0l-.24,0L44.22,116.69,333.61,97.15l96.18,25.6ZM22.83,181.51,23,119.38,134.9,148.86a4,4,0,0,0,2,.52h0l1.29.34L138,217.55Z"/><path class="cls-1" d="M407.39,141.11a4.64,4.64,0,0,0-4.23-4.06,3.54,3.54,0,0,0-.73,0h0l-99.8,6.44h0a5,5,0,0,0-4.59,4.9v0l-.26,57.77a6.85,6.85,0,0,0,4.8,4.81h.23l99.8-6.44h0a5,5,0,0,0,4.6-4.94h0l.25-57.77h0A2.81,2.81,0,0,0,407.39,141.11ZM305,150.32l95.42-6.15-.24,53.5-95.41,6.16Z"/><path class="cls-1" d="M167.29,203l-.11,0a.14.14,0,0,0-.07.19.13.13,0,0,0,.13.09h.06l.1,0a.14.14,0,0,0-.11-.26Z"/><path class="cls-1" d="M217.79,164a2.26,2.26,0,0,0-.45,0h0l-5.44.37h0l-.28,0-.22,0a4,4,0,0,0-3.14,4,4,4,0,0,0,1.22,2.89,3.65,3.65,0,0,0,2.5,1h.25l5.44-.37h0c.09,0,.18,0,.28,0l.22,0a4,4,0,0,0,3.14-3.95,4,4,0,0,0-1.22-2.89A3.59,3.59,0,0,0,217.79,164Z"/><path class="cls-1" d="M289.08,145.25h0l-86.8,5.86a2.09,2.09,0,0,0-.51.09,5.15,5.15,0,0,0-4.12,5.11,5,5,0,0,0,1.55,3.68,4.47,4.47,0,0,0,3.08,1.23h.32l86.8-5.86h.08a2.84,2.84,0,0,0,.42-.08,5.14,5.14,0,0,0,4.12-5.11,5,5,0,0,0-1.54-3.68A4.48,4.48,0,0,0,289.08,145.25Z"/><path class="cls-1" d="M218.05,198a3.57,3.57,0,1,0,3.09,3.53A3.33,3.33,0,0,0,218.05,198Z"/><path class="cls-1" d="M210.11,198.37a3.56,3.56,0,1,0,3.09,3.53A3.33,3.33,0,0,0,210.11,198.37Z"/><path class="cls-1" d="M181.16,199.84a3.56,3.56,0,1,0,3.09,3.53A3.33,3.33,0,0,0,181.16,199.84Z"/><ellipse class="cls-1" cx="160.84" cy="202" rx="4.39" ry="5.02"/><ellipse class="cls-1" cx="423.78" cy="188.13" rx="3.09" ry="3.53"/><ellipse class="cls-1" cx="430.5" cy="187.76" rx="3.09" ry="3.53"/><ellipse class="cls-1" cx="437.22" cy="187.4" rx="3.09" ry="3.53"/><path class="cls-1" d="M443.94,183.5A3.56,3.56,0,1,0,447,187,3.33,3.33,0,0,0,443.94,183.5Z"/><polygon class="cls-1" points="192.09 201.67 192.1 205.82 202.72 205.15 202.72 200.99 192.09 201.67"/></g></svg>