<svg id="Layer_1" data-name="Layer 1" xmlns="http://www.w3.org/2000/svg" viewBox="0 0 480 320"><defs><style>.cls-1{fill:#000;}</style></defs><title>Cocktail Audio - N15D</title><path class="cls-1" d="M457.85,103.76a4,4,0,0,0-1.37-3,4.06,4.06,0,0,0-2.08-.93v0L283.3,76.12a4.18,4.18,0,0,0-1,0L25.54,104.93A4,4,0,0,0,22,108.58c0,.11,0,.22,0,.33h0L22.12,185a4,4,0,0,0,2.38,3.65L150,244.25v0a3.9,3.9,0,0,0,1.61.36,4.14,4.14,0,0,0,.7-.06L454.69,191.3a4,4,0,0,0,3.31-4ZM282.7,84.12,424.17,103.7,151.72,140.1,46.78,110.59ZM30.05,144.34,147.5,185.11l0,10.75-117.46-45Zm0-8.48v-6.63l117.45,36.24,0,11.17Zm117.4,11.35,0,9.89L30,120.85l0-6.67ZM30.08,159.44l117.46,45,0,10.32L30.09,165.86Zm0,15.09,117.47,48.89,0,11L30.12,182.36Zm125.49,61.3-.16-88.16,294.43-39.34L450,184Z"/><path class="cls-1" d="M320.22,136.32c-15.35-2.46-30.71,9.64-34.21,27-1.85,9.12-.13,18.37,4.73,25.38a25.14,25.14,0,0,0,21,11.24c13.93,0,27-11.46,30.21-27.28h0c1.84-9.12.12-18.38-4.74-25.39A25.58,25.58,0,0,0,320.22,136.32ZM334.12,171c-2.67,13.18-13.93,22.45-25.1,20.66a17.66,17.66,0,0,1-11.7-7.58c-3.63-5.23-4.89-12.24-3.47-19.24C296.29,152.79,306,144,316.16,144a17.28,17.28,0,0,1,14.48,7.79A25.2,25.2,0,0,1,334.12,171Z"/><path class="cls-1" d="M203.92,190c-7.32-1.81-15.19,3.36-17.52,11.53A16.06,16.06,0,0,0,187.73,214a12.63,12.63,0,0,0,7.93,6.05,12.48,12.48,0,0,0,3,.36c6.38,0,12.54-4.83,14.56-11.9h0A16.06,16.06,0,0,0,211.84,196,12.63,12.63,0,0,0,203.92,190Zm1.56,16.26c-1.14,4-4.77,6.74-7.9,6a4.71,4.71,0,0,1-2.93-2.29,8.06,8.06,0,0,1-.56-6.21c1-3.55,4-6.1,6.81-6.1a4.69,4.69,0,0,1,1.11.14,4.62,4.62,0,0,1,2.91,2.28A8.05,8.05,0,0,1,205.48,206.26Z"/><path class="cls-1" d="M423.06,153.11c-8.19-2-17,3.79-19.58,13A18,18,0,0,0,405,180a14.05,14.05,0,0,0,8.81,6.72,13.75,13.75,0,0,0,3.31.4c7.12,0,14-5.42,16.28-13.36h0a18,18,0,0,0-1.5-13.92A14,14,0,0,0,423.06,153.11Zm2.6,18.45c-1.42,5-6,8.38-10,7.39a6.07,6.07,0,0,1-3.8-3,10,10,0,0,1-.7-7.72c1.25-4.41,4.95-7.56,8.54-7.56a5.63,5.63,0,0,1,1.42.17,6,6,0,0,1,3.8,3A10,10,0,0,1,425.66,171.56Z"/><path class="cls-1" d="M245.37,194.09a6.11,6.11,0,0,0-4.89-1.41l-20,3a7.34,7.34,0,0,0-6,7.3l0,8.06a6.72,6.72,0,0,0,2.26,5.12,6.06,6.06,0,0,0,4,1.47,6.8,6.8,0,0,0,.9-.06l.12,0,20-3.55a7.33,7.33,0,0,0,5.9-7.29h0l0-7.54A6.73,6.73,0,0,0,245.37,194.09Zm-22.9,15.24v-5.82l17.18-2.61v5.38Z"/></svg>