<svg xmlns="http://www.w3.org/2000/svg" viewBox="0 0 480 320"><defs><style>.cls-1{fill:#000;}</style></defs><title>Cocktail Audio - X14</title><g id="_1" data-name="1"><path class="cls-1" d="M437.42,81.3h0v0h0a7.78,7.78,0,0,0-.19-1.6,7.19,7.19,0,0,0-1.09-2.48,6.46,6.46,0,0,0-1.92-1.84,6.12,6.12,0,0,0-1.16-.54l-.05,0-.15,0a3.39,3.39,0,0,0-.48-.17l-.11,0-.05,0-7.81-1.73h-.06a5.25,5.25,0,0,0-1-.12l-.2-.06-.11,0a3.72,3.72,0,0,0-.59-.2h-.06L278.69,40.58h0a5.25,5.25,0,0,0-2.4-.07h-.08L47.11,77.37H47a7.29,7.29,0,0,0-2.21.79A7.17,7.17,0,0,0,43,79.67a7.44,7.44,0,0,0-1.31,2.09,7.89,7.89,0,0,0-.6,2.5c0,.21,0,.41,0,.62h0l1.23,100.79h0a3,3,0,0,0,0,.41c0,.1,0,.21,0,.32s0,0,0,.08L43,240.13h0a7.67,7.67,0,0,0,.28,2,7.37,7.37,0,0,0,1.11,2.29,6.59,6.59,0,0,0,1.86,1.75,6.31,6.31,0,0,0,1.07.54,5.86,5.86,0,0,0,1,.34h0L192.08,278.8h0a6,6,0,0,0,1.19.18,4,4,0,0,0,.78.26l7.81,1.72H202a5.84,5.84,0,0,0,1.18.13l.33,0h.15a4.3,4.3,0,0,0,.61-.05l229.08-36.86h.05a6.8,6.8,0,0,0,1.82-.59,7,7,0,0,0,2-1.46,7.47,7.47,0,0,0,1.39-2.06,7.89,7.89,0,0,0,.69-2.42,9.28,9.28,0,0,0,.06-1.06h0ZM50.63,183.43,49.48,89.9l135.68,26.73v.14s0,0,0,.07h0l1.19,96.58Zm145.5,88.07-.3-.17-.31-.13a2.86,2.86,0,0,0-.41-.15l-.06,0-.65-52.66a2.85,2.85,0,0,0,0-.29.86.86,0,0,1,0-.16c0-.12,0-.24,0-.37l-1.18-95.77,2.95.65L198,271.91ZM364.76,81.2a4.2,4.2,0,0,0,.42-1.66,4,4,0,0,0-.62-2.24.45.45,0,0,1,0-.11,4,4,0,0,0-.3-.94h0a3.81,3.81,0,0,0-.31-.56,4.16,4.16,0,0,0-.5-.61,4.28,4.28,0,0,0-1.07-.77,5.16,5.16,0,0,0-.74-.29l-.16,0-.11,0h0l-.07,0h-.08L355,72.55h0l-.19,0-.17,0-.18,0h-.11l-.17,0-.35,0h-.54l-.3,0-.37,0h-.2l-.07,0h0L338,74.8h0l-.13,0h-.13l-.21.05-.23.06h-.05l-.06,0h0l-.09,0-.17.06a5.18,5.18,0,0,0-.63.3h-.08l-.12,0H336l-.29,0h-.61l-.34,0-.25,0-.14,0h-.12l-.1,0h0l-14.3,2.3h0l-.08,0h-.09l-.21,0-.17,0-.14,0,0,0-.08,0h0l-.26.09a3.52,3.52,0,0,0-.4.18h0a.8.8,0,0,0-.16.08l-.09,0h-.13l-.12,0h-1.27l-.37,0-.18,0h-.1l-14.32,2.3h0l-.15,0h0l-.12,0-.13,0-.28.07-.2.06,0,0-.05,0h0a4.42,4.42,0,0,0-.58.26.57.57,0,0,0-.13.08l-.16,0-.17,0-.23,0h-.93l-.41,0-.13,0h-.15L283.35,83.6h-.09l-.13,0-.12,0-.17,0-.28.07-.13,0-.17.05-.4.18h0l-.18.1-.06,0h-.07l-.16,0h-.17l-.16,0h-.71l-.31,0H280l-.25,0h-.14l-.08,0h-.07l-14.3,2.3H265l-.14,0-.14,0h-.09l-.11,0-.1,0h0l-.1,0h0l-.31.11a5.36,5.36,0,0,0-.54.26l-.07,0-.18,0-.22,0-.21,0h-.91l-.3,0-.2,0h-.06l-.09,0h0l-14.3,2.3h-.14l-.23,0-.13,0-.16,0-.18.05-.14,0-.11,0-.08,0a4.87,4.87,0,0,0-.56.28h0L245,90h-.12l-.22,0h-1l-.3,0-.25,0H243l-14.32,2.3h-.09l-.15,0-.13,0-.12,0h-.1l-.13,0h0l-.08,0,0,0-.13,0a3.55,3.55,0,0,0-.5.21h0l-.08,0-.05,0L227,93h-.07l-.11,0a.56.56,0,0,0-.17,0l-.22,0h-1l-.37,0-.12,0-.14,0h0l-14.3,2.3h0l-.18,0h0l-.1,0-.15,0-.25.06h0l-.06,0h0l-.23.08a4.67,4.67,0,0,0-.56.26h0l-.08,0,0,0h0l-.38.26a3.85,3.85,0,0,0-.94,1h0l-.18.29-.07.14h0a4,4,0,0,0-.42,1.82,4.42,4.42,0,0,0-.29,1.36,4.12,4.12,0,0,0,3.32,4.12h0l.19,0h0l.18,0h0l2.86.63-22,3.53h0l-.05,0h-.09a5.77,5.77,0,0,0-.95.26L59,83.62,277.33,48.48,399.85,75.55ZM51.32,239.5l-.59-47.85,135.71,30,.59,47.85ZM206,272.65l-1.87-152.74L429.44,83.65l.61,49.32a24.32,24.32,0,0,0-7.76-14.61,18,18,0,0,0-9.38-4.21,3.94,3.94,0,0,0-1.09-.17h-1.51l-13.36.08a3.74,3.74,0,0,0-.89-.08c-.5,0-1,.05-1.51.11l-.18,0-1.3.21-.18,0C381,116.82,372.22,130,372.82,144.46c.54,13.06,9,22.77,19.8,22.77h.4l10.54-.28a17.55,17.55,0,0,0,3.08.28,18.32,18.32,0,0,0,3.73-.39l.3-.07h0a3.94,3.94,0,0,0,1.78-.49c9.2-3,16.18-12.52,17.69-23.67l1.14,93.78ZM409.5,158.8l-5.21.13a9.93,9.93,0,0,1-3.71-1.84c-3.43-2.67-5.53-7.4-5.76-13-.42-10.23,5.81-20.23,13.62-21.91l1.11-.18c.3,0,.6,0,.89-.05h.28a9.79,9.79,0,0,1,6.37,2.45c3.19,2.72,5.14,7.33,5.36,12.64C422.86,147,417,156.71,409.5,158.8Zm-15.32-36.51a32.57,32.57,0,0,0-7.35,22.17,26.92,26.92,0,0,0,4.8,14.71c-5.88-.64-10.47-6.85-10.81-15C380.4,134,386.49,124.13,394.18,122.29Z"/><path class="cls-1" d="M369.89,114.41h0a7.33,7.33,0,0,0-2.51-5.58,6.19,6.19,0,0,0-5-1.39L217.93,130.67h0c-3.53.57-6.16,4-6.11,8h0l1.36,111.05a4.46,4.46,0,0,0,.15,1,6.88,6.88,0,0,0,3.36,4.93l.09,0a5.12,5.12,0,0,0,.75.35,5.6,5.6,0,0,0,.54.17l.31.09h.09a6,6,0,0,0,1.2.14,6.48,6.48,0,0,0,1-.08h0l144.48-23.25c3.38-.54,5.89-3.88,5.81-7.65v0ZM221.19,248.13l-.05-1L219.84,141a4,4,0,0,0,.59-2.6L361.9,115.61l1,109.71Z"/><path class="cls-1" d="M405.25,191.55c.65-2.92-.65-5.69-2.9-6.19s-4.59,1.47-5.23,4.39.65,5.7,2.89,6.19S404.6,194.47,405.25,191.55Z"/><path class="cls-1" d="M388.79,221.53c-1.93-.43-3.94,1.26-4.5,3.77s.56,4.88,2.49,5.31,3.94-1.26,4.49-3.77S390.71,222,388.79,221.53Z"/><polygon class="cls-1" points="416.7 210.7 401.68 213.14 399.97 215.58 400.21 223.28 402.41 225.23 417.19 223.16 419.27 220.59 419.14 213.02 416.7 210.7"/></g></svg>