<svg xmlns="http://www.w3.org/2000/svg" viewBox="0 0 480 320"><defs><style>.cls-1{fill:#000;}</style></defs><title>Cocktail Audio - X45 Pro</title><g id="_1" data-name="1"><path class="cls-1" d="M423.08,186.41a18.35,18.35,0,0,0,3.66-.38c11.62-2.41,20.26-15.36,19.67-29.49-.3-7.38-3.22-13.95-8-18a17.64,17.64,0,0,0-9.18-4.12l-.26-.08-14.65-3.14a4,4,0,0,0-1.62-.29c-.49,0-1,.05-1.48.11l-.17,0-1.28.21a.51.51,0,0,0-.17,0c-11.62,2.4-20.26,15.35-19.67,29.49.51,12.27,8.17,21.5,18.11,22.24l10.33,2.93a4,4,0,0,0,1.07.15l.17,0A16.66,16.66,0,0,0,423.08,186.41Zm15.5-29.55c.42,10.06-5.73,19.9-13.43,21.49a9.54,9.54,0,0,1-8-1.87c-3.36-2.63-5.41-7.26-5.64-12.72-.42-10,5.69-19.82,13.35-21.47l1.09-.17a9.56,9.56,0,0,1,7.39,2.35C436.45,147.14,438.36,151.66,438.58,156.86Zm-40.81,3.55c-.41-10,5.69-19.83,13.35-21.47l1.09-.17h.09l1.81.39c-6.63,5.49-10.86,14.92-10.44,24.94a28,28,0,0,0,2.43,10.53C401.45,172.85,398.06,167.37,397.77,160.41Z"/><path class="cls-1" d="M196.69,201.07a18.45,18.45,0,0,0,3.67-.38C212,198.28,220.61,185.33,220,171.2c-.31-7.38-3.22-13.95-8-18a17.63,17.63,0,0,0-9.19-4.12,1.29,1.29,0,0,0-.26-.08L188,145.84a3.61,3.61,0,0,0-1.63-.3c-.49,0-1,.05-1.48.1l-.18,0-1.28.2-.17,0c-11.61,2.41-20.25,15.36-19.67,29.5.51,12.27,8.17,21.5,18.11,22.24L192,200.57a4,4,0,0,0,1.07.15l.17,0A17.45,17.45,0,0,0,196.69,201.07Zm15.5-29.55c.42,10.06-5.73,19.9-13.42,21.49a9.52,9.52,0,0,1-8-1.88c-3.36-2.62-5.42-7.25-5.65-12.71-.41-10,5.69-19.82,13.35-21.47l1.09-.17a9.56,9.56,0,0,1,7.39,2.35C210.06,161.8,212,166.31,212.19,171.52Zm-40.8,3.55c-.42-10,5.69-19.83,13.34-21.47l1.09-.18h.1l1.81.39c-6.64,5.49-10.86,14.92-10.45,24.94a28.2,28.2,0,0,0,2.44,10.53C175.07,187.52,171.67,182,171.39,175.07Z"/><polygon class="cls-1" points="219.41 206.64 219.42 210.8 230.04 210.12 230.03 205.96 219.41 206.64"/><path class="cls-1" d="M464.71,110.51a4,4,0,0,0-3.37-1.48l-2.8.19L335.39,77.66a3.54,3.54,0,0,0-.47-.07l-.17,0h-.25a5.52,5.52,0,0,0-.58,0L19.64,98.74h0l-.22,0-.1,0a4.65,4.65,0,0,0-4,4.55v0l-.21,69.28a4,4,0,0,0,.13,1l-.06,27.92a4,4,0,0,0,3.77,4l118.66,37.14a4.14,4.14,0,0,0,1.19.18,4,4,0,0,0,1.25-.2,4.06,4.06,0,0,0,2,.57h.19l.12,0,319.15-21.55h0a3.94,3.94,0,0,0,1.64-.37,4,4,0,0,0,2.53-3.7l.25-104.2A4,4,0,0,0,464.71,110.51Zm-318.22,27.8,311.3-21-.23,96.63-311.3,21Zm-3.8-7.76-4.12-1.07-.25,0a3.5,3.5,0,0,0-.45-.07h-.35a3,3,0,0,0-.42,0,.91.91,0,0,0-.23,0L44.55,105.09,334,85.55,433,110.94ZM23.16,198.49l.05-23.79A3.9,3.9,0,0,0,23.6,173h0s0,0,0,0v-.17a2.13,2.13,0,0,0,0-.25c0-.15,0-.3,0-.44s-.06-.25-.09-.37-.07-.25-.12-.37a2,2,0,0,0-.11-.26l.14-63.36,111.87,29.49a4,4,0,0,0,2,.52h0l1.29.34-.23,96.4Z"/><path class="cls-1" d="M364.81,153.17a4.93,4.93,0,0,0-1.46-2.87,5.07,5.07,0,0,0-3.73-1.36h0l-108.43,6.62a5.17,5.17,0,0,0-4.87,5.1h0l-.37,58.08a7.23,7.23,0,0,0,5.07,5h.23l108.44-6.61h0a5.19,5.19,0,0,0,4.87-5.11h0l.37-58.07h0A3.67,3.67,0,0,0,364.81,153.17Zm-111.22,9.58,104-6.35-.34,53.51-104,6.34Z"/><path class="cls-1" d="M137.42,215.18l-.37-.38a.13.13,0,0,0-.2,0,.14.14,0,0,0,0,.2l.37.38a.12.12,0,0,0,.1.05.18.18,0,0,0,.1,0A.15.15,0,0,0,137.42,215.18Z"/><path class="cls-1" d="M270.56,146.05l-5.44.32a3.56,3.56,0,0,0-3.42,3.46,3.2,3.2,0,0,0,1,2.39,3.51,3.51,0,0,0,2.42.95h.22l5.44-.32a3.57,3.57,0,0,0,3.42-3.45,3.28,3.28,0,0,0-1-2.4,3.54,3.54,0,0,0-2.17-.93A2.43,2.43,0,0,0,270.56,146.05Z"/><path class="cls-1" d="M250.79,146h.33l105.71-8,.19,0a4.84,4.84,0,0,0,4.3-4.79,4.54,4.54,0,0,0-1.41-3.34A4.42,4.42,0,0,0,357,128.6h-.12c-.11,0-.22,0-.33,0h0l-105.71,8-.18,0a4.84,4.84,0,0,0-4.31,4.78,4.56,4.56,0,0,0,1.41,3.34A4.45,4.45,0,0,0,250.79,146Z"/><path class="cls-1" d="M402.36,194.09a4.31,4.31,0,1,0,3.73,4.27A4,4,0,0,0,402.36,194.09Z"/><ellipse class="cls-1" cx="412.97" cy="197.92" rx="3.73" ry="4.27"/><ellipse class="cls-1" cx="423.58" cy="197.48" rx="3.73" ry="4.27"/><ellipse class="cls-1" cx="434.19" cy="197.03" rx="3.73" ry="4.27"/><ellipse class="cls-1" cx="175.97" cy="213.02" rx="3.73" ry="4.27"/><path class="cls-1" d="M186.58,208.31a4.31,4.31,0,1,0,3.74,4.27A4,4,0,0,0,186.58,208.31Z"/><ellipse class="cls-1" cx="197.19" cy="212.14" rx="3.73" ry="4.27"/><ellipse class="cls-1" cx="207.8" cy="211.69" rx="3.73" ry="4.27"/></g></svg>