<svg id="Artwork" xmlns="http://www.w3.org/2000/svg" viewBox="0 0 480 320"><defs><style>.cls-1{fill:#000;}</style></defs><g id="PRODUCT_ICON" data-name="PRODUCT ICON"><path class="cls-1" d="M17.65,115.21c1,23.78,1.14,24.47,1.22,24.84a7.09,7.09,0,0,0,.95,2.47c2,3.21,81.39,130.13,82.14,131.33a7.75,7.75,0,0,0,2,2.19l.17,1.5,3.77-.2h0c.5,0,2-.11,7.5-.47,1.5,2.26,3.46,5.19,4.14,6a6.37,6.37,0,0,0,4.94,2.17,7.37,7.37,0,0,0,1.32-.12l.24-.05,99.39-25c30.34-6.26,67.82-15.19,110.34-27.74,50.51-12.69,90.37-22.72,91-22.89a9.26,9.26,0,0,0,4.35-2.47l.36-.4,3.73-7.32c14.85-5.15,24.08-9.49,24.48-9.68l2.15-1L462,186c1.48-25.43-1.29-30.59-4-33.43-1.83-1.95-68-76.84-102.76-116.16l-.8-.9-1.15-.31c-7-1.9-67.84,8.27-122.63,19.21C184,63.71,95.09,82.83,24.17,106.23,18.44,108.12,17.37,112.74,17.65,115.21Zm359-42.44c-13.56,1.54-44.39,5.48-87.7,13.73A1822.42,1822.42,0,0,0,50.37,149.67l-23.21-36C97,90.66,184.48,71.8,230.48,62.59,298.61,49,342,42.88,350.27,42.88h0ZM207.05,255.37c-50.47,9.68-84.86,12.84-95.86,13.68-.25-2.37-.6-5.59-.94-8.9,192.22-42,305.53-72.64,344.09-84.64,0,2.21-.1,4.68-.23,7.47-43.05,17-83.66,30.58-120.47,41.45l-110,27.62Q215,253.88,207.05,255.37Zm-97.77-12c153.27-55.48,321-80.48,343.72-83.79a29.58,29.58,0,0,1,1.19,7.53c-36.05,11.42-149.47,42.29-344.73,85-.26-2.74-.5-5-.5-6.27a6,6,0,0,1,.29-2.5ZM82.1,198.86c106.09-35.41,191.78-55.1,245.28-65.41,50.77-9.78,82.64-13.17,90.64-13.92,12.3,13.9,23.12,26.11,29.12,32.9-35.82,5.28-195,30.62-341.1,83.56ZM54.84,156.61A1818.12,1818.12,0,0,1,290.46,94.39c51-9.7,84.49-13.4,92.74-14.23l28.32,32c-13.25,1.44-42.84,5.19-85.63,13.44C271.83,136,185.05,155.92,77.64,191.92ZM26.71,138.45c-.09-1.33-.32-6.18-.56-11.61l75,116.3a16.72,16.72,0,0,0-.15,3c.09,2.25.59,7.55,1.14,12.91C83.43,229.18,30.94,145.25,26.71,138.45Z"/></g></svg>