<svg id="Artwork" xmlns="http://www.w3.org/2000/svg" viewBox="0 0 480 320"><defs><style>.cls-1{fill:#000;}</style></defs><path class="cls-1" d="M467.78,148.92l-.67-14.8a5.48,5.48,0,0,0-.39-1.63,4,4,0,0,0-2.35-3.1l-108.07-49a5.39,5.39,0,0,0-2.33-.49L16.18,83.65h-.1l-.3,0-.3,0a1.1,1.1,0,0,0-.26.06,3,3,0,0,0-.32.09l-.12,0-.12.06-.3.14a1.71,1.71,0,0,0-.23.13c-.09,0-.18.12-.27.18l-.21.16a2.39,2.39,0,0,0-.23.22l-.18.18a2.65,2.65,0,0,0-.21.26l-.15.2c-.06.09-.11.19-.16.28l-.13.24a.16.16,0,0,1,0,.07c0,.08-.05.15-.07.22a2.77,2.77,0,0,0-.1.26c0,.11-.05.22-.07.32a2.38,2.38,0,0,0-.05.26c0,.12,0,.24,0,.36s0,.13,0,.19v87.61a4,4,0,0,0,.83,2.43l45.19,58.74a5.06,5.06,0,0,0,.92,1.24,5.18,5.18,0,0,0,3.58,1.46h.17l398-13.44a5.24,5.24,0,0,0,4.59-3,5.18,5.18,0,0,0,.49-1.92l1.11-17.32a3.32,3.32,0,0,0,0-.63c-1.41-14.66-1.14-34.58.71-53.28Zm-9.66,68.85L65.69,231c.08-2,.19-4.15.31-6.23.13-2.35.26-4.74.34-7.07L458.8,207.26Zm1.12-80.57.36,8L66.21,152.34l0-.79-.47-9,40.74-.57ZM333.12,167.49c0,3.7-.05,7.39-.06,11.08s0,7.3,0,11c0,3.33,0,6.66,0,10l-35.51,1-35.24,1-70.36,2q0-10.25,0-20.48v-1q0-10.83,0-21.7,35.34-.62,70.63-1.29l69-1.26,1.63,0Q333.16,162.64,333.12,167.49Zm-149,39.1L66.16,209.74c-.73-11.15-1.1-19.08-1.1-26.49,0-2.57,0-5.08.13-7.64.16-4.68.47-9.54.92-15.27l118-2.14a6.05,6.05,0,0,0-.1,1.06q0,11.42,0,22.81v1q0,10.92,0,21.84A6.23,6.23,0,0,0,184.1,206.59Zm156.64-4.18a6.1,6.1,0,0,0,.23-1.66c0-3.73,0-7.47,0-11.2s0-7.29,0-11,0-7.37.06-11.06,0-7.4.05-11.11a5.67,5.67,0,0,0-.1-1.09l118.32-2.16a302.3,302.3,0,0,0-.65,46.08Zm103.57-73.1L107.75,134l-43.57.59-39-43,326.13-2.69a5,5,0,0,1,2.07.42ZM20.22,98l37.36,41.19a5.3,5.3,0,0,0,0,.69s0,.08,0,.12l.35,6.75.5,9.58c-.9,10.82-1.36,18.54-1.35,26.9s.45,17.35,1.36,30.7c0,.46,0,.93,0,1.39s0,.64,0,1q0,.75-.06,1.5l0,.9c0,.58-.06,1.15-.1,1.73,0,.24,0,.47,0,.71,0,.6-.07,1.21-.11,1.83V223L20.22,173.9Z"/><path class="cls-1" d="M48.2,159.68c-1.54-.16-2.65,4.69-2.51,10.78s1.51,11.15,3,11.29,2.64-4.69,2.51-10.78S49.71,159.81,48.2,159.68Z"/><path class="cls-1" d="M27.56,138.41a20.13,20.13,0,0,0-.6-4.52c-.46-2.89-1.26-4.9-2.14-5-1.29-.11-2.22,3.95-2.11,9.09s1.26,9.4,2.55,9.51c.85.07,1.56-1.74,1.9-4.48A18.62,18.62,0,0,0,27.56,138.41Z"/><path class="cls-1" d="M322.59,182l-60.16,1.46q-30,.74-60.07,1.47a1,1,0,0,0-1,.91c0,4,0,8,0,12a.92.92,0,0,0,1,.84L262.39,197c20.07-.56,40.07-1.07,60.18-1.63a.92.92,0,0,0,1-.86c0-3.89,0-7.78,0-11.67A.89.89,0,0,0,322.59,182Z"/><path class="cls-1" d="M92.49,192.7A6.5,6.5,0,0,0,86,199a6.11,6.11,0,0,0,6.49,5.91A6.51,6.51,0,0,0,99,198.61,6.1,6.1,0,0,0,92.49,192.7Z"/><path class="cls-1" d="M350.66,172.63a5.08,5.08,0,0,0-5,5,4.79,4.79,0,0,0,5,4.76,5.11,5.11,0,0,0,5-5A4.82,4.82,0,0,0,350.66,172.63Z"/><path class="cls-1" d="M415.89,170.9a5.29,5.29,0,0,0-5.25,5.18,5,5,0,0,0,5.21,4.91,5.35,5.35,0,0,0,5.28-5.18A5,5,0,0,0,415.89,170.9Z"/><path class="cls-1" d="M416.07,166.06a4.58,4.58,0,0,0,4.55-4.43,4.26,4.26,0,0,0-4.49-4.24,4.63,4.63,0,0,0-4.57,4.44A4.29,4.29,0,0,0,416.07,166.06Z"/><path class="cls-1" d="M401,172a4.64,4.64,0,0,0-4.56,4.47,4.27,4.27,0,0,0,4.51,4.22,4.62,4.62,0,0,0,4.54-4.47A4.27,4.27,0,0,0,401,172Z"/><path class="cls-1" d="M431.09,171.28a4.61,4.61,0,0,0-4.58,4.44,4.28,4.28,0,0,0,4.54,4.18,4.57,4.57,0,0,0,4.53-4.42A4.25,4.25,0,0,0,431.09,171.28Z"/><path class="cls-1" d="M416,185.83a4.68,4.68,0,0,0-4.6,4.47,4.26,4.26,0,0,0,4.53,4.2,4.61,4.61,0,0,0,4.54-4.46A4.27,4.27,0,0,0,416,185.83Z"/><path class="cls-1" d="M416.05,217a4,4,0,0,0,3.88-3.8,3.61,3.61,0,0,0-3.82-3.56,4,4,0,0,0-3.89,3.83A3.57,3.57,0,0,0,416.05,217Z"/><path class="cls-1" d="M344.86,217.44l11.2-.34a.38.38,0,0,0,.36-.33v-3.6a.33.33,0,0,0-.36-.31c-3.75.13-7.49.24-11.2.35a.33.33,0,0,0-.35.34v3.58A.33.33,0,0,0,344.86,217.44Z"/></svg>