<svg id="Artwork" xmlns="http://www.w3.org/2000/svg" viewBox="0 0 480 320"><defs><style>.cls-1{fill:#000;}</style></defs><path class="cls-1" d="M450.83,141.81l-.15-.09L348.58,97.19a12.35,12.35,0,0,0-5-1L29.75,98.75h-.11l-.29,0-.3,0a1.31,1.31,0,0,0-.27.06l-.31.09-.12,0-.13.06-.29.14a1.71,1.71,0,0,0-.23.13,1.59,1.59,0,0,0-.27.18l-.21.16L27,99.9l-.19.19c-.07.08-.13.17-.19.25a1.77,1.77,0,0,0-.16.22,2.26,2.26,0,0,0-.16.26c0,.09-.09.17-.13.26a.43.43,0,0,0,0,.07,1.18,1.18,0,0,0-.07.2,2.31,2.31,0,0,0-.1.28,2.82,2.82,0,0,0-.07.31,2,2,0,0,0-.05.26c0,.12,0,.24,0,.36s0,.13,0,.19v60.89a4,4,0,0,0,.85,2.47l42.93,54.58a5.35,5.35,0,0,0,1.17,1.73,5.14,5.14,0,0,0,3.55,1.44h.16l373.69-12.62a5.22,5.22,0,0,0,5-5.07l1.06-59.55A5.12,5.12,0,0,0,450.83,141.81ZM347.5,105.08l83.12,36.56-353.25,4.9-2.45,0L38.75,106.68l304.33-2.51A10.83,10.83,0,0,1,347.5,105.08Zm-313.71,8,35.38,39v55.11l-35.38-45Zm411.41,90.2-368,12.44V154.54l369-5Z"/><path class="cls-1" d="M59.81,160.76c-1.44,0-2.48,4.63-2.35,10.35s1.41,10.35,2.83,10.35,2.49-4.63,2.36-10.35S61.23,160.76,59.81,160.76Z"/><path class="cls-1" d="M37.86,133.86c-1.21,0-2.09,3.91-2,8.71s1.19,8.72,2.4,8.72,2.09-3.9,2-8.72S39.07,133.86,37.86,133.86Z"/><path class="cls-1" d="M101.57,205.88c3.44-.11,6.22-3.41,6.22-7.33s-2.78-7.05-6.22-7-6.26,3.38-6.26,7.33S98.1,206,101.57,205.88Z"/><path class="cls-1" d="M346,170.38a6.57,6.57,0,0,0,6.23-6.66A6.27,6.27,0,0,0,346,157.3a6.57,6.57,0,0,0-6.24,6.69A6.22,6.22,0,0,0,346,170.38Z"/><path class="cls-1" d="M411.73,167.38a5.87,5.87,0,0,0,5.67-5.93,5.63,5.63,0,0,0-5.67-5.72,5.9,5.9,0,0,0-5.69,5.94A5.6,5.6,0,0,0,411.73,167.38Z"/><path class="cls-1" d="M411.73,183a5.91,5.91,0,0,0,5.67-6,5.59,5.59,0,0,0-5.67-5.69,5.93,5.93,0,0,0-5.69,6A5.57,5.57,0,0,0,411.73,183Z"/><path class="cls-1" d="M396.1,183.48a6,6,0,0,0,5.69-6,5.62,5.62,0,0,0-5.69-5.72,6,6,0,0,0-5.72,6A5.63,5.63,0,0,0,396.1,183.48Z"/><path class="cls-1" d="M427.22,182.63a5.91,5.91,0,0,0,5.67-5.93,5.56,5.56,0,0,0-5.67-5.65A5.94,5.94,0,0,0,421.5,177,5.57,5.57,0,0,0,427.22,182.63Z"/><path class="cls-1" d="M411.73,198.65a6,6,0,0,0,5.67-6,5.54,5.54,0,0,0-5.67-5.64,6,6,0,0,0-5.69,6A5.56,5.56,0,0,0,411.73,198.65Z"/><path class="cls-1" d="M340.66,199.41c5.74-.22,11.48-.43,17.25-.61a1.18,1.18,0,0,0,1.11-1.21v-6.24a1.12,1.12,0,0,0-1.11-1.14c-5.77.18-11.51.39-17.25.57a1.19,1.19,0,0,0-1.15,1.21v6.28A1.13,1.13,0,0,0,340.66,199.41Z"/><path class="cls-1" d="M198.43,209.27h.17l63.18-2.14,30.54-1L325,205a5.26,5.26,0,0,0,5-5.24v-40.5a5.18,5.18,0,0,0-5.21-5.18h0q-16.11.27-32.21.57l-31.05.55-31.58.56-31.57.56a4.18,4.18,0,0,0-.51.06c-.18,0-.35,0-.52.05l-.33.11a4.52,4.52,0,0,0-.62.21l-.19.1a5.29,5.29,0,0,0-2.82,3.69,5.36,5.36,0,0,0-.1,1.06v42.48a5.3,5.3,0,0,0,1.59,3.79A5,5,0,0,0,198.43,209.27ZM292,198.09l-30.54,1-60.17,2V178.29l17-.39q21.7-.5,43.41-1L322,175.54v21.52Zm-61.91-34.36,31.58-.56,31.06-.55L322,162.1v5.44l-60.49,1.38-43.41,1-16.81.38v-6Z"/></svg>