<?xml version="1.0" encoding="UTF-8"?><svg id="Layer_5" xmlns="http://www.w3.org/2000/svg" viewBox="0 0 480 320"><defs><style>.cls-1{fill:#000;}</style></defs><path class="cls-1" d="M408.04,218.58c-.12-.1-.27-.23-.53-.39v-2.99c1.03-.67,1.75-1.42,1.99-1.69l1.08-1.2-1.57-43.35h-.17c.01-.49-.03-1-.19-1.49-.2-.61-.8-2.45-4.43-3.95l-55.23-18.52-.34-.1c-.26-.06-6.49-1.54-10.16-1.83-3.04-.24-14.92-.29-16.26-.29h-.16s-228.52,17.68-228.52,17.68l-2.68-111.02s.34-6.21-5.37-6.21-5.31,6.21-5.31,6.21l-1.38,112.63c-2.5,.58-5.05,1.47-6.58,2.83-.66,.59-1.12,1.29-1.37,2.08-.16,.49-.22,1.01-.2,1.54l-1.23,43.78,1.3,1.23c.36,.34,.99,.9,1.66,1.35,0,1.15-.02,2.15-.02,3.03-.48,.36-.95,.79-1.34,1.31-.45,.6-1.03,1.65-.93,3.82,.36,7.74,.94,20.4,.95,21.36-.04,3.72,3.09,4.98,5.38,5.89,4,1.6,47.09,19.14,47.52,19.32l.25,.09c.76,.25,4.63,1.52,6.33,1.85,2.05,.39,8.33,1.14,9.42,1.15h.12c2.25,.03,6.43,.07,10.21,.07,2.5,0,4.83-.02,6.29-.07,3.59-.13,13.99-1.09,14.41-1.13l227.15-19.8c.28-.02,2.81-.2,5.25-.95,3.53-1.09,4.93-3.13,5.27-3.73l.5-.87,.75-23.78-.06-.37c-.16-1.03-.6-2.48-1.77-3.48Zm-327.69-.4l43.78,17.48,.34,.12c.3,.09,7.51,2.21,17.29,2.6,1.88,.07,3.69,.1,5.39,.1,7.16,0,12.42-.54,13.06-.6l237.65-19.99h.14c.16-.03,.72-.11,1.51-.23v2.44c-2.8,.53-6.59,1.07-7.26,1.17l-232.74,19.6c-.99,.04-10,.37-18.18,.37-7.74,0-12.95-1.88-12.96-1.88l-48.02-19.05c0-.62,0-1.35,0-2.12Zm320.88-43.11l1.22,33.71c-1.55,.54-3.97,.97-5.34,1.15l-237.72,19.99c-.08,0-7.85,.84-17.31,.46-7.99-.32-14.15-1.94-15.17-2.23l-47.57-18.99-.12-.05c-.59-.21-1.21-.45-1.7-.63l.95-33.76,46.89,17.93,.18,.06c.22,.07,5.47,1.79,9.74,2.16,3.6,.31,7.79,.41,11.66,.41,6.41,0,11.91-.27,12.28-.29l236.06-19.17c1.89-.1,3.99-.32,5.97-.76Zm-78.88-24.29c3.69,.01,13.21,.09,15.5,.27,2.45,.19,7,1.18,8.76,1.6l45.91,15.39-233.78,18.99c-.99,.05-14.07,.66-22.78-.1-3.09-.27-7.23-1.56-7.86-1.77l-42.06-16.08,236.3-18.29Zm78.63,92.39c-1.56,.48-3.4,.61-3.49,.62l-227.26,19.81c-.11,0-10.61,.98-13.99,1.1-3.6,.13-13.25,.03-16.12,0h-.04c-.8-.04-6.25-.66-8.07-1.01-.86-.17-3.51-.99-5.21-1.54-2.61-1.06-43.52-17.72-47.44-19.28-.15-.06-.28-.11-.41-.17-.12-3.12-.41-9.57-.64-14.58l47.17,18.71c.26,.1,6.53,2.42,15.84,2.42,8.78,0,18.48-.37,18.58-.38l233.12-19.63,.22-.02c.21-.03,5.12-.72,8.43-1.38,0,0,0,0,.01,0l-.48,15.27c-.07,.03-.14,.05-.23,.08Z"/><path class="cls-1" d="M273.94,209.58c3.11,0,5.64-2.61,5.64-5.83s-2.53-5.83-5.64-5.83-5.64,2.61-5.64,5.83,2.53,5.83,5.64,5.83Z"/></svg>