<svg xmlns="http://www.w3.org/2000/svg" viewBox="0 0 480 320"><defs><style>.cls-1{fill:#000;}</style></defs><g id="Layer_1" data-name="Layer 1"><path class="cls-1" d="M330.17,39,304.69,31.5c-8.32-2.43-15.9-4.6-24.44-6.41l-13.31-2.81a9,9,0,0,0-2.37-.27l-115,2.58-.06,0-1.32.07a7,7,0,0,0-6.61,7V264.48c0,1.73.84,3.23,3.61,6.42,5.53,6.38,21.75,21.74,52.93,26.79a8.93,8.93,0,0,0,2.31.3h.34l129-4.93a9,9,0,0,0,8.66-9V47.93A9,9,0,0,0,330.17,39ZM264.75,30a1.33,1.33,0,0,1,.28,0l13.56,2.88c8.28,1.75,15.4,3.78,23.85,6.26l1,.28c-34.92.72-93.66,1.95-102.58,2.19l-16.13-1.43a51.55,51.55,0,0,1-23.31-7.89ZM151.22,265.66c-.92-1.05-1.4-1.69-1.66-2.05V34.17l5.68,3.73c9.36,6.16,18.51,9.43,28.76,10.29l12.43,1.1v240C169.78,284.21,156,271.18,151.22,265.66Zm179.22,18.4a1,1,0,0,1-1,1l-125,4.78V49.56C227,49,326.28,47,329.47,46.93a1,1,0,0,1,1,1Z"/></g></svg>