<?xml version="1.0" encoding="UTF-8"?>
<svg id="Artwork" xmlns="http://www.w3.org/2000/svg" viewBox="0 0 480 320">
  <defs>
    <style>
      .cls-1 {
        fill: #000;
      }
    </style>
  </defs>
  <path class="cls-1" d="m448.98,186.13l-.03-.6-3.99.29,3.98-.35-2.71-31.04-.44.04s0-.07,0-.11l.43-.05-.11-.72-.64-2-1.29-2.17-1.7-1.92-2.56-2.14-2.56-1.68-3.25-1.75-3.97-1.75-.02.05h0s-.82,2.03-.82,2.03l.39-.97.43-1.06h0s.02-.05.02-.05l-135.15-54.01-.02.05h-.03s.02-.07.02-.07l-3.63-1.33-3.23-1.02-4.12-1.1-4.82-1.03-3.61-.6-4.33-.53-4.64-.32-3.24-.06-1.26.02-2.42.11-3,.29-1.96.3-2.73.61-1.54.48h0s0,0,0,0l-.11.04.04.11-.07.02-.04-.11-172.88,61.16h-.18s-14.85-5.95-14.85-5.95l-.11-.63-1.19-2.25-.96.76h-.03s.98-.77.98-.77l-.94-1.18-4.82-83.56c.25-3.85-2.62-7.62-7.3-9.49-3.17-1.27-6.58-1.43-9.37-.44-3.63,1.28-5.7,4.41-5.28,7.87l-.19,82.33-.45.45.45.45v.09s-.5-.49-.5-.49l-1.09,1.56-.52,2.21v.16s2.7-.04,2.7-.04l.02.05-2.71.08.32,11.49h-.05s.1,1.64.1,1.64l.21,1.18.71,1.57,3.34,3.14,3.44,1.71,1.5-3.71-1.45,3.73,3.09,1.05,3.38.8,3.36.49,3.21.16,1.67-.05,1.1-.13,10.14,4.05-.67,22.33h-.08s0,.24,0,.24l.06.92.88,2.91.22.33-.17.96.03.78,1.26-.1.02.03-1.27.11,1.36,15.54h-.04s.15,1.27.15,1.27h0s0,.01,0,.01l.03.22.07.43v.05s.65,2,.65,2l1.29,2.17,1.7,1.92,2.56,2.14,2.56,1.68,3.26,1.75,3.77,1.66h0s0,0,0,0l.19.08.04-.1h.02s-.04.11-.04.11l135.15,54.01.04-.1h.02s1.02-2.56,1.02-2.56l-1.04,2.68,3.63,1.33,3.23,1.02,4.12,1.1,4.82,1.03,3.61.6,4.33.53,4.64.32,3.24.06,1.26-.02,2.41-.11,3-.29,1.96-.3,2.72-.61,1.66-.51-.03-.08.07-.02.03.08,177.04-62.64-.03-.08h.02s.03.08.03.08h.01s0,0,0,0l.71-.27,2.08-.98,1.85-1.26,1.14-1.19.22-.2.04-.06.24-.25.58-1.09.42-.68-.04-.02.09-.17h.03s0,0,0,0h0s0,0,0,0c.02-.04.02-.09.04-.13l.05-.1.04-.22c.08-.24.17-.48.22-.73l-.08-.02h0s.08,0,.08,0c.07-.36.11-.73.13-1.09l.02-.1h0s0-.06.01-.09h-.24s.24,0,.24,0l.54-16.37-1.36-.04.03-.03,1.33.03v-.16s-.09-1.26-.09-1.26l-.09-.29.39-.74.51-2.81Zm-9.25,21.24l-.19.19-1.54.89-.75.36h0s-177.01,62.63-177.01,62.63l.03.08h0s-.03-.08-.03-.08l-.11.04-.78.25-2.03.48-2.15.33-2.86.24-2.62.07h-1.13s-3.96-.18-3.96-.18l-4.07-.4-4-.59-4.21-.83-4.06-1.01-3.94-1.2-3.26-1.19-.12-.05-.04.1h0s.04-.1.04-.1l-135.13-54h0s-3.45-1.52-3.45-1.52l-3.1-1.69-2.12-1.47-1.43-1.31-.72-.95-.27-1.42-.89-10.2,142.25,58.53v.79s2.15.01,2.15.01l2,.73,3.43,1.08,4.39,1.17,5.13,1.1,3.85.64,3.1.4,3.51.33,2.94.17,3.44.06,2.65-.06,3.29-.24,2.16-.27,2.04-.36,1.9-.45,1.75-.54-.35-1.05-.02-.21.44,1.24,176.28-62.49-.39,11.97ZM49.75,49.66l-.03-.09.03.09h0Zm1-.06h-.04s.06,0,.06,0h-.02Zm-3.32,5.47h.15s4.51,78.08,4.51,78.08l-1.21.16-2.05-.11-3.23-.56-2.75-.87-1.29-.6-.42-.29.18-76.66,3.22.66,2.9.19Zm13.41,82.99l.03-.07h.07s-.03.07-.03.07h-.07Zm-9.56-88.49l-.11-.02.12.02h0Zm-13.94-2.27h0,.02s-.02,0-.02,0Zm1.89,93.72l.73-1.79h.01s-.74,1.9-.74,1.9v-.11Zm15.92,7.89l-.14-.84.14-.65.65-1.31.84-.96.99-.66.73-.2.17.04,9.24,3.69-1.04,1.17-.96,1.91-.37,1.92-10.25-4.1Zm13.37,4.49h-.68s-.49-.01-.49-.01l-.18-.05h.46s.88.06.88.06Zm7.65-1.18l176.98-62.62,1.78-.52,2.17-.42,2.61-.3,3.8-.16,2.85.05,3.76.25,4.3.52,3.28.55,3.96.84,4.13,1.09,2.88.91,3.25,1.2,135.11,53.99h0s.12.05.12.05h0s3.19,1.41,3.19,1.41l2.91,1.57,2.13,1.44,1.4,1.22.79.96.17.4-2.32,1.3-176.95,62.61-1.78.52-2.17.42-2.61.3-3.81.16-2.85-.05-3.75-.25-4.31-.52-3.28-.55-3.95-.83-4.13-1.09-2.88-.91-3.25-1.2-135.12-53.99-3.22-1.41-2.94-1.58-2.15-1.45-1.41-1.23-.8-.97-.18-.41,1.53-.99v-.03s.03-.03.03-.03v.03s0-.03,0-.03l.15-.09.02.05-.02-.06.12-.07.03.07-.03-.08.12-.07.04.09-.03-.1.07-.04h0s.08-.03.08-.03l.04.11-.04-.11h.02s.04.1.04.1l.07-.03-.04-.11h.02s.04.1.04.1Zm-2.45,12.35l3.44,1.89,4.2,1.86.15-.38h.02s-.15.39-.15.39l135.15,54.01.15-.37h.03s-.15.39-.15.39l3.64,1.34,3.24,1.02,4.15,1.11,4.85,1.04,3.64.61,4.36.53,4.67.33,3.25.06,1.27-.02,2.43-.11,3.01-.29,1.97-.3,2.72-.61,1.66-.51-.16-.47.06-.02.17.47,177.04-62.64-.17-.48h.02s.17.47.17.47l.51-.19,1.96,22.41h0s0,.01,0,.01l-1.23.94-178.51,63.28-1.95.57-2.36.46-2.84.33-4.12.17-3.08-.06-4.05-.27-4.66-.56-3.55-.59-4.27-.9-4.46-1.18-3.12-.98-3.5-1.29-145.27-59.77-.39-.35-1.07-1.34-.14-.36.6-20.08.68.46Zm188.82,89.54l.22.61h-.01s-.2-.61-.2-.61Zm-45.05-3.54l.35-.84-.33.84h-.02Zm224.8-95.81h-.01s0,0,0,0h0Zm-407.9-22.75l.14.14h-.06s-.15-.14-.15-.14h.06Zm10.51,16.61l-2.81-.93-.98-.42-1.73-1.01-.11-3.87,2.35.81,3.59.87,2.53.35-.47,1.51-.3,2.61.04.26h-.02s.02.24.02.24l-2.13-.42Z"/>
  <path class="cls-1" d="m344.62,213.39c.91.6,1.95.9,3.04.9.84,0,1.7-.18,2.55-.54,2.83-1.21,4.88-4.2,4.87-7.13,0-1.95-.89-3.65-2.43-4.67-1.6-1.06-3.64-1.19-5.59-.36-2.83,1.21-4.87,4.2-4.87,7.12,0,1.95.89,3.65,2.43,4.67Z"/>
</svg>