<svg xmlns="http://www.w3.org/2000/svg" viewBox="0 0 480 320"><defs><style>.cls-1{fill:#000;}</style></defs><g id="Layer_1" data-name="Layer 1"><path class="cls-1" d="M447.3,128.79c-1.34-8-3.49-10.94-5.05-12l-.55-.37L266.08,69.18,38.19,95.54l-.86.1-.74.45c-2.05,1.23-5.28,5.43-3.92,19.77,1.33,14,4,41.57,4,41.57l.18,1.86,134,91.53L436,184.54l3.1-.78-.07-3.19c0-.14-.28-14.35,2.76-22.84C445.1,148.49,448.84,138,447.3,128.79ZM422,119.43l-251.37,47L51.69,102,265.47,77.31ZM40.64,115.1a41.89,41.89,0,0,1,0-10l123.56,66.94c-2.31,4.72-4.4,13.68-1.78,29.85,2.41,14.85,3.85,28.33,4.6,36.55L44.45,154.8C43.83,148.37,41.76,126.88,40.64,115.1ZM434.26,155c-2.59,7.26-3.12,17.38-3.21,22.49L175.29,241.47c-.63-7.57-2.14-23.27-5-40.83-2.81-17.34.49-24.3,1.81-26.29L438,124.58a29.22,29.22,0,0,1,1.38,5.52C440.6,137.29,437.09,147.13,434.26,155Z"/><polygon class="cls-1" points="362.6 147.07 286.04 163.43 285.05 174.37 360.87 157.79 362.6 147.07"/><polygon class="cls-1" points="285.06 206.43 360.88 188.86 362.62 178.14 286.06 195.5 285.06 206.43"/></g></svg>