<svg xmlns="http://www.w3.org/2000/svg" viewBox="0 0 480 320"><defs><style>.cls-1{fill:#000;}</style></defs><g id="Layer_4" data-name="Layer 4"><path class="cls-1" d="M441.59,117.5a12.42,12.42,0,0,0-13.22-12.22l-4.57.3h0L291.46,83.19a12.5,12.5,0,0,0-11-5.27L48.32,93A12.42,12.42,0,0,0,36.71,105.5l1,97.5A12.42,12.42,0,0,0,51,215.26l2.89-.19,137.36,25.51a12.52,12.52,0,0,0,6.85,2.06c.26,0,.52,0,.79,0l232.48-15h0A12.4,12.4,0,0,0,442.94,215ZM281,85.9a4.43,4.43,0,0,1,4.3,2.58l.88,1.93,103,17.42L202,120v-.07L79.14,99ZM185.23,192.47,45.37,167.35l-.17-15.82,139.86,25.6ZM185,169,45.11,143.39l-.2-19L184.77,150ZM45.46,175.49l139.85,25.12.15,13.41L45.59,188.42Zm1.37-73.87L187,125.46a12.44,12.44,0,0,0-2.36,7.4l.1,8.95L44.82,116.21l-.11-10.79A4.39,4.39,0,0,1,46.83,101.62Zm3.62,105.65a4.4,4.4,0,0,1-4.7-4.35l-.07-6.35,139.86,25.6.09,8.19c0,.36,0,.71.07,1.06L54.33,207ZM430.81,219.6l-232.48,15a4.41,4.41,0,0,1-4.7-4.36l-1-97.5a4.41,4.41,0,0,1,4.13-4.45l232.17-15.06h.3a4.41,4.41,0,0,1,4.4,4.35l1.35,97.52A4.4,4.4,0,0,1,430.81,219.6Z"/><path class="cls-1" d="M352,137.21l-79.11,5.24a4.74,4.74,0,0,0-4.43,4.73v19.16a4.74,4.74,0,0,0,5.06,4.73l79.11-5.24A4.74,4.74,0,0,0,357,161.1V141.94A4.74,4.74,0,0,0,352,137.21Z"/><ellipse class="cls-1" cx="424.11" cy="185.41" rx="5.47" ry="6.28" transform="translate(-6.15 14.76) rotate(-1.98)"/><ellipse class="cls-1" cx="404.57" cy="187.69" rx="5.47" ry="6.28" transform="translate(-6.24 14.09) rotate(-1.98)"/><path class="cls-1" d="M381.36,184c-3,.22-5.28,3.21-5.05,6.67s2.85,6.09,5.86,5.87,5.28-3.22,5.05-6.68S384.37,183.8,381.36,184Z"/><polygon class="cls-1" points="211.41 208.86 241.7 206.26 241.7 191.93 211.41 194.53 211.41 208.86"/></g></svg>