<?xml version="1.0" encoding="UTF-8"?><svg id="Artwork" xmlns="http://www.w3.org/2000/svg" viewBox="0 0 480 320"><defs><style>.cls-1{fill:#000;}</style></defs><path class="cls-1" d="M457.72,146.03c-.04-3.07-1.33-5.81-3.54-7.51-.51-.39-1.06-.72-1.64-.99v-.03s-.73-.25-.73-.25c-.1-.04-.2-.07-.31-.1l-146.02-49.37-.38-.11c-2.91-.67-6-.72-8.93-.12l-52,8.63,15.25-57.72c.58-1.97-.47-3.59-2.34-3.59-1.87,0-3.88,1.6-4.46,3.57l-19.46,59.57-52.19,8.66c-.04-.09-.09-.19-.16-.28l-40.58-52.07c-1.21-1.65-3.95-2.89-6.09-2.76-2.14,.13-2.9,1.59-1.69,3.24l36.12,52.35c.35,.48,1.02,.91,1.84,1.27L29.19,131.85l-.15,.03c-4.28,.88-7.38,4.69-7.38,9.14l1,49.95c0,5.36,2.42,10.34,6.69,13.67l103.95,79.17,.23-.31c1.47,1.07,3.23,1.64,5.06,1.64,.75,0,1.5-.09,2.26-.28l308.53-76.31h0c5.09-1.27,9.03-6.58,8.96-12.09l-.62-50.42Zm-160.17-50.61l.15-.03c1.77-.37,3.64-.36,5.41,.03l131.13,44.33L139.24,204.32l-.11,.03c-1.35,.34-2.61,.96-3.74,1.79L33.43,139.26l264.12-43.83ZM30.65,190.89l-.89-44.47,100.97,66.23c-.38,1.2-.59,2.45-.57,3.71l-.35,54.74L34.23,198.3c-2.27-1.77-3.58-4.45-3.58-7.41Zm416.8,9.89l-308.53,76.31c-.31,.08-.55,.06-.7-.05-.2-.16-.42-.57-.43-1.2l.38-59.5c-.02-1.95,1.5-3.85,2.85-4.22l307.46-67.29,.11-.03c.31-.08,.55-.06,.7,.06,.2,.16,.42,.57,.43,1.28l.62,50.42c.03,1.97-1.54,3.89-2.89,4.23Z"/><path class="cls-1" d="M191.63,229.68c-1.77,.41-3.19,2.36-3.17,4.35,.02,1.99,1.47,3.26,3.25,2.85s3.19-2.36,3.17-4.35c-.02-1.99-1.47-3.26-3.25-2.85Z"/><path class="cls-1" d="M217.54,223.1c-1.77,.41-3.19,2.36-3.17,4.35,.02,1.99,1.47,3.26,3.25,2.85s3.19-2.36,3.17-4.35-1.47-3.26-3.25-2.85Z"/><path class="cls-1" d="M191.57,224.04c1.14-.27,2.06-1.53,2.05-2.81-.01-1.28-.95-2.11-2.1-1.84-1.14,.27-2.06,1.53-2.05,2.81,.01,1.28,.95,2.11,2.1,1.84Z"/><path class="cls-1" d="M352.06,183.3l-110.66,25.89c-2.53,.59-4.58,3.4-4.55,6.24l.15,14.03c.03,2.84,2.13,4.68,4.66,4.09l110.66-25.89c2.53-.59,4.58-3.4,4.55-6.25l-.15-14.03c-.03-2.84-2.13-4.68-4.66-4.09Z"/><path class="cls-1" d="M368.67,185.61c1.77-.41,3.19-2.36,3.17-4.35-.02-1.99-1.47-3.26-3.25-2.85s-3.19,2.36-3.17,4.35c.02,1.99,1.47,3.26,3.25,2.85Z"/><path class="cls-1" d="M368.79,196.17c-1.77,.41-3.19,2.36-3.17,4.35,.02,1.99,1.47,3.26,3.25,2.85,1.77-.41,3.19-2.36,3.17-4.35s-1.47-3.26-3.25-2.85Z"/><path class="cls-1" d="M435.72,187.77c.05-3.86-2.99-6.24-6.8-5.33-3.81,.91-6.94,4.78-7,8.63-.03,2.21,.96,3.94,2.53,4.84l-.03,2.35-2.04,.49c-.31,.07-.57,.39-.57,.71s.24,.51,.56,.44l2.6-.62h0c.31-.08,.57-.39,.57-.71l.03-2.18c.94,.27,2.01,.29,3.16,.02,1.15-.28,2.22-.81,3.18-1.54l-.03,2.19c0,.32,.24,.51,.56,.44h0s2.6-.62,2.6-.62c.31-.07,.57-.39,.57-.71,0-.32-.24-.51-.56-.44l-2.04,.49,.03-2.36c1.61-1.66,2.64-3.86,2.67-6.08Zm-3.79,5.69c-.92,.84-2.01,1.45-3.19,1.74-1.18,.28-2.25,.19-3.15-.21l.07-5.2,6.34-1.52-.07,5.19Zm.65-6.47l-7.47,1.79c-.31,.07-.56,.38-.57,.69v.98s-.07,3.79-.07,3.79c0,0,0,0,0,0h0c-.87-.81-1.38-2.01-1.36-3.47,.04-3.19,2.64-6.39,5.79-7.14,3.15-.76,5.67,1.22,5.63,4.41-.02,1.45-.57,2.91-1.46,4.13l.06-4.19v-.57s0,0,0,0c0-.32-.24-.51-.56-.44Z"/><polygon class="cls-1" points="428.05 186.06 429.68 185.67 428.87 184.51 428.05 186.06"/></svg>