<?xml version="1.0" encoding="UTF-8"?><svg id="Artwork" xmlns="http://www.w3.org/2000/svg" viewBox="0 0 480 320"><defs><style>.cls-1{fill:#000;}</style></defs><path class="cls-1" d="M31.02,123.54v61.1c0,5.09,2.64,8.96,7.07,10.36,1.58,.49,158.93,49.89,163.4,51.29,2.48,.78,5.24,1.16,8.13,1.16s5.74-.37,8.66-1.1l.74-.19c36.08-9.06,216.31-54.31,220.81-55.63,4.62-1.36,9.14-3.24,9.14-9.82v-62.26c0-3.98-3.17-7.46-7.71-8.45l-5.78-1.27c-72.02-15.79-158.63-34.76-162.18-35.46-5.27-1.05-14.34-.87-18.93,0l-8.75,1.63C111.45,99.94,42.31,112.89,40.12,113.37c-5.53,1.22-9.1,5.21-9.1,10.17Zm398.39-7.74c-47.75,10.48-200.69,44.03-206.98,45.19-8.07,1.49-16.74,2.54-25.47,.08L50.09,119.81c17.91-3.38,69.48-13.04,197.04-36.85l8.75-1.63c3.68-.69,11.7-.83,15.82,0,1.56,.31,24.25,5.23,157.7,34.48ZM39.22,184.64v-59.37s155.53,43.7,155.53,43.7c4.6,1.29,9.09,1.78,13.45,1.78,5.45,0,10.71-.77,15.73-1.7,7.03-1.3,185.23-40.41,216.85-47.35v59.02c0,.39-.03,.61-.05,.72-.22,.17-.94,.57-3.2,1.24-3.37,.99-120.88,30.54-220.49,55.55l-.74,.19c-4.49,1.13-8.88,1.15-12.35,.06-4.47-1.4-161.82-50.79-163.39-51.29-.43-.14-1.33-.42-1.33-2.54Z"/><path class="cls-1" d="M251.59,146.41c-1.47,.89-4.19,1-6.07,.24-1.88-.76-2.21-2.09-.73-2.98,1.47-.89,4.19-1,6.07-.24,1.88,.76,2.21,2.09,.73,2.98Z"/><path class="cls-1" d="M236.14,149.83c-1.47,.89-4.19,1-6.07,.24-1.88-.76-2.21-2.09-.73-2.98,1.47-.89,4.19-1,6.07-.24,1.88,.76,2.21,2.09,.73,2.98Z"/><path class="cls-1" d="M218.93,153.39c-1.47,.89-4.19,1-6.07,.24-1.88-.76-2.21-2.09-.73-2.98,1.47-.89,4.19-1,6.07-.24,1.88,.76,2.21,2.09,.73,2.98Z"/><path class="cls-1" d="M112.5,119.45l.35-.07c1.19-.23,1.01-.48-.48-.74-.77-.13-1.81-.27-4.48-.25-2.77,.02-3.61,.19-4.06,.28l-1.52,.3,9.27,1.57,3.44-.66-2.52-.43Z"/><path class="cls-1" d="M136.22,115.8l2.86-.55-4.47-.22c.44-.19-.14-.4-.93-.55-.73-.13-1.73-.27-4.44-.25-2.8,.02-3.66,.19-4.08,.27l-1.58,.31,9.17,1.66,3.46-.67h0Z"/><polygon class="cls-1" points="149.93 109.66 146.26 110.38 155.31 112.13 159 111.42 149.93 109.66"/><polygon class="cls-1" points="180.15 107.38 181.34 107.15 181.74 107.2 181.54 107.12 182.5 106.93 182.44 106.91 185.53 106.31 175.21 104.65 172.04 105.27 173.12 105.7 170.98 105.48 168.26 106.01 176.02 108.14 180.03 107.37 180.15 107.38"/><polygon class="cls-1" points="206.67 101.68 206.95 101.62 208.82 101.84 212.2 101.18 200.03 99.8 197.11 100.37 202.74 103 207.52 102.09 206.67 101.68"/><path class="cls-1" d="M235.74,96.6l.23,.02,3.33-.64-4.73-.29c.65-.23,.22-.52-.55-.7-.72-.18-1.61-.33-4.47-.31-2.72,.02-3.73,.17-4.46,.31l-1.93,.38,8.58,2.07,4.13-.79-.14-.03Z"/><polygon class="cls-1" points="263.66 89.89 263.58 89.91 261.35 89.31 261.43 89.3 258.36 88.48 251.7 89.77 260.07 91.98 266.71 90.7 263.66 89.89"/><path class="cls-1" d="M241.67,127.18l8.53-1.41h.08c1.07-.2,1.1-.51,.06-.72l-7.86-1.53c5.44-.27,10.15-.63,14.03-1.09,4.09-.55,6.15-.99,7.66-1.54l3.06,.66c.52,.11,1.54,.26,4.34,.24,1.27,0,3-.05,4.01-.22l9.17-1.52c.48-.08,.79-.18,.93-.28,.22-.17,.03-.35-.6-.49-.52-.11-1.53-.27-4.35-.25-1.87,.01-3.23,.09-4.05,.22l-4.52,.75-4.73-1.03c1.59-1.88-1.91-4.06-9.13-5.67-5.18-1.24-15.49-1.92-28.27-1.86-10.02,.05-19.4,.56-25.1,1.35-16.42,2.47-16.78,5.77-.97,8.83,4.35,1,16.22,2.01,27.67,2.03l8.39,1.69-6.51,1.09c-1.12,.19-1.16,.5-.07,.71,.31,.06,1.26,.24,4.33,.22,1.25,0,2.94-.05,3.91-.21Zm-.73-11.26l14.98,3.21c-1.31,.97-3.91,1.83-7.77,2.48-3.61,.61-7.23,.89-9.87,1.01l-16.46-3.3,19.12-3.4Zm-26.03,.44l9.73-1.77-12.52-.76c.49-.1,.97-.2,1.52-.3,4.14-.77,9.77-1.25,15.04-1.28,10.16-.06,15.91,.89,20.61,1.93,3.02,.67,5.2,1.44,6.38,2.27l-11.83-2.56-.97,.15c-.49-.01-1.07-.02-1.75-.01-1.9,.01-3.26,.09-4.05,.24l-25.85,4.64c-1.12,.2-1.12,.54,0,.78l13.84,2.75c-3.21-.24-6.96-.64-10.52-1.34-9.63-1.89-13.35-4.87-2.91-7.15l3.28,2.44Z"/></svg>