<?xml version="1.0" encoding="UTF-8"?><svg id="Artwork" xmlns="http://www.w3.org/2000/svg" viewBox="0 0 480 320"><defs><style>.cls-1{fill:#000;}</style></defs><path class="cls-1" d="M457.72,136.02c-.04-3.07-1.33-5.81-3.54-7.51-.51-.39-1.06-.72-1.64-.99v-.03s-.76-.26-.76-.26c-.09-.03-.18-.06-.27-.09l-146.04-49.37-.38-.11c-2.91-.67-6-.72-8.93-.12l-26.1,4.33,9.18-34.77c.36-1.22-.29-2.22-1.45-2.22-1.16,0-2.4,.99-2.76,2.21l-11.73,35.9-33.12,5.5-24.61-31.58c-.75-1.02-2.44-1.78-3.77-1.7-1.32,.08-1.79,.98-1.05,2l22.33,32.35s.07,.06,.1,.09L29.19,121.84l-.15,.03c-4.28,.88-7.38,4.69-7.38,9.14l1,49.95c0,5.36,2.42,10.33,6.69,13.67l103.95,79.17,.23-.31c1.47,1.07,3.23,1.64,5.06,1.64,.75,0,1.5-.09,2.26-.28l308.53-76.31h0c5.09-1.27,9.03-6.58,8.96-12.09l-.62-50.42Zm-160.17-50.61l.15-.03c1.77-.37,3.64-.36,5.41,.03l131.13,44.33L139.24,194.31l-.11,.03c-1.35,.34-2.61,.96-3.74,1.79L33.43,129.24l264.12-43.83ZM30.65,180.88l-.89-44.47,100.97,66.23c-.38,1.2-.59,2.45-.57,3.71l-.34,54.74L34.23,188.29c-2.27-1.78-3.58-4.45-3.58-7.41Zm416.8,9.89l-308.54,76.31c-.32,.08-.55,.06-.7-.05-.2-.16-.42-.57-.43-1.2l.38-59.5c-.02-1.95,1.5-3.85,2.85-4.22l307.46-67.29,.11-.03c.32-.08,.55-.06,.7,.06,.2,.16,.42,.57,.43,1.28l.62,50.42c.03,1.97-1.53,3.88-2.89,4.23Z"/><path class="cls-1" d="M240.36,201.07c-1.77,.41-3.19,2.36-3.17,4.35,.02,1.99,1.47,3.26,3.25,2.85,1.77-.41,3.19-2.36,3.17-4.35s-1.47-3.26-3.25-2.85Z"/><path class="cls-1" d="M225.28,211.49c-1.77,.41-3.19,2.36-3.17,4.35,.02,1.99,1.47,3.26,3.25,2.85,1.77-.41,3.19-2.36,3.17-4.35-.02-1.99-1.47-3.26-3.25-2.85Z"/><path class="cls-1" d="M240.29,213.34c-1.77,.41-3.19,2.36-3.17,4.35,.02,1.99,1.47,3.26,3.25,2.85,1.77-.41,3.19-2.36,3.17-4.35-.02-1.99-1.47-3.26-3.25-2.85Z"/><path class="cls-1" d="M438.06,177.2c.05-3.86-2.99-6.24-6.8-5.33-3.81,.91-6.94,4.78-7,8.63-.03,2.21,.96,3.94,2.53,4.84l-.03,2.35-2.04,.49c-.31,.07-.57,.39-.57,.71s.24,.51,.56,.44l2.6-.62h0c.31-.08,.57-.39,.57-.71l.03-2.18c.94,.27,2.01,.29,3.16,.02,1.15-.28,2.22-.81,3.18-1.54l-.03,2.19c0,.32,.24,.51,.56,.44h0s2.6-.62,2.6-.62c.31-.07,.57-.39,.57-.71s-.24-.51-.56-.44l-2.04,.49,.03-2.36c1.61-1.66,2.64-3.86,2.67-6.08Zm-3.79,5.69c-.92,.84-2.01,1.45-3.19,1.74-1.18,.28-2.25,.19-3.15-.21l.07-5.2,6.34-1.52-.07,5.19Zm.65-6.47l-7.47,1.79c-.31,.07-.56,.38-.57,.69v.98s-.07,3.79-.07,3.79c0,0,0,0,0,0h0c-.87-.81-1.38-2.01-1.36-3.47,.04-3.19,2.64-6.39,5.79-7.14s5.67,1.22,5.63,4.41c-.02,1.45-.57,2.91-1.46,4.13l.06-4.19v-.57s0,0,0,0c0-.32-.24-.51-.56-.44Z"/><path class="cls-1" d="M385.04,167.17c-2.22-1.9-4.88-3.04-7.71-3.36-2.51-1.17-5.31-1.62-8.2-1.23-.86,.12-1.69,.32-2.51,.57-.41,.03-.82,.07-1.23,.17l-145.94,34.15c-4.28,1-7.6,5.49-7.55,10.2l.19,18.5c.03,2.51,1.05,4.74,2.8,6.11,1.18,.93,2.6,1.41,4.1,1.41,.56,0,1.13-.07,1.71-.2l145.94-34.15c.22-.05,.43-.12,.65-.19,.25,.01,.5,.03,.75,.03,.4,0,.8-.02,1.21-.05,1.14,.28,2.31,.44,3.51,.44,.68,0,1.36-.05,2.05-.14,8.89-1.2,15.98-10.05,15.81-19.72-.09-5-2.12-9.57-5.58-12.54Zm-24.5,26.25c-2.87-2.46-4.56-6.32-4.63-10.57-.13-7.69,4.87-14.76,11.49-16.8-5.76,3.44-9.73,10.24-9.61,17.51,.07,4.04,1.43,7.78,3.76,10.64-.35-.24-.69-.5-1.02-.78Zm13.6,1.06c-2.77,.38-5.44-.4-7.5-2.17-2.38-2.04-3.78-5.27-3.84-8.84-.12-7.22,5.03-13.81,11.48-14.68,.46-.06,.91-.09,1.36-.09,1.66,0,3.26,.42,4.67,1.23,.93,1.18,1.66,2.54,2.17,4.02-1.13-.82-2.47-1.3-3.93-1.37-1.47-.82-3.16-1.13-4.89-.9-4.8,.65-8.63,5.42-8.54,10.64,.05,2.7,1.15,5.18,3.02,6.79,1.44,1.23,3.21,1.89,5.09,1.89,.07,0,.13-.01,.2-.01,1.21,.54,2.58,.75,4.03,.56,.36-.05,.71-.13,1.06-.22-1.15,1.24-2.47,2.27-3.9,3.08-.16,.03-.32,.07-.48,.09Zm-5.43-11.24c.01,.81,.13,1.58,.32,2.3-.56-.93-.89-2.06-.91-3.28-.05-2.82,1.45-5.46,3.63-6.78-1.9,1.99-3.09,4.8-3.04,7.75Zm-148.92,46.36c-.93,.22-1.77,.06-2.43-.46-.79-.62-1.25-1.72-1.27-3l-.19-18.5c-.03-2.82,2.01-5.69,4.46-6.27l137.39-32.15c-3.06,3.71-4.93,8.58-4.84,13.68,.09,5.11,2.16,9.78,5.67,12.8,.47,.4,.96,.76,1.46,1.09l-140.26,32.82Z"/></svg>