<svg id="Artwork" xmlns="http://www.w3.org/2000/svg" viewBox="0 0 480 320"><defs><style>.cls-1{fill:#000;}</style></defs><path class="cls-1" d="M455.29,114.85a11.12,11.12,0,0,0-3.44-7.27,11.47,11.47,0,0,0-8.58-2.76c-6,.28-11.7.65-13.79.79l-99-35.31A22.26,22.26,0,0,0,322,69L35.84,80.53a11.55,11.55,0,0,0-11,11.7l1.56,79.41a15.48,15.48,0,0,0,4.86,10.93L88,235.71c0,2.76.47,7.43,3.89,11,2.75,2.91,6.65,4.37,11.61,4.37a28.27,28.27,0,0,0,3.12-.18c16.08-1.75,333.07-21.69,339.85-22.11a6.7,6.7,0,0,0,4.34-1.89c2.09-2,3.17-5.21,3.2-9.61.06-7.63,1.31-101.29,1.32-102.23v-.24ZM322.29,77h.59a14.34,14.34,0,0,1,4.89.85l80.77,28.79-310,14.87a10.4,10.4,0,0,0-6.18,1.76L40.54,88.35ZM36.71,176.73a7.45,7.45,0,0,1-2.33-5.25L32.83,92.81l55,37a21.68,21.68,0,0,0-.78,6.34c.11,8.78.67,63.59.92,88.57ZM446,217.26a9.35,9.35,0,0,1-.55,3.61c-19.95,1.25-323.54,20.35-339.71,22.11-3.83.42-6.53-.16-8-1.72-1.1-1.13-1.64-8.94-1.64-8.94-.19-18.64-.87-86.39-1-96.24,0-2.51.38-4.49,1.17-5.57a2.33,2.33,0,0,1,1.86-1l.15,0,330.11-15.83h0l.44,0,.45,0h0c.66,0,7.32-.49,14.39-.83.84,0,3.38-.16,3.65,2.35C447.24,119.73,446,209.77,446,217.26Z"/><path class="cls-1" d="M145.47,172.61a11.46,11.46,0,1,0,11.46,11.45A11.46,11.46,0,0,0,145.47,172.61Z"/><circle class="cls-1" cx="246.88" cy="173.3" r="6.54"/><path class="cls-1" d="M215.53,176.55a5.09,5.09,0,1,0,5.31,4.85A5.09,5.09,0,0,0,215.53,176.55Z"/><path class="cls-1" d="M187.4,179.87a5.09,5.09,0,1,0,5.31,4.85A5.09,5.09,0,0,0,187.4,179.87Z"/><path class="cls-1" d="M276.7,164.75A5.09,5.09,0,1,0,282,169.6,5.09,5.09,0,0,0,276.7,164.75Z"/><path class="cls-1" d="M377.46,157.05,316.71,159a2.79,2.79,0,0,0-2.71,2.88l.48,15.36a2.78,2.78,0,0,0,2.88,2.69L378.11,178a2.8,2.8,0,0,0,2.7-2.88l-.48-15.35A2.79,2.79,0,0,0,377.46,157.05Z"/></svg>