<svg id="Artwork" xmlns="http://www.w3.org/2000/svg" viewBox="0 0 480 320"><defs><style>.cls-1{fill:#000;fill-rule:evenodd;}.cls-2{fill:none;stroke:#000;stroke-width:8px;}</style></defs><g id="SVGS"><path class="cls-1" d="M456.46,142.72c-.11-24.68-.26-32.82-.41-35.67,0,0,.47-4-5.7-7-2.49-1.19-5.06-2.74-7.57-3.9,0-3.17-2.46-4-8.32-6-3.52-1.22-8.24-2.77-13.71-4.56l-1.16-.38-.24-.07c-1.69-.44-168.58-43.6-200.08-51.3a28.13,28.13,0,0,0-11.59-.4L40.42,62c-7.79.11-9.56,3.85-10,5.47,0,.1-.05.22-.08.35-3.11.45-6,1.64-6.79,4.63a5.07,5.07,0,0,0-.05,2.24c0,2.48,0,10,0,18.55-.12,34.41-.07,38,.09,38.9a6.25,6.25,0,0,1,.08.78c.14,1.92.52,4,3.53,6.28l158.06,121c19.16,14.66,45.44,27.08,61.28,27.08a18.15,18.15,0,0,0,8.35-1.7l199-103.25C456.63,180.89,456.63,180.89,456.46,142.72Zm-17.55-39.54c1.61.73,3.18,1.5,4.6,2.25L252.17,175.75c-11.39,3.13-38.09-4.34-62.24-17.42L45.86,80.24,185.69,147.3c17.14,9,40.55,16.59,54.55,16.59a22.39,22.39,0,0,0,7.19-1ZM209,41.29a20.22,20.22,0,0,1,8.34.28c31.08,7.6,194.46,49.85,199.85,51.24l1,.34c4.35,1.43,9,3,12.57,4.17L245,155.3l-.15,0c-7.17,2.55-33.53-3.65-55.49-15.17L42.55,69.78ZM448.28,176.21,251.21,278.47c-7.8,4-36.79-6-61.09-24.64l-158.06-121-.4-.33a1,1,0,0,0,0-.17A14.12,14.12,0,0,0,31.5,131c-.13-2.39-.05-23.57,0-37.66,0-4.46,0-8.49,0-11.73l154.59,83.79c18.36,9.95,43,19.1,59.75,19.1a31.79,31.79,0,0,0,8.63-1.05l.14,0,193.57-71.14C448.43,126.89,448.67,167,448.28,176.21Z"/><path id="Fill-9" class="cls-1" d="M397,158.62a44.75,44.75,0,0,0,5.35,9.73l-50.63,24.94c-3.65,1.66-6.65-.46-6.65-4.73V178.14c0-4.25,3-9,6.62-10.62L397.26,148s-1.92,5.82-.23,10.59"/><path id="Stroke-13" class="cls-2" d="M414,174.34a23.7,23.7,0,0,1-11.58-6,19.61,19.61,0,0,1-5.85-14.47,23.21,23.21,0,0,1,.36-4.12c1.62-9.33,8.65-16.34,17.07-16.34a16,16,0,0,1,11.62,5.21"/><g id="Group-18"><polyline id="Fill-15" class="cls-1" points="427.82 138.53 427.82 137.91 415.13 133.44"/><polyline id="Stroke-17" class="cls-2" points="427.82 138.53 427.82 137.91 415.13 133.44"/></g><path id="Stroke-27" class="cls-2" d="M443.51,158.62c0,11.3-7.8,20.45-17.43,20.45s-17.43-9.15-17.43-20.45,7.81-20.46,17.43-20.46,17.43,9.16,17.43,20.46Z"/><path class="cls-1" d="M269.16,187.72,265,189.29c-3.37,1.57-4.48,4.72-4.48,9.31v13c0,3.94,2.22,6.12,5.09,4.78l4.15-1.57c3.37-1.57,4.48-4.72,4.48-9.31v-13C274.25,188.56,272,186.38,269.16,187.72Z"/></g></svg>