<svg id="Artwork" xmlns="http://www.w3.org/2000/svg" viewBox="0 0 480 320"><defs><style>.cls-1{fill:#000;fill-rule:evenodd;}</style></defs><g id="SVGS"><path class="cls-1" d="M456.5,142.82c-.11-24.68-.27-32.82-.41-35.67h0s.47-4.13-5.7-7c-2.5-1.16-5.06-2.74-7.57-3.9,0-3.17-2.46-4-8.32-6.05-3.52-1.22-8.24-2.77-13.71-4.56l-1.16-.38-.24-.07c-1.69-.44-168.58-43.6-200.08-51.3a28.14,28.14,0,0,0-11.59-.4L40.46,62.13c-7.8.11-9.57,3.85-10,5.47,0,.1,0,.22-.07.35-3.11.45-6,1.64-6.79,4.63a4.92,4.92,0,0,0-.06,2.24c0,2.48,0,10,0,18.55-.11,34.41-.06,38,.1,38.9.05.3.06.55.08.78.14,1.92.52,4,3.53,6.28l158.06,121c19.16,14.66,45.43,27.08,61.28,27.08a18.15,18.15,0,0,0,8.35-1.7l199-103.25C456.67,181,456.67,181,456.5,142.82ZM439,103.28c1.61.73,3.18,1.5,4.6,2.25L252.21,175.85c-11.39,3.13-38.09-4.34-62.24-17.42L45.9,80.34,185.73,147.4c17.14,9,40.55,16.59,54.55,16.59a22.39,22.39,0,0,0,7.19-1ZM209.07,41.39a20.22,20.22,0,0,1,8.34.28c31.08,7.6,194.46,49.85,199.85,51.24l1,.34c4.35,1.43,9,3,12.57,4.17L245,155.4l-.15,0c-7.17,2.55-33.53-3.65-55.49-15.17L42.59,69.88ZM448.32,176.31,251.25,278.57c-7.8,4.05-36.79-6-61.09-24.64L32.1,133l-.4-.33a1,1,0,0,0,0-.17c0-.36-.06-.85-.15-1.42-.13-2.39-.05-23.57,0-37.66,0-4.46,0-8.49,0-11.73l154.59,83.79c18.36,9.95,43,19.1,59.75,19.1a31.66,31.66,0,0,0,8.62-1.05l.15,0,193.57-71.14C448.46,127,448.71,167.11,448.32,176.31Z"/><path class="cls-1" d="M433.37,126.08l-49.6,19.63a11.28,11.28,0,0,0-6.56,9.66l-.09,34.28c0,3.89,2.94,5.68,6.53,4l49.61-23.32a10.76,10.76,0,0,0,5.49-9l.07-31C438.83,126.79,436.39,124.88,433.37,126.08Z"/><path class="cls-1" d="M269.2,187.82l-4.15,1.57c-3.37,1.57-4.48,4.72-4.48,9.31v13c0,3.94,2.22,6.12,5.09,4.78l4.15-1.57c3.37-1.57,4.47-4.72,4.47-9.31v-13C274.28,188.66,272.07,186.48,269.2,187.82Z"/></g></svg>