<?xml version="1.0" encoding="UTF-8"?><svg id="Artwork" xmlns="http://www.w3.org/2000/svg" viewBox="0 0 480 320"><defs><style>.cls-1{fill:#000;}</style></defs><path class="cls-1" d="M339.15,51.47c-.11-.1-.24-.19-.36-.28l.07-.14-.78-.41c-.74-.51-1.52-.92-2.35-1.23L270.37,15.06c-4.39-2.27-9.31-3.22-14.25-2.77l-109.11,10.33c-5.7,.53-10.1,5.43-10.02,11.12l1.47,196.06c.07,4.85,1.86,9.54,4.99,13.13l49.49,58.99c.63,1.17,1.43,2.23,2.42,3.11,2.05,1.83,4.63,2.8,7.36,2.8,.43,0,.87-.02,1.3-.07l127.32-14.15c6.41-.71,11.4-6.48,11.37-13.11l.3-220.21c-.02-3.42-1.42-6.63-3.86-8.8Zm-82.11-29.4c3.04-.29,6.1,.31,8.79,1.7l50.29,26.43-114.13,11.47h-.05c-1.91,.22-3.7,.89-5.26,1.9l-45.47-31.47,105.84-10.02Zm-108.76,207.63l-1.41-188.66,44.1,30.52c-.26,1.05-.41,2.13-.4,3.25l.88,210.05-40.54-48.32c-1.66-1.91-2.6-4.35-2.63-6.84Zm184.61,50.8c0,1.59-1.25,3.18-2.64,3.33l-127.32,14.15c-.43,.05-.77-.05-1.05-.3-.25-.23-.42-.56-.51-.95h.01s-.03-.04-.03-.04c-.03-.16-.05-.33-.05-.52l-.93-221.41c0-1.58,1.24-3.16,2.62-3.33l128.56-12.92c.16-.02,.29,0,.43,.03l.71,.37c.3,.33,.48,.82,.48,1.38l-.3,220.21Z"/><path class="cls-1" d="M300.58,111.27c-9.49-8.45-21.87-12.32-34.86-10.87h0c-27.23,3.03-49.27,28.84-49.14,57.53,.07,14.59,5.68,27.6,15.8,36.62,8.19,7.29,18.52,11.17,29.55,11.17,1.75,0,3.53-.1,5.31-.3,27.23-3.03,49.27-28.83,49.14-57.53-.07-14.59-5.68-27.6-15.8-36.62Zm-34.42,84.39c-10.19,1.13-19.86-1.87-27.24-8.44-8.02-7.14-12.46-17.56-12.51-29.33-.11-23.83,18.01-45.24,40.4-47.72,10.17-1.13,19.86,1.87,27.24,8.44,8.02,7.14,12.46,17.56,12.52,29.33,.11,23.83-18.01,45.24-40.4,47.72Z"/><path class="cls-1" d="M283.4,228.22c-4.67-4.16-10.74-6.06-17.12-5.35-13.05,1.45-23.62,13.77-23.55,27.46,.03,6.96,2.84,13.44,7.71,17.78,4.03,3.59,9.11,5.5,14.52,5.5,.86,0,1.72-.05,2.6-.15,13.05-1.45,23.62-13.77,23.56-27.46-.03-6.96-2.84-13.44-7.71-17.78Zm-16.93,35.47c-3.57,.4-6.94-.64-9.5-2.92-2.83-2.52-4.41-6.25-4.42-10.49-.04-8.82,6.61-16.74,14.82-17.65h0c.5-.06,.99-.08,1.48-.08,3.01,0,5.82,1.04,8.02,3.01,2.83,2.52,4.41,6.25,4.42,10.49,.04,8.82-6.61,16.74-14.82,17.65Z"/></svg>