<svg xmlns="http://www.w3.org/2000/svg" viewBox="0 0 480 320"><defs><style>.cls-1{fill:#000;}</style></defs><g id="Layer_1" data-name="Layer 1"><path class="cls-1" d="M209.27,98.72V58a3.5,3.5,0,0,0-3.49-3.49,4.55,4.55,0,0,0-.52,0l-13.59,2.06a4.67,4.67,0,0,0-4,4.62V102a3.6,3.6,0,0,0,3.59,3.59,3.48,3.48,0,0,0,.55,0l13.34-2A4.82,4.82,0,0,0,209.27,98.72Zm-17.89,3.14V61.27a1,1,0,0,1,.84-1l13.36-2V98.72a1.14,1.14,0,0,1-1,1.13Z"/><polygon class="cls-1" points="204.71 113.3 204.56 113.18 204.41 113.04 204.27 112.89 204.14 112.75 204.03 112.58 203.91 112.41 203.87 112.43 203.82 112.44 203.78 112.45 203.73 112.47 203.69 112.48 203.64 112.49 203.61 112.5 203.56 112.5 203.56 114.11 203.74 114.07 203.94 114.03 204.13 113.97 204.31 113.9 204.5 113.82 204.68 113.73 204.85 113.63 205.03 113.53 204.86 113.42 204.71 113.3"/><path class="cls-1" d="M210.25,107.65l-.28-.52-.37-.45-.45-.37-.49-.28-.55-.15-.57-.06-.59.07-.58.17-.57.27-.52.37-.47.47-.41.53-.33.59-.24.63-.14.66-.06.65.06.65.14.61.24.57.33.48.41.42.47.32.52.22.57.11H207l.59-.12.57-.22.55-.32.49-.42.45-.5.37-.56.28-.63.2-.64.1-.66v-.65l-.1-.64Zm-1.15,2.06-.1.5-.21.48-.28.43-.35.36-.4.27-.44.17-.44.07-.44,0,.13-.26.12-.26.1-.28.08-.27,0-.28.05-.29,0-.28v-.28l-1.43.21v.14l0,.14,0,.14,0,.15,0,.13,0,.14-.05.14,0,.13-.17-.43-.08-.49,0-.49.13-.5.21-.48.29-.41.37-.35.4-.26.45-.16.44,0,.44.06.4.18.34.26.26.36.19.43.09.48Z"/><path class="cls-1" d="M231.38,53.62v0a.22.22,0,0,0,0-.08h0l-.05-1.12a.88.88,0,0,0,0-.17l-.16-1.09,0-.18-.26-1c0-.06,0-.11,0-.16l-.31-.88s0-.05,0-.08a.36.36,0,0,1,0-.11l-.3-.67a2,2,0,0,0-.13-.25l-.1-.16h0l0-.1a.86.86,0,0,0-.1-.16l-.55-.88-.14-.18-.64-.78-.15-.16-.73-.69a.86.86,0,0,0-.14-.13l-.79-.6-.19-.13-.87-.5-.22-.11-.08,0-.14-.06-35.69-16h0l-5.2-2.33-.08,0-.63-.25-.17-.06-1-.27-.23-.05-1-.14a.86.86,0,0,0-.23,0l-1,0h-.2l-1,.09h-.11l-27.8,4.16-.09,0-1,.2-.2,0-1,.33-.18.07-1,.44-.17.09-.95.56L146,30l-.9.64-.14.11-.86.75a.93.93,0,0,0-.14.14l-.78.83-.09.11-.73.91-.1.14-.65,1a1,1,0,0,1-.08.14l-.55,1-.08.16L140.49,37l-.05.12-.37,1.11a1.21,1.21,0,0,0,0,.18l-.26,1.13,0,.16-.16,1.16a.76.76,0,0,0,0,.15l-.06,1.15V260.23l.06,1.13a1.09,1.09,0,0,0,0,.18l0,.14a1.8,1.8,0,0,0-.93.18l-22.75,11.07a1.85,1.85,0,0,0-1,1.61l-.1,3.3a1.84,1.84,0,0,0,2.13,1.88l3.85-.63.38,4.72a.31.31,0,0,0,.61,0l1.07-5.09c10-1.6,26.1-4.17,30.53-4.72L186.62,289l.23.09.06,0,.38.16.24.08.95.26.21,0,1,.15.21,0H190l.49,6a.3.3,0,0,0,.6,0l1.29-6.12.19,0,25.51-3.81.54,6.76a.31.31,0,0,0,.61,0l1.52-7.23.51-.11.11,0,.2-.05h0l.07,0,.8-.27.14,0,1-.43.18-.1.95-.55.15-.1.9-.65.13-.1.85-.73.12-.12.79-.83.12-.13.71-.91a1.13,1.13,0,0,0,.1-.13l.63-1a.57.57,0,0,0,.08-.13l.56-1c0-.05,0-.1.07-.16l.45-1.07.06-.15.36-1.11a.83.83,0,0,0,0-.15l.26-1.12a.51.51,0,0,0,0-.17l.16-1.14a.88.88,0,0,0,0-.16l.05-1.13V53.62ZM143.18,42.3l0-1,.14-1,.22-1,.32-1,.4-.94.47-.88.56-.85.62-.78.67-.72.72-.63.76-.54.8-.46.8-.36.82-.27.85-.17,27.7-4.14.86-.08.79,0,.42.06-25,3.74-.07,0-1,.21-.08,0-1,.32-.1,0-1,.44-.08,0-.95.56-.07,0-.91.65-.07,0-.62.54,0,0-.19.16,0,0h0l-.23.2-.05.06-.75.79,0,.06-.68.86-.05.07-.6.91a.25.25,0,0,1,0,.07l-.53,1,0,.08-.43,1,0,.08-.34,1.05a.24.24,0,0,1,0,.08l-.25,1.07s0,0,0,.08L145.68,43s0,.07,0,.1l0,1.07a.38.38,0,0,0,0,.15.78.78,0,0,0,0,.4v2.86L144.09,47,144,47,144,47l-.09,0a.84.84,0,0,0-.47,0l-.16,0-.07,0Zm2.45,7.31V255.85l-1.36-.62,0,0,0-.16,0-.22V49Zm-2.45,207.12h0l.17.1,2.26,1v4.64l.05,1.13a.28.28,0,0,1,0,.09l.16,1.1s0,.05,0,.08l.26,1.06,0,.09.27.75-.06,0-.6-.46-.57-.55-.51-.62-.54-.86-.26-.57-.31-.85-.21-.86-.14-.93,0-1ZM183.29,51.82l-.09.13-.64,1-.08.13-.55,1a1,1,0,0,0-.07.15l-.47,1.09s0,.09,0,.13L181,56.57a1.21,1.21,0,0,0-.05.18l-.26,1.14a.5.5,0,0,0,0,.16l-.16,1.14c0,.06,0,.11,0,.17l0,1.14v0s0,0,0,0V278.48s0,0,0,0v.05l0,1.12c0,.05,0,.11,0,.17l.16,1.1,0,.17.26,1.07.06.18-30.4-13.63-1.32-.59-.11-.13-.5-.79-.41-.85-.33-.91-.24-1-.15-1-.05-1.07V44.61l.05-1.08.15-1.06.24-1.06.34-1,.43-1,.52-1,.6-.92.66-.84.73-.78.8-.69.83-.59.88-.51.88-.4.91-.29.95-.2L184.18,29l.57-.05,3.17,1.42,27.79,12.46-24,3.59h-.11l-1,.22-.19,0-1,.32-.19.08-1,.44-.16.08-1,.54-.17.11L186,49l-.13.11-.85.74-.11.11-.8.83-.11.13Zm44.4,219.61-.05,1-.14,1-.22,1-.31,1-.39.92-.48.89-.54.84-.61.77-.67.7-.73.62-.75.55-.79.46-.8.35-.62.22-1.05.23L191.81,286l-.19,0-.71.07-.79,0-.78-.12-.72-.19-.36-.16h0l-.33-.14-.65-.37-.62-.47-.56-.53-.5-.61-.54-.88-.27-.58-.31-.83-.22-.87-.13-.92,0-1V60.64l0-1,.14-1,.22-1,.32-.95.4-1,.48-.89.55-.83.62-.79.67-.7.73-.64.75-.55.79-.45.81-.36.82-.27.87-.18L220,46l.84-.08.79,0,.77.11.74.21.57.23h0l.11,0,.65.38.61.46.58.55.5.61.51.84.39.79.24.71.22.88.13.91.05,1Z"/><path class="cls-1" d="M343.14,98.72V58a3.49,3.49,0,0,0-3.48-3.49,4.91,4.91,0,0,0-.53,0l-13.59,2.06a4.67,4.67,0,0,0-4,4.62V102a3.59,3.59,0,0,0,3.59,3.59,3.27,3.27,0,0,0,.54,0l13.34-2A4.81,4.81,0,0,0,343.14,98.72Zm-17.88,3.14V61.27a1,1,0,0,1,.83-1l13.37-2V98.72a1.14,1.14,0,0,1-1,1.13Z"/><polygon class="cls-1" points="338.58 113.3 338.43 113.18 338.29 113.04 338.15 112.89 338.01 112.75 337.9 112.58 337.79 112.41 337.74 112.43 337.7 112.44 337.65 112.45 337.61 112.47 337.56 112.48 337.52 112.49 337.48 112.5 337.44 112.5 337.44 114.11 337.62 114.07 337.81 114.03 338 113.97 338.19 113.9 338.38 113.82 338.56 113.73 338.73 113.63 338.91 113.53 338.74 113.42 338.58 113.3"/><path class="cls-1" d="M344.13,107.65l-.28-.52-.38-.45-.44-.37-.5-.28-.54-.15-.58-.06-.59.07-.57.17-.57.27-.52.37-.48.47-.4.53-.33.59-.24.63-.15.66-.05.65.05.65.15.61.24.57.33.48.4.42.48.32.52.22.57.11h.57l.59-.12.58-.22.54-.32.5-.42.44-.5.38-.56.28-.63.19-.64.1-.66v-.65l-.1-.64ZM343,109.71l-.1.5-.2.48-.28.43-.36.36-.39.27-.44.17-.44.07-.45,0,.14-.26.11-.26.1-.28.08-.27.06-.28.05-.29,0-.28v-.28l-1.44.21v.28l0,.14,0,.15,0,.13,0,.14-.05.14-.06.13-.17-.43-.08-.49,0-.49.12-.5.22-.48.29-.41.36-.35.41-.26.44-.16.44,0,.45.06.39.18.34.26.26.36.2.43.09.48Z"/><path class="cls-1" d="M365.25,53.62a.43.43,0,0,0,0,0s0,0,0-.08h0l-.06-1.12a.91.91,0,0,0,0-.17L365,51.11a1.16,1.16,0,0,0,0-.18l-.26-1a.75.75,0,0,0,0-.16l-.31-.88,0-.08a.76.76,0,0,0,0-.11L364,48a1.23,1.23,0,0,0-.14-.25l-.1-.16h0l0-.1-.09-.16-.56-.88-.13-.18-.64-.78-.15-.16-.73-.69-.15-.13-.78-.6a1.37,1.37,0,0,0-.2-.13l-.86-.5a1.51,1.51,0,0,0-.22-.11l-.08,0-.14-.06-35.69-16h0l-5.2-2.33-.08,0-.63-.25-.17-.06-.95-.27-.24-.05-1-.14a.9.9,0,0,0-.23,0l-1,0h-.2l-1,.09h-.11l-27.8,4.16-.09,0-1,.2-.21,0-1,.33-.19.07-1,.44-.18.09-.95.56-.14.09-.9.64-.14.11-.86.75-.14.14-.78.83-.1.11-.72.91a.71.71,0,0,0-.1.14l-.65,1-.08.14-.55,1a1.19,1.19,0,0,0-.08.16L274.36,37s0,.08,0,.12l-.38,1.11c0,.06,0,.12,0,.18l-.27,1.13a.88.88,0,0,0,0,.16l-.16,1.16a.77.77,0,0,0,0,.15l-.05,1.15a.28.28,0,0,0,0,.09V260.14a.28.28,0,0,0,0,.09l.05,1.13a1.1,1.1,0,0,0,0,.18l0,.14a1.86,1.86,0,0,0-.94.18l-22.74,11.07a1.85,1.85,0,0,0-1,1.61l-.1,3.3a1.85,1.85,0,0,0,2.14,1.88l3.85-.63.38,4.72a.31.31,0,0,0,.61,0l1.07-5.09c10-1.6,26.1-4.17,30.52-4.72L320.5,289a1.57,1.57,0,0,0,.23.09l.06,0,.38.16.23.08,1,.26.22,0,1,.15.21,0h.13l.49,6a.3.3,0,0,0,.6,0l1.29-6.12.18,0L352,285.83l.55,6.76a.31.31,0,0,0,.61,0l1.52-7.23.5-.11.11,0,.21-.05h0l.08,0,.79-.27.15,0,1-.43.19-.1.95-.55.15-.1.89-.65.13-.1.85-.73.13-.12.79-.83.12-.13.71-.91.1-.13.63-1,.08-.13.55-1a.8.8,0,0,0,.08-.16l.45-1.07a.88.88,0,0,0,.05-.15l.37-1.11c0-.05,0-.1,0-.15l.26-1.12,0-.17.16-1.14a.86.86,0,0,0,0-.16l.06-1.13v0s0,0,0-.07,0,0,0,0ZM277.06,42.3l.05-1,.14-1,.22-1,.32-1,.39-.94.48-.88.55-.85.63-.78.67-.72.72-.63L282,33l.8-.46.8-.36.81-.27.86-.17L313,27.63l.86-.08.79,0,.42.06-25,3.74-.07,0-1,.21-.08,0-1,.32-.11,0-1,.44-.08,0-1,.56-.07,0-.9.65a.18.18,0,0,0-.07,0l-.62.54,0,0-.18.16,0,0h0l-.23.2,0,.06-.75.79-.05.06-.68.86a.18.18,0,0,0-.05.07l-.6.91,0,.07-.53,1,0,.08-.43,1,0,.08L280,40.74l0,.08-.25,1.07a.22.22,0,0,0,0,.08L279.56,43a.34.34,0,0,0,0,.1l-.05,1.07s0,.1,0,.15a1.08,1.08,0,0,0,0,.4v2.86L278,47l-.06,0-.06,0-.09,0a.87.87,0,0,0-.48,0l-.15,0-.07,0Zm2.44,7.31V255.85l-1.35-.62,0,0-.05-.16,0-.22V49Zm-2.44,207.12h0l.16.1,2.26,1v4.64l.06,1.13a.28.28,0,0,0,0,.09l.16,1.1a.24.24,0,0,0,0,.08L280,266a.29.29,0,0,0,0,.09l.27.75-.06,0-.6-.46-.57-.55-.5-.62-.54-.86-.26-.57-.31-.85-.22-.86-.13-.93-.05-1ZM317.17,51.82l-.1.13-.63,1a.57.57,0,0,0-.08.13l-.55,1-.08.15-.46,1.09a.69.69,0,0,0,0,.13l-.38,1.11c0,.06,0,.12,0,.18l-.26,1.14,0,.16-.15,1.14a1,1,0,0,0,0,.17l-.06,1.14s0,0,0,0,0,0,0,0V278.48s0,0,0,0,0,0,0,.05l.06,1.12a1.11,1.11,0,0,0,0,.17l.16,1.1a1.22,1.22,0,0,0,0,.17l.26,1.07.06.18-30.41-13.63-1.31-.59L283,268l-.5-.79-.42-.85-.33-.91-.24-1-.14-1,0-1.07V44.61l0-1.08.15-1.06.24-1.06.34-1,.43-1,.51-1,.61-.92.66-.84.73-.78.79-.69.84-.59.87-.51.88-.4.92-.29.95-.2L318.06,29l.57-.05,3.17,1.42,27.79,12.46-24,3.59h-.11l-1,.22-.19,0-1,.32-.18.08-1,.44a.8.8,0,0,0-.16.08l-.95.54-.17.11-.91.66a.69.69,0,0,0-.13.11l-.85.74-.12.11-.79.83a.69.69,0,0,0-.11.13Zm44.4,219.61-.05,1-.14,1-.22,1-.32,1-.38.92-.48.89-.55.84-.6.77-.68.7-.72.62-.75.55-.79.46-.81.35-.62.22-1,.23L325.68,286l-.19,0-.71.07-.79,0-.77-.12-.72-.19-.36-.16h0l-.34-.14-.65-.37-.61-.47-.57-.53-.49-.61-.54-.88-.28-.58-.31-.83-.21-.87-.13-.92-.05-1V60.64l.05-1,.13-1,.23-1,.32-.95.4-1,.48-.89.55-.83.61-.79.68-.7.73-.64.75-.55.79-.45.81-.36.82-.27.87-.18L353.87,46l.84-.08.79,0,.77.11.74.21.56.23h0l.12,0,.65.38.61.46.57.55.51.61.51.84.38.79.25.71.22.88.13.91.05,1Z"/></g></svg>