<svg xmlns="http://www.w3.org/2000/svg" viewBox="0 0 480 320"><defs><style>.cls-1{fill:#000;}</style></defs><g id="Layer_1" data-name="Layer 1"><path class="cls-1" d="M351,116.66V205a7.8,7.8,0,0,0,7.78,7.79,8,8,0,0,0,1.19-.09l28.95-4.4a10.46,10.46,0,0,0,8.9-10.35v-88.3a7.58,7.58,0,0,0-7.56-7.57,7.4,7.4,0,0,0-1.14.09l-29.5,4.46A10.13,10.13,0,0,0,351,116.66Zm8,0a2.12,2.12,0,0,1,1.82-2.11l29-4.39V198a2.45,2.45,0,0,1-2.1,2.44L359,204.77Z"/><polygon class="cls-1" points="385.66 229.59 385.75 229.56 385.85 229.54 385.95 229.51 386.05 229.49 386.15 229.47 386.25 229.42 386.49 229.78 386.74 230.15 387.03 230.47 387.33 230.79 387.65 231.09 387.97 231.36 388.31 231.6 388.68 231.85 388.29 232.07 387.92 232.29 387.52 232.49 387.11 232.66 386.71 232.81 386.3 232.93 385.88 233.03 385.49 233.1 385.49 229.61 385.58 229.61 385.66 229.59"/><path class="cls-1" d="M388.19,230.62l1,.69,1.13.46,1.23.25,1.25,0,1.28-.25,1.25-.49,1.18-.69,1.09-.91.95-1.08.82-1.23L400,226l.42-1.4.22-1.43v-1.42l-.22-1.38-.42-1.28L399.4,218l-.82-1-.95-.81-1.09-.59-1.18-.35-1.25-.12-1.28.15-1.25.37-1.23.59-1.13.81-1,1-.89,1.15-.71,1.28-.52,1.38-.31,1.42-.13,1.43.13,1.4.31,1.32.52,1.23.71,1.06Zm.59-6.12.05-1.08.27-1.08.46-1,.64-.89.79-.76.89-.57.95-.34,1-.1,1,.12.86.4.74.56.56.79.42.93.2,1,0,1.09-.22,1.08-.44,1-.61.93-.77.79-.86.59-1,.37-.95.15-1-.1.29-.57.25-.56.22-.62.17-.59.12-.61.1-.62.08-.61v-.61l-3.12.46v.3l0,.32-.05.29-.05.32-.07.3-.1.29-.1.3-.12.29-.37-.93Z"/><path class="cls-1" d="M245.9,76.92V218.61l.12,2.45c0,.13,0,.25,0,.38l.34,2.38c0,.13,0,.26.08.39l.56,2.28a3.09,3.09,0,0,0,.14.43l.81,2.19a2.33,2.33,0,0,0,.11.28l.69,1.5c0,.08.08.17.13.25l.29.54c0,.08.09.15.14.23l1.2,1.89.27.38,1.41,1.72a3.92,3.92,0,0,0,.34.37l1.57,1.5a2.69,2.69,0,0,0,.32.27l1.7,1.31a3.82,3.82,0,0,0,.47.31l1.86,1.05.31.16,11.9,5.34L348.19,281a4.09,4.09,0,0,0,.49.18l.14,0,.82.35a4.24,4.24,0,0,0,.5.18l2.07.56a3.78,3.78,0,0,0,.46.1l2.14.32a3.57,3.57,0,0,0,.46,0l2.19.07h.13l.35,0,2.22-.2h0a3.78,3.78,0,0,0,.89-.16l59.36-8.85a3.85,3.85,0,0,0,.89-.15l2-.43.24-.06.44-.12.06,0,.17,0,1.72-.59.32-.13,2.11-.93a3,3,0,0,0,.4-.21l2.06-1.2.33-.21,1.94-1.4a3.11,3.11,0,0,0,.28-.23l1.84-1.59a3.31,3.31,0,0,0,.27-.26l1.72-1.79a3.58,3.58,0,0,0,.26-.29l1.54-2a2.64,2.64,0,0,0,.21-.29l1.38-2.12.17-.28L442,257c.06-.11.12-.23.17-.34l1-2.34a2.85,2.85,0,0,0,.12-.31l.78-2.41c0-.11.07-.22.1-.33l.56-2.44c0-.11.05-.23.07-.35l.34-2.48c0-.12,0-.24,0-.35l.12-2.46v-.09c0-.05,0-.09,0-.14a.5.5,0,0,0,0-.12V101.78a.43.43,0,0,0,0-.11c0-.06,0-.11,0-.17h0l-.12-2.43c0-.13,0-.25,0-.38l-.34-2.36c0-.13-.05-.26-.08-.38l-.57-2.29a2.68,2.68,0,0,0-.1-.35l-.66-1.91-.06-.15a2.67,2.67,0,0,0-.09-.26l-.64-1.45a4.14,4.14,0,0,0-.29-.55l-.22-.34h0l-.1-.21a3.07,3.07,0,0,0-.2-.36l-1.2-1.9c-.09-.13-.19-.27-.3-.4l-1.4-1.69c-.1-.12-.21-.24-.32-.35L437,82.23a2.78,2.78,0,0,0-.33-.27L435,80.65a4.78,4.78,0,0,0-.44-.29l-1.86-1.08q-.24-.14-.48-.24L432,79l-.29-.15L354.26,44.1l0,0L343,39l-.17-.07-1.37-.54a2.29,2.29,0,0,0-.37-.12L339,37.71a3.1,3.1,0,0,0-.51-.11l-2.14-.32a4,4,0,0,0-.5-.05l-2.19,0-.44,0-2.21.2-.24,0-60.33,9-.21,0-2.18.44-.45.12-2.19.71-.39.15-2.14,1-.38.2-2.07,1.2-.3.2-2,1.4-.3.24L256,53.72l-.3.29L254,55.83l-.19.23-1.58,2-.22.3-1.4,2.14-.18.3L249.2,63c-.06.12-.12.24-.17.36l-1,2.36a2.77,2.77,0,0,0-.1.26l-.81,2.41a2.72,2.72,0,0,0-.11.38l-.57,2.46-.06.35-.34,2.51c0,.11,0,.23,0,.34Zm21.19,158.91-.23-.29-1.09-1.7-.91-1.84-.71-2-.52-2.09-.31-2.2-.12-2.31V82.23l.12-2.35.32-2.31.52-2.31.73-2.23.94-2.2L267,68.75l1.31-2,1.44-1.83,1.59-1.68,1.72-1.5,1.81-1.29,1.9-1.1,1.91-.87,2-.62,2.06-.44,60.21-9,1.24-.11L351,51.4l60.33,27-52.12,7.79a.45.45,0,0,1-.11,0l-.12,0-2.22.46-.41.11-2.19.72a3.12,3.12,0,0,0-.39.15l-2.14,1-.35.17L349.22,90c-.13.08-.25.15-.37.24l-2,1.43a3.4,3.4,0,0,0-.3.23l-1.84,1.62a2.72,2.72,0,0,0-.24.24l-1.73,1.79-.25.29-1.57,2a2,2,0,0,0-.21.3l-1.38,2.11a2.75,2.75,0,0,0-.17.29l-1.2,2.23c-.06.11-.11.22-.16.33l-1,2.36a2.49,2.49,0,0,0-.11.29l-.81,2.41c0,.13-.08.26-.11.39l-.57,2.48-.06.34-.34,2.48c0,.12,0,.24,0,.35l-.12,2.49s0,.06,0,.1,0,.06,0,.09V258.22s0,.07,0,.1,0,.07,0,.1l.12,2.44c0,.12,0,.24,0,.37l.35,2.38a2.53,2.53,0,0,0,.07.38l.56,2.31c0,.14.08.27.13.41l-66-29.6ZM259.2,209.1l-2.94-1.35-.05-.1-.09-.36-.05-.46v-115l3.13,1.25ZM336.31,45.36,282,53.48l-.16,0-2.12.45-.19.05-2.19.69a1,1,0,0,0-.22.09l-2.12,1-.18.1-2.06,1.2-.16.1-2,1.4-.15.12-1.34,1.17-.09.06-.39.35-.05,0,0,0-.5.45-.12.11-1.62,1.72a1.34,1.34,0,0,0-.11.14l-1.48,1.86-.1.15-1.3,2-.09.14L262.1,69l-.09.18-.93,2.21-.06.17-.74,2.28a1.24,1.24,0,0,0,0,.16l-.54,2.34a.94.94,0,0,0,0,.16l-.34,2.33a1.49,1.49,0,0,0,0,.21l-.1,2.34c0,.1,0,.21,0,.31a2,2,0,0,0,0,.87v6.21l-3.33-1.33-.12,0-.13,0-.2,0a2,2,0,0,0-1,0l-.34.1a.84.84,0,0,0-.14.06V77.21L254,75l.3-2.15.48-2.09.7-2.09.86-2,1-1.91,1.2-1.83,1.36-1.7,1.45-1.56,1.56-1.36,1.66-1.18,1.72-1,1.75-.79,1.77-.57,1.86-.38,60.12-9,1.87-.16,1.71,0ZM354.09,274.5l-1.57-.43-.78-.33h0l-.72-.31-1.42-.81-1.33-1L347,270.44,346,269.13l-1.18-1.92L344.2,266l-.67-1.79-.46-1.89-.29-2-.11-2.15V117l.11-2.2.29-2.14.48-2.12.7-2.06.88-2,1-1.93,1.19-1.82,1.34-1.7,1.47-1.53,1.58-1.39,1.63-1.19,1.71-1,1.77-.79,1.78-.58,1.88-.4,60.1-9,1.83-.16,1.71.06,1.68.25,1.59.43,1.23.51h0l.25.11,1.41.82,1.32,1,1.25,1.19L434,90.68l1.11,1.81.83,1.73.53,1.53.48,1.92.29,2,.1,2.14V242.91l-.1,2.18-.3,2.13-.48,2.09-.69,2.08-.84,2-1,1.92-1.19,1.82-1.32,1.67-1.46,1.52-1.57,1.36-1.63,1.19-1.71,1-1.75.77-1.35.47-2.27.51-60.2,9-.41.08-1.54.14-1.71-.06ZM253.9,218.31V211l0,0h0a2.12,2.12,0,0,0,.36.21l4.9,2.25v10s0,0,0,.05,0,0,0,0l.13,2.46c0,.06,0,.12,0,.18l.35,2.39a1.29,1.29,0,0,0,0,.19l.56,2.29.06.19.59,1.63-.13-.07-1.3-1-1.24-1.18-1.09-1.34L256,227.43l-.56-1.24-.68-1.84-.47-1.87-.29-2Z"/><path class="cls-1" d="M139.4,113.73v88.35a7.78,7.78,0,0,0,9,7.71l29-4.4a10.49,10.49,0,0,0,8.9-10.36v-88.3a7.55,7.55,0,0,0-8.71-7.48L148,103.71A10.13,10.13,0,0,0,139.4,113.73Zm8,0a2.12,2.12,0,0,1,1.81-2.11l29-4.39V195a2.47,2.47,0,0,1-2.1,2.45l-28.72,4.36Z"/><polygon class="cls-1" points="174.01 224.91 174.1 224.88 174.2 224.86 174.3 224.83 174.4 224.81 174.5 224.78 174.6 224.74 174.84 225.1 175.09 225.47 175.38 225.79 175.68 226.11 176 226.41 176.32 226.68 176.66 226.92 177.03 227.17 176.64 227.39 176.27 227.61 175.87 227.81 175.46 227.98 175.06 228.13 174.65 228.25 174.23 228.35 173.83 228.42 173.83 224.93 173.93 224.93 174.01 224.91"/><path class="cls-1" d="M176.54,225.94l1,.69,1.13.47,1.23.24,1.25,0,1.28-.25,1.25-.49,1.18-.69L186,225l1-1.08.81-1.23.62-1.35.42-1.4.22-1.43v-1.42l-.22-1.38-.42-1.28-.62-1.13-.81-1-1-.81-1.08-.59-1.18-.35-1.25-.12-1.28.15-1.25.37-1.23.59-1.13.81-1,1-.89,1.15-.71,1.28-.52,1.38-.32,1.42L174,220l.12,1.4.32,1.33.52,1.22.71,1.06Zm.59-6.12.05-1.08.27-1.08.46-1,.64-.89.79-.76.88-.57,1-.34,1-.1,1,.12.86.4.74.56.56.79.42.93.2,1,0,1.08-.22,1.08-.44,1-.62.93-.76.79-.86.59-1,.37-1,.15-.95-.1.29-.57.25-.56.22-.62.17-.59.12-.61.1-.62.08-.61v-.61l-3.13.46v.3l0,.32,0,.29-.05.32-.07.3-.1.29-.1.3-.12.29-.37-.93Z"/><path class="cls-1" d="M34.78,72.48V213.77a1.34,1.34,0,0,0,0,.2l.12,2.46c0,.12,0,.24,0,.37l.35,2.38c0,.13,0,.26.07.39l.57,2.29c0,.14.08.29.13.43l.81,2.18.12.28.69,1.5.12.25.3.54.13.23,1.21,1.89a3.28,3.28,0,0,0,.27.38l1.4,1.72a4,4,0,0,0,.34.37l1.57,1.5.33.28,1.69,1.3a4.76,4.76,0,0,0,.47.31l1.87,1.06.3.15,11.9,5.35,77.49,34.75a4.84,4.84,0,0,0,.49.18l.14,0,.82.35a5.17,5.17,0,0,0,.51.18l2.06.56a2.63,2.63,0,0,0,.47.1l2.14.32a3.42,3.42,0,0,0,.45,0l2.19.08h.14l.35,0L149,278h.05a3.87,3.87,0,0,0,.9-.17l59.34-8.85a3.53,3.53,0,0,0,.91-.15l2-.43.23-.06.45-.12.05,0,.17,0,1.72-.59.32-.13,2.11-.93a2.52,2.52,0,0,0,.4-.21l2.07-1.2.32-.21,1.95-1.4.27-.22,1.85-1.6.27-.25,1.72-1.8a3.47,3.47,0,0,0,.25-.29l1.55-2,.21-.29,1.37-2.12a1.61,1.61,0,0,0,.17-.28l1.21-2.24a3.54,3.54,0,0,0,.16-.34l1-2.34a2.83,2.83,0,0,0,.11-.31L233,247a2,2,0,0,0,.09-.33l.57-2.44a2,2,0,0,0,.06-.35l.35-2.48c0-.12,0-.24,0-.35l.12-2.46a.28.28,0,0,0,0-.09s0-.09,0-.13,0-.09,0-.13V97.14s0-.07,0-.11a1,1,0,0,0,0-.17h0l-.12-2.43c0-.13,0-.25,0-.38l-.34-2.36c0-.13,0-.25-.07-.38L233.06,89a3.57,3.57,0,0,0-.1-.35l-.67-1.92a.94.94,0,0,0-.06-.15,1.83,1.83,0,0,0-.08-.25l-.64-1.45a3.6,3.6,0,0,0-.29-.55L231,84h0l-.1-.21a3.1,3.1,0,0,0-.21-.36l-1.2-1.89a4.1,4.1,0,0,0-.29-.4l-1.4-1.7a3.61,3.61,0,0,0-.33-.35l-1.57-1.5a2.69,2.69,0,0,0-.32-.27L223.87,76c-.14-.1-.28-.2-.43-.29l-1.87-1.08a2.65,2.65,0,0,0-.48-.23l-.18-.08-.3-.15L143.15,39.46h0l-11.29-5.06-.16-.07-1.38-.54a2.53,2.53,0,0,0-.36-.12l-2.07-.59a2.78,2.78,0,0,0-.5-.11l-2.14-.32a2.81,2.81,0,0,0-.5,0l-2.19-.05a3.23,3.23,0,0,0-.44,0l-2.22.2a.91.91,0,0,0-.23,0l-60.34,9-.2,0-2.19.44a3.17,3.17,0,0,0-.44.12l-2.19.71-.4.16-2.14,1a3.37,3.37,0,0,0-.38.19l-2.06,1.2-.31.2-2,1.4-.31.24-1.86,1.62a2.76,2.76,0,0,0-.3.29l-1.7,1.82c-.07.08-.14.15-.2.23l-1.57,2-.22.3-1.4,2.14a2.38,2.38,0,0,0-.18.3l-1.2,2.24a3.84,3.84,0,0,0-.18.35l-1,2.36c0,.09-.07.18-.1.27L36,63.75c0,.13-.08.25-.11.38l-.56,2.46c0,.12-.05.24-.07.35l-.34,2.51c0,.12,0,.23,0,.35l-.12,2.48A1.27,1.27,0,0,0,34.78,72.48ZM56,231.19l-.23-.28-1.08-1.71-.91-1.84-.72-2-.51-2.09-.32-2.19-.11-2.31V77.58l.11-2.34.32-2.31.53-2.3.73-2.24.94-2.2,1.12-2.08,1.3-2,1.44-1.83,1.59-1.68,1.72-1.49,1.82-1.3,1.89-1.1,1.91-.87,2-.62,2.06-.44,60.22-9,1.24-.11,6.88,3.08,60.32,27L148.1,81.6l-.12,0-.12,0-2.21.46-.41.11-2.19.72a2.74,2.74,0,0,0-.4.15l-2.14,1a2.79,2.79,0,0,0-.34.18L138.1,85.4l-.36.23-2,1.43-.29.23-1.85,1.62-.24.24-1.72,1.79a3.47,3.47,0,0,0-.25.29l-1.58,2-.21.3-1.37,2.11a1.69,1.69,0,0,0-.17.29l-1.21,2.23c-.06.11-.11.22-.16.33l-1,2.36-.12.29-.81,2.41c0,.13-.08.26-.11.39l-.56,2.48a2.21,2.21,0,0,0-.06.34l-.35,2.48,0,.36-.12,2.48v.1s0,.06,0,.1V253.58s0,.07,0,.1v.11l.12,2.43c0,.12,0,.24,0,.37l.34,2.38c0,.13,0,.26.07.38l.57,2.31c0,.14.08.27.12.41l-66-29.6Zm-7.88-26.73-2.94-1.34,0-.11-.09-.35,0-.47v-115l3.13,1.25Zm77.1-163.74L70.85,48.85a.53.53,0,0,0-.16,0l-2.12.44-.18.05-2.19.69-.23.09-2.11,1-.18.09-2.07,1.2-.15.1-2,1.4-.15.12L58,55.2a.24.24,0,0,0-.08.06l-.4.36-.05,0,0,0-.49.45a1.36,1.36,0,0,0-.12.12L55.22,58l-.12.13L53.63,60a1.71,1.71,0,0,0-.11.14l-1.3,2s0,.09-.08.14L51,64.34a1.42,1.42,0,0,0-.08.18L50,66.73l-.06.17-.73,2.28a1.09,1.09,0,0,0-.05.17l-.54,2.33,0,.16-.34,2.34a1.23,1.23,0,0,0,0,.2l-.1,2.34a1.06,1.06,0,0,0,0,.31,2,2,0,0,0,0,.87v6.22l-3.33-1.34-.13,0-.13,0-.2,0a2,2,0,0,0-1,0l-.34.1a.69.69,0,0,0-.15.07V72.57l.11-2.2.3-2.16.48-2.09.7-2.09L45.22,62l1-1.91,1.2-1.83,1.36-1.7L50.26,55l1.57-1.35,1.66-1.19,1.72-1L57,50.65l1.76-.57,1.86-.38,60.12-9,1.87-.17,1.72,0ZM143,269.86l-1.58-.43-.77-.33h0l-.73-.3-1.41-.82-1.34-1-1.22-1.16-1.07-1.32-1.19-1.91-.59-1.26-.67-1.79-.46-1.89-.29-2-.11-2.15V112.37l.11-2.21L132,108l.48-2.12.7-2.06.87-2,1-1.93L136.24,98l1.34-1.7,1.47-1.53,1.57-1.39,1.64-1.19,1.71-1,1.76-.79,1.78-.58,1.88-.4,60.11-9,1.82-.16,1.71.06,1.68.25,1.6.44,1.23.5h0l.25.1,1.42.82,1.32,1,1.24,1.19L222.86,86,224,87.86l.83,1.72.53,1.53.47,1.92.29,2,.11,2.14V238.27l-.11,2.18-.3,2.13-.48,2.09-.68,2.08-.84,2-1,1.92-1.19,1.82-1.31,1.67-1.46,1.52-1.57,1.36-1.64,1.19-1.7,1-1.75.77-1.35.47-2.28.51-60.19,9a2.71,2.71,0,0,0-.41.09l-1.54.13-1.72-.06ZM42.78,213.67v-7.3l0,0h0a2.16,2.16,0,0,0,.36.22l4.91,2.24v10.07l.12,2.46a1.37,1.37,0,0,0,0,.19l.34,2.38c0,.06,0,.13,0,.19l.57,2.29a.89.89,0,0,0,.06.2l.58,1.63-.13-.08-1.3-1L47.15,226l-1.09-1.34-1.17-1.88-.57-1.24-.68-1.83-.46-1.88-.29-2Z"/></g></svg>