<svg xmlns="http://www.w3.org/2000/svg" viewBox="0 0 480 320"><defs><style>.cls-1{fill:#000;}</style></defs><g id="レイヤー_1" data-name="レイヤー 1"><path class="cls-1" d="M452.76,134.74h0v0L434.39,126l-3.31.35L324.48,83.74,27.8,107.7h-.56v53.19l76.11,62V225l11.56,11.19v.05H115v0l337.77-36.82Zm-9.47,1L118.2,170.26l-6.15-5,321.46-34.13ZM232.66,163.14c-5.47,1.59-12.15,3.58-19.43,5.94s-10.74,3.68-32.79,12.08l-2.41.92C153,191.63,148,193.5,139.41,195.71c-6.47,1.68-13,3-19.49,4V175.11Zm91.06-74.32,96.7,38.62L106.56,160.76l-65.67-49.1ZM32.24,158.51V111.44l71.11,53.16v51.79Zm76.12,64.38V168.65l6.55,5.39v55.2Zm11.56-18.06a205.26,205.26,0,0,0,20.74-4.28c8.81-2.28,13.85-4.16,39.15-13.79l2.41-.92c21.95-8.37,25.32-9.66,32.55-12,8.73-2.83,16.63-5.14,22.55-6.84,10.1-2.92,21.39-6.08,28.6-7.39l181.84-19.3v27.46c-6.56,1-13.16,2.42-19.69,4.12-8.81,2.28-13.86,4.16-39.15,13.79l-2.44.93c-21.92,8.36-25.29,9.65-32.52,12-8.75,2.83-16.64,5.14-22.55,6.84a160.87,160.87,0,0,1-21.35,4.15c-2.64.39-5.14.75-7.28,1.14h0L119.92,230.67Zm227.69,1c2.53-.78,5.16-1.6,7.89-2.49,7.35-2.38,10.74-3.67,32.76-12.07l2.44-.93c25.08-9.55,30.07-11.42,38.62-13.63,6.12-1.59,12.3-2.89,18.44-3.89v22.1Z"/><path class="cls-1" d="M240.53,184.47c-3.36,0-5.26,2.7-5.26,6.05s1.9,6.06,5.26,6.06,5.1-2.7,5.1-6.06S243.88,184.47,240.53,184.47Z"/><path class="cls-1" d="M342.77,185.52c3.2,0,4.9-2.6,4.9-5.81s-1.65-5.8-4.9-5.8-5,2.6-5,5.8S339.56,185.52,342.77,185.52Z"/><polygon class="cls-1" points="328.8 165.06 255.69 170.54 255.69 208.45 328.8 201.25 328.8 165.06"/></g></svg>