<svg xmlns="http://www.w3.org/2000/svg" viewBox="0 0 480 320"><defs><style>.cls-1{fill:#000;}</style></defs><g id="レイヤー_1" data-name="レイヤー 1"><path class="cls-1" d="M452.2,134.45h0v0l-18.35-8.76-3.31.35L323.92,83.44l-296.68,24h-.57v53.19l76.12,61.95v2.18l11.56,11.18v0h.08L452.2,199.13Zm-9.47,1L117.63,170l-6.14-5.05L433,130.78ZM232.1,162.84c-5.47,1.59-12.15,3.58-19.43,5.94s-10.75,3.68-32.79,12.08l-2.41.92c-25.08,9.55-30.07,11.42-38.63,13.63-6.46,1.69-13,3-19.48,4.06V174.81Zm91.06-74.32,96.7,38.62L106,160.46,40.33,111.37ZM31.68,158.21V111.14l71.11,53.17v51.78ZM107.8,222.6V168.35l6.55,5.39v55.2Zm11.56-18.07a208,208,0,0,0,20.74-4.27c8.81-2.28,13.85-4.17,39.15-13.8l2.41-.92c21.94-8.37,25.32-9.65,32.55-12,8.73-2.83,16.63-5.14,22.55-6.83,10.1-2.92,21.39-6.08,28.6-7.4L447.2,140v27.47c-6.56,1-13.17,2.41-19.69,4.11-8.82,2.28-13.86,4.16-39.15,13.8l-2.44.93c-21.92,8.35-25.29,9.64-32.52,12-8.75,2.83-16.64,5.13-22.55,6.83a161.3,161.3,0,0,1-21.35,4.16c-2.65.38-5.14.75-7.28,1.13h0L119.36,230.38Zm227.69,1q3.79-1.17,7.89-2.49c7.35-2.39,10.74-3.68,32.76-12.08l2.44-.93c25.08-9.55,30.07-11.41,38.62-13.63,6.12-1.59,12.3-2.88,18.44-3.89v22.1Z"/><path class="cls-1" d="M240,184.17c-3.35,0-5.25,2.7-5.25,6.06s1.9,6.05,5.25,6.05,5.11-2.7,5.11-6.05S243.32,184.17,240,184.17Z"/><path class="cls-1" d="M342.21,185.22c3.2,0,4.9-2.6,4.9-5.8s-1.65-5.81-4.9-5.81-5,2.6-5,5.81S339,185.22,342.21,185.22Z"/><polygon class="cls-1" points="328.24 164.76 255.13 170.24 255.13 208.15 328.24 200.95 328.24 164.76"/></g></svg>