<svg xmlns="http://www.w3.org/2000/svg" viewBox="0 0 480 320"><defs><style>.cls-1{fill:#000;}</style></defs><g id="レイヤー_1" data-name="レイヤー 1"><path class="cls-1" d="M451.9,134.48h0v0l-18.32-8.75-3.31.35L323.8,83.55,27.54,107.48H27v53.11l76,61.86v2.17l11.54,11.17v.05h.08L451.9,199.07ZM309.39,209.23c-2.63.38-5.13.74-7.26,1.13h0l-10.74,1.17h0c-27.48,2.16-33.57,2.5-48.53,1.89-14.52-.59-30.89-3-31-3.06-22.2-4.19-28.07-5.24-44.5-6.77-12-1.13-23.77-1.31-33.25-1.45h-.88c-4.65-.06-8.06.19-11.06.41-.94.07-1.82.14-2.67.19V174.79L446.9,140v27.43c-6.55,1-13.15,2.4-19.67,4.1-8.79,2.28-13.82,4.16-39.09,13.78l-2.42.92c-21.9,8.35-25.26,9.64-32.49,12-8.72,2.82-16.6,5.13-22.51,6.82A161,161,0,0,1,309.39,209.23Zm133-73.74L117.81,170l-6.13-5,321-34.07ZM323,88.63l96.56,38.56L106.2,160.46l-65.58-49ZM32,158.21v-47l71,53.09V216Zm76,64.29V168.34l6.54,5.38v55.12Zm11.54-14.77,3-.2c2.9-.22,6.19-.47,10.62-.41l.87,0c9.88.15,21.08.32,32.86,1.42,16.21,1.52,22,2.55,44.14,6.73.13,0,10.69,1.61,22.46,2.56l-114,12.42Zm227.36-2.24c2.53-.78,5.16-1.6,7.88-2.49,7.35-2.38,10.73-3.67,32.73-12.06l2.42-.92c25.05-9.54,30-11.4,38.57-13.61,6.11-1.59,12.28-2.88,18.41-3.88v22.06Z"/><path class="cls-1" d="M240,184.14c-3.35,0-5.25,2.69-5.25,6s1.9,6,5.25,6,5.09-2.7,5.09-6S243.31,184.14,240,184.14Z"/><path class="cls-1" d="M342.06,173.59c-3.2,0-5,2.6-5,5.8s1.8,5.8,5,5.8,4.9-2.6,4.9-5.8S345.31,173.59,342.06,173.59Z"/><polygon class="cls-1" points="255.11 208.08 328.12 200.89 328.12 164.75 255.11 170.22 255.11 208.08"/></g></svg>