<svg xmlns="http://www.w3.org/2000/svg" viewBox="0 0 480 320"><defs><style>.cls-1{fill:#000;}</style></defs><g id="Artwork"><path class="cls-1" d="M440.59,124.13a9.61,9.61,0,0,0-4.72-6.62v-.18h-.31a9.71,9.71,0,0,0-2-.78l-122.83-32a16.53,16.53,0,0,0-4.51-.52L42,90.6a8.73,8.73,0,0,0-3.4.72h0v0a8.87,8.87,0,0,0-5.32,8.09v86.93a8,8,0,0,0,5.33,7.52l105,36.85,35.23-1.81,1,1.85c1.67,3.34,5.08,5.21,9.46,5.21l1,0L204.8,235a11.77,11.77,0,0,0,9.95-6.82l.4-1.17,152.64-7.84.89,1.64c1.68,3.34,5.09,5.21,9.46,5.21.32,0,.66,0,1,0l14.53-.9a11.78,11.78,0,0,0,9.95-6.82l.33-1,38.45-2-.27-4a13.54,13.54,0,0,1,1.06-6.88l.49-.83,3.09-45.38Zm-4.41,71.72L152.77,209.64V174l285.74-12.27Zm2.35-38.18L152.69,170l-4.15-33.68,284.14-10.81a.32.32,0,0,1,0,.09ZM306.42,92h.18a8.44,8.44,0,0,1,2.12.27l100,26.07-264.12,10L58.27,98.2ZM41.26,100.73l99.11,34.66,4.4,35.72v42.65a17.31,17.31,0,0,0-2.67,8L41.26,186.36ZM150.07,222.39a8.92,8.92,0,0,1,1.7-4.69l283.12-13.78a22,22,0,0,0-.7,3.87Z"/><path class="cls-1" d="M395.41,183.18l.15-.93.06-.93-.06-.93-.15-.93a7.81,7.81,0,0,0-15.33.93l0,.93,0,.93A7.81,7.81,0,0,0,395.41,183.18Z"/><path class="cls-1" d="M259,190.83h.11a4,4,0,0,0,3.82-4.09,3.93,3.93,0,0,0-4-3.85h-.11a4,4,0,0,0,.14,7.94Z"/><path class="cls-1" d="M282.84,190.09H283a4,4,0,0,0-.14-7.94h-.11a4,4,0,0,0,.14,7.94Z"/><path class="cls-1" d="M306.71,189.35h.11a4,4,0,0,0-.14-7.94h-.11a4,4,0,0,0,.14,7.93Z"/><path class="cls-1" d="M330.58,188.61h.1a4,4,0,0,0-.13-7.93h-.11a4,4,0,0,0,.14,7.93Z"/></g></svg>