<svg id="Artwork" xmlns="http://www.w3.org/2000/svg" viewBox="0 0 480 320"><defs><style>.cls-1{fill:#000;}</style></defs><path class="cls-1" d="M447.3,129.72l-4.16-6a10.08,10.08,0,0,0-5-3.79L232.32,48.47a12.16,12.16,0,0,0-7.14-.24L31.46,100.63a6.21,6.21,0,0,0-4.63,5.66s0,0,0,0h-.21l1.06,60.39a9.65,9.65,0,0,0,5.4,8.63L224.93,268.6l.57.27,32.4,4.63L440.09,206a8.73,8.73,0,0,0,5.71-7.93l2.09-62.72c.05-.12.11-.23.15-.35A6,6,0,0,0,447.3,129.72ZM230.68,194.31l22.78,3.26v67.22l-22.78-3.26Zm26.44-4.3-12.46-1.78,191.55-60.36a2.47,2.47,0,0,1,.35.37l2.58,3.74ZM227.26,56a4.14,4.14,0,0,1,2.44.08l194.11,67.36L226.87,185.45,38.41,107ZM35.68,166.65l-.92-52.46,187.92,78.18v66.24L36.57,168.15A1.62,1.62,0,0,1,35.68,166.65Zm401.63,31.87L261.46,263.65V197l178.27-56.83-1.92,57.64A.77.77,0,0,1,437.31,198.52Z"/><polygon class="cls-1" points="320.12 224.01 403.67 193.96 403.67 170.51 320.12 200.56 320.12 224.01"/><ellipse class="cls-1" cx="425.1" cy="182.43" rx="12.63" ry="7.23" transform="translate(216.53 595.33) rotate(-86.43)"/><ellipse class="cls-1" cx="424.44" cy="158.03" rx="6.82" ry="3.9" transform="translate(240.27 571.8) rotate(-86.43)"/></svg>