<svg xmlns="http://www.w3.org/2000/svg" viewBox="0 0 480 320"><defs><style>.cls-1{fill:#000;}</style></defs><g id="Layer_1" data-name="Layer 1"><path class="cls-1" d="M387.49,172.94,239.89,36.05c-6.93-6.43-17.8-5.06-18.26-5l.5,3.8-.66-3.78L103.62,51.78l.69,3.94-1-3.87c-24,6.22-20.51,26.79-20.47,27l3.93-.73L83,79.32,139.47,259a32.9,32.9,0,0,0,.95,7.72,27.9,27.9,0,0,0,13,17.57c5.52,3.29,12.2,4.95,19.92,4.95a59.9,59.9,0,0,0,7.18-.45l.31,0,185.1-51.48.45-.16a51.39,51.39,0,0,0,25-22.06c5.31-9.38,7.15-19.71,5.05-28.33A23.72,23.72,0,0,0,387.49,172.94ZM105.19,59.63,222.73,39c.59-.06,7.72-.76,11.72,3L369.73,167.37a50.39,50.39,0,0,0-5.58.17l-.33,0L171,217.25l-.46.14a53.62,53.62,0,0,0-12.17,6.66l-58-162.67A28.41,28.41,0,0,1,105.19,59.63Zm37.67,183.44L90.67,77.19a14.6,14.6,0,0,1,3-10.7l58.22,163.22a46.78,46.78,0,0,0-6.83,9.07A45.21,45.21,0,0,0,142.86,243.07Zm220.67-13.46L179.27,280.85c-16.49,1.88-28.1-4.13-31.09-16.1-3.35-13.43,5.08-31.95,25-39.82l192-49.44c7.23-.58,13,.64,17.12,3.53l3,2.83a16.72,16.72,0,0,1,3.27,6.74C392.59,204.92,378.63,223.25,363.53,229.61Z"/><path class="cls-1" d="M203.09,256.72l-1-21.48,58.71-15.73,1,21.48Z"/><path class="cls-1" d="M375,191a9.71,9.71,0,0,0-5.94,2.9,9.86,9.86,0,0,0-2.93,6,6.68,6.68,0,0,0,1.71,5.36,6.51,6.51,0,0,0,5.29,1.89,10.18,10.18,0,0,0,9-9.05A6.32,6.32,0,0,0,375,191Z"/><path class="cls-1" d="M162.7,249.79l-.73,0a10.25,10.25,0,0,0-8.87,8.87h0a6.68,6.68,0,0,0,1.71,5.36,6.51,6.51,0,0,0,5.29,1.89,10.18,10.18,0,0,0,9-9.05,6.6,6.6,0,0,0-1.86-5.33A6.46,6.46,0,0,0,162.7,249.79Z"/><path class="cls-1" d="M354.87,218.07l-60.29,16.16a2.07,2.07,0,0,0-1.43,1.91l0,7.79a1.09,1.09,0,0,0,1.42,1.14l60.3-16.15a2.1,2.1,0,0,0,1.43-1.91v-7.79A1.09,1.09,0,0,0,354.87,218.07Z"/></g></svg>