<svg xmlns="http://www.w3.org/2000/svg" viewBox="0 0 480 320"><defs><style>.cls-1{fill:#000;}</style></defs><g id="Layer_1" data-name="Layer 1"><path class="cls-1" d="M456.81,108.69,289.16,57l-.14,0a29.07,29.07,0,0,0-13.57-.34L22.31,114.26A9.09,9.09,0,0,0,15,122.43a9.77,9.77,0,0,0,0,1.71v61.13c0,5.84,3.09,10.78,8.06,12.89L172.34,261.5a33,33,0,0,0,21.45,1.39l261.87-70c5.42-1.45,9.35-6.3,9.35-11.52V116.89h-.1C464.43,113.24,461.17,109.89,456.81,108.69ZM24,122.07,277.17,64.39a21.06,21.06,0,0,1,9.7.24l167.64,51.72.14,0a4.5,4.5,0,0,1,1.63.79L191.69,185.54a25,25,0,0,1-16.33-1.08l-151.64-60a1.14,1.14,0,0,1-.72-1.24A1.18,1.18,0,0,1,24,122.07Zm2.19,68.72c-2.88-1.22-3.19-4.27-3.19-5.52V132.75l149.31,59.12a32,32,0,0,0,6.39,1.94v61.41a24.25,24.25,0,0,1-3.28-1.09Zm427.37-5.59-261.9,70a24.58,24.58,0,0,1-5,.82V194.38a31.69,31.69,0,0,0,7-1.11l263.25-68v56.15C457,183,455.48,184.69,453.59,185.2Z"/></g></svg>