<svg xmlns="http://www.w3.org/2000/svg" viewBox="0 0 480 320"><defs><style>.cls-1{fill:#000;}</style></defs><g id="Layer_1" data-name="Layer 1"><path class="cls-1" d="M420.81,140.86,298,27l-2.73,3,2.64-3c-7.81-6.79-19-6.62-27.82-5.71l.41,4-.77-3.93L68.33,60.64c-14.18,2.19-25,7.58-30.57,15.18a21.28,21.28,0,0,0-4.15,14.45l-.25.08.38,1.19c0,.3.08.6.13.9l.15,0L85.9,256.29a42.27,42.27,0,0,0,1.25,10.35,36.45,36.45,0,0,0,17,23c7.28,4.34,16.1,6.52,26.33,6.52a82.37,82.37,0,0,0,9.6-.59l.31,0L391.83,225.6l.46-.15a68.42,68.42,0,0,0,33.21-29.37c7.05-12.44,9.5-26.09,6.72-37.46A30.88,30.88,0,0,0,420.81,140.86ZM69.62,68.54l-.61-4,.77,3.93L271.1,29.13c10.63-1.07,17.28.1,21.54,3.78L401.35,133.72a60.23,60.23,0,0,0-11.41,0l-.33,0-262,67.48-.46.15a70.42,70.42,0,0,0-17.76,10L59.29,71A64.46,64.46,0,0,1,69.62,68.54ZM88.9,239.24,41.61,89.89a13.37,13.37,0,0,1,2.62-9.36,23.38,23.38,0,0,1,7.7-6.41l51,143a61.63,61.63,0,0,0-9.69,12.68A57,57,0,0,0,88.9,239.24ZM389.45,218l-250.62,69.7c-23.26,2.67-39.66-5.89-43.92-23-4.72-18.87,7.06-44.87,34.92-55.83L391,141.62c10.18-.83,18.39.88,24.23,4.94l4.6,4.27a24.38,24.38,0,0,1,4.66,9.69C429,179.32,416.07,206.84,389.45,218Z"/><path class="cls-1" d="M114.34,248.67a12.33,12.33,0,0,0-10.74,10.74,8.56,8.56,0,0,0,2.22,6.87,8.41,8.41,0,0,0,6.81,2.46,12.25,12.25,0,0,0,11-11,8.22,8.22,0,0,0-9.24-9.11Z"/><path class="cls-1" d="M404.57,166.1a11.86,11.86,0,0,0-7.21,3.5,12,12,0,0,0-3.54,7.23,8.6,8.6,0,0,0,2.23,6.87,8.38,8.38,0,0,0,6.81,2.47,12.27,12.27,0,0,0,10.95-11,8.21,8.21,0,0,0-9.24-9.1Z"/></g></svg>