<svg xmlns="http://www.w3.org/2000/svg" viewBox="0 0 480 320"><defs><style>.cls-1{fill:#000;}</style></defs><g id="Layer_1" data-name="Layer 1"><path class="cls-1" d="M386.74,68.41a7.13,7.13,0,0,0-5.5-5.27l-160-39.82-.27-.06c-6.68-1.19-12-.74-16.8,1.39L97.89,78l-.49.29c-1.16.81-4.69,3.27-4.28,7.24a6.19,6.19,0,0,0,1.33,3.2L93.06,242.52l166.61,53.41.17.05A39,39,0,0,0,270,297.39a24.47,24.47,0,0,0,13.76-3.72l100.1-70.55,3.07-152h-.12A6.71,6.71,0,0,0,386.74,68.41ZM207.51,31.92c3.21-1.41,7-1.67,11.94-.81L377.3,70.4l-98.23,58.17-.28.25c-2.66,2.36-8.15,2.37-15.06,0l-.12,0L102.79,85c-.2-.08-.38-.17-.54-.25Zm71.67,255.17c-3.71,2.53-10.44,3-17.16,1.19L101.12,236.7l1.29-143.47,158.87,43.23a36.41,36.41,0,0,0,11.55,2.15c5.25,0,8.72-1.67,10.95-3.53l95-56.24-2.83,140.07Z"/><polygon class="cls-1" points="293.99 198.11 316.36 183.78 316.79 145.67 293.99 161.4 293.99 198.11"/></g></svg>