<svg xmlns="http://www.w3.org/2000/svg" viewBox="0 0 480 320"><defs><style>.cls-1{fill:#000;}</style></defs><g id="Layer_1" data-name="Layer 1"><path class="cls-1" d="M441.52,163.8A30.84,30.84,0,0,0,430.1,146L307.31,32.17l-2.73,2.95,2.64-3c-7.81-6.79-19-6.61-27.82-5.71l.41,4L279,26.43,77.62,65.83C63.45,68,52.6,73.4,47.06,81a21.27,21.27,0,0,0-4.15,14.45l-.25.08L43,96.72c0,.3.08.6.13.91l.15,0L95.2,261.47a42.84,42.84,0,0,0,1.24,10.36,36.51,36.51,0,0,0,17,23c7.28,4.34,16.1,6.53,26.33,6.53a80.3,80.3,0,0,0,9.6-.6l.31,0,251.45-69.93.46-.16a68.41,68.41,0,0,0,33.21-29.37C441.85,188.83,444.29,175.17,441.52,163.8ZM78.92,73.72l-.61-4,.77,3.92L280.4,34.31c10.63-1.07,17.28.1,21.54,3.78L410.64,138.9a60.12,60.12,0,0,0-11.4,0l-.33,0-262,67.48-.45.15a70.76,70.76,0,0,0-17.76,10L68.59,76.15A63.39,63.39,0,0,1,78.92,73.72ZM98.19,244.43,50.91,95.07a13.28,13.28,0,0,1,2.62-9.35,23.15,23.15,0,0,1,7.7-6.41l51,143A61.43,61.43,0,0,0,102.54,235,57.09,57.09,0,0,0,98.19,244.43Zm300.56-21.29-250.62,69.7c-23.26,2.68-39.66-5.89-43.92-22.95C99.49,251,111.27,225,139.12,214.06l261.14-67.25c10.19-.84,18.39.88,24.23,4.93l4.6,4.27a24.38,24.38,0,0,1,4.66,9.69C438.34,184.5,425.37,212,398.75,223.14Z"/><path class="cls-1" d="M123.64,253.86a11.8,11.8,0,0,0-7.21,3.5,12,12,0,0,0-3.54,7.23,8.6,8.6,0,0,0,2.23,6.87,8.44,8.44,0,0,0,6.81,2.47,12.27,12.27,0,0,0,10.95-11,8.21,8.21,0,0,0-9.24-9.1Z"/><path class="cls-1" d="M413.87,171.28a11.87,11.87,0,0,0-7.22,3.51,12,12,0,0,0-3.53,7.23,8.58,8.58,0,0,0,2.23,6.86,8.38,8.38,0,0,0,6.81,2.47,12.25,12.25,0,0,0,10.95-11,8.22,8.22,0,0,0-9.24-9.11Z"/></g></svg>