<svg id="Artwork" xmlns="http://www.w3.org/2000/svg" viewBox="0 0 480 320"><defs><style>.cls-1{fill:#000;}</style></defs><path class="cls-1" d="M444.19,98.86c0-.12,0-.23,0-.35s0-.19,0-.28l0-.14a2.29,2.29,0,0,0-.07-.34c0-.09,0-.19-.07-.29s0-.07,0-.11a3.09,3.09,0,0,0-.14-.32,2.59,2.59,0,0,0-.14-.29s0,0,0,0l0-.06-.18-.26c-.07-.09-.13-.19-.2-.27l-.12-.13,0-.06-.46-.47h0c-.08-.09-.18-.15-.26-.23s-.19-.17-.29-.24-.22-.13-.33-.2l-.35-.19-.19-.08-.16,0c-.13,0-.25-.09-.38-.12l-.09,0h0l-1.15-.24-.22,0-.45,0h-.05l-.1,0-.14,0-.12,0c-4.76-1-9.62-2-14.47-3l-7.26-1.42q-3.61-.69-7.23-1.35c-2.43-.45-4.85-.89-7.28-1.32l-7.25-1.27-7.3-1.22c-2.42-.4-4.84-.8-7.26-1.18S375.4,82.39,373,82l-7.27-1.09q-3.66-.54-7.32-1.05c-2.43-.34-4.86-.68-7.29-1s-4.88-.66-7.33-1-4.87-.62-7.3-.92c-4.81-.6-9.74-1.18-14.65-1.73h-.13a2.67,2.67,0,0,0-.4,0,3.17,3.17,0,0,0-.44,0h-.12c-9.73,1.59-19.66,3.28-29.51,5l-7.38,1.33L276.47,83q-7.35,1.36-14.7,2.79l-3.28.65-4.37.85-5,1q-8.3,1.66-16.63,3.39l-.46.1-.91.19c-8.94,1.87-17.9,3.81-26.81,5.79l-1.58.34h0c-6.42,1.44-13,2.94-19.5,4.45l-9.62,2.27-9.83,2.36L159,108.33l-4.83,1.19-4.88,1.21L144.36,112l-4.76,1.2-4.82,1.22-9.8,2.53L105.66,122l-9.54,2.57L72,131.2l-4.9,1.38q-9.6,2.7-19.18,5.47h0a2,2,0,0,0-.22.09l-.35.13-.14.07-.23.14a1.75,1.75,0,0,0-.29.18l-.14.1a1.8,1.8,0,0,0-.21.19,2.39,2.39,0,0,0-.23.22l-.12.12c-.07.08-.12.17-.18.25l-.14.18,0,.08a.57.57,0,0,0-.08.13,2.59,2.59,0,0,0-.14.29,3.09,3.09,0,0,0-.14.32s0,0,0,.08v0h0c-.72,2.12-1.35,4.1-1.93,6s-1.19,4.07-1.74,6.13S40.44,156.94,40,159s-.93,4.17-1.33,6.22-.79,4.14-1.14,6.28-.68,4.34-.94,6.27c-.15,1.1-.29,2.21-.41,3.31,0,.57-.11,1.13-.15,1.68s-.08,1.13-.11,1.7-.06,1.12-.07,1.68,0,1.11,0,1.66,0,1.09,0,1.63.05,1.07.08,1.6c.09,1.36.23,2.62.42,3.85,0,.31.1.62.15.93s.11.62.18.92c.12.59.26,1.19.42,1.79s.34,1.16.54,1.73.42,1.13.66,1.65a15.57,15.57,0,0,0,.8,1.58,16,16,0,0,0,.91,1.44,19.52,19.52,0,0,0,2.52,2.9c.33.33.82.79,1.15,1.11L44.84,210c.4.37.81.73,1.22,1.09l1.24,1.06c.41.36.83.71,1.24,1.05l1.29,1c.82.65,1.64,1.3,2.48,1.94.42.32.84.64,1.27,1l1.29.95c.88.63,1.77,1.26,2.66,1.87l1.37.92,1.39.91c.87.57,1.76,1.13,2.64,1.67s1.82,1.1,2.73,1.64l1.4.8,1.42.81c1,.53,1.92,1.05,2.89,1.56h0c.94.49,1.88,1,2.83,1.45s1.93,1,2.9,1.41,1.91.9,2.88,1.33l1.45.65,1.49.65,1.45.62,1.47.6c.49.21,1,.41,1.49.6l1.5.6,3,1.12,3,1.09c1,.35,2,.69,3,1l3,1,3,.94c1,.31,2,.62,3.08.91l3,.85,1.54.41,1.65.41c.57.13,1.14.25,1.72.35s1.18.19,1.78.25,1.23.12,1.85.14l.92,0,1,0h0c16.11-.64,30.37-1.45,43.59-2.48l2.86-.23,2.84-.24,5.63-.49q2.78-.26,5.54-.54l2.75-.27.7-.08c1.37.47,2.84.91,4.38,1.3,1.83.47,3.72.88,5.78,1.26a115.38,115.38,0,0,0,12.5,1.5c3.22.22,6.54.33,10,.33,4.24,0,8.69-.17,13.43-.49l3-.23,3-.26c1.94-.18,3.91-.39,5.85-.62,3.71-.44,7.53-1,11.34-1.59,1-.16,2-.32,3-.5l2.95-.52c1.93-.36,3.85-.73,5.77-1.13,3.68-.76,7.4-1.6,11.05-2.51l3-.76,2.92-.77c1.9-.52,3.79-1,5.68-1.61,3.64-1.07,7.24-2.22,10.72-3.41,1-.33,2-.68,3-1l1.45-.52,1.43-.53c1.85-.69,3.72-1.41,5.56-2.15,3.55-1.42,7-2.92,10.25-4.46,4-1.86,7.72-3.81,11.13-5.77,1.71-1,3.35-2,4.9-3s3-2,4.45-3c2-1.49,3.94-3,5.62-4.5a49.72,49.72,0,0,0,4.65-4.65,33.85,33.85,0,0,0,3.55-4.9,22,22,0,0,0,2.29-5.26,3.64,3.64,0,0,0,.07-.44l1.82-1,2.32-1.37c.77-.46,1.54-.92,2.3-1.39q2.26-1.38,4.5-2.81c1.48-.95,2.95-1.9,4.4-2.87l2.43-1.64c.81-.55,1.61-1.1,2.4-1.66q2.37-1.65,4.69-3.35c3-2.21,6-4.51,8.92-6.84.72-.57,1.43-1.15,2.14-1.73s1.4-1.15,2.1-1.74,1.38-1.16,2.06-1.74,1.36-1.16,2-1.75c2.62-2.29,5.22-4.66,7.74-7l2.14-2.05c.72-.69,1.43-1.39,2.13-2.08q2.09-2.07,4.12-4.17c2.68-2.77,5.35-5.65,7.94-8.56,2.39-2.68,4.8-5.49,7.17-8.36,1.88-2.27,3.85-4.72,6-7.46h0c.33-.41.64-.85,1-1.32s.54-.85.8-1.29.47-.81.7-1.23l.66-1.24c.43-.85.85-1.72,1.22-2.58s.75-1.77,1.07-2.65.63-1.82.89-2.71.51-1.84.72-2.76.39-1.87.54-2.81.27-1.86.37-2.82v-.22ZM81,221.23c-.91-.43-1.82-.86-2.72-1.31l-1.33-.67-1.32-.68h0l-1.34-.7L73,217.15c-.86-.47-1.73-1-2.58-1.45s-1.68-1-2.52-1.48-1.63-1-2.43-1.5l-1.28-.82-1.25-.82c-.82-.55-1.63-1.1-2.44-1.67s-1.58-1.12-2.36-1.69-1.52-1.13-2.27-1.71l-1.18-.94-1.17-.94q-1.14-.93-2.25-1.89l-1.09-1-1.06-1-.52-.48-.46-.44a9.47,9.47,0,0,1-.71-.76,7.31,7.31,0,0,1-.91-1.43,10.72,10.72,0,0,1-.77-2,11.69,11.69,0,0,1-.3-1.2c-.1-.45-.18-.89-.25-1.35-.14-1-.23-2-.29-3.08,0-.84-.06-1.73,0-2.64,0-.45,0-.91,0-1.36s0-.94.08-1.41.08-1,.12-1.45l.15-1.49c.11-1,.22-2,.34-3,.24-1.93.52-3.89.83-5.83,0-.07,0-.15,0-.22v0h0c0,.32,0,.64,0,1s0,.76,0,1.14,0,.7,0,1.05h0c0,.22,0,.43,0,.65v.25c0,.58,0,1.17.05,1.75h0v.25q.06,1.6.15,3.24c0,.58.07,1.2.11,1.85,0,.17,0,.35,0,.52a38.83,38.83,0,0,0,.85,5.7v.08c0,.16.07.33.11.48h0l.18.66c0,.09.07.18.1.26a.75.75,0,0,0,0,.16,16.48,16.48,0,0,0,.69,1.53l0,.07c.08.15.15.3.22.45h0c.11.21.24.4.35.59s.2.35.31.52.38.59.59.87.21.31.33.45c.22.3.46.58.7.86.07.08.12.16.19.23a1.85,1.85,0,0,0,.14.14c.27.29.55.58.84.85.07.07.13.15.21.22l.29.25.23.22c.33.28.78.66,1.13.94s.73.57,1.1.85c.72.55,1.44,1.08,2.16,1.61,2.84,2.1,5.84,4.14,8.91,6.08h0l.37.23,0,0,2.28,1.4.64.38,1.15.68,2.78,1.61.42.23.85.47c1.17.64,2.34,1.28,3.55,1.92l.59.3c1.29.68,2.59,1.34,3.91,2l0,0h0l0,0q2,1,4,1.92l1.06.49c1.34.62,2.69,1.22,4.06,1.82l.86.37,2,.86,1.48.61,1.27.53,3.38,1.34.61.23.58.23h0c3.88,1.48,8,2.93,12.16,4.29l3,1,2.2.68.14,0,.05,0,.73.22,1.58.46c.23.07.47.12.7.18l.2.06.1,0,.69.18.72.15.65.13h0l-.08,0c-.31.1-.62.2-.95.29l-.92.23-.93.19-.92.14-.89.08c-.3,0-.6,0-.9,0h0c-.43,0-.85,0-1.28,0s-.82-.06-1.22-.11-.81-.13-1.21-.21l-1.3-.31-1.43-.39-1.48-.41-2.87-.83-2.92-.88-2.86-.91c-1-.31-1.93-.63-2.89-1l-2.83-1-2.85-1c-.93-.35-1.87-.7-2.8-1.07l-2.81-1.12c-.93-.38-1.84-.77-2.76-1.16s-1.85-.8-2.77-1.22l-1.36-.62Zm14.57-7c-1.33-.58-2.63-1.17-3.92-1.76l-1-.46c-1.33-.62-2.64-1.24-3.93-1.88s-2.51-1.26-3.75-1.9l-.61-.32c-1.13-.59-2.25-1.2-3.36-1.81l-.84-.47c-1-.58-2.05-1.16-3.05-1.75l-1.1-.65c-1-.57-1.89-1.15-2.82-1.73l-.93-.59c-1.12-.72-2.24-1.44-3.33-2.19l-1-.71c-1-.73-2.09-1.46-3.11-2.21l-.91-.67-1-.74c-.64-.48-1.27-1-1.9-1.49l-.42-.35-.27-.24-.15-.14a7.8,7.8,0,0,1-.57-.58l-.08-.09c-.18-.2-.34-.4-.5-.6l-.08-.12c-.15-.2-.29-.41-.43-.63a.64.64,0,0,0-.08-.14,10.87,10.87,0,0,1-.73-1.49c-.06-.21-.12-.43-.17-.65v0a27.15,27.15,0,0,1-.5-3c-.08-.68-.14-1.36-.19-2s-.08-1.09-.11-1.65l0-.66q-.06-1.14-.09-2.28L54.48,176a.76.76,0,0,1,0-.15l0-1.67c0-.34,0-.69,0-1,0-.54,0-1.08,0-1.62,0-.09,0-.19,0-.29,0-2.95.12-5.89.31-8.75a.81.81,0,0,1,0-.16c0-.18,0-.36,0-.53.08-1.15.19-2.29.3-3.43q8.37,5,18.59,9.8c8.83,4.19,18.8,8.36,29.63,12.39,16.42,6.1,35.09,12,55.54,17.55-1.43,2-3,4-4.55,6h0c-.61.76-1.23,1.5-1.86,2.24-.11.14-.23.27-.35.41q-.75.88-1.5,1.74l-.56.63-1.4,1.56-.56.61-1.41,1.51-.58.61c-.73.76-1.46,1.51-2.2,2.26h0c-.68.69-1.37,1.38-2.07,2h0l-.92.91-1.27,1.23c-.49.48-1,.95-1.49,1.41l-.79.71-.06,0a27.52,27.52,0,0,1-2.24,1.78l-.22.14q-.39.27-.78.51l-.34.2c-.21.12-.42.24-.64.34l-.34.17a8.15,8.15,0,0,1-.83.17,2.5,2.5,0,0,1-.38.06l-.28,0c-.31,0-.64.05-1,.06h-.61c-.22,0-.45,0-.67,0s-.49,0-.75-.06l-.4,0-.9-.15-.36-.07c-.37-.08-.74-.16-1.13-.27l-.11,0c-.93-.24-2-.54-2.88-.82l-.08,0c-1-.31-2-.62-3-.95l-3-1c-2-.67-4.08-1.37-6.06-2.08l-3-1.1-1.49-.56-.91-.35c-1.28-.5-2.55-1-3.81-1.51L99.74,216c-1.11-.46-2.21-.93-3.3-1.4Zm255.38-75.51-.55.16-.36-.67.6-.21q.69-.24,1.38-.45c1.68-.54,3.43-1,5.33-1.51l-.59.31c-.37.19-.74.36-1.12.54-.71.33-1.46.64-2.29,1S351.69,138.42,350.94,138.67Zm-8.21-52.83,7.28,1,7.25,1q3.63.51,7.26,1t7.24,1.08L379,91.06q3.62.57,7.22,1.17c2.42.4,4.83.8,7.25,1.22l7.2,1.26c2.41.42,4.82.86,7.23,1.3l7.18,1.35,7.21,1.4,3.6.73q-3.18,1.65-6.52,3.3c-5.21,2.56-10.64,5.09-16.59,7.72-5.29,2.34-11,4.75-16.9,7.17-5.53,2.26-11.28,4.53-17.08,6.73-.41.15-.81.3-1.21.43s-.83.27-1.25.39c-.87.24-1.81.44-2.61.6l-1.67.34-1.2.24c-1,.2-2,.42-3,.64-2.1.47-4,1-5.91,1.49-2.06.57-4,1.19-5.81,1.82l-.09,0c-.79.28-1.57.57-2.33.87l-1.18.47-1.15.49-1.17.53-1.13.53c-.77.38-1.53.79-2.28,1.2s-1.54.9-2.24,1.36l-1,.67c-.27.19-.55.37-.83.54s-.47.27-.72.39a9.28,9.28,0,0,1-.85.39c-.65.27-1.34.51-2,.75h0l-.07,0c-12,4-25.13,8.26-39.06,12.56-12.67,3.91-25.91,7.85-39.35,11.71-12.69,3.65-25.63,7.26-39.57,11-12.45,3.38-25.48,6.83-38.73,10.26-22.93-5.72-43.73-11.86-61.83-18.25-11.11-3.93-21.29-8-30.28-12.06a220.15,220.15,0,0,1-20.85-10.73c10-2.87,20-5.66,29.73-8.34,13.08-3.59,26-7,38.43-10.27,12.88-3.35,25.86-6.6,38.58-9.68,13.18-3.2,26.21-6.23,38.73-9h0q7.41-1.65,14.84-3.25l28.54-6,2.33-.46L260,94.3l3-.58L285,89.58q3.64-.67,7.29-1.32L307,85.69l7.4-1.25,7.07-1.16c4.7.53,9.4,1.08,14,1.65Zm-15,120.26c-3.05,1.77-6.39,3.52-9.93,5.21l-2.23,1-2.3,1c-1.58.7-3.2,1.38-4.8,2s-3.39,1.35-5.07,2l-2.64,1-2.71,1c-6.51,2.26-13.4,4.33-20.5,6.14-6.88,1.76-13.94,3.27-21,4.49l-2.56.43c-.86.15-1.72.28-2.58.42-1.75.26-3.5.52-5.26.75-2.71.37-5.43.67-8.13.94l2.28-.44c1.74-.34,3.47-.7,5.2-1.06s3.41-.72,5.12-1.1,3.71-.83,5.56-1.26,3.65-.87,5.48-1.32c3.62-.89,7.23-1.83,10.75-2.8q2.63-.72,5.25-1.48l2.6-.76,2.58-.77q2.55-.77,5.09-1.58c1.67-.53,3.33-1.07,5-1.62.93-.31,1.87-.62,2.79-.94l2.77-.95,2.74-1,2.69-1c1.78-.65,3.54-1.3,5.3-2l2.6-1,2.57-1c3.35-1.33,6.69-2.72,9.94-4.12q2.4-1,4.78-2.1l2.35-1.07,2.32-1.07.68-.32Q331.35,204,327.7,206.1ZM417.12,131c-2.52,2.83-5.12,5.63-7.72,8.32q-2,2-4,4c-.68.68-1.37,1.35-2.06,2l-2.08,2c-2.44,2.31-5,4.61-7.5,6.82l-2,1.7-2,1.69-2,1.68-2.07,1.68c-2.82,2.26-5.73,4.49-8.65,6.62-1.5,1.1-3,2.19-4.54,3.25l-2.32,1.61L367.81,174q-2.12,1.41-4.26,2.78t-4.37,2.73c-.74.46-1.48.9-2.23,1.35l-2.25,1.33q-2.29,1.34-4.6,2.63l-2.34,1.29-2.38,1.29q-2.42,1.29-4.85,2.53c-.83.43-1.65.84-2.48,1.25l-2.51,1.25L333,193.67l-2.59,1.22-2.27,1.05-2.29,1c-1.55.7-3.11,1.38-4.67,2.06-3.18,1.37-6.45,2.73-9.73,4l-2.51,1-2.55,1q-2.58,1-5.19,1.93l-2.64,1-2.68.94-2.71.94-2.74.92q-2.44.81-4.9,1.59c-1.66.53-3.32,1-5,1.55l-2.53.75-2.55.75c-1.71.49-3.43,1-5.15,1.45-3.45.94-7,1.87-10.55,2.74q-2.69.67-5.38,1.3c-1.82.42-3.64.84-5.47,1.24q-2.51.56-5,1.08t-5.11,1c-3.43.68-6.95,1.34-10.45,2q-2.67.48-5.35.93c-1.8.3-3.61.6-5.43.88l-5.5.85-2.79.4-2.81.4c-6.78.95-13.82,1.81-20.91,2.57l-2.69.28-2.72.27c-1.83.19-3.66.36-5.49.53l-5.57.49-2.81.24-2.83.22c-7.18.56-14.69,1.06-22.62,1.49.33-.28.66-.55,1-.84l1.82-1.67,1.77-1.72c.59-.58,1.17-1.17,1.75-1.75,1-1.06,2.3-2.35,3.32-3.42s2.22-2.33,3.31-3.52,2.15-2.35,3.22-3.54,2.13-2.41,3.18-3.63,2.07-2.42,3.09-3.65,2.05-2.48,3.05-3.73,2-2.5,3-3.76,1.95-2.55,2.92-3.83,1.9-2.56,2.84-3.86c.65-.89,1.29-1.8,1.93-2.71,14.63-3.83,26.92-7.1,38.56-10.26l10.13-2.77q4.9-1.35,9.82-2.72t10.12-2.85l9.79-2.8c14-4.06,27-7.94,39.67-11.87q5-1.54,10-3.13l4.84-1.54,4.92-1.6q5.53-1.8,11-3.64l4.75-1.59,3.44-1.17.09,0,.18,0,.66-.2.44-.1c.35-.07.7-.13,1.06-.17a12,12,0,0,1,2,0l1.89.11.82.05c1.09.07,2.05.1,2.94.1h0q.76,0,1.53,0c.58,0,1.06-.06,1.64-.13a27,27,0,0,0,3.22-.57c.5-.12,1-.25,1.48-.39s1-.29,1.47-.45c.89-.29,1.86-.64,2.82-1s1.87-.76,2.74-1.15l1.38-.67,1.39-.74c.89-.5,1.76-1,2.59-1.6l1.24-.86,1.2-.89c.78-.58,1.54-1.18,2.29-1.79l2.14-1.74c.36-.28.71-.57,1.08-.85s.63-.47,1-.68.64-.41,1-.59a1.73,1.73,0,0,1,.27-.15l.46-.21.08-.05.16-.07,0,0,1.4-.55,2.11-.82,4.69-1.87c1.46-.58,2.93-1.17,4.39-1.77L392,126.5l4.35-1.84c1.4-.59,2.79-1.19,4.19-1.8,2.87-1.25,5.72-2.52,8.49-3.78s5.72-2.63,8.43-3.93c3-1.42,5.71-2.76,8.37-4.11s5.54-2.86,8.26-4.34l.42-.22c-.11.32-.2.64-.32,1-.26.72-.56,1.46-.87,2.18s-.66,1.42-1,2.13l-.55,1-.59,1c-.18.31-.37.62-.57.92s-.37.54-.57.8h0c-2.12,2.69-4,5.09-5.89,7.32C421.79,125.65,419.44,128.39,417.12,131Z"/><path class="cls-1" d="M329.13,123.4l-16.2,4.93a3.5,3.5,0,0,0,1,6.85,3.29,3.29,0,0,0,1-.16l16.2-4.93a3.5,3.5,0,1,0-2-6.69Z"/><path class="cls-1" d="M244.08,139.27a3.5,3.5,0,0,0,3.35,2.48,3.65,3.65,0,0,0,1-.15l92.65-28.2a3.5,3.5,0,0,0-2-6.7l-92.65,28.2A3.5,3.5,0,0,0,244.08,139.27Z"/><path class="cls-1" d="M287.72,98.12a3.5,3.5,0,0,0-4.26-2.53L193.3,118.43a3.5,3.5,0,0,0,.86,6.9,3.69,3.69,0,0,0,.86-.11l90.16-22.85A3.5,3.5,0,0,0,287.72,98.12Z"/><path class="cls-1" d="M321.13,99.35l-116.73,32a3.5,3.5,0,0,0,.93,6.88,3.3,3.3,0,0,0,.92-.13L323,106.1a3.5,3.5,0,0,0-1.85-6.75Z"/><path class="cls-1" d="M302.71,131c-2.72,0-4.94,1.73-4.94,3.86s2.22,3.85,4.94,3.85,4.93-1.73,4.93-3.85S305.43,131,302.71,131Z"/><path class="cls-1" d="M336.18,123.21c0,2.12,2.21,3.85,4.93,3.85s4.94-1.73,4.94-3.85-2.22-3.85-4.94-3.85S336.18,121.09,336.18,123.21Z"/></svg>