<svg id="Artwork" xmlns="http://www.w3.org/2000/svg" viewBox="0 0 480 320"><defs><style>.cls-1,.cls-2{fill:#000;}.cls-1{stroke:#000;stroke-width:0.5px;}</style></defs><polygon class="cls-1" points="140.75 189.3 142.52 189.02 144.19 188.47 145.72 187.68 147.06 186.64 148.17 185.41 149.02 184.02 149.58 182.51 149.83 180.92 149.77 179.31 149.39 177.72 148.72 176.21 147.76 174.81 146.55 173.57 145.12 172.53 143.53 171.72 141.8 171.17 140.01 170.89 138.21 170.88 136.44 171.16 134.77 171.72 133.24 172.52 131.9 173.56 130.79 174.79 129.95 176.19 129.39 177.7 129.15 179.29 129.21 180.9 129.59 182.48 130.27 183.99 131.23 185.39 132.44 186.62 133.86 187.65 135.45 188.46 137.17 189.01 138.95 189.29 140.75 189.3"/><polygon class="cls-1" points="158.73 244.96 158.36 243.4 157.69 241.91 156.75 240.54 155.55 239.32 154.15 238.3 152.56 237.5 150.86 236.95 149.09 236.67 147.3 236.66 145.55 236.93 143.89 237.46 142.38 238.24 141.05 239.25 139.95 240.45 139.12 241.81 138.56 243.29 138.32 244.84 138.38 246.42 138.76 247.97 139.43 249.45 140.37 250.82 141.57 252.03 142.97 253.05 144.55 253.84 146.24 254.39 148.01 254.67 149.79 254.69 151.54 254.42 153.19 253.9 154.71 253.12 156.04 252.12 157.14 250.92 157.98 249.56 158.54 248.08 158.79 246.53 158.73 244.96"/><polygon class="cls-1" points="421.23 218.78 420.69 217.58 419.95 216.57 419.04 215.78 417.98 215.23 416.81 214.94 415.56 214.92 414.26 215.18 412.96 215.69 411.71 216.46 410.53 217.45 409.46 218.63 408.53 219.98 407.79 221.44 407.23 222.97 406.89 224.53 406.78 226.07 406.89 227.54 407.23 228.89 407.78 230.09 408.53 231.1 409.45 231.88 410.51 232.42 411.69 232.7 412.94 232.71 414.23 232.44 415.52 231.92 416.77 231.15 417.95 230.16 419.01 228.98 419.92 227.65 420.67 226.19 421.21 224.67 421.55 223.12 421.67 221.59 421.56 220.13 421.23 218.78"/><polygon class="cls-1" points="430.75 154.34 430.2 153.1 429.46 152.05 428.55 151.21 427.49 150.62 426.31 150.29 425.06 150.24 423.76 150.46 422.45 150.95 421.19 151.69 420 152.66 418.93 153.84 418 155.19 417.24 156.66 416.69 158.21 416.35 159.79 416.23 161.35 416.34 162.86 416.68 164.25 417.23 165.49 417.97 166.54 418.89 167.37 419.96 167.95 421.14 168.27 422.4 168.31 423.7 168.08 424.99 167.59 426.25 166.84 427.43 165.87 428.49 164.69 429.41 163.35 430.16 161.9 430.72 160.36 431.06 158.78 431.18 157.23 431.07 155.73 430.75 154.34"/><path class="cls-1" d="M442.57,126.48a3.79,3.79,0,0,0-.2-.34,14.69,14.69,0,0,0-4.51-4.88L309,36.84a4,4,0,0,0-1.55-.6l-25-4a3.78,3.78,0,0,0-.75-.05c-35.24,1-211.26,6-216,7-5,1.06-24,11.5-27.79,13.58-.08,0-.14.1-.22.15l-.37.25a3.31,3.31,0,0,0-.27.26l-.28.29a3.46,3.46,0,0,0-.22.31,2.3,2.3,0,0,0-.21.33,3.54,3.54,0,0,0-.16.34c-.05.12-.1.24-.14.37s-.06.24-.09.37a2.32,2.32,0,0,0-.07.38,3.24,3.24,0,0,0,0,.44c0,.09,0,.18,0,.27l5.73,85.66a22.93,22.93,0,0,0,4.08,11.59l85,121.75c2.46,5.88,15.28,9.77,38.16,11.57h.32A4.08,4.08,0,0,0,170,287a4.34,4.34,0,0,0,.62.06l.35,0h0l225.88-19.8h0a3.12,3.12,0,0,0,.44-.05l.21-.06a5.05,5.05,0,0,0,.55-.18l.1,0,23.12-10.45a13.16,13.16,0,0,0,8-10.53l14.94-110.36A14.56,14.56,0,0,0,442.57,126.48Zm-14-1.76-10,.54a4,4,0,0,0-1.19-1.29l-119-81.1,7,1.13ZM138.05,272.38,124,160.5c-.38-2.61,1.94-6.25,4.67-7.34l19.71-4.61L166,278.8C144.55,276.81,139.09,273.26,138.05,272.38Zm-16.82-123.8-72-92.89c5.74-3,11.23-5.83,14.74-7.4a4,4,0,0,0,.95,2.21l78.61,91-16.55,3.87a9.38,9.38,0,0,0-1.23.38A14.81,14.81,0,0,0,121.23,148.58Zm159-108.38L406,125.93,152.43,139.58,72.16,46.69C96.9,45.52,205.15,42.31,280.19,40.2ZM174.07,278.69,156.29,147.38l255-13.72L393,259.5ZM49.51,141.62l-5.3-79.3,71.48,92.16a3.81,3.81,0,0,0,1,.92,13.14,13.14,0,0,0-.67,6.18l12.12,96.5-76-108.92A14.92,14.92,0,0,1,49.51,141.62Zm386.73-7.24L421.29,244.87a5.2,5.2,0,0,1-3.15,4.17l-.11.05-16.52,7.47,17.93-123.34,16.78-.9A6.46,6.46,0,0,1,436.24,134.38Z"/><path class="cls-1" d="M331.78,160.93a.51.51,0,0,0-.45.55.5.5,0,0,0,.42.44h.13l6.61-.63a.5.5,0,0,0,.45-.55.51.51,0,0,0-.55-.45Z"/><path class="cls-1" d="M330.67,150.77l7.32,4.65a.49.49,0,0,0,.37.06.5.5,0,0,0,.16-.91l-7.31-4.64a.5.5,0,1,0-.54.84Z"/><path class="cls-1" d="M338.23,165.1l-5.94,6.31a.5.5,0,0,0,0,.71.49.49,0,0,0,.35.14.52.52,0,0,0,.35-.16l5.94-6.31a.5.5,0,1,0-.73-.69Z"/><polygon class="cls-1" points="224.62 230.64 224.21 228.58 223.1 226.84 221.42 225.63 219.38 225.1 217.21 225.31 215.19 226.23 213.56 227.76 212.51 229.71 212.17 231.84 212.58 233.9 213.7 235.64 215.38 236.84 217.42 237.38 219.58 237.17 221.6 236.24 223.23 234.72 224.28 232.77 224.62 230.64"/><polygon class="cls-1" points="363.06 213.39 361.43 212.19 359.43 211.66 357.31 211.86 355.33 212.78 353.71 214.29 352.67 216.22 352.31 218.33 352.69 220.37 353.76 222.09 355.39 223.29 357.39 223.82 359.5 223.61 361.49 222.7 363.1 221.19 364.15 219.26 364.5 217.15 364.12 215.11 363.06 213.39"/><polygon class="cls-1" points="243.19 206.27 245.23 206.81 247.39 206.6 249.41 205.68 251.04 204.15 252.09 202.21 252.43 200.07 252.03 198.01 250.92 196.26 249.25 195.04 247.21 194.5 245.05 194.71 243.03 195.63 241.4 197.15 240.35 199.1 240.01 201.24 240.41 203.31 241.52 205.05 243.19 206.27"/><polygon class="cls-1" points="271.38 203.6 273.41 204.13 275.56 203.93 277.56 203.01 279.19 201.49 280.24 199.55 280.59 197.41 280.19 195.35 279.09 193.61 277.43 192.4 275.4 191.86 273.25 192.06 271.24 192.98 269.61 194.5 268.56 196.45 268.21 198.58 268.62 200.64 269.72 202.39 271.38 203.6"/><polygon class="cls-1" points="297.79 199.73 299.44 200.94 301.46 201.48 303.6 201.27 305.6 200.36 307.23 198.84 308.28 196.9 308.63 194.77 308.24 192.71 307.15 190.97 305.49 189.76 303.48 189.22 301.34 189.42 299.33 190.34 297.7 191.86 296.65 193.8 296.31 195.93 296.7 197.99 297.79 199.73"/><polygon class="cls-1" points="325.75 197.09 327.39 198.29 329.4 198.83 331.53 198.63 333.52 197.71 335.14 196.2 336.19 194.26 336.55 192.14 336.16 190.08 335.08 188.35 333.44 187.14 331.43 186.6 329.3 186.8 327.3 187.71 325.68 189.23 324.63 191.17 324.28 193.29 324.67 195.35 325.75 197.09"/><polygon class="cls-1" points="241.95 232.91 243.62 234.11 245.65 234.64 247.8 234.43 249.82 233.51 251.44 231.99 252.49 230.04 252.84 227.92 252.43 225.86 251.33 224.13 249.66 222.92 247.63 222.39 245.47 222.59 243.46 223.52 241.83 225.04 240.78 226.99 240.44 229.12 240.84 231.17 241.95 232.91"/><polygon class="cls-1" points="270.08 230.19 271.74 231.39 273.76 231.92 275.91 231.71 277.91 230.79 279.54 229.27 280.58 227.33 280.93 225.21 280.53 223.16 279.44 221.43 277.78 220.22 275.76 219.69 273.61 219.9 271.6 220.81 269.98 222.34 268.93 224.28 268.58 226.4 268.98 228.45 270.08 230.19"/><polygon class="cls-1" points="305.78 217.53 303.76 217 301.63 217.21 299.63 218.12 298.01 219.64 296.96 221.58 296.61 223.7 297 225.75 298.09 227.48 299.74 228.68 301.76 229.21 303.89 229 305.89 228.08 307.51 226.57 308.56 224.63 308.9 222.51 308.51 220.47 307.43 218.74 305.78 217.53"/><polygon class="cls-1" points="333.66 214.85 331.66 214.32 329.53 214.53 327.54 215.44 325.92 216.96 324.87 218.89 324.52 221.01 324.91 223.05 325.99 224.78 327.63 225.98 329.63 226.5 331.76 226.3 333.75 225.39 335.36 223.87 336.41 221.94 336.76 219.83 336.38 217.78 335.3 216.06 333.66 214.85"/><polygon class="cls-1" points="251.73 251.87 250.07 250.68 248.04 250.15 245.89 250.36 243.88 251.28 242.25 252.81 241.21 254.74 240.86 256.86 241.27 258.91 242.37 260.64 244.04 261.83 246.07 262.35 248.22 262.14 250.22 261.22 251.85 259.7 252.89 257.76 253.24 255.65 252.83 253.6 251.73 251.87"/><polygon class="cls-1" points="279.78 249.12 278.13 247.92 276.11 247.4 273.96 247.61 271.96 248.53 270.34 250.05 269.29 251.98 268.95 254.1 269.35 256.14 270.44 257.86 272.1 259.06 274.12 259.58 276.26 259.37 278.26 258.45 279.88 256.93 280.92 255 281.27 252.88 280.87 250.84 279.78 249.12"/><polygon class="cls-1" points="307.71 246.38 306.06 245.18 304.05 244.66 301.92 244.87 299.93 245.78 298.31 247.3 297.26 249.23 296.91 251.34 297.31 253.38 298.39 255.1 300.04 256.29 302.05 256.81 304.18 256.6 306.17 255.69 307.79 254.17 308.83 252.24 309.18 250.13 308.79 248.1 307.71 246.38"/><polygon class="cls-1" points="335.52 243.65 333.88 242.45 331.88 241.93 329.76 242.14 327.77 243.05 326.16 244.56 325.11 246.49 324.76 248.6 325.15 250.63 326.23 252.35 327.86 253.54 329.86 254.06 331.98 253.85 333.97 252.94 335.58 251.43 336.63 249.5 336.98 247.4 336.59 245.36 335.52 243.65"/><polygon class="cls-1" points="238.13 208.64 235.94 207.47 233.46 206.99 230.88 207.23 228.42 208.18 226.27 209.76 224.61 211.84 223.58 214.26 223.26 216.81 223.66 219.29 224.77 221.5 226.49 223.26 228.68 224.42 231.16 224.9 233.74 224.65 236.19 223.7 238.34 222.12 239.99 220.04 241.02 217.63 241.35 215.09 240.95 212.61 239.84 210.4 238.13 208.64"/><polygon class="cls-1" points="254.72 220.55 256.89 221.71 259.36 222.19 261.93 221.94 264.37 221 266.51 219.42 268.16 217.35 269.19 214.94 269.52 212.4 269.13 209.93 268.03 207.72 266.33 205.96 264.15 204.8 261.68 204.31 259.12 204.56 256.66 205.51 254.52 207.08 252.87 209.16 251.84 211.57 251.51 214.12 251.91 216.59 253.01 218.8 254.72 220.55"/><polygon class="cls-1" points="281 206.49 279.97 208.89 279.64 211.44 280.03 213.91 281.12 216.1 282.82 217.86 284.98 219.02 287.44 219.5 289.99 219.25 292.43 218.3 294.56 216.73 296.21 214.66 297.24 212.26 297.58 209.72 297.19 207.25 296.1 205.05 294.41 203.3 292.25 202.13 289.79 201.65 287.23 201.89 284.79 202.84 282.65 204.41 281 206.49"/><polygon class="cls-1" points="307.65 208.76 308.04 211.23 309.12 213.43 310.8 215.17 312.95 216.33 315.4 216.81 317.94 216.57 320.37 215.62 322.49 214.05 324.14 211.99 325.17 209.59 325.51 207.06 325.13 204.59 324.05 202.4 322.37 200.65 320.22 199.48 317.78 199 315.23 199.24 312.8 200.19 310.67 201.76 309.02 203.83 307.99 206.23 307.65 208.76"/><polygon class="cls-1" points="336.92 201.18 335.88 203.57 335.54 206.1 335.92 208.56 336.99 210.76 338.67 212.5 340.81 213.66 343.24 214.14 345.77 213.89 348.19 212.95 350.31 211.39 351.95 209.32 352.99 206.94 353.33 204.41 352.95 201.95 351.89 199.75 350.22 198.01 348.08 196.84 345.64 196.36 343.11 196.6 340.69 197.54 338.56 199.11 336.92 201.18"/><polygon class="cls-1" points="241.78 242.9 241.37 240.43 240.27 238.23 238.56 236.48 236.38 235.32 233.9 234.85 231.33 235.1 228.87 236.05 226.73 237.63 225.08 239.71 224.05 242.11 223.72 244.65 224.13 247.12 225.24 249.32 226.95 251.06 229.14 252.22 231.61 252.69 234.18 252.44 236.63 251.48 238.77 249.91 240.42 247.83 241.45 245.43 241.78 242.9"/><polygon class="cls-1" points="269.89 240.16 269.49 237.69 268.4 235.5 266.7 233.75 264.53 232.6 262.06 232.12 259.5 232.37 257.06 233.32 254.92 234.9 253.27 236.97 252.24 239.37 251.91 241.91 252.31 244.37 253.41 246.56 255.11 248.31 257.29 249.46 259.75 249.93 262.31 249.68 264.75 248.73 266.88 247.15 268.53 245.08 269.56 242.69 269.89 240.16"/><polygon class="cls-1" points="297.88 237.43 297.49 234.97 296.41 232.78 294.72 231.04 292.56 229.88 290.11 229.41 287.56 229.66 285.12 230.6 282.99 232.18 281.34 234.24 280.31 236.64 279.98 239.17 280.37 241.63 281.46 243.82 283.15 245.56 285.31 246.71 287.76 247.18 290.31 246.93 292.74 245.98 294.87 244.41 296.51 242.35 297.55 239.95 297.88 237.43"/><polygon class="cls-1" points="325.75 234.71 325.37 232.26 324.3 230.07 322.62 228.33 320.48 227.18 318.03 226.71 315.5 226.95 313.07 227.9 310.94 229.47 309.3 231.53 308.26 233.92 307.93 236.45 308.31 238.9 309.39 241.09 311.07 242.82 313.22 243.97 315.66 244.44 318.2 244.19 320.62 243.25 322.74 241.68 324.38 239.62 325.41 237.23 325.75 234.71"/><polygon class="cls-1" points="352.07 227.38 350.4 225.64 348.27 224.49 345.84 224.01 343.31 224.26 340.89 225.2 338.77 226.77 337.13 228.83 336.1 231.21 335.76 233.74 336.14 236.19 337.21 238.37 338.88 240.1 341.01 241.25 343.44 241.72 345.97 241.47 348.38 240.52 350.5 238.96 352.13 236.91 353.17 234.52 353.51 232 353.13 229.56 352.07 227.38"/><path class="cls-1" d="M283.38,168.49l-.88-10.71c-.23-2.82-2.36-4.83-6.36-4.51l-91.81,7.28c-4,.33-5.76,2.87-5.53,5.69l.87,10.72c.23,2.81,2.37,4.83,6.36,4.5l91.82-7.28C281.84,173.85,283.61,171.31,283.38,168.49Z"/><path class="cls-1" d="M380.57,157.8l-6.61-.63a.5.5,0,1,0-.1,1l6.62.63a.56.56,0,0,0,.13,0,.51.51,0,0,0,.41-.45A.49.49,0,0,0,380.57,157.8Z"/><path class="cls-1" d="M381.84,147a.49.49,0,0,0-.69-.16l-7.32,4.65a.5.5,0,0,0,.16.91.58.58,0,0,0,.38-.07l7.31-4.64A.5.5,0,0,0,381.84,147Z"/><path class="cls-1" d="M374.12,162a.5.5,0,0,0-.73.69l5.94,6.31a.47.47,0,0,0,.35.15A.49.49,0,0,0,380,169a.5.5,0,0,0,0-.71Z"/><path class="cls-2" d="M349.41,153.83a1.36,1.36,0,0,0,0-.2l-.15-1.44a.67.67,0,0,0,0-.19l-.45-1.18a.61.61,0,0,0-.15-.24l-.68-.74a.74.74,0,0,0-.38-.22l-.82-.18a.75.75,0,0,0-.49.05l-.82.4a.71.71,0,0,0-.27.22l-.7.91a1.28,1.28,0,0,0-.11.2l-.48,1.3a.5.5,0,0,0,0,.16l-.18,1.48v0l-.6,8.68a.76.76,0,0,0,.05.3l-.05.69c0,.06,0,.11,0,.16a.74.74,0,0,0,0,.21l.14,1.43a1.46,1.46,0,0,0,.05.2l.45,1.17a.61.61,0,0,0,.15.24l.68.74a.73.73,0,0,0,.39.22l.81.19h.17a.71.71,0,0,0,.32-.07l.82-.39a.84.84,0,0,0,.27-.22l.7-.92a.64.64,0,0,0,.11-.2l.48-1.3a.94.94,0,0,0,0-.16l.17-1.48s0,0,0,0,0,0,0,0l.6-8.67a.65.65,0,0,0-.05-.31l.05-.69C349.43,153.93,349.41,153.88,349.41,153.83ZM344.56,164l.59-8.68a.68.68,0,0,0,0-.28l.05-.71h0l.15-1.32.42-1.14.52-.68.43-.2.33.07.42.46.37.95.13,1.34s0,0,0,.05,0,0,0,.06l-.59,8.68a.86.86,0,0,0,0,.28l-.05.71h0l-.15,1.33-.42,1.13-.52.68-.42.21-.34-.08-.42-.46-.36-1-.14-1.34a.08.08,0,0,0,0,0A.25.25,0,0,0,344.56,164Z"/><path class="cls-2" d="M369.62,152.73a.77.77,0,0,0,0-.15.75.75,0,0,0,0-.21l-.15-1.43a.65.65,0,0,0,0-.2l-.45-1.17a1,1,0,0,0-.15-.25l-.69-.73a.71.71,0,0,0-.38-.23l-.81-.18a.73.73,0,0,0-.5.06l-.82.39a.78.78,0,0,0-.26.22l-.71.91a1.28,1.28,0,0,0-.11.2l-.47,1.3a.59.59,0,0,0,0,.17l-.18,1.48v0h0l-.6,8.68a.8.8,0,0,0,0,.31l0,.68a.41.41,0,0,0,0,.16.75.75,0,0,0,0,.21l.15,1.43a.71.71,0,0,0,0,.2l.45,1.17a.79.79,0,0,0,.15.25l.69.73a.7.7,0,0,0,.38.22l.81.19.17,0a.72.72,0,0,0,.32-.08l.82-.39a.73.73,0,0,0,.27-.22l.7-.91a.56.56,0,0,0,.11-.2l.48-1.3a1.36,1.36,0,0,0,0-.17l.18-1.48a0,0,0,0,1,0,0v0l.6-8.67a.65.65,0,0,0-.05-.31Zm-4.87,10,.59-8.68a.66.66,0,0,0,0-.28l.05-.71h0l.16-1.33.41-1.13.53-.69.42-.2.33.08.43.46.36.94.14,1.34s0,0,0,0a.14.14,0,0,1,0,.06l-.58,8.68a.86.86,0,0,0,0,.28l-.05.71h0l-.15,1.33-.42,1.13-.52.68-.42.21-.33-.08-.43-.46-.36-.94-.14-1.34s0,0,0-.05S364.75,162.74,364.75,162.72Z"/></svg>