<?xml version="1.0" encoding="UTF-8"?>
<svg id="Artwork" xmlns="http://www.w3.org/2000/svg" viewBox="0 0 480 320">
  <defs>
    <style>
      .cls-1 {
        fill: #000;
      }
    </style>
  </defs>
  <path class="cls-1" d="m453.63,203.24c0-.05-.01-.1-.02-.15,0-.05,0-.1,0-.15,0-.09-.03-.17-.04-.25-.02-.13-.04-.26-.07-.39-.03-.14-.08-.27-.12-.4-.04-.11-.08-.22-.13-.32-.07-.14-.14-.28-.22-.41-.05-.08-.1-.16-.16-.24-.1-.13-.2-.26-.31-.38-.06-.07-.12-.13-.19-.19-.12-.11-.24-.21-.37-.31-.08-.06-.16-.12-.24-.17-.11-.07-.22-.13-.33-.19.08-.04.15-.1.23-.14.11-.07.22-.13.32-.21.1-.08.2-.16.3-.25.1-.09.19-.17.27-.26.09-.09.16-.19.24-.29.08-.1.15-.21.22-.32.07-.11.12-.22.18-.33.06-.12.11-.23.16-.36.05-.12.08-.25.12-.38.03-.12.06-.25.09-.38.02-.14.03-.27.04-.41,0-.08.02-.16.02-.25l-.03-34.1c0-.05-.01-.1-.02-.15,0-.05,0-.1,0-.15,0-.09-.03-.17-.04-.25-.02-.13-.04-.26-.07-.39-.03-.14-.08-.27-.13-.4-.04-.11-.08-.21-.12-.32-.07-.14-.14-.28-.22-.41-.05-.08-.1-.16-.15-.24-.1-.14-.21-.26-.32-.39-.06-.06-.12-.13-.18-.19-.12-.11-.25-.22-.38-.31-.08-.06-.15-.11-.23-.16-.08-.05-.16-.1-.25-.15.07-.04.13-.08.19-.12.08-.05.17-.1.25-.16.13-.09.24-.19.36-.3.08-.07.15-.14.22-.21.1-.11.19-.23.28-.35.07-.09.13-.17.19-.27.08-.12.14-.25.21-.38.05-.1.1-.21.14-.32.05-.13.09-.27.13-.41.03-.12.06-.23.08-.35.02-.14.03-.28.04-.42,0-.08.02-.16.02-.24l-.02-23.46s0-.04,0-.05c0-.06,0-.12-.01-.18-.01-.18-.03-.35-.06-.53-.01-.08-.03-.15-.05-.22-.04-.16-.09-.32-.15-.47-.03-.07-.05-.13-.08-.2-.1-.21-.21-.42-.34-.61-.02-.03-.05-.06-.07-.09-.12-.17-.26-.33-.41-.47-.02-.02-.04-.05-.06-.07l-.33-.31s-.04-.03-.05-.04c-.14-.12-.28-.23-.43-.34-.07-.05-.14-.1-.21-.15-.13-.08-.27-.14-.41-.21-.1-.05-.2-.1-.3-.13-.12-.04-.24-.07-.36-.1-.14-.03-.27-.07-.41-.09-.07,0-.13-.01-.2-.02l-5.02-2c-.12-.14-.23-.29-.37-.42-.82-.76-1.91-1.13-3.02-1.05l-.26.02-150.4-59.86c-2.65-1.05-5.44-1.52-8.28-1.37l-252.12,12.76s-.05.01-.08.01c-.13,0-.25.03-.37.06-.13.02-.27.04-.4.08-.1.03-.2.07-.3.11-.14.05-.28.1-.41.16-.1.05-.19.11-.28.17-.12.07-.24.14-.36.23-.09.07-.18.15-.26.23-.1.09-.2.18-.3.29-.08.08-.14.18-.21.27-.09.12-.18.24-.25.37-.02.04-.05.07-.07.11-.03.06-.05.13-.08.19-.06.13-.12.27-.17.41-.04.12-.07.23-.1.35-.03.13-.06.25-.08.38-.02.13-.03.27-.04.4,0,.07-.02.13-.02.2v83.08c0,3.9,1.93,7.54,5.15,9.73l114.64,78c0,.09.02.18.03.27.01.11.02.21.04.32.03.14.08.26.12.4.04.11.07.23.11.34.05.11.12.22.18.33.07.12.12.24.2.35.06.09.14.17.21.25.1.12.19.24.3.35.02.01.03.03.04.05l.33.31s0,0,.01,0c.18.17.38.33.6.46.08.05.17.08.25.13.14.07.27.15.41.21.12.05.24.07.36.11.12.03.23.08.35.1.22.04.44.06.66.06.03,0,.06,0,.08,0,0,0,0,0,0,0,0,0,0,0,0,0,0,0,0,0,0,0,.1,0,.2,0,.31-.01l1.18-.09,3.99,2.71s.05.03.08.04c.06.04.13.07.19.11.14.08.28.15.43.21.07.03.14.06.21.08.16.06.32.1.48.14.06.01.12.03.18.04.23.04.45.06.68.06,0,0,.01,0,.02,0,.1,0,.2,0,.3-.01l283.43-21.91c2.08-.16,3.69-1.9,3.69-3.99v-.19s4.03-.31,4.03-.31c.09,0,.17-.03.25-.05.13-.02.26-.04.39-.07.14-.03.27-.08.41-.13.12-.04.23-.08.34-.14.14-.07.27-.14.39-.22.1-.06.2-.12.29-.19.14-.1.26-.22.39-.34.06-.06.12-.1.18-.16l.33-.36c.06-.07.1-.14.16-.21.09-.11.18-.23.26-.35.07-.11.12-.22.18-.33.06-.12.12-.24.17-.36.05-.12.08-.25.12-.38.03-.12.07-.24.09-.37.03-.14.03-.29.04-.43,0-.09.03-.18.03-.27l-.02-23.46Zm-16.06-13.15l-101.79,7.87-.02-19.63,101.79-7.87.02,19.63Zm-287.5-39.77c-.1,0-.19.04-.29.05-.14.02-.29.04-.43.08-.13.03-.25.08-.37.13-.12.05-.24.09-.36.14-.12.06-.24.14-.36.21-.1.06-.21.12-.31.2-.12.09-.23.2-.34.31-.07.06-.14.12-.2.19l-.33.36c-.06.06-.1.14-.15.21-.09.11-.18.23-.26.35-.07.11-.12.22-.18.33-.06.12-.12.24-.17.36-.05.12-.08.25-.12.38-.03.12-.07.24-.09.37-.02.14-.03.28-.04.43,0,.09-.03.17-.03.26l.02,23.46c0,.05.01.1.02.15,0,.05,0,.1,0,.15,0,.09.03.18.05.26.02.12.03.24.06.36.03.14.08.26.12.39.04.11.08.22.13.33.06.13.13.25.2.37.06.1.11.19.18.29.08.11.17.22.27.32.07.08.14.17.22.25.1.1.21.18.32.27.09.07.17.14.26.2.1.06.2.11.3.17-.05.03-.1.07-.15.1-.11.07-.22.13-.32.21-.1.08-.2.16-.3.25-.1.09-.19.17-.27.26-.09.09-.16.19-.24.29-.08.1-.15.21-.22.32-.07.11-.12.22-.18.33-.06.12-.11.23-.16.35-.05.12-.08.25-.12.38-.03.12-.06.25-.09.38-.02.14-.03.27-.04.41,0,.08-.02.16-.02.25l.03,34.1c0,.05.01.1.02.15,0,.05,0,.1,0,.15,0,.09.03.17.05.26.02.12.03.24.06.36.03.14.08.26.12.39.04.11.08.22.13.33.06.13.13.25.2.37.06.1.11.19.18.28.08.12.18.22.27.33.07.08.14.17.22.24.1.1.21.18.32.27.09.07.17.14.26.2.12.08.25.14.38.21,0,0,0,0,0,0-.08.04-.16.1-.24.14-.11.07-.22.13-.32.21-.1.08-.2.16-.3.25-.1.09-.19.17-.27.26-.09.09-.16.19-.24.29-.08.1-.15.21-.22.32-.07.11-.12.22-.18.33-.06.12-.11.23-.16.35-.05.12-.08.25-.12.38-.03.12-.06.25-.09.38-.02.14-.03.27-.04.41,0,.08-.02.16-.02.25v14.03s-110.1-74.92-110.1-74.92c-1.03-.7-1.65-1.87-1.65-3.12v-76.31l116.53,64.18-.81.06ZM44.61,82.59l238.07-12.05c1.69-.08,3.35.19,4.92.81l135.25,53.82-263.86,20.4-114.37-62.99Zm117.49,70.77l275.43-21.29.02,19.77-275.43,21.29-.02-19.77Zm.03,38.38l101.4-7.84.02,19.63-101.4,7.84-.02-19.63Zm.02,27.65l105.71-8.17c2.08-.16,3.69-1.9,3.69-3.99l-.02-27.65c0-1.11-.47-2.18-1.28-2.93-.82-.76-1.92-1.14-3.02-1.05l-105.1,8.12v-2.56s275.43-21.29,275.43-21.29v2.56s-106.1,8.2-106.1,8.2c-2.08.16-3.69,1.9-3.69,3.99l.02,27.65c0,1.11.47,2.18,1.28,2.93.74.69,1.71,1.06,2.72,1.06.1,0,.21,0,.31-.01l105.49-8.15v1.95s-275.43,21.29-275.43,21.29v-1.95Zm.02,29.75l-.02-19.77,275.43-21.29.02,19.77-275.43,21.29Z"/>
  <path class="cls-1" d="m316.8,182.06h-3.48s3.48,0,3.48,0c0-1.95-.81-3.81-2.21-5.11-1.39-1.29-3.29-1.94-5.21-1.79l.54,6.91h0l-.53-6.91-19.69,1.52h0c-3.81.29-6.8,3.54-6.8,7.39h7.37s-.3-3.94-.3-3.94l.3,3.93h-7.37s.01,15.1.01,15.1h0c0,1.95.81,3.81,2.21,5.11,1.26,1.17,2.94,1.82,4.67,1.82.18,0,.36,0,.53-.02l-.29-3.8.29,3.8,19.69-1.52-.57-7.38h0l.57,7.38c3.81-.3,6.8-3.54,6.8-7.39h-3.78s3.78,0,3.78,0v-15.1Zm-30.5,17.1h3.48s0,0,0,0h-3.48Zm4.6-1.16v-13.39s17.9-1.38,17.9-1.38v13.39s-17.9,1.38-17.9,1.38Z"/>
  <path class="cls-1" d="m382.23,188.36c1.7-.13,3.08-1.63,3.07-3.36,0-1.73-1.38-3.02-3.08-2.89s-3.08,1.63-3.07,3.36c0,1.73,1.38,3.02,3.08,2.89Z"/>
  <path class="cls-1" d="m216.84,194.89c-1.7.13-3.08,1.63-3.07,3.36,0,1.73,1.38,3.02,3.08,2.89,1.7-.13,3.08-1.63,3.07-3.36,0-1.73-1.38-3.02-3.08-2.89Z"/>
  <path class="cls-1" d="m196.58,232.07l-15.14,1.17c-.74.06-1.34.72-1.34,1.47v5.66c0,.75.61,1.32,1.35,1.26l15.14-1.17c.74-.06,1.34-.72,1.34-1.47v-5.66c0-.75-.61-1.32-1.35-1.26Z"/>
</svg>