<svg xmlns="http://www.w3.org/2000/svg" viewBox="0 0 480 320"><defs><style>.cls-1{fill:#000;}</style></defs><g id="Layer_1" data-name="Layer 1"><path class="cls-1" d="M441.68,108.75a4,4,0,0,0-1.94-4.06L367,62.75a4,4,0,0,0-2-.53H40.31A4,4,0,0,0,36.49,65a4.17,4.17,0,0,0-.18,1.21h0V193.29l60.08,57a5.25,5.25,0,0,0,5,3.32q19.93.25,40,.25c42.78,0,85.62-.79,127.36-1.55,23.65-.44,47.65-.87,71.79-1.17a3.92,3.92,0,0,0,3.1,0h.49a4.65,4.65,0,0,0,1.69.35,4,4,0,0,0,1.73-.4c29.19-.32,58.56-.43,87.75-.05a4.18,4.18,0,0,0,6.06-3.91c.47-21.93.25-43.48,0-64.33-.24-24-.49-48.81.31-74.05ZM363.89,70.22l58.9,33.93H347.12c-1.38-.34-3.27-.24-6.31-.06-.58,0-1,.06-1.27.06H101.25L53,70.22Zm-26,172.83H196.36V135.72H337.85ZM342.27,128a4.74,4.74,0,0,0-1.41-.24H193.35a4.8,4.8,0,0,0-1.51.27l0-15.84H342.31Zm-298-54,52,36.5c.43,22.15.13,45.41-.16,67.93-.26,20-.52,40.65-.27,60.42L44.31,189.85Zm59.62,171.76c-.42-21.81-.12-44.88.17-67.22.28-22,.57-44.6.19-66.31h79.59l-.36,133.52C157,245.93,130.41,246,103.93,245.68ZM433.43,243c-27.77-.35-55.7-.26-83.47,0l.35-130.91h83.31c-.67,24.13-.45,47.81-.22,70.73C433.59,202.39,433.79,222.52,433.43,243Z"/><path class="cls-1" d="M157.1,160.72H125.31a14.93,14.93,0,0,0-14.92,14.92v7a14.93,14.93,0,0,0,14.92,14.92H157.1A14.94,14.94,0,0,0,172,182.6v-7A14.94,14.94,0,0,0,157.1,160.72ZM164,182.6a7,7,0,0,1-6.93,6.92H125.31a7,7,0,0,1-6.92-6.92v-7a7,7,0,0,1,6.92-6.92H157.1a7,7,0,0,1,6.93,6.92Z"/><ellipse class="cls-1" cx="128.29" cy="179.12" rx="4.97" ry="5.46"/><ellipse class="cls-1" cx="153.62" cy="179.12" rx="4.97" ry="5.46"/><path class="cls-1" d="M399.47,148.8a32.31,32.31,0,1,0,32.3,32.31A32.34,32.34,0,0,0,399.47,148.8Zm0,56.62a24.31,24.31,0,1,1,24.3-24.31A24.34,24.34,0,0,1,399.47,205.42Z"/><circle class="cls-1" cx="399.47" cy="181.11" r="12.42" transform="translate(35.39 425.7) rotate(-58.28)"/></g></svg>