<svg xmlns="http://www.w3.org/2000/svg" viewBox="0 0 480 320"><defs><style>.cls-1{fill:#000;}</style></defs><g id="Layer_1" data-name="Layer 1"><path class="cls-1" d="M442.56,110.7a4,4,0,0,0-1.94-4.07L367.84,64.69a4,4,0,0,0-2-.53H41.19A4,4,0,0,0,37.37,67a4.22,4.22,0,0,0-.18,1.21h0V195.23l60.08,57a5.25,5.25,0,0,0,5,3.32q20,.27,40,.25c42.78,0,85.62-.78,127.36-1.55,23.65-.44,47.65-.87,71.79-1.17a3.81,3.81,0,0,0,3.1,0H345a4.48,4.48,0,0,0,1.69.35,4.09,4.09,0,0,0,1.73-.39c29.2-.33,58.57-.44,87.75-.06a4.16,4.16,0,0,0,4-.13,4.23,4.23,0,0,0,2.05-3.78c.46-21.92.25-43.48,0-64.33-.24-24-.48-48.81.31-74ZM364.77,72.16l58.9,33.93H348c-1.38-.34-3.27-.23-6.3-.06-.58,0-1.05.06-1.28.06H102.13L53.84,72.16ZM338.74,245H197.24V137.66h141.5Zm4.41-115.09a4.74,4.74,0,0,0-1.41-.24H194.24a4.81,4.81,0,0,0-1.52.27l0-15.84H343.2Zm-298-54,52,36.5c.43,22.15.13,45.41-.16,67.94-.26,20-.52,40.65-.27,60.41L45.19,191.8Zm59.63,171.76c-.43-21.81-.13-44.88.16-67.22.29-22,.57-44.6.19-66.31h79.59l-.36,133.52C157.9,247.88,131.29,248,104.82,247.62ZM434.31,245c-27.76-.35-55.69-.26-83.47,0l.36-130.91h83.3c-.67,24.14-.45,47.81-.22,70.73C434.47,204.33,434.67,224.46,434.31,245Z"/><path class="cls-1" d="M158,162.66H126.2a15,15,0,0,0-14.93,14.93v6.95a15,15,0,0,0,14.93,14.93H158a15,15,0,0,0,14.93-14.93v-6.95A15,15,0,0,0,158,162.66Zm6.93,21.88a7,7,0,0,1-6.93,6.93H126.2a7,7,0,0,1-6.93-6.93v-6.95a7,7,0,0,1,6.93-6.93H158a7,7,0,0,1,6.93,6.93Z"/><ellipse class="cls-1" cx="129.18" cy="181.06" rx="4.97" ry="5.46"/><ellipse class="cls-1" cx="154.51" cy="181.06" rx="4.97" ry="5.46"/><path class="cls-1" d="M400.35,150.74a32.31,32.31,0,1,0,32.31,32.31A32.35,32.35,0,0,0,400.35,150.74Zm0,56.62a24.31,24.31,0,1,1,24.31-24.31A24.34,24.34,0,0,1,400.35,207.36Z"/><circle class="cls-1" cx="400.35" cy="183.05" r="12.42" transform="translate(34.16 427.37) rotate(-58.28)"/></g></svg>