<?xml version="1.0" encoding="UTF-8"?><svg id="Layer_1" xmlns="http://www.w3.org/2000/svg" viewBox="0 0 480 320"><defs><style>.cls-1{fill:#000;}</style></defs><path class="cls-1" d="M399.23,122.2c-4.72-21.98-10.04-36.57-16.26-44.59-1.46-2.13-13.24-18-44.04-25.53l-38.15-14.21-.18-.06c-17.51-5.71-37.54-7.56-61.23-5.66-41.6,3.33-115.43,15.37-142.51,58.59-38.54,61.52-8.68,102.99,7.36,125.28l.1,.14c20.22,28.08,31.57,36.93,32.04,37.29l.03-.04c4.89,5.75,9.94,9.79,13.99,13.02,.6,.48,1.17,.93,1.72,1.38,12.9,10.46,30.63,20.76,64.57,20.76,4.73,0,9.78-.2,15.17-.63,26.46-2.1,57.45-11.58,78.79-19.15,5.73-2.04,14.76-6.37,26.84-12.89,23.55-12.71,41.94-32.27,53.17-56.56,11.24-24.31,14.21-50.98,8.59-77.14Zm-217.64-49.17c-2.11-1.09-3.35-2.2-3.59-3.2-.15-.65,.08-1.36,.77-2.31,.83-1.14,2.06-2.06,3.58-2.68,.15-.07,4.11-1.71,33.5-11.02,20.53-6.5,49.36-9.87,65.24-11.34,5.81,.96,11.33,2.29,16.58,4l4.48,1.67c-7.25,.06-15.1,.53-23.57,1.52-33.66,3.94-63.6,12.45-87.75,24.83-3.42,.1-6.83-.23-9.25-1.48ZM111.76,210.81l-.1-.14c-15.82-21.98-42.31-58.76-7.04-115.07,24.95-39.83,95.59-51.14,135.48-54.33,11.16-.89,21.43-.92,30.94-.06-16.38,1.82-38.92,5.07-55.88,10.44-29.76,9.42-33.57,11.03-33.69,11.09-1.89,.77-3.47,1.96-4.55,3.44-1.09,1.49-1.46,2.86-1.15,4.18,.41,1.72,1.96,3.26,4.76,4.71,1.77,.91,3.94,1.4,6.25,1.61-4.16,2.27-8.17,4.65-11.95,7.16-30.5,20.25-48.65,47.73-53.93,81.65-3.95,25.33-2.9,44.16,.71,58.42-2.98-3.78-6.27-8.12-9.85-13.1Zm18.19-43.91c5.37-34.46,31.96-94.33,149.7-108.13,8.53-1,16.36-1.44,23.56-1.44,13.04,0,23.95,1.46,33.04,3.67-25.14-1.33-62.79-.16-103.98,12.09-40.75,12.12-90.51,41.46-96.19,112.41-2.9,36.2,9.49,60.4,21.72,75.14-.54-.44-1.11-.89-1.7-1.36-12.6-10.06-36.05-28.79-26.15-92.38Zm252.38,28.6c-10.39,22.48-27.41,40.58-49.21,52.35-11.67,6.3-20.26,10.44-25.55,12.32-20.82,7.39-50.98,16.63-76.45,18.66-15.02,1.19-27.1,.51-37.03-1.36-2.25-.97-14.76-6.74-26.51-19.51-17.17-18.68-24.7-42.8-22.39-71.71,5.26-65.78,51.67-93.06,89.67-104.37,65.08-19.36,122.57-9.88,130.26-8.46,7.15,4.96,10.16,9.21,10.31,9.42l.22,.3c3.65,4.66,9.15,15.55,14.62,41,5.2,24.2,2.45,48.88-7.95,71.37Z"/><path class="cls-1" d="M227.63,53.07c-4.48-.11-8.86,1-9.79,2.47-.92,1.47,1.96,2.74,6.44,2.85,4.48,.11,8.86-1,9.79-2.47,.92-1.47-1.96-2.74-6.44-2.85Z"/><path class="cls-1" d="M246.13,48.87c-4.76-.25-9.57,.64-10.74,1.98s1.73,2.63,6.49,2.88c4.76,.25,9.57-.64,10.74-1.98,1.17-1.34-1.73-2.63-6.49-2.88Z"/><path class="cls-1" d="M265.47,45.61c-4.74-.33-9.44,.39-10.51,1.62s1.91,2.5,6.65,2.84c4.74,.33,9.44-.39,10.51-1.62s-1.91-2.5-6.65-2.84Z"/><path class="cls-1" d="M290.37,46.67c1.16-1.08-1.91-2.42-6.87-2.99-4.96-.57-9.92-.16-11.08,.92-1.16,1.08,1.91,2.42,6.87,2.99s9.92,.16,11.08-.92Z"/><path class="cls-1" d="M193.44,66.84c-1.59-.04-3.15,.46-3.48,1.13-.33,.66,.69,1.24,2.28,1.28s3.15-.46,3.48-1.13c.33-.66-.69-1.24-2.28-1.28Z"/><path class="cls-1" d="M209.46,58.73c-4.48-.11-8.86,1-9.79,2.47s1.96,2.74,6.44,2.85c4.48,.11,8.86-1,9.79-2.47s-1.96-2.74-6.44-2.85Z"/></svg>