<svg xmlns="http://www.w3.org/2000/svg" viewBox="0 0 480 320"><defs><style>.cls-1{fill:#000;}</style></defs><g id="图层_1" data-name="图层 1"><path class="cls-1" d="M443.58,113.67a4.65,4.65,0,0,0-3.45-.73L344.42,63.65c-2.66-2.08-7-3.69-9.39-3.69H43.09c-5,0-8.72,3.24-8.71,7.62l2,105.65c0,1.84,0,4.79,2.53,6.59l-.18.26,101.65,68.54.18-.26a9.06,9.06,0,0,0,5,1.53h22c4.76,5.25,25,10.15,26.39,0H392c4.76,5.25,25,10.15,26.39,0h18.56c4.72,0,8.72-3.72,8.72-8.13V117.91A4.89,4.89,0,0,0,443.58,113.67ZM336.84,68.51l-.1.19,87.79,45.21h-279a6.7,6.7,0,0,1-1.16-.38,7,7,0,0,0-3.86-.57L52.68,68H335A6.49,6.49,0,0,1,336.84,68.51ZM44.37,173.15,42.45,71.71l94.39,48.34V236.59L44.38,174.25C44.37,174,44.37,173.54,44.37,173.15Zm-.07,1-1.1-.74.14-.27A2.2,2.2,0,0,1,44.3,174.2Zm393.33,67.41a1.19,1.19,0,0,1-.72.28H145.56a1.17,1.17,0,0,1-.72-.28V121.87a5.58,5.58,0,0,0,.72,0H436.91a5.79,5.79,0,0,0,.72,0Z"/><path class="cls-1" d="M354.93,138.68H231.07a7.83,7.83,0,0,0-7.53,7.54v66.05a7.83,7.83,0,0,0,7.53,7.54H354.93a7.84,7.84,0,0,0,7.54-7.54V146.22A7.84,7.84,0,0,0,354.93,138.68Z"/><circle class="cls-1" cx="188.98" cy="212.96" r="12.73" transform="translate(-31.67 33.02) rotate(-9.22)"/><circle class="cls-1" cx="399.16" cy="178.07" r="7.67"/><path class="cls-1" d="M399.16,161.55a4.13,4.13,0,1,0-4.13-4.13A4.13,4.13,0,0,0,399.16,161.55Z"/><path class="cls-1" d="M383.61,200.86a4.13,4.13,0,1,0,4.13,4.12A4.12,4.12,0,0,0,383.61,200.86Z"/><path class="cls-1" d="M420.81,207.26a4.13,4.13,0,1,0,4.13,4.13A4.13,4.13,0,0,0,420.81,207.26Z"/><path class="cls-1" d="M399.16,194a4.13,4.13,0,1,0,4.13,4.13A4.13,4.13,0,0,0,399.16,194Z"/><path class="cls-1" d="M382.65,178.07a4.13,4.13,0,1,0-4.13,4.12A4.13,4.13,0,0,0,382.65,178.07Z"/><path class="cls-1" d="M419.8,182.19a4.13,4.13,0,1,0-4.12-4.12A4.12,4.12,0,0,0,419.8,182.19Z"/></g></svg>