<svg xmlns="http://www.w3.org/2000/svg" viewBox="0 0 480 320"><defs><style>.cls-1{fill:#000;}</style></defs><g id="Layer_1" data-name="Layer 1"><path class="cls-1" d="M458.41,148.19l-105-48.34a4,4,0,0,0-1.67-.36H47.62a3.64,3.64,0,0,0-.74.07l-.24.06-.46.14-.25.12a3,3,0,0,0-.4.21c-.07,0-.15.09-.22.15a3.79,3.79,0,0,0-.39.31l-.16.14a4.7,4.7,0,0,0-.45.55l0,.06a3.91,3.91,0,0,0-.31.57,2.5,2.5,0,0,0-.09.25,2.85,2.85,0,0,0-.12.31s0,.09,0,.14a2.56,2.56,0,0,0-.05.27,2.83,2.83,0,0,0,0,.5s0,.1,0,.15v66.69a4,4,0,0,0,2,3.44l79.29,47.27a7.34,7.34,0,0,0,5.67,2.77H149.1c-.09,2.86.43,4,1.38,5,.59.59,1.82,1.83,11.05,2.19.85,0,1.76.06,2.71.06,4,0,8.85-.38,12.67-1.82l2.6-1v-4.42H410.19c-.08,2.86.43,4,1.38,5,.59.59,1.82,1.83,11.06,2.19.84,0,1.75.06,2.7.06,4,0,8.85-.38,12.67-1.82l2.6-1v-4.42h16.74a7.4,7.4,0,0,0,7.39-7.39V155.49A7.38,7.38,0,0,0,458.41,148.19ZM350.9,107.49l88.2,40.61H131.27l-69-40.61ZM131.71,215.67l-.49-.3-.43-59.27h80.29v59.57Zm87.37-59.57H367.45v59.57H219.08ZM51.62,110.48l71.71,42.23a7.31,7.31,0,0,0-.54,2.83l.39,55L51.62,167.91ZM456.73,215.67H375.45V156.1h81.28Z"/><rect class="cls-1" x="228.11" y="163.2" width="130.3" height="45.85" rx="2.9"/><circle class="cls-1" cx="175.03" cy="185.88" r="8.69"/></g></svg>