<?xml version="1.0" encoding="UTF-8"?><svg id="Layer_1" xmlns="http://www.w3.org/2000/svg" viewBox="0 0 480 320"><defs><style>.cls-1{fill:#000;}</style></defs><path class="cls-1" d="M266.6,122.82c-5.23-3.73-12.82-5.64-16.95-4.27-4.13,1.37-3.24,5.5,1.99,9.23,5.23,3.73,12.82,5.64,16.95,4.27,4.13-1.37,3.24-5.5-1.99-9.23Z"/><path class="cls-1" d="M286.92,116.09c-5.23-3.73-12.82-5.64-16.95-4.27-4.13,1.37-3.24,5.5,1.99,9.23,5.23,3.73,12.82,5.64,16.95,4.27s3.24-5.5-1.99-9.23Z"/><path class="cls-1" d="M306.86,109.48c-5.23-3.73-12.82-5.64-16.95-4.27s-3.24,5.5,1.99,9.23c5.23,3.73,12.82,5.64,16.95,4.27,4.13-1.37,3.24-5.5-1.99-9.23Z"/><path class="cls-1" d="M327.18,102.75c-5.23-3.73-12.82-5.64-16.95-4.27s-3.24,5.5,1.99,9.23c5.23,3.73,12.82,5.64,16.95,4.27,4.13-1.37,3.24-5.5-1.99-9.23Z"/><path class="cls-1" d="M347.12,96.15c-5.23-3.73-12.82-5.64-16.95-4.27-4.13,1.37-3.24,5.5,1.99,9.23,5.23,3.73,12.82,5.64,16.95,4.27,4.13-1.37,3.24-5.5-1.99-9.23Z"/><path class="cls-1" d="M421.91,141.87c-4.5-24.68-21.09-46.41-49.32-64.57C290.22,24.28,240.04,27.48,199.47,34.64c-39.35,6.94-95.02,20.22-123.98,55.2-.52,.63-1.02,1.25-1.51,1.88-17.74,22.63-22.05,53.59-11.25,80.8,14.12,35.56,38.13,65.27,69.44,85.91,30.82,20.32,67.81,30.91,107.61,30.91,3.99,0,8.01-.11,12.05-.32,53.08-2.81,92.58-25.54,116.36-44.11,25.12-19.62,38.22-38.44,39.38-40.15,1.57-2.15,20.52-29.03,14.34-62.88Zm-39.08-43.81c-5.24,8.07-20.5,28.59-45.94,38.74-55.84,22.28-131.43,33.58-224.68,33.58-19.42,0-29.94,3.72-35.63,7.45-1.43-3.07-2.77-6.15-3.99-9.22-.91-2.3-1.7-4.64-2.37-6.99,5.58,1.92,13.28,3.66,22.96,3.66,4.2,0,8.76-.33,13.68-1.11,26.17-4.15,77.14-25.76,107.6-38.67,2.64-1.12,5.11-2.17,7.4-3.13,16.35-6.9,31.05-10.85,46.61-15.04,14.78-3.98,30.06-8.09,46.81-14.92,19.59-7.99,31.26-13.9,35.44-16.1,5.22,3.06,10.59,6.35,16.13,9.91,5.9,3.8,11.21,7.75,15.98,11.84Zm-300.5,.2c.43-.55,.88-1.1,1.33-1.65,12.8-15.46,38.93-37.62,117.65-51.51,35.49-6.26,75.36-9.09,138.27,24.94-5.98,2.92-15.4,7.28-28.31,12.55-16.14,6.58-31.1,10.61-45.56,14.5-15.22,4.1-30.96,8.33-47.98,15.51-2.29,.97-4.77,2.02-7.41,3.14-30.01,12.72-80.23,34.01-105.12,37.96-19.95,3.16-32.7-2.09-37.36-4.55-1.84-18.11,3.18-36.44,14.48-50.87Zm316.64,100.28l-.14,.2c-.13,.19-12.92,18.94-37.48,38.05-22.53,17.53-59.92,38.98-110.08,41.63-86.72,4.59-142.73-41.12-169.85-91,2.83-2.28,10.73-6.43,30.79-6.43,35.26,0,142.56,0,228.61-34.33,26.76-10.67,43.13-31.19,49.86-41.21,11.27,11.72,18.24,24.5,20.77,38.21,5.53,29.97-12.31,54.64-12.48,54.88Z"/></svg>