<svg id="Layer_1" data-name="Layer 1" xmlns="http://www.w3.org/2000/svg" viewBox="0 0 480 320"><defs><style>.cls-1{fill:#000;}</style></defs><title>Stack Audio - Link</title><path class="cls-1" d="M451.28,149.73a12.83,12.83,0,0,0-.45-4.35c.07-5.41-6-8.67-7.23-9.29l-.23-.1S306.93,79.29,287.92,71.41c-19.63-8.15-46.26-2-48.31-1.53L77.84,102.06C50.72,106.93,42,111,39.72,115.42c-4.73,2.77-10.12,6.88-9.81,12.5a7.43,7.43,0,0,0,.2,1.36c.27,8.53,1.08,33.66,1.45,39.57C32.13,178,42,182.18,43.19,182.64c1.8.77,27.37,11.76,48.82,24.82a158.52,158.52,0,0,0,31.77,26.81c17.08,11.08,43.54,23.62,75.83,23.62q4.68,0,9.52-.37c47.61-3.65,184.64-37.49,193.92-39.79,11.57-2,20.8-3.62,26.45-4.8,2.29-.42,22.35-4.47,22.3-17C451.8,192.24,451.34,154.75,451.28,149.73ZM38.05,127.08c.3-.57,1.19-1.78,3.77-3.53a27.83,27.83,0,0,0,7.51,3.93c.59.23,1.11.43,1.57.63,7.74,3.3,37.09,19.18,57.34,35.38a189.79,189.79,0,0,0,29.83,19.26l1.12.55a131.42,131.42,0,0,1-30.3-16.81c-23.28-17.41-62.48-34.21-64.14-34.91l-.69-.29c-4.26-1.77-5.58-2.9-6-3.47C38.06,127.54,38.05,127.3,38.05,127.08Zm41.24-17.15,162-32.22.17,0c.26-.06,25.83-6.17,43.44,1.13,18.67,7.74,150.62,62.57,155.31,64.52a10,10,0,0,1,2.36,1.74c0,.09,0,.18.05.27-.85.78-3.79,2.71-13,4.63-28,5.84-178.66,34.66-180.18,34.95l-.26.06c-.35.09-35.74,9.06-83.77-1.1a92.48,92.48,0,0,1-23.6-8.21,181.37,181.37,0,0,1-28.53-18.42C92.4,140.57,62.05,124.17,54.1,120.79c-.48-.22-1.12-.48-1.85-.76a40.42,40.42,0,0,1-4.17-1.84C50.66,116.69,58.09,113.74,79.29,109.93ZM208.52,249.55c-24,1.84-45.21-4-62.46-12.1a178.34,178.34,0,0,0,55.67,8.5,211.3,211.3,0,0,0,28-1.88c15.89-2.15,37.79-5.3,61.39-8.81C258.43,242.18,226.55,248.16,208.52,249.55ZM428,205.08c-5.66,1.18-14.92,2.85-26.52,4.81h0c-46.5,7.87-130.65,20.55-172.72,26.24-26.41,3.56-76.88,4.92-118.22-26C87.24,192.81,47.94,176,46.28,175.26l-.12,0c-.07,0-6.35-2.61-6.61-6.86s-.81-19.88-1.17-30.82c1,.47,1.88.85,2.62,1.15l.61.26c1.62.69,40,17.12,62.49,34,31.62,23.56,68,29.37,96.1,29.36a210.36,210.36,0,0,0,28-1.88c49.75-6.71,155.34-28.81,190-36.07l6.22-1.3c9-1.87,14.94-3.44,18.94-5.09.16,12.7.43,35.29.43,38.08C443.82,200.33,433.55,204,428,205.08Z"/><path class="cls-1" d="M239.86,137.74c9.78-.27,17.63-2.79,17.56-5.65s-8.07-5-17.84-4.68S222,130.2,222,133.05,230.09,138,239.86,137.74Z"/><path class="cls-1" d="M94.27,172.67a4.93,4.93,0,0,0-3,1.22,4.53,4.53,0,0,0-4.45-3.28h0c-2.29.1-4.53,2.06-4.39,5.63s2.43,5.26,4.66,5.26h.17a4.35,4.35,0,0,0,1.57-.37v.17a12.11,12.11,0,0,0,1,4.6,5.55,5.55,0,0,0,4.94,3.54H95a5.51,5.51,0,0,0,4.83-3.93,13.13,13.13,0,0,0-.38-9.29A5.5,5.5,0,0,0,94.27,172.67Z"/><path class="cls-1" d="M63.69,155.8A5,5,0,0,0,59.74,158c-.43-3.06-2.6-4.59-4.73-4.51h0c-2.29.1-4.53,2.06-4.38,5.63s2.42,5.26,4.66,5.26h.17a4.4,4.4,0,0,0,2.75-1.18c0,.38,0,.78,0,1.19a12.11,12.11,0,0,0,1,4.6,5.55,5.55,0,0,0,4.93,3.54h.2a5.53,5.53,0,0,0,4.84-3.93,13.13,13.13,0,0,0-.38-9.29A5.51,5.51,0,0,0,63.69,155.8Z"/><path class="cls-1" d="M76.17,164.39a4.48,4.48,0,0,0-4,3,7,7,0,0,0,.21,5.16,4.48,4.48,0,0,0,4.05,2.7h.18c2.29-.09,4.53-2.05,4.39-5.63S78.46,164.3,76.17,164.39Z"/><path class="cls-1" d="M150.48,201.63s-9.82-3-13.06-4.42c-2.8-1.23-11.26-5-11.26-5a4,4,0,0,0-5.52,3.55l-.35,12a3.89,3.89,0,0,0,2.19,3.64s8.5,4.51,11.48,6,12.36,5.09,12.36,5.09a4,4,0,0,0,5.74-3.29l.83-13.63A4,4,0,0,0,150.48,201.63Z"/></svg>