<svg id="Layer_6" data-name="Layer 6" xmlns="http://www.w3.org/2000/svg" viewBox="0 0 480 320"><defs><style>.cls-1{fill:#000;}</style></defs><title>MSB Technology - Analog DAC</title><path class="cls-1" d="M226.47,42.51c-4.38,0-8.27,2.49-10.79,6.36a15.25,15.25,0,0,0,0,20.48c2.52,3.86,6.41,6.35,10.79,6.35,7.57,0,13.73-7.44,13.73-16.59S234,42.51,226.47,42.51Zm-9.74,16.6c0-4.75,2.92-8.62,6.51-8.62s6.51,3.87,6.51,8.62-2.92,8.61-6.51,8.61S216.73,63.86,216.73,59.11Zm9.74,13.59a8.31,8.31,0,0,1-1.51-.15c5.53-1,9.79-6.63,9.79-13.44S230.49,46.65,225,45.66a8.31,8.31,0,0,1,1.51-.15c5.92,0,10.73,6.1,10.73,13.6S232.39,72.7,226.47,72.7Z"/><path class="cls-1" d="M314.47,266.84l-.2-.5-.79-1.49-1-1.37-1.21-1.18-1.28-.93,0-.16a2.5,2.5,0,0,0,.05-.29l.06-.4h0s0-.09,0-.14l6.2-236.58c0-.12,0-.22,0-.33h0v-.08h0l0-.37-.14-.44c0-.14-.08-.28-.14-.42l-.18-.56-.63-.91-.57-.54-1-.6-.32-.12h0l-.23-.08-.15-.05L276,9.65l-.26,0h0l-.33,0h0l-.17,0h-.28l-.14,0-.27,0h-.06l-91.61,7.16h-.18l-.16,0h-.08l-.19.06-.26.06-.22.07-.26.08-.68.35-.68.52-.57.64L179,19.59l-.23.87,0,.54h0a1.21,1.21,0,0,0,0,.19s0,.08,0,.12l5.82,245.31-.1.07-1.87,1.65.78.82-.06,0-.78-.77-.75.76-.77,1.24-.45,1.3-.08.92h0a3.71,3.71,0,0,0,0,.47l.16,6.37c0,.13,0,.26,0,.39h0l.12.92.52,1.28.72,1.05.95.91.8.54.81-1.2h.14l.13,0-.77,1.4,3.68,2,4,2.06,4.29,2,4.53,2,4.77,1.9,4.91,1.81,5.22,1.78,5.34,1.67,5.54,1.59,5.85,1.55,6,1.46,6.22,1.36,6.39,1.27,6.53,1.16,6.67,1.05,6.71.93.55-4-.33,4,1.62.14,1.63,0,1.77-.17,1.71-.33,1.34-.4,1.22-.51,1.16-.64,1.09-.82v0a2.65,2.65,0,0,0,.26-.21l30-28.68c.08-.08.14-.18.22-.26h0l.57-.64.59-1.05.38-1.13.06-.82h0a.68.68,0,0,1,0-.14l.17-6.23a4.1,4.1,0,0,0-.29-1.6Zm-40-249.3,33.73,8.81-.81,30.85a3.9,3.9,0,0,0-.28,3.41L273.6,58.12h-.26l-29,.88h-.05a1.9,1.9,0,0,0-.25,0l-.25,0-.2.07-.26.1-.17.1-.24.14a2,2,0,0,1-.16.14l-.19.18-.14.18a1.59,1.59,0,0,0-.15.21,1.24,1.24,0,0,0-.1.2,2.4,2.4,0,0,0-.11.23,1.8,1.8,0,0,0-.06.22,2.13,2.13,0,0,0-.07.27.06.06,0,0,1,0,0l-.28,2.08-.28,1.39L241,66l-.45,1.34-.52,1.29-.58,1.23L238.83,71l-.72,1.11-.78,1-.8.92-1.86,1.73-1,.73h0l-.77.58-.09.09-.1.08L232,78l-.09.1-.08.08-.66.74a.61.61,0,0,1-.07.1l-.08.09-.58.81s0,.07-.06.1l-.07.09-.52.88s0,.07-.05.1l-.06.1-.44.93s0,.07,0,.1a.47.47,0,0,1-.05.1l-.37,1s0,.07,0,.1a1,1,0,0,0,0,.1l-.29,1s0,.06,0,.1l0,.1-.21,1a.31.31,0,0,1,0,.1.3.3,0,0,1,0,.1L228,87a.34.34,0,0,0,0,.1.36.36,0,0,0,0,.1l0,1.08v.1L229,273a4,4,0,0,0-2.52,0L224.85,88.23v0s0,0,0-.05l0-1.07a.44.44,0,0,0,0-.1v-.09l-.13-1.06,0-.1a.38.38,0,0,0,0-.1l-.21-1,0-.09s0-.07,0-.1l-.3-1,0-.09s0-.06,0-.1l-.38-1s0-.06,0-.1a1,1,0,0,1,0-.1l-.45-.92S223,81,223,81a.93.93,0,0,0-.05-.1l-.51-.87a.71.71,0,0,0-.07-.09s0-.07-.05-.1l-.59-.81-.07-.09-.07-.09L221,78.1s-.06,0-.08-.08l-.08-.09-.69-.66-.1-.08-.09-.09-.74-.57h0l-1-.75-.88-.77-.83-.85-.78-.92-.74-1-.68-1L213.66,70l-.56-1.18-.49-1.22-.42-1.27-.35-1.31-.27-1.3-.23-1.93a.5.5,0,0,0,0-.12c0-.08,0-.17-.06-.26a1.87,1.87,0,0,0-.07-.22,1.47,1.47,0,0,0-.1-.22l-.12-.22-.13-.19c-.05-.06-.1-.13-.16-.19l-.16-.15-.2-.16-.19-.12a.94.94,0,0,0-.22-.12l-.21-.09-.24-.07-.23,0-.26,0h-.14l-21.21.29-.85-35.52Zm-82,247L187.73,64.91l18.92-.26v0l.31,1.48s0,0,0,.07a.2.2,0,0,1,0,.07l.39,1.45,0,.08s0,0,0,.06l.47,1.41,0,.08s0,0,0,.06l.55,1.37,0,0,0,.1.63,1.31,0,0s0,.06,0,.09l.7,1.26,0,0,.05.09.77,1.2,0,.05a.56.56,0,0,1,0,.08l.83,1.13.06.06a.56.56,0,0,1,.05.08l.9,1,.06.06s0,0,.06.07l1,1,.07,0,.06.07,1,.9a.24.24,0,0,1,.08.06s0,0,.07.05l1,.79h0l.64.5.52.49.49.57.45.63.41.68.35.74.3.78.24.83.18.85.11.86,0,.91,1.57,184.17ZM234.42,276a4.19,4.19,0,0,0-.46-.83L233,88.43l0-.93.1-.86.16-.85.24-.83.29-.78.35-.73.41-.69.46-.63.49-.56.53-.49.66-.51,1.08-.8.1-.09.12-.09L240,77.67a1.09,1.09,0,0,0,.1-.11l.09-.08.94-1.09a.56.56,0,0,1,.05-.08l.06-.06.88-1.17a.56.56,0,0,1,.05-.08l0-.06.81-1.25a.3.3,0,0,1,0-.08l0-.06.74-1.31a.42.42,0,0,1,0-.1l0,0,.66-1.38,0-.09s0,0,0-.05l.58-1.44s0,0,0-.06l0-.08.5-1.49a.13.13,0,0,1,0-.06l0-.08.4-1.53a.15.15,0,0,0,0-.07l0-.08.31-1.55s0,0,0-.07a.29.29,0,0,1,0-.09v0l22.78-.68-2.1,221.81Zm40.92,5.86,2.07-218.48,29.81,2.21-5.06,193Zm2,19.59-.23.19-.26.15-1,.36-.91.19-1,.1H272.9l-1.14-.09-6.53-.9-6.51-1-6.39-1.13-6.22-1.24-6.06-1.33-5.88-1.41-5.68-1.51-5.37-1.54L218,290.69,213,289l-4.72-1.74-4.56-1.82-4.31-1.86-4.07-1.91-3.81-1.93-3-1.64-.1-4.31.47-.44,1.33-1,.12-.07,32.91,9,.2,0,.21,0a3.47,3.47,0,0,0,.64.06h.06a3.4,3.4,0,0,0,.45,0l2.94-.38h0a3.84,3.84,0,0,0,.56.91l.14.15a4,4,0,0,0,.36.35l.19.15a3.4,3.4,0,0,0,.45.28l.15.09a4.22,4.22,0,0,0,.67.26l0,0,40,10.95.12,0h.07l.09,0,.12,0h.09a3.52,3.52,0,0,0,.56,0h0l.15,0,.44,0h0a2,2,0,0,0,.24,0h0l.22,0,.16-.05.14,0h0l.17-.07.46-.15.27-.17a3.73,3.73,0,0,0,.6-.37l.13-.08h0s.08-.05.11-.09l29.66-25.73,1.08.42.48.22.54.41.44.53,0,.1-.11,4.31Z"/><path class="cls-1" d="M208.44,58.06a2.09,2.09,0,0,0,.43,0A2.51,2.51,0,0,0,211.33,56l.24-1.39.3-1.29.37-1.26.44-1.24.5-1.19.57-1.15.63-1.08.68-1,.74-1,.78-.91.83-.84.87-.76.91-.69.93-.6,1-.53,1-.44,1-.36,1-.27,1-.18,1-.1h1l1,.08,1,.17,1,.25,1,.35,1,.43,1,.52,1,.61.92.69.88.78.84.86.8.93.75,1,.68,1.06.63,1.15.57,1.2.49,1.25.42,1.29.35,1.34.29,1.43a2.5,2.5,0,0,0,2.45,2,2.09,2.09,0,0,0,.49,0,2.5,2.5,0,0,0,2-2.94l-.3-1.5a.14.14,0,0,0,0-.07s0,0,0-.08L246,51s0-.05,0-.08a.64.64,0,0,1,0-.07l-.47-1.44,0-.07s0,0,0-.07l-.55-1.39a.43.43,0,0,0,0-.07.26.26,0,0,0,0-.08l-.63-1.34a.43.43,0,0,1,0-.07l0-.07L243.42,45a.43.43,0,0,0,0-.07l0-.07-.78-1.22-.05-.07a.25.25,0,0,1,0-.07l-.85-1.15-.06-.06-.05-.07-.91-1.07-.06-.06s0-.05-.06-.07l-1-1-.07-.05-.07-.07-1-.9-.08-.06-.06-.06-1.07-.81-.08,0L237,38l-1.12-.71-.08,0-.08-.05-1.16-.62-.09,0-.09,0-1.18-.52-.1,0-.09,0-1.21-.41-.1,0-.1,0-1.22-.31h-.11a.29.29,0,0,0-.1,0l-1.24-.2h-.11l-.1,0-1.25-.09h-1.67l-1.24.12-.11,0h-.1l-1.23.22a.29.29,0,0,0-.1,0h-.1l-1.22.33-.1,0-.09,0-1.2.42-.09,0a.32.32,0,0,1-.09,0l-1.17.53-.08,0-.09,0-1.13.62-.09.06-.08,0-1.09.71s0,0-.07,0l-.08.05-1.05.8-.07.06-.07,0-1,.89L214,40l-.07,0L213,41l-.05.07-.07.06-.89,1-.05.07,0,.06L211,43.44l0,.06s0,0,0,.07l-.77,1.17,0,.07,0,.06-.71,1.23a.36.36,0,0,1,0,.07l0,.06-.63,1.28,0,.07,0,.07L208.05,49a.19.19,0,0,0,0,.07.43.43,0,0,0,0,.07l-.48,1.37a.64.64,0,0,0,0,.07l0,.06L207.05,52a.13.13,0,0,1,0,.06.25.25,0,0,0,0,.07l-.34,1.43v.07a.14.14,0,0,0,0,.07l-.26,1.45A2.49,2.49,0,0,0,208.44,58.06Z"/></svg>