<svg xmlns="http://www.w3.org/2000/svg" viewBox="0 0 480 320"><defs><style>.cls-1{fill:#000;}</style></defs><title>Steinway Lyngdorf P200</title><g id="Layer_5" data-name="Layer 5"><path class="cls-1" d="M431.55,123.31a7.43,7.43,0,0,0-6.24-1.55l-3.56.72-.28-.19L300.3,56.09a4,4,0,0,0-2.58-.44L33.28,100.32l-.21,0a4,4,0,0,0-4,4v85.75a4,4,0,0,0,1.73,3.29l113.6,78.42a3.76,3.76,0,0,0,.79.42,7.47,7.47,0,0,0,7.14,5.33,7.18,7.18,0,0,0,1.59-.18l128.47-27.84.52-.11,11.45-5.92,12.65.7L427.71,218a7.43,7.43,0,0,0,5.89-7.24l.67-81.62A7.44,7.44,0,0,0,431.55,123.31Zm-5.29,6.42-.36,44.53-102,20.87-.12-.66a4.07,4.07,0,0,0-.13-.5l-.86-2.6a5.49,5.49,0,0,0-.21-.51l-1.21-2.39a3.5,3.5,0,0,0-.29-.49l-1.54-2.14a5.63,5.63,0,0,0-.38-.45l-.29-.62a3.73,3.73,0,0,0-.16-.35l-1.34-2.49a3.4,3.4,0,0,0-.28-.45l-1.66-2.25a4.59,4.59,0,0,0-.36-.41l-2-2a3.62,3.62,0,0,0-.42-.36l-2.23-1.66a2.83,2.83,0,0,0-.47-.29l-2.48-1.33a4.25,4.25,0,0,0-.49-.21l-2.7-1a2.85,2.85,0,0,0-.5-.14l-2.87-.6-.49-.07-3-.21H297l-3.1.18a3.29,3.29,0,0,0-.44.05l-3.15.57-.41.1-3.15,1-.38.14-3.1,1.32-.35.17-3,1.68a3.28,3.28,0,0,0-.31.2l-2.87,2a3.15,3.15,0,0,0-.29.22l-2.69,2.31-.26.24L271,183.73a2.85,2.85,0,0,0-.23.26l-2.21,2.8a2.64,2.64,0,0,0-.21.29l-1.92,3-.18.31-1.6,3.13-.15.33-1.25,3.22a2.29,2.29,0,0,0-.12.37l-.9,3.26c0,.13-.06.26-.08.39l-.52,3.26a2.87,2.87,0,0,0-.05.41l-.14,3.16L152.87,230.14V185.26ZM296.14,222.15l-2.1.16-2-.14-1.83-.43-1.67-.69-1.48-1-1.29-1.18-1.08-1.41-.86-1.65-.6-1.86L282.9,212l0-2.21.28-2.31.6-2.37.92-2.37,1.23-2.31,1.5-2.19,1.75-2,2-1.8,2.1-1.53,2.21-1.24,2.25-.92,2.24-.6,2.18-.26,2.06,0,1.91.36,1.74.62,1.54.89,1.34,1.12,1.13,1.35.92,1.57.67,1.78.41,2,.13,2.12-.17,2.23-.48,2.3-.78,2.31-1.07,2.27-1.34,2.17-1.59,2-1.79,1.85-2,1.63-2.09,1.36-2.17,1.09-2.19.78ZM144.87,202.67,37.07,128.14V111.43l107.8,73.67ZM37.07,137.86l107.8,74.53v25.77L37.07,163.64ZM297.68,63.77l112,61.17L150.85,177.51a7.08,7.08,0,0,0-1.92.68L44.18,106.6ZM37.07,188V173.36l107.8,74.53v14.48Zm243.11,53.84L152.87,269.38V238.31l110-22.51.83,2.79,0,.07,1.31,2.55a3.35,3.35,0,0,0,.27.45l1.64,2.3a3.47,3.47,0,0,0,.34.42l1.93,2a4.59,4.59,0,0,0,.41.36l2.2,1.7a3.52,3.52,0,0,0,.45.3l2.43,1.36a5.11,5.11,0,0,0,.48.22l2.64,1a2.9,2.9,0,0,0,.48.14l2.8.65.48.08,2.92.27a3.23,3.23,0,0,0,.44,0l2.13-.05,2.13.41v4.28Zm26.19-5.68-9.2-.51v-2.86l2.53-.54.42-.12,2.87-1c.13,0,.25-.1.38-.15l2.8-1.33a3.9,3.9,0,0,0,.35-.19l2.69-1.65.31-.22,2.55-1.94.28-.24,2.36-2.22c.09-.08.17-.17.26-.26l2.13-2.45a3.15,3.15,0,0,0,.22-.29l1.88-2.64a3.28,3.28,0,0,0,.2-.31l1.58-2.79a2.7,2.7,0,0,0,.17-.34l1.28-2.9c.05-.12.1-.25.14-.37l.94-3c0-.13.07-.26.1-.4l.59-3a3,3,0,0,0,.06-.43l.07-.8,101.5-20.78-.23,27.83Z"/><path class="cls-1" d="M163.9,217.5h0a3.66,3.66,0,0,0,.39,1.36l.36.69a3.56,3.56,0,0,0,1,1.23l.6.46a3.9,3.9,0,0,0,.92.5l.06,0a3.6,3.6,0,0,0,1.35.49l.78.12a3.39,3.39,0,0,0,.55,0,3.62,3.62,0,0,0,.8-.08l.84-.19a3.78,3.78,0,0,0,1-.42l.81-.47a3.87,3.87,0,0,0,.78-.62l.67-.7a3.69,3.69,0,0,0,.57-.79l.45-.84a3.29,3.29,0,0,0,.36-1l.19-.88a3.79,3.79,0,0,0,.05-1.21l-.11-.82a3.64,3.64,0,0,0-.46-1.37l-.39-.66a3.71,3.71,0,0,0-1.11-1.19l-.36-.24-.3-.22-.45-.3a3.68,3.68,0,0,0-1.26-.53l-.78-.16a3.56,3.56,0,0,0-1.38,0l-.85.15a3.66,3.66,0,0,0-1.1.37l-.83.45a3.7,3.7,0,0,0-.81.6l-.71.69a4.08,4.08,0,0,0-.6.77l-.49.85a3.34,3.34,0,0,0-.39,1l-.22.9a3.67,3.67,0,0,0-.1,1.19Z"/><path class="cls-1" d="M409.31,200.42a1.79,1.79,0,0,0-.25-.42l-.68-.89a2,2,0,0,0-.35-.36l-.56-.46a2.37,2.37,0,0,0-.34-.29l-6.24-4.23h0l-.11-.07-.24-.14-1-.49a2.32,2.32,0,0,0-.44-.16l-1.12-.27a3.32,3.32,0,0,0-.44-.06l-1.2,0-.41,0-1.22.2a2.34,2.34,0,0,0-.38.09l-1.21.43a2.52,2.52,0,0,0-.33.14l-1.16.64a2.9,2.9,0,0,0-.29.19l-1.05.83-.26.23-.91,1a2,2,0,0,0-.22.27l-.74,1.11a2.27,2.27,0,0,0-.17.31l-.54,1.19a2.06,2.06,0,0,0-.12.35l-.32,1.22a2.57,2.57,0,0,0-.06.4l-.09,1.21a2,2,0,0,0,0,.43L387,204a2.16,2.16,0,0,0,.1.44l.38,1.07a3,3,0,0,0,.21.44l.59.93a2.37,2.37,0,0,0,.32.39l.78.77.24.2h0l6,4.55a2.14,2.14,0,0,0,.32.2l.8.49a2.48,2.48,0,0,0,.44.2l1.1.36a2.16,2.16,0,0,0,.44.1l1.18.13a2.06,2.06,0,0,0,.43,0l1.23-.11a2.32,2.32,0,0,0,.38-.06l1.24-.34a2,2,0,0,0,.34-.12l1.2-.56a1.46,1.46,0,0,0,.3-.17l1.12-.75a1.78,1.78,0,0,0,.27-.21l1-.92a2.61,2.61,0,0,0,.23-.24l.84-1.07a1.38,1.38,0,0,0,.19-.28l.66-1.16a1.87,1.87,0,0,0,.15-.32l.45-1.22c0-.12.07-.24.1-.36l.22-1.25a1.75,1.75,0,0,0,0-.4v-1a.56.56,0,0,0,0,.12l.53,1.53-1.15-4.24Zm-13-1a1.37,1.37,0,0,0-.25.23l-1,1-.21.27-.76,1.14a1.87,1.87,0,0,0-.17.31l-.56,1.22a3.62,3.62,0,0,0-.13.35l-.33,1.26s0,.06,0,.09l-.6-.46-.51-.49-.32-.52-.22-.62-.1-.73.06-.8.22-.86.39-.85.54-.82.68-.73.79-.62.84-.46.86-.3.83-.14.77,0,.67.16.67.33.41.27,0,0-1.19.66a2.9,2.9,0,0,0-.29.19Zm9.44,6-.32.88-.49.86-.63.8-.75.7-.84.56-.88.4-.87.24-.83.07-.74-.08-.65-.22-.54-.32-.43-.43-.33-.53-.23-.65-.09-.75.06-.84.24-.89.41-.89.57-.85.71-.77.82-.64.87-.49.9-.32.86-.14.79,0,.7.17.58.28.47.39.38.49.27.59.15.7v.8Z"/></g></svg>