<svg xmlns="http://www.w3.org/2000/svg" viewBox="0 0 480 320"><defs><style>.cls-1{fill:#000;}</style></defs><g id="Layer_5" data-name="Layer 5"><path class="cls-1" d="M447.76,113.36,302.35,43.25a21.06,21.06,0,0,0-12.08-1.9L33.47,77a8.56,8.56,0,0,0-7.35,8.23v.11s0,.1,0,.15l.58,107.3a8.46,8.46,0,0,0,4.67,7.55l144.3,72.89a12.21,12.21,0,0,0,7.25,1.21l264.5-36.85a6.53,6.53,0,0,0,5.6-6.39l.57-108.5A10.33,10.33,0,0,0,447.76,113.36ZM291.37,49.28h0a12.24,12.24,0,0,1,1.81-.13,13,13,0,0,1,5.69,1.31L436.9,117,181.64,153.58,37.41,84.52ZM35,193.19a.5.5,0,0,1-.28-.46L34.15,91.82,177,160.23l.1,104.76ZM185.11,266,185,161.18l260.57-37.34-.57,106Z"/><path class="cls-1" d="M249.49,185.27a4.5,4.5,0,0,0-3.9,4.74,4,4,0,0,0,4.17,4.14,4.49,4.49,0,0,0,3.9-4.74A4,4,0,0,0,249.49,185.27Z"/><path class="cls-1" d="M249.49,200.39a4.49,4.49,0,0,0-3.9,4.74,4,4,0,0,0,4.17,4.13,4.48,4.48,0,0,0,3.9-4.74A4,4,0,0,0,249.49,200.39Z"/><path class="cls-1" d="M249.49,215.5a4.5,4.5,0,0,0-3.9,4.74,4,4,0,0,0,4.17,4.14,4.49,4.49,0,0,0,3.9-4.74A4,4,0,0,0,249.49,215.5Z"/><path class="cls-1" d="M399.84,167.79a21.47,21.47,0,0,0-7.69-4.47l.08-.37-14.94-3.29-.59-.08a20.3,20.3,0,0,0-3,0c-12.46.93-22.27,12.67-21.86,26.17a24.11,24.11,0,0,0,11,20l.46.3,11.45,3.31a20.78,20.78,0,0,0,9.55,2.32q.79,0,1.59-.06c12.47-.93,22.27-12.67,21.87-26.17A24.79,24.79,0,0,0,399.84,167.79Zm-40,17.73c-.23-7.78,4.3-14.68,10.63-17.08a26.45,26.45,0,0,0-7,27.23A17.16,17.16,0,0,1,359.81,185.52Zm25.49,18.13a12.75,12.75,0,0,1-5.11-.64l.1-.36-2.48-.72a13.75,13.75,0,0,1-2.35-1.7,16.73,16.73,0,0,1-5.28-12c-.28-9.29,6.21-17.34,14.46-18,.33,0,.66,0,1,0a13.17,13.17,0,0,1,8.86,3.46,16.74,16.74,0,0,1,5.28,12C400,195,393.55,203,385.3,203.65Z"/></g></svg>