<svg id="Artwork" xmlns="http://www.w3.org/2000/svg" viewBox="0 0 480 320"><defs><style>.cls-1{fill:#000;}</style></defs><path class="cls-1" d="M463.12,114.54a12.38,12.38,0,0,0-.43-3.39c-.79-2.77-2.46-3.65-3.72-3.9h0L387.35,93.52a13.14,13.14,0,0,0-2.59-.23L24,99.25c-3.67.1-7,4-7,8.2l-.09,76.8h0A22.56,22.56,0,0,0,32,205.72h0l57.88,19.79v0a22.69,22.69,0,0,0,7.3,1.23h.43l341.71-5.1h0c12.4-.17,22.62-10.8,22.79-23.69m0,0,1-83.33M97.55,218.71l0-2.41,0,2.41ZM439.27,207.3l-341.81,5a8.6,8.6,0,0,1-6.33-2.62,9.35,9.35,0,0,1-2.67-6.62v-1.43l284.72-3.88h0A16.8,16.8,0,0,0,385,192.52l63.12-.85-.07,6.24h0c-.07,5.11-4,9.32-8.78,9.39M82.19,203.05h0Zm366-19.38L88.66,188.53l.17-66.25,352-3.34,8.16-.08ZM122.83,113.93l-39.47-7.66L339.88,102l46.62,9.41Zm-30,.28-7.9.08v0l-1.74,0-38.6-7.42,9.79-.16Zm292.1-12.92a6.19,6.19,0,0,1,.95.08l50.1,9.61-10.81.1-47.88-9.66ZM33.28,201.94l1.29-3.79a14.56,14.56,0,0,1-9.69-13.9l.08-73,49.46,9.51-.23,82.34,4,0h-4A24.24,24.24,0,0,0,76,212.31L34.57,198.15ZM97.47,220.3h0l0,2.41Z"/><path class="cls-1" d="M249.24,142.66l-137,1.5a4.18,4.18,0,0,0-3,1.26,4.5,4.5,0,0,0-1.26,3.09V156a4.25,4.25,0,0,0,1.22,3,3.84,3.84,0,0,0,2.94,1.21l137-1.59a4.28,4.28,0,0,0,4.11-4.3l.05-7.49A4.07,4.07,0,0,0,249.24,142.66Z"/></svg>