<svg id="Artwork" xmlns="http://www.w3.org/2000/svg" viewBox="0 0 480 320"><defs><style>.cls-1{fill:#000;}</style></defs><path class="cls-1" d="M271.84,194.92a5.44,5.44,0,1,0,2.24,7.18A5.31,5.31,0,0,0,271.84,194.92Z"/><path class="cls-1" d="M299.61,194.07a5.43,5.43,0,0,0-4.67,9.78,5.33,5.33,0,0,0,7-2.7A5.26,5.26,0,0,0,299.61,194.07Z"/><path class="cls-1" d="M285.75,194.47a5.32,5.32,0,0,0-7,2.65,5.17,5.17,0,1,0,9.28,4.53A5.31,5.31,0,0,0,285.75,194.47Z"/><path class="cls-1" d="M141.74,191.73l-20.18.17a3.06,3.06,0,0,0-2.18.93,3.33,3.33,0,0,0-.94,2.29v5.54a3.18,3.18,0,0,0,.9,2.25,2.88,2.88,0,0,0,2.19.9l20.14-.24a3.17,3.17,0,0,0,3.05-3.18l0-5.54A3,3,0,0,0,141.74,191.73Z"/><path class="cls-1" d="M208.71,196.94a5.5,5.5,0,1,0,1.88,7.4A5.45,5.45,0,0,0,208.71,196.94Z"/><path class="cls-1" d="M331.29,193.08a5.39,5.39,0,1,0,2.47,7A5.25,5.25,0,0,0,331.29,193.08Z"/><path class="cls-1" d="M222.84,196.49a5.49,5.49,0,1,0,1.93,7.36A5.37,5.37,0,0,0,222.84,196.49Z"/><path class="cls-1" d="M236.88,196a5.48,5.48,0,1,0,2.07,7.27A5.35,5.35,0,0,0,236.88,196Z"/><path class="cls-1" d="M257.88,195.37a5.44,5.44,0,1,0,2.2,7.22A5.33,5.33,0,0,0,257.88,195.37Z"/><path class="cls-1" d="M194.53,197.43a5.5,5.5,0,1,0,1.79,7.4A5.37,5.37,0,0,0,194.53,197.43Z"/><path class="cls-1" d="M410.86,140.7a6,6,0,1,0,3.25,7.56A5.85,5.85,0,0,0,410.86,140.7Z"/><path class="cls-1" d="M410.66,156.57a6,6,0,1,0,3.15,7.57A5.81,5.81,0,0,0,410.66,156.57Z"/><path class="cls-1" d="M395.58,157a6,6,0,1,0,3.16,7.61A5.81,5.81,0,0,0,395.58,157Z"/><path class="cls-1" d="M410.51,172.45a6,6,0,0,0-4.36,11.12,6,6,0,0,0,4.36-11.12Z"/><path class="cls-1" d="M425.69,156.17a6,6,0,1,0,3.2,7.57A5.82,5.82,0,0,0,425.69,156.17Z"/><path class="cls-1" d="M451.9,100.56,351.69,75.41h0c-3.94-1-15.37-1.4-24.15-1.28h0L40.3,78.3h0c-4.71.08-8.84.28-11.95.58-3.81.37-7.41.72-8.21,4.06a4.13,4.13,0,0,0,.13,2.29L21,181.66c0,.15,0,.31,0,.46v12.67a13.81,13.81,0,0,0,6.05,11.43L69,234.69a17.09,17.09,0,0,0,9.65,3h.55l17.27-.54.08.61c0,2.38,12.25,4.22,27.37,4.18s27.33-2,27.37-4.36V235.4l219.24-6.82c2.55,1.83,13.1,3.35,25.75,3.58,14.63.27,26.47-1.3,26.52-3.5l.49-1.73,22.05-.68a12.92,12.92,0,0,0,12.56-12.88l.68-104.21A8.78,8.78,0,0,0,451.9,100.56ZM40.42,86.3h0l287.2-4.18c9.93-.14,19.64.45,22.15,1.06l78.57,19.71L83.23,110.38a11.3,11.3,0,0,1-5.36-1.25L37.07,86.38C38.12,86.34,39.23,86.32,40.42,86.3Zm-12,15L68.4,124a30,30,0,0,0,4.5,2L73,136.73h.1v16.38l.24,40.17-.24-.18v18l-.18-.14,0,1.7L29.71,183.25a2.31,2.31,0,0,1-.69-1.38v-4.6L28.85,158l0,0Zm421.5,112.05a5,5,0,0,1-4.81,4.93L78.93,229.65a9,9,0,0,1-5.45-1.58L31.57,199.6A5.79,5.79,0,0,1,29,194.79v-2.33l44,30a17.23,17.23,0,0,0,9.74,3h.59l366.5-12.31Zm.05-8.2L83.11,217.44a9,9,0,0,1-2.38-.23l.13-89.57c.7,0,1.41.08,2.11.08h.65l358.15-7.54c1.78,0,5.57-.15,8.72-.29Zm.61-93.26c-3.07.14-7,.28-8.89.31h0L83.45,119.71A22.42,22.42,0,0,1,72.22,117L28.31,92.14V90.78l45.84,25.43A19.24,19.24,0,0,0,83,118.38h.41l367.14-8Z"/><path class="cls-1" d="M361.35,192.14a5.21,5.21,0,0,0-6.78,2.91,5.27,5.27,0,0,0,2.52,7,5.38,5.38,0,0,0,4.26-9.87Z"/><path class="cls-1" d="M358,156.55a5.39,5.39,0,0,0,3.77-10.09,5.21,5.21,0,0,0-6.64,3.27A5.27,5.27,0,0,0,358,156.55Z"/><path class="cls-1" d="M190.62,146.54a3.25,3.25,0,0,0,4.28-1.67,3.21,3.21,0,1,0-4.28,1.67Z"/><path class="cls-1" d="M375.69,127.85A9.11,9.11,0,0,0,369,125.1l8.82,53.57.63-43.91h0A9.43,9.43,0,0,0,375.69,127.85Z"/><path class="cls-1" d="M182.55,129.09h0a10,10,0,0,0-6.85,3,10.18,10.18,0,0,0-2.78,6.94h0l-.08,45.56a9.42,9.42,0,0,0,9.44,9.42h.19l185.94-5.58h0a9.91,9.91,0,0,0,9.4-9.77l-8.84-53.58Zm187.23,49.47a1.92,1.92,0,0,1-1.64,1.89h0L182.25,186a1.55,1.55,0,0,1-1-.4,1.45,1.45,0,0,1-.42-1l0-10.16,189.08-5Zm-.68-45.47a1.24,1.24,0,0,1,.9.37,1.52,1.52,0,0,1,.41,1.13v.06L370,161.49l-189.18,5,0-27.4h0a2.09,2.09,0,0,1,.55-1.41,1.9,1.9,0,0,1,1.31-.56l186.34-4Z"/><path class="cls-1" d="M189.55,160.55a5.36,5.36,0,0,0,7.17-2.6,5.33,5.33,0,1,0-7.17,2.6Z"/></svg>