<svg id="Artwork" xmlns="http://www.w3.org/2000/svg" viewBox="0 0 480 320"><defs><style>.cls-1{fill:#000;}</style></defs><g id="Layer_4" data-name="Layer 4"><path class="cls-1" d="M145.56,203.5a6.42,6.42,0,1,0-8.81-9.34,6.17,6.17,0,0,0-.85,1,6.73,6.73,0,0,0,.19,9.47A6.81,6.81,0,0,0,145.56,203.5Z"/><path class="cls-1" d="M155.22,210.16a7,7,0,0,0,4.6,1.73q.41,0,.81-.06h0l106.81-11h0a7.71,7.71,0,0,0,5-2.58,7.85,7.85,0,0,0,2-5.19V179.49a7,7,0,0,0-2.31-5.24,6.86,6.86,0,0,0-5.44-1.82h0L159.85,183.49h0a7.68,7.68,0,0,0-5,2.59,7.78,7.78,0,0,0-2,5.13v13.66A7.26,7.26,0,0,0,155,210Zm5.35-18.88a.36.36,0,0,1,.08-.12l106.09-11V193a.46.46,0,0,1-.13.18l-106,10.93Z"/><path class="cls-1" d="M281.63,202.67a5.7,5.7,0,0,0,3.73,1.44c.22,0,.44,0,.65-.06h0l84.7-8.6h.07a5.94,5.94,0,0,0,4-2.1,6.12,6.12,0,0,0,1.49-4l.28-30.45a5.75,5.75,0,0,0-1.71-4.11l-.16-.15a5.63,5.63,0,0,0-4.34-1.37h0l-84.71,8.64h-.06a6,6,0,0,0-3.92,2l-.13.15a6.38,6.38,0,0,0-1.43,3.93l-.28,30.4A5.69,5.69,0,0,0,281.63,202.67Zm6.12-33.22,81.08-8.27-.29,26.75-81.07,8.24Z"/><path class="cls-1" d="M435.55,160.8a4.33,4.33,0,1,0-6.52-5.63,4.33,4.33,0,0,0,5.94,6.3,4.1,4.1,0,0,0,.58-.67Z"/><path class="cls-1" d="M435.55,172.14a4.33,4.33,0,0,0-5.9-6.34,5.33,5.33,0,0,0-.69,6.83,4.31,4.31,0,0,0,6.59-.49Z"/><path class="cls-1" d="M435.55,183.44a4.55,4.55,0,0,0-.13-6.39,4.59,4.59,0,0,0-6.39.81,4.31,4.31,0,1,0,6,6.19,3.8,3.8,0,0,0,.53-.61Z"/><path class="cls-1" d="M181.17,110.15h0c2.08,3.83,7.28,8.08,19,11.54S227,127,243.18,127s31.5-1.89,43.06-5.3c16.65-4.93,20.14-11.48,20.14-16.11s-3.49-11.18-20.14-16.11c-11.56-3.42-26.85-5.3-43.06-5.3s-31.51,1.88-43.06,5.3C183.47,94.4,180,101,180,105.58a9.47,9.47,0,0,0,1.11,4.39A1,1,0,0,1,181.17,110.15Zm7.88-6.31.39-.4.25-.19v-.06c5-4.74,23.48-11.14,53.55-11.14,29.78,0,48.2,6.29,53.37,11h0l.31.28a4.26,4.26,0,0,1,.43.42,2.9,2.9,0,0,1,.8,1.76c0,4.59-19.37,13.52-54.87,13.52s-54.91-8.93-54.91-13.52a2.83,2.83,0,0,1,.68-1.64Z"/><path class="cls-1" d="M389.57,186.36a15.19,15.19,0,0,0,8.91,3.61,13.48,13.48,0,0,1-4.11-2.44,14,14,0,0,1-4.8-9.73,16.88,16.88,0,0,1,4.16-12.19c5.82-6.73,15.59-7.89,21.78-2.57h0a13.39,13.39,0,0,1,3,3.77,15.09,15.09,0,0,0-4.86-8.32c-6.87-5.94-17.87-4.53-24.53,3.15S382.71,180.41,389.57,186.36Z"/><path class="cls-1" d="M412.6,167.22a9.18,9.18,0,0,0-6.05-2.19,11.65,11.65,0,0,0-8.7,4.13c-4,4.68-3.91,11.35.2,14.87h0a9.13,9.13,0,0,0,6.73,2.17,12.07,12.07,0,0,0,10.94-12.6A9.18,9.18,0,0,0,412.6,167.22Z"/><path class="cls-1" d="M287.4,212a4.31,4.31,0,0,0,6,6.19,3.8,3.8,0,0,0,.53-.61,4.31,4.31,0,0,0-6-6.2A4.45,4.45,0,0,0,287.4,212Z"/><path class="cls-1" d="M309.93,209.8a4.32,4.32,0,1,0,5.91,6.3,4.16,4.16,0,0,0,.61-.71,4.31,4.31,0,1,0-6-6.15A5.23,5.23,0,0,0,309.93,209.8Z"/><path class="cls-1" d="M320.93,208.58a4.31,4.31,0,1,0,6.34-.8,4.5,4.5,0,0,0-6.32.77Z"/><path class="cls-1" d="M331.92,207.36a4.31,4.31,0,1,0,6,6.19,3.8,3.8,0,0,0,.53-.61,4.31,4.31,0,0,0-6-6.2A4.45,4.45,0,0,0,331.92,207.36Z"/><path class="cls-1" d="M342.91,206.38a4.32,4.32,0,1,0,5.91,6.3,4.16,4.16,0,0,0,.61-.71,4.32,4.32,0,0,0-5.9-6.31A4.71,4.71,0,0,0,342.91,206.38Z"/><path class="cls-1" d="M353.91,205.16a4.31,4.31,0,1,0,6.34-.8,4.5,4.5,0,0,0-6.32.77Z"/><path class="cls-1" d="M364.41,203.7a4.31,4.31,0,1,0,6.34-.81A4.53,4.53,0,0,0,364.41,203.7Z"/><path class="cls-1" d="M450.34,119.09l-89.8-68.45A22.52,22.52,0,0,0,344,45.5L35,74.64h0A12.21,12.21,0,0,0,23.88,86.72L23,174.51a18.45,18.45,0,0,0,6.61,14.36l84.9,80.24A19.27,19.27,0,0,0,129,273.5l316.57-33A12.85,12.85,0,0,0,457,227.7V133.4A18.72,18.72,0,0,0,450.34,119.09Zm-1.83,11.19a10.7,10.7,0,0,1,.48,3.13v72.91L125.75,238.14v-69.7a6.64,6.64,0,0,1,6-6.61ZM344.8,53.46a14.51,14.51,0,0,1,10.69,3.35l86.68,66.06-311.23,31a14.59,14.59,0,0,0-7.06,2.66l-86.95-74ZM34.8,182.71a10.49,10.49,0,0,1-3.75-8.13l.84-85.9,87,74.11a14.62,14.62,0,0,0-1.14,5.65v92.9Zm409.9,49.85-316.56,33a11.63,11.63,0,0,1-2.36,0V246.18l323.28-31.82v13.35a4.88,4.88,0,0,1-4.39,4.85Z"/><path class="cls-1" d="M436.73,220.74,424.23,222a.82.82,0,0,0-.71.83v4.45a.78.78,0,0,0,.77.8h.08L437,227a.82.82,0,0,0,.73-.85l-.2-4.58a.79.79,0,0,0-.81-.78Z"/></g></svg>