<svg id="Artwork" xmlns="http://www.w3.org/2000/svg" viewBox="0 0 480 320"><defs><style>.cls-1{fill:#000;}</style></defs><path class="cls-1" d="M466.37,123.84a17.51,17.51,0,0,0-12.84-16.37L364.81,88.92a23.26,23.26,0,0,0-6.22-.74L25.43,89.1A11.83,11.83,0,0,0,13.63,101l.6,75.9a13.64,13.64,0,0,0,6,11.18l57,41.31.12.08A13.57,13.57,0,0,0,85,231.83h.46l367.19-15a14,14,0,0,0,13.59-14l.14-78.89Zm-29.86-11.76-7.93.12-69.43-16a15.49,15.49,0,0,1,3.71.5ZM23.34,101l-.12,0v0Zm.07,0,.17.11a.21.21,0,0,0,0,.07l-1.1,1.23-.79.79v-.62l.2-.21A9.79,9.79,0,0,1,23.41,101Zm-1.77,2.3.31.3h-.3ZM78.11,123l0,1.29L28.83,97.09h2.3Zm6.72-5.43L47.61,97,324,96.27l71.3,16.45ZM23,179.68l-.55-75.21,1.6,1,.56,76A5.71,5.71,0,0,1,23,179.68Zm2.75-75.09a12.69,12.69,0,0,1,1.57-1.37l.17.11-.1.14a9.75,9.75,0,0,1-1,1.17l.35.35-.36-.34-.84.88.36.35h-.5l.56,76.5-.3-.22-.56-76.83Zm4,2.29a12.15,12.15,0,0,1,1.55-1.38l.22.13-.06.09c-.27.35-.68.81-1.08,1.26h0l-.84.88.36.35h-.5l.51,77.07-.34-.25-.52-77.42Zm1.34-1.51s0,0,0,0l.28-.42Zm4.12,2.33h0l.28-.42Zm.2.13.27.14-.07.12a12.33,12.33,0,0,1-1.12,1.25l.35.36-.36-.35-.84.89.36.34h-.5L34,188.25l-.39-.28-.52-78,.74-.74-.35-.35.36.34A10.76,10.76,0,0,1,35.43,107.83Zm2.64,3.8a9.7,9.7,0,0,1,1.59-1.42l.29.17-.08.14a13.34,13.34,0,0,1-1.12,1.25l-.89.88.36.36h-.5l.51,78.28-.44-.32-.47-78.56.75-.78Zm4.28,2.48A10.21,10.21,0,0,1,44,112.67l.31.18s0,.08-.1.14a12,12,0,0,1-1.12,1.25l.36.35-.36-.34-.89.93.36.34h-.5l.47,78.87-.44-.32-.47-79.2.74-.77Zm4,2.21.37.34a9.88,9.88,0,0,1,1.67-1.48l.35.21-.08.11a9.89,9.89,0,0,1-1.15,1.29l.33.36-.36-.34-.88.93.36.35h-.5l.46,79.51-.48-.35L46,117.41l.74-.74Zm4.88,2.91A10.43,10.43,0,0,1,53,117.75l.37.23-.09.13a14.27,14.27,0,0,1-1.17,1.3l.35.36-.36-.35-.88.93.36.35h-.5l.42,80.18-.54-.39L50.51,120l.74-.78Zm6.39,1.17.38.23-.13.16a14.48,14.48,0,0,1-1.11,1.34l-.92.92.35.35h-.5l.42,80.86-.58-.42-.42-81.12.78-.78-.35-.36.36.35A9.69,9.69,0,0,1,57.64,120.4Zm-3.51,2.4.41,80.31-2.07-1.5-.42-80Zm-4.62-2.7.42,79.67-2-1.44L47.49,119ZM45,117.49l.46,79-1.93-1.4-.46-78.73ZM40.61,115l.46,78.38L39.23,192l-.51-78.14Zm-4.29-2.47.47,77.75L35,189l-.51-77.52Zm-4.19-2.42.51,77.16L30.94,186l-.51-76.93Zm-4.06-2.37.51,76.59-1.65-1.19-.56-76.37ZM57.13,205l-.42-81.37.79-.79-.36-.35.37.34a12.75,12.75,0,0,0,1.17-1.41c.39-.44.53-.75.48-1l-.28-.36v0l-.93-.56-.26.43.22-.45c-.23-.11-.66-.33-2.72,1.83h0l-.65.65-2.21-1.3.45-.47h0a14.93,14.93,0,0,0,1.26-1.41c.34-.46.46-.75.39-1l-.26-.33v0l-.88-.56-.27.42.22-.44c-.25-.13-.63-.32-2.72,1.77l.36.35-.37-.34-.61.64L47.78,118l.45-.47h0a10.94,10.94,0,0,0,1.25-1.4c.34-.46.46-.75.4-1l-.28-.35h0l-.89-.51-.25.43.23-.45c-.22-.1-.67-.33-2.68,1.77h0l-.61.62-2.06-1.17.44-.46h0a15.27,15.27,0,0,0,1.2-1.35c.22-.3.69-.91.28-1.31l-.35.35.25-.43-.88-.51-.26.43.23-.45c-.29-.14-.61-.29-2.63,1.73l.35.35-.36-.34-.61.65-2-1.16.43-.42a12.68,12.68,0,0,0,1.23-1.4c.28-.45.45-.72.37-1l-.26-.31h0l-.84-.52-.26.43.12-.48c-.16,0-.65-.16-2.49,1.77l.36.34-.36-.34-.61.64-1.91-1.11.4-.43h0a14,14,0,0,0,1.23-1.38c.29-.47.45-.72.36-1l-.27-.33h0l-.84-.46h0c-.26-.17-.65-.29-2.56,1.72l-.61.6-1.82-1.07.4-.43-.36-.34.37.34c.42-.47.85-1,1.13-1.32.45-.53.46-.81.42-1L32.4,105h0l-.79-.47h0c-.28-.18-.6-.3-2.57,1.66l.36.36-.37-.35-.57.61-1.8-1,.4-.43h0a8.4,8.4,0,0,0,1.13-1.27c.18-.21.73-.86.3-1.29l-.35.36.25-.44-.79-.46-.25.43.16-.47c-.19-.07-.58-.19-2.47,1.7l.35.35L25,103.9l-.57.6-1.71-1,.38-.38-.35-.36.37.34c.42-.47.84-.94,1.15-1.31s.46-.67.39-1l-.26-.32v0l-.74-.46-.15.23.1-.21c-.24-.12-.55-.25-2,1.15V101a3.77,3.77,0,0,1,.48-1.87l56.21,31,2.81,92.28Zm1.25-84.14.25-.42-.22.45Zm-4.72-2.66.27-.42-.23.45Zm-4.55-2.6.25-.43-.23.45Zm-8.82-5,.26-.43-.23.45Zm-4.23-2.42.25-.43-.23.45Zm-4.15-2.33.25-.43-.23.45S31.92,105.84,31.91,105.84Zm-8-4.53.26-.42-.23.44ZM458.24,202.8a6,6,0,0,1-5.89,6L89.17,223.66l-3-98.12,371-5.78a9.43,9.43,0,0,1,1.17,4.23Z"/><path class="cls-1" d="M110.92,167.83a2.71,2.71,0,0,0,3.72-.8,2.68,2.68,0,0,0-.71-3.72,2.72,2.72,0,0,0-3,4.52Z"/><path class="cls-1" d="M139.88,177.85h0a4.08,4.08,0,0,0,1.07,1l-.09,0,.12,0,.06.05a4.5,4.5,0,0,0,4.67-7.69l-.27-.13h0l-.17-.14.12.11a4.53,4.53,0,0,0-1.37-.42l-.06,0,0,0a4.54,4.54,0,0,0-4.1,7.26Z"/><path class="cls-1" d="M129.66,179.07h0l.09.08a4.53,4.53,0,0,0,4.85-7.64,4.11,4.11,0,0,0-.42-.21l-.09-.07.06.05a4.59,4.59,0,0,0-1.34-.4l-.07,0,.06,0a4.54,4.54,0,0,0-3.15,8.19Z"/><path class="cls-1" d="M156.8,170.85c-.09,0-.19-.08-.28-.12l-.14-.11.1.09a4.36,4.36,0,0,0-1.18-.37,2.18,2.18,0,0,0-.23-.09l.18.08a4.5,4.5,0,0,0-4.51,2.2,4.38,4.38,0,1,0,6.06-1.68Z"/><path class="cls-1" d="M167.85,170.53a3.09,3.09,0,0,0-.32-.14s0,0-.06,0l.05,0a4.21,4.21,0,0,0-1.27-.38l-.08,0,.06,0a4.45,4.45,0,0,0-4.4,2.31,4.51,4.51,0,0,0,.41,5l0,0,0,0a3.63,3.63,0,0,0,.92.82h0c.09.06.16.13.25.18a4.5,4.5,0,0,0,4.43-7.83Z"/><path class="cls-1" d="M438,152.26a4.18,4.18,0,0,0-5.27,2.75,4.24,4.24,0,0,0,2.38,5.45,4.36,4.36,0,0,0,2.89-8.2Z"/><path class="cls-1" d="M427.64,152.49a4.37,4.37,0,0,0-2.94,8.2A4.17,4.17,0,0,0,430,158,4.26,4.26,0,0,0,427.64,152.49Z"/><path class="cls-1" d="M417.29,152.77a4.3,4.3,0,0,0-5.36,2.7,4.24,4.24,0,0,0,2.38,5.5,4.37,4.37,0,0,0,3-8.2Z"/><path class="cls-1" d="M386,153.56a4.29,4.29,0,0,0-5.41,2.66,4.24,4.24,0,0,0,2.33,5.54,4.39,4.39,0,0,0,3.08-8.2Z"/><path class="cls-1" d="M385.74,175.56a4.38,4.38,0,1,0,2.19,5.6A4.25,4.25,0,0,0,385.74,175.56Z"/><path class="cls-1" d="M417,174.68a4.2,4.2,0,0,0-5.4,2.56,4.26,4.26,0,0,0,2.23,5.55,4.36,4.36,0,0,0,3.17-8.11Z"/><path class="cls-1" d="M427.36,174.4A4.16,4.16,0,0,0,422,177a4.08,4.08,0,1,0,7.6,2.94A4.21,4.21,0,0,0,427.36,174.4Z"/><path class="cls-1" d="M437.71,174.07a4.37,4.37,0,1,0,2.24,5.5A4.23,4.23,0,0,0,437.71,174.07Z"/><path class="cls-1" d="M396.32,164.28a4.26,4.26,0,0,0-5.41,2.61,4.1,4.1,0,1,0,5.41-2.61Z"/><path class="cls-1" d="M385.83,164.56a4.38,4.38,0,1,0,2.28,5.55A4.23,4.23,0,0,0,385.83,164.56Z"/><path class="cls-1" d="M375.34,164.84a4.38,4.38,0,1,0,2.29,5.59A4.28,4.28,0,0,0,375.34,164.84Z"/><path class="cls-1" d="M354.27,165.4a4.4,4.4,0,0,0-3.26,8.16,4.4,4.4,0,0,0,3.26-8.16Z"/><path class="cls-1" d="M189.89,169.87a4.46,4.46,0,0,0-6,2,4.35,4.35,0,1,0,7.69,4.06A4.46,4.46,0,0,0,189.89,169.87Z"/><path class="cls-1" d="M115.28,172.16a4.5,4.5,0,0,0-6.19,1.26,4.41,4.41,0,1,0,6.19-1.26Z"/><path class="cls-1" d="M189.85,158.59a4.5,4.5,0,1,0,1.82,6A4.4,4.4,0,0,0,189.85,158.59Z"/><path class="cls-1" d="M189.94,181.16a4.51,4.51,0,0,0-4.38,7.87,4.51,4.51,0,0,0,4.38-7.87Z"/><path class="cls-1" d="M354.37,154.35a4.26,4.26,0,0,0-5.46,2.61,4.31,4.31,0,0,0,2.33,5.6A4.26,4.26,0,0,0,356.7,160,4.33,4.33,0,0,0,354.37,154.35Z"/><path class="cls-1" d="M354.18,176.45a4.4,4.4,0,0,0-3.36,8.11,4.31,4.31,0,0,0,5.55-2.47A4.27,4.27,0,0,0,354.18,176.45Z"/><path class="cls-1" d="M437.85,163.16a4.24,4.24,0,0,0-5.32,2.71,4.08,4.08,0,1,0,7.65,2.79A4.25,4.25,0,0,0,437.85,163.16Z"/><path class="cls-1" d="M100.67,172.27h0a4,4,0,0,0-.63-.37h0l-.1-.09,0,0a5,5,0,0,0-6.19,1.57,5.13,5.13,0,0,0-1,3.84,4.89,4.89,0,0,0,4.8,4.09,5.12,5.12,0,0,0,4.09-2.07A5,5,0,0,0,100.67,172.27Zm.18,6.4a4,4,0,0,1-5.55.91,3.76,3.76,0,0,1-1.54-2.5,4.13,4.13,0,0,1,.77-3.09,4,4,0,0,1,2.59-1.61,4.74,4.74,0,0,1,.65,0,4,4,0,0,1,1.72.4l.1.06h0a3,3,0,0,1,.48.3A4,4,0,0,1,100.85,178.67Z"/><path class="cls-1" d="M340,138.43a6.64,6.64,0,0,0-4.75-2v4l-.09-4-129.91,3h0a6.82,6.82,0,0,0-4.69,2l-.12.13a7,7,0,0,0-1.85,4.73h0L198.39,194l4,0h-4a6.71,6.71,0,0,0,2,4.79,6.56,6.56,0,0,0,4.63,1.92h.28l129.49-3.82-.13-4.12.14,4.12a6.85,6.85,0,0,0,6.52-6.79h0l.56-46.94h0A6.59,6.59,0,0,0,340,138.43Zm-2.13,4.69-2.56,0V143Zm-4.55,45.82-126.91,3.75,0-5.07,126.94-3.52ZM206.57,147.37l127.26-2.92-.38,31.64-127,3.52Zm-1.18-1.28-.07-.06V143.4Zm-.07.2v-.09l.07.06v0h-.07ZM205,194h.09l.08,2.69Zm129.57-4v0l2.74,0Z"/><path class="cls-1" d="M100,173.48h0a3.63,3.63,0,0,0-5,.85,3.68,3.68,0,0,0,.72,5.09,3.6,3.6,0,0,0,2.07.65,3.77,3.77,0,0,0,3-1.51,3.62,3.62,0,0,0-.75-5.08Zm-4.23,1.45a2.67,2.67,0,0,1,2.16-1.11,2.42,2.42,0,0,1,.47,0,2.61,2.61,0,0,1,0,2.92A2.69,2.69,0,0,1,95.68,178,2.66,2.66,0,0,1,95.74,174.93Zm4.19,3a2.76,2.76,0,0,1-3,1,3.74,3.74,0,0,0,2.3-1.62,3.61,3.61,0,0,0,.52-2.69,2.65,2.65,0,0,1,.16,3.32Z"/><path class="cls-1" d="M130.32,167.57a2.72,2.72,0,1,0-.71-3.72A2.69,2.69,0,0,0,130.32,167.57Z"/><path class="cls-1" d="M141.36,167.06a2.72,2.72,0,1,0-.71-3.72A2.68,2.68,0,0,0,141.36,167.06Z"/><path class="cls-1" d="M152.46,166.91a2.71,2.71,0,1,0-.71-3.72A2.68,2.68,0,0,0,152.46,166.91Z"/><path class="cls-1" d="M163.57,166.81a2.72,2.72,0,1,0-.71-3.72A2.68,2.68,0,0,0,163.57,166.81Z"/><path class="cls-1" d="M150.58,199l-20.18.16a3.07,3.07,0,0,0-2.18.94,3.3,3.3,0,0,0-.94,2.28v5.54a3.17,3.17,0,0,0,.9,2.25,2.84,2.84,0,0,0,2.19.9l20.14-.23a3.19,3.19,0,0,0,3.05-3.19l0-5.54A3,3,0,0,0,150.58,199Z"/></svg>