<svg id="Artwork" xmlns="http://www.w3.org/2000/svg" viewBox="0 0 480 320"><defs><style>.cls-1{fill:#000;}</style></defs><path class="cls-1" d="M466.23,124.66a17.53,17.53,0,0,0-12.84-16.37L364.66,89.75a22.76,22.76,0,0,0-6.21-.75l-333.16.92a11.83,11.83,0,0,0-11.81,11.93l.6,75.9a13.66,13.66,0,0,0,6,11.19l57,41.3.11.08a13.59,13.59,0,0,0,7.65,2.33h.47l367.18-15a14,14,0,0,0,13.59-14l.14-78.88ZM436.37,112.9l-7.94.13L359,97a15.08,15.08,0,0,1,3.72.5ZM23.2,101.77l-.13,0,0,0Zm.06,0,.17.11a.3.3,0,0,1-.05.07c-.27.32-.68.78-1.1,1.24l-.78.78v-.62l.19-.21A10.43,10.43,0,0,1,23.26,101.81Zm-1.76,2.3.31.3H21.5ZM78,123.81l0,1.3L28.68,97.91H31Zm6.73-5.42L47.47,97.86l276.34-.77,71.3,16.46ZM22.87,180.5l-.56-75.21,1.61.95.56,76A5.52,5.52,0,0,1,22.87,180.5Zm2.74-75.08a11.09,11.09,0,0,1,1.58-1.37l.17.1a.6.6,0,0,1-.11.14,8,8,0,0,1-1,1.16h0l.7.68-.71-.67-.84.88.36.35h-.5l.56,76.5-.3-.21-.56-76.84Zm4,2.28a12.85,12.85,0,0,1,1.56-1.38l.22.13-.07.09c-.26.35-.67.81-1.08,1.26h0l-.84.89.37.34h-.5l.51,77.08-.35-.25-.51-77.43ZM31,106.19h0l.28-.41Zm4.11,2.34,0,0,.27-.41Zm.21.12.26.15-.07.12a12,12,0,0,1-1.12,1.25l.36.35-.37-.34-.83.88.36.35h-.5l.51,77.67-.39-.29-.52-78,.74-.74-.35-.35.36.34A11.43,11.43,0,0,1,35.29,108.65Zm2.63,3.8a9.61,9.61,0,0,1,1.6-1.42l.29.18a.51.51,0,0,0-.08.13,12.33,12.33,0,0,1-1.12,1.25l.35.35-.35-.35-.89.89.35.35h-.5l.51,78.28-.43-.31-.47-78.56.74-.79Zm4.28,2.48a11.23,11.23,0,0,1,1.64-1.44l.32.18-.1.14a13.51,13.51,0,0,1-1.12,1.25l.35.36-.36-.35-.88.93.36.35h-.5l.46,78.87-.44-.32-.46-79.19.73-.78Zm4,2.21.36.34A9.83,9.83,0,0,1,48.27,116l.35.21a.62.62,0,0,0-.08.12,9.84,9.84,0,0,1-1.15,1.28l.33.37-.36-.35-.89.94.37.34h-.5l.46,79.52-.49-.36-.46-79.84.73-.74Zm4.88,2.92a11.34,11.34,0,0,1,1.71-1.49l.38.24-.1.13a12.81,12.81,0,0,1-1.16,1.29l.35.36-.36-.35-.89.94.37.34h-.5l.41,80.18-.53-.38-.42-80.49.74-.77Zm6.38,1.17.39.23-.13.16A12.77,12.77,0,0,1,56.63,123l-.92.92.36.35h-.5L56,205.08l-.58-.42L55,123.55l.79-.79-.36-.35.36.34A10.21,10.21,0,0,1,57.49,121.23ZM54,123.63l.42,80.3-2.07-1.5-.42-80Zm-4.61-2.7.42,79.66-2-1.44-.46-79.38Zm-4.52-2.61.46,79L43.38,196l-.47-78.74Zm-4.38-2.52.46,78.37-1.84-1.33-.51-78.14Zm-4.29-2.47.46,77.74-1.75-1.27-.5-77.52ZM32,110.9l.51,77.16-1.69-1.23-.52-76.92Zm-4.05-2.37.51,76.6-1.65-1.2-.56-76.37ZM57,205.81l-.42-81.38.78-.78-.35-.36.37.34a12.06,12.06,0,0,0,1.17-1.41c.39-.44.53-.75.47-1l-.27-.36v0l-.94-.56-.25.43.22-.45c-.23-.11-.66-.32-2.73,1.83h0l-.65.65-2.2-1.3.44-.47h0a15.15,15.15,0,0,0,1.26-1.4c.35-.46.46-.76.4-1l-.26-.33v0l-.89-.56-.26.43.22-.45c-.25-.13-.63-.32-2.72,1.77l.35.35-.36-.34-.62.65-2.13-1.22.45-.47h0a10.16,10.16,0,0,0,1.26-1.39c.34-.47.46-.76.39-1l-.27-.35h0l-.88-.51-.25.43.22-.45c-.21-.1-.67-.32-2.67,1.78h0l-.62.61-2-1.17.44-.46h0a15.74,15.74,0,0,0,1.21-1.36c.22-.29.68-.9.28-1.3l-.35.35L45,113l-.89-.51-.25.43.22-.44c-.28-.15-.6-.3-2.62,1.72l.35.36-.36-.35-.62.65-2-1.16.42-.42h0a12.12,12.12,0,0,0,1.24-1.4c.28-.44.45-.71.36-1l-.25-.31h0l-.84-.51-.26.42.12-.48c-.16,0-.65-.17-2.49,1.77l.36.35-.36-.35-.61.65-1.91-1.12.4-.43h0a14,14,0,0,0,1.23-1.38c.28-.45.45-.72.36-1l-.27-.33h0l-.84-.47h0c-.27-.17-.65-.29-2.57,1.72l-.6.61-1.83-1.07.41-.43-.36-.35.37.34c.42-.47.85-1,1.12-1.32s.48-.71.43-1l-.28-.36v0l-.79-.46h0c-.28-.18-.6-.31-2.57,1.66l.35.35L28.9,107l-.57.6-1.81-1,.4-.42h0a8.33,8.33,0,0,0,1.14-1.28c.48-.57.59-1,.3-1.29L28,104l.25-.43-.79-.47-.26.43.16-.47c-.18-.06-.57-.2-2.47,1.7l.36.36-.37-.35-.56.6-1.71-1,.38-.38-.36-.35.38.33,1.15-1.3c.28-.4.46-.68.39-1l-.26-.32h0l-.75-.47-.15.24.11-.22c-.24-.12-.55-.25-2,1.16v-.21A3.89,3.89,0,0,1,22,99.92l56.21,31L81,223.19Zm1.25-84.14.25-.43-.22.45ZM53.52,119l.26-.42-.22.45ZM49,116.4l.24-.43-.22.45S49,116.41,49,116.4Zm-8.82-5,.25-.42-.22.44ZM35.92,109l.24-.44-.22.45Zm-4.16-2.34.25-.43-.22.45Zm-8-4.53.26-.42-.22.45ZM458.09,203.62a6,6,0,0,1-5.88,6L89,224.48l-3-98.11,371-5.79a9.33,9.33,0,0,1,1.16,4.23Z"/><path class="cls-1" d="M110.78,168.65a2.72,2.72,0,1,0-.71-3.72A2.7,2.7,0,0,0,110.78,168.65Z"/><path class="cls-1" d="M139.74,178.67h0a4.11,4.11,0,0,0,1.07,1l-.09,0,.11,0,.07.05a4.5,4.5,0,0,0,4.66-7.69,2.06,2.06,0,0,0-.26-.12l0,0h0l-.17-.14.12.12a4.28,4.28,0,0,0-1.37-.43h0a4.54,4.54,0,0,0-4.09,7.26Z"/><path class="cls-1" d="M129.52,179.89h0l0,0,.1.07a4.53,4.53,0,0,0,4.85-7.64,3.42,3.42,0,0,0-.43-.21l-.08-.07.06.06a4.41,4.41,0,0,0-1.34-.41l-.08,0,.06,0a4.54,4.54,0,0,0-3.14,8.19Z"/><path class="cls-1" d="M156.66,171.68a1.85,1.85,0,0,0-.29-.13l-.13-.11.09.09a4.15,4.15,0,0,0-1.18-.37,1.45,1.45,0,0,0-.22-.09l.18.08a4.49,4.49,0,0,0-4.51,2.2,4.38,4.38,0,1,0,6.06-1.67Z"/><path class="cls-1" d="M167.7,171.35a2.92,2.92,0,0,0-.31-.14l-.06-.05,0,0a4.15,4.15,0,0,0-1.26-.38l-.08,0,.05,0a4.44,4.44,0,0,0-4.39,2.3,4.51,4.51,0,0,0,.4,5h0s0,0,0,0a4.21,4.21,0,0,0,.92.81h0l0,0a2.71,2.71,0,0,0,.25.17,4.5,4.5,0,0,0,4.42-7.83Z"/><path class="cls-1" d="M437.85,153.08a4.18,4.18,0,0,0-5.27,2.75,4.24,4.24,0,0,0,2.38,5.45,4.36,4.36,0,0,0,2.89-8.2Z"/><path class="cls-1" d="M427.5,153.31a4.27,4.27,0,0,0-5.32,2.75,4.22,4.22,0,0,0,2.38,5.45,4.14,4.14,0,0,0,5.31-2.7A4.25,4.25,0,0,0,427.5,153.31Z"/><path class="cls-1" d="M417.15,153.59a4.31,4.31,0,0,0-5.36,2.7,4.23,4.23,0,0,0,2.38,5.5,4.16,4.16,0,0,0,5.31-2.7A4.22,4.22,0,0,0,417.15,153.59Z"/><path class="cls-1" d="M385.83,154.38a4.39,4.39,0,1,0,2.33,5.55A4.29,4.29,0,0,0,385.83,154.38Z"/><path class="cls-1" d="M385.59,176.38a4.38,4.38,0,1,0,2.19,5.6A4.25,4.25,0,0,0,385.59,176.38Z"/><path class="cls-1" d="M416.87,175.5a4.36,4.36,0,0,0-3.17,8.11,4.36,4.36,0,0,0,3.17-8.11Z"/><path class="cls-1" d="M427.22,175.22a4.17,4.17,0,0,0-5.36,2.56,4.08,4.08,0,1,0,7.59,2.94A4.2,4.2,0,0,0,427.22,175.22Z"/><path class="cls-1" d="M437.57,174.89a4.37,4.37,0,0,0-3.08,8.16,4.37,4.37,0,0,0,3.08-8.16Z"/><path class="cls-1" d="M396.17,165.1a4.27,4.27,0,0,0-5.4,2.61,4.1,4.1,0,1,0,5.4-2.61Z"/><path class="cls-1" d="M385.69,165.38a4.38,4.38,0,1,0,2.28,5.55A4.22,4.22,0,0,0,385.69,165.38Z"/><path class="cls-1" d="M375.2,165.66a4.38,4.38,0,1,0,2.28,5.6A4.29,4.29,0,0,0,375.2,165.66Z"/><path class="cls-1" d="M354.13,166.22a4.4,4.4,0,0,0-3.26,8.16,4.4,4.4,0,0,0,3.26-8.16Z"/><path class="cls-1" d="M189.75,170.7a4.44,4.44,0,0,0-6,2,4.39,4.39,0,0,0,1.72,6,4.49,4.49,0,0,0,4.24-7.92Z"/><path class="cls-1" d="M115.14,173a4.55,4.55,0,0,0-5.13,7.51,4.55,4.55,0,0,0,5.13-7.51Z"/><path class="cls-1" d="M189.7,159.42a4.37,4.37,0,0,0-5.91,2.05,4.33,4.33,0,1,0,7.73,3.91A4.38,4.38,0,0,0,189.7,159.42Z"/><path class="cls-1" d="M189.8,182a4.51,4.51,0,0,0-4.38,7.88A4.51,4.51,0,0,0,189.8,182Z"/><path class="cls-1" d="M354.22,155.18a4.24,4.24,0,0,0-5.45,2.61,4.17,4.17,0,1,0,5.45-2.61Z"/><path class="cls-1" d="M354,177.27a4.4,4.4,0,0,0-3.36,8.11,4.39,4.39,0,0,0,3.36-8.11Z"/><path class="cls-1" d="M437.71,164a4.23,4.23,0,0,0-5.32,2.7,4.17,4.17,0,0,0,2.33,5.45,4.35,4.35,0,0,0,3-8.15Z"/><path class="cls-1" d="M100.52,173.09h0a4.51,4.51,0,0,0-.63-.37h0l-.1-.09,0,0a4.94,4.94,0,0,0-6.18,1.58,5.1,5.1,0,0,0-1,3.83,4.89,4.89,0,0,0,4.8,4.09,5.09,5.09,0,0,0,4.08-2.07A5,5,0,0,0,100.52,173.09Zm.19,6.4a4,4,0,0,1-5.55.92,3.81,3.81,0,0,1-1.54-2.5,4.14,4.14,0,0,1,.77-3.1,4,4,0,0,1,2.58-1.6,3.68,3.68,0,0,1,.66-.06,3.87,3.87,0,0,1,1.71.4l.1.07h0a2.92,2.92,0,0,1,.48.29A4,4,0,0,1,100.71,179.49Z"/><path class="cls-1" d="M339.83,139.25a6.64,6.64,0,0,0-4.74-2v4l-.09-4-129.91,3h0a6.86,6.86,0,0,0-4.7,2l-.12.13a7,7,0,0,0-1.84,4.74h0l-.19,47.73h0a6.72,6.72,0,0,0,2,4.79,6.56,6.56,0,0,0,4.63,1.92h.27l129.49-3.82-.12-4,.13,4a6.85,6.85,0,0,0,6.53-6.79h0L341.7,144h0A6.6,6.6,0,0,0,339.83,139.25Zm-2.14,4.69-2.54,0v0Zm-4.54,45.82-126.9,3.75,0-5.07,126.94-3.52ZM206.43,148.19l127.25-2.92-.37,31.64-127,3.53Zm-1.19-1.28-.06-.06v-2.63Zm-.06.2V147l.07.06v0h-.07Zm-.36,47.74h.09l.08,2.7Zm129.58-4v0l2.74,0Z"/><path class="cls-1" d="M99.82,174.3h0a3.63,3.63,0,0,0-5,.86,3.67,3.67,0,0,0,.72,5.08,3.56,3.56,0,0,0,2.06.65,3.78,3.78,0,0,0,3-1.51A3.63,3.63,0,0,0,99.82,174.3Zm-4.22,1.45a2.66,2.66,0,0,1,2.16-1.11,2.42,2.42,0,0,1,.47.05,2.65,2.65,0,0,1,0,2.92,2.71,2.71,0,0,1-2.74,1.21A2.68,2.68,0,0,1,95.6,175.75Zm4.18,3a2.73,2.73,0,0,1-3,1,3.68,3.68,0,0,0,2.29-1.62,3.52,3.52,0,0,0,.52-2.69A2.64,2.64,0,0,1,99.78,178.78Z"/><path class="cls-1" d="M130.17,168.39a2.71,2.71,0,0,0,3.72-.79,2.66,2.66,0,1,0-3.72.79Z"/><path class="cls-1" d="M141.22,167.88a2.72,2.72,0,1,0-.71-3.72A2.7,2.7,0,0,0,141.22,167.88Z"/><path class="cls-1" d="M152.32,167.73a2.71,2.71,0,1,0-.71-3.71A2.69,2.69,0,0,0,152.32,167.73Z"/><path class="cls-1" d="M163.43,167.63a2.72,2.72,0,1,0-.71-3.72A2.69,2.69,0,0,0,163.43,167.63Z"/><path class="cls-1" d="M150.44,199.78l-20.18.16a3.05,3.05,0,0,0-2.18.94,3.3,3.3,0,0,0-.94,2.28v5.54A3.11,3.11,0,0,0,128,211a2.83,2.83,0,0,0,2.18.9l20.15-.23a3.16,3.16,0,0,0,3-3.19l0-5.53A3,3,0,0,0,150.44,199.78Z"/></svg>