<svg id="Artwork" xmlns="http://www.w3.org/2000/svg" viewBox="0 0 480 320"><defs><style>.cls-1{fill:#000;}</style></defs><path class="cls-1" d="M463.12,116a12.34,12.34,0,0,0-.43-3.39c-.79-2.77-2.46-3.65-3.72-3.9h0L387.35,94.93a12.42,12.42,0,0,0-2.59-.23L24,100.66c-3.67.1-7,4-7,8.19l-.09,76.81h0A22.57,22.57,0,0,0,32,207.13h0l57.88,19.79v0a22.68,22.68,0,0,0,7.3,1.22h.43L439.3,223h0c12.4-.17,22.62-10.8,22.79-23.69m0,0,1-83.32M97.55,220.12l0-2.41,0,2.41ZM439.27,208.7l-341.81,5a8.64,8.64,0,0,1-6.33-2.62,9.37,9.37,0,0,1-2.67-6.62V203l284.72-3.87h0A16.8,16.8,0,0,0,385,193.93l63.13-.85-.07,6.24h0c-.07,5.11-4,9.32-8.78,9.38M82.19,204.46h0Zm366-19.38L88.66,189.93l.16-66.25,352-3.34,8.16-.07ZM122.83,115.34l-39.47-7.66,256.52-4.24,46.62,9.41Zm-30,.28-7.9.07v0l-1.74,0-38.6-7.42,9.79-.16Zm292.1-12.92a5.15,5.15,0,0,1,.95.08l50.1,9.61-10.81.1-47.88-9.66ZM33.28,203.35l1.29-3.79a14.57,14.57,0,0,1-9.69-13.9l.08-73,49.46,9.5-.23,82.35h0A24.21,24.21,0,0,0,76,213.71L34.57,199.56Zm64.19,18.36h0l0,2.41Z"/><path class="cls-1" d="M249.24,144.07l-137,1.5a4.14,4.14,0,0,0-3,1.26,4.5,4.5,0,0,0-1.26,3.09v7.48a4.21,4.21,0,0,0,1.22,3,3.82,3.82,0,0,0,2.94,1.22l137-1.59a4.29,4.29,0,0,0,4.11-4.31l.05-7.48A4.07,4.07,0,0,0,249.24,144.07Z"/></svg>