<svg id="Artwork" xmlns="http://www.w3.org/2000/svg" viewBox="0 0 480 320"><defs><style>.cls-1{fill:#000;}</style></defs><path class="cls-1" d="M456,149.18l-10.78-8.32v-.14H445L367.9,81.22a17.71,17.71,0,0,0-13.31-4.14L25,106.83a12.81,12.81,0,0,0-11.46,12.76v36.66a17.78,17.78,0,0,0,6.14,13.44l83.73,72.36a20.14,20.14,0,0,0,13.1,4.87c.62,0,1.23,0,1.84-.09L448.92,216.2a13,13,0,0,0,11.75-12.59l1-42.48A14.75,14.75,0,0,0,456,149.18Zm-341.86,38a5.8,5.8,0,0,1-4.44-1.42l-1.43-1.27L442.67,149l3.86,3ZM355.37,85a9,9,0,0,1,1-.06,9.75,9.75,0,0,1,6.36,2.37L433.51,142,100.12,177.3l-70.9-62.82ZM25,163.63a9.74,9.74,0,0,1-3.38-7.38V119.59a4.84,4.84,0,0,1,.13-1.08l82.64,73.22a13.75,13.75,0,0,0,4.56,2.67v41.77l-.23-.17Zm379.24,23.3a11.36,11.36,0,0,1,8.45-4,8.67,8.67,0,0,1,8.79,8.22,11.36,11.36,0,0,1-2.85,8.22,11.52,11.52,0,0,1-7.77,4,8.81,8.81,0,0,1-6.45-2.08l0,0C400.4,197.89,400.34,191.45,404.2,186.93Zm17.92-7h0l-3.26-2.8-.44.51h0l.44-.52A15.52,15.52,0,0,0,403,174.79a18.36,18.36,0,0,0-11,12.68,15.35,15.35,0,0,0,4.62,15.37l.43-.49a14.11,14.11,0,0,0,2.83,3.3,14.38,14.38,0,0,0,1.16.9,14.66,14.66,0,0,1-5.34-2.91c-6.74-5.85-6.91-16.77-.38-24.34s17.43-9,24.18-3.15a14.73,14.73,0,0,1,3.66,4.84C422.85,180.63,422.5,180.28,422.12,180Zm30.55,23.48a4.94,4.94,0,0,1-4.49,4.8l-38,3.53a24.54,24.54,0,0,0,13.48-8,24.24,24.24,0,0,0,6-17.46,20.07,20.07,0,0,0-6.85-13.89c-8.82-7.65-22.82-6-31.22,3.66s-7.94,23.74.89,31.39h0a20,20,0,0,0,12.78,4.78l-287.6,26.66-.74,0v-44L453.5,159.31a6.84,6.84,0,0,1,.17,1.63Z"/><path class="cls-1" d="M127.9,212.71c-2.71,3.21-2.64,7.77.21,10.2s7.41,1.92,10.19-1.22,2.57-7.77-.28-10.26S130.68,209.58,127.9,212.71Z"/><path class="cls-1" d="M271.53,195.27a4.39,4.39,0,1,0-6.49.82A4.58,4.58,0,0,0,271.53,195.27Z"/><path class="cls-1" d="M251.63,191.11l.38,4-.41-4-98.17,9.94h0a7.85,7.85,0,0,0-5.15,2.66,8,8,0,0,0-2,5.26v13.85a7.42,7.42,0,0,0,2.21,5.28l.21.2a7.27,7.27,0,0,0,4.73,1.77,5.69,5.69,0,0,0,.83-.06h0l98.2-9.89h0a7.81,7.81,0,0,0,5.09-2.64,8.09,8.09,0,0,0,2.09-5.33v-13.8a7.23,7.23,0,0,0-2.36-5.38A7.09,7.09,0,0,0,251.63,191.11Zm0,21a.8.8,0,0,1-.08.12L154.23,222V209.06l0-.05,97.32-9.86ZM154.22,209h0l-.38-4Zm-.86,13.86-.11-.78h.16l.07.64Zm0,.28.11-.11.3,3Zm98.21-11h0l.38,4Z"/><path class="cls-1" d="M265,201.13a4.38,4.38,0,1,0,6.62,5.67,4.38,4.38,0,1,0-6.62-5.67Z"/><path class="cls-1" d="M263.16,212.76l-.89,1v4.54l1.1,1,10.17-1,.89-1v-4.54l-1.1-1Z"/><path class="cls-1" d="M380.92,174.94a5.9,5.9,0,0,0-4.45-1.45h-.07l-90.57,9.17h0a6.21,6.21,0,0,0-4,2.05l-.14.16a6.54,6.54,0,0,0-1.47,4v26.87a5.85,5.85,0,0,0,1.94,4.4,5.75,5.75,0,0,0,3.84,1.49,5.05,5.05,0,0,0,.67-.06h0l90.57-9.12h0a6.1,6.1,0,0,0,4.1-2.17,6.25,6.25,0,0,0,1.54-4.08V179.34a6,6,0,0,0-1.77-4.24Zm-6.07,29.77-86.66,8.73v-23l86.66-8.77Zm-88.4-16,0,0-.17-2Z"/><path class="cls-1" d="M439.27,166.93a4.4,4.4,0,1,0,6.49-.77A4.65,4.65,0,0,0,439.27,166.93Z"/><path class="cls-1" d="M439.27,178.46a4.4,4.4,0,1,0,6.63,5.72,4.4,4.4,0,1,0-6.63-5.72Z"/><path class="cls-1" d="M439.27,190a4.39,4.39,0,1,0,6.49-.82A4.67,4.67,0,0,0,439.27,190Z"/><path class="cls-1" d="M430.08,194a3.09,3.09,0,1,0,4.57-.54A3.28,3.28,0,0,0,430.08,194Z"/><path class="cls-1" d="M202.34,145.6c10.27,3,23.86,4.71,38.27,4.71s28-1.67,38.24-4.71c15.08-4.46,18.24-10.52,18.24-14.82,0-7.78-9.92-12.35-18.24-14.81-10.27-3-23.85-4.71-38.24-4.71s-28,1.67-38.27,4.71c-15.08,4.45-18.25,10.51-18.25,14.81C184.09,138.57,194,143.14,202.34,145.6Zm38.27-26.34c32,0,48.48,8.08,48.48,11.52s-16.49,11.53-48.48,11.53-48.52-8.08-48.52-11.53S208.6,119.26,240.61,119.26Z"/></svg>