<?xml version="1.0" encoding="utf-8"?>
<!-- Generator: Adobe Illustrator 24.2.3, SVG Export Plug-In . SVG Version: 6.00 Build 0)  -->
<svg version="1.1" id="Artwork" xmlns="http://www.w3.org/2000/svg" xmlns:xlink="http://www.w3.org/1999/xlink" x="0px" y="0px"
	 viewBox="0 0 480 320" style="enable-background:new 0 0 480 320;" xml:space="preserve">
<style type="text/css">
	.st0{fill:#000FFF;}
</style>
<path class="st0" d="M451.6,98.6L351.5,73.2c-0.7-0.2-1.5-0.2-2.2-0.2L31.8,77.3c-4.6,0-8.3,3.8-8.4,8.4c-0.4,22-1.4,94.9-0.3,108.3
	c0.2,2.2,1.3,4.3,3,5.8L79.7,245c1.5,1.3,3.5,2,5.5,2h0.3l364.3-14.4c4.6-0.2,8.2-3.9,8.2-8.5V106.9C458,103,455.4,99.6,451.6,98.6z
	 M349.4,81h0.1l72.3,18.3l-79.2,2.3l-45.8-19.9L349.4,81z M35.6,85.2l90-1.2l43.9,22.6l-82,2.4c-0.8,0-1.5,0.1-2.3,0.3l0.1-0.3
	L35.6,85.2z M182,106.2l-43.5-22.4l143.8-2l46.2,20.2L182,106.2z M31.1,193.3c-0.9-9.9-0.5-57.7,0.2-101.3l47.4,22.7
	c-0.7,1.4-1,2.9-1,4.4l0.6,114.2l-47-39.6C31.2,193.6,31.1,193.5,31.1,193.3z M450,224c0,0.3-0.2,0.5-0.5,0.5l0,0l0,0L86.3,239
	l-0.6-120c0-1.1,0.9-2.1,2-2.1l362.1-10.4c0.1,0.1,0.1,0.2,0.1,0.4L450,224z"/>
<path class="st0" d="M355.1,117.2c-1.5-1.4-3.5-2.2-5.5-2.2l-154.7,2.8c-4.2,0.1-7.6,3.6-7.6,7.8l0.9,89.7c0,4.2,3.5,7.7,7.7,7.7
	h0.2l154.7-4.2c4.2-0.1,7.5-3.6,7.5-7.8l-0.9-88.3C357.4,120.7,356.5,118.7,355.1,117.2z M196.1,215l-0.9-89.2l154.2-2.8l0.9,87.8
	L196.1,215z"/>
<path class="st0" d="M332.2,164l-119.9,3.1c-5.6,0.1-10,4.7-10,10.2v7c0,5.6,4.6,10.2,10.2,10.2l0,0h0.4l119.9-4.4
	c5.5-0.2,9.9-4.7,9.9-10.2v-5.7c0-5.6-4.6-10.2-10.2-10.2l0,0L332.2,164L332.2,164z M334.7,179.9c0,1.2-0.9,2.2-2.1,2.2l-119.9,4.5
	c-1.2,0.1-2.3-0.9-2.3-2.1l0,0v-0.1v-7c0-1.2,1-2.2,2.2-2.2l119.9-3.1h0.1c1.2,0,2.2,1,2.2,2.2L334.7,179.9z"/>
<ellipse class="st0" cx="229.3" cy="93.8" rx="62.1" ry="6.6"/>
<path class="st0" d="M167,144.4c-3.5-2.6-7.3-4.6-11.4-5.8c-16.3-12.3-39.5-9-51.8,7.3c-12.3,16.3-9,39.5,7.3,51.8
	c3.4,2.6,7.3,4.5,11.4,5.8c16.3,12.3,39.5,9,51.8-7.3C186.6,179.9,183.3,156.7,167,144.4z M109.1,184.1c-3.1-4.8-4.7-10.3-4.7-15.9
	c0-15.5,12.2-28.3,27.6-29C113.8,145.9,103.8,165.4,109.1,184.1z M146.9,203.9c-16,0-29-13-29-29v-0.1c0.1-16,13-28.9,29-28.9
	s29,13,29,29S162.9,203.9,146.9,203.9z"/>
<path class="st0" d="M431.5,137.8c-3.4-2.6-7.2-4.5-11.3-5.8c-16.3-12.3-39.5-9-51.8,7.4c-12.3,16.4-9,39.5,7.4,51.8
	c3.4,2.6,7.2,4.5,11.3,5.8c16.3,12.3,39.5,9,51.8-7.4C451.2,173.2,447.9,150.1,431.5,137.8z M373.7,177.5c-3-4.8-4.7-10.3-4.7-15.9
	c0-15.5,12.2-28.3,27.6-29C378.4,139.3,368.4,158.8,373.7,177.5z M411.1,197.9c-16,0-29-12.9-29-29c0.1-15.9,13-28.9,29-29
	c16,0,29,13,29,29S427.1,197.9,411.1,197.9z"/>
</svg>
