<svg xmlns="http://www.w3.org/2000/svg" viewBox="0 0 480 320"><defs><style>.cls-1{fill:#000;}</style></defs><g id="Artwork"><path class="cls-1" d="M451.59,98.6,351.51,73.22A8.62,8.62,0,0,0,349.3,73l-74.24,1L271.17,76,136.31,78.65,126.54,76,31.8,77.29a8.48,8.48,0,0,0-8.4,8.38C23,107.67,22,180.54,23.14,194a8.51,8.51,0,0,0,3,5.76L79.74,245a8.44,8.44,0,0,0,5.49,2h.34l364.27-14.42A8.49,8.49,0,0,0,458,224.1V106.86A8.49,8.49,0,0,0,451.59,98.6ZM349.41,81h.13l72.28,18.32-79.22,2.29L296.84,81.68ZM35.64,85.24l90-1.23,43.87,22.57-82,2.36a9.89,9.89,0,0,0-2.29.33l.12-.26Zm146.33,21L141.39,85.8l143.8-2L328.49,102ZM31.11,193.33c-.87-9.94-.49-57.71.19-101.3l47.41,22.66a10.34,10.34,0,0,0-1,4.41l.6,114.21-47-39.63A.52.52,0,0,1,31.11,193.33ZM450,224a.51.51,0,0,1-.5.52h0L86.31,239,85.73,119a2.1,2.1,0,0,1,2-2.12l362.09-10.44a.51.51,0,0,1,.15.36Z"/><path class="cls-1" d="M355.06,117.23a7.84,7.84,0,0,0-5.53-2.19l-154.74,2.8a7.76,7.76,0,0,0-7.6,7.81l.9,89.72a7.73,7.73,0,0,0,7.73,7.66H196l154.74-4.19a7.78,7.78,0,0,0,7.53-7.8l-.91-88.32A7.68,7.68,0,0,0,355.06,117.23Zm-159,97.8-.9-89.2L349.41,123l.89,87.8Z"/><ellipse class="cls-1" cx="232.52" cy="94.79" rx="62.05" ry="6.6"/><path class="cls-1" d="M151.05,145.36a27.34,27.34,0,1,0-24.47,48,27.34,27.34,0,1,0,24.47-48Zm-37.84,21.85a21.44,21.44,0,0,1,20.42-21.4A27.34,27.34,0,0,0,116.72,179,21.29,21.29,0,0,1,113.21,167.21ZM143,192.88v0a21.43,21.43,0,1,1,21.42-21.42A21.42,21.42,0,0,1,143,192.92Z"/><path class="cls-1" d="M420.27,136.08a27.34,27.34,0,1,0-24.47,48,27.34,27.34,0,1,0,24.47-48Zm-37.84,21.85a21.43,21.43,0,0,1,20.42-21.4,27.34,27.34,0,0,0-16.91,33.15A21.31,21.31,0,0,1,382.43,157.93Zm29.81,25.67v0a21.43,21.43,0,1,1,21.42-21.43A21.42,21.42,0,0,1,412.24,183.64Z"/></g><g id="Layer_1" data-name="Layer 1"><circle class="cls-1" cx="378.25" cy="207.56" r="3.66"/><circle class="cls-1" cx="431.76" cy="205.85" r="3.66"/><polygon class="cls-1" points="173.22 219.33 157.25 219.78 157.23 213.37 173.2 212.92 173.22 219.33"/></g></svg>