<svg id="Artwork" xmlns="http://www.w3.org/2000/svg" viewBox="0 0 480 320"><defs><style>.cls-1{fill:#000;}</style></defs><path class="cls-1" d="M441.6,129,310.36,76.5a22,22,0,0,0-8.17-1.58H38.39A10.5,10.5,0,0,0,27.9,85.41V172a19.93,19.93,0,0,0,8.67,16.45l75.59,51.71a19.91,19.91,0,0,0,10.92,3.26l329,1.69V144.55A16.62,16.62,0,0,0,441.6,129Zm-316,18.63a3.37,3.37,0,0,1,3.36-3.36h3.63v89.52l-7.89,0Zm13.24-3.36h289v91l-289-1.48Zm168-58.87,123,49.25H128.92a12.82,12.82,0,0,0-5.5,1.24L43.26,84.54H302.19A12.22,12.22,0,0,1,306.78,85.43ZM42,180.48A10.33,10.33,0,0,1,37.52,172V92.29l79.26,50.8a12.6,12.6,0,0,0-.84,4.52l-.86,82.86Zm400.47,54.93-7.31,0V144.3h7.29a2,2,0,0,1,0,.25Z"/><rect class="cls-1" x="260.59" y="160.65" width="87.02" height="32.88" rx="6.85"/><rect class="cls-1" x="278.32" y="209.92" width="24.97" height="10.75" rx="2.73"/><path class="cls-1" d="M155.3,192c-3.59,0-6.51,2.4-6.51,5.37v14.23c0,3,2.92,5.38,6.51,5.38s6.51-2.41,6.51-5.38V197.38C161.81,194.41,158.9,192,155.3,192Z"/><circle class="cls-1" cx="200.48" cy="189.9" r="16.75"/><circle class="cls-1" cx="390.8" cy="191.89" r="21.1"/><circle class="cls-1" cx="245.69" cy="167.46" r="6.3"/><circle class="cls-1" cx="176.48" cy="221.27" r="6.3"/><circle class="cls-1" cx="245.69" cy="207.24" r="6.3"/><path class="cls-1" d="M174.28,175.88a4.17,4.17,0,1,0-4.17-4.17A4.17,4.17,0,0,0,174.28,175.88Z"/><path class="cls-1" d="M323,204.4a10.9,10.9,0,1,0,10.89,10.9A10.9,10.9,0,0,0,323,204.4Zm0,16.11a5.22,5.22,0,1,1,5.21-5.21A5.21,5.21,0,0,1,323,220.51Z"/></svg>