<svg xmlns="http://www.w3.org/2000/svg" xmlns:xlink="http://www.w3.org/1999/xlink" viewBox="0 0 480 320"><defs><style>.cls-1{fill:none;}.cls-2{clip-path:url(#clip-path);}.cls-3{fill:#000;}</style><clipPath id="clip-path"><rect class="cls-1" x="91.72" y="-156.69" width="292.06" height="113.06"/></clipPath></defs><g id="NT-505"><g class="cls-2"><image width="3608" height="2706" transform="translate(54.88 -240.06) scale(0.1)" xlink:href="../../Bricasti/Assets/210212_UD-701N-B_front.jpg"/></g><path class="cls-3" d="M262.32,181.6a4.52,4.52,0,0,0-4.21-1.36,4.92,4.92,0,0,0-1.05.33,5.43,5.43,0,0,0-1.05.59,6.78,6.78,0,0,0-1.62,1.63,7.64,7.64,0,0,0-1.37,4.33,6.51,6.51,0,0,0,.37,2.27,5.53,5.53,0,0,0,1.18,2,4.49,4.49,0,0,0,4.2,1.35,5.53,5.53,0,0,0,1.05-.32,6,6,0,0,0,1.05-.59,6.6,6.6,0,0,0,1.62-1.63,7.68,7.68,0,0,0,1.38-4.33,7,7,0,0,0-.37-2.27A5.62,5.62,0,0,0,262.32,181.6Z"/><path class="cls-3" d="M403.36,146a16.43,16.43,0,0,0-1.55-2.68,14.55,14.55,0,0,0-2-2.26,12.83,12.83,0,0,0-2.61-1.81c-.27-.4-.55-.79-.95-1.28a17.26,17.26,0,0,0-2.61-2.59,15.35,15.35,0,0,0-3-1.91,15.14,15.14,0,0,0-3.65-1.19,14.7,14.7,0,0,0-3.63-.24,15.56,15.56,0,0,0-3.43.57,17.67,17.67,0,0,0-3.47,1.38,19.93,19.93,0,0,0-2.8,1.81A20.37,20.37,0,0,0,371,138.1a24.93,24.93,0,0,0-3.8,5.33,27.56,27.56,0,0,0-3.2,12.36h0a25.47,25.47,0,0,0,.38,5,23,23,0,0,0,1.47,5,19.55,19.55,0,0,0,2.73,4.61,16.8,16.8,0,0,0,4.18,3.74,15.92,15.92,0,0,0,2.65,1.31,15.35,15.35,0,0,0,2.75.76,16,16,0,0,0,2.58.22h.35c.47,0,.95,0,1.42-.09l.7-.1.69-.13a17.33,17.33,0,0,0,2.59-.75,19.45,19.45,0,0,0,2.57-1.22c.47-.27,1-.64,1.52-1a13.15,13.15,0,0,0,2.78-.69,14.43,14.43,0,0,0,2.89-1.44,17.06,17.06,0,0,0,2.27-1.76,17.27,17.27,0,0,0,2-2.17,20.54,20.54,0,0,0,2.8-4.82,21.8,21.8,0,0,0,1.45-5.27l.09-.67c0-.23.05-.45.06-.66,0-.46.06-.91.07-1.38a20.26,20.26,0,0,0-.13-2.82A18.48,18.48,0,0,0,403.36,146ZM377,167.34a8.46,8.46,0,0,1-2.17-2,11.63,11.63,0,0,1-1.61-2.73,14.41,14.41,0,0,1-1-3.23A17.3,17.3,0,0,1,372,156h0a19.5,19.5,0,0,1,2.27-8.76,16.51,16.51,0,0,1,2.56-3.61,14.16,14.16,0,0,1,1.63-1.49,12,12,0,0,1,1.66-1.07,9.41,9.41,0,0,1,1.89-.75,8,8,0,0,1,1.71-.29h.44a16.93,16.93,0,0,0-2.17,1.64,17.25,17.25,0,0,0-2,2.15,20.65,20.65,0,0,0-2.85,4.76,22.1,22.1,0,0,0-1.51,5.25c-.07.44-.13.88-.17,1.33s-.07.9-.09,1.35a20.2,20.2,0,0,0,.1,2.81,18.77,18.77,0,0,0,1.4,5.5,16,16,0,0,0,1.48,2.7c.17.24.35.47.53.7-.2-.06-.4-.12-.6-.2A6.45,6.45,0,0,1,377,167.34ZM397,155c0,.14,0,.28,0,.42s0,.27-.06.42a13.5,13.5,0,0,1-.92,3.36,12.69,12.69,0,0,1-1.7,2.94,10.24,10.24,0,0,1-1.13,1.23,9.72,9.72,0,0,1-1.17.91,6.78,6.78,0,0,1-1.32.66,5.34,5.34,0,0,1-1.18.29,4.16,4.16,0,0,1-1.58-.09,3.93,3.93,0,0,1-1-.4,4.75,4.75,0,0,1-1-.77,6,6,0,0,1-.85-1,8,8,0,0,1-.74-1.36,10.34,10.34,0,0,1-.79-3.14,12.54,12.54,0,0,1-.06-1.74c0-.28,0-.57,0-.85s.07-.56.11-.84a14.07,14.07,0,0,1,1-3.34,12.37,12.37,0,0,1,1.73-2.91,9.94,9.94,0,0,1,1.13-1.2,8.6,8.6,0,0,1,1.18-.88,6.17,6.17,0,0,1,1.32-.64,5,5,0,0,1,1.17-.27,4.68,4.68,0,0,1,1.35.07,4,4,0,0,1,1,.37,4.84,4.84,0,0,1,1.05.73,6,6,0,0,1,.88,1,8.54,8.54,0,0,1,.76,1.33,10.23,10.23,0,0,1,.84,3.13,12.23,12.23,0,0,1,.09,1.72C397,154.41,397,154.7,397,155Z"/><path class="cls-3" d="M357.18,141.8a2.31,2.31,0,0,0-.81-.68,2,2,0,0,0-1-.17l-45.6,4.59a2.45,2.45,0,0,0-1.11.41,3.06,3.06,0,0,0-.86.82A4,4,0,0,0,307,149l-.18,14.66a3.44,3.44,0,0,0,.15,1.1,2.85,2.85,0,0,0,.52,1,2.37,2.37,0,0,0,.87.66,2.21,2.21,0,0,0,1.08.15l45.44-5.3a2.23,2.23,0,0,0,1-.41,3.08,3.08,0,0,0,.81-.8,4.07,4.07,0,0,0,.69-2.16l.31-14.09a3.46,3.46,0,0,0-.13-1.06A3,3,0,0,0,357.18,141.8Z"/><path class="cls-3" d="M297.08,160.83a11.48,11.48,0,0,0-1.24-1.67,8.91,8.91,0,0,0-.79-1.89l-.23-.43a15.18,15.18,0,0,0-1.74-2.7,14.7,14.7,0,0,0-2.26-2.27,13.66,13.66,0,0,0-12.6-2.42,15.46,15.46,0,0,0-2.84,1.17,16.06,16.06,0,0,0-2.69,1.78,18.87,18.87,0,0,0-4,4.47,21,21,0,0,0-3.3,11.13h0a19.25,19.25,0,0,0,.5,4.51,17.53,17.53,0,0,0,1.65,4.37,15.68,15.68,0,0,0,2.95,3.86,13.85,13.85,0,0,0,4.23,2.74,13.28,13.28,0,0,0,5,1h.18a14.49,14.49,0,0,0,2.27-.19,15.32,15.32,0,0,0,2.46-.63,16.23,16.23,0,0,0,2.15-.93,16.85,16.85,0,0,0,2.11-1.33l.19-.14a16.38,16.38,0,0,0,1.28-1,11.56,11.56,0,0,0,2.42-1.19,12.23,12.23,0,0,0,1.84-1.47c.28-.27.54-.55.8-.84s.48-.59.7-.89a14.43,14.43,0,0,0,2.74-8.31,14.25,14.25,0,0,0-.4-3.4A12.43,12.43,0,0,0,297.08,160.83Zm-12.47,9.71a5.51,5.51,0,0,1-.16-1.36,6.47,6.47,0,0,1,1.2-3.68l.3-.38c.1-.11.2-.22.31-.32a4.36,4.36,0,0,1,.65-.52,2.94,2.94,0,0,1,1.27-.48,1.87,1.87,0,0,1,.71,0,2,2,0,0,1,.7.36,2.76,2.76,0,0,1,.63.75,4,4,0,0,1,.47,1.13,5.75,5.75,0,0,1,.16,1.39,6.47,6.47,0,0,1-1.21,3.67,3.44,3.44,0,0,1-.28.36c-.1.11-.2.22-.31.32a4,4,0,0,1-.65.53,3,3,0,0,1-1.26.49,1.8,1.8,0,0,1-.77-.07,1.94,1.94,0,0,1-.69-.37,2.87,2.87,0,0,1-.62-.74A3.93,3.93,0,0,1,284.61,170.54ZM276,174.92a7.36,7.36,0,0,1-1.41-1.86,9.59,9.59,0,0,1-.89-2.37,11,11,0,0,1-.29-2.65,12.86,12.86,0,0,1,2-6.83,10.81,10.81,0,0,1,2.3-2.58,8.87,8.87,0,0,1,1.41-.94,7.44,7.44,0,0,1,1.38-.57,6,6,0,0,1,2.82-.17l.23.06a9.29,9.29,0,0,0-1,.55,11.92,11.92,0,0,0-1.87,1.48c-.28.27-.54.55-.8.84s-.24.28-.36.44-.23.29-.35.45a14.42,14.42,0,0,0-2.75,8.36,13.7,13.7,0,0,0,.4,3.34,12.21,12.21,0,0,0,1.33,3.27c.12.21.25.4.38.59a7.19,7.19,0,0,1-.79-.24A5.89,5.89,0,0,1,276,174.92Z"/><path class="cls-3" d="M322.86,173.36l-14,1.63a4.16,4.16,0,0,0-3.67,4.08l-.06,5.37a4.17,4.17,0,0,0,4.15,4.2,3,3,0,0,0,.52,0l14-1.76a4.18,4.18,0,0,0,3.63-4.07l.07-5.22a4.15,4.15,0,0,0-4.63-4.19Zm-.43,8.61-12.28,1.55,0-3.65,12.29-1.43Z"/><path class="cls-3" d="M247.22,183.51a4.49,4.49,0,0,0-4.2-1.35,5.53,5.53,0,0,0-1.05.32,6,6,0,0,0-1.05.59,6.6,6.6,0,0,0-1.62,1.63,7.74,7.74,0,0,0-1.38,4.34,6.66,6.66,0,0,0,.38,2.26,5.43,5.43,0,0,0,1.18,2,4.52,4.52,0,0,0,4.2,1.35,4.92,4.92,0,0,0,1-.33,5.43,5.43,0,0,0,1.05-.59,6.78,6.78,0,0,0,1.62-1.63,7.68,7.68,0,0,0,1.38-4.33,6.8,6.8,0,0,0-.38-2.27A5.33,5.33,0,0,0,247.22,183.51Z"/><path class="cls-3" d="M228.94,181.47a8.26,8.26,0,0,0-7.72-2.48,9.72,9.72,0,0,0-1.86.57,9.85,9.85,0,0,0-1.81,1,11,11,0,0,0-2.69,2.71,12.42,12.42,0,0,0-2.23,7,11.2,11.2,0,0,0,.63,3.76,9.49,9.49,0,0,0,2.06,3.42,8.25,8.25,0,0,0,6,2.64,8.78,8.78,0,0,0,3.53-.74,10.41,10.41,0,0,0,1.81-1,11.35,11.35,0,0,0,2.69-2.71,12.36,12.36,0,0,0,2.23-7,11,11,0,0,0-.62-3.77A9.49,9.49,0,0,0,228.94,181.47Zm-3.64,11.32a6.21,6.21,0,0,1-1.48,1.5,5,5,0,0,1-.9.5,4.55,4.55,0,0,1-.84.27,3.31,3.31,0,0,1-3.13-1,4.63,4.63,0,0,1-1-1.64,6.23,6.23,0,0,1-.34-2.09,7.26,7.26,0,0,1,1.32-4.15,6,6,0,0,1,1.48-1.5,4.5,4.5,0,0,1,.9-.51,3.78,3.78,0,0,1,.85-.26,3.23,3.23,0,0,1,.69-.07,3.33,3.33,0,0,1,2.44,1.07,4.59,4.59,0,0,1,1,1.65h0a6,6,0,0,1,.34,2.09A7.26,7.26,0,0,1,225.3,192.79Z"/><path class="cls-3" d="M206.51,184a7.83,7.83,0,0,0-7.29-2.34,9,9,0,0,0-1.83.56,10.47,10.47,0,0,0-1.82,1,11.45,11.45,0,0,0-2.8,2.84,13.11,13.11,0,0,0-2.39,7.51,11.51,11.51,0,0,0,.65,3.94,9.54,9.54,0,0,0,2,3.4,7.83,7.83,0,0,0,7.29,2.34,8.72,8.72,0,0,0,1.82-.56,10.47,10.47,0,0,0,1.82-1,11.62,11.62,0,0,0,2.81-2.83,13.29,13.29,0,0,0,2.39-7.51,11.51,11.51,0,0,0-.65-3.94A9.58,9.58,0,0,0,206.51,184Z"/><path class="cls-3" d="M437,111.53l-.2,0L311.26,88.9a3.57,3.57,0,0,0-1-.05l-266,18.37a4,4,0,0,0-1.86.63A4,4,0,0,0,39,111.79v67.13a4,4,0,0,0,3.06,3.88,4,4,0,0,0,1,.67L141,227.32l.06,0a7.62,7.62,0,0,0,3.12.68c.17,0,.34,0,.5,0h.09c.15,0,.3,0,.45,0h0l11.77-1.6a7,7,0,0,0,1.45,1.19,9.57,9.57,0,0,0,1.4.75,20.68,20.68,0,0,0,2.38.86h0c.33.09.66.19,1,.27l1.08.26c.8.18,1.61.33,2.42.47s1.41.22,2.11.32,1.51.18,2.26.26c2.76.28,5.76.43,8.67.43h.07c.72,0,1.44,0,2.16,0l1.08,0,1-.05,2.24-.15c.72-.06,1.44-.13,2.17-.22s1.65-.22,2.4-.36c.38-.06.76-.14,1.13-.22s.71-.16,1.06-.25.66-.18,1-.28.63-.2.93-.32.61-.24.89-.38a6.9,6.9,0,0,0,.85-.47,7,7,0,0,0,.86-.62,5.41,5.41,0,0,0,.84-.89,4.87,4.87,0,0,0,.71-1.28,4.44,4.44,0,0,0,.25-1l0-.29c0-.1,0-.2,0-.29l.08-3.48L371,197.27l.14.1a9.64,9.64,0,0,0,1.4.74,17.5,17.5,0,0,0,2.38.86h0l1,.28,1.09.26c.8.18,1.6.33,2.41.47s1.41.22,2.11.31l2.26.27c2.77.28,5.77.43,8.67.43h.13c.7,0,1.41,0,2.11,0l1.07,0,1,0c.75,0,1.49-.09,2.24-.15s1.45-.14,2.17-.22,1.66-.23,2.41-.36l1.12-.22,1.06-.25,1-.28.93-.33a7.53,7.53,0,0,0,.88-.38,8.17,8.17,0,0,0,.87-.47,5.88,5.88,0,0,0,.84-.62,5.58,5.58,0,0,0,.83-.86,5.33,5.33,0,0,0,.71-1.27,4.61,4.61,0,0,0,.31-1.56.13.13,0,0,0,0-.06l.05-2.19,24.68-3.35H437a4,4,0,0,0,4-4v-68.8A4,4,0,0,0,437,111.53ZM144.48,220a2.85,2.85,0,0,0,0-.29,5.44,5.44,0,0,0,.05-.58l-1.2-75.67L433,119.65v61.12ZM47,115.05l4.05-.28c.08,0,.15.08.24.11l84,27.16,1.18,74.5L47,176.46ZM310.33,96.86l94.6,17.07L141.26,135.57,72.4,113.3Z"/><path class="cls-3" d="M178.92,163.39a6.46,6.46,0,0,0-6.45,6.46v8.83a6.46,6.46,0,0,0,12.91,0v-8.83A6.47,6.47,0,0,0,178.92,163.39Zm3.19,15.29a3.19,3.19,0,0,1-6.37,0v-5.05a3.67,3.67,0,0,0,.53.59l0,0,.49.35,0,0,.06,0,.25.13.08,0a3.33,3.33,0,0,0,2.11.76,3.41,3.41,0,0,0,2.76-1.44Zm-5.19-6.62a2.48,2.48,0,0,1,2.43-2.53,2.25,2.25,0,0,1,.89.18.56.56,0,0,0,.22,0,2.6,2.6,0,0,1,1.39,2.32,2.55,2.55,0,0,1-2.5,2.59,2.38,2.38,0,0,1-1.49-.53.59.59,0,0,0-.13-.18A2.54,2.54,0,0,1,176.92,172.06Zm5.19-2.1a3.7,3.7,0,0,0-1.25-1.07l-.07-.07h0l-.15-.14-.05,0-.58-.35-.05,0a3.37,3.37,0,0,0-4.15,1.1,3.18,3.18,0,0,1,6.32.49Z"/><path class="cls-3" d="M429,170.37h0l-.26-36.75a9.33,9.33,0,0,0-.62-3.25,9.16,9.16,0,0,0-1.69-2.81,8.76,8.76,0,0,0-2.59-2,8,8,0,0,0-3.22-.91h0l-6.76-.45h0a1.7,1.7,0,0,0-.45,0l-6.75,1.1a2,2,0,0,0,.23,4l6,.35h0v0a5.72,5.72,0,0,1,2,.42,6,6,0,0,1,1.75,1.07,5.22,5.22,0,0,1,1.2,1.59,4.22,4.22,0,0,1,.44,1.85l.3,37a3.85,3.85,0,0,1-.25,1.3,7.46,7.46,0,0,1-.42.75l-9.61.91a2,2,0,0,0-1.8,2.19h0a.09.09,0,0,1,0,.05,2,2,0,0,0,1.78,2.2l4.95.52h.08l.65,0a10,10,0,0,0,1.64-.14h0l7.17-1.23a7.38,7.38,0,0,0,4.59-2.78,8.1,8.1,0,0,0,1.24-2.41,8.58,8.58,0,0,0,.36-2.2h0v-.42Z"/><path class="cls-3" d="M169.54,202l-.26-40.75a9.38,9.38,0,0,0-2.31-6.06,8.76,8.76,0,0,0-2.59-2,8.21,8.21,0,0,0-3.22-.92h0l-6.76-.44h0a1.72,1.72,0,0,0-.45,0l-6.75,1.1a2,2,0,0,0,.23,4l6,.35h0v0a5.83,5.83,0,0,1,2,.42,6,6,0,0,1,1.74,1.07,5.1,5.1,0,0,1,1.2,1.59,4.38,4.38,0,0,1,.45,1.85l.29,41a3.85,3.85,0,0,1-.25,1.3,7.46,7.46,0,0,1-.42.75l-9.61.91a2,2,0,0,0-1.8,2.18v0a.09.09,0,0,0,0,0,2,2,0,0,0,1.78,2.2l4.94.52h.08l.65,0a9.9,9.9,0,0,0,1.64-.14h0l7.17-1.24a7.33,7.33,0,0,0,4.59-2.77,7.87,7.87,0,0,0,1.24-2.41,8.17,8.17,0,0,0,.36-2.2h0V202Z"/></g></svg>