<svg xmlns="http://www.w3.org/2000/svg" viewBox="0 0 480 320"><defs><style>.cls-1{fill:#000;}</style></defs><g id="Layer_1" data-name="Layer 1"><path class="cls-1" d="M451.51,186.35h0l-6.41-22.67h0l-9.26-32.4h0c-1.08-3.51-3.26-4.5-5-4.69L275.36,83.72a20.2,20.2,0,0,0-6-.75L32.78,95.54h0c-4.65.28-5.16,3.53-5.16,4.93h1.14l-1.14,0,1,51.27,99.57,79.84c5.34,4.72,10.24,5.44,12.74,5.44.33,0,.62,0,.86,0l-.15-2.09.22,2.09L440.7,205.58h0c5.17-.46,8-3,9.38-5C453.55,195.59,452.26,189,451.51,186.35ZM424.29,162.8c-3.13-5.24-8.7-8.61-14.4-8.18a12.21,12.21,0,0,0-7.36,3.31,14.21,14.21,0,0,0-8.1-1.71,12.48,12.48,0,0,0-7,2.83,14.6,14.6,0,0,0-8.05-1.74,12.15,12.15,0,0,0-10.87,8.54,7.1,7.1,0,0,1-1.18.26l-19.15,1.47c-4.27.3-4.49-.67-4.84-2.19l-1.8-8.79c-.64-3.17-3.47-10.48-15.95-9.8L251,152h-.11c-3.35.33-8.12,1.18-10.82,4.73a9.92,9.92,0,0,0-1.66,8l1.53,8.85a4.41,4.41,0,0,1-.34,3.19,2.89,2.89,0,0,1-2,.77L210.71,180a3.8,3.8,0,0,1-2.66-.8,1.77,1.77,0,0,1,.15.22h0c-2-3.46-5.87-5.78-10.64-6.36A16.67,16.67,0,0,0,185,176.45c-4.87-2.31-14-3.42-18.28,1.72h-.14l.08,0h0a17.62,17.62,0,0,0-10.18-2.43,14.7,14.7,0,0,0-10.7,5.9,14.94,14.94,0,0,0-2.59,5.78l-10,.9-8.33.74c-.91-7.35-2.72-23.2-3.7-31.94l307.32-22.47,7.73,27.06Zm-13.14,13.45h0a6.39,6.39,0,0,0-8.69,1.15h0c-.43.51-.71.74-2.88,1a7,7,0,0,1-4.45-1.21h0a5.79,5.79,0,0,0-7.9,1.21h0a4,4,0,0,1-2.94,1.72,7.19,7.19,0,0,1-5.77-2.71h0c-2.46-2.82-4.45-3.79-7.24-4a7.24,7.24,0,0,0,5-5.32,4.25,4.25,0,0,1,3.86-2.76,6.82,6.82,0,0,1,4.35,1.27h0a6.06,6.06,0,0,0,3.4,1.09,5.83,5.83,0,0,0,4.43-2.15h0a4.33,4.33,0,0,1,2.92-1.31,6.33,6.33,0,0,1,3.78.9h0a7.36,7.36,0,0,0,3.86,1.11,6.61,6.61,0,0,0,5.05-2.26h0a4,4,0,0,1,2.69-1.33c3.44-.26,7.12,3.08,8.06,7.21a7.15,7.15,0,0,1-.95,5.69,4,4,0,0,1-3,1.68A5.52,5.52,0,0,1,411.15,176.25Zm-71.7,12,1.47,8.1a2.28,2.28,0,0,1-.41,1.92c-1,1.31-3.31,2.26-6.23,2.55l-72.93,7.3h0c-6.3.42-6.67-1.23-7.56-5.23l-1.49-6.63a12.42,12.42,0,0,0-12.12-11.09,9.86,9.86,0,0,0,5.68-3.51c1.9-2.44,2.56-5.71,1.91-9.46l-1.53-8.85a2.57,2.57,0,0,1,.14-1.76c.21-.28,1.21-1.21,5.19-1.62l74.5-5.18c6.84-.38,7.43,2.46,7.62,3.41l1.82,8.89c1.63,7.11,6.95,8.41,10.58,8.54a9.53,9.53,0,0,0-4.66,3.33A11.8,11.8,0,0,0,339.45,188.25ZM204,193a4.36,4.36,0,0,0-.44.86c-.61,1.72-3,3.43-5.11,3.69s-4.28-.36-5.2-1.19c0,0,0,0,0,0h0a6,6,0,0,0-4.45-1.53,6.18,6.18,0,0,0-4,2l0,0A7.26,7.26,0,0,1,180,199l-.15,0a10.14,10.14,0,0,1-6-1.33l-.12,0h0c-4.24-2-6.82.32-8.08,1.49a6.34,6.34,0,0,1-4,1.78c-4.86.42-9.61-3.3-10.62-8.33a7.56,7.56,0,0,1,1.15-6.16,6.75,6.75,0,0,1,4.92-2.68,9.73,9.73,0,0,1,5.64,1.44h0a8.36,8.36,0,0,0,4,1,7.41,7.41,0,0,0,5.62-2.33,5.17,5.17,0,0,0,.42-.51c.82-1.24,6.13-1.14,9.1.52h0a7.41,7.41,0,0,0,3.4.88,6.19,6.19,0,0,0,4.33-1.75h0l.09-.08c1.42-1.51,4.1-2.26,6.84-1.94,2.19.27,4,1.21,4.7,2.45a3.51,3.51,0,0,0,.42.59,11.22,11.22,0,0,0,8.73,4l.77,0A10.78,10.78,0,0,0,204,193Zm165.92-26.68-1.36-.35,0,0Zm32.51-6.78h0l0,0ZM269.8,91a12.6,12.6,0,0,1,3.39.46l133.57,36.83L118.41,149.33h0a7.41,7.41,0,0,0-1,.17L45.58,102.87ZM35.73,106,113,156.15c.52,4.67,3.88,34.49,4.45,37.93h0l3.18,21.2L36.55,147.87ZM141.22,229h0c-.6,0-3.79.08-7.79-3.48l-.16-.13h0c-3.1-2.47-3.28-3.35-3.94-6.6q-.13-.69-.3-1.47L126,197l7.91-.7,9.64-.87A18.33,18.33,0,0,0,160.87,209c.48,0,1,0,1.45-.06a14.17,14.17,0,0,0,8.57-3.71,18.23,18.23,0,0,0,8,1.9,16.9,16.9,0,0,0,1.74-.09,15.29,15.29,0,0,0,8.82-3.6,16.39,16.39,0,0,0,8.41,2.15c.53,0,1,0,1.26,0h.15a14.79,14.79,0,0,0,11.61-8.35h0a2.79,2.79,0,0,1,2.27-1.44l25.17-2.52c4.8-.44,5.87,2.47,6.09,4.24l1.59,7.21c1.35,6,4,11.54,13.9,11.54.64,0,1.31,0,2-.07l-.11-1.57.16,1.57,47-4.7Zm302.29-33c-.24.35-1,1.42-3.63,1.62l0,.58-.06-.57L337.58,208.39c4.08-.85,7.34-2.68,9.32-5.3a10.2,10.2,0,0,0,1.89-8.18l-1.47-8.1a4,4,0,0,1,.48-3,2,2,0,0,1,1.59-.74h0l19.38-1.7c2.43-.13,2.47-.11,3.63,1.22h0a15.27,15.27,0,0,0,11.37,5.52,12.2,12.2,0,0,0,8.42-3.4,15,15,0,0,0,6.8,1.73,12.83,12.83,0,0,0,1.53-.09c2.4-.27,4.91-.73,7.18-2.86a13.42,13.42,0,0,0,6.47,1.73c.41,0,.83,0,1.24-.06a12,12,0,0,0,8.69-4.9,14.59,14.59,0,0,0,2.65-9.63l11.71-1,5.35,18.88h0C444.67,191.54,444.56,194.5,443.51,196Z"/><path class="cls-1" d="M158.61,187.54a3.21,3.21,0,0,0-2.89,4.09,4.22,4.22,0,0,0,4.49,3.39,3.3,3.3,0,0,0,2.89-4.08A4.25,4.25,0,0,0,158.61,187.54Z"/><path class="cls-1" d="M195.63,184.34a3.21,3.21,0,0,0-2.89,4,4.19,4.19,0,0,0,4.39,3.39,3.22,3.22,0,0,0,2.79-4A4.15,4.15,0,0,0,195.63,184.34Z"/><path class="cls-1" d="M177.27,185.94a3.25,3.25,0,0,0-2.89,4,4.36,4.36,0,0,0,4.48,3.4,3.24,3.24,0,0,0,2.9-4A4.39,4.39,0,0,0,177.27,185.94Z"/><path class="cls-1" d="M415.24,168.68a3.92,3.92,0,0,0-3.8-3.09c-1.59.1-2.59,1.79-2.19,3.59a3.9,3.9,0,0,0,3.79,3.19C414.64,172.17,415.64,170.58,415.24,168.68Z"/><path class="cls-1" d="M381.12,168.27a3.12,3.12,0,0,0-2.5,3.7,3.72,3.72,0,0,0,3.79,3.1c1.7-.1,2.69-1.8,2.3-3.7A4,4,0,0,0,381.12,168.27Z"/><path class="cls-1" d="M396.41,166.88a2.89,2.89,0,0,0-2.43,3.7,3.73,3.73,0,0,0,3.8,3.09,2.76,2.76,0,0,0,2.29-3.59A3.94,3.94,0,0,0,396.41,166.88Z"/></g></svg>