<svg xmlns="http://www.w3.org/2000/svg" viewBox="0 0 480 320"><defs><style>.cls-1{fill:#000;}</style></defs><g id="Layer_1" data-name="Layer 1"><path class="cls-1" d="M452.91,103.69l-.7-.62,0,0a4,4,0,0,0-2.06-1.27L357,78.85l-71.2-17.52a4.34,4.34,0,0,0-1.13-.11L31.38,72.42a4.17,4.17,0,0,0-3,.58,4.33,4.33,0,0,0-1.94,3.71L26,137.6q-.12,17.33-.24,34.64a4.58,4.58,0,0,0,1.93,3.88l44.64,30,7.94,5.35,27.15,18.27L148,257.11a4.24,4.24,0,0,0,1.46.61l.07.06a4,4,0,0,0,2.65,1l.4,0,11.56-1.16q24.09-2.42,47.47-4.77l.17,0c5.83-.83,11.65-1.67,17.41-2.52a4,4,0,0,0,1-.28L277,243.67l32.84-4.46L355.46,233l28-3.8a3.91,3.91,0,0,0,1.8.16c5-.68,9.84-1.36,14.71-2a4.08,4.08,0,0,0,1.58-.58l10.9-1.72,22.22-3.52c13.14-2.09,13.14-2.09,14.12-3,.23-.21.92-.85,1.35-1.28a4,4,0,0,0,1.18-2.74q.74-26.81,1.46-53.7l1.47-54A4,4,0,0,0,452.91,103.69Zm-9.54,107.36-30.09-2-7.82-.51q.6-20.34,1.14-40.71.33-11.79.64-23.58.24-9.21.49-18.46,19.41-7.11,38.34-14.09l-1.32,48.83Q444.06,185.83,443.37,211.05ZM195.94,237.27q-20.35,6.25-41.23,12.65l.66-58q.33-28.81.63-57.75l25.13,4.55,24.55,4.45q-.06,6.6-.11,13.2-.12,16.19-.27,32.33-.11,11.67-.19,23.33-.09,11.23-.19,22.46Zm11.15-105.5-.63,3.43-22.14-4,23.23-1.89C207.4,130.12,207.24,131,207.09,131.77Zm-8.8,113.15,7.6-2.34.6,2.73-14.09,1.42Zm26.65-109.73-.39,2.47a3.66,3.66,0,0,0-.05.57q-.09,7-.17,14.08l-.08,6.84-.12,10.41L224,180q-.12,12-.28,23.94l-.12,9q-.13,11.1-.29,22.18a3.82,3.82,0,0,0,.05.68c.35,2.25.69,4.53,1,6.77l-10,1.53-.11-.5c-.47-2.14-.95-4.29-1.42-6.44q.13-12.54.22-25.1.09-11.64.19-23.31.16-16.16.27-32.35c.05-5.48.09-10.95.13-16.44l1.26-6.79c.28-1.53.56-3.06.85-4.59l10.28-.84C225.71,130.26,225.32,132.73,224.94,135.19Zm197.78-23.38-15.41,5.66c-.14-1.46-.29-2.92-.43-4.37ZM396,219.44l-7,.82c.25-1.73.49-3.46.73-5.19a3.73,3.73,0,0,0,0-.46q.29-13.52.59-27.05l.39-17.87q.3-14.3.59-28.64l.34-16.5a2.32,2.32,0,0,0,0-.37q-.35-4.8-.7-9.61l7.89-.72c.19,1.88.37,3.75.55,5.63l.34,3.44q-.3,10.59-.57,21.16l-.63,23.57q-.6,22.26-1.25,44.46C397,214.4,396.52,216.81,396,219.44ZM284.4,69.24l70.65,17.38,69.25,17-113.54,9.09-80,6.39a2.18,2.18,0,0,0-.25,0l-18.36,1.46a3.7,3.7,0,0,0-.48.07l-59.26,4.74a3.63,3.63,0,0,0-.56.09l-17.7-7.81L84.62,95.79,48.13,79.69ZM111.92,223.16,84.77,204.88l-7.94-5.35-43-29q.11-16.42.23-32.91l.41-55.26,47.51,21,17.93,7.91L148,132.53l-1.41,114Zm242.46,1.93-45.65,6.2-32.84,4.45-43.57,5.91c-.32-2.22-.64-4.46-1-6.7q.17-10.94.29-21.86l.12-9q.14-12,.28-24l.12-10.45.12-10.4.08-6.85q.09-6.89.17-13.78l.34-2.19c.49-3.1,1-6.2,1.44-9.3l44.5-3.62L383,115c.23,3.19.47,6.37.7,9.54l-.33,16.31q-.3,14.34-.6,28.63l-.39,17.88q-.3,13.43-.58,26.81c-.34,2.44-.69,4.87-1,7.3Zm50-6.89c.1-.57.2-1.11.3-1.66l7.18.47-.72.12Z"/><path class="cls-1" d="M269,220.52a3.88,3.88,0,0,0,3.42-3.55,2.76,2.76,0,0,0-3.31-2.73,3.92,3.92,0,0,0-3.46,3.56A2.79,2.79,0,0,0,269,220.52Z"/><path class="cls-1" d="M285.07,218.51a3.85,3.85,0,0,0,3.39-3.53,2.74,2.74,0,0,0-3.27-2.71,3.82,3.82,0,0,0-3.36,3.53A2.71,2.71,0,0,0,285.07,218.51Z"/><path class="cls-1" d="M301.2,216.5a3.85,3.85,0,0,0,3.36-3.5,2.69,2.69,0,0,0-3.21-2.7,3.82,3.82,0,0,0-3.36,3.5A2.7,2.7,0,0,0,301.2,216.5Z"/><path class="cls-1" d="M316.89,214.54a3.76,3.76,0,0,0,3.29-3.47,2.66,2.66,0,0,0-3.17-2.68,3.76,3.76,0,0,0-3.3,3.47A2.66,2.66,0,0,0,316.89,214.54Z"/><path class="cls-1" d="M332.42,212.6a3.74,3.74,0,0,0,3.24-3.45,2.61,2.61,0,0,0-3.08-2.66,3.76,3.76,0,0,0-3.28,3.45A2.63,2.63,0,0,0,332.42,212.6Z"/><path class="cls-1" d="M347.78,210.69a3.69,3.69,0,0,0,3.18-3.42,2.58,2.58,0,0,0-3-2.65,3.72,3.72,0,0,0-3.25,3.43A2.64,2.64,0,0,0,347.78,210.69Z"/><path class="cls-1" d="M380.25,128.91a6.35,6.35,0,0,0-6.77-4.59L242.82,137a4,4,0,0,0-1,.22,9,9,0,0,0-5.16,5.17c-.8,2.15-1,9-1.22,35.12,0,3.07-.06,6.2-.09,9.35-.22,20.39-.33,40.64-.34,40.84a3.94,3.94,0,0,0,.31,1.55c1,2.54,3.25,5.15,6.37,5.15l.49,0c1.6-.13,24.44-3.35,61.56-8.6l6.77-1,62.12-8.78a3.84,3.84,0,0,0,1.14-.34c1.13-.53,4.85-2.55,5.14-6.18.09-1.14.23-8.35.48-22.07.1-5.7.21-12,.34-18.41.37-19.53.69-38.82.69-38.82A4,4,0,0,0,380.25,128.91Zm-8.49,40c-.12,6.38-.24,12.72-.34,18.42-.17,9.26-.33,18.06-.42,20.8l-.19.12c-4.79.68-32.59,4.62-61.38,8.68l-6.78,1c-26,3.68-52.87,7.47-59.6,8.36,0-5.1.15-22.14.33-39.28,0-3.14.06-6.28.09-9.35.13-13.94.28-29.7.77-32.51a1.63,1.63,0,0,1,.17-.2l128-12.43C372.32,138.18,372.06,153.47,371.76,168.9Z"/></g></svg>