<svg xmlns="http://www.w3.org/2000/svg" viewBox="0 0 480 320"><defs><style>.cls-1{fill:#000;}</style></defs><g id="Layer_1" data-name="Layer 1"><path class="cls-1" d="M456.39,161.72q-.43-19.08-.87-38.13a.36.36,0,0,0,0-.11,3.07,3.07,0,0,0-.06-.53c0-.08,0-.16,0-.23a3.52,3.52,0,0,0-.25-.71h0a5.26,5.26,0,0,0-.38-.65l-.16-.18a3.25,3.25,0,0,0-.35-.39l-.08-.09-.13-.09a3.69,3.69,0,0,0-.4-.29l-.25-.15A3.43,3.43,0,0,0,453,120l-.27-.11-.09,0L361.42,94.35l-25.36-7.08L290.22,74.46a4.06,4.06,0,0,0-1.39-.13L143.42,85.86l-117,9.27-.08,0a3.35,3.35,0,0,0-.44.07l-.16,0a4.11,4.11,0,0,0-.56.19l0,0a3.42,3.42,0,0,0-.43.21l-.05,0-.16.11a3.55,3.55,0,0,0-.31.23,1.07,1.07,0,0,0-.16.14l-.27.27-.14.16a3.62,3.62,0,0,0-.22.32l-.11.16a4.16,4.16,0,0,0-.24.47.14.14,0,0,1,0,.06,3.65,3.65,0,0,0-.18.56s0,0,0,0,0,.09,0,.13a2.9,2.9,0,0,0-.06.41,1.7,1.7,0,0,0,0,.22c0,.06,0,.12,0,.18l1,62.56a4,4,0,0,0,1.41,3l35.41,29.93,8.12,6.87,51.13,43.21c.09.08.19.13.28.2l.28.19c.12.07.24.12.37.18l.27.13c.14.05.29.08.44.12a2.1,2.1,0,0,0,.24.06,3.82,3.82,0,0,0,.68.06h0a2.74,2.74,0,0,0,.5,0q49.47-6.19,96.62-12.13l79.75-10,114-14.34,40.49-5.1a4,4,0,0,0,3.5-4.06Zm-94.33,22.22s0,0,0,0l.32-.16Zm6.91-4a7,7,0,0,0-6.9-3.65,11.35,11.35,0,0,0-3.18,1.13c-2.26,1.07-3.75,1.66-5.93.41a8.18,8.18,0,0,1-2-2.49,11.69,11.69,0,0,0-8-5.48,7.18,7.18,0,0,0,.12-1.47l-.16-11.33a5.59,5.59,0,0,0-.08-.91l37.46-3.73a10.92,10.92,0,0,1,8.19,2.82,15.83,15.83,0,0,1,4.91,11.66c.2,9.12-5.89,17.27-13.58,18.17A11.45,11.45,0,0,1,369,180ZM235.26,192.28h0a3.53,3.53,0,0,0-.46,0,3.47,3.47,0,0,1-1.52-.35l-.5-.33c-2.58-1.74-5.82-3-10.29,1a6.64,6.64,0,0,1-8.1.8c-5.1-3.15-8.61-.42-10.5,1-1.35,1.05-2.19,1.65-3.64,1.76-3.86.31-6.53-2.72-6.67-3.69l-.12-14.71c.33-1,2.57-7.09,8.3-7.63,5.5-.52,24.94-2.45,49.54-4.9,0,.14,0,.28,0,.42l.1,11.74a7,7,0,0,0,.16,1.47c-2.7.38-6.88,2.43-9,8.33A7.24,7.24,0,0,1,235.26,192.28ZM126.37,159.59l59.1,17.48c0,.15,0,.29,0,.42l.12,15.08a8.76,8.76,0,0,0,.08,1q-6,4.11-12.06,8.24-9.48,6.46-19,13l-12.29,8.4L126.37,234.1Zm197.07-.47L334.88,158,335,168.4a.25.25,0,0,1-.14.08l-73.5,8-2,.22-.09-10.92a.57.57,0,0,1,.35-.19h0Zm56.19-14.65h-.19c-.12,0-.23,0-.34,0h0l-81.61,8.13-26.88,2.68c-33.64,3.35-62.7,6.24-69.61,6.89a17.08,17.08,0,0,0-12.3,7.47l-44.86-13.26,149.7-14,141.52-13.21-7.32,4.57-6,3.72-18.86,11.8L397,153a21.17,21.17,0,0,0-3.28-3.72A19,19,0,0,0,379.63,144.47Zm20.8,15.85,6.73-4.22L426,144.31l6-3.72,15.7-9.8q.36,15.56.71,31.11l.73,32-17.5-7.59L423,182.62Q412,177.82,400.78,173a27.65,27.65,0,0,0,.57-6.19A26.28,26.28,0,0,0,400.43,160.32ZM144.05,93.83l144.7-11.47L333.91,95l25.36,7.08,70.29,19.64L297.4,134l-79.93,7.41-94.37,8.76L91.83,132.1l-51.95-30ZM65.7,188.55l-34-28.75-.84-53.68,24.08,13.93L82,135.69l36.38,21v76.35L73.83,195.42Zm346.57,12.67-114,14.34-79.75,10-80.24,10.08,8.55-5.84,12.3-8.4,19-13,11.67-8a15.22,15.22,0,0,0,9.95,3.77c.38,0,.76,0,1.15-.05a14.08,14.08,0,0,0,7.93-3.43c.32-.25.74-.58,1-.75l.36.19a14.53,14.53,0,0,0,17.61-1.62c.18-.16.33-.28.45-.37l.06,0c.24.15.48.32.75.48a11.1,11.1,0,0,0,6.12,1.55l.57,0A15.17,15.17,0,0,0,250,190c.91-2.51,2.14-3,2.53-3.11.16,0,.07,0,.34,0,0,0,20-2.3,40.39-4.62l8.46-1c16.81-1.9,31.33-3.55,35.25-3.79,1.71-.11,5.79-.14,7,1.92,2.38,4.1,5,5.5,5.55,5.74h0a12.36,12.36,0,0,0,5.73,1.45,16.23,16.23,0,0,0,7-1.88l.13-.07a19.37,19.37,0,0,0,15.95,8.57,19.83,19.83,0,0,0,2.3-.13c7.3-.85,13.65-5.78,17.32-12.57L419.85,190l8.58,3.73,9.82,4.26Z"/><path class="cls-1" d="M381.59,179c5.1-.64,9.17-5.79,9.07-11.52s-4.3-9.88-9.44-9.29S372,163.93,372,169.69,376.44,179.62,381.59,179Z"/><path class="cls-1" d="M200.61,184.5a4.09,4.09,0,0,0-3.45,4.11,3.2,3.2,0,0,0,3.52,3.36,4.12,4.12,0,0,0,3.45-4.12A3.21,3.21,0,0,0,200.61,184.5Z"/><path class="cls-1" d="M356.59,167.76a3.69,3.69,0,0,0-3,3.83,2.94,2.94,0,0,0,3.12,3.17,3.72,3.72,0,0,0,3-3.83A3,3,0,0,0,356.59,167.76Z"/><path class="cls-1" d="M235.88,180.72a4,4,0,0,0-3.38,4.06,3.16,3.16,0,0,0,3.43,3.31,4,4,0,0,0,3.34-4.05A3.14,3.14,0,0,0,235.88,180.72Z"/><path class="cls-1" d="M218.41,182.59a4,4,0,0,0-3.41,4.07,3.19,3.19,0,0,0,3.46,3.35,4.07,4.07,0,0,0,3.44-4.09A3.19,3.19,0,0,0,218.41,182.59Z"/></g></svg>