<svg xmlns="http://www.w3.org/2000/svg" viewBox="0 0 480 320"><defs><style>.cls-1{fill:#000;}</style></defs><g id="Layer_4" data-name="Layer 4"><polygon class="cls-1" points="285.54 209.83 285.56 224.09 286.38 223.97 286.35 210.31 285.54 209.83"/><path class="cls-1" d="M272.56,213.34l-.82.13v2.95l-1.62.26v.8l1.62-.25v7a1.63,1.63,0,0,0,.56,1.46,1.82,1.82,0,0,0,1.28.23l.39-.07a3.17,3.17,0,0,0,.32-.06l.35-.09-.47-.69-.2,0-.24.05-.49,0a.54.54,0,0,1-.33-.08.68.68,0,0,1-.25-.31,1.81,1.81,0,0,1-.11-.71v-7l2.13-.34V216l-2.13.34Z"/><path class="cls-1" d="M258.18,215.61l-.81.14v2.95l-1.62.25v.81l1.62-.26v7A1.61,1.61,0,0,0,258,228a1.83,1.83,0,0,0,1.29.22l.38-.06.32-.06.35-.1-.47-.68-.2,0-.24,0-.49,0a.56.56,0,0,1-.33-.08.68.68,0,0,1-.25-.31,1.83,1.83,0,0,1-.11-.72v-7l2.11-.33v-.81l-2.11.34Z"/><path class="cls-1" d="M268.63,218.29a3.68,3.68,0,0,0-1.47-.9,4.29,4.29,0,0,0-2-.11,5.32,5.32,0,0,0-2,.75,5.56,5.56,0,0,0-1.46,1.35,5.87,5.87,0,0,0-.9,1.76,6.89,6.89,0,0,0-.29,2,5.52,5.52,0,0,0,.3,1.85,4,4,0,0,0,.9,1.48,3.6,3.6,0,0,0,1.46.88,4.24,4.24,0,0,0,2,.11,5.16,5.16,0,0,0,2-.74,5.39,5.39,0,0,0,1.46-1.35,5.75,5.75,0,0,0,.9-1.76,6.77,6.77,0,0,0,.29-1.95,5.67,5.67,0,0,0-.3-1.86A4.13,4.13,0,0,0,268.63,218.29Zm.19,5.14a5.32,5.32,0,0,1-.74,1.49,4.73,4.73,0,0,1-1.22,1.14,4.41,4.41,0,0,1-1.67.62,3.69,3.69,0,0,1-1.68-.09,3.1,3.1,0,0,1-1.22-.75,3.4,3.4,0,0,1-.76-1.26,5.27,5.27,0,0,1-.24-1.61,5.94,5.94,0,0,1,.23-1.66,5.22,5.22,0,0,1,.75-1.49,5,5,0,0,1,1.22-1.16,4.38,4.38,0,0,1,1.69-.62,3.44,3.44,0,0,1,1.65.09,3.11,3.11,0,0,1,1.23.77,3.47,3.47,0,0,1,.75,1.26,4.85,4.85,0,0,1,.26,1.58A6.07,6.07,0,0,1,268.82,223.43Z"/><path class="cls-1" d="M295.61,209.59v4.57h0a2.39,2.39,0,0,0-1.28-.84,3.83,3.83,0,0,0-1.69-.09,5,5,0,0,0-1.94.72,5.25,5.25,0,0,0-1.39,1.3,5.38,5.38,0,0,0-.83,1.7,6.57,6.57,0,0,0-.28,1.87,5.92,5.92,0,0,0,.29,1.85,3.9,3.9,0,0,0,.83,1.48,3.22,3.22,0,0,0,1.41.89,4.46,4.46,0,0,0,2,.1,5,5,0,0,0,1.76-.62,3.48,3.48,0,0,0,1.27-1.31h0v1.21l2.62-.42,0-14Zm0,9.24a3.72,3.72,0,0,1-.39,1,2.63,2.63,0,0,1-.73.8,2.8,2.8,0,0,1-1.14.43,2,2,0,0,1-1.09-.09,2,2,0,0,1-.76-.58,2.35,2.35,0,0,1-.43-.9,3.9,3.9,0,0,1-.14-1.08,4.77,4.77,0,0,1,.12-1.13,3.42,3.42,0,0,1,.41-1,2.64,2.64,0,0,1,.74-.79,2.77,2.77,0,0,1,1.15-.44,2.12,2.12,0,0,1,1.12.08,1.67,1.67,0,0,1,.73.55,2.29,2.29,0,0,1,.4.88,5.63,5.63,0,0,1,.12,1.11A6.31,6.31,0,0,1,295.61,218.83Z"/><path class="cls-1" d="M284.22,223.48a2.68,2.68,0,0,1-.33,0,.57.57,0,0,1-.58-.39,1.08,1.08,0,0,1-.09-.41v-5.45a2.87,2.87,0,0,0-.32-1.33,2.16,2.16,0,0,0-.78-.78,2.69,2.69,0,0,0-1.12-.3,5.8,5.8,0,0,0-1.3.07,5.62,5.62,0,0,0-1.68.52,4.42,4.42,0,0,0-1.24.89,3.76,3.76,0,0,0-.78,1.2,4.21,4.21,0,0,0-.31,1.36v.24l.82-.14v-.2a3,3,0,0,1,.88-2,4.11,4.11,0,0,1,2.32-1,3.65,3.65,0,0,1,1.48,0,1.5,1.5,0,0,1,.8.44,1.18,1.18,0,0,1,.33.69,3.88,3.88,0,0,1,.09.82,1.27,1.27,0,0,1-.18.7,1.4,1.4,0,0,1-.59.44,7,7,0,0,1-1.16.36c-.5.11-1.09.24-1.77.37a12.91,12.91,0,0,0-1.27.37,3.74,3.74,0,0,0-1.18.64,2.91,2.91,0,0,0-.85,1,3.31,3.31,0,0,0-.33,1.56,2,2,0,0,0,1,1.92,4.14,4.14,0,0,0,2.55.25,5.93,5.93,0,0,0,1.5-.43,6,6,0,0,0,1.23-.74,5.29,5.29,0,0,0,.9-.94l.16-.24a1.4,1.4,0,0,0,.54,1.1,1.84,1.84,0,0,0,1.29.21l.22,0,0-.8Zm-1.82-2.95a3.8,3.8,0,0,1-.25,1.31,3.58,3.58,0,0,1-.72,1.19,4.45,4.45,0,0,1-1.2,1,5.1,5.1,0,0,1-1.65.56,4.09,4.09,0,0,1-1.3,0,2.18,2.18,0,0,1-.83-.32,1.31,1.31,0,0,1-.44-.53,2.11,2.11,0,0,1-.13-.7,2.54,2.54,0,0,1,.23-1.14,2.07,2.07,0,0,1,.6-.74,3,3,0,0,1,.9-.48c.37-.12.73-.22,1.12-.31s.78-.17,1.18-.24.81-.17,1.16-.27a6.77,6.77,0,0,0,1-.38,2.21,2.21,0,0,0,.36-.23Z"/><path class="cls-1" d="M309,219.55h-.26a.47.47,0,0,1-.33-.08.62.62,0,0,1-.25-.31,1.19,1.19,0,0,1-.09-.4v-5.45a3,3,0,0,0-.32-1.33,2.11,2.11,0,0,0-.79-.78,2.76,2.76,0,0,0-1.12-.3,6.36,6.36,0,0,0-1.29.07,5.78,5.78,0,0,0-1.69.52,4.18,4.18,0,0,0-1.23.89,3.79,3.79,0,0,0-.79,1.2,4.48,4.48,0,0,0-.3,1.35l0,.24.82-.13v-.21a3,3,0,0,1,.89-2,4.14,4.14,0,0,1,2.31-1,3.53,3.53,0,0,1,1.49,0,1.61,1.61,0,0,1,.8.44,1.33,1.33,0,0,1,.34.69,4.62,4.62,0,0,1,.07.82,1.05,1.05,0,0,1-.76,1.13,5.4,5.4,0,0,1-1.17.37l-1.77.38a11.84,11.84,0,0,0-1.26.35,4.05,4.05,0,0,0-1.18.64,3.17,3.17,0,0,0-.86,1.05,3.31,3.31,0,0,0-.33,1.56,2,2,0,0,0,1,1.91,4,4,0,0,0,2.54.26A5.48,5.48,0,0,0,305,221a6.17,6.17,0,0,0,1.23-.74,4.41,4.41,0,0,0,.9-.94,1.43,1.43,0,0,0,.16-.24,1.4,1.4,0,0,0,.54,1.1,1.91,1.91,0,0,0,1.29.22l.41-.07-.47-.73Zm-2-1.65a3.87,3.87,0,0,1-.72,1.19,4.65,4.65,0,0,1-1.2,1,4.94,4.94,0,0,1-1.65.55,3.85,3.85,0,0,1-1.3,0,2.12,2.12,0,0,1-.83-.32,1.29,1.29,0,0,1-.44-.53,1.89,1.89,0,0,1-.13-.7,2.55,2.55,0,0,1,.22-1.14,2.3,2.3,0,0,1,.6-.74,3.28,3.28,0,0,1,.91-.48,10.75,10.75,0,0,1,1.11-.31l1.19-.25a11.66,11.66,0,0,0,1.16-.27,6.78,6.78,0,0,0,1-.37,2.21,2.21,0,0,0,.36-.23v1.3A3.85,3.85,0,0,1,307,217.9Z"/><path class="cls-1" d="M317.93,215.61a3.09,3.09,0,0,1-.31,1.07,3.89,3.89,0,0,1-.76,1,4,4,0,0,1-1.06.74,4.54,4.54,0,0,1-1.31.41,3.77,3.77,0,0,1-1.66-.07,2.79,2.79,0,0,1-1.19-.71,3.4,3.4,0,0,1-.73-1.2,4.55,4.55,0,0,1-.25-1.53,6.36,6.36,0,0,1,.21-1.64,5,5,0,0,1,.68-1.57,4.45,4.45,0,0,1,3.15-2,3.59,3.59,0,0,1,1.13,0,2.29,2.29,0,0,1,1.65,1,2.78,2.78,0,0,1,.35.87v0l.83-.13v0a3.24,3.24,0,0,0-.44-1.19,2.9,2.9,0,0,0-.9-.88,3.39,3.39,0,0,0-1.22-.42,4.39,4.39,0,0,0-1.4,0,5.57,5.57,0,0,0-2.15.78,5.63,5.63,0,0,0-1.53,1.42,6.15,6.15,0,0,0-.89,1.84,7.54,7.54,0,0,0-.29,2.06,5.09,5.09,0,0,0,.31,1.83,3.83,3.83,0,0,0,.9,1.43,3.39,3.39,0,0,0,1.46.82,4.45,4.45,0,0,0,2,.09,5.64,5.64,0,0,0,1.63-.5,5.12,5.12,0,0,0,1.3-.93,4.54,4.54,0,0,0,.92-1.28,4.39,4.39,0,0,0,.41-1.43v-.05l-.82.12Z"/><polygon class="cls-1" points="231.25 203.9 333.06 188.16 333.17 165.5 231.25 180.94 231.25 203.9"/><path class="cls-1" d="M456.43,199.86l-12.18-80.93-18.36-10.71-.06-.39-.49.07L321.74,47.47a15.88,15.88,0,0,0-9.95-2L49.6,78.46A14,14,0,0,0,37.75,89.11l-16.26,69a13.26,13.26,0,0,0,2.13,10.75L86.21,256.1,86,257.23l1.2.23,6.35,8.85a13.62,13.62,0,0,0,11,5.65,12.89,12.89,0,0,0,2.31-.21L447.77,211.9A10.56,10.56,0,0,0,456.43,199.86ZM99.12,260.37l-4.4-6.14,17-88.73,4,4.47Zm21.66-96.82-2.52-2.81,305.47-44.52,4.93,2.88Zm192-110.18a7.85,7.85,0,0,1,4.92,1l94.93,55.37L111.83,153.59,51.32,86.3ZM30.12,164.2h0a5.21,5.21,0,0,1-.84-4.25l16.09-68.3L105.06,158,88.29,245.27ZM446.39,204,106.65,263.67l17.06-92.46L437.22,126l11.3,75.1A2.6,2.6,0,0,1,446.39,204Z"/></g></svg>