<svg id="Artwork" xmlns="http://www.w3.org/2000/svg" viewBox="0 0 480 320"><defs><style>.cls-1{fill:#000;fill-rule:evenodd;}</style></defs><path class="cls-1" d="M445.69,120.82l-12.21-4.23a3,3,0,0,0-.32-.08L287.08,66.14a11.25,11.25,0,0,0-4.15-.61L37.85,75.75a6.44,6.44,0,0,0-5.4,3.33c-.06.1-.1.21-.15.31a4,4,0,0,0-.67,2.33V82a4.92,4.92,0,0,0,0,.77L33.21,137a4.16,4.16,0,0,0,.25,1.3L72.29,240.93a.08.08,0,0,0,0,0,3.93,3.93,0,0,0,.27,1.31l3.73,9.46a4.05,4.05,0,0,0,1.3,1.71s.07.08.12.12a4,4,0,0,0,2.54.91,4.6,4.6,0,0,0,.64,0l352.7-57.37a4,4,0,0,0,3.31-3.31l10.87-67.09a4,4,0,0,0-2.1-5.84ZM283.26,73.53a3.29,3.29,0,0,1,1.21.17l128.86,44.44L77.94,149.92,40.64,83.64ZM40.12,99l30.93,55a3.91,3.91,0,0,0,0,.49l.8,62.59-30.64-81Zm389.36,90.59L84.1,245.8l-2.9-80.91,358.09-35.76Z"/><path class="cls-1" d="M394.47,153.62a21.64,21.64,0,0,0-3.74-3l0,0-.35-.17c-.26-.16-.54-.3-.81-.45l0-.08-.16-.07-.31-.13-.4-.16-.48-.23-.52-.23-.22-.09-.54-.23-.44-.22h-.22l-.41-.14-.86-.25-.91-.23-.36-.07a14.82,14.82,0,0,0-3.66-2.12,16.49,16.49,0,0,0-8.07-1L234.24,160.1c-.31-.13-.62-.26-.92-.37a26.64,26.64,0,0,0-3.44-.95c-.79-.16-1.58-.28-2.39-.37-.4,0-.81-.08-1.24-.11a28,28,0,0,0-3.78,0,29.09,29.09,0,0,0-11,3.12,31.69,31.69,0,0,0-9,6.87,32.36,32.36,0,0,0-6.1,9.62,30.48,30.48,0,0,0-2.3,11.39,28.45,28.45,0,0,0,.8,7,26.2,26.2,0,0,0,2.39,6.26,25.16,25.16,0,0,0,3.77,5.29,23.81,23.81,0,0,0,2.7,2.51l.15.3.68.34c.43.32.89.63,1.41,1,1.16.73,2.32,1.46,3.47,2.2l4.34,2.76h0a25.1,25.1,0,0,0,5.62,2.77,25.76,25.76,0,0,0,8.48,1.42c.88,0,1.76-.05,2.65-.13a29.19,29.19,0,0,0,11-3.37,31.9,31.9,0,0,0,7-5.14c.62-.59,1.25-1.24,1.87-1.94.11-.12.2-.25.31-.37l111.69-16.84.38.28,0,0,.12.09.32.21c.52.34,1.05.66,1.56.94a20.89,20.89,0,0,0,3.21,1.42,21.68,21.68,0,0,0,7.13,1.19c.74,0,1.49,0,2.24-.11a24.41,24.41,0,0,0,9.22-2.83,27.05,27.05,0,0,0,7.46-5.93,28.34,28.34,0,0,0,5.06-8.17,27.18,27.18,0,0,0,2-9.69,24.65,24.65,0,0,0-1.67-9.52A22.12,22.12,0,0,0,394.47,153.62Zm-34.56,33.74h0l-.16.13h0Zm-4.61-22.83a27.11,27.11,0,0,0-2,9.89v.18c0,.49,0,1,0,1.39,0,.17,0,.35,0,.58s0,.39,0,.52a24.15,24.15,0,0,0,.59,3.52c.09.36.18.7.27,1,.18.62.38,1.22.63,1.89a18.71,18.71,0,0,1-2.32-3.42,19.19,19.19,0,0,1-1.7-4.56,21.72,21.72,0,0,1-.57-5.14,23,23,0,0,1,1.67-8.46,24.21,24.21,0,0,1,4.46-7.19,23.17,23.17,0,0,1,6.54-5.13,20.72,20.72,0,0,1,7.92-2.3,20.16,20.16,0,0,1,2.69,0,17,17,0,0,1,2.56.35,24.55,24.55,0,0,0-8.11,2.59,27.08,27.08,0,0,0-7.63,6A28.35,28.35,0,0,0,355.3,164.53ZM200.7,194.89a21.87,21.87,0,0,1-.63-5.51,24.61,24.61,0,0,1,1.85-9.17,26.55,26.55,0,0,1,5-7.84,25.64,25.64,0,0,1,7.28-5.57,23.34,23.34,0,0,1,5.28-1.94,32.36,32.36,0,0,0-9,7.07,33.77,33.77,0,0,0-6.17,9.95,32.35,32.35,0,0,0-2.34,11.8v1a29.64,29.64,0,0,0,.53,4.94A20.06,20.06,0,0,1,200.7,194.89Zm43.69,13.28a25.74,25.74,0,0,1-5.71,4.19,23.31,23.31,0,0,1-8.73,2.69,20.13,20.13,0,0,1-8.59-1,19.21,19.21,0,0,1-4.31-2.13l-.22-.15-.21-.14a20.21,20.21,0,0,1-1.73-1.39l-.49-.45a20.41,20.41,0,0,1-4.73-7,22.87,22.87,0,0,1-1.7-8.19v-.93a26.49,26.49,0,0,1,1.91-9.6,27.56,27.56,0,0,1,5.08-8.18,26,26,0,0,1,7.4-5.81,22.89,22.89,0,0,1,8.86-2.6,20.32,20.32,0,0,1,5.41.27,19.57,19.57,0,0,1,3.19.88,18.9,18.9,0,0,1,6.88,4.42,20.17,20.17,0,0,1,4.57,7,23.34,23.34,0,0,1,1.57,9,26.3,26.3,0,0,1-1.94,9.42,27.72,27.72,0,0,1-5,8C245.42,207.16,244.91,207.68,244.39,208.17Zm149.18-29.95a22,22,0,0,1-4,6.44,20.86,20.86,0,0,1-5.8,4.62,18.48,18.48,0,0,1-7,2.15,15.94,15.94,0,0,1-6.83-.78,14.26,14.26,0,0,1-2.3-1,12.85,12.85,0,0,1-1.12-.68l-.19-.12h0l-.08,0c-.15-.11-.3-.21-.51-.38l-.27-.21c-.3-.24-.6-.49-.88-.76l-.27-.26a13.1,13.1,0,0,1-1.07-1.15l-.4-.5-.18-.24-.36-.5-.15-.22-.27-.42-.16-.26c-.07-.12-.13-.24-.2-.35l-.06-.19-.16-.22c-.1-.2-.2-.39-.29-.59l-.37-.83-.14-.37a13.7,13.7,0,0,1-.47-1.41,6,6,0,0,1-.19-.69,18,18,0,0,1-.46-2.77,3.15,3.15,0,0,1,0-.39c0-.1,0-.2,0-.35q0-.56,0-1.11v-.15a21,21,0,0,1,1.53-7.69,22.32,22.32,0,0,1,4.07-6.57,21,21,0,0,1,5.93-4.66,18.36,18.36,0,0,1,7.07-2.07,16.11,16.11,0,0,1,2,0h.2c.21,0,.42,0,.63,0h.15l.37,0,.72.72,1-.41.53.13.6.18c.38.14.75.29,1.13.45.73.33,1.46.69,2.21,1.08a15.16,15.16,0,0,1,2.8,2.2,16.27,16.27,0,0,1,3.63,5.58,18.64,18.64,0,0,1,1.25,7.22A20.88,20.88,0,0,1,393.57,178.22Z"/><path class="cls-1" d="M119.57,192.75a8.21,8.21,0,0,0-2.94-1.89,8.68,8.68,0,0,0-3.67-.49,9.77,9.77,0,0,0-3.7,1.09,10.84,10.84,0,0,0-3.05,2.39,11.4,11.4,0,0,0-2.08,3.36,10.78,10.78,0,0,0-.79,3.95,9.62,9.62,0,0,0,.72,3.81,8.54,8.54,0,0,0,2,3,8.18,8.18,0,0,0,3,1.83,8.49,8.49,0,0,0,3.65.42,9.78,9.78,0,0,0,3.64-1.12,11,11,0,0,0,3-2.38,11.52,11.52,0,0,0,2-3.29,11.3,11.3,0,0,0,.8-3.89,10,10,0,0,0-.67-3.77A8.59,8.59,0,0,0,119.57,192.75Z"/><path class="cls-1" d="M419.87,155.47a5,5,0,0,0-1.76-1.13,5,5,0,0,0-2.19-.29,5.92,5.92,0,0,0-2.22.64,6.33,6.33,0,0,0-1.82,1.44,6.73,6.73,0,0,0-1.25,2,6.49,6.49,0,0,0-.47,2.36,5.79,5.79,0,0,0,.43,2.28,5.09,5.09,0,0,0,1.2,1.77,4.81,4.81,0,0,0,1.78,1.09,5,5,0,0,0,2.19.25,5.54,5.54,0,0,0,2.18-.67,6.42,6.42,0,0,0,1.79-1.42,6.65,6.65,0,0,0,1.22-2,6.72,6.72,0,0,0,.48-2.32,5.85,5.85,0,0,0-.4-2.25A5.08,5.08,0,0,0,419.87,155.47Z"/><path class="cls-1" d="M413.59,173.75a4.93,4.93,0,0,0-1.76-1.13,5.11,5.11,0,0,0-2.19-.29,5.92,5.92,0,0,0-2.22.64,6.66,6.66,0,0,0-1.82,1.44,6.73,6.73,0,0,0-1.25,2,6.49,6.49,0,0,0-.47,2.36,6,6,0,0,0,.43,2.28,5.14,5.14,0,0,0,1.2,1.77,4.69,4.69,0,0,0,1.78,1.09,5,5,0,0,0,2.19.25,5.54,5.54,0,0,0,2.18-.67,6.42,6.42,0,0,0,1.79-1.42,6.66,6.66,0,0,0,1.7-4.29,5.9,5.9,0,0,0-.4-2.26A5.08,5.08,0,0,0,413.59,173.75Z"/></svg>