<svg id="Artwork" xmlns="http://www.w3.org/2000/svg" viewBox="0 0 480 320"><defs><style>.cls-1{fill:#000;fill-rule:evenodd;}</style></defs><path class="cls-1" d="M455.84,101.87a.56.56,0,0,0,0-.13,3.28,3.28,0,0,0,0-.7,2.56,2.56,0,0,0-.05-.27,5.23,5.23,0,0,0-.12-.54l-.12-.29c-.07-.16-.14-.31-.22-.46l-.18-.28a4.23,4.23,0,0,0-.33-.41,1.58,1.58,0,0,0-.12-.15l-.09-.08a5,5,0,0,0-.43-.34l-.24-.17c-.15-.09-.32-.16-.48-.24s-.19-.09-.29-.12l-.06,0L432.69,91,291,41.66a19,19,0,0,0-7.1-1L26,56.52h0l-.34,0c-.15,0-.3,0-.44.08a3.4,3.4,0,0,0-.34.12c-.14,0-.27.09-.4.15l-.32.2c-.11.07-.23.13-.34.21l-.27.25c-.09.09-.2.17-.29.27a3.06,3.06,0,0,0-.21.29,4,4,0,0,0-.24.33c-.06.1-.1.21-.15.31s-.13.25-.18.39-.05.22-.08.33a2.83,2.83,0,0,0-.11.44c0,.11,0,.23,0,.34a3.39,3.39,0,0,0,0,.45l5.26,96a4.37,4.37,0,0,0,.27,1.24L73.34,274.42a4,4,0,0,0,1.4,1.8A4,4,0,0,0,78,277.91a3.68,3.68,0,0,0,.66-.06l192-31.55L441,218.59a4,4,0,0,0,3.34-3.54l11.47-113.13v0ZM79.7,249.36,104,246.57h.1a4.6,4.6,0,0,1,1.92.22,4.11,4.11,0,0,1,1.54.94,4.65,4.65,0,0,1,1.06,1.55,5.39,5.39,0,0,1,.38,2.09,6.15,6.15,0,0,1-.44,2.23,6.29,6.29,0,0,1-1.18,1.9,6,6,0,0,1-1.72,1.35,5.35,5.35,0,0,1-2,.6L80.34,260Zm1.21,20L80.52,263l23.36-2.56a8.66,8.66,0,0,0,3.16-.93,9.18,9.18,0,0,0,2.56-2,9.61,9.61,0,0,0,1.73-2.79,9.24,9.24,0,0,0,.65-3.31,8.45,8.45,0,0,0-.61-3.27,7.69,7.69,0,0,0-1.76-2.57,7.13,7.13,0,0,0-2.64-1.61,7.42,7.42,0,0,0-3.1-.37l-24.35,2.79L78.22,225,79,143l190.61-19.27h0l-4.17,115.22s0,.08,0,.13Zm192.75-35.05,4.06-112.26a4,4,0,0,0-1.1-2.91l86.21-7.52,2.54,1.13-7.91,107.86ZM284.28,48.61a11.18,11.18,0,0,1,4.06.6L430.14,98.6l2.38.78-63.36,6.32-4-1.8a4,4,0,0,0-2-.33L266.47,112a4,4,0,0,0-3.46,2.76,4,4,0,0,0-.17,1.56L77.28,135.08,37.53,63.82ZM30.64,67.9l40.42,72.45-.84,84.73a2.81,2.81,0,0,0,0,.29L71.6,248l-36.14-92.4ZM438.9,189.67l-16,1.74a7.13,7.13,0,0,0-2.74.81A7.41,7.41,0,0,0,418,193.9a7.53,7.53,0,0,0-1.43,2.31A7.33,7.33,0,0,0,416,199a7,7,0,0,0,.53,2.84,6.63,6.63,0,0,0,1.56,2.27,6.55,6.55,0,0,0,2.35,1.44,6.82,6.82,0,0,0,2.2.37l.47,0,14.31-1.58-.7,6.91-71.4,11.61,8-109.48,74-7.39Z"/><path class="cls-1" d="M193,207.54a6,6,0,0,0-2.14-1.37,6.51,6.51,0,0,0-2.66-.37h0a7.23,7.23,0,0,0-2.69.78,8.12,8.12,0,0,0-2.16,1.72,7.71,7.71,0,0,0-1.48,2.39,7.44,7.44,0,0,0-.57,2.82,6.87,6.87,0,0,0,.52,2.76,6.2,6.2,0,0,0,1.46,2.14,6,6,0,0,0,2.18,1.35,6.52,6.52,0,0,0,2,.32c.22,0,.43,0,.65,0a7.06,7.06,0,0,0,2.64-.8,7.76,7.76,0,0,0,2.14-1.71,8.36,8.36,0,0,0,1.45-2.35,7.69,7.69,0,0,0,.57-2.76,6.72,6.72,0,0,0-.49-2.71A6.09,6.09,0,0,0,193,207.54Z"/><path class="cls-1" d="M240.89,147.23a25.74,25.74,0,0,0-9.29-6,24.21,24.21,0,0,0-3.83-1.08l-1.71-.89a23.82,23.82,0,0,0-3.35-1.46,27,27,0,0,0-3.52-1,25.61,25.61,0,0,0-3.73-.49,28.12,28.12,0,0,0-3.89,0,29.93,29.93,0,0,0-11.34,3.21A32.68,32.68,0,0,0,191,146.7a33.41,33.41,0,0,0-6.27,9.9,31.51,31.51,0,0,0-2.38,11.73,29.16,29.16,0,0,0,.83,7.21A27.9,27.9,0,0,0,185.6,182a26.24,26.24,0,0,0,3.88,5.44,25.72,25.72,0,0,0,5.08,4.24l2.36,1.5,5.88,3.74h0a25.29,25.29,0,0,0,5.6,2.74,26.34,26.34,0,0,0,8.69,1.46c.91,0,1.84-.05,2.76-.14a29.88,29.88,0,0,0,11.32-3.47,33.08,33.08,0,0,0,9.15-7.28,34.55,34.55,0,0,0,6.24-10.07,33.59,33.59,0,0,0,2.44-11.9,30.17,30.17,0,0,0-2-11.68A27.13,27.13,0,0,0,240.89,147.23Zm-50,31.92a21.94,21.94,0,0,1-1.92-5,23.53,23.53,0,0,1-.66-5.73,25.44,25.44,0,0,1,1.93-9.51,27.47,27.47,0,0,1,5.15-8.12A26.57,26.57,0,0,1,203,145a24.25,24.25,0,0,1,6.22-2.18l-.58.29a33.35,33.35,0,0,0-9.37,7.35,34.69,34.69,0,0,0-6.35,10.25,33.44,33.44,0,0,0-2.41,12.16v.47h0a30,30,0,0,0,.56,6.1ZM241,177.91a28.56,28.56,0,0,1-5.16,8.33,27.26,27.26,0,0,1-7.5,6,24,24,0,0,1-9,2.78,20.77,20.77,0,0,1-8.91-1,19.63,19.63,0,0,1-7.24-4.42,21.06,21.06,0,0,1-4.91-7.25,24,24,0,0,1-1.77-9.08v-.36a27.45,27.45,0,0,1,2-10,29.12,29.12,0,0,1,5.25-8.49,27.44,27.44,0,0,1,7.69-6,23.73,23.73,0,0,1,9.18-2.69,21.46,21.46,0,0,1,5.62.28,19.2,19.2,0,0,1,3.32.91,20,20,0,0,1,7.14,4.58,21.08,21.08,0,0,1,4.74,7.3,24.25,24.25,0,0,1,1.63,9.36A27.39,27.39,0,0,1,241,177.91Z"/><path class="cls-1" d="M372.47,145.91a21.69,21.69,0,0,0,.59,5.17,19.45,19.45,0,0,0,1.73,4.65,19.1,19.1,0,0,0,2.75,4,18.26,18.26,0,0,0,3.62,3.09l5.24,3.41h0l.27.18a18.35,18.35,0,0,0,4.07,2,18.73,18.73,0,0,0,6.18,1q1,0,1.95-.09a21.28,21.28,0,0,0,8-2.45,23.33,23.33,0,0,0,6.44-5.13,24.17,24.17,0,0,0,4.39-7.08,23.56,23.56,0,0,0,1.71-8.37,21.48,21.48,0,0,0-1.44-8.24,19.14,19.14,0,0,0-4.33-6.64,18.22,18.22,0,0,0-4.84-3.48h0l-5.37-2.87a16.29,16.29,0,0,0-2.38-1.06,16.49,16.49,0,0,0-2.53-.72,18.51,18.51,0,0,0-2.64-.36,20.06,20.06,0,0,0-2.79,0,20.73,20.73,0,0,0-8,2.33,22.79,22.79,0,0,0-6.55,5.1,24.18,24.18,0,0,0-4.4,7.11A23.27,23.27,0,0,0,372.47,145.91Zm39.92-5.67a15.37,15.37,0,0,1,1,5.95,17.26,17.26,0,0,1-1.28,6.23,18.31,18.31,0,0,1-3.31,5.34,17.18,17.18,0,0,1-4.79,3.82,15,15,0,0,1-5.74,1.76,13.14,13.14,0,0,1-5.6-.63,12.15,12.15,0,0,1-2.77-1.38l-.16-.1h0l-.5-.37c-.17-.13-.34-.26-.56-.45l-.54-.5a1.29,1.29,0,0,1-.17-.16l-.1-.11-.2-.2-.1-.11c-.12-.13-.23-.26-.34-.4l-.07-.08c-.1-.12-.21-.24-.31-.38s-.29-.39-.42-.58-.27-.41-.41-.64-.27-.47-.41-.74-.23-.45-.33-.68l-.21-.48a1.34,1.34,0,0,1-.07-.18L385,155c-.13-.32-.24-.67-.34-1s-.15-.54-.23-.88-.12-.52-.17-.8l0-.21c0-.16-.05-.33-.08-.54l-.05-.4a3.44,3.44,0,0,1,0-.46l0-.46c0-.26,0-.52,0-.78v-.11a17.41,17.41,0,0,1,1.26-6.36,18.56,18.56,0,0,1,3.37-5.44,17.53,17.53,0,0,1,4.9-3.85,14.75,14.75,0,0,1,7.85-1.73l.42,0a6,6,0,0,1,.61.08l.39.06a12.71,12.71,0,0,1,1.69.43l.29.08.2.08a11.42,11.42,0,0,1,1.12.48,12.37,12.37,0,0,1,3.33,2.38A13.19,13.19,0,0,1,412.39,140.24Z"/><path class="cls-1" d="M105.58,254.16a4.15,4.15,0,0,0,.73-1.17,4.2,4.2,0,0,0,.28-1.39,3.34,3.34,0,0,0-.24-1.35,3.11,3.11,0,0,0-.71-1.1,3.16,3.16,0,0,0-1.1-.71,3.3,3.3,0,0,0-1.35-.18,3.7,3.7,0,0,0-1.34.39,4.26,4.26,0,0,0-1.1.86,4.43,4.43,0,0,0-.73,1.19,4.21,4.21,0,0,0-.28,1.41,3.38,3.38,0,0,0,.27,1.37,3.08,3.08,0,0,0,.73,1.09,3,3,0,0,0,1.11.68,3.24,3.24,0,0,0,1,.17h.31a3.38,3.38,0,0,0,1.32-.41A3.93,3.93,0,0,0,105.58,254.16Z"/><path class="cls-1" d="M425.31,137.28a9.16,9.16,0,0,0-1.7,2.73,8.92,8.92,0,0,0-.64,3.21,8.35,8.35,0,0,0,.58,3.1,6.9,6.9,0,0,0,1.65,2.4,6.58,6.58,0,0,0,2.42,1.5,6.94,6.94,0,0,0,3,.34,7.88,7.88,0,0,0,3-.92,8.57,8.57,0,0,0,2.44-1.93,9.34,9.34,0,0,0,1.66-2.68,9,9,0,0,0,.64-3.16,7.82,7.82,0,0,0-.53-3.06,7,7,0,0,0-1.57-2.42,6.53,6.53,0,0,0-2.4-1.55,6.85,6.85,0,0,0-3-.39,7.7,7.7,0,0,0-3,.88A8.5,8.5,0,0,0,425.31,137.28Z"/><path class="cls-1" d="M419,129.65a4.68,4.68,0,0,0,1.71,1.06,5.11,5.11,0,0,0,2.11.23,5.35,5.35,0,0,0,2.1-.64,5.91,5.91,0,0,0,1.71-1.36,6.71,6.71,0,0,0,1.17-1.89,6.32,6.32,0,0,0,.46-2.25,5.64,5.64,0,0,0-.37-2.16,5.13,5.13,0,0,0-1.12-1.71,5,5,0,0,0-1.7-1.09,4.85,4.85,0,0,0-2.1-.27,5.4,5.4,0,0,0-2.13.61,6.52,6.52,0,0,0-1.76,1.38,6.84,6.84,0,0,0-1.19,1.93,6.21,6.21,0,0,0-.45,2.27,5.7,5.7,0,0,0,.4,2.19A5.08,5.08,0,0,0,419,129.65Z"/><path class="cls-1" d="M427.59,160.8a5,5,0,0,0-1.7-1.08,4.71,4.71,0,0,0-2.1-.28,5.7,5.7,0,0,0-2.13.61,6.37,6.37,0,0,0-1.76,1.38,6.92,6.92,0,0,0-1.2,1.94,6.16,6.16,0,0,0-.44,2.27,5.5,5.5,0,0,0,.4,2.18,5.17,5.17,0,0,0,1.16,1.72,4.69,4.69,0,0,0,1.71,1,5,5,0,0,0,2.1.24,5.62,5.62,0,0,0,2.11-.64,6.26,6.26,0,0,0,1.71-1.37,6.58,6.58,0,0,0,1.17-1.89,6.48,6.48,0,0,0,.46-2.23,5.82,5.82,0,0,0-.38-2.17A5.15,5.15,0,0,0,427.59,160.8Z"/><path class="cls-1" d="M283,126.78l-4.52,101.89,75.44-11.95,7.07-98.42Zm15.11,87.6a6.44,6.44,0,0,1-1.17,1.89,6.26,6.26,0,0,1-1.71,1.37,5.62,5.62,0,0,1-2.11.64A4.89,4.89,0,0,1,291,218a4.48,4.48,0,0,1-1.71-1.06,5,5,0,0,1-1.16-1.7,5.5,5.5,0,0,1-.4-2.18,6.16,6.16,0,0,1,.44-2.27,7.16,7.16,0,0,1,1.2-1.94,6.56,6.56,0,0,1,1.76-1.38,5.7,5.7,0,0,1,2.13-.61,4.71,4.71,0,0,1,2.1.28,4.86,4.86,0,0,1,1.7,1.09,5,5,0,0,1,1.11,1.71,5.8,5.8,0,0,1,.38,2.16A6.49,6.49,0,0,1,298.06,214.38Zm15.81-1.89a7,7,0,0,1-1.17,1.89,6.08,6.08,0,0,1-1.72,1.36,5.53,5.53,0,0,1-2.1.65,5.22,5.22,0,0,1-2.1-.24,4.72,4.72,0,0,1-1.72-1.06,5.11,5.11,0,0,1-1.15-1.7,5.52,5.52,0,0,1-.41-2.19,6.21,6.21,0,0,1,.45-2.27,6.87,6.87,0,0,1,1.2-1.93,6.47,6.47,0,0,1,1.75-1.38A5.62,5.62,0,0,1,309,205a4.77,4.77,0,0,1,2.11.28,4.7,4.7,0,0,1,1.69,1.08,5.23,5.23,0,0,1,1.12,1.71,5.64,5.64,0,0,1,.37,2.16A6.53,6.53,0,0,1,313.87,212.49Zm17.1-2.66a6.86,6.86,0,0,1-1.17,1.9,6.46,6.46,0,0,1-1.72,1.36,5.52,5.52,0,0,1-2.1.64,4.89,4.89,0,0,1-2.1-.24,4.7,4.7,0,0,1-1.72-1.05,5.21,5.21,0,0,1-1.15-1.7,5.41,5.41,0,0,1-.4-2.19,6.2,6.2,0,0,1,.44-2.27,7.07,7.07,0,0,1,1.2-1.94A6.43,6.43,0,0,1,324,203a5.63,5.63,0,0,1,2.13-.62,4.73,4.73,0,0,1,2.11.28,4.86,4.86,0,0,1,1.7,1.09,5.1,5.1,0,0,1,1.11,1.71,5.84,5.84,0,0,1,.38,2.16A6.44,6.44,0,0,1,331,209.83Zm15.8-1.89a6.71,6.71,0,0,1-1.17,1.89,6.11,6.11,0,0,1-1.71,1.37,5.7,5.7,0,0,1-2.1.64,5.11,5.11,0,0,1-2.11-.24,4.55,4.55,0,0,1-1.71-1.06,4.83,4.83,0,0,1-1.15-1.7,5.5,5.5,0,0,1-.41-2.18,6.16,6.16,0,0,1,.45-2.27,6.89,6.89,0,0,1,1.19-1.94,6.67,6.67,0,0,1,1.76-1.38,5.57,5.57,0,0,1,2.13-.61,4.81,4.81,0,0,1,3.8,1.36,5.17,5.17,0,0,1,1.12,1.72,5.61,5.61,0,0,1,.37,2.16A6.26,6.26,0,0,1,346.77,207.94Z"/></svg>