<?xml version="1.0" encoding="UTF-8"?><svg id="Artwork" xmlns="http://www.w3.org/2000/svg" viewBox="0 0 480 320"><defs><style>.cls-1{fill:#000;}</style></defs><path class="cls-1" d="M458.54,132.3c-.4-1.22-1.47-4.48-4.96-6.65-1.32-.83-2.81-1.37-4.42-1.65h0c-5.43-1.3-133.02-31.91-139.46-33.26-6.5-1.37-14.97-1.86-23.25-1.33l-242.41,15.4c-3.34,.21-6.53,.85-9.45,1.87l-.11,.04c-3.68,1.31-7.15,2.54-9.92,5.83-3.26,3.87-3.79,8.46-3.67,11.63,.07,1.81,.03,3.32-.02,4.93-.06,1.9-.11,3.87,.02,6.36,.12,2.07,.09,4.18,.06,6.4-.03,2.34-.06,4.75,.08,7.17,.03,.51,.07,1.01,.12,1.51,.8,8.44,8.25,12.36,14.24,15.52,1.34,.71,2.6,1.37,3.7,2.04,7.07,4.28,14.15,8.56,21.22,12.83,15.44,9.32,29.36,17.72,43.38,26.07l.61,.37c4.14,2.47,8.42,5.01,12.67,7.47,.86,.49,1.7,.91,2.52,1.31,.62,.31,1.25,.61,1.86,.95l.03-.05c2.68,1.67,7.9,3.01,15.94,4.1,1.14,.16,2.28,.26,3.4,.32,1.5,.44,3.45,1.45,4.85,3.72,2.86,4.65,2.15,5.61,2.15,5.61l7.44-.02s-.94-4.93,2.22-8.59c1.92-2.22,7.15-3.16,7.15-3.16h0c2.13-.33,4.26-.66,6.39-.99,5-.78,10.17-1.59,15.25-2.31l235.11-33.73c1.33,.03,2.72,.23,3.71,.77,4.24,2.33,5.07,7.28,5.07,7.28l6.98-.58s0-.66,1.06-6.01c.41-2.08,1.29-3.79,2.15-5.11,2.76-.97,5.49-2.26,8.2-4.07,.54-.36,1.17-.72,1.83-1.09,1.74-.99,3.71-2.1,5.29-3.99,1.92-2.3,3-5.21,3.06-8.2l.42-21.68c.01-.57,.05-1.14,.09-1.71l.03-.37c.12-1.7-.09-3.37-.62-4.97ZM107.79,200.13c-14-8.34-27.91-16.73-43.33-26.05-7.07-4.27-14.15-8.55-21.22-12.83-1.3-.79-2.73-1.54-4.11-2.27-5.81-3.06-9.65-5.36-10.01-9.2-.04-.41-.07-.83-.1-1.24-.13-2.12-.1-4.29-.07-6.58,.03-2.26,.06-4.61-.07-6.96-.12-2.14-.07-3.86-.02-5.68,.05-1.67,.1-3.39,.02-5.47-.07-1.76,.19-4.26,1.8-6.17,1.32-1.56,3.13-2.26,6.45-3.44l.1-.03c2.24-.79,4.71-1.28,7.32-1.44l242.41-15.4c7.47-.47,15.36-.03,21.09,1.18,4.69,.99,78.21,18.59,116.48,27.76-72.36,7.5-286.03,29.66-292.82,30.67-2.37,.35-5.01,1-6.82,2.17l-.02-.03c-1.12,.57-4.54,2.29-7.06,5.91-1.51,2.17-2.04,4.07-2.65,6.27-.1,.34-.18,.67-.26,1l-.11,.44-.51,31.25c-1.98-1.17-3.95-2.34-5.88-3.5l-.61-.37Zm343.36-63.07c-.05,.71-.1,1.41-.11,2.12l-.42,21.68c-.02,1.18-.45,2.32-1.2,3.22-.65,.78-1.84,1.45-3.1,2.17-.76,.43-1.54,.87-2.33,1.4-6.04,4.04-12.26,4.87-20.12,5.93-1.17,.16-2.35,.32-3.56,.49l-235.29,33.76c-5.13,.74-10.32,1.54-15.35,2.33-2.55,.4-5.09,.79-7.64,1.18-1.33,.2-2.66,.42-3.97,.64-6.74,1.1-13.11,2.14-19.67,1.26-10.46-1.42-12.72-2.91-12.81-2.97-1.02-.71-1.9-1.57-2.62-2.58l-.68-3,.5-30.88c.03-.11,.06-.23,.09-.34,.55-1.99,.81-2.83,1.51-3.85,1.36-1.95,3.33-2.95,4.09-3.34,.12-.06,2.16-1.03,4.41-1.37,7.73-1.15,296.22-31.02,315.18-32.98,.47,.11,.9,.28,1.27,.51,1.03,.64,1.35,1.6,1.6,2.37,.2,.61,.28,1.25,.23,1.91l-.03,.35Z"/><ellipse class="cls-1" cx="211.76" cy="180.86" rx="16.78" ry="14.75" transform="translate(-61.84 232.78) rotate(-51.24)"/><ellipse class="cls-1" cx="356.58" cy="162.3" rx="16.08" ry="14.13" transform="translate(6.8 338.77) rotate(-51.24)"/><path class="cls-1" d="M250.15,173.96c-1.38-1.21-3.18-1.74-5.09-1.5-3.78,.49-6.74,3.88-6.73,7.73,0,1.95,.77,3.71,2.17,4.93,1.16,1.02,2.62,1.56,4.18,1.56,.3,0,.6-.02,.9-.06,3.78-.49,6.74-3.88,6.73-7.73,0-1.95-.77-3.71-2.17-4.93Zm-5.08,8.69c-.75,.1-1.43-.09-1.94-.54-.52-.46-.8-1.14-.8-1.93,0-1.81,1.49-3.53,3.25-3.76,.13-.02,.25-.02,.38-.02,.6,0,1.14,.19,1.56,.56,.52,.46,.8,1.14,.8,1.93,0,1.81-1.49,3.53-3.25,3.76Z"/></svg>