<svg xmlns="http://www.w3.org/2000/svg" viewBox="0 0 480 320"><defs><style>.cls-1{fill:#000;}</style></defs><g id="Layer_1" data-name="Layer 1"><path class="cls-1" d="M425.22,177.5l0-.12-14.35-60a4.16,4.16,0,0,0-.14-.56c0-.14-.1-.4-.2-.75-6.94-25.85-19.49-43.32-35.35-49.2L256.48,23.38a9.42,9.42,0,0,0-8.86.09l-65.24,30a3.65,3.65,0,0,0-.85.52c-20.75,9.75-120.7,57-121.75,57.5l-.29.15a9.7,9.7,0,0,0-4.86,8.22v78.8a6.73,6.73,0,0,0,3.65,5.6l6.44,3.62a4,4,0,0,0,2.72.42A19.25,19.25,0,0,0,73,218.62a14.75,14.75,0,0,0,4.7,3,7.22,7.22,0,0,0,1.76.48q.62.06,1.17.06a7.4,7.4,0,0,0,1.93-.23,4.77,4.77,0,0,0,.92-.36l.17-.08.16-.06,0,0,.06,0,.27-.13.21-.13,1.13-.66A4,4,0,0,0,87,221.88l40.55,22.56a4,4,0,0,0,1.94.51,4,4,0,0,0,1.25-.21A19.2,19.2,0,0,0,136.28,255a14.89,14.89,0,0,0,4.71,3,7,7,0,0,0,1.75.47,9.64,9.64,0,0,0,1.17.07,7.91,7.91,0,0,0,1.93-.23,4.52,4.52,0,0,0,.92-.36l.16-.08.23-.09h0a1.35,1.35,0,0,0,.3-.14l.23-.14,1.42-.82a3.85,3.85,0,0,0,1.26,1.14l68.47,38.81.56.32.35.18.14.07a5.18,5.18,0,0,0,2.18.47,7.59,7.59,0,0,0,1-.08,9,9,0,0,0,2.2-.63l.24-.11a8.27,8.27,0,0,0,1.16-.66L400,196.7a4.24,4.24,0,0,0,1-.86l21.47-12.37a4.55,4.55,0,0,0,.67-.45,5.16,5.16,0,0,0,2-3c0-.16.09-.36.09-.38A5.26,5.26,0,0,0,425.22,177.5Zm-62.8,31.57-12.95-54.15a2.1,2.1,0,0,0-.09-.42c-3.95-12.61-15.35-42.73-35.73-50C312.17,104,210.57,64.9,192.12,57.8l.09-.08,2.86-1.31a2.52,2.52,0,0,1,.4.16c1.23.46,122.91,46.71,124.4,47.29,18.33,7.24,28.75,32.82,33.33,47.42a1.8,1.8,0,0,0,.08.21l13.17,55.27Zm-5.34-58.86a2.38,2.38,0,0,0-.17-.47c-4.85-15.33-15.84-41.81-35.57-49.6C320,99.59,219.87,61.56,200.16,54.07l3.26-1.49C217.35,58,324.93,99.36,326.63,100c18.77,6.85,29.52,35.43,33.28,47.4a1.12,1.12,0,0,0,0,.13l13.21,55.39-3.11,1.78Zm27.39,46.2-13-54.15a2.1,2.1,0,0,0-.09-.5c-4.88-15.56-16-42.74-35.72-49.95C334.2,91.26,238,54.48,216.86,46.4l2.71-1.25c16.73,6.52,119.88,46.07,121.54,46.6,16.75,5.31,27.24,28.47,33.11,47.09l0,.14,13.31,55.66ZM211.78,48.74c9.44,3.6,120.88,46.22,122.54,46.82,6.23,2.29,21.92,11.44,33.17,47.08,0,.08,0,.16,0,.24l13.32,55.61-4.06,2.34-13-54.46a2.3,2.3,0,0,0-.12-.34c-4-12.62-15.32-42.37-35.67-49.81-1.4-.51-96.65-37.15-119.53-46ZM392.91,191.31a4.4,4.4,0,0,0-1,.84l-.71.41-13-54.22a2.1,2.1,0,0,0-.09-.42c-6.14-19.57-17.33-44.13-35.78-50-1.7-.58-94-35.94-117.73-45.1l3.33-1.53c11.66,4.44,119.27,45.39,120.72,46,6.33,2.53,22.21,12.17,33.24,47.13l0,.15L395.15,190Zm-310.6,26.4-.21.09-.39.17-.13.07a4.86,4.86,0,0,1-1.71.07,4.37,4.37,0,0,1-.67-.21,10.58,10.58,0,0,1-3.43-2.17,15.07,15.07,0,0,1-1.16-1.24,6.72,6.72,0,0,0,1.21.89,3.78,3.78,0,0,0,6-3.46,8.56,8.56,0,0,0-4-6.9,3.79,3.79,0,0,0-6,3.47A6.9,6.9,0,0,0,72,209.9a13.9,13.9,0,0,1-.78-3.6,6.67,6.67,0,0,1,.73-3.57l0-.1v0a4.54,4.54,0,0,1,1-.86l.25-.14c1.46-.54,3.83.56,6,2.79a15.8,15.8,0,0,1,4.36,10C83.53,216,83.09,217.17,82.31,217.71Zm-6.47-9.21a4.65,4.65,0,0,1,2,3.41A4.58,4.58,0,0,1,75.84,208.5Zm6.23-6.88a15.17,15.17,0,0,0-3.78-3L84.61,195a2,2,0,0,0,.79-.84,2,2,0,0,1,1.34-.71c1.32-.15,3.12.65,4.82,2.15,3.16,2.8,5.45,7.53,5.45,11.25,0,1.11-.23,3.72-2.32,3.89a1.91,1.91,0,0,0-1,.34l-6.06,3.5-.15.06v-.32A19.76,19.76,0,0,0,82.07,201.62Zm27.24-4.69c-2.33-6-6.71-11.42-11.42-14.14a13.27,13.27,0,0,0-6.19-1.9,4.94,4.94,0,0,1,2.21-1.62c2.18-.78,5-.15,8.09,1.8,6.13,3.94,11.23,12.05,12.41,19.73.64,4.14,0,7.64-1.73,9.59a4.87,4.87,0,0,1-3.05,1.63C111.67,208.3,111.57,202.76,109.31,196.93Zm-15.1-4.3a14.5,14.5,0,0,0-3.1-2.14l.1-.05.06,0c2-1.08,6.25,1.16,9.14,6.16a15.34,15.34,0,0,1,2.18,7.35c0,1.86-.55,3.24-1.5,3.78l-.11.07c0-.29,0-.59,0-.89h0C101,202,98.28,196.23,94.21,192.63Zm8.87,18.54h0c2.23-1.3,3.47-3.86,3.49-7.23a16.94,16.94,0,0,0-.77-4.91c1.67,4.68,1.68,9.17,0,11.57a4.33,4.33,0,0,1-4.63,1.66Zm-7.19-24.91a19.67,19.67,0,0,1,5,4.22c-2.62-2.76-5.69-4.34-8.45-4.34a6.29,6.29,0,0,0-3.18.83l-.07.05-1.9,1.08a6.06,6.06,0,0,1,.74-1.46C89.52,184.43,92.48,184.29,95.89,186.26Zm49.71,67.86-.22.09-.38.18-.14.07a4.86,4.86,0,0,1-1.71.07,5.4,5.4,0,0,1-.66-.21,10.71,10.71,0,0,1-3.44-2.18,13.61,13.61,0,0,1-1.16-1.24,7.3,7.3,0,0,0,1.21.9,3.79,3.79,0,0,0,6-3.47,8.54,8.54,0,0,0-4-6.89,3.78,3.78,0,0,0-6,3.46,6.31,6.31,0,0,0,.16,1.42,13.52,13.52,0,0,1-.79-3.6,6.76,6.76,0,0,1,.73-3.57l.09-.2a4.58,4.58,0,0,1,.94-.81l.25-.15c1.45-.54,3.84.56,5.95,2.8a15.85,15.85,0,0,1,4.37,10C146.82,252.37,146.37,253.58,145.6,254.12Zm-6.48-9.21a4.66,4.66,0,0,1,2,3.41A4.71,4.71,0,0,1,139.12,244.91Zm6.23-6.87a15.32,15.32,0,0,0-3.77-3l6.31-3.63a2.05,2.05,0,0,0,.79-.84,2,2,0,0,1,1.34-.71c1.32-.15,3.12.64,4.82,2.15,3.16,2.79,5.45,7.52,5.45,11.25,0,1.11-.22,3.72-2.32,3.89a2,2,0,0,0-.94.33l-5,2.86a4.23,4.23,0,0,0-1.26.31A19.77,19.77,0,0,0,145.35,238Zm27.24-4.7c-2.33-6-6.7-11.41-11.42-14.13a13,13,0,0,0-6.19-1.9,4.86,4.86,0,0,1,2.21-1.62c2.18-.79,5.05-.15,8.09,1.8,6.13,3.93,11.24,12,12.41,19.73.64,4.14,0,7.63-1.73,9.59a4.92,4.92,0,0,1-3.05,1.63C175,244.72,174.85,239.18,172.59,233.34Zm-15.1-4.3a14.44,14.44,0,0,0-3.1-2.13l.1-.06,0,0c.94-.52,2.37-.3,3.94.6a15.18,15.18,0,0,1,5.22,5.55c2.85,5,2.71,10,.69,11.13l-.12.06c0-.29,0-.58,0-.88C164.29,238.36,161.56,232.64,157.49,229Zm8.87,18.54h0c3.36-1.94,4.33-6.74,2.78-12,1.61,4.61,1.6,9-.06,11.4a4.34,4.34,0,0,1-4.64,1.65Zm-7.19-24.91a20,20,0,0,1,5,4.23,16.53,16.53,0,0,0-3.66-2.94,9.69,9.69,0,0,0-4.77-1.42,6.39,6.39,0,0,0-3.21.84l0,0-1.92,1.11a6.3,6.3,0,0,1,.73-1.47C152.81,220.85,155.76,220.71,159.17,222.67Zm-2.39,29.6,2-1.16.62-.13c3.59,2,7.13,2.3,9.87,1a6.3,6.3,0,0,0,2.21.53h.15a9.09,9.09,0,0,0,7.31-3c2.57-2.89,3.53-7.45,2.7-12.85-1.34-8.73-7.18-18-14.21-22.49-4.11-2.63-8.23-3.41-11.6-2.2a9.8,9.8,0,0,0-5.89,6.53,1.94,1.94,0,0,0,0,.2c0,.06,0,.12,0,.18a8.19,8.19,0,0,0-1.87,1.93,12.26,12.26,0,0,0-2,6.84,6.48,6.48,0,0,0-.54.62l-10.74,6.19a4.66,4.66,0,0,0-.5.25,2.51,2.51,0,0,0-.37.27,8.46,8.46,0,0,0-1.71,1.58,4.44,4.44,0,0,0-.52.89l-.06.14-.13-.09L93.07,216.11l2.44-1.42a4.26,4.26,0,0,0,.62-.13c3.58,2,7.13,2.3,9.87,1a6.3,6.3,0,0,0,2.21.53h.14a9.1,9.1,0,0,0,7.32-3c2.57-2.89,3.53-7.46,2.7-12.86-1.34-8.73-7.19-18-14.21-22.48-4.11-2.64-8.23-3.42-11.6-2.2A9.76,9.76,0,0,0,86.67,182a1.17,1.17,0,0,0,0,.2c0,.06,0,.11,0,.17a8.42,8.42,0,0,0-1.88,1.93,12.4,12.4,0,0,0-2,6.85,6.35,6.35,0,0,0-.54.61L71.43,198l-.49.25a1.72,1.72,0,0,0-.37.28,8.2,8.2,0,0,0-1.71,1.58,2.88,2.88,0,0,0-.41.67l-5.82-3.27V128.09L173,191.65l.29.15c12.59,8.94,23.61,24.56,28.93,41a2.61,2.61,0,0,0,.06.27c4,17.06,8.21,34.62,12.38,52Zm71.8,31.42a4.09,4.09,0,0,0-1.9,1.05l-.31.22a8.45,8.45,0,0,0-2.61,2.54l-.19.3c-4.5-18.72-9-37.7-13.39-56.17a3.66,3.66,0,0,0-.16-.8c-5.85-18.45-18.37-36.06-32.66-46a3.72,3.72,0,0,0-.86-.45L62.94,119a1.88,1.88,0,0,1,.45-.44l5.84-2.76,114.29,65.79.08,0c14.16,9.89,26.54,27.39,32.45,45.87l.06.26,1.15,4.79q2.88,12,5.75,24c2.09,8.79,4.32,18.12,6.41,27A4.93,4.93,0,0,0,228.58,283.69Zm2.21-29q-2.86-12-5.75-24l-1-4.32a4,4,0,0,0-.16-.78c-6.41-20.43-20.22-39.89-36.05-50.78a4.13,4.13,0,0,0-.65-.36L78,111.68c30.37-14.36,97.7-46.18,109-51.47l.14-.06.52.23.14.06c5,1.94,123.31,47.46,124.47,47.87,18.54,6.58,29.31,34.9,33.17,47.1a.4.4,0,0,0,0,.15l13.3,55.59L237,281.05C235,272.37,232.83,263.29,230.79,254.72Zm168-66.78-12.88-54a2,2,0,0,0-.08-.43c-4.78-15.24-15.77-42-35.66-49.93C348.75,83,255.54,47.53,233,39l18.08-8.3.32-.17a1.4,1.4,0,0,1,1.4,0,5,5,0,0,0,.62.29L372.37,74.35c18,6.67,26.78,30.28,30.4,43.76.08.3.15.54.2.74s0,.11,0,.16l14,58.44Z"/></g></svg>