<svg xmlns="http://www.w3.org/2000/svg" viewBox="0 0 480 320"><defs><style>.cls-1{fill:#000;}</style></defs><g id="Layer_1" data-name="Layer 1"><path class="cls-1" d="M105.42,167.14c-3.62,2.08-5.6,6.32-5.6,11.92,0,10.84,7.36,23.56,16.72,29a16.21,16.21,0,0,0,8,2.42,10,10,0,0,0,5.09-1.33c3.61-2.09,5.6-6.32,5.59-11.93,0-10.83-7.35-23.55-16.71-29C113.67,165.44,109,165.05,105.42,167.14Zm20.17,13.43a38.37,38.37,0,0,1,2.44,4.21l-3.13,1.81-7.84,4.54a5.13,5.13,0,0,0-1.66,1.5,5.07,5.07,0,0,0-.73,4.24,5.6,5.6,0,0,0,3,3.59,5.26,5.26,0,0,0,4.48-.24l.07,0,.06,0,6.55-3.74.42-.13.12-.05a1.67,1.67,0,0,0,.5-.21l.17-.09.09-.05,1-.59c.05.64.08,1.27.08,1.9,0,4.11-1.27,7.12-3.59,8.46s-5.54.95-9.09-1.09c-8.1-4.68-14.71-16.12-14.72-25.5,0-4.11,1.28-7.12,3.6-8.46a6.15,6.15,0,0,1,3.1-.78,12.34,12.34,0,0,1,6,1.87c.56.33,1.12.69,1.67,1.08q-4.44,2.53-8.86,5.11a5.13,5.13,0,0,0-1.6,1.42,5.3,5.3,0,0,0-.61,5,5.16,5.16,0,0,0,3.7,3.22,5.39,5.39,0,0,0,3.6-.49l.08,0,.06,0Zm2.14,12h0a1.38,1.38,0,0,1-.73-.09c-.73-.26-.71-1.31-.7-1.5a1.19,1.19,0,0,1,.3-.47,2.81,2.81,0,0,1,.77.9A3,3,0,0,1,127.73,192.56Zm-5.21.35-.18-.22.1-.06C122.47,192.72,122.49,192.82,122.52,192.91ZM120,196.79a1.23,1.23,0,0,1-.6.05,1.56,1.56,0,0,1-.83-1,1.08,1.08,0,0,1,.14-.91.4.4,0,0,1,.11-.12,2.68,2.68,0,0,1,.8.91A3,3,0,0,1,120,196.79Zm-7.73-13.2a1.08,1.08,0,0,1-.56,0,1.19,1.19,0,0,1-.84-.75,1.32,1.32,0,0,1,.14-1.24.19.19,0,0,1,.06-.07,2.52,2.52,0,0,1,.8.9A2.79,2.79,0,0,1,112.24,183.59Zm10.91-6.23-7.31,4.23a7.24,7.24,0,0,0-.53-1.13,7.68,7.68,0,0,0-.71-1l6.83-3.93C122,176.1,122.59,176.72,123.15,177.36Z"/><path class="cls-1" d="M118.5,162.46c-6.16-3.55-12.06-4.07-16.61-1.44s-7.06,8-7,15.17c0,13.83,9.75,30.69,21.71,37.6a20.77,20.77,0,0,0,10.22,3.09,12.64,12.64,0,0,0,6.38-1.65c4.56-2.64,7.07-8,7.06-15.17C140.2,186.23,130.46,169.36,118.5,162.46Zm12.65,49.3c-3.26,1.88-7.73,1.37-12.6-1.44-10.86-6.26-19.7-21.58-19.71-34.13h0c0-5.66,1.79-9.81,5.06-11.7a8.61,8.61,0,0,1,4.39-1.12,16.79,16.79,0,0,1,8.21,2.56c10.86,6.26,19.7,21.57,19.71,34.13C136.22,205.72,134.42,209.87,131.15,211.76Z"/><path class="cls-1" d="M425.22,177.5l0-.12-14.35-60a4.16,4.16,0,0,0-.14-.56c0-.14-.1-.4-.2-.75-6.94-25.85-19.49-43.32-35.35-49.2L256.48,23.38a9.42,9.42,0,0,0-8.86.09l-65.24,30a3.65,3.65,0,0,0-.85.52c-20.75,9.75-120.7,57-121.75,57.5l-.29.15a9.7,9.7,0,0,0-4.86,8.22v78.8a6.75,6.75,0,0,0,3.65,5.6l2.2,1.24A4,4,0,0,0,62,206.92l65.55,37.5a4,4,0,0,0,3.23.31,19.19,19.19,0,0,0,5.55,10.3,14.69,14.69,0,0,0,4.71,3,6.43,6.43,0,0,0,1.75.48,9.64,9.64,0,0,0,1.17.07,8,8,0,0,0,1.93-.23,4.52,4.52,0,0,0,.92-.36l.16-.08.22-.09h.05l.28-.14.22-.13,1.43-.83a3.85,3.85,0,0,0,1.26,1.14l68.52,38.84.52.3.33.17.16.07a5.09,5.09,0,0,0,2.17.47,7.59,7.59,0,0,0,1-.08,8.94,8.94,0,0,0,2.21-.63l.22-.1a9.17,9.17,0,0,0,1.18-.67L400,196.7a4.24,4.24,0,0,0,1-.86l21.47-12.37a4.55,4.55,0,0,0,.67-.45,5.16,5.16,0,0,0,2-3c0-.16.09-.36.09-.38A5.26,5.26,0,0,0,425.22,177.5Zm-62.8,31.57-12.95-54.15a2.1,2.1,0,0,0-.09-.42c-3.95-12.61-15.35-42.73-35.73-50C312.17,104,210.56,64.9,192.12,57.8l.09-.08,2.86-1.31a3,3,0,0,1,.4.16c1.23.46,122.91,46.71,124.4,47.29,18.33,7.24,28.75,32.82,33.33,47.42a1.8,1.8,0,0,0,.08.21l13.17,55.27Zm-5.34-58.86a2.38,2.38,0,0,0-.17-.47c-4.85-15.33-15.84-41.81-35.57-49.6C320,99.59,219.86,61.55,200.16,54.07l3.26-1.49C217.35,58,324.93,99.36,326.63,100c18.77,6.85,29.52,35.43,33.28,47.4a1.12,1.12,0,0,0,0,.13l13.21,55.39-3.11,1.78Zm27.39,46.2-13-54.15a2.1,2.1,0,0,0-.09-.5c-4.88-15.56-16-42.74-35.72-49.95C334.2,91.26,238,54.48,216.86,46.4l2.71-1.25c16.74,6.52,119.88,46.07,121.54,46.6,9.27,2.93,22.52,13.49,33.11,47.09l0,.14,13.31,55.66ZM211.78,48.73C221.21,52.34,332.66,95,334.32,95.56c18.6,6.82,29.33,34.93,33.17,47.08,0,.08,0,.16,0,.24l13.32,55.61-4.07,2.34-13-54.46a2.3,2.3,0,0,0-.12-.34c-4-12.62-15.32-42.37-35.67-49.81-1.4-.51-96.65-37.15-119.53-46ZM392.91,191.31a4.4,4.4,0,0,0-1,.84l-.71.41-13-54.22a2.1,2.1,0,0,0-.09-.42c-6.14-19.57-17.33-44.13-35.78-50-1.7-.58-94-35.94-117.73-45.1l3.33-1.53c11.66,4.44,119.27,45.39,120.72,46,18.89,7.54,29.49,35.25,33.24,47.14l0,.14L395.15,190ZM145.59,254.12l-.22.09-.37.18-.14.07a4.88,4.88,0,0,1-1.71.07,5.4,5.4,0,0,1-.66-.21,10.71,10.71,0,0,1-3.44-2.18,13.61,13.61,0,0,1-1.16-1.24,7.3,7.3,0,0,0,1.21.9,3.79,3.79,0,0,0,6-3.47,8.53,8.53,0,0,0-4-6.89,3.78,3.78,0,0,0-6,3.46,6.25,6.25,0,0,0,.16,1.42,13.12,13.12,0,0,1-.78-3.6,6.75,6.75,0,0,1,.71-3.57l.1-.2a4.93,4.93,0,0,1,.94-.82l.25-.14c1.45-.53,3.84.56,5.95,2.8a15.78,15.78,0,0,1,4.36,10C146.82,252.37,146.37,253.59,145.59,254.12Zm-6.47-9.21a4.58,4.58,0,0,1,2,3.41A4.61,4.61,0,0,1,139.12,244.91Zm6.23-6.87a15.32,15.32,0,0,0-3.77-3l6.31-3.63a2.05,2.05,0,0,0,.79-.84,2,2,0,0,1,1.34-.71c1.32-.16,3.12.64,4.82,2.15,3.16,2.79,5.45,7.52,5.45,11.25,0,1.11-.22,3.72-2.32,3.89a2,2,0,0,0-.94.33l-4.95,2.86a4.22,4.22,0,0,0-1.27.31A19.77,19.77,0,0,0,145.35,238Zm27.24-4.7c-2.33-6-6.7-11.41-11.42-14.13a13,13,0,0,0-6.19-1.9,5,5,0,0,1,2.21-1.63c2.18-.78,5.05-.14,8.09,1.81,6.13,3.93,11.24,12,12.42,19.72.63,4.15,0,7.64-1.74,9.6a4.92,4.92,0,0,1-3.05,1.63C175,244.72,174.85,239.18,172.59,233.34Zm-15.1-4.3a14.44,14.44,0,0,0-3.1-2.13l.1-.06,0,0c.94-.52,2.37-.3,3.94.6a15.18,15.18,0,0,1,5.22,5.55c2.85,5,2.71,10,.69,11.13l-.12.06c0-.29,0-.58,0-.88h0C164.29,238.36,161.56,232.64,157.49,229Zm8.87,18.54h0c3.36-1.94,4.33-6.74,2.78-12,1.61,4.61,1.6,9-.06,11.4a4.34,4.34,0,0,1-4.64,1.65Zm-7.19-24.91a20,20,0,0,1,5,4.23,16.53,16.53,0,0,0-3.66-2.94,9.69,9.69,0,0,0-4.77-1.42,6.32,6.32,0,0,0-3.2.84l-.05,0-1.92,1.11a6.3,6.3,0,0,1,.73-1.47C152.81,220.85,155.76,220.71,159.17,222.67Zm-2.39,29.6,2-1.16.62-.13c3.59,2,7.13,2.29,9.87,1a6.3,6.3,0,0,0,2.21.53h.14a9.12,9.12,0,0,0,7.32-3c2.57-2.89,3.53-7.45,2.7-12.85-1.34-8.73-7.18-18-14.21-22.49-4.11-2.63-8.23-3.41-11.6-2.2a9.8,9.8,0,0,0-5.89,6.53,1.94,1.94,0,0,0,0,.2c0,.06,0,.12,0,.18a8,8,0,0,0-1.87,1.93,12.26,12.26,0,0,0-2,6.84,6.48,6.48,0,0,0-.54.62l-10.74,6.18-.5.26a2.51,2.51,0,0,0-.37.27,8.46,8.46,0,0,0-1.71,1.58,4.36,4.36,0,0,0-.52.89l-.06.14-.09-.07L70.17,202.4a4.08,4.08,0,0,0-1.53-1.53l-6-3.37V128.09L173,191.65l.3.15c12.57,8.94,23.6,24.56,28.92,41,0,.09,0,.18.05.27,4,17,8.21,34.6,12.39,52Zm67,35.23-.19.31c-4.5-18.73-9-37.7-13.39-56.18a3.66,3.66,0,0,0-.16-.8c-5.85-18.45-18.37-36.06-32.66-46a3.72,3.72,0,0,0-.86-.45L62.94,119a1.88,1.88,0,0,1,.45-.44L68,116.41a4,4,0,0,0,.48.32l115,66.2.07,0c14.16,9.89,26.54,27.39,32.45,45.87l.06.26,1.22,5.09Q220.18,246,223,257.88c2,8.52,4.18,17.54,6.22,26.17C225.4,285.68,224.5,286.15,223.76,287.5Zm7-31.47q-2.83-11.86-5.68-23.71L224,227.7a4.32,4.32,0,0,0-.16-.78c-6.41-20.43-20.22-39.88-36.05-50.77a3.43,3.43,0,0,0-.64-.37L76.79,112.27C106.52,98.21,175.58,65.58,187,60.21l.14-.06.52.23.14.06c5,1.94,123.31,47.46,124.47,47.87,18.54,6.58,29.31,34.9,33.17,47.1a.4.4,0,0,0,0,.15l13.3,55.59-122,70.06C234.81,272.87,232.74,264.22,230.79,256Zm168-68.09-12.88-54a2,2,0,0,0-.08-.43C374.67,98,358.69,87,350.15,83.57,348.75,83,255.54,47.53,233,39l18.08-8.3.32-.17a1.4,1.4,0,0,1,1.4,0,5,5,0,0,0,.62.29L372.37,74.35c18,6.67,26.78,30.28,30.4,43.76.08.3.15.54.2.74s0,.11,0,.16l14,58.44Z"/></g></svg>