<?xml version="1.0" encoding="UTF-8"?><svg xmlns="http://www.w3.org/2000/svg" viewBox="0 0 480 320"><defs><style>.e,.f{fill:#000;}.g{stroke-width:5px;}.g,.f,.h{stroke:#000;}.g,.h{fill:none;stroke-linecap:round;stroke-linejoin:round;}.f{stroke-miterlimit:10;stroke-width:2px;}.h{stroke-width:3px;}</style></defs><g id="a"/><g id="b"><g><path class="e" d="M180.39,205.82c.49,.27,.9,.04,.91-.52,0-.56-.38-1.24-.87-1.51-.49-.27-.9-.04-.91,.52,0,.56,.38,1.24,.87,1.51Z"/><path class="e" d="M178.48,209.07c.49,.27,.9,.04,.91-.52,.01-.56-.38-1.24-.87-1.51-.49-.27-.9-.04-.91,.52,0,.56,.38,1.24,.87,1.51Z"/><path class="e" d="M182.93,203.28c.49,.27,.9,.04,.91-.52,0-.56-.38-1.24-.87-1.51-.49-.27-.9-.04-.91,.52,0,.56,.38,1.24,.87,1.51Z"/><path class="e" d="M177.14,212.95c.49,.27,.9,.04,.91-.52,.01-.56-.38-1.24-.87-1.51-.49-.27-.9-.04-.91,.52,0,.56,.38,1.24,.87,1.51Z"/><path class="e" d="M176.44,217.46c.49,.27,.9,.04,.91-.52,0-.56-.38-1.24-.87-1.51-.49-.27-.9-.04-.91,.52,0,.56,.38,1.24,.87,1.51Z"/><path class="e" d="M176.44,222.4c.49,.27,.9,.04,.91-.52,0-.56-.38-1.24-.87-1.51-.49-.27-.9-.04-.91,.52,0,.56,.38,1.24,.87,1.51Z"/><path class="e" d="M39.31,147.87v-32.25l141.6,76.52,4.31,2.33,20.17,10.9c9.67,5.61,18.52,18.15,21.59,30.56l5.51,39.66-35.35-20.41c-.33,2.59-1.35,4.5-2.97,5.43-.73,.42-1.56,.63-2.47,.66l43.83,25.31c.49,.29,1.03,.45,1.56,.51,.24,.04,.48,.06,.72,.06,.13,0,.26,0,.38-.02,.93-.01,1.81-.21,2.62-.56,.02,0,.03-.01,.04-.02,.15-.07,.3-.14,.44-.21,.03-.01,.05-.02,.08-.04l171.18-98.53c.4-.23,.75-.52,1.04-.86l8.93-5.14s.07-.04,.1-.06c1.88-1.16,2.73-3.2,2.22-5.34l-10.37-42.89c-.25-1.03-.92-3.21-1.15-3.92-1.02-3.11-1.41-4.24-2.84-7.4-1.71-3.77-10.92-22.79-23.82-27-27.17-8.86-120.74-39.38-185.28-60.51-2.09-1.03-4.57-1-6.65,.08l-10.27,4.22h-.03L35.75,101.35c-.26,.1-.52,.21-.77,.35h0c-2.27,1.31-3.68,3.75-3.68,6.37v57.26c0,2.05,1.15,3.96,3.06,5.12,.01,0,.02,.01,.04,.02,.01,0,.02,.02,.03,.02l146.18,84.4c-3.29-3.72-5.83-8.52-6.91-13.23L39.31,164.06v-12.09m364.28,31.49c-.4,.23-.75,.52-1.04,.86l-157.58,90.7-5.5-41.27c-.02-.14-.04-.28-.08-.41-3.88-16.01-14.99-31.69-27.64-39-.03-.02-.07-.04-.1-.06L47.02,105.3,187.53,46.36l10.46-4.29c.06-.02,.11-.05,.17-.07,.14,.07,.29,.12,.44,.17,64.55,21.14,158.38,51.74,185.64,60.63,6.99,2.28,14.74,13.36,18.98,22.69,1.27,2.8,1.55,3.6,2.52,6.57,.27,.82,.82,2.66,.97,3.3l9.83,40.64-12.94,7.45Z"/></g><path class="h" d="M96.99,173.23c0-3.03-2.01-6.72-4.5-8.23-2.49-1.51-4.52-.28-4.53,2.76,0,3.03,2.01,6.72,4.5,8.23,2.49,1.51,4.52,.28,4.53-2.76"/><path class="e" d="M152.66,206.3c.03-1.7-1.15-3.74-2.64-4.57-1.48-.82-2.71-.11-2.74,1.58-.03,1.7,1.15,3.74,2.64,4.57,1.49,.82,2.71,.11,2.74-1.58"/><path class="e" d="M125.8,190.38c.03-1.7-1.15-3.74-2.64-4.57-1.49-.82-2.71-.12-2.74,1.58-.03,1.7,1.15,3.74,2.64,4.57,1.49,.82,2.71,.12,2.74-1.58"/><path class="e" d="M113.1,183.08c.03-1.7-1.15-3.74-2.64-4.57-1.48-.82-2.71-.11-2.74,1.58-.03,1.7,1.15,3.74,2.64,4.57,1.48,.82,2.71,.12,2.74-1.58"/><path class="e" d="M139.5,198.64c.03-1.7-1.15-3.74-2.64-4.57-1.48-.82-2.71-.11-2.74,1.58-.03,1.7,1.15,3.74,2.64,4.57,1.48,.82,2.71,.12,2.74-1.58"/><path class="g" d="M383.99,199.41c.56-.32,.35-1.32,.14-2.19l-9.95-41.13c-3.63-14.99-15.73-33.08-25.75-36.48-6.02-2.04-190.6-65.36-190.6-65.36-.34-.2,2.04-.59,1.38-.21"/><path class="g" d="M182.12,45.2c.23,.09,1.78-.38,2.38-1.02,.75-.79-1.51-2.36,.26-1.36,0,0,174.42,59.73,186.04,63.88,11.64,4.16,22.19,21.48,25.82,36.48l9.95,41.13c.51,1.97-.3,2.16-.99,2.61-1.42,.74-3.5,1.26-3.67,1.97"/><path class="g" d="M168.47,50.75c.23,.1,1.81-.44,2.42-1.08,.75-.79-1.35-2.28,.26-1.36,0,0,185.79,63.83,187.84,64.47,9.9,3.12,22.12,21.48,25.75,36.48l9.95,41.13h0c.51,1.96-.23,2.23-.92,2.68-1.42,.74-3.46,1.12-3.63,1.83"/></g><g id="c"><path class="f" d="M35.6,147.64c-.07-.04-.11-.17-.11-.25,0-.08,.04-.14,.11-.1l50.33,29.09c3.87,5.85,9.47,9.05,13.35,7.7h0c.06-.02,.14,.04,.18,.13,.04,.09,.04,.17-.02,.19h-.01c-3.98,1.38-9.6-1.8-13.58-7.74l-50.26-29.02h0Zm150.71,43.81c-4.23,2.39-10.85,6.94-14.86,15.12l-72.12-41.55c-3.85-5.81-9.33-9.02-13.21-7.74l-.07,.02h0c-.05,.02-.13-.11-.17-.2-.04-.09-.06-.16,0-.18h0c3.98-1.38,9.56,1.86,13.55,7.8l71.77,41.43c1.52-5.75,10.7-12.7,14.92-15.08,.05-.03,.17,.02,.22,.1,.05,.08,.04,.24-.01,.27h0Z"/></g><g id="d"><path class="e" d="M204.76,208.4c-6.31-3.74-12.39-4.38-17.11-1.8-4.42,2.42-7.04,7.36-7.43,13.94-.46,.66-.48,1.52-.07,2.19-2.04-.12-3.95,.3-5.62,1.26-3.53,2.04-5.46,6.16-5.46,11.64,0,.57,.05,1.78,.12,2.68,0,.04,.01,.07,.02,.11,.6,8.9,6.32,18.83,13.71,23.83,.01,.01,.03,.03,.04,.04,.83,.6,1.62,1.11,2.42,1.56l.04,.02c2.71,1.56,5.35,2.34,7.78,2.34,1.79,0,3.47-.43,4.96-1.29,1.62-.94,2.89-2.33,3.8-4.08,.36,.59,1.01,.96,1.7,.96,.13,0,.26-.02,.39-.05,3.14,1.57,6.18,2.37,8.99,2.37,2.47,0,4.75-.61,6.76-1.83,4.6-2.8,7.08-8.38,7-15.73-.16-14.17-9.84-30.93-22.03-38.16Zm1.65,11.98c5.92,5.22,9.7,13.15,10.81,18.69,0,.02,.01,.03,.01,.05,1.02,5.71-.18,10.32-3.13,12.02l-.46,.27c1.17-6.58-1.27-14.79-4.49-20.37-3.12-5.41-8.91-11.43-15.2-13.69l.47-.27c2.97-1.71,7.56-.45,11.99,3.3Zm-18.26,.1s.06,0,.09,0c.58-.06,1.19-.06,1.81,.02,5.84,.68,12.41,6.97,15.63,12.55,3.4,5.89,5.64,14.67,3.34,20.06-1.06,2.49-2.97,4.05-5.85,4.76-.04,.01-.08,.03-.12,.04,.35-1.4,.56-2.93,.56-4.61-.01-10.54-7.17-22.93-16.29-28.21-1.43-.83-2.85-1.44-4.23-1.83,.07-.06,.14-.11,.21-.18,1.43-1.52,3.04-2.38,4.85-2.58Zm-15.02,16.45c0-3.6,1.1-6.22,3.1-7.37,2-1.16,4.82-.8,7.94,1,7.21,4.18,13.08,14.35,13.1,22.68,0,3.6-1.1,6.22-3.1,7.37s-4.83,.8-7.94-1c-7.21-4.18-13.08-14.35-13.1-22.69Zm44.58,21.94c-2.35,1.43-5.37,1.61-8.72,.58,.72-.55,1.36-1.17,1.93-1.86l5.18-2.99c4.54-2.62,6.43-8.71,5.06-16.29,0-.04-.02-.07-.03-.1-1.17-5.75-5.03-14.63-12.09-20.85h-.01v-.02c-5.86-4.95-12.06-6.34-16.6-3.72l-5.14,2.96c-.89,.14-1.75,.37-2.58,.72,.8-3.37,2.46-5.87,4.86-7.19,3.43-1.88,8.1-1.27,13.15,1.73,10.92,6.48,19.92,22.07,20.07,34.77,.07,5.88-1.73,10.24-5.08,12.27Z"/></g></svg>