<svg xmlns="http://www.w3.org/2000/svg" viewBox="0 0 480 320"><defs><style>.cls-1{fill:#000;}</style></defs><g id="svg8"><path class="cls-1" d="M459.67,127.37l0-.36h-.06a4,4,0,0,0-2.3-2.92L329,67.09a3.93,3.93,0,0,0-2.14-.31L23.79,106a4,4,0,0,0-3.28,2.7,4.07,4.07,0,0,0-.2,1.28h0l.13,40.15a4,4,0,0,0,.93,2.55l82.16,98.5a4,4,0,0,0,3.07,1.44,4.12,4.12,0,0,0,.86-.09l11-2.41a7.34,7.34,0,0,0,6.48,3.22c4.13,0,7.24-2.56,7.24-6,0-.08,0-.17,0-.26l294.38-64.42a6.63,6.63,0,0,0,5.85,3.13c3.69,0,6.57-2.55,6.57-5.8V180l15-3.28a4,4,0,0,0,3.13-3.68l2.55-44.46c0-.11.05-.21.06-.32A3.37,3.37,0,0,0,459.67,127.37ZM326.8,74.86l115.4,51.25L108.5,186.58,33,112.85ZM28.33,119.47l74.83,73.08-.46,45.13L28.42,148.63Zm82.32,124.14.5-49.38,340.21-61.65-2.11,36.92Z"/><ellipse class="cls-1" cx="144.89" cy="228.05" rx="6.38" ry="6.36"/><path class="cls-1" d="M294,164.17h0c-10.56.48-19,8.91-18.82,18.79a16.92,16.92,0,0,0,5.44,12.1,19.47,19.47,0,0,0,13.3,5.11c.31,0,.62,0,.93,0,10.57-.48,19-8.91,18.83-18.78a16.94,16.94,0,0,0-5.44-12.1A19.54,19.54,0,0,0,294,164.17Zm.56,29.73a13.26,13.26,0,0,1-9.66-3.41,10.7,10.7,0,0,1-3.46-7.65c-.12-6.52,5.64-12.08,12.85-12.41a13.18,13.18,0,0,1,9.66,3.41,10.71,10.71,0,0,1,3.47,7.64C307.57,188,301.8,193.57,294.59,193.9Z"/><ellipse class="cls-1" cx="124.77" cy="231.75" rx="6.38" ry="6.36"/><path class="cls-1" d="M417.8,161a6.36,6.36,0,1,0,6.39,6.36A6.37,6.37,0,0,0,417.8,161Z"/><ellipse class="cls-1" cx="437.11" cy="163.04" rx="6.38" ry="6.36"/><path class="cls-1" d="M262.71,184.81c-29.18,5.66-73.33,14.17-76.23,14.6a4,4,0,0,0,.38,8c.5,0,1.41,0,77.37-14.72a4,4,0,0,0-1.52-7.86Zm-76.19,14.6.28,0h.06Z"/><path class="cls-1" d="M395.81,156.81,327.43,171.2a4,4,0,1,0,1.65,7.83l68.38-14.4a4,4,0,1,0-1.65-7.82Z"/></g></svg>