<svg xmlns="http://www.w3.org/2000/svg" viewBox="0 0 480 320"><defs><style>.cls-1{fill:#000;}</style></defs><g id="svg8"><path class="cls-1" d="M325.46,68.34a7.58,7.58,0,0,0-1.17-3.11,11.43,11.43,0,0,0,.72-2,10.32,10.32,0,0,0-4.23-11.06L272.26,18.92a3,3,0,0,0-2-.51l-120.44,13a3.64,3.64,0,0,0-3.09,3.17V255.82a2.7,2.7,0,0,0,.07.63h0a2.25,2.25,0,0,0,.08.24c0,.1,0,.21.09.31a3.1,3.1,0,0,0,.26.47l0,0a3,3,0,0,0,.93.91l.12.07.13.07,38.71,40.3a2.1,2.1,0,0,0,.27.24,43,43,0,0,0,27.17,9.69h1l.29,0,95.37-11.31a15.57,15.57,0,0,0,13.71-15.28L326,70.07A3,3,0,0,0,325.46,68.34ZM152.75,41.08l34.59,32.45a37.11,37.11,0,0,0,25,9.8q.74,0,1.47,0l.24,0,102-12.21A10.59,10.59,0,0,0,320,69.85c0,.06,0,.13,0,.19v1.8A5.55,5.55,0,0,1,316,75L215.54,86.68l-.63,0c-8.43.35-16.39.68-29.77-10.93L152.75,45.39Zm117-16.52,47.6,32.6a4.34,4.34,0,0,1-1.94,7.89L213.5,77.25a30.93,30.93,0,0,1-22-8.16L157,36.74Zm40.7,266.87-95.23,11.29a36.88,36.88,0,0,1-23.89-8.2l-38.59-40.17V52.25l29,27.24c12.43,10.79,21,12.34,28.69,12.34,1.57,0,3.11-.06,4.64-.13l.72,0H216L316.58,80a8.79,8.79,0,0,0,3.31-1.12l-1.08,203.27A9.49,9.49,0,0,1,310.46,291.43Z"/><path class="cls-1" d="M228.8,149l13.7,9.11a3,3,0,0,0,1.68.51h.28L276,155.74a3,3,0,0,0,2.15-1.19l11.52-15.23a3,3,0,0,0,.62-1.83V109.56a3,3,0,0,0-1.17-2.39l-12-9.31a3,3,0,0,0-2.24-.62l-35.69,4.44a3,3,0,0,0-2.21,1.43l-9.1,15a3,3,0,0,0-.44,1.58v26.82A3,3,0,0,0,228.8,149Zm4.7-28.5,7.9-13,33-4.1,9.81,7.63v25.44l-10.1,13.35L245,152.47l-11.47-7.62Z"/><path class="cls-1" d="M253,258.85a48.69,48.69,0,0,0,6.22-.4c26-3.32,47.21-26.85,47.2-52.45,0-12.34-4.88-23.41-13.7-31.18-9.15-8-21.34-11.57-34.32-9.92-26,3.32-47.22,26.85-47.2,52.46a40.9,40.9,0,0,0,13.7,31.18A42,42,0,0,0,253,258.85Zm-35.74-41.5c0-22.66,18.78-43.49,41.9-46.43a41.92,41.92,0,0,1,5.43-.35,36,36,0,0,1,24.12,8.8A34.85,34.85,0,0,1,300.39,206c0,22.66-18.78,43.49-41.89,46.44-11.24,1.42-21.73-1.57-29.55-8.46A34.89,34.89,0,0,1,217.3,217.35Z"/><path class="cls-1" d="M246.43,142.47a15.63,15.63,0,0,0,10.45,3.84,18.12,18.12,0,0,0,2.3-.15c9.49-1.2,17.21-9.8,17.21-19.16a15.22,15.22,0,0,0-5.12-11.63,15.93,15.93,0,0,0-12.75-3.7c-9.49,1.21-17.22,9.81-17.21,19.17A15.22,15.22,0,0,0,246.43,142.47Zm12.73-25.84a13,13,0,0,1,1.64-.1,10.74,10.74,0,0,1,7.17,2.59,10.33,10.33,0,0,1,3.42,7.89h0c0,6.92-5.76,13.29-12.85,14.19a11,11,0,0,1-8.81-2.48,10.33,10.33,0,0,1-3.42-7.89C246.31,123.91,252.07,117.54,259.16,116.63Z"/><path class="cls-1" d="M260.54,266.53a13.12,13.12,0,0,0-11.31,12.55c0,6.13,5.07,10.46,11.32,9.66a13.11,13.11,0,0,0,11.31-12.54C271.85,270.06,266.78,265.74,260.54,266.53Z"/><path class="cls-1" d="M283.08,271.9a4,4,0,0,0-3.32,3.85,2.81,2.81,0,0,0,3.35,2.83,4,4,0,0,0,3.32-3.85A2.8,2.8,0,0,0,283.08,271.9Z"/><path class="cls-1" d="M293.16,270.88a4,4,0,0,0-3.32,3.85,2.81,2.81,0,0,0,3.35,2.84,4,4,0,0,0,3.32-3.86A2.81,2.81,0,0,0,293.16,270.88Z"/><path class="cls-1" d="M303.32,269.71a4,4,0,0,0-3.32,3.85,2.82,2.82,0,0,0,3.35,2.84,4,4,0,0,0,3.33-3.86A2.82,2.82,0,0,0,303.32,269.71Z"/><path class="cls-1" d="M217.73,279.27a4,4,0,0,0-3.32,3.86,2.81,2.81,0,0,0,3.36,2.83,4,4,0,0,0,3.32-3.85A2.82,2.82,0,0,0,217.73,279.27Z"/><path class="cls-1" d="M227.81,278.26a4,4,0,0,0-3.32,3.85,2.82,2.82,0,0,0,3.35,2.84,4,4,0,0,0,3.33-3.86A2.82,2.82,0,0,0,227.81,278.26Z"/><path class="cls-1" d="M238,277.09a4,4,0,0,0-3.33,3.85,2.82,2.82,0,0,0,3.36,2.84,4,4,0,0,0,3.32-3.86A2.81,2.81,0,0,0,238,277.09Z"/><path class="cls-1" d="M245.43,223.39a15.62,15.62,0,0,0,10.46,3.85,17.42,17.42,0,0,0,2.27-.15c9.49-1.19,17.19-9.77,17.17-19.12a15.29,15.29,0,0,0-5.13-11.63,16,16,0,0,0-12.72-3.7c-9.49,1.2-17.2,9.78-17.18,19.13A15.29,15.29,0,0,0,245.43,223.39ZM258.1,197.6a12.85,12.85,0,0,1,1.63-.1,10.71,10.71,0,0,1,7.17,2.6,10.29,10.29,0,0,1,3.43,7.88c0,6.91-5.72,13.26-12.79,14.15a11,11,0,0,1-8.8-2.49,10.35,10.35,0,0,1-3.44-7.88C245.29,204.84,251,198.49,258.1,197.6Z"/><path class="cls-1" d="M254.13,248.35a39.19,39.19,0,0,0,4.81-.3c20.38-2.6,37-21,36.95-41,0-18.25-13.91-32-32.32-32a37.33,37.33,0,0,0-4.81.31c-20.38,2.59-37,21-36.95,41C221.82,234.59,235.72,248.35,254.13,248.35Zm5.26-68.08a32.94,32.94,0,0,1,4.18-.27c15.56,0,27.31,11.62,27.32,27,0,17.6-14.61,33.78-32.59,36.07a34.58,34.58,0,0,1-4.17.26c-15.57,0-27.31-11.61-27.32-27C226.8,198.73,241.42,182.56,259.39,180.27Z"/></g></svg>