<svg xmlns="http://www.w3.org/2000/svg" viewBox="0 0 480 320"><defs><style>.cls-1{fill:none;stroke:#000;stroke-linecap:round;stroke-miterlimit:3.78;stroke-width:8px;}.cls-2{fill:#000;}</style></defs><g id="svg8"><path id="path862" class="cls-1" d="M137.69,243.73h.17l4.76-.41,7.49-.65,8-.7c2.89-.25,5.76-.51,8.64-.75l9.36-.82,7.07-.62,7.5-.65,8-.7,8.54-.75,9.17-.8,12.56-1.1,13.22-1.16,13.59-1.19,13.69-1.2L282.91,231l12.82-1.13,12.13-1.06,11.31-1,10.57-.92,8.49-.75c2.72-.24,5.43-.47,8.14-.72l7.83-.69,7.55-.66,7.31-.64,6.65-.59,6.2-.54,5.35-.48,2.76-.24"/><path id="path864" class="cls-1" d="M90.91,240.89l.87,1.23"/><path id="path866" class="cls-1" d="M447.87,174.62l-.78-1.26"/><path id="path868" class="cls-1" d="M446.93,212.25l1.33-36.34"/><path id="path870" class="cls-1" d="M445.53,214.64l.87-1.06"/><path id="path872" class="cls-1" d="M32.82,96.09l-.76,1.09"/><path id="path876" class="cls-1" d="M102.49,246.09v4.72"/><path id="path878" class="cls-1" d="M137.67,251.72l0-6.5"/><path id="path880" class="cls-1" d="M388.54,221.75l-.07,2.46"/><path id="path882" class="cls-1" d="M421.77,227.68l.21-6.17"/><path id="path884" class="cls-1" d="M422,221.51l.1-3.12"/><path id="path886" class="cls-1" d="M137.69,245.22v-1.75"/><path id="path888" class="cls-1" d="M390,221.59h.23a14.05,14.05,0,0,0,1.67-.35c.37-.09.77-.21,1.16-.3"/><path id="path890" class="cls-1" d="M446.31,172.46,343.51,79.7"/><path id="path892" class="cls-1" d="M330.6,76.87,41,93.44"/><path id="path894" class="cls-1" d="M32.73,97.71,91.48,200.3"/><path id="path896" class="cls-1" d="M106.45,204.41l334.38-26.58"/><path id="path898" class="cls-1" d="M441.15,179.43l-334.48,26.7"/><path id="path900" class="cls-1" d="M106.67,245.09,439.85,216"/><path id="path902" class="cls-1" d="M439.44,216.87,106.45,246"/><path id="path904" class="cls-1" d="M90.59,201.71,32,98.92"/><path id="path906" class="cls-1" d="M31.74,98.13l1.13,32.51a17.29,17.29,0,0,0,2.1,7.69L90.66,240.5"/><path id="path908" class="cls-1" d="M439.44,216.87a8.62,8.62,0,0,0,6.09-2.22"/><path id="path910" class="cls-1" d="M32.06,97.18l-.09.11a1.64,1.64,0,0,0,0,1.63"/><path id="path912" class="cls-1" d="M91.48,200.31l.68.86,1,.8,1.35.73,1.62.63,1.85.51,2,.37,2.12.22,2.16.06,2.14-.08"/><path id="path914" class="cls-1" d="M106.67,206.15l-2.06.08-2.1,0-2.07-.18-2-.31-1.87-.44-1.69-.54-1.48-.65-1.23-.73-1-.79-.64-.84"/><path id="path916" class="cls-1" d="M90.66,240.49l.64.88.94.83,1.23.76,1.47.67,1.69.57,1.86.45,2,.32,2.06.19,2.09,0,2-.11"/><path id="path918" class="cls-1" d="M440.83,177.83l1.75-.22,1.54-.34,1.29-.47,1-.58.67-.66.33-.73,0-.78-.37-.8-.71-.79"/><path id="path920" class="cls-1" d="M343.51,79.71l-.79-.58-1-.54-1.27-.49L339,77.67l-1.59-.35-1.68-.26L334,76.91l-1.72-.07-1.65,0"/><path id="path922" class="cls-1" d="M41,93.44l-1.76.16-1.64.27-1.48.36-1.27.45-1,.52-.74.59-.43.62-.12.65.21.65"/><path id="path2552" class="cls-1" d="M106.45,246l-2.13.1-2.15-.06-2.11-.23-2-.38-1.84-.53-1.62-.66-1.34-.76-1-.85-.45-.54"/><path id="path2554" class="cls-1" d="M447.87,174.62l.28.58.1.75-.2.73-.5.68-.79.6-1.07.52-1.31.43-1.52.32-1.71.2"/><path id="path2556" class="cls-1" d="M439.85,216l1.7-.22,1.52-.34,1.31-.45,1.06-.55.79-.64.5-.71.2-.77v0"/><path id="path2560" class="cls-1" d="M102.5,250.82v.35l.27,1.05.57,1,.87,1,1.16.95,1.43.87,1.67.79,1.89.69,2.06.57,2.2.45,2.3.32,2.36.18,2.37,0L124,259l2.27-.26,2.16-.38,2-.51,1.81-.63"/><path id="path2562" class="cls-1" d="M132.25,257.21l1.6-.74,1.34-.83,1.07-.9.77-1,.48-1,.16-1h0"/><path id="path2564" class="cls-1" d="M388.47,224.21l0,.57.31.95.59,1,.88.94,1.14.92,1.39.87,1.62.8,1.81.73,2,.64,2.1.54,2.19.42,2.24.31L407,233"/><path id="path2566" class="cls-1" d="M407,233l2.21,0,2.13-.08,2-.21,1.88-.33,1.68-.45,1.47-.56,1.24-.66,1-.75.69-.82.4-.87.1-.67"/><path class="cls-2" d="M281.78,163.71c-3.38.27-5.94,2.82-5.71,5.68s3.18,5,6.56,4.67,5.94-2.83,5.7-5.68S285.16,163.43,281.78,163.71Z"/><path class="cls-2" d="M300,162.21c-3.38.28-5.94,2.83-5.7,5.68s3.17,5,6.55,4.68,5.94-2.83,5.71-5.69S303.33,161.93,300,162.21Z"/><path class="cls-2" d="M318.17,160.71c-3.38.28-5.94,2.83-5.7,5.68s3.18,5,6.56,4.68,5.93-2.83,5.7-5.68S321.55,160.43,318.17,160.71Z"/><path class="cls-2" d="M336.91,159.17c-3.38.28-5.94,2.83-5.71,5.68s3.18,5,6.56,4.68,5.94-2.83,5.7-5.68S340.29,158.89,336.91,159.17Z"/><path class="cls-2" d="M355.08,157.68c-3.38.28-5.94,2.82-5.7,5.68s3.17,4.95,6.55,4.67,5.94-2.82,5.71-5.68S358.46,157.4,355.08,157.68Z"/><path class="cls-2" d="M373.3,156.18c-3.38.28-5.93,2.83-5.7,5.68s3.18,4.95,6.55,4.67,5.94-2.82,5.71-5.68S376.68,155.9,373.3,156.18Z"/><path class="cls-2" d="M391.48,154.68c-3.38.28-5.94,2.83-5.7,5.69s3.17,4.95,6.55,4.67,5.94-2.83,5.71-5.68S394.86,154.41,391.48,154.68Z"/></g></svg>