<svg id="Artwork" xmlns="http://www.w3.org/2000/svg" viewBox="0 0 480 320"><defs><style>.cls-1{fill:#000;}</style></defs><g id="svg8"><path class="cls-1" d="M468.58,83.44v-.39a4,4,0,0,0-3-3.67L238.27,23.66a26.21,26.21,0,0,0-11.82-.15C196.75,30,47.1,62.68,17.27,69a6.58,6.58,0,0,0-5.1,7.8A6.28,6.28,0,0,0,12.58,78l1.49,59.74a10.65,10.65,0,0,0,2.51,8.58L142.1,292.28a11.75,11.75,0,0,0,13.29,3.17L459.67,171.66a8.68,8.68,0,0,0,5.38-7.62ZM148,192.57l-20.72-19.08C158,162.82,310.94,107.42,405.87,73l44.88,11ZM228.16,31.32a18.07,18.07,0,0,1,8.21.11L391.88,69.55c-96.6,35-261.63,94.78-271.22,97.82L21.58,76.19C56.8,68.75,199.26,37.64,228.16,31.32ZM22.58,141.12a2.68,2.68,0,0,1-.56-2.5l.06-.35-1.3-51.93L143.14,199l1.43,84ZM457,163.68a.67.67,0,0,1-.4.57L152.65,288l-1.49-88L460.35,89Z"/><polygon class="cls-1" points="180.71 195.92 181.49 268.45 294.6 221.73 293.69 154.73 180.71 195.92"/><path class="cls-1" d="M450.13,105.13,334.71,148a4,4,0,1,0,2.64,7.55l.14-.05,115.42-42.86a4,4,0,0,0-2.65-7.56l-.13.06Z"/><path class="cls-1" d="M429.58,149.27a9.21,9.21,0,1,0,9,9.41,1.34,1.34,0,0,0,0-.2A9.12,9.12,0,0,0,429.58,149.27Zm0,9.29a.11.11,0,0,1,0-.08.11.11,0,0,1,0-.08v.16Z"/><path class="cls-1" d="M166.76,220.3c-5.54,0-10,4.91-10,11s4.46,11,10,11,10-4.9,10-11S172.26,220.3,166.76,220.3Z"/><ellipse class="cls-1" cx="166.77" cy="257.85" rx="6.39" ry="7"/><path class="cls-1" d="M351.58,157.51a5.43,5.43,0,1,0,5.6,5.46A5.54,5.54,0,0,0,351.58,157.51Zm0,8a2.58,2.58,0,1,1,2.35-2.79c0,.07,0,.14,0,.22A2.48,2.48,0,0,1,351.58,165.51Z"/><path class="cls-1" d="M396.47,141.73a5.44,5.44,0,1,0,5.64,5.44,5.54,5.54,0,0,0-5.64-5.44Zm0,8a2.57,2.57,0,1,1,2.36-2.77c0,.07,0,.14,0,.21A2.47,2.47,0,0,1,396.47,149.73Z"/><path class="cls-1" d="M382.27,147.06a5.44,5.44,0,1,0,5.64,5.43A5.55,5.55,0,0,0,382.27,147.06Zm0,8a2.57,2.57,0,1,1,2.35-2.78c0,.07,0,.14,0,.21A2.48,2.48,0,0,1,382.27,155.06Z"/><path class="cls-1" d="M367.52,152.25a5.44,5.44,0,1,0,5.64,5.44A5.55,5.55,0,0,0,367.52,152.25Zm0,8a2.57,2.57,0,1,1,2.35-2.78c0,.07,0,.15,0,.22A2.48,2.48,0,0,1,367.52,160.25Z"/><path class="cls-1" d="M411.09,136.41a5.44,5.44,0,1,0,5.64,5.43A5.54,5.54,0,0,0,411.09,136.41Zm0,8a2.57,2.57,0,1,1,2.35-2.78c0,.07,0,.14,0,.21A2.48,2.48,0,0,1,411.09,144.41Z"/><path class="cls-1" d="M429.71,137.47a5.64,5.64,0,1,0-5.85,5.42h.21A5.56,5.56,0,0,0,429.71,137.47Zm-8,0a2.37,2.37,0,1,1,2.36,2.56A2.47,2.47,0,0,1,421.71,137.47Z"/><path class="cls-1" d="M436.31,127.6A5.44,5.44,0,1,0,442,133,5.55,5.55,0,0,0,436.31,127.6Zm0,8a2.57,2.57,0,1,1,2.35-2.78c0,.07,0,.14,0,.21A2.48,2.48,0,0,1,436.31,135.6Z"/></g></svg>