<svg id="Artwork" xmlns="http://www.w3.org/2000/svg" viewBox="0 0 480 320"><defs><style>.cls-1{fill:#000;}</style></defs><g id="svg8"><path class="cls-1" d="M460.59,86.35v-.23a1,1,0,0,0,0-.25,1.22,1.22,0,0,0,0-.27,3.18,3.18,0,0,0-.13-.51l-.06-.19a3.07,3.07,0,0,0-.31-.63l-.09-.13a3.61,3.61,0,0,0-.33-.44c-.06-.06-.11-.12-.17-.17a2.66,2.66,0,0,0-.35-.32l-.2-.16a2.86,2.86,0,0,0-.42-.24l-.21-.12a4,4,0,0,0-.58-.2h-.11l-223-54.71a4,4,0,0,0-1.81,0C162.59,43.12,28.23,72.4,22.71,73.35h-.12l-.18.05a3.33,3.33,0,0,0-.51.16l-.19.07a3.42,3.42,0,0,0-.59.33h-.07a5.58,5.58,0,0,0-.46.39l-.14.14a5,5,0,0,0-.35.43L20,75a3.7,3.7,0,0,0-.32.59,1.34,1.34,0,0,1-.07.18,1.11,1.11,0,0,1-.1.29,1.29,1.29,0,0,0-.05.21v.21a5.51,5.51,0,0,0-.07.71h0v62.9a4,4,0,0,0,1,2.64L150.49,291l.1.1a2.82,2.82,0,0,0,.36.33c.09.07.16.14.25.2l.45.26.25.14.57.18.2.07a5.53,5.53,0,0,0,.7.07h.44l.53-.07a1.61,1.61,0,0,0,.36-.1l.33-.1L454.59,170.21a4,4,0,0,0,2.48-3.53l3.52-80.19Zm-224-49.85L442.73,87,152.85,191,31.82,79.61c34.86-7.37,173-37.55,198.83-43.19A13.23,13.23,0,0,1,236.62,36.5ZM27.37,86.35,148,197.35l1.36,80.17L27.37,138.66Zm130,196.08L156,198.36,452.33,92.09l-3.16,71.68Z"/><ellipse class="cls-1" cx="208.81" cy="224.23" rx="12.54" ry="13.68"/><path class="cls-1" d="M178.86,226.61a8.77,8.77,0,1,0,7.94,9.52,7,7,0,0,0,0-.79A8.39,8.39,0,0,0,178.86,226.61Z"/><path class="cls-1" d="M380.19,121.45a1.87,1.87,0,0,0-.24,3.73,1.88,1.88,0,0,0,2-1.75v-.11a1.8,1.8,0,0,0-1.75-1.87Z"/><path class="cls-1" d="M380.19,127.35a1.87,1.87,0,0,0-.24,3.73,1.88,1.88,0,0,0,2-1.75v-.11a1.8,1.8,0,0,0-1.75-1.87Z"/><path class="cls-1" d="M380,137a1.87,1.87,0,1,0,.26-3.73,1.85,1.85,0,0,0-2,1.73.57.57,0,0,0,0,.13A1.82,1.82,0,0,0,380,137Z"/><path class="cls-1" d="M380,142.83a1.87,1.87,0,1,0,.26-3.73,1.85,1.85,0,0,0-2,1.73.57.57,0,0,0,0,.13A1.82,1.82,0,0,0,380,142.83Z"/><path class="cls-1" d="M380,149.17a1.87,1.87,0,1,0,.26-3.73,1.85,1.85,0,0,0-2,1.73.57.57,0,0,0,0,.13A1.82,1.82,0,0,0,380,149.17Z"/><path class="cls-1" d="M380,155a1.87,1.87,0,1,0,.26-3.73,1.85,1.85,0,0,0-2,1.73.57.57,0,0,0,0,.13A1.81,1.81,0,0,0,380,155Z"/><path class="cls-1" d="M380,157a1.87,1.87,0,1,0,1.74,2v-.13A1.79,1.79,0,0,0,380,157Z"/><path class="cls-1" d="M380,162.84a1.87,1.87,0,1,0,1.74,2v-.13a1.79,1.79,0,0,0-1.74-1.86Z"/><path class="cls-1" d="M379.84,168.76a1.87,1.87,0,1,0,1.74,2v-.13a1.79,1.79,0,0,0-1.74-1.86Z"/><path class="cls-1" d="M379.84,174.62a1.87,1.87,0,1,0,1.74,2v-.12a1.79,1.79,0,0,0-1.73-1.87Z"/><path class="cls-1" d="M379.84,181a1.87,1.87,0,1,0,1.74,2v-.12a1.79,1.79,0,0,0-1.73-1.87Z"/><path class="cls-1" d="M379.84,186.82a1.87,1.87,0,1,0,1.74,2v-.12a1.79,1.79,0,0,0-1.73-1.87Z"/><ellipse class="cls-1" cx="385.21" cy="120.57" rx="1.74" ry="1.87"/><path class="cls-1" d="M385.21,124.57a1.87,1.87,0,0,0-.24,3.73,1.88,1.88,0,0,0,2-1.75v-.12a1.79,1.79,0,0,0-1.74-1.86Z"/><path class="cls-1" d="M385,134.22a1.87,1.87,0,1,0,.26-3.73,1.85,1.85,0,0,0-2,1.73.57.57,0,0,0,0,.13,1.81,1.81,0,0,0,1.73,1.87Z"/><path class="cls-1" d="M385,140.08a1.87,1.87,0,1,0,.26-3.73,1.85,1.85,0,0,0-2,1.73.57.57,0,0,0,0,.13,1.81,1.81,0,0,0,1.73,1.87Z"/><path class="cls-1" d="M385,146.42a1.87,1.87,0,1,0,.26-3.73,1.85,1.85,0,0,0-2,1.73.66.66,0,0,0,0,.14,1.81,1.81,0,0,0,1.74,1.86Z"/><path class="cls-1" d="M385,152.28a1.87,1.87,0,1,0,.26-3.73,1.85,1.85,0,0,0-2,1.73.66.66,0,0,0,0,.14,1.81,1.81,0,0,0,1.74,1.86Z"/><path class="cls-1" d="M385.06,154.23a1.87,1.87,0,1,0,1.74,2v-.12a1.79,1.79,0,0,0-1.73-1.87Z"/><path class="cls-1" d="M385.06,160.09a1.87,1.87,0,1,0,1.74,2V162a1.79,1.79,0,0,0-1.73-1.87Z"/><path class="cls-1" d="M384.86,166a1.87,1.87,0,1,0,1.74,2v-.12A1.8,1.8,0,0,0,384.86,166Z"/><path class="cls-1" d="M384.86,171.87a1.87,1.87,0,1,0,1.74,2v-.12A1.8,1.8,0,0,0,384.86,171.87Z"/><path class="cls-1" d="M384.86,178.21a1.87,1.87,0,1,0,1.74,2v-.12A1.8,1.8,0,0,0,384.86,178.21Z"/><path class="cls-1" d="M384.86,184.07a1.87,1.87,0,1,0,1.74,2v-.12A1.8,1.8,0,0,0,384.86,184.07Z"/><path class="cls-1" d="M390.59,116.66a1.87,1.87,0,1,0,1.74,2v-.12A1.8,1.8,0,0,0,390.59,116.66Z"/><path class="cls-1" d="M390.59,122.52a1.87,1.87,0,1,0,1.74,2v-.12A1.8,1.8,0,0,0,390.59,122.52Z"/><path class="cls-1" d="M390.4,132.18a1.87,1.87,0,1,0,.26-3.73,1.85,1.85,0,0,0-2,1.73.57.57,0,0,0,0,.13A1.82,1.82,0,0,0,390.4,132.18Z"/><path class="cls-1" d="M390.4,138a1.87,1.87,0,1,0,.26-3.73,1.85,1.85,0,0,0-2,1.73.57.57,0,0,0,0,.13A1.82,1.82,0,0,0,390.4,138Z"/><path class="cls-1" d="M390.4,144.35a1.87,1.87,0,1,0,.26-3.73,1.85,1.85,0,0,0-2,1.73.57.57,0,0,0,0,.13,1.81,1.81,0,0,0,1.73,1.87Z"/><path class="cls-1" d="M390.4,150.24a1.87,1.87,0,1,0,.26-3.73,1.85,1.85,0,0,0-2,1.73.57.57,0,0,0,0,.13,1.81,1.81,0,0,0,1.73,1.87Z"/><path class="cls-1" d="M390.43,152.19a1.87,1.87,0,1,0,1.74,2v-.13a1.79,1.79,0,0,0-1.74-1.86Z"/><path class="cls-1" d="M390.43,158.05a1.87,1.87,0,1,0,1.74,2v-.12a1.79,1.79,0,0,0-1.73-1.87Z"/><path class="cls-1" d="M390.24,164a1.87,1.87,0,1,0,1.74,2v-.12a1.79,1.79,0,0,0-1.73-1.87Z"/><path class="cls-1" d="M390.24,169.83a1.87,1.87,0,1,0,1.74,2v-.12a1.79,1.79,0,0,0-1.73-1.87Z"/><path class="cls-1" d="M390.24,176.17a1.87,1.87,0,1,0,1.74,2V178a1.79,1.79,0,0,0-1.73-1.87Z"/><path class="cls-1" d="M390.24,182a1.87,1.87,0,1,0,1.74,2v-.12A1.8,1.8,0,0,0,390.24,182Z"/><path class="cls-1" d="M396,114.7a1.87,1.87,0,1,0,1.74,2v-.12A1.79,1.79,0,0,0,396,114.7Z"/><path class="cls-1" d="M396,120.56a1.87,1.87,0,1,0,1.74,2v-.12A1.8,1.8,0,0,0,396,120.56Z"/><path class="cls-1" d="M395.78,130.22a1.87,1.87,0,1,0,.24-3.73,1.85,1.85,0,0,0-2,1.74.49.49,0,0,0,0,.12,1.82,1.82,0,0,0,1.75,1.87Z"/><path class="cls-1" d="M395.78,136.08a1.87,1.87,0,1,0,.24-3.73,1.85,1.85,0,0,0-2,1.74.49.49,0,0,0,0,.12,1.82,1.82,0,0,0,1.75,1.87Z"/><path class="cls-1" d="M395.78,142.42a1.87,1.87,0,1,0,.24-3.73,1.85,1.85,0,0,0-2,1.74.49.49,0,0,0,0,.12,1.82,1.82,0,0,0,1.75,1.87Z"/><path class="cls-1" d="M395.78,148.28a1.87,1.87,0,1,0,.24-3.73,1.85,1.85,0,0,0-2,1.74.49.49,0,0,0,0,.12,1.82,1.82,0,0,0,1.75,1.87Z"/><path class="cls-1" d="M395.81,150.22a1.87,1.87,0,1,0,1.74,2v-.12A1.8,1.8,0,0,0,395.81,150.22Z"/><path class="cls-1" d="M395.81,156.08a1.87,1.87,0,1,0,1.78,2V158a1.8,1.8,0,0,0-1.75-1.87Z"/><path class="cls-1" d="M395.59,162a1.87,1.87,0,1,0,1.74,2v-.12A1.8,1.8,0,0,0,395.59,162Z"/><path class="cls-1" d="M395.59,167.86a1.87,1.87,0,1,0,1.74,2v-.12A1.8,1.8,0,0,0,395.59,167.86Z"/><path class="cls-1" d="M395.59,174.2a1.87,1.87,0,1,0,1.74,2v-.12A1.8,1.8,0,0,0,395.59,174.2Z"/><path class="cls-1" d="M395.59,180.06a1.87,1.87,0,1,0,1.74,2v-.12A1.8,1.8,0,0,0,395.59,180.06Z"/><path class="cls-1" d="M402.08,113a1.87,1.87,0,1,0,1.74,2v-.13a1.79,1.79,0,0,0-1.74-1.86Z"/><path class="cls-1" d="M402.08,118.83a1.87,1.87,0,1,0,1.74,2v-.13a1.79,1.79,0,0,0-1.74-1.86Z"/><path class="cls-1" d="M401.89,128.48a1.87,1.87,0,1,0,.26-3.73,1.85,1.85,0,0,0-2,1.73.57.57,0,0,0,0,.13,1.81,1.81,0,0,0,1.73,1.87Z"/><path class="cls-1" d="M401.89,134.35a1.87,1.87,0,1,0,.26-3.73,1.85,1.85,0,0,0-2,1.73.57.57,0,0,0,0,.13,1.81,1.81,0,0,0,1.73,1.87Z"/><path class="cls-1" d="M401.89,140.68a1.87,1.87,0,1,0,.26-3.73,1.85,1.85,0,0,0-2,1.73.66.66,0,0,0,0,.14,1.81,1.81,0,0,0,1.74,1.86Z"/><path class="cls-1" d="M401.89,146.55a1.87,1.87,0,1,0,.26-3.73,1.85,1.85,0,0,0-2,1.73.57.57,0,0,0,0,.13A1.82,1.82,0,0,0,401.89,146.55Z"/><path class="cls-1" d="M401.92,148.49a1.87,1.87,0,1,0,1.74,2v-.12A1.8,1.8,0,0,0,401.92,148.49Z"/><path class="cls-1" d="M401.92,154.35a1.87,1.87,0,1,0,1.74,2v-.12A1.8,1.8,0,0,0,401.92,154.35Z"/><path class="cls-1" d="M401.73,160.27a1.87,1.87,0,1,0,1.74,2v-.12A1.8,1.8,0,0,0,401.73,160.27Z"/><path class="cls-1" d="M401.73,166.13a1.87,1.87,0,1,0,1.74,2V168A1.8,1.8,0,0,0,401.73,166.13Z"/><path class="cls-1" d="M401.73,172.47a1.87,1.87,0,1,0,1.74,2v-.12A1.8,1.8,0,0,0,401.73,172.47Z"/><path class="cls-1" d="M401.73,178.35a1.87,1.87,0,1,0,1.74,2v-.12A1.8,1.8,0,0,0,401.73,178.35Z"/><path class="cls-1" d="M407.1,110.22a1.87,1.87,0,1,0,1.74,2v-.12a1.79,1.79,0,0,0-1.73-1.87Z"/><path class="cls-1" d="M407.1,116.08a1.87,1.87,0,1,0,1.74,2V118A1.8,1.8,0,0,0,407.1,116.08Z"/><path class="cls-1" d="M406.91,125.74a1.87,1.87,0,1,0,.26-3.73,1.85,1.85,0,0,0-2,1.73.57.57,0,0,0,0,.13A1.82,1.82,0,0,0,406.91,125.74Z"/><path class="cls-1" d="M406.91,131.6a1.87,1.87,0,1,0,.26-3.73,1.85,1.85,0,0,0-2,1.73.57.57,0,0,0,0,.13A1.82,1.82,0,0,0,406.91,131.6Z"/><path class="cls-1" d="M406.91,137.94a1.87,1.87,0,1,0,.26-3.73,1.85,1.85,0,0,0-2,1.73.57.57,0,0,0,0,.13A1.82,1.82,0,0,0,406.91,137.94Z"/><path class="cls-1" d="M406.91,143.8a1.87,1.87,0,1,0,.26-3.73,1.85,1.85,0,0,0-2,1.73.57.57,0,0,0,0,.13A1.82,1.82,0,0,0,406.91,143.8Z"/><path class="cls-1" d="M406.94,145.74a1.87,1.87,0,1,0,1.74,2v-.12A1.8,1.8,0,0,0,406.94,145.74Z"/><path class="cls-1" d="M406.94,151.6a1.87,1.87,0,1,0,1.74,2v-.12A1.8,1.8,0,0,0,406.94,151.6Z"/><path class="cls-1" d="M406.75,157.52a1.87,1.87,0,1,0,1.74,2v-.16A1.81,1.81,0,0,0,406.75,157.52Z"/><path class="cls-1" d="M406.75,163.35a1.87,1.87,0,1,0,1.74,2v-.12A1.8,1.8,0,0,0,406.75,163.35Z"/><path class="cls-1" d="M406.75,169.72a1.87,1.87,0,1,0,1.74,2v-.12A1.8,1.8,0,0,0,406.75,169.72Z"/><path class="cls-1" d="M406.75,175.58a1.87,1.87,0,1,0,1.74,2v-.12A1.8,1.8,0,0,0,406.75,175.58Z"/><path class="cls-1" d="M412.48,108.18a1.87,1.87,0,1,0,1.74,2V110a1.79,1.79,0,0,0-1.74-1.86Z"/><path class="cls-1" d="M412.48,114a1.87,1.87,0,1,0,1.74,2v-.13a1.79,1.79,0,0,0-1.74-1.86Z"/><path class="cls-1" d="M412.28,123.69a1.87,1.87,0,1,0,.26-3.73,1.85,1.85,0,0,0-2,1.73.57.57,0,0,0,0,.13,1.81,1.81,0,0,0,1.73,1.87Z"/><path class="cls-1" d="M412.28,129.55a1.87,1.87,0,1,0,.26-3.73,1.85,1.85,0,0,0-2,1.73.66.66,0,0,0,0,.14,1.81,1.81,0,0,0,1.74,1.86Z"/><path class="cls-1" d="M412.28,135.89a1.87,1.87,0,1,0,.26-3.73,1.85,1.85,0,0,0-2,1.73.66.66,0,0,0,0,.14,1.81,1.81,0,0,0,1.74,1.86Z"/><path class="cls-1" d="M412.28,141.76a1.87,1.87,0,1,0,.26-3.73,1.85,1.85,0,0,0-2,1.73.57.57,0,0,0,0,.13,1.81,1.81,0,0,0,1.73,1.87Z"/><path class="cls-1" d="M412.32,143.7a1.87,1.87,0,1,0,1.74,2v-.12A1.8,1.8,0,0,0,412.32,143.7Z"/><path class="cls-1" d="M412.32,149.56a1.87,1.87,0,1,0,1.74,2v-.12A1.8,1.8,0,0,0,412.32,149.56Z"/><path class="cls-1" d="M412.13,155.48a1.87,1.87,0,1,0,1.74,2v-.12A1.8,1.8,0,0,0,412.13,155.48Z"/><path class="cls-1" d="M412.13,161.35a1.87,1.87,0,1,0,1.74,2v-.12A1.8,1.8,0,0,0,412.13,161.35Z"/><path class="cls-1" d="M412.13,167.68a1.87,1.87,0,1,0,1.74,2v-.12A1.8,1.8,0,0,0,412.13,167.68Z"/><path class="cls-1" d="M412.13,173.54a1.87,1.87,0,1,0,1.74,2v-.12A1.8,1.8,0,0,0,412.13,173.54Z"/><path class="cls-1" d="M417.85,106.21a1.87,1.87,0,0,0-.24,3.73,1.88,1.88,0,0,0,2-1.75v-.11a1.8,1.8,0,0,0-1.75-1.87Z"/><path class="cls-1" d="M417.85,112.07a1.87,1.87,0,0,0-.24,3.73,1.88,1.88,0,0,0,2-1.75v-.11a1.8,1.8,0,0,0-1.75-1.87Z"/><path class="cls-1" d="M417.66,121.73a1.87,1.87,0,1,0,.26-3.73,1.85,1.85,0,0,0-2,1.73.57.57,0,0,0,0,.13A1.82,1.82,0,0,0,417.66,121.73Z"/><ellipse class="cls-1" cx="417.66" cy="125.72" rx="1.74" ry="1.87"/><path class="cls-1" d="M417.66,133.93a1.87,1.87,0,1,0,.26-3.73,1.85,1.85,0,0,0-2,1.73.57.57,0,0,0,0,.13A1.82,1.82,0,0,0,417.66,133.93Z"/><ellipse class="cls-1" cx="417.66" cy="137.92" rx="1.74" ry="1.87"/><path class="cls-1" d="M417.7,141.73a1.87,1.87,0,1,0,1.74,2v-.12a1.79,1.79,0,0,0-1.73-1.87Z"/><path class="cls-1" d="M417.7,147.6a1.87,1.87,0,1,0,1.74,2v-.13a1.79,1.79,0,0,0-1.74-1.86Z"/><path class="cls-1" d="M417.5,153.52a1.87,1.87,0,1,0,1.74,2v-.13a1.79,1.79,0,0,0-1.74-1.86Z"/><path class="cls-1" d="M417.5,159.35a1.87,1.87,0,1,0,1.74,2v-.13a1.79,1.79,0,0,0-1.74-1.86Z"/><path class="cls-1" d="M417.5,165.72a1.87,1.87,0,1,0,1.74,2v-.12a1.79,1.79,0,0,0-1.73-1.87Z"/><path class="cls-1" d="M417.5,171.58a1.87,1.87,0,1,0,1.74,2v-.12a1.79,1.79,0,0,0-1.73-1.87Z"/><path class="cls-1" d="M423,104.13a1.87,1.87,0,1,0,1.74,2V106A1.8,1.8,0,0,0,423,104.13Z"/><path class="cls-1" d="M423,110a1.87,1.87,0,1,0,1.74,2v-.12A1.8,1.8,0,0,0,423,110Z"/><path class="cls-1" d="M422.81,119.65a1.87,1.87,0,1,0,.26-3.73,1.85,1.85,0,0,0-2,1.73.57.57,0,0,0,0,.13A1.82,1.82,0,0,0,422.81,119.65Z"/><path class="cls-1" d="M422.81,125.51a1.87,1.87,0,1,0,.26-3.73,1.85,1.85,0,0,0-2,1.73.57.57,0,0,0,0,.13A1.82,1.82,0,0,0,422.81,125.51Z"/><path class="cls-1" d="M422.81,131.85a1.87,1.87,0,1,0,.26-3.73,1.85,1.85,0,0,0-2,1.73.57.57,0,0,0,0,.13A1.82,1.82,0,0,0,422.81,131.85Z"/><path class="cls-1" d="M422.81,137.71a1.87,1.87,0,1,0,.26-3.73,1.85,1.85,0,0,0-2,1.73.57.57,0,0,0,0,.13A1.82,1.82,0,0,0,422.81,137.71Z"/><path class="cls-1" d="M422.84,139.65a1.87,1.87,0,0,0-.24,3.73,1.88,1.88,0,0,0,2-1.75v-.11a1.8,1.8,0,0,0-1.75-1.87Z"/><path class="cls-1" d="M422.84,145.51a1.87,1.87,0,0,0-.24,3.73,1.88,1.88,0,0,0,2-1.75v-.14A1.8,1.8,0,0,0,422.84,145.51Z"/><path class="cls-1" d="M422.65,151.43a1.87,1.87,0,1,0,1.74,2v-.07a1.81,1.81,0,0,0-1.69-1.92Z"/><path class="cls-1" d="M422.65,157.29a1.87,1.87,0,1,0,1.74,2v-.12A1.8,1.8,0,0,0,422.65,157.29Z"/><path class="cls-1" d="M422.65,163.64a1.87,1.87,0,1,0,1.74,2v-.13a1.79,1.79,0,0,0-1.74-1.86Z"/><path class="cls-1" d="M422.65,169.5a1.87,1.87,0,1,0,1.74,2v-.14A1.8,1.8,0,0,0,422.65,169.5Z"/><path class="cls-1" d="M428.38,102.17a1.87,1.87,0,1,0,1.74,2V104a1.79,1.79,0,0,0-1.74-1.86Z"/><path class="cls-1" d="M428.38,108a1.87,1.87,0,1,0,1.74,2v-.13a1.79,1.79,0,0,0-1.74-1.86Z"/><path class="cls-1" d="M428.19,117.68a1.87,1.87,0,1,0,.26-3.73,1.85,1.85,0,0,0-2,1.73.57.57,0,0,0,0,.13,1.81,1.81,0,0,0,1.73,1.87Z"/><path class="cls-1" d="M428.19,123.54a1.87,1.87,0,1,0,.26-3.73,1.85,1.85,0,0,0-2,1.73.66.66,0,0,0,0,.14,1.81,1.81,0,0,0,1.74,1.86Z"/><path class="cls-1" d="M426.45,128a1.74,1.74,0,0,0,3.48,0,1.53,1.53,0,0,0-.08-.52,1.82,1.82,0,0,0,0-.33,1.74,1.74,0,0,0-3.48,0,1.89,1.89,0,0,0,.08.53A1.82,1.82,0,0,0,426.45,128Z"/><path class="cls-1" d="M426.45,133.88a1.74,1.74,0,0,0,3.48,0,1.53,1.53,0,0,0-.08-.52,1.82,1.82,0,0,0,0-.33,1.74,1.74,0,0,0-3.48,0,1.89,1.89,0,0,0,.08.53A1.82,1.82,0,0,0,426.45,133.88Z"/><path class="cls-1" d="M428,161.67a1.87,1.87,0,1,0,1.74,2v-.12A1.8,1.8,0,0,0,428,161.67Z"/><path class="cls-1" d="M428,167.53a1.87,1.87,0,1,0,1.74,2v-.12A1.8,1.8,0,0,0,428,167.53Z"/><path class="cls-1" d="M374.83,122.82a1.87,1.87,0,1,0,1.74,2v-.13a1.79,1.79,0,0,0-1.74-1.86Z"/><path class="cls-1" d="M374.83,128.68a1.87,1.87,0,1,0,1.76,2v-.1a1.8,1.8,0,0,0-1.75-1.87Z"/><ellipse class="cls-1" cx="374.63" cy="136.47" rx="1.74" ry="1.87"/><path class="cls-1" d="M374.59,144.19a1.87,1.87,0,1,0-1.69-2,1.15,1.15,0,0,0,0,.19A1.81,1.81,0,0,0,374.59,144.19Z"/><ellipse class="cls-1" cx="374.63" cy="148.67" rx="1.74" ry="1.87"/><path class="cls-1" d="M374.59,156.4a1.87,1.87,0,1,0,.26-3.73,1.85,1.85,0,0,0-2,1.73.57.57,0,0,0,0,.13A1.82,1.82,0,0,0,374.59,156.4Z"/><path class="cls-1" d="M374.67,158.35a1.87,1.87,0,1,0,1.74,2v-.12A1.8,1.8,0,0,0,374.67,158.35Z"/><path class="cls-1" d="M374.67,164.2a1.87,1.87,0,1,0,1.74,2v-.12A1.8,1.8,0,0,0,374.67,164.2Z"/><path class="cls-1" d="M374.47,170.12a1.87,1.87,0,1,0,1.74,2V172A1.8,1.8,0,0,0,374.47,170.12Z"/><path class="cls-1" d="M374.47,176a1.87,1.87,0,1,0,1.74,2v-.12A1.8,1.8,0,0,0,374.47,176Z"/><path class="cls-1" d="M374.47,182.35a1.87,1.87,0,1,0,1.74,2v-.12A1.8,1.8,0,0,0,374.47,182.35Z"/><path class="cls-1" d="M374.47,188.18a1.87,1.87,0,1,0,1.74,2v-.12A1.8,1.8,0,0,0,374.47,188.18Z"/><ellipse class="cls-1" cx="442.56" cy="103.09" rx="4.54" ry="4.72"/><ellipse class="cls-1" cx="442.29" cy="116.45" rx="4.54" ry="4.72"/><path class="cls-1" d="M428,137.08a1.82,1.82,0,0,0-1.74,1.87,2,2,0,0,0,.34,1.11,1.77,1.77,0,0,0,1.67,1.37,1.81,1.81,0,0,0,1.74-1.87,2,2,0,0,0-.34-1.11A1.75,1.75,0,0,0,428,137.08Z"/><path class="cls-1" d="M428,142.94a1.82,1.82,0,0,0-1.74,1.87,2,2,0,0,0,.34,1.11,1.77,1.77,0,0,0,1.67,1.37,1.81,1.81,0,0,0,1.74-1.87,1.94,1.94,0,0,0-.37-1.07A1.76,1.76,0,0,0,428,142.94Z"/><path class="cls-1" d="M428,149.29a1.8,1.8,0,0,0-1.74,1.86h0a2,2,0,0,0,.2.85,1.75,1.75,0,0,0,1.62,1.21,1.81,1.81,0,0,0,1.74-1.87,1.9,1.9,0,0,0-.2-.85A1.75,1.75,0,0,0,428,149.29Z"/><path class="cls-1" d="M428,155.15a1.8,1.8,0,0,0-1.74,1.86h0a2,2,0,0,0,.2.85,1.75,1.75,0,0,0,1.62,1.21,1.81,1.81,0,0,0,1.74-1.87,1.9,1.9,0,0,0-.2-.85A1.75,1.75,0,0,0,428,155.15Z"/><ellipse class="cls-1" cx="441.93" cy="129.37" rx="4.54" ry="4.72"/><ellipse class="cls-1" cx="442.06" cy="143.91" rx="4.54" ry="4.72"/><ellipse class="cls-1" cx="441.37" cy="157.34" rx="4.54" ry="4.72"/><path class="cls-1" d="M317.71,170.17l-80.94,30.36a4.28,4.28,0,0,0,3,8l80.94-30.36a4.28,4.28,0,1,0-2.75-8.11Z"/><path class="cls-1" d="M301.08,195.16c-13.5,5-35.65,13-37.68,13.56a4.28,4.28,0,0,0,2.09,8.31h0c2.42-.61,30.1-10.7,38.54-13.83a4.28,4.28,0,0,0-2.94-8Z"/></g></svg>