<svg id="Artwork" xmlns="http://www.w3.org/2000/svg" viewBox="0 0 480 320"><defs><style>.cls-1{fill:#000;}</style></defs><g id="svg8"><path class="cls-1" d="M465.46,122.07a4,4,0,0,0-2-3.66L336.72,45.74a20.13,20.13,0,0,0-13.35-2.4l-305.55,51a4,4,0,0,0-3.34,4h0l.9,59.38,85.56,119.7,361.31-89.09L465.46,122ZM98.82,260.71,23.35,155.15,22.66,110l76.91,97Zm-73-159.59L324.68,51.23a12.23,12.23,0,0,1,8.07,1.45l117.92,67.61L105.15,201.11ZM454.54,182,106.7,267.82l.61-42.57c34.77-6.63,286.15-66.11,349.08-81Zm2.28-46.13c-91.28,21.64-315.38,74.48-349.36,81.23l.12-8.37L457.22,127Z"/><path class="cls-1" d="M175.39,237.65a6.65,6.65,0,1,0-6.48-6.82V231A6.57,6.57,0,0,0,175.39,237.65Z"/><path class="cls-1" d="M130.08,247a6.23,6.23,0,1,0-6.25-6.23,6.23,6.23,0,0,0,6.25,6.23Z"/><ellipse class="cls-1" cx="294.78" cy="200.4" rx="14.26" ry="12.81" transform="translate(-11.72 18.42) rotate(-3.51)"/><path class="cls-1" d="M154,204.71a2.39,2.39,0,1,0-2.1-2.66,2.62,2.62,0,0,0,0,.28A2.25,2.25,0,0,0,154,204.71Z"/><path class="cls-1" d="M184.94,197a2.39,2.39,0,1,0-2.11-2.65,2.09,2.09,0,0,0,0,.25,2.26,2.26,0,0,0,2.11,2.4Z"/><path class="cls-1" d="M215.09,190.37a2.39,2.39,0,1,0-2.11-2.65,2.53,2.53,0,0,0,0,.28A2.25,2.25,0,0,0,215.09,190.37Z"/><ellipse class="cls-1" cx="331.55" cy="160.7" rx="2.11" ry="2.38"/><path class="cls-1" d="M253.42,181.4a2.39,2.39,0,1,0-2.11-2.65,2.44,2.44,0,0,0,0,.27A2.26,2.26,0,0,0,253.42,181.4Z"/><path class="cls-1" d="M290.16,173.11a2.39,2.39,0,1,0-2.1-2.66,2.81,2.81,0,0,0,0,.29A2.25,2.25,0,0,0,290.16,173.11Z"/><path class="cls-1" d="M374.58,153a2.39,2.39,0,1,0-2.1-2.66,2.81,2.81,0,0,0,0,.29A2.25,2.25,0,0,0,374.58,153Z"/><path class="cls-1" d="M420.52,142.25a2.39,2.39,0,1,0-2.11-2.65,2.44,2.44,0,0,0,0,.27A2.26,2.26,0,0,0,420.52,142.25Z"/><path class="cls-1" d="M153.14,242.37a6.23,6.23,0,1,0-6.26-6.21,6.21,6.21,0,0,0,6.26,6.21Z"/></g></svg>