<svg id="Artwork" xmlns="http://www.w3.org/2000/svg" viewBox="0 0 480 320"><defs><style>.cls-1{fill:#000;}</style></defs><g id="svg8"><path class="cls-1" d="M400.56,171.79a8.46,8.46,0,0,0-2-6.94L264.87,15a9.16,9.16,0,0,0-9.34-2.69L95.6,58.59h0L81.28,62.92a4,4,0,0,0-2.57,2.39,3.79,3.79,0,0,0-.25,1.5h0l.62,42a13.85,13.85,0,0,0,1.77,6.53l105.67,188a10.51,10.51,0,0,0,2.17,2.67v.14h.16a10.28,10.28,0,0,0,6.66,2.48,11,11,0,0,0,3.72-.68l197-74.71a8.21,8.21,0,0,0,5.28-7.79ZM97.85,66.27,257.75,20a1.13,1.13,0,0,1,1.15.33L392.57,170.18a.39.39,0,0,1,.09.39.42.42,0,0,1-.26.3l-198,74.57L88.51,69.09Zm-10,45.17a5.73,5.73,0,0,1-.74-2.73l-.4-27.16,102,169.92v39.39ZM393.38,225.75l-196.69,74.6V253.13l196-73.82.79,46.27A.21.21,0,0,1,393.38,225.75Z"/><path class="cls-1" d="M326.65,208.71a2.07,2.07,0,1,0,2.19,2.06,2.12,2.12,0,0,0-2.18-2.06Z"/><path class="cls-1" d="M326.65,215.18a2.07,2.07,0,1,0,2.19,2.06,2.12,2.12,0,0,0-2.18-2.06Z"/><path class="cls-1" d="M326.38,221.72a2.07,2.07,0,1,0,2.18,2.06A2.13,2.13,0,0,0,326.38,221.72Z"/><path class="cls-1" d="M326.38,228.19a2.07,2.07,0,1,0,2.18,2.07A2.13,2.13,0,0,0,326.38,228.19Z"/><path class="cls-1" d="M326.38,235.19a2.07,2.07,0,1,0,2.18,2.07A2.13,2.13,0,0,0,326.38,235.19Z"/><path class="cls-1" d="M326.38,241.67a2.06,2.06,0,1,0,2.18,2.06A2.13,2.13,0,0,0,326.38,241.67Z"/><ellipse class="cls-1" cx="333.75" cy="207.35" rx="2.18" ry="2.06"/><ellipse class="cls-1" cx="333.75" cy="213.82" rx="2.18" ry="2.06"/><ellipse class="cls-1" cx="333.51" cy="220.36" rx="2.18" ry="2.06"/><ellipse class="cls-1" cx="333.51" cy="226.83" rx="2.18" ry="2.06"/><ellipse class="cls-1" cx="333.51" cy="233.84" rx="2.18" ry="2.06"/><path class="cls-1" d="M333.51,238.24a2.07,2.07,0,1,0,2.18,2.07A2.13,2.13,0,0,0,333.51,238.24Z"/><path class="cls-1" d="M340.91,202.75a2.07,2.07,0,1,0,2.19,2.07,2.13,2.13,0,0,0-2.19-2.07Z"/><path class="cls-1" d="M340.91,209.22a2.07,2.07,0,1,0,2.19,2.07,2.13,2.13,0,0,0-2.19-2.07Z"/><path class="cls-1" d="M340.67,215.76a2.07,2.07,0,1,0,2.18,2.07A2.13,2.13,0,0,0,340.67,215.76Z"/><ellipse class="cls-1" cx="340.67" cy="224.3" rx="2.18" ry="2.06"/><ellipse class="cls-1" cx="340.67" cy="231.3" rx="2.18" ry="2.06"/><path class="cls-1" d="M340.67,235.71a2.07,2.07,0,1,0,2.18,2.06A2.13,2.13,0,0,0,340.67,235.71Z"/><path class="cls-1" d="M348,200.13a2.07,2.07,0,1,0,2.19,2.07,2.13,2.13,0,0,0-2.19-2.07Z"/><path class="cls-1" d="M348,206.6a2.07,2.07,0,1,0,2.19,2.07A2.13,2.13,0,0,0,348,206.6Z"/><ellipse class="cls-1" cx="347.74" cy="215.21" rx="2.18" ry="2.06"/><ellipse class="cls-1" cx="347.74" cy="221.68" rx="2.18" ry="2.06"/><ellipse class="cls-1" cx="347.74" cy="228.68" rx="2.18" ry="2.06"/><ellipse class="cls-1" cx="347.74" cy="235.15" rx="2.18" ry="2.06"/><path class="cls-1" d="M354.71,197.62a2.07,2.07,0,1,0,2.19,2.07,2.13,2.13,0,0,0-2.19-2.07Z"/><path class="cls-1" d="M354.71,204.1a2.06,2.06,0,1,0,2.19,2.06,2.12,2.12,0,0,0-2.18-2.06Z"/><path class="cls-1" d="M354.47,210.64a2.06,2.06,0,1,0,2.18,2.06,2.12,2.12,0,0,0-2.18-2.06Z"/><path class="cls-1" d="M354.47,217.11a2.07,2.07,0,1,0,2.18,2.06,2.12,2.12,0,0,0-2.18-2.06Z"/><path class="cls-1" d="M354.47,224.11a2.07,2.07,0,1,0,2.18,2.06,2.12,2.12,0,0,0-2.18-2.06Z"/><path class="cls-1" d="M354.47,230.58a2.07,2.07,0,1,0,2.18,2.07A2.13,2.13,0,0,0,354.47,230.58Z"/><path class="cls-1" d="M361.81,194.67a2.07,2.07,0,1,0,2.19,2.07,2.13,2.13,0,0,0-2.19-2.07Z"/><path class="cls-1" d="M361.81,201.15a2.06,2.06,0,1,0,2.19,2.06,2.12,2.12,0,0,0-2.18-2.06Z"/><ellipse class="cls-1" cx="361.57" cy="209.75" rx="2.18" ry="2.06"/><ellipse class="cls-1" cx="361.57" cy="216.22" rx="2.18" ry="2.06"/><path class="cls-1" d="M361.57,221.16a2.07,2.07,0,1,0,2.19,2.06,2.12,2.12,0,0,0-2.18-2.06Z"/><ellipse class="cls-1" cx="361.57" cy="229.69" rx="2.18" ry="2.06"/><path class="cls-1" d="M369,192.14a2.07,2.07,0,1,0,2.19,2.06,2.12,2.12,0,0,0-2.18-2.06Z"/><path class="cls-1" d="M369,198.61a2.07,2.07,0,1,0,2.19,2.06,2.12,2.12,0,0,0-2.18-2.06Z"/><ellipse class="cls-1" cx="368.73" cy="207.21" rx="2.18" ry="2.06"/><ellipse class="cls-1" cx="368.73" cy="213.68" rx="2.18" ry="2.06"/><path class="cls-1" d="M368.73,218.62a2.07,2.07,0,1,0,2.19,2.07,2.13,2.13,0,0,0-2.19-2.07Z"/><ellipse class="cls-1" cx="368.73" cy="227.16" rx="2.18" ry="2.06"/><path class="cls-1" d="M376,189.52a2.07,2.07,0,1,0,2.19,2.06,2.12,2.12,0,0,0-2.18-2.06Z"/><path class="cls-1" d="M376,196a2.07,2.07,0,1,0,2.19,2.06,2.12,2.12,0,0,0-2.18-2.06Z"/><path class="cls-1" d="M375.8,202.53a2.07,2.07,0,1,0,2.19,2.06,2.12,2.12,0,0,0-2.18-2.06Z"/><path class="cls-1" d="M375.8,209a2.07,2.07,0,1,0,2.19,2.06,2.12,2.12,0,0,0-2.18-2.06Z"/><path class="cls-1" d="M375.8,216a2.07,2.07,0,1,0,2.19,2.07A2.13,2.13,0,0,0,375.8,216Z"/><path class="cls-1" d="M375.8,222.47a2.07,2.07,0,1,0,2.19,2.07,2.13,2.13,0,0,0-2.19-2.07Z"/><path class="cls-1" d="M383.07,186.86a2.07,2.07,0,1,0,2.19,2.06,2.12,2.12,0,0,0-2.18-2.06Z"/><path class="cls-1" d="M383.07,193.37a2.07,2.07,0,1,0,2.19,2.06,2.12,2.12,0,0,0-2.18-2.06Z"/><path class="cls-1" d="M382.83,199.91A2.07,2.07,0,1,0,385,202,2.13,2.13,0,0,0,382.83,199.91Z"/><path class="cls-1" d="M382.83,206.38a2.07,2.07,0,1,0,2.18,2.06A2.13,2.13,0,0,0,382.83,206.38Z"/><path class="cls-1" d="M382.83,213.38a2.07,2.07,0,1,0,2.18,2.07A2.13,2.13,0,0,0,382.83,213.38Z"/><path class="cls-1" d="M382.83,219.86a2.06,2.06,0,1,0,2.18,2.06A2.13,2.13,0,0,0,382.83,219.86Z"/><ellipse class="cls-1" cx="216.96" cy="269.83" rx="8.33" ry="8.3"/><path class="cls-1" d="M239.15,254.76a8.3,8.3,0,1,0,8.22,8.39A8.28,8.28,0,0,0,239.15,254.76Z"/></g></svg>