<svg id="Artwork" xmlns="http://www.w3.org/2000/svg" viewBox="0 0 480 320"><defs><style>.cls-1{fill:#000;}</style></defs><g id="svg8"><path class="cls-1" d="M383.85,180.2c-.14-5.6-.31-11.87-.35-18.33V159.1c-.06-3.77-.06-3.77-19.09-27.22-23.32-28.7-56.81-69.77-74.62-91.06C270.09,17.3,267,14.66,262.34,13.61a34.4,34.4,0,0,0-11-.15c-2.92.41-2.92.41-28.11,12l-12,5.51-.06-.07L203.82,24a4,4,0,0,0-4.31-.76h0L187,28.59a7,7,0,0,0-3.91,8.67c.76,2.3,1.42,4.22,2,5.75L127.3,69.51h0c-24.13,11.08-24.13,11.08-25.21,11.84a13.16,13.16,0,0,0-4.57,5,13.63,13.63,0,0,0-1.16,5.59H95.9l2.52,57.17a12.31,12.31,0,0,0,1.13,4.63c22.17,47.77,45.1,97.16,56.29,121.45,1.71,3.69,3.14,6.82,4.35,9.46,7.12,15.48,7.12,15.48,9.15,16.86.16.13.34.31.55.51a14.87,14.87,0,0,0,9.77,4.66,13.91,13.91,0,0,0,3.33.4c5.56,0,14.79-3.15,40.78-15.59,32.55-15.59,93.69-47,123.07-62.1l.94-.48c30.76-15.81,30.76-15.81,32.07-17.47a22.11,22.11,0,0,0,3.4-6.07c.85-2.55.85-4.72.85-12.77C384.09,189.26,384,185.06,383.85,180.2Zm-193-144.6,9.37-4,3.15,3-11.14,5.12c-.35-1.1-.8-2.42-1.36-4.12ZM104.73,89.75a6.29,6.29,0,0,1,1.91-1.83c.52-.36,3.65-1.8,24-11.15l59.45-27.26h.15v-.08l36.3-16.67C249,22.45,250.7,21.67,252.42,21.43a25.91,25.91,0,0,1,8.15,0c2.17.49,6,4.15,23.06,24.55,17.78,21.25,51.27,62.28,74.55,91,10.85,13.37,16.61,20.52,17.29,22.1v2.71a11.92,11.92,0,0,1-1.14,5.29c-1.34,2.46-7.92,6.07-35.23,19.3-32.34,15.67-90.79,43.39-119.49,56.78-26.22,12.23-29.44,13.35-30.92,13.09a20.75,20.75,0,0,1-8.86-3.33c-3.11-2.26-6.48-7.57-18.25-33-9-19.38-22.81-50.54-33.94-75.57-4.62-10.4-8.82-19.84-12.08-27.13-5.66-12.64-8.48-18.73-10-22-.63-1.35-1.07-2.31-1.25-2.72A6.48,6.48,0,0,1,104.73,89.75ZM375.64,202.82a12.74,12.74,0,0,1-2,3.56c-1.27.88-8.17,4.42-29.5,15.38l-.94.49c-29.35,15.08-90.41,46.46-122.86,62-30.92,14.8-36.1,15.34-39,14.57l-.41-.11h-.42a7.13,7.13,0,0,1-5-2.48,11.68,11.68,0,0,0-1.51-1.29c-.64-1-2.54-5.15-6.44-13.63-1.21-2.65-2.65-5.77-4.35-9.47-11.2-24.3-34.13-73.7-56.3-121.47a4.44,4.44,0,0,1-.4-1.61l-1.59-36.08c1,2.26,2.17,4.81,3.48,7.73,3.26,7.29,7.45,16.72,12.07,27.11,11.14,25.06,25,56.24,34,75.68,12.61,27.3,16.09,32.73,20.8,36.16a28.47,28.47,0,0,0,12.18,4.73,9.67,9.67,0,0,0,2,.24c3.14,0,8.28-2.1,33.67-14,28.73-13.41,87.23-41.15,119.6-56.83,19.18-9.29,28.34-13.95,33.13-17.08,0,1.35.06,2.68.1,4,.12,4.81.23,9,.23,12.16C376.09,199.65,376.09,201.51,375.64,202.82Z"/><path class="cls-1" d="M306.85,220a3.12,3.12,0,0,0-3.34-2.88,3.31,3.31,0,0,0-1.11.29L279.91,228a3.16,3.16,0,0,0-1.79,2.83v14.89a3.13,3.13,0,0,0,3.12,3.13,3,3,0,0,0,1.44-.36l23.49-12.15a3.12,3.12,0,0,0,1.68-3Z"/><path class="cls-1" d="M335.31,200.91c-4.78,1.54-8.64,7-8.63,12.09s3.89,8,8.66,6.51,8.65-6.94,8.65-12.08S340.09,199.38,335.31,200.91Z"/><path class="cls-1" d="M348.09,141.51l1.5-1.27.08-.09Z"/><path class="cls-1" d="M348.52,178.32a3.8,3.8,0,0,0,1.53-.3c4.2-1.74,8.55-3.54,11.91-5.37,3.65-2,6.26-4.07,7.75-6.16a8.52,8.52,0,0,0,1.34-7.53c-.58-2.19-1.72-4.15-4.53-7.77C364,148,359.83,143,355.6,138a2.17,2.17,0,0,0-3.05-.26h0l-3,2.5a2.1,2.1,0,0,0-.15,2.86c4.19,5,8.34,9.89,10.76,13,2.54,3.28,2.94,4.25,3.11,4.91.13.5.13.51-.11.84s-1.47,1.82-5.07,3.78a118.89,118.89,0,0,1-11,4.93,4.14,4.14,0,0,0-2.47,5A4,4,0,0,0,348.52,178.32Z"/><polygon class="cls-1" points="349.68 140.13 349.68 140.13 354.17 136.29 349.68 140.13"/></g></svg>