<svg id="Artwork" xmlns="http://www.w3.org/2000/svg" viewBox="0 0 480 320"><defs><style>.cls-1{fill:#000;}</style></defs><g id="svg8"><path class="cls-1" d="M457,147h0l-81.66-40h0l-9.13-37.21a13.13,13.13,0,0,0-6.84-8.61L307.75,35a11.72,11.72,0,0,0-6.91-1.17L47.14,67.29a9.06,9.06,0,0,0-7.81,7.94L33.9,122.41l-9.67,1.28h0a3.87,3.87,0,0,0-3.36,3.87l.41,33.74,92.59,121.92a7.63,7.63,0,0,0,6.09,3,7.53,7.53,0,0,0,2-.27L449.6,197.73a9,9,0,0,0,6.62-8l2.9-39A3.84,3.84,0,0,0,457,147Zm-82.19-30.08a10.27,10.27,0,0,0,.68-1.32l69,33.84L120.8,238.64,32.1,130.42l3.1-.4L77,179.62a12,12,0,0,0,9.2,4.28,12.34,12.34,0,0,0,2.64-.29l279.71-62.34a9.71,9.71,0,0,0,6.17-4.39ZM46.64,79.26,86.11,112.9l-5.86,58.54L41.33,125.31Zm321.82,32A2,2,0,0,1,367,113.7h0L87.56,176l6.14-61.37L358.45,70.86a6.37,6.37,0,0,1,.21.66ZM301.85,41.52a4.09,4.09,0,0,1,2.41.41l44.86,22.63L91.3,107.17,52.77,74.29ZM29,158.65l-.25-20.16L115.52,244.4l-.22,27.94Zm419.56,30.47a1.28,1.28,0,0,1-1,1.13L123,277.7l.26-31.73L451,155.59Z"/><path class="cls-1" d="M153.8,212.15c13.13,0,23.77-6.42,23.77-14.33s-10.64-14.34-23.77-14.34-23.74,6.42-23.74,14.35S140.71,212.15,153.8,212.15Z"/><path class="cls-1" d="M218.42,194c9.67,0,17.6-5.45,17.6-12.16s-7.88-12.16-17.6-12.16-17.6,5.44-17.6,12.16S208.7,194,218.42,194Z"/><ellipse class="cls-1" cx="276.83" cy="167.16" rx="17.23" ry="12.7"/><ellipse class="cls-1" cx="329.08" cy="154.28" rx="16.51" ry="12.52"/><ellipse class="cls-1" cx="377.88" cy="143.02" rx="17.41" ry="12.15"/><ellipse class="cls-1" cx="290.99" cy="215.41" rx="12.88" ry="11.25"/><ellipse class="cls-1" cx="165.81" cy="251.15" rx="11.8" ry="11.07"/><ellipse class="cls-1" cx="419.25" cy="181.3" rx="11.8" ry="11.07"/><path class="cls-1" d="M210.26,233.79a7,7,0,1,0,7,7v0a7,7,0,0,0-7-7Z"/><path class="cls-1" d="M375.05,188.08a7,7,0,1,0,7,7v0a7,7,0,0,0-7-7Z"/></g></svg>