<svg xmlns="http://www.w3.org/2000/svg" viewBox="0 0 480 320"><defs><style>.cls-1{fill:#000;}</style></defs><title>Waversa - WDAC3</title><g id="svg8"><path class="cls-1" d="M471.32,121.15s0,0,0,0a4.23,4.23,0,0,0-.17-.68l-.09-.2a3.68,3.68,0,0,0-.21-.45l-.11-.19a4.29,4.29,0,0,0-.36-.48l-.06-.07a4,4,0,0,0-.52-.48l-.16-.1a2.83,2.83,0,0,0-.28-.2l-132.53-76a11.68,11.68,0,0,0-7.7-1.38l-316,52.75-.13,0-.18,0a3.13,3.13,0,0,0-.57.18l-.1,0a3.33,3.33,0,0,0-.58.33.71.71,0,0,0-.14.1,4.42,4.42,0,0,0-.47.39l-.05.06a4.24,4.24,0,0,0-.43.52l-.09.15a4.11,4.11,0,0,0-.27.51.61.61,0,0,1-.05.12l0,0a4.37,4.37,0,0,0-.17.62l0,.17a3.66,3.66,0,0,0-.06.65v.06l.91,59.56a4,4,0,0,0,.74,2.26L96.7,278.73a4.82,4.82,0,0,0,.36.43l.09.08a3,3,0,0,0,.47.4l.07.06a4.79,4.79,0,0,0,.58.33l.15.06a3.69,3.69,0,0,0,.64.21l.11,0a4.91,4.91,0,0,0,.67.08H100a4.15,4.15,0,0,0,.7-.07l.15,0h.1l364.27-89.83a4,4,0,0,0,3-3.69l3.14-64.84s0-.06,0-.09A4,4,0,0,0,471.32,121.15ZM330.44,48.78a3.71,3.71,0,0,1,2.4.43l123.72,70.94L102.5,203,21.16,100.42ZM18,109.29l78.93,99.52-.79,55.36L18.7,155.84Zm86,162,.87-60.66,358.21-83.78-2.74,56.57Z"/><path class="cls-1" d="M121.64,214.38a1.82,1.82,0,1,0,1.7,1.82A1.76,1.76,0,0,0,121.64,214.38Z"/><path class="cls-1" d="M121.64,220.08a1.82,1.82,0,1,0,1.7,1.82A1.76,1.76,0,0,0,121.64,220.08Z"/><path class="cls-1" d="M121.45,225.84a1.82,1.82,0,1,0,1.7,1.81A1.76,1.76,0,0,0,121.45,225.84Z"/><path class="cls-1" d="M121.45,231.53a1.82,1.82,0,1,0,1.7,1.82A1.76,1.76,0,0,0,121.45,231.53Z"/><path class="cls-1" d="M121.45,237.7a1.82,1.82,0,1,0,1.7,1.82A1.76,1.76,0,0,0,121.45,237.7Z"/><path class="cls-1" d="M121.45,243.4a1.82,1.82,0,1,0,1.7,1.81A1.76,1.76,0,0,0,121.45,243.4Z"/><path class="cls-1" d="M127.19,212.82a1.82,1.82,0,1,0,1.69,1.82A1.76,1.76,0,0,0,127.19,212.82Z"/><path class="cls-1" d="M127.19,218.52a1.82,1.82,0,1,0,1.69,1.82A1.76,1.76,0,0,0,127.19,218.52Z"/><path class="cls-1" d="M127,224.28a1.82,1.82,0,1,0,1.69,1.81A1.76,1.76,0,0,0,127,224.28Z"/><path class="cls-1" d="M127,230a1.83,1.83,0,1,0,1.69,1.82A1.76,1.76,0,0,0,127,230Z"/><path class="cls-1" d="M127,236.14a1.82,1.82,0,1,0,1.69,1.82A1.76,1.76,0,0,0,127,236.14Z"/><path class="cls-1" d="M127,241.84a1.82,1.82,0,1,0,1.69,1.81A1.76,1.76,0,0,0,127,241.84Z"/><path class="cls-1" d="M132.69,215.36a1.82,1.82,0,1,0-1.69-1.81A1.75,1.75,0,0,0,132.69,215.36Z"/><path class="cls-1" d="M132.69,221.06a1.82,1.82,0,1,0-1.69-1.82A1.75,1.75,0,0,0,132.69,221.06Z"/><path class="cls-1" d="M132.5,226.82a1.82,1.82,0,1,0-1.69-1.82A1.76,1.76,0,0,0,132.5,226.82Z"/><path class="cls-1" d="M132.5,232.52a1.83,1.83,0,1,0-1.69-1.82A1.77,1.77,0,0,0,132.5,232.52Z"/><path class="cls-1" d="M132.5,238.68a1.82,1.82,0,1,0-1.69-1.82A1.76,1.76,0,0,0,132.5,238.68Z"/><path class="cls-1" d="M132.5,240.75a1.82,1.82,0,1,0,1.7,1.81A1.76,1.76,0,0,0,132.5,240.75Z"/><path class="cls-1" d="M138.24,214.17a1.82,1.82,0,1,0-1.69-1.82A1.76,1.76,0,0,0,138.24,214.17Z"/><path class="cls-1" d="M138.24,219.86a1.82,1.82,0,1,0-1.69-1.81A1.76,1.76,0,0,0,138.24,219.86Z"/><path class="cls-1" d="M138.05,225.62a1.82,1.82,0,1,0-1.69-1.82A1.75,1.75,0,0,0,138.05,225.62Z"/><path class="cls-1" d="M138.05,231.32a1.82,1.82,0,1,0-1.69-1.82A1.76,1.76,0,0,0,138.05,231.32Z"/><path class="cls-1" d="M138.05,237.48a1.82,1.82,0,1,0-1.69-1.81A1.75,1.75,0,0,0,138.05,237.48Z"/><path class="cls-1" d="M138.05,243.18a1.82,1.82,0,1,0-1.69-1.82A1.75,1.75,0,0,0,138.05,243.18Z"/><path class="cls-1" d="M143.72,209.05a1.82,1.82,0,1,0,1.69,1.82A1.77,1.77,0,0,0,143.72,209.05Z"/><ellipse class="cls-1" cx="143.72" cy="216.57" rx="1.69" ry="1.82"/><path class="cls-1" d="M143.53,220.51a1.82,1.82,0,1,0,1.69,1.81A1.75,1.75,0,0,0,143.53,220.51Z"/><path class="cls-1" d="M143.53,226.21a1.82,1.82,0,1,0,1.69,1.81A1.75,1.75,0,0,0,143.53,226.21Z"/><path class="cls-1" d="M143.53,232.37a1.82,1.82,0,1,0,1.69,1.82A1.75,1.75,0,0,0,143.53,232.37Z"/><path class="cls-1" d="M143.53,238.07a1.82,1.82,0,1,0,1.69,1.82A1.75,1.75,0,0,0,143.53,238.07Z"/><path class="cls-1" d="M149.15,208a1.82,1.82,0,1,0,1.69,1.81A1.76,1.76,0,0,0,149.15,208Z"/><path class="cls-1" d="M149.15,213.67a1.83,1.83,0,1,0,1.69,1.82A1.77,1.77,0,0,0,149.15,213.67Z"/><path class="cls-1" d="M149,219.43a1.82,1.82,0,1,0,1.69,1.82A1.75,1.75,0,0,0,149,219.43Z"/><path class="cls-1" d="M149,225.13a1.82,1.82,0,1,0,1.69,1.81A1.75,1.75,0,0,0,149,225.13Z"/><path class="cls-1" d="M149,231.29a1.83,1.83,0,1,0,1.69,1.82A1.76,1.76,0,0,0,149,231.29Z"/><path class="cls-1" d="M149,237a1.82,1.82,0,1,0,1.69,1.82A1.75,1.75,0,0,0,149,237Z"/><ellipse class="cls-1" cx="154.69" cy="208.23" rx="1.69" ry="1.82"/><ellipse class="cls-1" cx="154.69" cy="213.93" rx="1.69" ry="1.82"/><ellipse class="cls-1" cx="154.51" cy="219.69" rx="1.69" ry="1.82"/><path class="cls-1" d="M154.51,223.57a1.82,1.82,0,1,0,1.69,1.81A1.76,1.76,0,0,0,154.51,223.57Z"/><path class="cls-1" d="M154.51,229.73a1.83,1.83,0,1,0,1.69,1.82A1.77,1.77,0,0,0,154.51,229.73Z"/><path class="cls-1" d="M154.51,235.43a1.82,1.82,0,1,0,1.69,1.82A1.76,1.76,0,0,0,154.51,235.43Z"/><path class="cls-1" d="M160.2,205.32a1.82,1.82,0,1,0,1.69,1.82A1.77,1.77,0,0,0,160.2,205.32Z"/><path class="cls-1" d="M160.2,211a1.82,1.82,0,1,0,1.69,1.82A1.76,1.76,0,0,0,160.2,211Z"/><path class="cls-1" d="M160,216.78a1.82,1.82,0,1,0,1.69,1.81A1.76,1.76,0,0,0,160,216.78Z"/><path class="cls-1" d="M160,222.48a1.82,1.82,0,1,0,1.69,1.81A1.76,1.76,0,0,0,160,222.48Z"/><path class="cls-1" d="M160,228.64a1.82,1.82,0,1,0,1.69,1.82A1.76,1.76,0,0,0,160,228.64Z"/><path class="cls-1" d="M160,234.34a1.82,1.82,0,1,0,1.69,1.82A1.76,1.76,0,0,0,160,234.34Z"/><path class="cls-1" d="M165.74,204.13a1.82,1.82,0,1,0,1.7,1.81A1.76,1.76,0,0,0,165.74,204.13Z"/><path class="cls-1" d="M165.74,209.82a1.82,1.82,0,1,0,1.7,1.82A1.76,1.76,0,0,0,165.74,209.82Z"/><path class="cls-1" d="M165.56,215.58a1.82,1.82,0,1,0,1.69,1.82A1.76,1.76,0,0,0,165.56,215.58Z"/><path class="cls-1" d="M165.56,221.28a1.82,1.82,0,1,0,1.69,1.82A1.76,1.76,0,0,0,165.56,221.28Z"/><path class="cls-1" d="M165.56,227.44a1.82,1.82,0,1,0,1.69,1.82A1.77,1.77,0,0,0,165.56,227.44Z"/><path class="cls-1" d="M165.56,233.14a1.82,1.82,0,1,0,1.69,1.82A1.77,1.77,0,0,0,165.56,233.14Z"/><path class="cls-1" d="M171.22,202.65a1.82,1.82,0,1,0,1.69,1.81A1.76,1.76,0,0,0,171.22,202.65Z"/><path class="cls-1" d="M171.22,208.34a1.82,1.82,0,1,0,1.69,1.82A1.76,1.76,0,0,0,171.22,208.34Z"/><path class="cls-1" d="M171,214.1a1.82,1.82,0,1,0,1.7,1.82A1.76,1.76,0,0,0,171,214.1Z"/><ellipse class="cls-1" cx="171.03" cy="221.62" rx="1.69" ry="1.82"/><path class="cls-1" d="M171,226a1.82,1.82,0,1,0,1.7,1.81A1.76,1.76,0,0,0,171,226Z"/><ellipse class="cls-1" cx="171.03" cy="233.48" rx="1.69" ry="1.82"/><path class="cls-1" d="M177,201.37a1.82,1.82,0,1,0,1.69,1.81A1.75,1.75,0,0,0,177,201.37Z"/><ellipse class="cls-1" cx="177.04" cy="208.88" rx="1.69" ry="1.82"/><path class="cls-1" d="M176.85,212.82a1.82,1.82,0,1,0,1.69,1.82A1.76,1.76,0,0,0,176.85,212.82Z"/><path class="cls-1" d="M176.85,218.52a1.82,1.82,0,1,0,1.69,1.82A1.76,1.76,0,0,0,176.85,218.52Z"/><path class="cls-1" d="M176.85,224.68a1.82,1.82,0,1,0,1.69,1.82A1.76,1.76,0,0,0,176.85,224.68Z"/><path class="cls-1" d="M176.85,230.38a1.82,1.82,0,1,0,1.69,1.82A1.76,1.76,0,0,0,176.85,230.38Z"/><path class="cls-1" d="M182.59,199.81a1.82,1.82,0,1,0,1.69,1.81A1.76,1.76,0,0,0,182.59,199.81Z"/><path class="cls-1" d="M182.59,205.5a1.82,1.82,0,1,0,1.69,1.82A1.77,1.77,0,0,0,182.59,205.5Z"/><path class="cls-1" d="M182.4,211.26a1.82,1.82,0,1,0,1.69,1.82A1.75,1.75,0,0,0,182.4,211.26Z"/><path class="cls-1" d="M182.4,217a1.82,1.82,0,1,0,1.69,1.82A1.75,1.75,0,0,0,182.4,217Z"/><path class="cls-1" d="M182.4,223.12a1.82,1.82,0,1,0,1.69,1.82A1.76,1.76,0,0,0,182.4,223.12Z"/><path class="cls-1" d="M182.4,228.82a1.82,1.82,0,1,0,1.69,1.82A1.76,1.76,0,0,0,182.4,228.82Z"/><path class="cls-1" d="M188.09,198.72a1.82,1.82,0,1,0,1.69,1.81A1.75,1.75,0,0,0,188.09,198.72Z"/><path class="cls-1" d="M188.09,204.41a1.83,1.83,0,1,0,1.69,1.82A1.76,1.76,0,0,0,188.09,204.41Z"/><ellipse class="cls-1" cx="187.9" cy="211.99" rx="1.69" ry="1.82"/><ellipse class="cls-1" cx="187.9" cy="217.68" rx="1.69" ry="1.82"/><ellipse class="cls-1" cx="187.9" cy="223.85" rx="1.69" ry="1.82"/><path class="cls-1" d="M187.9,227.73a1.83,1.83,0,1,0,1.69,1.82A1.76,1.76,0,0,0,187.9,227.73Z"/><ellipse class="cls-1" cx="193.64" cy="199.33" rx="1.69" ry="1.82"/><ellipse class="cls-1" cx="193.64" cy="205.03" rx="1.69" ry="1.82"/><path class="cls-1" d="M193.45,209a1.83,1.83,0,1,0,1.69,1.82A1.76,1.76,0,0,0,193.45,209Z"/><path class="cls-1" d="M193.45,214.67a1.82,1.82,0,1,0,1.69,1.82A1.75,1.75,0,0,0,193.45,214.67Z"/><path class="cls-1" d="M193.45,220.84a1.82,1.82,0,1,0,1.69,1.81A1.75,1.75,0,0,0,193.45,220.84Z"/><ellipse class="cls-1" cx="193.45" cy="228.35" rx="1.69" ry="1.82"/><path class="cls-1" d="M199.11,196a1.82,1.82,0,1,0,1.7,1.82A1.76,1.76,0,0,0,199.11,196Z"/><path class="cls-1" d="M199.11,201.74a1.82,1.82,0,1,0,1.7,1.81A1.76,1.76,0,0,0,199.11,201.74Z"/><path class="cls-1" d="M198.93,207.49a1.82,1.82,0,1,0,1.69,1.82A1.77,1.77,0,0,0,198.93,207.49Z"/><path class="cls-1" d="M198.93,213.19a1.82,1.82,0,1,0,1.69,1.82A1.76,1.76,0,0,0,198.93,213.19Z"/><path class="cls-1" d="M198.93,219.36a1.82,1.82,0,1,0,1.69,1.81A1.76,1.76,0,0,0,198.93,219.36Z"/><path class="cls-1" d="M198.93,225.05a1.82,1.82,0,1,0,1.69,1.82A1.77,1.77,0,0,0,198.93,225.05Z"/><path class="cls-1" d="M204.54,195a1.82,1.82,0,1,0,1.7,1.82A1.76,1.76,0,0,0,204.54,195Z"/><path class="cls-1" d="M204.54,200.66a1.82,1.82,0,1,0,1.7,1.82A1.76,1.76,0,0,0,204.54,200.66Z"/><path class="cls-1" d="M204.35,206.41a1.82,1.82,0,1,0,1.7,1.82A1.76,1.76,0,0,0,204.35,206.41Z"/><path class="cls-1" d="M204.35,212.11a1.82,1.82,0,1,0,1.7,1.82A1.76,1.76,0,0,0,204.35,212.11Z"/><path class="cls-1" d="M204.35,218.28a1.82,1.82,0,1,0,1.7,1.82A1.76,1.76,0,0,0,204.35,218.28Z"/><path class="cls-1" d="M204.35,224a1.82,1.82,0,1,0,1.7,1.81A1.76,1.76,0,0,0,204.35,224Z"/><path class="cls-1" d="M210.09,193.4a1.82,1.82,0,1,0,1.69,1.82A1.76,1.76,0,0,0,210.09,193.4Z"/><path class="cls-1" d="M210.09,199.1a1.82,1.82,0,1,0,1.69,1.81A1.76,1.76,0,0,0,210.09,199.1Z"/><path class="cls-1" d="M209.9,204.85a1.83,1.83,0,1,0,1.69,1.82A1.76,1.76,0,0,0,209.9,204.85Z"/><path class="cls-1" d="M209.9,210.55a1.82,1.82,0,1,0,1.69,1.82A1.76,1.76,0,0,0,209.9,210.55Z"/><path class="cls-1" d="M209.9,216.72a1.82,1.82,0,1,0,1.69,1.81A1.76,1.76,0,0,0,209.9,216.72Z"/><path class="cls-1" d="M209.9,222.42a1.82,1.82,0,1,0,1.69,1.81A1.76,1.76,0,0,0,209.9,222.42Z"/><path class="cls-1" d="M215.59,192.31a1.82,1.82,0,1,0,1.69,1.82A1.76,1.76,0,0,0,215.59,192.31Z"/><path class="cls-1" d="M215.59,198a1.82,1.82,0,1,0,1.69,1.81A1.76,1.76,0,0,0,215.59,198Z"/><path class="cls-1" d="M215.4,203.76a1.82,1.82,0,1,0,1.7,1.82A1.76,1.76,0,0,0,215.4,203.76Z"/><path class="cls-1" d="M215.4,209.46a1.82,1.82,0,1,0,1.7,1.82A1.76,1.76,0,0,0,215.4,209.46Z"/><path class="cls-1" d="M215.4,215.63a1.82,1.82,0,1,0,1.7,1.81A1.76,1.76,0,0,0,215.4,215.63Z"/><path class="cls-1" d="M215.4,221.32a1.82,1.82,0,1,0,1.7,1.82A1.76,1.76,0,0,0,215.4,221.32Z"/><path class="cls-1" d="M221.14,191.11a1.82,1.82,0,1,0,1.69,1.82A1.75,1.75,0,0,0,221.14,191.11Z"/><path class="cls-1" d="M221.14,196.81a1.82,1.82,0,1,0,1.69,1.82A1.75,1.75,0,0,0,221.14,196.81Z"/><path class="cls-1" d="M221,202.57a1.82,1.82,0,1,0,1.69,1.81A1.76,1.76,0,0,0,221,202.57Z"/><path class="cls-1" d="M221,208.26a1.82,1.82,0,1,0,1.69,1.82A1.76,1.76,0,0,0,221,208.26Z"/><path class="cls-1" d="M221,214.43a1.82,1.82,0,1,0,1.69,1.82A1.76,1.76,0,0,0,221,214.43Z"/><path class="cls-1" d="M221,220.13a1.82,1.82,0,1,0,1.69,1.81A1.76,1.76,0,0,0,221,220.13Z"/><path class="cls-1" d="M226.62,189.63a1.82,1.82,0,1,0,1.69,1.82A1.77,1.77,0,0,0,226.62,189.63Z"/><path class="cls-1" d="M226.62,195.33a1.82,1.82,0,1,0,1.69,1.82A1.76,1.76,0,0,0,226.62,195.33Z"/><path class="cls-1" d="M226.43,201.09a1.82,1.82,0,1,0,1.69,1.81A1.75,1.75,0,0,0,226.43,201.09Z"/><path class="cls-1" d="M226.43,206.78a1.82,1.82,0,1,0,1.69,1.82A1.76,1.76,0,0,0,226.43,206.78Z"/><path class="cls-1" d="M226.43,213a1.82,1.82,0,1,0,1.69,1.82A1.75,1.75,0,0,0,226.43,213Z"/><path class="cls-1" d="M226.43,218.65a1.82,1.82,0,1,0,1.69,1.82A1.75,1.75,0,0,0,226.43,218.65Z"/><path class="cls-1" d="M233,187.9a1.82,1.82,0,1,0,1.69,1.82A1.77,1.77,0,0,0,233,187.9Z"/><path class="cls-1" d="M233,193.6a1.83,1.83,0,1,0,1.69,1.82A1.77,1.77,0,0,0,233,193.6Z"/><path class="cls-1" d="M232.78,199.36a1.82,1.82,0,1,0,1.69,1.81A1.75,1.75,0,0,0,232.78,199.36Z"/><path class="cls-1" d="M232.78,205.06a1.82,1.82,0,1,0,1.69,1.81A1.75,1.75,0,0,0,232.78,205.06Z"/><path class="cls-1" d="M232.78,211.22a1.83,1.83,0,1,0,1.69,1.82A1.75,1.75,0,0,0,232.78,211.22Z"/><path class="cls-1" d="M232.78,216.92a1.82,1.82,0,1,0,1.69,1.82A1.75,1.75,0,0,0,232.78,216.92Z"/><path class="cls-1" d="M238.51,186.34a1.82,1.82,0,1,0,1.7,1.82A1.76,1.76,0,0,0,238.51,186.34Z"/><path class="cls-1" d="M238.51,192a1.82,1.82,0,1,0,1.7,1.82A1.76,1.76,0,0,0,238.51,192Z"/><path class="cls-1" d="M238.33,197.8a1.82,1.82,0,1,0,1.69,1.81A1.76,1.76,0,0,0,238.33,197.8Z"/><path class="cls-1" d="M238.33,203.5a1.82,1.82,0,1,0,1.69,1.81A1.76,1.76,0,0,0,238.33,203.5Z"/><path class="cls-1" d="M238.33,209.66a1.82,1.82,0,1,0,1.69,1.82A1.76,1.76,0,0,0,238.33,209.66Z"/><path class="cls-1" d="M238.33,215.36a1.82,1.82,0,1,0,1.69,1.82A1.76,1.76,0,0,0,238.33,215.36Z"/><path class="cls-1" d="M244,185.25a1.82,1.82,0,1,0,1.69,1.82A1.77,1.77,0,0,0,244,185.25Z"/><path class="cls-1" d="M244,191a1.82,1.82,0,1,0,1.69,1.82A1.76,1.76,0,0,0,244,191Z"/><path class="cls-1" d="M243.83,196.71a1.82,1.82,0,1,0,1.69,1.81A1.76,1.76,0,0,0,243.83,196.71Z"/><path class="cls-1" d="M243.83,202.4a1.82,1.82,0,1,0,1.69,1.82A1.77,1.77,0,0,0,243.83,202.4Z"/><path class="cls-1" d="M243.83,208.57a1.82,1.82,0,1,0,1.69,1.82A1.76,1.76,0,0,0,243.83,208.57Z"/><path class="cls-1" d="M243.83,214.27a1.82,1.82,0,1,0,1.69,1.81A1.76,1.76,0,0,0,243.83,214.27Z"/><path class="cls-1" d="M249.56,184.05a1.82,1.82,0,1,0,1.7,1.82A1.76,1.76,0,0,0,249.56,184.05Z"/><path class="cls-1" d="M249.56,189.75a1.82,1.82,0,1,0,1.7,1.82A1.76,1.76,0,0,0,249.56,189.75Z"/><path class="cls-1" d="M249.37,195.51a1.82,1.82,0,1,0,1.7,1.82A1.76,1.76,0,0,0,249.37,195.51Z"/><path class="cls-1" d="M249.37,201.21a1.82,1.82,0,1,0,1.7,1.81A1.76,1.76,0,0,0,249.37,201.21Z"/><ellipse class="cls-1" cx="249.37" cy="209.19" rx="1.69" ry="1.82"/><path class="cls-1" d="M249.37,213.07a1.82,1.82,0,1,0,1.7,1.82A1.76,1.76,0,0,0,249.37,213.07Z"/><path class="cls-1" d="M255,182.58a1.82,1.82,0,1,0,1.69,1.81A1.76,1.76,0,0,0,255,182.58Z"/><path class="cls-1" d="M255,188.27a1.82,1.82,0,1,0,1.69,1.82A1.76,1.76,0,0,0,255,188.27Z"/><ellipse class="cls-1" cx="254.85" cy="195.85" rx="1.69" ry="1.82"/><ellipse class="cls-1" cx="254.85" cy="201.54" rx="1.69" ry="1.82"/><ellipse class="cls-1" cx="254.85" cy="207.71" rx="1.69" ry="1.82"/><ellipse class="cls-1" cx="254.85" cy="213.41" rx="1.69" ry="1.82"/><path class="cls-1" d="M260.47,181.5a1.82,1.82,0,1,0,1.69,1.81A1.75,1.75,0,0,0,260.47,181.5Z"/><path class="cls-1" d="M260.47,187.2a1.82,1.82,0,1,0,1.69,1.81A1.75,1.75,0,0,0,260.47,187.2Z"/><path class="cls-1" d="M260.28,193a1.82,1.82,0,1,0,1.69,1.82A1.76,1.76,0,0,0,260.28,193Z"/><path class="cls-1" d="M260.28,198.65a1.82,1.82,0,1,0,1.69,1.82A1.76,1.76,0,0,0,260.28,198.65Z"/><path class="cls-1" d="M260.28,204.81a1.82,1.82,0,1,0,1.69,1.82A1.76,1.76,0,0,0,260.28,204.81Z"/><path class="cls-1" d="M260.28,210.51a1.82,1.82,0,1,0,1.69,1.82A1.76,1.76,0,0,0,260.28,210.51Z"/><path class="cls-1" d="M266,179.94a1.82,1.82,0,1,0,1.69,1.81A1.76,1.76,0,0,0,266,179.94Z"/><path class="cls-1" d="M266,185.63a1.82,1.82,0,1,0,1.69,1.82A1.77,1.77,0,0,0,266,185.63Z"/><path class="cls-1" d="M265.83,191.39a1.82,1.82,0,1,0,1.69,1.82A1.75,1.75,0,0,0,265.83,191.39Z"/><path class="cls-1" d="M265.83,197.09a1.82,1.82,0,1,0,1.69,1.82A1.75,1.75,0,0,0,265.83,197.09Z"/><path class="cls-1" d="M265.83,203.25a1.82,1.82,0,1,0,1.69,1.82A1.76,1.76,0,0,0,265.83,203.25Z"/><path class="cls-1" d="M265.83,209a1.82,1.82,0,1,0,1.69,1.82A1.76,1.76,0,0,0,265.83,209Z"/><path class="cls-1" d="M271.52,178.85a1.82,1.82,0,1,0,1.69,1.81A1.75,1.75,0,0,0,271.52,178.85Z"/><path class="cls-1" d="M271.52,184.54a1.83,1.83,0,1,0,1.69,1.82A1.76,1.76,0,0,0,271.52,184.54Z"/><path class="cls-1" d="M271.33,190.3a1.82,1.82,0,1,0,1.69,1.82A1.76,1.76,0,0,0,271.33,190.3Z"/><path class="cls-1" d="M271.33,196a1.82,1.82,0,1,0,1.69,1.81A1.76,1.76,0,0,0,271.33,196Z"/><path class="cls-1" d="M271.33,202.16A1.83,1.83,0,1,0,273,204,1.76,1.76,0,0,0,271.33,202.16Z"/><path class="cls-1" d="M271.33,207.86a1.82,1.82,0,1,0,1.69,1.82A1.76,1.76,0,0,0,271.33,207.86Z"/><ellipse class="cls-1" cx="277.07" cy="179.46" rx="1.69" ry="1.82"/><ellipse class="cls-1" cx="277.07" cy="185.16" rx="1.69" ry="1.82"/><path class="cls-1" d="M276.88,189.1a1.83,1.83,0,1,0,1.69,1.82A1.76,1.76,0,0,0,276.88,189.1Z"/><path class="cls-1" d="M276.88,194.8a1.82,1.82,0,1,0,1.69,1.82A1.75,1.75,0,0,0,276.88,194.8Z"/><path class="cls-1" d="M276.88,201a1.82,1.82,0,1,0,1.69,1.81A1.75,1.75,0,0,0,276.88,201Z"/><path class="cls-1" d="M276.88,206.66a1.83,1.83,0,1,0,1.69,1.82A1.76,1.76,0,0,0,276.88,206.66Z"/><path class="cls-1" d="M282.54,176.17a1.82,1.82,0,1,0,1.7,1.82A1.76,1.76,0,0,0,282.54,176.17Z"/><path class="cls-1" d="M282.54,181.87a1.82,1.82,0,1,0,1.7,1.81A1.76,1.76,0,0,0,282.54,181.87Z"/><path class="cls-1" d="M282.36,187.62a1.82,1.82,0,1,0,1.69,1.82A1.77,1.77,0,0,0,282.36,187.62Z"/><path class="cls-1" d="M282.36,193.32a1.82,1.82,0,1,0,1.69,1.82A1.77,1.77,0,0,0,282.36,193.32Z"/><path class="cls-1" d="M282.36,199.49a1.82,1.82,0,1,0,1.69,1.81A1.76,1.76,0,0,0,282.36,199.49Z"/><path class="cls-1" d="M282.36,205.18a1.82,1.82,0,1,0,1.69,1.82A1.77,1.77,0,0,0,282.36,205.18Z"/><path class="cls-1" d="M288.36,174.89a1.82,1.82,0,1,0,1.69,1.82A1.76,1.76,0,0,0,288.36,174.89Z"/><path class="cls-1" d="M288.36,180.59a1.82,1.82,0,1,0,1.69,1.81A1.76,1.76,0,0,0,288.36,180.59Z"/><path class="cls-1" d="M288.17,186.34a1.82,1.82,0,1,0,1.7,1.82A1.76,1.76,0,0,0,288.17,186.34Z"/><path class="cls-1" d="M288.17,192a1.82,1.82,0,1,0,1.7,1.82A1.76,1.76,0,0,0,288.17,192Z"/><path class="cls-1" d="M288.17,198.21a1.82,1.82,0,1,0,1.7,1.81A1.76,1.76,0,0,0,288.17,198.21Z"/><path class="cls-1" d="M288.17,203.9a1.82,1.82,0,1,0,1.7,1.82A1.76,1.76,0,0,0,288.17,203.9Z"/><path class="cls-1" d="M293.91,173.33a1.82,1.82,0,1,0,1.69,1.81A1.75,1.75,0,0,0,293.91,173.33Z"/><path class="cls-1" d="M293.91,179a1.82,1.82,0,1,0,1.69,1.81A1.75,1.75,0,0,0,293.91,179Z"/><path class="cls-1" d="M293.72,184.78a1.82,1.82,0,1,0,1.69,1.82A1.76,1.76,0,0,0,293.72,184.78Z"/><path class="cls-1" d="M293.72,190.48a1.82,1.82,0,1,0,1.69,1.82A1.76,1.76,0,0,0,293.72,190.48Z"/><path class="cls-1" d="M293.72,196.65a1.82,1.82,0,1,0,1.69,1.81A1.76,1.76,0,0,0,293.72,196.65Z"/><ellipse class="cls-1" cx="293.72" cy="204.16" rx="1.69" ry="1.82"/><path class="cls-1" d="M299.41,175.87a1.82,1.82,0,1,0-1.69-1.82A1.75,1.75,0,0,0,299.41,175.87Z"/><path class="cls-1" d="M299.41,181.57a1.83,1.83,0,1,0-1.69-1.82A1.75,1.75,0,0,0,299.41,181.57Z"/><path class="cls-1" d="M299.22,187.33a1.83,1.83,0,1,0-1.69-1.82A1.77,1.77,0,0,0,299.22,187.33Z"/><path class="cls-1" d="M299.22,193a1.82,1.82,0,1,0-1.69-1.81A1.76,1.76,0,0,0,299.22,193Z"/><path class="cls-1" d="M299.22,199.19a1.83,1.83,0,1,0-1.69-1.82A1.76,1.76,0,0,0,299.22,199.19Z"/><path class="cls-1" d="M299.22,204.89a1.83,1.83,0,1,0-1.69-1.82A1.77,1.77,0,0,0,299.22,204.89Z"/><path class="cls-1" d="M305,171a1.82,1.82,0,1,0,1.69,1.82A1.75,1.75,0,0,0,305,171Z"/><path class="cls-1" d="M305,176.74a1.82,1.82,0,1,0,1.69,1.81A1.75,1.75,0,0,0,305,176.74Z"/><path class="cls-1" d="M304.77,182.49a1.82,1.82,0,1,0,1.69,1.82A1.76,1.76,0,0,0,304.77,182.49Z"/><path class="cls-1" d="M304.77,188.19a1.82,1.82,0,1,0,1.69,1.82A1.76,1.76,0,0,0,304.77,188.19Z"/><path class="cls-1" d="M304.77,194.36a1.82,1.82,0,1,0,1.69,1.81A1.76,1.76,0,0,0,304.77,194.36Z"/><path class="cls-1" d="M304.77,200.06a1.82,1.82,0,1,0,1.69,1.81A1.76,1.76,0,0,0,304.77,200.06Z"/><path class="cls-1" d="M310.44,169.56a1.82,1.82,0,1,0,1.69,1.82A1.76,1.76,0,0,0,310.44,169.56Z"/><path class="cls-1" d="M310.44,175.26a1.82,1.82,0,1,0,1.69,1.82A1.76,1.76,0,0,0,310.44,175.26Z"/><path class="cls-1" d="M310.25,181a1.82,1.82,0,1,0,1.69,1.81A1.75,1.75,0,0,0,310.25,181Z"/><path class="cls-1" d="M310.25,186.71a1.82,1.82,0,1,0,1.69,1.82A1.76,1.76,0,0,0,310.25,186.71Z"/><path class="cls-1" d="M310.25,192.88a1.82,1.82,0,1,0,1.69,1.82A1.75,1.75,0,0,0,310.25,192.88Z"/><path class="cls-1" d="M310.25,198.58a1.82,1.82,0,1,0,1.69,1.81A1.75,1.75,0,0,0,310.25,198.58Z"/><path class="cls-1" d="M315.87,168.48a1.83,1.83,0,1,0,1.69,1.82A1.77,1.77,0,0,0,315.87,168.48Z"/><path class="cls-1" d="M315.87,174.18a1.82,1.82,0,1,0,1.69,1.82A1.76,1.76,0,0,0,315.87,174.18Z"/><path class="cls-1" d="M315.68,179.94a1.82,1.82,0,1,0,1.69,1.81A1.76,1.76,0,0,0,315.68,179.94Z"/><path class="cls-1" d="M315.68,185.63a1.83,1.83,0,1,0,1.69,1.82A1.77,1.77,0,0,0,315.68,185.63Z"/><path class="cls-1" d="M315.68,191.8a1.82,1.82,0,1,0,1.69,1.82A1.76,1.76,0,0,0,315.68,191.8Z"/><path class="cls-1" d="M315.68,197.5a1.82,1.82,0,1,0,1.69,1.82A1.76,1.76,0,0,0,315.68,197.5Z"/><path class="cls-1" d="M321.41,166.92a1.82,1.82,0,1,0,1.7,1.82A1.76,1.76,0,0,0,321.41,166.92Z"/><path class="cls-1" d="M321.41,172.62a1.82,1.82,0,1,0,1.7,1.82A1.76,1.76,0,0,0,321.41,172.62Z"/><path class="cls-1" d="M321.23,178.38a1.82,1.82,0,1,0,1.69,1.81A1.76,1.76,0,0,0,321.23,178.38Z"/><path class="cls-1" d="M321.23,184.07a1.82,1.82,0,1,0,1.69,1.82A1.77,1.77,0,0,0,321.23,184.07Z"/><path class="cls-1" d="M321.23,190.24a1.82,1.82,0,1,0,1.69,1.82A1.76,1.76,0,0,0,321.23,190.24Z"/><path class="cls-1" d="M321.23,195.94a1.82,1.82,0,1,0,1.69,1.81A1.76,1.76,0,0,0,321.23,195.94Z"/><path class="cls-1" d="M326.91,165.83a1.82,1.82,0,1,0,1.7,1.82A1.76,1.76,0,0,0,326.91,165.83Z"/><path class="cls-1" d="M326.91,171.53a1.82,1.82,0,1,0,1.7,1.82A1.76,1.76,0,0,0,326.91,171.53Z"/><ellipse class="cls-1" cx="326.73" cy="179.1" rx="1.69" ry="1.82"/><ellipse class="cls-1" cx="326.73" cy="184.8" rx="1.69" ry="1.82"/><ellipse class="cls-1" cx="326.73" cy="190.97" rx="1.69" ry="1.82"/><ellipse class="cls-1" cx="326.73" cy="196.66" rx="1.69" ry="1.82"/><path class="cls-1" d="M332.46,164.63a1.82,1.82,0,1,0,1.7,1.82A1.76,1.76,0,0,0,332.46,164.63Z"/><path class="cls-1" d="M332.46,170.33a1.82,1.82,0,1,0,1.7,1.82A1.76,1.76,0,0,0,332.46,170.33Z"/><path class="cls-1" d="M332.27,176.09a1.82,1.82,0,1,0,1.7,1.81A1.76,1.76,0,0,0,332.27,176.09Z"/><path class="cls-1" d="M332.27,181.79a1.82,1.82,0,1,0,1.7,1.81A1.76,1.76,0,0,0,332.27,181.79Z"/><path class="cls-1" d="M332.27,188a1.82,1.82,0,1,0,1.7,1.82A1.76,1.76,0,0,0,332.27,188Z"/><path class="cls-1" d="M332.27,193.65a1.82,1.82,0,1,0,1.7,1.82A1.76,1.76,0,0,0,332.27,193.65Z"/><ellipse class="cls-1" cx="337.94" cy="164.97" rx="1.69" ry="1.82"/><ellipse class="cls-1" cx="337.94" cy="170.67" rx="1.69" ry="1.82"/><path class="cls-1" d="M337.75,174.61a1.82,1.82,0,1,0,1.69,1.82A1.76,1.76,0,0,0,337.75,174.61Z"/><path class="cls-1" d="M337.75,180.31a1.82,1.82,0,1,0,1.69,1.81A1.76,1.76,0,0,0,337.75,180.31Z"/><path class="cls-1" d="M337.75,186.47a1.83,1.83,0,1,0,1.69,1.82A1.76,1.76,0,0,0,337.75,186.47Z"/><path class="cls-1" d="M337.75,192.17a1.82,1.82,0,1,0,1.69,1.82A1.76,1.76,0,0,0,337.75,192.17Z"/><path class="cls-1" d="M343.85,161a1.83,1.83,0,1,0,1.69,1.82A1.77,1.77,0,0,0,343.85,161Z"/><ellipse class="cls-1" cx="343.85" cy="168.51" rx="1.69" ry="1.82"/><ellipse class="cls-1" cx="343.66" cy="174.26" rx="1.69" ry="1.82"/><ellipse class="cls-1" cx="343.66" cy="179.96" rx="1.69" ry="1.82"/><ellipse class="cls-1" cx="343.66" cy="186.13" rx="1.69" ry="1.82"/><path class="cls-1" d="M343.66,190a1.82,1.82,0,1,0,1.69,1.81A1.75,1.75,0,0,0,343.66,190Z"/><path class="cls-1" d="M349.39,159.43a1.82,1.82,0,1,0,1.7,1.82A1.76,1.76,0,0,0,349.39,159.43Z"/><path class="cls-1" d="M349.39,165.13a1.82,1.82,0,1,0,1.7,1.82A1.76,1.76,0,0,0,349.39,165.13Z"/><path class="cls-1" d="M349.21,170.89a1.82,1.82,0,1,0,1.69,1.81A1.76,1.76,0,0,0,349.21,170.89Z"/><path class="cls-1" d="M349.21,176.58a1.83,1.83,0,1,0,1.69,1.82A1.77,1.77,0,0,0,349.21,176.58Z"/><path class="cls-1" d="M349.21,182.75a1.82,1.82,0,1,0,1.69,1.82A1.76,1.76,0,0,0,349.21,182.75Z"/><path class="cls-1" d="M349.21,188.45a1.82,1.82,0,1,0,1.69,1.81A1.76,1.76,0,0,0,349.21,188.45Z"/><path class="cls-1" d="M354.9,158.34a1.82,1.82,0,1,0,1.69,1.82A1.76,1.76,0,0,0,354.9,158.34Z"/><path class="cls-1" d="M354.9,164a1.82,1.82,0,1,0,1.69,1.81A1.76,1.76,0,0,0,354.9,164Z"/><ellipse class="cls-1" cx="354.71" cy="171.61" rx="1.69" ry="1.82"/><ellipse class="cls-1" cx="354.71" cy="177.31" rx="1.69" ry="1.82"/><ellipse class="cls-1" cx="354.71" cy="183.47" rx="1.69" ry="1.82"/><path class="cls-1" d="M354.71,187.36a1.82,1.82,0,1,0,1.69,1.81A1.75,1.75,0,0,0,354.71,187.36Z"/><ellipse class="cls-1" cx="360.44" cy="158.96" rx="1.69" ry="1.82"/><ellipse class="cls-1" cx="360.44" cy="164.66" rx="1.69" ry="1.82"/><path class="cls-1" d="M360.26,168.6a1.82,1.82,0,1,0,1.69,1.81A1.76,1.76,0,0,0,360.26,168.6Z"/><path class="cls-1" d="M360.26,174.29a1.83,1.83,0,1,0,1.69,1.82A1.77,1.77,0,0,0,360.26,174.29Z"/><path class="cls-1" d="M360.26,180.46a1.82,1.82,0,1,0,1.69,1.82A1.76,1.76,0,0,0,360.26,180.46Z"/><path class="cls-1" d="M360.26,186.16A1.82,1.82,0,1,0,362,188,1.76,1.76,0,0,0,360.26,186.16Z"/><path class="cls-1" d="M365.92,155.66a1.83,1.83,0,1,0,1.69,1.82A1.76,1.76,0,0,0,365.92,155.66Z"/><path class="cls-1" d="M365.92,161.36a1.83,1.83,0,1,0,1.69,1.82A1.76,1.76,0,0,0,365.92,161.36Z"/><path class="cls-1" d="M365.73,167.12a1.82,1.82,0,1,0,1.7,1.82A1.76,1.76,0,0,0,365.73,167.12Z"/><path class="cls-1" d="M365.73,172.82a1.82,1.82,0,1,0,1.7,1.81A1.76,1.76,0,0,0,365.73,172.82Z"/><path class="cls-1" d="M365.73,179a1.82,1.82,0,1,0,1.7,1.82A1.76,1.76,0,0,0,365.73,179Z"/><path class="cls-1" d="M365.73,184.68a1.82,1.82,0,1,0,1.7,1.82A1.76,1.76,0,0,0,365.73,184.68Z"/><ellipse class="cls-1" cx="371.35" cy="156.4" rx="1.69" ry="1.82"/><path class="cls-1" d="M371.35,160.28A1.83,1.83,0,1,0,373,162.1,1.76,1.76,0,0,0,371.35,160.28Z"/><path class="cls-1" d="M371.16,166a1.82,1.82,0,1,0,1.7,1.82A1.76,1.76,0,0,0,371.16,166Z"/><path class="cls-1" d="M371.16,171.74a1.82,1.82,0,1,0,1.7,1.81A1.76,1.76,0,0,0,371.16,171.74Z"/><path class="cls-1" d="M371.16,177.9a1.82,1.82,0,1,0,1.7,1.82A1.76,1.76,0,0,0,371.16,177.9Z"/><path class="cls-1" d="M371.16,183.6a1.82,1.82,0,1,0,1.7,1.82A1.76,1.76,0,0,0,371.16,183.6Z"/><path class="cls-1" d="M376.9,153a1.83,1.83,0,1,0,1.69,1.82A1.76,1.76,0,0,0,376.9,153Z"/><path class="cls-1" d="M376.9,158.72a1.83,1.83,0,1,0,1.69,1.82A1.76,1.76,0,0,0,376.9,158.72Z"/><path class="cls-1" d="M376.71,164.48a1.82,1.82,0,1,0,1.69,1.82A1.76,1.76,0,0,0,376.71,164.48Z"/><path class="cls-1" d="M376.71,170.18A1.82,1.82,0,1,0,378.4,172,1.76,1.76,0,0,0,376.71,170.18Z"/><path class="cls-1" d="M376.71,176.34a1.83,1.83,0,1,0,1.69,1.82A1.76,1.76,0,0,0,376.71,176.34Z"/><path class="cls-1" d="M376.71,182a1.82,1.82,0,1,0,1.69,1.82A1.76,1.76,0,0,0,376.71,182Z"/><path class="cls-1" d="M382.4,151.93a1.83,1.83,0,1,0,1.69,1.82A1.76,1.76,0,0,0,382.4,151.93Z"/><path class="cls-1" d="M382.4,157.63a1.83,1.83,0,1,0,1.69,1.82A1.76,1.76,0,0,0,382.4,157.63Z"/><path class="cls-1" d="M382.21,163.39a1.82,1.82,0,1,0,1.69,1.81A1.76,1.76,0,0,0,382.21,163.39Z"/><path class="cls-1" d="M382.21,169.09a1.82,1.82,0,1,0,1.69,1.81A1.76,1.76,0,0,0,382.21,169.09Z"/><path class="cls-1" d="M382.21,175.25a1.83,1.83,0,1,0,1.69,1.82A1.76,1.76,0,0,0,382.21,175.25Z"/><path class="cls-1" d="M382.21,181a1.82,1.82,0,1,0,1.69,1.82A1.76,1.76,0,0,0,382.21,181Z"/><path class="cls-1" d="M388,150.74a1.82,1.82,0,1,0,1.69,1.81A1.75,1.75,0,0,0,388,150.74Z"/><path class="cls-1" d="M388,156.43a1.83,1.83,0,1,0,1.69,1.82A1.76,1.76,0,0,0,388,156.43Z"/><path class="cls-1" d="M387.76,162.19a1.82,1.82,0,1,0,1.69,1.82A1.75,1.75,0,0,0,387.76,162.19Z"/><path class="cls-1" d="M387.76,167.89a1.82,1.82,0,1,0,1.69,1.82A1.75,1.75,0,0,0,387.76,167.89Z"/><path class="cls-1" d="M387.76,174.05a1.83,1.83,0,1,0,1.69,1.82A1.76,1.76,0,0,0,387.76,174.05Z"/><path class="cls-1" d="M387.76,179.75a1.83,1.83,0,1,0,1.69,1.82A1.75,1.75,0,0,0,387.76,179.75Z"/><path class="cls-1" d="M393.43,149.26a1.82,1.82,0,1,0,1.69,1.81A1.76,1.76,0,0,0,393.43,149.26Z"/><path class="cls-1" d="M393.43,155a1.82,1.82,0,1,0,1.69,1.81A1.76,1.76,0,0,0,393.43,155Z"/><path class="cls-1" d="M393.24,160.71a1.83,1.83,0,1,0,1.69,1.82A1.76,1.76,0,0,0,393.24,160.71Z"/><path class="cls-1" d="M393.24,166.41a1.82,1.82,0,1,0,1.69,1.82A1.76,1.76,0,0,0,393.24,166.41Z"/><path class="cls-1" d="M393.24,172.57a1.82,1.82,0,1,0,1.69,1.82A1.77,1.77,0,0,0,393.24,172.57Z"/><path class="cls-1" d="M393.24,178.27a1.83,1.83,0,1,0,1.69,1.82A1.77,1.77,0,0,0,393.24,178.27Z"/><path class="cls-1" d="M399.24,148a1.82,1.82,0,1,0,1.7,1.81A1.76,1.76,0,0,0,399.24,148Z"/><path class="cls-1" d="M399.24,153.68a1.82,1.82,0,1,0,1.7,1.81A1.76,1.76,0,0,0,399.24,153.68Z"/><path class="cls-1" d="M399.05,159.43a1.82,1.82,0,1,0,1.7,1.82A1.76,1.76,0,0,0,399.05,159.43Z"/><path class="cls-1" d="M399.05,165.13a1.82,1.82,0,1,0,1.7,1.82A1.76,1.76,0,0,0,399.05,165.13Z"/><path class="cls-1" d="M399.05,171.29a1.82,1.82,0,1,0,1.7,1.82A1.76,1.76,0,0,0,399.05,171.29Z"/><path class="cls-1" d="M399.05,177a1.82,1.82,0,1,0,1.7,1.82A1.76,1.76,0,0,0,399.05,177Z"/><path class="cls-1" d="M404.79,146.42a1.82,1.82,0,1,0,1.69,1.81A1.76,1.76,0,0,0,404.79,146.42Z"/><path class="cls-1" d="M404.79,152.11a1.83,1.83,0,1,0,1.69,1.82A1.76,1.76,0,0,0,404.79,152.11Z"/><path class="cls-1" d="M404.6,157.87a1.82,1.82,0,1,0,1.7,1.82A1.76,1.76,0,0,0,404.6,157.87Z"/><path class="cls-1" d="M404.6,163.57a1.82,1.82,0,1,0,1.7,1.82A1.76,1.76,0,0,0,404.6,163.57Z"/><path class="cls-1" d="M404.6,169.73a1.82,1.82,0,1,0,1.7,1.82A1.76,1.76,0,0,0,404.6,169.73Z"/><path class="cls-1" d="M404.6,175.43a1.82,1.82,0,1,0,1.7,1.82A1.76,1.76,0,0,0,404.6,175.43Z"/><path class="cls-1" d="M410.29,145.33a1.82,1.82,0,1,0,1.69,1.81A1.76,1.76,0,0,0,410.29,145.33Z"/><path class="cls-1" d="M410.29,151a1.83,1.83,0,1,0,1.69,1.82A1.76,1.76,0,0,0,410.29,151Z"/><path class="cls-1" d="M410.1,156.78a1.82,1.82,0,1,0,1.7,1.82A1.76,1.76,0,0,0,410.1,156.78Z"/><ellipse class="cls-1" cx="410.1" cy="164.29" rx="1.69" ry="1.82"/><ellipse class="cls-1" cx="410.1" cy="170.46" rx="1.69" ry="1.82"/><path class="cls-1" d="M410.1,174.34a1.82,1.82,0,1,0,1.7,1.82A1.76,1.76,0,0,0,410.1,174.34Z"/><path class="cls-1" d="M415.84,144.13a1.82,1.82,0,1,0,1.69,1.81A1.76,1.76,0,0,0,415.84,144.13Z"/><path class="cls-1" d="M415.84,149.83a1.82,1.82,0,1,0,1.69,1.81A1.76,1.76,0,0,0,415.84,149.83Z"/><path class="cls-1" d="M415.65,155.58a1.83,1.83,0,1,0,1.69,1.82A1.76,1.76,0,0,0,415.65,155.58Z"/><path class="cls-1" d="M415.65,161.28a1.82,1.82,0,1,0,1.69,1.82A1.76,1.76,0,0,0,415.65,161.28Z"/><path class="cls-1" d="M415.65,167.45a1.82,1.82,0,1,0,1.69,1.81A1.76,1.76,0,0,0,415.65,167.45Z"/><path class="cls-1" d="M415.65,173.14a1.83,1.83,0,1,0,1.69,1.82A1.76,1.76,0,0,0,415.65,173.14Z"/><ellipse class="cls-1" cx="421.32" cy="144.47" rx="1.69" ry="1.82"/><ellipse class="cls-1" cx="421.32" cy="150.16" rx="1.69" ry="1.82"/><path class="cls-1" d="M421.13,157.74a1.82,1.82,0,1,0-1.69-1.82A1.76,1.76,0,0,0,421.13,157.74Z"/><path class="cls-1" d="M421.13,163.44a1.82,1.82,0,1,0-1.69-1.82A1.76,1.76,0,0,0,421.13,163.44Z"/><path class="cls-1" d="M421.13,169.6a1.82,1.82,0,1,0-1.69-1.82A1.76,1.76,0,0,0,421.13,169.6Z"/><path class="cls-1" d="M422.82,173.48a1.69,1.69,0,1,0-1.69,1.82A1.76,1.76,0,0,0,422.82,173.48Z"/><path class="cls-1" d="M426.75,141.57a1.82,1.82,0,1,0,1.69,1.82A1.76,1.76,0,0,0,426.75,141.57Z"/><path class="cls-1" d="M426.75,147.27a1.82,1.82,0,1,0,1.69,1.82A1.76,1.76,0,0,0,426.75,147.27Z"/><path class="cls-1" d="M426.56,153a1.82,1.82,0,1,0,1.69,1.81A1.75,1.75,0,0,0,426.56,153Z"/><path class="cls-1" d="M426.56,158.72a1.83,1.83,0,1,0,1.69,1.82A1.76,1.76,0,0,0,426.56,158.72Z"/><path class="cls-1" d="M426.56,164.89a1.82,1.82,0,1,0,1.69,1.82A1.75,1.75,0,0,0,426.56,164.89Z"/><path class="cls-1" d="M426.56,170.59a1.82,1.82,0,1,0,1.69,1.81A1.75,1.75,0,0,0,426.56,170.59Z"/><path class="cls-1" d="M432.29,143.64a1.82,1.82,0,1,0-1.69-1.81A1.76,1.76,0,0,0,432.29,143.64Z"/><path class="cls-1" d="M432.29,149.34a1.82,1.82,0,1,0-1.69-1.82A1.76,1.76,0,0,0,432.29,149.34Z"/><path class="cls-1" d="M432.11,155.1a1.82,1.82,0,1,0-1.7-1.82A1.76,1.76,0,0,0,432.11,155.1Z"/><path class="cls-1" d="M432.11,160.8a1.82,1.82,0,1,0-1.7-1.82A1.76,1.76,0,0,0,432.11,160.8Z"/><path class="cls-1" d="M432.11,167a1.82,1.82,0,1,0-1.7-1.82A1.76,1.76,0,0,0,432.11,167Z"/><path class="cls-1" d="M432.11,172.66a1.82,1.82,0,1,0-1.7-1.82A1.76,1.76,0,0,0,432.11,172.66Z"/><path class="cls-1" d="M437.8,138.92a1.82,1.82,0,1,0,1.69,1.82A1.76,1.76,0,0,0,437.8,138.92Z"/><path class="cls-1" d="M437.8,144.62a1.82,1.82,0,1,0,1.69,1.81A1.76,1.76,0,0,0,437.8,144.62Z"/><path class="cls-1" d="M437.61,150.37a1.83,1.83,0,1,0,1.69,1.82A1.76,1.76,0,0,0,437.61,150.37Z"/><path class="cls-1" d="M437.61,156.07a1.83,1.83,0,1,0,1.69,1.82A1.75,1.75,0,0,0,437.61,156.07Z"/><path class="cls-1" d="M437.61,162.24a1.82,1.82,0,1,0,1.69,1.81A1.75,1.75,0,0,0,437.61,162.24Z"/><path class="cls-1" d="M437.61,167.93a1.83,1.83,0,1,0,1.69,1.82A1.76,1.76,0,0,0,437.61,167.93Z"/><path class="cls-1" d="M443.34,141.35a1.82,1.82,0,1,0-1.69-1.81A1.76,1.76,0,0,0,443.34,141.35Z"/><path class="cls-1" d="M443.34,147.05a1.82,1.82,0,1,0-1.69-1.81A1.76,1.76,0,0,0,443.34,147.05Z"/><ellipse class="cls-1" cx="443.16" cy="150.99" rx="1.69" ry="1.82"/><ellipse class="cls-1" cx="443.16" cy="156.69" rx="1.69" ry="1.82"/><ellipse class="cls-1" cx="443.16" cy="162.86" rx="1.69" ry="1.82"/><ellipse class="cls-1" cx="443.16" cy="168.55" rx="1.69" ry="1.82"/><path class="cls-1" d="M448.82,136.24a1.83,1.83,0,1,0,1.69,1.82A1.76,1.76,0,0,0,448.82,136.24Z"/><path class="cls-1" d="M448.82,141.94a1.82,1.82,0,1,0,1.69,1.82A1.76,1.76,0,0,0,448.82,141.94Z"/><path class="cls-1" d="M448.63,147.7a1.82,1.82,0,1,0,1.7,1.81A1.76,1.76,0,0,0,448.63,147.7Z"/><path class="cls-1" d="M448.63,153.4a1.82,1.82,0,1,0,1.7,1.81A1.76,1.76,0,0,0,448.63,153.4Z"/><path class="cls-1" d="M448.63,159.56a1.82,1.82,0,1,0,1.7,1.82A1.76,1.76,0,0,0,448.63,159.56Z"/><path class="cls-1" d="M448.63,165.26a1.82,1.82,0,1,0,1.7,1.82A1.76,1.76,0,0,0,448.63,165.26Z"/><path class="cls-1" d="M299.23,211.08a3.85,3.85,0,1,0,3.44,3.82A3.64,3.64,0,0,0,299.23,211.08Z"/><path class="cls-1" d="M424,180a3.44,3.44,0,1,0,3.27,3.44A3.36,3.36,0,0,0,424,180Z"/><path class="cls-1" d="M433.76,177.53A3.44,3.44,0,1,0,437,181,3.36,3.36,0,0,0,433.76,177.53Z"/><path class="cls-1" d="M444.08,175.23a3.44,3.44,0,1,0,3.28,3.44A3.36,3.36,0,0,0,444.08,175.23Z"/><ellipse class="cls-1" cx="138.11" cy="255.88" rx="4.23" ry="4.2"/></g></svg>