<svg xmlns="http://www.w3.org/2000/svg" viewBox="0 0 480 320"><defs><style>.cls-1{fill:#000;}</style></defs><g id="svg8"><path class="cls-1" d="M465.34,132.15a3.85,3.85,0,0,0-.73-1.8l-.35-.48c-.06-.08-.14-.15-.2-.23s-.12-.15-.19-.22l-.61-.61a1.49,1.49,0,0,0-.14-.12l-.33-.27-.35-.23-.16-.1-2.58-1.34c-.1,0-.2-.08-.3-.12l-.29-.13L341.76,87.83h-.07A42.61,42.61,0,0,0,324,87h0L310.8,89.14l-8.23-1a2.29,2.29,0,0,0-.37,0l-.36,0h-.08l-1.12.07a3.51,3.51,0,0,0-.78.12l-1.16.3a4.93,4.93,0,0,0-.73.27l-1.08.53a3.75,3.75,0,0,0-.66.4l-1,.72a4.62,4.62,0,0,0-.57.52l-.8.9,0,0-2.39.4-8.12-1.06H283l-.31,0-1.05,0a3.83,3.83,0,0,0-.68.08l-1,.21a3.31,3.31,0,0,0-.68.2l-1,.39a3.23,3.23,0,0,0-.59.29l-.9.54a4.11,4.11,0,0,0-.54.39l-.8.68a4.7,4.7,0,0,0-.49.51l-.49.6L57.68,131.29,51,130c-.1,0-.2,0-.3,0l-.31-.05-1.27,0a4.1,4.1,0,0,0-.7,0l-1.25.17a4,4,0,0,0-.68.16l-1.2.38a4.06,4.06,0,0,0-.65.27l-1.12.59a4.45,4.45,0,0,0-.58.38l-1,.78a3.56,3.56,0,0,0-.49.46l-.86.93-.09.12-6,1L28,133.84l-.35,0c-.13,0-.24,0-.37,0l-1.47,0a3,3,0,0,0-.74.06l-1.45.25a3.55,3.55,0,0,0-.71.19l-1.37.51a4.37,4.37,0,0,0-.69.33l-1.25.76a3.84,3.84,0,0,0-.61.45l-1.09,1a3.57,3.57,0,0,0-.49.54l-.9,1.17a4.6,4.6,0,0,0-.4.64l-.65,1.3a4.59,4.59,0,0,0-.27.7L14.8,143a3.62,3.62,0,0,0-.14.73l-.14,1.46a4.82,4.82,0,0,0,0,.76l.15,1.46a4.23,4.23,0,0,0,.13.71l.27.94.73,19.81s0,0,0,.06a2.35,2.35,0,0,0,0,.37c0,.15,0,.29.07.43a.15.15,0,0,1,0,.07l.11.36a3.71,3.71,0,0,0,.24.66l.17.34a3.87,3.87,0,0,0,.43.7l.23.3a3.42,3.42,0,0,0,.44.49l.29.26a3.1,3.1,0,0,0,.61.47l.1.07c.11.09.23.17.35.25l.81.52a2.12,2.12,0,0,0,.36.21l14.21,7.23v0l.06.3a4.05,4.05,0,0,0,.23.75l.12.28a4,4,0,0,0,.25.51l.16.26a3.65,3.65,0,0,0,.5.67l.21.23a4.17,4.17,0,0,0,.43.41l.24.19a3.85,3.85,0,0,0,.6.39l.27.15a4,4,0,0,0,.42.2h0l2.83,1.11a4.44,4.44,0,0,0,.62.19l3,.65a3.63,3.63,0,0,0,.65.09l2.22.11,74,37.65,0,0,.1,0a3.91,3.91,0,0,0,.65.24h0l.06,0h0l1.2.31a4,4,0,0,0,1.74,4.12l.12.08a3.75,3.75,0,0,0,.44.24l1.41.68a2.85,2.85,0,0,0,.51.2l1.81.59.38.1,2.14.46.3.06,2.4.32.27,0,2.58.18h.24l2.67,0h.24l2.66-.13.24,0,2.56-.28.27,0,2.39-.43.28-.06,2.11-.54.4-.13,1.77-.65a3.22,3.22,0,0,0,.5-.23l1.38-.73.39-.24.21-.15a4,4,0,0,0,1.1-5.39l259.94-52.66c.12,0,.24.11.37.15l1.57.55.33.09,1.89.47a1.31,1.31,0,0,0,.27.06l2.13.38.24,0,2.31.26.21,0,2.39.14h.21l2.41,0h.2l2.33-.1.24,0,2.18-.23.28,0,1.94-.34.34-.07,1.66-.44a2.51,2.51,0,0,0,.46-.16l1.3-.52a3.89,3.89,0,0,0,.73-.38l.9-.6a4.28,4.28,0,0,0,1-.93l.48-.64a4.07,4.07,0,0,0,.72-1.6l.07-.35a4.91,4.91,0,0,0,.08-.67l0-1,10.5-2.12h.05l1.33-.29a4,4,0,0,0,.59-.17l1.27-.49a5,5,0,0,0,.57-.27l1.17-.68h0a4.28,4.28,0,0,0,.61-.44l0,0h0l.61-.52a4.07,4.07,0,0,0,.84-1l.58-1a4,4,0,0,0,.54-1.88l.85-23.79A3.73,3.73,0,0,0,465.34,132.15Zm-24.06,26.63-.07,0L338.46,179.61A37.61,37.61,0,0,0,354.22,164l0-.05,0-.06c0-.06,0-.12.07-.18a4.14,4.14,0,0,0,.19-.49,2.33,2.33,0,0,0,.08-.36c0-.1.05-.19.06-.29a7.8,7.8,0,0,1,1.22-3.38l101.36-19.56-.56,15.87-.18.1-.69.26-1,.22ZM141.39,219.54l-5.87.74-5.69-.35-5.46-1.38L50,180.69h0L23.89,167.42l-.14-.09-.57-15.55,96.86,47,.12,0,.13.07a40.26,40.26,0,0,0,14.06,2.32,34.49,34.49,0,0,0,8.36-.93h0L259.9,177.68a8.6,8.6,0,0,1,3.7,3.19l.06.09s0,.11.08.16l.16.22h0a23.79,23.79,0,0,0,17.38,9.85Zm170.37-64h0a46,46,0,0,1,7.51-.76,122.94,122.94,0,0,1,22.52,1.78c2,.63,3.94,1.17,5.71,1.6a17.5,17.5,0,0,0-.67,2.58c-4,7.3-11.78,12.79-16.52,13.2-.1,0-.19,0-.29.06h-.15l-44.71,8.93-.1,0-.11,0c-4.72,1.2-11.47-1.69-14.51-6.19a16.47,16.47,0,0,0-5.68-5.57,7.9,7.9,0,0,0-.13-1,8.84,8.84,0,0,0-1.62-3.4s0,0,0,0a3.61,3.61,0,0,1-.5-.89,3.27,3.27,0,0,1,.39-.35,12.25,12.25,0,0,1,4.35-1.66Zm27.55-60.08h0L451.76,132.5l-97.28,18.78a32.35,32.35,0,0,1-3.94-.65c-2-.43-4.16-1-6.57-1.79l-.18,0a2.66,2.66,0,0,0-.38-.1,131.59,131.59,0,0,0-24.35-1.93,54.78,54.78,0,0,0-8.77.9h0l-44.5,8.39h-.1l-.2,0a19.69,19.69,0,0,0-7.29,3,8.35,8.35,0,0,0-3.68,6.55,9,9,0,0,0,1.28,4.64L141.22,192.44l-.15,0-.15,0c-4.67,1.28-13,.8-17.56-1L26.82,144.66l.63-.23,30.84-5.13h.07l233.9-38.95h0l33-5.5.08,0h.09A34.53,34.53,0,0,1,339.31,95.45Z"/><path class="cls-1" d="M397.89,127.5a1.5,1.5,0,0,0,.48.3l.72.29.25.07,1,.21.17,0,1.21.11h1.56l1.23-.12.15,0,1.06-.21a.86.86,0,0,0,.23-.06l.78-.29a1.76,1.76,0,0,0,.42-.24l.42-.35a1.45,1.45,0,0,0,.55-1.07l0-.36a1.56,1.56,0,0,0-.49-1.2l-.38-.34a1.62,1.62,0,0,0-.45-.28l-.73-.29-.25-.07-1-.21-.16,0-1.21-.11h-1.56l-1.22.12-.16,0-1.05.21a1.41,1.41,0,0,0-.22.06l-.78.29a1.18,1.18,0,0,0-.42.24l-.43.34a1.5,1.5,0,0,0-.56,1l0,.36a1.48,1.48,0,0,0,.48,1.22Z"/><path class="cls-1" d="M385.5,137.69a1.82,1.82,0,0,0,.47.31l.74.3.25.08,1,.22.18,0,1.24.12H391l1.26-.12.16,0,1.09-.22.23-.07.8-.3a1.47,1.47,0,0,0,.42-.24l.44-.36a1.46,1.46,0,0,0,.54-1l0-.37a1.52,1.52,0,0,0-.46-1.23l-.38-.36a1.51,1.51,0,0,0-.45-.29l-.74-.31-.27-.08-1-.22-.17,0-1.23-.11h-1.57l-1.26.11-.17,0-1.08.22-.23.07-.8.3a1.5,1.5,0,0,0-.41.23l-.45.36a1.54,1.54,0,0,0-.56,1l0,.37a1.54,1.54,0,0,0,.45,1.24Z"/><path class="cls-1" d="M410.66,133a1.36,1.36,0,0,0,.47.29l.75.3a1,1,0,0,0,.25.07l1,.22.17,0,1.23.11h1.57l1.24-.11.16,0,1.06-.21.24-.07.78-.3A1.51,1.51,0,0,0,420,133l.42-.34a1.56,1.56,0,0,0,.54-1.1v-.36a1.47,1.47,0,0,0-.49-1.17l-.39-.36a1.36,1.36,0,0,0-.46-.28l-.76-.3-.24-.07-1-.21-.16,0-1.23-.12h-1.57l-1.24.12-.16,0-1.06.22-.22.06-.78.29a1.67,1.67,0,0,0-.43.25l-.42.35a1.52,1.52,0,0,0-.55,1.07l0,.37a1.54,1.54,0,0,0,.49,1.19Z"/><path class="cls-1" d="M347.36,136.75a1.82,1.82,0,0,0,.51.36l.71.3.27.08,1,.22.17,0,1.23.11h1.59l1.27-.11.15,0,1.1-.21.24-.07.82-.3a1.36,1.36,0,0,0,.37-.21l.48-.35a1.56,1.56,0,0,0,.58-.94l.06-.38a1.49,1.49,0,0,0-.39-1.29l-.34-.36a1.41,1.41,0,0,0-.51-.35L356,133a1.12,1.12,0,0,0-.26-.08l-1-.22-.17,0-1.22-.12h-1.59l-1.27.13-.14,0-1.1.21-.21.06-.83.3a1.79,1.79,0,0,0-.39.2l-.48.36a1.55,1.55,0,0,0-.58.91l-.07.37a1.51,1.51,0,0,0,.38,1.33Z"/><path class="cls-1" d="M372.9,132.08a1.75,1.75,0,0,0,.48.32l.72.29a.79.79,0,0,0,.26.08l1,.22.17,0,1.23.11h1.57l1.25-.11.15,0,1.08-.21.23-.07.8-.29a1.87,1.87,0,0,0,.39-.22l.45-.35a1.51,1.51,0,0,0,.57-1l.05-.36a1.54,1.54,0,0,0-.44-1.26l-.35-.34a1.43,1.43,0,0,0-.49-.32l-.73-.3-.26-.08-1-.21-.16,0-1.22-.12h-1.57l-1.25.12-.15,0-1.08.21-.22.07-.8.29a1.83,1.83,0,0,0-.39.21l-.45.35a1.46,1.46,0,0,0-.58,1l-.05.36a1.48,1.48,0,0,0,.43,1.28Z"/><path class="cls-1" d="M359.76,142.47a1.46,1.46,0,0,0,.5.35l.74.31a1.22,1.22,0,0,0,.27.09l1,.22.17,0,1.25.12h1.61l1.29-.12.16,0,1.1-.22.22-.07.83-.3a1.5,1.5,0,0,0,.41-.23l.46-.37a1.49,1.49,0,0,0,.56-.94l.06-.38a1.49,1.49,0,0,0-.41-1.29l-.36-.37a1.75,1.75,0,0,0-.48-.32l-.73-.31a1.43,1.43,0,0,0-.27-.09l-1-.22-.18,0-1.23-.11h-1.6l-1.28.11-.16,0-1.11.22-.22.07-.84.31a1.58,1.58,0,0,0-.38.21l-.47.36a1.5,1.5,0,0,0-.57.94l-.07.38a1.51,1.51,0,0,0,.39,1.28Z"/><path class="cls-1" d="M270.24,171.34l.06.17a3.71,3.71,0,0,0,.27.68l.09.18a4.5,4.5,0,0,0,.42.65l.06.07,3.38,4.67.14.14a2.56,2.56,0,0,0,.2.26l.34.36a4.91,4.91,0,0,0,.48.43l.39.3a4.12,4.12,0,0,0,.63.39l.44.22a5.09,5.09,0,0,0,.6.25l.48.14a4,4,0,0,0,.75.16l.49.06.44,0h.19l.5,0a2.36,2.36,0,0,0,.28,0,3,3,0,0,0,.31,0l1.05-.21.1,0a3.59,3.59,0,0,0,.92-.26l.18-.07a4.28,4.28,0,0,0,.6-.31l.16-.1a4.29,4.29,0,0,0,.48-.36l.14-.12a4.23,4.23,0,0,0,.61-.66l.11-.15a5,5,0,0,0,.35-.58l.08-.17a3.12,3.12,0,0,0,.26-.66l.06-.19a4.19,4.19,0,0,0,.15-.86v-.19a4.3,4.3,0,0,0,0-.62v-.19a4.5,4.5,0,0,0-.19-.9l-.06-.18a3.27,3.27,0,0,0-.22-.51l-.08-.17a3.83,3.83,0,0,0-.46-.72l-.06-.07L282,167.48a1.81,1.81,0,0,0-.18-.21c-.06-.07-.11-.15-.18-.22l-.34-.36a4.49,4.49,0,0,0-.46-.41l-.39-.29a3.52,3.52,0,0,0-.63-.4l-.45-.22a5.19,5.19,0,0,0-.59-.24l-.47-.15a3.93,3.93,0,0,0-.76-.15l-.49-.06a3.75,3.75,0,0,0-.67,0l-.5,0a1.87,1.87,0,0,0-.25,0,2,2,0,0,0-.25,0l-1.13.21h0l-.18,0a4.77,4.77,0,0,0-.51.13l-.18.06a4.35,4.35,0,0,0-.87.42l-.16.1a3.34,3.34,0,0,0-.48.36l-.14.12a3.14,3.14,0,0,0-.6.66l-.12.15a4.25,4.25,0,0,0-.35.58l-.08.16a4.12,4.12,0,0,0-.25.63l-.06.18a4,4,0,0,0-.16.91v.19a4.17,4.17,0,0,0,0,.5v.19A4.05,4.05,0,0,0,270.24,171.34Z"/><path class="cls-1" d="M310.29,163a4,4,0,0,0,.19.78l.06.18c.06.18.14.35.22.53l.09.16a3.47,3.47,0,0,0,.48.72l.05.07,3.39,4.55s.09.08.13.13a2,2,0,0,0,.18.23l.34.36a4.15,4.15,0,0,0,.49.44l.39.29a3.62,3.62,0,0,0,.66.4l.44.22a3.54,3.54,0,0,0,.57.22l.46.14a4.26,4.26,0,0,0,.69.15l.49.06a3.91,3.91,0,0,0,.49,0h.24l.49,0a2,2,0,0,0,.24,0l.28,0,1.1-.22h0l.17,0a4.74,4.74,0,0,0,.57-.15l.17-.06a4.24,4.24,0,0,0,.77-.38l.16-.1A4.27,4.27,0,0,0,325,171l.13-.13a5,5,0,0,0,.42-.5l.11-.15a4.48,4.48,0,0,0,.35-.6l.08-.16a3.63,3.63,0,0,0,.29-.84l0-.18a4.58,4.58,0,0,0,.1-.63v-.18a4,4,0,0,0,0-.77l0-.18a3.72,3.72,0,0,0-.19-.8l-.06-.18a3.47,3.47,0,0,0-.28-.63l-.08-.16a4.57,4.57,0,0,0-.41-.57,0,0,0,0,0,0,0l0,0s0,0,0-.06l0,0L322,159.7c0-.06-.1-.11-.15-.17s-.09-.13-.14-.18l-.34-.35a3.87,3.87,0,0,0-.52-.47l-.39-.29a4.6,4.6,0,0,0-.6-.37l-.43-.21a4.73,4.73,0,0,0-.62-.25l-.47-.14a4,4,0,0,0-.67-.14l-.48-.06a4,4,0,0,0-.69,0l-.49,0a2.51,2.51,0,0,0-.27,0,2.46,2.46,0,0,0-.28,0l-1.09.21h0l-.18,0a4.71,4.71,0,0,0-.64.19l-.17.06a4.28,4.28,0,0,0-.77.39l-.15.11a3.66,3.66,0,0,0-.5.38l-.14.13a3.85,3.85,0,0,0-.51.56l-.11.15a3.4,3.4,0,0,0-.42.71l-.08.16a4.4,4.4,0,0,0-.27.77l0,.18a4.77,4.77,0,0,0-.1.66V162a3.33,3.33,0,0,0,0,.77Z"/><polygon class="cls-1" points="312.84 172.75 305.35 159.72 284.39 163.59 291.89 176.62 312.84 172.75"/></g></svg>