<svg id="Artwork" xmlns="http://www.w3.org/2000/svg" viewBox="0 0 480 320"><defs><style>.cls-1{fill:#000;}</style></defs><path class="cls-1" d="M463,122h0a4.54,4.54,0,0,0-.16-.66l-.09-.19c-.06-.15-.13-.3-.2-.44l-.11-.18a3.19,3.19,0,0,0-.35-.47l-.06-.07a4.4,4.4,0,0,0-.5-.46l-.15-.1-.27-.19L333,45.8a11.26,11.26,0,0,0-7.45-1.33l-305.49,51h-.3a3.5,3.5,0,0,0-.55.17h-.09a3.39,3.39,0,0,0-.56.32.71.71,0,0,0-.14.1,4.11,4.11,0,0,0-.45.38l-.05,0a5.17,5.17,0,0,0-.42.51l-.09.14c-.09.16-.18.33-.26.5a.49.49,0,0,1,0,.11h0a4.5,4.5,0,0,0-.17.6v.17a3.18,3.18,0,0,0-.06.62v.06l.88,57.58a3.85,3.85,0,0,0,.72,2.19l82.37,115.4a4.87,4.87,0,0,0,.35.42l.09.08a3.23,3.23,0,0,0,.45.38l.07.06a4.48,4.48,0,0,0,.56.32l.15.06a3.35,3.35,0,0,0,.61.2h.11a4.62,4.62,0,0,0,.65.08h.15a3.82,3.82,0,0,0,.68-.07H105l352.15-86.84a3.85,3.85,0,0,0,2.9-3.57l3-62.68v-.09A3.82,3.82,0,0,0,463,122Zm-136.19-70a3.61,3.61,0,0,1,2.32.42l119.6,68.58L106.49,201.15,27.86,102Zm-302,58.5,76.31,96.21-.77,53.52L25.48,155.56Zm83.14,156.61.84-58.64,346.3-81-2.65,54.68Z"/><path class="cls-1" d="M125,212.15a1.76,1.76,0,1,0,1.64,1.88.49.49,0,0,0,0-.12,1.72,1.72,0,0,0-1.64-1.76Z"/><path class="cls-1" d="M125,217.67a1.76,1.76,0,1,0,1.64,1.87.49.49,0,0,0,0-.12,1.7,1.7,0,0,0-1.64-1.75Z"/><path class="cls-1" d="M124.81,223.23a1.76,1.76,0,1,0,1.64,1.88V225A1.7,1.7,0,0,0,124.81,223.23Z"/><path class="cls-1" d="M124.81,228.73a1.76,1.76,0,1,0,1.64,1.88v-.12a1.7,1.7,0,0,0-1.64-1.76Z"/><path class="cls-1" d="M124.81,234.7a1.76,1.76,0,1,0,1.64,1.87v-.11a1.69,1.69,0,0,0-1.64-1.76Z"/><path class="cls-1" d="M124.81,240.21a1.76,1.76,0,1,0,1.64,1.87V242A1.69,1.69,0,0,0,124.81,240.21Z"/><path class="cls-1" d="M130.36,210.65a1.76,1.76,0,1,0,1.63,1.88v-.12A1.69,1.69,0,0,0,130.36,210.65Z"/><path class="cls-1" d="M130.36,216.16A1.76,1.76,0,1,0,132,218v-.12A1.69,1.69,0,0,0,130.36,216.16Z"/><path class="cls-1" d="M130.18,221.73a1.76,1.76,0,1,0,1.62,1.88.62.62,0,0,0,0-.13A1.69,1.69,0,0,0,130.18,221.73Z"/><path class="cls-1" d="M130.18,227.26a1.77,1.77,0,1,0,1.62,1.89.61.61,0,0,0,0-.14A1.7,1.7,0,0,0,130.18,227.26Z"/><path class="cls-1" d="M130.18,233.19a1.76,1.76,0,1,0,1.62,1.88.49.49,0,0,0,0-.12A1.7,1.7,0,0,0,130.18,233.19Z"/><path class="cls-1" d="M130.18,238.7a1.76,1.76,0,1,0,1.62,1.88.57.57,0,0,0,0-.13A1.7,1.7,0,0,0,130.18,238.7Z"/><path class="cls-1" d="M135.68,213.1a1.76,1.76,0,1,0-1.63-1.88.62.62,0,0,0,0,.13,1.69,1.69,0,0,0,1.63,1.75Z"/><path class="cls-1" d="M135.68,218.61a1.76,1.76,0,1,0-1.63-1.88.49.49,0,0,0,0,.12,1.69,1.69,0,0,0,1.62,1.76Z"/><path class="cls-1" d="M135.49,224.18a1.76,1.76,0,1,0-1.63-1.88v.12A1.7,1.7,0,0,0,135.49,224.18Z"/><path class="cls-1" d="M135.49,229.69a1.77,1.77,0,0,0,.27-3.53,1.78,1.78,0,0,0-1.9,1.63v.14A1.7,1.7,0,0,0,135.49,229.69Z"/><path class="cls-1" d="M135.49,235.65a1.76,1.76,0,1,0-1.63-1.88v.12A1.71,1.71,0,0,0,135.49,235.65Z"/><path class="cls-1" d="M135.49,237.65a1.76,1.76,0,1,0,1.64,1.87s0-.08,0-.12A1.71,1.71,0,0,0,135.49,237.65Z"/><path class="cls-1" d="M141,212a1.76,1.76,0,1,0-1.63-1.88v.12A1.69,1.69,0,0,0,141,212Z"/><path class="cls-1" d="M141,217.45a1.76,1.76,0,1,0-1.63-1.88v.13A1.69,1.69,0,0,0,141,217.45Z"/><path class="cls-1" d="M140.86,223a1.76,1.76,0,1,0-1.63-1.88s0,.08,0,.12a1.7,1.7,0,0,0,1.63,1.76Z"/><path class="cls-1" d="M140.86,228.53a1.76,1.76,0,1,0-1.63-1.88s0,.08,0,.12A1.71,1.71,0,0,0,140.86,228.53Z"/><path class="cls-1" d="M140.86,234.49a1.76,1.76,0,1,0-1.63-1.88s0,.08,0,.13a1.7,1.7,0,0,0,1.64,1.75Z"/><path class="cls-1" d="M140.86,240a1.76,1.76,0,1,0-1.63-1.88s0,.08,0,.12a1.7,1.7,0,0,0,1.63,1.76Z"/><path class="cls-1" d="M146.34,207a1.76,1.76,0,1,0,1.63,1.88v-.12A1.71,1.71,0,0,0,146.34,207Z"/><ellipse class="cls-1" cx="146.34" cy="214.27" rx="1.63" ry="1.76"/><path class="cls-1" d="M146.16,218.08a1.76,1.76,0,1,0,1.62,1.88.57.57,0,0,0,0-.13,1.7,1.7,0,0,0-1.63-1.75Z"/><path class="cls-1" d="M146.16,223.59a1.76,1.76,0,1,0,1.62,1.88.57.57,0,0,0,0-.13,1.7,1.7,0,0,0-1.63-1.75Z"/><path class="cls-1" d="M146.16,229.55a1.76,1.76,0,1,0,1.62,1.88.49.49,0,0,0,0-.12,1.68,1.68,0,0,0-1.62-1.76Z"/><path class="cls-1" d="M146.16,235.06a1.76,1.76,0,1,0,1.62,1.88.49.49,0,0,0,0-.12,1.69,1.69,0,0,0-1.62-1.76Z"/><path class="cls-1" d="M151.59,206a1.76,1.76,0,1,0,1.63,1.88v-.13A1.69,1.69,0,0,0,151.59,206Z"/><path class="cls-1" d="M151.59,211.47a1.77,1.77,0,1,0-.27,3.53,1.78,1.78,0,0,0,1.9-1.63v-.14A1.7,1.7,0,0,0,151.59,211.47Z"/><path class="cls-1" d="M151.44,217a1.76,1.76,0,1,0,1.63,1.88.49.49,0,0,0,0-.12,1.69,1.69,0,0,0-1.62-1.76Z"/><path class="cls-1" d="M151.44,222.55a1.76,1.76,0,1,0,1.63,1.88.62.62,0,0,0,0-.13,1.69,1.69,0,0,0-1.63-1.75Z"/><path class="cls-1" d="M151.44,228.5a1.77,1.77,0,1,0-.27,3.53,1.76,1.76,0,0,0,1.9-1.63.66.66,0,0,0,0-.14A1.71,1.71,0,0,0,151.44,228.5Z"/><path class="cls-1" d="M151.44,234a1.76,1.76,0,1,0,1.63,1.88.49.49,0,0,0,0-.12,1.7,1.7,0,0,0-1.62-1.76Z"/><ellipse class="cls-1" cx="156.94" cy="206.21" rx="1.63" ry="1.76"/><ellipse class="cls-1" cx="156.94" cy="211.72" rx="1.63" ry="1.76"/><ellipse class="cls-1" cx="156.77" cy="217.29" rx="1.63" ry="1.76"/><path class="cls-1" d="M156.77,221a1.76,1.76,0,1,0,1.63,1.88v-.13A1.7,1.7,0,0,0,156.77,221Z"/><path class="cls-1" d="M156.77,227a1.77,1.77,0,1,0,1.63,1.9v-.14A1.72,1.72,0,0,0,156.77,227Z"/><path class="cls-1" d="M156.77,232.5a1.76,1.76,0,1,0,1.63,1.89v-.13A1.7,1.7,0,0,0,156.77,232.5Z"/><path class="cls-1" d="M162.27,203.4a1.76,1.76,0,1,0,1.63,1.88v-.12A1.7,1.7,0,0,0,162.27,203.4Z"/><path class="cls-1" d="M162.27,208.89a1.76,1.76,0,1,0,1.63,1.88v-.12A1.69,1.69,0,0,0,162.27,208.89Z"/><path class="cls-1" d="M162.08,214.47a1.76,1.76,0,1,0,1.63,1.89v-.14A1.7,1.7,0,0,0,162.08,214.47Z"/><path class="cls-1" d="M162.08,220a1.76,1.76,0,1,0,1.63,1.88v-.13A1.69,1.69,0,0,0,162.08,220Z"/><path class="cls-1" d="M162.08,225.94a1.76,1.76,0,1,0,1.63,1.88v-.12A1.7,1.7,0,0,0,162.08,225.94Z"/><path class="cls-1" d="M162.08,231.45a1.76,1.76,0,1,0,1.63,1.88v-.12A1.7,1.7,0,0,0,162.08,231.45Z"/><path class="cls-1" d="M167.63,202.25a1.76,1.76,0,1,0,1.64,1.87V204A1.7,1.7,0,0,0,167.63,202.25Z"/><path class="cls-1" d="M167.63,207.75a1.76,1.76,0,1,0,1.64,1.87v-.11a1.7,1.7,0,0,0-1.64-1.76Z"/><path class="cls-1" d="M167.45,213.31a1.76,1.76,0,1,0,1.63,1.89s0-.09,0-.13A1.71,1.71,0,0,0,167.45,213.31Z"/><path class="cls-1" d="M167.45,218.83a1.76,1.76,0,1,0,1.63,1.88s0-.08,0-.13A1.7,1.7,0,0,0,167.45,218.83Z"/><path class="cls-1" d="M167.45,224.78a1.76,1.76,0,1,0,1.63,1.88s0-.08,0-.12A1.72,1.72,0,0,0,167.45,224.78Z"/><path class="cls-1" d="M167.45,230.29a1.76,1.76,0,1,0,1.63,1.88s0-.08,0-.12A1.72,1.72,0,0,0,167.45,230.29Z"/><path class="cls-1" d="M172.92,200.81a1.76,1.76,0,1,0,1.63,1.89.66.66,0,0,0,0-.14A1.7,1.7,0,0,0,172.92,200.81Z"/><path class="cls-1" d="M172.92,206.32a1.76,1.76,0,1,0,1.63,1.88.49.49,0,0,0,0-.12A1.7,1.7,0,0,0,172.92,206.32Z"/><path class="cls-1" d="M172.71,211.88a1.76,1.76,0,1,0,1.64,1.88v-.12a1.7,1.7,0,0,0-1.64-1.76Z"/><ellipse class="cls-1" cx="172.74" cy="219.15" rx="1.63" ry="1.76"/><path class="cls-1" d="M172.71,223.39a1.76,1.76,0,1,0,1.64,1.87.48.48,0,0,0,0-.12A1.69,1.69,0,0,0,172.71,223.39Z"/><ellipse class="cls-1" cx="172.74" cy="230.62" rx="1.63" ry="1.76"/><path class="cls-1" d="M178.51,199.58a1.76,1.76,0,1,0,1.63,1.88c0-.05,0-.09,0-.13a1.69,1.69,0,0,0-1.64-1.75Z"/><ellipse class="cls-1" cx="178.55" cy="206.84" rx="1.63" ry="1.76"/><path class="cls-1" d="M178.37,210.65a1.76,1.76,0,1,0,1.63,1.88v-.12A1.7,1.7,0,0,0,178.37,210.65Z"/><path class="cls-1" d="M178.37,216.16A1.76,1.76,0,1,0,180,218v-.12A1.7,1.7,0,0,0,178.37,216.16Z"/><path class="cls-1" d="M178.37,222.11A1.76,1.76,0,1,0,180,224v-.12A1.71,1.71,0,0,0,178.37,222.11Z"/><path class="cls-1" d="M178.37,227.62A1.76,1.76,0,1,0,180,229.5v-.12A1.71,1.71,0,0,0,178.37,227.62Z"/><path class="cls-1" d="M183.92,198.07a1.76,1.76,0,1,0,1.63,1.88v-.13A1.7,1.7,0,0,0,183.92,198.07Z"/><path class="cls-1" d="M183.92,203.57a1.76,1.76,0,1,0,1.63,1.88v-.12A1.71,1.71,0,0,0,183.92,203.57Z"/><path class="cls-1" d="M183.73,209.14a1.76,1.76,0,1,0,1.63,1.88s0-.08,0-.12a1.7,1.7,0,0,0-1.63-1.76Z"/><path class="cls-1" d="M183.73,214.69a1.76,1.76,0,1,0,1.63,1.88s0-.08,0-.12a1.7,1.7,0,0,0-1.63-1.76Z"/><path class="cls-1" d="M183.73,220.6a1.76,1.76,0,1,0,1.63,1.88s0-.08,0-.12A1.71,1.71,0,0,0,183.73,220.6Z"/><path class="cls-1" d="M183.73,226.11a1.76,1.76,0,1,0,1.63,1.89c0-.05,0-.09,0-.13A1.71,1.71,0,0,0,183.73,226.11Z"/><path class="cls-1" d="M189.23,197a1.76,1.76,0,1,0,1.63,1.88.62.62,0,0,0,0-.13,1.69,1.69,0,0,0-1.63-1.75Z"/><path class="cls-1" d="M189.23,202.52a1.77,1.77,0,1,0,1.63,1.9.71.71,0,0,0,0-.14A1.7,1.7,0,0,0,189.23,202.52Z"/><ellipse class="cls-1" cx="189.05" cy="209.84" rx="1.63" ry="1.76"/><ellipse class="cls-1" cx="189.05" cy="215.34" rx="1.63" ry="1.76"/><ellipse class="cls-1" cx="189.05" cy="221.31" rx="1.63" ry="1.76"/><path class="cls-1" d="M189.05,225.06a1.77,1.77,0,1,0,1.63,1.9v-.14A1.69,1.69,0,0,0,189.05,225.06Z"/><ellipse class="cls-1" cx="194.6" cy="197.61" rx="1.63" ry="1.76"/><ellipse class="cls-1" cx="194.6" cy="203.12" rx="1.63" ry="1.76"/><path class="cls-1" d="M194.41,207a1.77,1.77,0,1,0,1.63,1.9.61.61,0,0,0,0-.14A1.71,1.71,0,0,0,194.41,207Z"/><path class="cls-1" d="M194.41,212.44a1.76,1.76,0,1,0,1.63,1.88.57.57,0,0,0,0-.13,1.68,1.68,0,0,0-1.62-1.75Z"/><path class="cls-1" d="M194.41,218.4a1.76,1.76,0,1,0,1.63,1.88.57.57,0,0,0,0-.13,1.7,1.7,0,0,0-1.63-1.75Z"/><ellipse class="cls-1" cx="194.41" cy="225.66" rx="1.63" ry="1.76"/><path class="cls-1" d="M199.89,194.39a1.76,1.76,0,1,0,1.64,1.87v-.11a1.7,1.7,0,0,0-1.64-1.76Z"/><path class="cls-1" d="M199.89,199.94a1.76,1.76,0,1,0,1.64,1.87v-.13A1.69,1.69,0,0,0,199.89,199.94Z"/><path class="cls-1" d="M199.71,205.49a1.76,1.76,0,1,0,1.63,1.88s0-.08,0-.12A1.73,1.73,0,0,0,199.71,205.49Z"/><path class="cls-1" d="M199.71,211a1.76,1.76,0,1,0,1.63,1.88s0-.08,0-.12A1.71,1.71,0,0,0,199.71,211Z"/><path class="cls-1" d="M199.71,217a1.76,1.76,0,1,0,1.63,1.88s0-.09,0-.13A1.72,1.72,0,0,0,199.71,217Z"/><path class="cls-1" d="M199.71,222.47a1.76,1.76,0,1,0,1.63,1.88s0-.08,0-.12A1.71,1.71,0,0,0,199.71,222.47Z"/><path class="cls-1" d="M205.14,193.42a1.76,1.76,0,1,0,1.64,1.87v-.11a1.7,1.7,0,0,0-1.64-1.76Z"/><path class="cls-1" d="M205.14,198.89a1.76,1.76,0,1,0,1.64,1.87v-.11a1.7,1.7,0,0,0-1.64-1.76Z"/><path class="cls-1" d="M205,204.45a1.76,1.76,0,1,0,1.64,1.87s0-.07,0-.11a1.71,1.71,0,0,0-1.65-1.76Z"/><path class="cls-1" d="M205,210a1.76,1.76,0,1,0,1.64,1.87s0-.07,0-.11A1.71,1.71,0,0,0,205,210Z"/><path class="cls-1" d="M205,215.92a1.76,1.76,0,1,0,1.64,1.88s0-.08,0-.12a1.71,1.71,0,0,0-1.65-1.75Z"/><path class="cls-1" d="M205,221.45a1.76,1.76,0,1,0,1.64,1.88s0-.08,0-.13A1.72,1.72,0,0,0,205,221.45Z"/><path class="cls-1" d="M210.5,191.87a1.76,1.76,0,1,0,1.63,1.88v-.12A1.7,1.7,0,0,0,210.5,191.87Z"/><path class="cls-1" d="M210.5,197.38a1.76,1.76,0,1,0,1.63,1.88.56.56,0,0,0,0-.13A1.7,1.7,0,0,0,210.5,197.38Z"/><path class="cls-1" d="M210.32,202.94a1.77,1.77,0,1,0,1.63,1.9v-.14A1.7,1.7,0,0,0,210.32,202.94Z"/><path class="cls-1" d="M210.32,208.45a1.76,1.76,0,1,0,1.63,1.88v-.12A1.71,1.71,0,0,0,210.32,208.45Z"/><path class="cls-1" d="M210.32,214.42A1.76,1.76,0,1,0,212,216.3v-.13A1.69,1.69,0,0,0,210.32,214.42Z"/><path class="cls-1" d="M210.32,219.93a1.76,1.76,0,1,0,1.63,1.88v-.13A1.69,1.69,0,0,0,210.32,219.93Z"/><path class="cls-1" d="M215.82,190.82a1.76,1.76,0,1,0,1.63,1.88v-.12A1.7,1.7,0,0,0,215.82,190.82Z"/><path class="cls-1" d="M215.82,196.32a1.76,1.76,0,1,0,1.63,1.88v-.13A1.7,1.7,0,0,0,215.82,196.32Z"/><path class="cls-1" d="M215.63,201.89a1.76,1.76,0,1,0,1.64,1.87.45.45,0,0,0,0-.11,1.7,1.7,0,0,0-1.64-1.76Z"/><path class="cls-1" d="M215.63,207.4a1.76,1.76,0,1,0,1.64,1.87.41.41,0,0,0,0-.11,1.7,1.7,0,0,0-1.64-1.76Z"/><path class="cls-1" d="M215.63,213.36a1.76,1.76,0,1,0,1.64,1.87.49.49,0,0,0,0-.12A1.71,1.71,0,0,0,215.63,213.36Z"/><path class="cls-1" d="M215.63,218.86a1.76,1.76,0,1,0,1.64,1.88.49.49,0,0,0,0-.12,1.71,1.71,0,0,0-1.64-1.76Z"/><path class="cls-1" d="M221.18,189.66a1.76,1.76,0,1,0,1.63,1.88.49.49,0,0,0,0-.12,1.69,1.69,0,0,0-1.62-1.76Z"/><path class="cls-1" d="M221.18,195.17a1.76,1.76,0,1,0,1.63,1.88.49.49,0,0,0,0-.12,1.7,1.7,0,0,0-1.62-1.76Z"/><path class="cls-1" d="M221.05,200.74a1.76,1.76,0,1,0,1.63,1.88v-.13A1.69,1.69,0,0,0,221.05,200.74Z"/><path class="cls-1" d="M221.05,206.24a1.76,1.76,0,1,0,1.63,1.88V208A1.7,1.7,0,0,0,221.05,206.24Z"/><path class="cls-1" d="M221.05,212.2a1.76,1.76,0,1,0,1.63,1.88V214A1.71,1.71,0,0,0,221.05,212.2Z"/><path class="cls-1" d="M221.05,217.71a1.76,1.76,0,1,0,1.63,1.88v-.13A1.7,1.7,0,0,0,221.05,217.71Z"/><path class="cls-1" d="M226.48,188.23a1.76,1.76,0,1,0,1.63,1.88.49.49,0,0,1,0-.12A1.71,1.71,0,0,0,226.48,188.23Z"/><path class="cls-1" d="M226.48,193.74a1.76,1.76,0,1,0,1.63,1.88.49.49,0,0,1,0-.12A1.71,1.71,0,0,0,226.48,193.74Z"/><path class="cls-1" d="M226.3,199.31a1.76,1.76,0,1,0,1.63,1.88v-.13a1.69,1.69,0,0,0-1.63-1.75Z"/><path class="cls-1" d="M226.3,204.81a1.76,1.76,0,1,0,1.63,1.88v-.12A1.7,1.7,0,0,0,226.3,204.81Z"/><path class="cls-1" d="M226.3,210.82a1.76,1.76,0,1,0,1.63,1.88v-.12a1.7,1.7,0,0,0-1.62-1.76Z"/><path class="cls-1" d="M226.3,216.28a1.76,1.76,0,1,0,1.63,1.88V218a1.7,1.7,0,0,0-1.62-1.76Z"/><path class="cls-1" d="M232.65,186.56a1.76,1.76,0,1,0,1.63,1.88v-.12A1.7,1.7,0,0,0,232.65,186.56Z"/><path class="cls-1" d="M232.65,192.07a1.77,1.77,0,1,0,1.63,1.9v-.14A1.7,1.7,0,0,0,232.65,192.07Z"/><path class="cls-1" d="M232.44,197.63a1.76,1.76,0,1,0,1.63,1.89v-.14a1.7,1.7,0,0,0-1.63-1.75Z"/><path class="cls-1" d="M232.44,203.14a1.76,1.76,0,1,0,1.63,1.89v-.14a1.7,1.7,0,0,0-1.63-1.75Z"/><path class="cls-1" d="M232.44,209.1a1.77,1.77,0,1,0,1.62,1.9.66.66,0,0,0,0-.14,1.7,1.7,0,0,0-1.62-1.76Z"/><path class="cls-1" d="M232.44,214.61a1.76,1.76,0,1,0,1.63,1.88v-.12a1.7,1.7,0,0,0-1.62-1.76Z"/><path class="cls-1" d="M238,185.05a1.76,1.76,0,1,0,1.64,1.87v-.11a1.7,1.7,0,0,0-1.64-1.76Z"/><path class="cls-1" d="M238,190.52a1.76,1.76,0,1,0,1.64,1.87v-.11a1.7,1.7,0,0,0-1.64-1.76Z"/><path class="cls-1" d="M237.8,196.13a1.76,1.76,0,1,0,1.63,1.88s0-.09,0-.13A1.7,1.7,0,0,0,237.8,196.13Z"/><path class="cls-1" d="M237.8,201.64a1.76,1.76,0,1,0,1.63,1.88c0-.05,0-.09,0-.13A1.7,1.7,0,0,0,237.8,201.64Z"/><path class="cls-1" d="M237.8,207.59a1.76,1.76,0,1,0,1.63,1.88s0-.08,0-.12A1.71,1.71,0,0,0,237.8,207.59Z"/><path class="cls-1" d="M237.8,213.1a1.76,1.76,0,1,0,1.63,1.88s0-.08,0-.12A1.71,1.71,0,0,0,237.8,213.1Z"/><path class="cls-1" d="M243.28,184a1.76,1.76,0,1,0,1.63,1.88.49.49,0,0,0,0-.12A1.73,1.73,0,0,0,243.28,184Z"/><path class="cls-1" d="M243.28,189.55a1.76,1.76,0,1,0,1.63,1.88.49.49,0,0,0,0-.12A1.71,1.71,0,0,0,243.28,189.55Z"/><path class="cls-1" d="M243.12,195.07a1.76,1.76,0,1,0,1.63,1.88v-.13A1.7,1.7,0,0,0,243.12,195.07Z"/><path class="cls-1" d="M243.12,200.57a1.76,1.76,0,1,0,1.63,1.88v-.12A1.72,1.72,0,0,0,243.12,200.57Z"/><path class="cls-1" d="M243.12,206.54a1.76,1.76,0,1,0,1.63,1.88v-.12A1.69,1.69,0,0,0,243.12,206.54Z"/><path class="cls-1" d="M243.12,212.05a1.76,1.76,0,1,0,1.63,1.88v-.13A1.7,1.7,0,0,0,243.12,212.05Z"/><path class="cls-1" d="M248.66,182.83a1.76,1.76,0,1,0,1.64,1.88v-.12a1.71,1.71,0,0,0-1.64-1.76Z"/><path class="cls-1" d="M248.66,188.34a1.76,1.76,0,1,0,1.64,1.88v-.12a1.71,1.71,0,0,0-1.64-1.76Z"/><path class="cls-1" d="M248.47,193.91a1.76,1.76,0,1,0,1.64,1.87.37.37,0,0,0,0-.11,1.71,1.71,0,0,0-1.64-1.76Z"/><path class="cls-1" d="M248.47,199.42a1.76,1.76,0,1,0,1.64,1.87.49.49,0,0,0,0-.12A1.71,1.71,0,0,0,248.47,199.42Z"/><ellipse class="cls-1" cx="248.47" cy="207.14" rx="1.63" ry="1.76"/><path class="cls-1" d="M248.47,210.89a1.76,1.76,0,1,0,1.64,1.87.41.41,0,0,0,0-.11,1.7,1.7,0,0,0-1.64-1.76Z"/><path class="cls-1" d="M253.92,181.41a1.76,1.76,0,1,0,1.63,1.88v-.13A1.7,1.7,0,0,0,253.92,181.41Z"/><path class="cls-1" d="M253.92,186.91a1.76,1.76,0,1,0,1.63,1.88v-.12A1.71,1.71,0,0,0,253.92,186.91Z"/><ellipse class="cls-1" cx="253.77" cy="194.24" rx="1.63" ry="1.76"/><ellipse class="cls-1" cx="253.77" cy="199.74" rx="1.63" ry="1.76"/><ellipse class="cls-1" cx="253.77" cy="205.71" rx="1.63" ry="1.76"/><ellipse class="cls-1" cx="253.77" cy="211.22" rx="1.63" ry="1.76"/><path class="cls-1" d="M259.21,180.37a1.76,1.76,0,1,0,1.62,1.88.57.57,0,0,0,0-.13,1.69,1.69,0,0,0-1.63-1.75Z"/><path class="cls-1" d="M259.21,185.88a1.76,1.76,0,1,0,1.62,1.88.57.57,0,0,0,0-.13,1.69,1.69,0,0,0-1.63-1.75Z"/><path class="cls-1" d="M259,191.49a1.76,1.76,0,1,0,1.63,1.88s0-.08,0-.12A1.7,1.7,0,0,0,259,191.49Z"/><path class="cls-1" d="M259,197a1.76,1.76,0,1,0,1.63,1.88s0-.08,0-.12A1.7,1.7,0,0,0,259,197Z"/><path class="cls-1" d="M259,202.9a1.76,1.76,0,1,0,1.63,1.88s0-.08,0-.12A1.71,1.71,0,0,0,259,202.9Z"/><path class="cls-1" d="M259,208.41a1.76,1.76,0,1,0,1.63,1.88s0-.08,0-.12A1.71,1.71,0,0,0,259,208.41Z"/><path class="cls-1" d="M264.55,178.86a1.76,1.76,0,1,0,1.63,1.88s0-.09,0-.13A1.72,1.72,0,0,0,264.55,178.86Z"/><path class="cls-1" d="M264.55,184.36a1.76,1.76,0,1,0,1.63,1.88.49.49,0,0,1,0-.12A1.73,1.73,0,0,0,264.55,184.36Z"/><path class="cls-1" d="M264.39,189.93a1.76,1.76,0,1,0,1.63,1.88v-.12a1.7,1.7,0,0,0-1.62-1.76Z"/><path class="cls-1" d="M264.39,195.44a1.76,1.76,0,1,0,1.63,1.88v-.12a1.7,1.7,0,0,0-1.62-1.76Z"/><path class="cls-1" d="M264.39,201.39a1.77,1.77,0,0,0-1.88,1.63,1.76,1.76,0,0,0,3.51.26v-.13A1.71,1.71,0,0,0,264.39,201.39Z"/><path class="cls-1" d="M264.39,207a1.76,1.76,0,1,0,1.63,1.88v-.12A1.71,1.71,0,0,0,264.39,207Z"/><path class="cls-1" d="M269.89,177.81a1.76,1.76,0,1,0,1.63,1.88v-.13a1.69,1.69,0,0,0-1.63-1.75Z"/><path class="cls-1" d="M269.89,183.31a1.77,1.77,0,1,0-.27,3.53,1.78,1.78,0,0,0,1.9-1.63v-.14A1.7,1.7,0,0,0,269.89,183.31Z"/><path class="cls-1" d="M269.7,188.88a1.76,1.76,0,1,0,1.63,1.88.49.49,0,0,0,0-.12A1.7,1.7,0,0,0,269.7,188.88Z"/><path class="cls-1" d="M269.7,194.39a1.76,1.76,0,1,0,1.63,1.88.62.62,0,0,0,0-.13A1.7,1.7,0,0,0,269.7,194.39Z"/><path class="cls-1" d="M269.7,200.34a1.77,1.77,0,1,0,1.61,1.92.66.66,0,0,0,0-.14A1.71,1.71,0,0,0,269.7,200.34Z"/><path class="cls-1" d="M269.7,205.85a1.76,1.76,0,1,0,1.63,1.88.49.49,0,0,0,0-.12A1.71,1.71,0,0,0,269.7,205.85Z"/><ellipse class="cls-1" cx="275.25" cy="178.4" rx="1.63" ry="1.76"/><ellipse class="cls-1" cx="275.25" cy="183.91" rx="1.63" ry="1.76"/><path class="cls-1" d="M275.07,187.72a1.77,1.77,0,1,0,1.63,1.89v-.13A1.69,1.69,0,0,0,275.07,187.72Z"/><path class="cls-1" d="M275.07,193.23a1.76,1.76,0,1,0,1.63,1.88V195a1.68,1.68,0,0,0-1.62-1.76Z"/><path class="cls-1" d="M275.07,199.22a1.76,1.76,0,1,0,1.63,1.88V201a1.68,1.68,0,0,0-1.63-1.75Z"/><path class="cls-1" d="M275.07,204.69a1.77,1.77,0,1,0,1.63,1.9v-.14A1.69,1.69,0,0,0,275.07,204.69Z"/><path class="cls-1" d="M280.54,175.22a1.76,1.76,0,1,0,1.64,1.87V177a1.69,1.69,0,0,0-1.64-1.76Z"/><path class="cls-1" d="M280.54,180.73a1.76,1.76,0,1,0,1.64,1.87v-.12A1.69,1.69,0,0,0,280.54,180.73Z"/><path class="cls-1" d="M280.37,186.28a1.76,1.76,0,1,0,1.63,1.89V188A1.72,1.72,0,0,0,280.37,186.28Z"/><path class="cls-1" d="M280.37,191.8a1.76,1.76,0,1,0,1.63,1.88v-.13A1.7,1.7,0,0,0,280.37,191.8Z"/><path class="cls-1" d="M280.37,197.76a1.76,1.76,0,1,0,1.63,1.88v-.13A1.7,1.7,0,0,0,280.37,197.76Z"/><path class="cls-1" d="M280.37,203.26a1.76,1.76,0,1,0,1.63,1.88V205A1.71,1.71,0,0,0,280.37,203.26Z"/><path class="cls-1" d="M286.17,174a1.76,1.76,0,1,0,1.63,1.88v-.12A1.7,1.7,0,0,0,286.17,174Z"/><path class="cls-1" d="M286.17,179.49a1.76,1.76,0,1,0,1.63,1.88v-.13A1.7,1.7,0,0,0,286.17,179.49Z"/><path class="cls-1" d="M286,185.05a1.76,1.76,0,1,0,1.64,1.87.45.45,0,0,0,0-.11,1.71,1.71,0,0,0-1.64-1.76Z"/><path class="cls-1" d="M286,190.52a1.76,1.76,0,1,0,1.64,1.87.41.41,0,0,0,0-.11,1.71,1.71,0,0,0-1.64-1.76Z"/><path class="cls-1" d="M286,196.52a1.76,1.76,0,1,0,1.64,1.87.49.49,0,0,0,0-.12A1.71,1.71,0,0,0,286,196.52Z"/><path class="cls-1" d="M286,202a1.76,1.76,0,1,0,1.64,1.87.37.37,0,0,0,0-.11A1.71,1.71,0,0,0,286,202Z"/><path class="cls-1" d="M291.53,172.47a1.76,1.76,0,1,0,1.63,1.88.57.57,0,0,0,0-.13,1.7,1.7,0,0,0-1.64-1.75Z"/><path class="cls-1" d="M291.53,178a1.76,1.76,0,1,0,1.63,1.88.53.53,0,0,0,0-.13,1.7,1.7,0,0,0-1.64-1.75Z"/><path class="cls-1" d="M291.35,183.54a1.76,1.76,0,1,0,1.63,1.88v-.12A1.69,1.69,0,0,0,291.35,183.54Z"/><path class="cls-1" d="M291.35,189.05a1.76,1.76,0,1,0,1.63,1.88v-.12A1.69,1.69,0,0,0,291.35,189.05Z"/><path class="cls-1" d="M291.35,195A1.76,1.76,0,1,0,293,196.9v-.14A1.7,1.7,0,0,0,291.35,195Z"/><ellipse class="cls-1" cx="291.35" cy="202.27" rx="1.63" ry="1.76"/><path class="cls-1" d="M296.85,174.93a1.76,1.76,0,1,0-1.63-1.88v.12a1.69,1.69,0,0,0,1.62,1.76Z"/><path class="cls-1" d="M296.85,180.44a1.77,1.77,0,1,0-1.63-1.9v.14a1.69,1.69,0,0,0,1.62,1.76Z"/><path class="cls-1" d="M296.67,186a1.77,1.77,0,1,0-1.63-1.89.61.61,0,0,0,0,.14A1.71,1.71,0,0,0,296.67,186Z"/><path class="cls-1" d="M296.67,191.49a1.76,1.76,0,1,0-1.63-1.88.53.53,0,0,0,0,.13A1.71,1.71,0,0,0,296.67,191.49Z"/><path class="cls-1" d="M296.67,197.47a1.77,1.77,0,1,0-1.63-1.9.66.66,0,0,0,0,.14A1.71,1.71,0,0,0,296.67,197.47Z"/><path class="cls-1" d="M296.67,203a1.77,1.77,0,1,0-1.63-1.9.66.66,0,0,0,0,.14A1.71,1.71,0,0,0,296.67,203Z"/><path class="cls-1" d="M302.25,170.22a1.76,1.76,0,1,0,1.63,1.88.49.49,0,0,0,0-.12,1.69,1.69,0,0,0-1.62-1.76Z"/><path class="cls-1" d="M302.25,175.77a1.76,1.76,0,1,0,1.63,1.88.62.62,0,0,0,0-.13,1.69,1.69,0,0,0-1.63-1.75Z"/><path class="cls-1" d="M302,181.33a1.76,1.76,0,1,0,1.63,1.88s0-.08,0-.12A1.7,1.7,0,0,0,302,181.33Z"/><path class="cls-1" d="M302,186.84a1.76,1.76,0,1,0,1.63,1.88s0-.08,0-.12A1.7,1.7,0,0,0,302,186.84Z"/><path class="cls-1" d="M302,192.8a1.76,1.76,0,1,0,1.63,1.88s0-.09,0-.13A1.72,1.72,0,0,0,302,192.8Z"/><path class="cls-1" d="M302,198.31a1.76,1.76,0,1,0,1.63,1.88s0-.09,0-.13A1.72,1.72,0,0,0,302,198.31Z"/><path class="cls-1" d="M307.51,168.83a1.76,1.76,0,1,0,1.63,1.88.49.49,0,0,0,0-.12A1.7,1.7,0,0,0,307.51,168.83Z"/><path class="cls-1" d="M307.51,174.34a1.76,1.76,0,1,0,1.63,1.88.49.49,0,0,0,0-.12A1.7,1.7,0,0,0,307.51,174.34Z"/><path class="cls-1" d="M307.33,179.89a1.76,1.76,0,1,0,1.63,1.88v-.14a1.67,1.67,0,0,0-1.63-1.74Z"/><path class="cls-1" d="M307.33,185.41a1.76,1.76,0,1,0,1.63,1.88v-.13A1.68,1.68,0,0,0,307.33,185.41Z"/><path class="cls-1" d="M307.33,191.37a1.76,1.76,0,1,0,1.63,1.88v-.12a1.7,1.7,0,0,0-1.62-1.76Z"/><path class="cls-1" d="M307.33,196.88a1.76,1.76,0,1,0,1.63,1.88v-.13a1.68,1.68,0,0,0-1.63-1.75Z"/><path class="cls-1" d="M312.76,167.78a1.77,1.77,0,1,0-.27,3.53,1.76,1.76,0,0,0,1.9-1.63c0-.05,0-.09,0-.14A1.72,1.72,0,0,0,312.76,167.78Z"/><path class="cls-1" d="M312.76,173.29a1.76,1.76,0,1,0,1.63,1.88s0-.08,0-.12A1.71,1.71,0,0,0,312.76,173.29Z"/><path class="cls-1" d="M312.58,178.86a1.76,1.76,0,1,0,1.63,1.88v-.13A1.7,1.7,0,0,0,312.58,178.86Z"/><path class="cls-1" d="M312.58,184.36a1.77,1.77,0,1,0,1.63,1.9v-.14A1.71,1.71,0,0,0,312.58,184.36Z"/><path class="cls-1" d="M312.58,190.33a1.76,1.76,0,1,0,1.63,1.88v-.12A1.69,1.69,0,0,0,312.58,190.33Z"/><path class="cls-1" d="M312.58,195.84a1.76,1.76,0,1,0,1.63,1.88v-.12A1.69,1.69,0,0,0,312.58,195.84Z"/><path class="cls-1" d="M318.12,166.27a1.76,1.76,0,1,0,1.64,1.88V168a1.71,1.71,0,0,0-1.64-1.76Z"/><path class="cls-1" d="M318.12,171.78a1.76,1.76,0,1,0,1.64,1.88v-.12a1.71,1.71,0,0,0-1.64-1.76Z"/><path class="cls-1" d="M317.94,177.35a1.76,1.76,0,1,0,1.63,1.88.53.53,0,0,0,0-.13A1.7,1.7,0,0,0,317.94,177.35Z"/><path class="cls-1" d="M317.94,182.85a1.76,1.76,0,1,0,1.63,1.88.49.49,0,0,0,0-.12A1.71,1.71,0,0,0,317.94,182.85Z"/><path class="cls-1" d="M317.94,188.82a1.76,1.76,0,1,0,1.63,1.88.49.49,0,0,0,0-.12A1.7,1.7,0,0,0,317.94,188.82Z"/><path class="cls-1" d="M317.94,194.33a1.76,1.76,0,1,0,1.63,1.88.57.57,0,0,0,0-.13A1.7,1.7,0,0,0,317.94,194.33Z"/><path class="cls-1" d="M323.44,165.22a1.76,1.76,0,1,0-.24,3.51,1.75,1.75,0,0,0,1.87-1.64.41.41,0,0,0,0-.11,1.7,1.7,0,0,0-1.64-1.76Z"/><path class="cls-1" d="M323.44,170.73a1.76,1.76,0,1,0-.24,3.51,1.75,1.75,0,0,0,1.87-1.64.41.41,0,0,0,0-.11,1.7,1.7,0,0,0-1.64-1.76Z"/><ellipse class="cls-1" cx="323.26" cy="178.05" rx="1.63" ry="1.76"/><ellipse class="cls-1" cx="323.26" cy="183.56" rx="1.63" ry="1.76"/><ellipse class="cls-1" cx="323.26" cy="189.52" rx="1.63" ry="1.76"/><ellipse class="cls-1" cx="323.26" cy="195.02" rx="1.63" ry="1.76"/><path class="cls-1" d="M328.8,164.06a1.76,1.76,0,1,0,1.64,1.87v-.11a1.69,1.69,0,0,0-1.64-1.76Z"/><path class="cls-1" d="M328.8,169.57a1.76,1.76,0,1,0,1.64,1.87v-.11a1.69,1.69,0,0,0-1.64-1.76Z"/><path class="cls-1" d="M328.62,175.14a1.76,1.76,0,0,0-.24,3.51,1.77,1.77,0,0,0,1.88-1.64v-.12A1.7,1.7,0,0,0,328.62,175.14Z"/><path class="cls-1" d="M328.62,180.65a1.76,1.76,0,0,0-.24,3.51,1.77,1.77,0,0,0,1.88-1.64v-.12A1.7,1.7,0,0,0,328.62,180.65Z"/><path class="cls-1" d="M328.62,186.65a1.76,1.76,0,1,0,1.64,1.87v-.11a1.7,1.7,0,0,0-1.64-1.76Z"/><path class="cls-1" d="M328.62,192.11a1.76,1.76,0,1,0,1.64,1.88v-.12a1.71,1.71,0,0,0-1.64-1.76Z"/><ellipse class="cls-1" cx="334.1" cy="164.39" rx="1.63" ry="1.76"/><ellipse class="cls-1" cx="334.1" cy="169.9" rx="1.63" ry="1.76"/><path class="cls-1" d="M333.91,173.71a1.76,1.76,0,1,0,1.63,1.88.49.49,0,0,0,0-.12A1.7,1.7,0,0,0,333.91,173.71Z"/><path class="cls-1" d="M333.91,179.22a1.76,1.76,0,1,0,1.63,1.88.57.57,0,0,0,0-.13A1.7,1.7,0,0,0,333.91,179.22Z"/><path class="cls-1" d="M333.91,185.17a1.77,1.77,0,1,0,1.63,1.9.61.61,0,0,0,0-.14A1.71,1.71,0,0,0,333.91,185.17Z"/><path class="cls-1" d="M333.91,190.68a1.76,1.76,0,1,0,1.63,1.88.49.49,0,0,0,0-.12A1.71,1.71,0,0,0,333.91,190.68Z"/><path class="cls-1" d="M339.81,160.55a1.77,1.77,0,1,0,1.63,1.9s0-.09,0-.14A1.72,1.72,0,0,0,339.81,160.55Z"/><ellipse class="cls-1" cx="339.81" cy="167.81" rx="1.63" ry="1.76"/><ellipse class="cls-1" cx="339.63" cy="173.37" rx="1.63" ry="1.76"/><ellipse class="cls-1" cx="339.63" cy="178.88" rx="1.63" ry="1.76"/><ellipse class="cls-1" cx="339.63" cy="184.84" rx="1.63" ry="1.76"/><path class="cls-1" d="M339.63,188.59a1.76,1.76,0,1,0,1.63,1.88v-.13a1.69,1.69,0,0,0-1.63-1.75Z"/><path class="cls-1" d="M345.17,159a1.76,1.76,0,1,0,1.64,1.87v-.11a1.71,1.71,0,0,0-1.64-1.76Z"/><path class="cls-1" d="M345.17,164.54a1.76,1.76,0,1,0,1.64,1.87v-.11a1.71,1.71,0,0,0-1.64-1.76Z"/><path class="cls-1" d="M345,170.11a1.76,1.76,0,1,0,1.63,1.88.57.57,0,0,0,0-.13A1.71,1.71,0,0,0,345,170.11Z"/><path class="cls-1" d="M345,175.61a1.77,1.77,0,0,0-.27,3.53,1.76,1.76,0,0,0,1.9-1.63.66.66,0,0,0,0-.14A1.72,1.72,0,0,0,345,175.61Z"/><path class="cls-1" d="M345,181.58a1.76,1.76,0,1,0,1.63,1.88.49.49,0,0,0,0-.12A1.7,1.7,0,0,0,345,181.58Z"/><path class="cls-1" d="M345,187.09a1.76,1.76,0,1,0,1.63,1.88.62.62,0,0,0,0-.13A1.7,1.7,0,0,0,345,187.09Z"/><path class="cls-1" d="M350.49,158a1.76,1.76,0,1,0,1.63,1.88.49.49,0,0,0,0-.12A1.71,1.71,0,0,0,350.49,158Z"/><path class="cls-1" d="M350.49,163.45a1.76,1.76,0,1,0,1.63,1.88.57.57,0,0,0,0-.13A1.71,1.71,0,0,0,350.49,163.45Z"/><ellipse class="cls-1" cx="350.31" cy="170.81" rx="1.63" ry="1.76"/><ellipse class="cls-1" cx="350.31" cy="176.32" rx="1.63" ry="1.76"/><ellipse class="cls-1" cx="350.31" cy="182.27" rx="1.63" ry="1.76"/><path class="cls-1" d="M350.31,186a1.76,1.76,0,1,0,1.63,1.88v-.13a1.69,1.69,0,0,0-1.63-1.75Z"/><ellipse class="cls-1" cx="355.85" cy="158.58" rx="1.63" ry="1.76"/><ellipse class="cls-1" cx="355.85" cy="164.09" rx="1.63" ry="1.76"/><path class="cls-1" d="M355.68,167.9a1.76,1.76,0,1,0,1.62,1.88.62.62,0,0,0,0-.13A1.69,1.69,0,0,0,355.68,167.9Z"/><path class="cls-1" d="M355.68,173.4a1.77,1.77,0,1,0,1.62,1.9.71.71,0,0,0,0-.14A1.7,1.7,0,0,0,355.68,173.4Z"/><path class="cls-1" d="M355.68,179.36a1.76,1.76,0,1,0,1.62,1.88.49.49,0,0,0,0-.12A1.71,1.71,0,0,0,355.68,179.36Z"/><path class="cls-1" d="M355.68,184.87a1.76,1.76,0,1,0,1.68,1.84v-.06a1.7,1.7,0,0,0-1.62-1.77Z"/><path class="cls-1" d="M361.15,155.39a1.77,1.77,0,0,0-.27,3.53,1.78,1.78,0,0,0,1.9-1.63v-.14A1.7,1.7,0,0,0,361.15,155.39Z"/><path class="cls-1" d="M361.15,160.9a1.77,1.77,0,1,0-.27,3.53,1.78,1.78,0,0,0,1.9-1.63v-.14A1.7,1.7,0,0,0,361.15,160.9Z"/><path class="cls-1" d="M361,166.47a1.76,1.76,0,1,0,1.64,1.87.45.45,0,0,0,0-.11,1.71,1.71,0,0,0-1.64-1.76Z"/><path class="cls-1" d="M361,172a1.76,1.76,0,1,0,1.64,1.87.49.49,0,0,0,0-.12A1.71,1.71,0,0,0,361,172Z"/><path class="cls-1" d="M361,178a1.76,1.76,0,1,0,1.64,1.87.37.37,0,0,0,0-.11A1.71,1.71,0,0,0,361,178Z"/><path class="cls-1" d="M361,183.44a1.76,1.76,0,1,0,1.64,1.87.37.37,0,0,0,0-.11,1.71,1.71,0,0,0-1.64-1.76Z"/><ellipse class="cls-1" cx="366.4" cy="156.1" rx="1.63" ry="1.76"/><path class="cls-1" d="M366.4,159.85a1.77,1.77,0,1,0,1.58,1.94,1.09,1.09,0,0,0,0-.18A1.7,1.7,0,0,0,366.4,159.85Z"/><path class="cls-1" d="M366.21,165.38a1.76,1.76,0,1,0,1.64,1.88.49.49,0,0,0,0-.12,1.71,1.71,0,0,0-1.64-1.76Z"/><path class="cls-1" d="M366.21,170.93a1.76,1.76,0,1,0,1.64,1.87.49.49,0,0,0,0-.12A1.71,1.71,0,0,0,366.21,170.93Z"/><path class="cls-1" d="M366.21,176.89a1.76,1.76,0,1,0,1.64,1.87.41.41,0,0,0,0-.11,1.71,1.71,0,0,0-1.64-1.76Z"/><path class="cls-1" d="M366.21,182.4a1.76,1.76,0,1,0,1.64,1.87.41.41,0,0,0,0-.11,1.71,1.71,0,0,0-1.64-1.76Z"/><path class="cls-1" d="M371.76,152.82a1.77,1.77,0,1,0,1.63,1.9c0-.05,0-.1,0-.14A1.7,1.7,0,0,0,371.76,152.82Z"/><path class="cls-1" d="M371.76,158.35a1.77,1.77,0,1,0,1.63,1.9c0-.05,0-.1,0-.14A1.7,1.7,0,0,0,371.76,158.35Z"/><path class="cls-1" d="M371.58,163.91a1.76,1.76,0,1,0,1.63,1.89v-.13A1.71,1.71,0,0,0,371.58,163.91Z"/><path class="cls-1" d="M371.58,169.43a1.75,1.75,0,1,0,1.63,1.88v-.13A1.7,1.7,0,0,0,371.58,169.43Z"/><path class="cls-1" d="M371.58,175.38a1.77,1.77,0,1,0-.27,3.53,1.78,1.78,0,0,0,1.9-1.63v-.14A1.7,1.7,0,0,0,371.58,175.38Z"/><path class="cls-1" d="M371.58,180.85a1.76,1.76,0,1,0,1.63,1.88v-.12A1.71,1.71,0,0,0,371.58,180.85Z"/><path class="cls-1" d="M377.08,151.78a1.77,1.77,0,1,0,1.63,1.9v-.14A1.7,1.7,0,0,0,377.08,151.78Z"/><path class="cls-1" d="M377.08,157.29a1.77,1.77,0,1,0,1.63,1.9v-.14A1.7,1.7,0,0,0,377.08,157.29Z"/><path class="cls-1" d="M376.9,162.86a1.76,1.76,0,1,0,1.62,1.88.57.57,0,0,0,0-.13A1.7,1.7,0,0,0,376.9,162.86Z"/><path class="cls-1" d="M376.9,168.37a1.76,1.76,0,1,0,1.62,1.88.57.57,0,0,0,0-.13A1.7,1.7,0,0,0,376.9,168.37Z"/><path class="cls-1" d="M376.9,174.33a1.77,1.77,0,1,0,1.62,1.9.71.71,0,0,0,0-.14A1.7,1.7,0,0,0,376.9,174.33Z"/><path class="cls-1" d="M376.9,179.89a1.76,1.76,0,1,0,1.62,1.88.53.53,0,0,0,0-.13A1.7,1.7,0,0,0,376.9,179.89Z"/><path class="cls-1" d="M382.49,150.63a1.76,1.76,0,1,0,1.63,1.88.53.53,0,0,0,0-.13,1.7,1.7,0,0,0-1.64-1.75Z"/><path class="cls-1" d="M382.49,156.13a1.77,1.77,0,0,0-.27,3.53,1.76,1.76,0,0,0,1.9-1.63.61.61,0,0,0,0-.14A1.71,1.71,0,0,0,382.49,156.13Z"/><path class="cls-1" d="M382.26,161.7a1.76,1.76,0,1,0,1.63,1.88v-.12a1.69,1.69,0,0,0-1.62-1.76Z"/><path class="cls-1" d="M382.26,167.21a1.76,1.76,0,1,0,1.63,1.88V169a1.69,1.69,0,0,0-1.62-1.76Z"/><path class="cls-1" d="M382.26,173.17a1.77,1.77,0,1,0,1.63,1.9v-.14A1.69,1.69,0,0,0,382.26,173.17Z"/><path class="cls-1" d="M382.26,178.68a1.77,1.77,0,1,0,1.63,1.9v-.14a1.68,1.68,0,0,0-1.62-1.76Z"/><path class="cls-1" d="M387.74,149.2a1.76,1.76,0,1,0,1.63,1.88s0-.09,0-.13A1.72,1.72,0,0,0,387.74,149.2Z"/><path class="cls-1" d="M387.74,154.75a1.76,1.76,0,1,0,1.63,1.88s0-.09,0-.13A1.72,1.72,0,0,0,387.74,154.75Z"/><path class="cls-1" d="M387.56,160.27a1.77,1.77,0,1,0-.27,3.53,1.78,1.78,0,0,0,1.9-1.63V162A1.7,1.7,0,0,0,387.56,160.27Z"/><path class="cls-1" d="M387.56,165.78a1.76,1.76,0,1,0,1.63,1.88v-.12A1.7,1.7,0,0,0,387.56,165.78Z"/><path class="cls-1" d="M387.56,171.74a1.76,1.76,0,1,0,1.63,1.88v-.12A1.7,1.7,0,0,0,387.56,171.74Z"/><path class="cls-1" d="M387.56,177.25a1.77,1.77,0,1,0,1.63,1.9V179A1.7,1.7,0,0,0,387.56,177.25Z"/><path class="cls-1" d="M393.36,148a1.76,1.76,0,1,0,1.64,1.87v-.12A1.7,1.7,0,0,0,393.36,148Z"/><path class="cls-1" d="M393.36,153.47a1.76,1.76,0,1,0,1.64,1.88v-.13A1.71,1.71,0,0,0,393.36,153.47Z"/><path class="cls-1" d="M393.18,159a1.76,1.76,0,1,0-.24,3.51,1.75,1.75,0,0,0,1.87-1.64.37.37,0,0,0,0-.11,1.71,1.71,0,0,0-1.64-1.76Z"/><path class="cls-1" d="M393.18,164.54a1.76,1.76,0,1,0-.24,3.51,1.75,1.75,0,0,0,1.87-1.64.37.37,0,0,0,0-.11,1.71,1.71,0,0,0-1.64-1.76Z"/><path class="cls-1" d="M393.18,170.5a1.76,1.76,0,1,0,1.63,1.87.41.41,0,0,0,0-.11,1.7,1.7,0,0,0-1.64-1.76Z"/><path class="cls-1" d="M393.18,176a1.76,1.76,0,1,0,1.63,1.87.41.41,0,0,0,0-.11,1.7,1.7,0,0,0-1.64-1.76Z"/><path class="cls-1" d="M398.72,146.46a1.76,1.76,0,1,0,1.63,1.88.62.62,0,0,0,0-.13A1.69,1.69,0,0,0,398.72,146.46Z"/><path class="cls-1" d="M398.72,152a1.77,1.77,0,1,0,1.63,1.9.71.71,0,0,0,0-.14A1.7,1.7,0,0,0,398.72,152Z"/><path class="cls-1" d="M398.54,157.52a1.76,1.76,0,1,0,1.64,1.88v-.12a1.7,1.7,0,0,0-1.64-1.76Z"/><path class="cls-1" d="M398.54,163a1.76,1.76,0,1,0,1.64,1.88v-.12a1.69,1.69,0,0,0-1.64-1.75Z"/><path class="cls-1" d="M398.54,169a1.76,1.76,0,1,0,1.64,1.87v-.11a1.69,1.69,0,0,0-1.64-1.76Z"/><path class="cls-1" d="M398.54,174.5a1.76,1.76,0,1,0,1.64,1.87v-.11a1.69,1.69,0,0,0-1.64-1.76Z"/><path class="cls-1" d="M404,145.4a1.76,1.76,0,1,0,1.63,1.88s0-.08,0-.13A1.72,1.72,0,0,0,404,145.4Z"/><path class="cls-1" d="M404,150.88a1.77,1.77,0,1,0-.27,3.53,1.76,1.76,0,0,0,1.9-1.63s0-.09,0-.14A1.71,1.71,0,0,0,404,150.88Z"/><path class="cls-1" d="M403.86,156.47a1.76,1.76,0,1,0,1.64,1.87v-.11a1.7,1.7,0,0,0-1.64-1.76Z"/><ellipse class="cls-1" cx="403.86" cy="163.73" rx="1.63" ry="1.76"/><ellipse class="cls-1" cx="403.86" cy="169.7" rx="1.63" ry="1.76"/><path class="cls-1" d="M403.86,173.45a1.76,1.76,0,1,0,1.64,1.87v-.11a1.7,1.7,0,0,0-1.64-1.76Z"/><path class="cls-1" d="M409.41,144.24a1.76,1.76,0,1,0,1.63,1.88V146A1.7,1.7,0,0,0,409.41,144.24Z"/><path class="cls-1" d="M409.41,149.75a1.76,1.76,0,1,0,1.63,1.88v-.13A1.7,1.7,0,0,0,409.41,149.75Z"/><path class="cls-1" d="M409.22,155.31a1.77,1.77,0,1,0,1.63,1.9.66.66,0,0,0,0-.14A1.71,1.71,0,0,0,409.22,155.31Z"/><path class="cls-1" d="M409.22,160.82a1.76,1.76,0,1,0,1.63,1.88.49.49,0,0,0,0-.12A1.71,1.71,0,0,0,409.22,160.82Z"/><path class="cls-1" d="M409.22,166.79a1.76,1.76,0,1,0,1.63,1.88.62.62,0,0,0,0-.13A1.7,1.7,0,0,0,409.22,166.79Z"/><path class="cls-1" d="M409.22,172.29a1.77,1.77,0,1,0,1.63,1.9.71.71,0,0,0,0-.14A1.7,1.7,0,0,0,409.22,172.29Z"/><ellipse class="cls-1" cx="414.7" cy="144.57" rx="1.63" ry="1.76"/><ellipse class="cls-1" cx="414.7" cy="150.07" rx="1.63" ry="1.76"/><path class="cls-1" d="M414.52,157.4a1.76,1.76,0,1,0-1.63-1.88v.12A1.69,1.69,0,0,0,414.52,157.4Z"/><path class="cls-1" d="M414.52,162.91a1.76,1.76,0,1,0-1.63-1.88v.12A1.69,1.69,0,0,0,414.52,162.91Z"/><path class="cls-1" d="M414.52,168.86a1.76,1.76,0,1,0-1.63-1.88v.12A1.69,1.69,0,0,0,414.52,168.86Z"/><path class="cls-1" d="M416.15,172.62a1.63,1.63,0,1,0-1.63,1.75A1.68,1.68,0,0,0,416.15,172.62Z"/><path class="cls-1" d="M420,141.77a1.76,1.76,0,1,0,1.63,1.88.49.49,0,0,0,0-.12A1.7,1.7,0,0,0,420,141.77Z"/><path class="cls-1" d="M420,147.28a1.76,1.76,0,1,0,1.63,1.88.49.49,0,0,0,0-.12A1.7,1.7,0,0,0,420,147.28Z"/><path class="cls-1" d="M419.77,152.82a1.76,1.76,0,1,0,1.63,1.88v-.13a1.68,1.68,0,0,0-1.63-1.75Z"/><path class="cls-1" d="M419.77,158.35a1.77,1.77,0,1,0,1.63,1.9v-.14A1.69,1.69,0,0,0,419.77,158.35Z"/><path class="cls-1" d="M419.77,164.31a1.76,1.76,0,1,0,1.63,1.88v-.12a1.69,1.69,0,0,0-1.62-1.76Z"/><path class="cls-1" d="M419.77,169.82a1.76,1.76,0,1,0,1.63,1.88v-.13a1.68,1.68,0,0,0-1.63-1.75Z"/><path class="cls-1" d="M425.31,143.77a1.76,1.76,0,1,0-1.63-1.88V142A1.7,1.7,0,0,0,425.31,143.77Z"/><path class="cls-1" d="M425.31,149.28a1.76,1.76,0,1,0-1.63-1.88v.12A1.69,1.69,0,0,0,425.31,149.28Z"/><path class="cls-1" d="M425.14,154.85A1.76,1.76,0,1,0,423.5,153a.37.37,0,0,0,0,.11,1.71,1.71,0,0,0,1.64,1.76Z"/><path class="cls-1" d="M425.14,160.36a1.76,1.76,0,1,0-1.64-1.87.37.37,0,0,0,0,.11,1.71,1.71,0,0,0,1.64,1.76Z"/><path class="cls-1" d="M425.14,166.35a1.76,1.76,0,1,0-1.64-1.87.41.41,0,0,0,0,.11,1.7,1.7,0,0,0,1.64,1.76Z"/><path class="cls-1" d="M425.14,171.82A1.76,1.76,0,1,0,423.5,170a.45.45,0,0,0,0,.11,1.7,1.7,0,0,0,1.64,1.76Z"/><path class="cls-1" d="M430.64,139.2a1.76,1.76,0,1,0,1.63,1.89V141A1.71,1.71,0,0,0,430.64,139.2Z"/><path class="cls-1" d="M430.64,144.72a1.76,1.76,0,0,0-.26,3.51,1.77,1.77,0,0,0,1.89-1.63v-.13A1.69,1.69,0,0,0,430.64,144.72Z"/><path class="cls-1" d="M430.45,150.27a1.77,1.77,0,1,0-.27,3.53,1.76,1.76,0,0,0,1.9-1.63s0-.09,0-.14A1.71,1.71,0,0,0,430.45,150.27Z"/><path class="cls-1" d="M430.45,155.78a1.77,1.77,0,1,0-.27,3.53,1.76,1.76,0,0,0,1.9-1.63s0-.09,0-.14a1.7,1.7,0,0,0-1.63-1.76Z"/><path class="cls-1" d="M430.45,161.75a1.76,1.76,0,1,0,1.63,1.88s0-.09,0-.13a1.7,1.7,0,0,0-1.64-1.75Z"/><path class="cls-1" d="M430.45,167.25a1.77,1.77,0,1,0,1.63,1.9c0-.05,0-.09,0-.14A1.71,1.71,0,0,0,430.45,167.25Z"/><path class="cls-1" d="M436,141.55a1.76,1.76,0,1,0-1.63-1.88v.13A1.69,1.69,0,0,0,436,141.55Z"/><path class="cls-1" d="M436,147.06a1.76,1.76,0,1,0-1.63-1.88v.13A1.69,1.69,0,0,0,436,147.06Z"/><ellipse class="cls-1" cx="435.82" cy="150.87" rx="1.63" ry="1.76"/><ellipse class="cls-1" cx="435.82" cy="156.38" rx="1.63" ry="1.76"/><ellipse class="cls-1" cx="435.82" cy="162.35" rx="1.63" ry="1.76"/><ellipse class="cls-1" cx="435.82" cy="167.85" rx="1.63" ry="1.76"/><path class="cls-1" d="M441.29,136.61a1.78,1.78,0,0,0-1.9,1.63,1.77,1.77,0,0,0,3.53.27v-.14A1.7,1.7,0,0,0,441.29,136.61Z"/><path class="cls-1" d="M441.29,142.12a1.76,1.76,0,1,0,1.63,1.89v-.13A1.7,1.7,0,0,0,441.29,142.12Z"/><path class="cls-1" d="M441.11,147.69a1.76,1.76,0,1,0,1.64,1.87v-.12A1.7,1.7,0,0,0,441.11,147.69Z"/><path class="cls-1" d="M441.11,153.2a1.76,1.76,0,1,0,1.64,1.87V155A1.7,1.7,0,0,0,441.11,153.2Z"/><path class="cls-1" d="M441.11,159.16a1.76,1.76,0,1,0,1.64,1.87v-.11a1.7,1.7,0,0,0-1.64-1.76Z"/><path class="cls-1" d="M441.11,164.67a1.76,1.76,0,1,0,1.64,1.87v-.11a1.7,1.7,0,0,0-1.64-1.76Z"/><ellipse class="cls-1" cx="140.92" cy="250.27" rx="6.11" ry="6.06"/><ellipse class="cls-1" cx="295.98" cy="211.8" rx="6.11" ry="6.06"/><ellipse class="cls-1" cx="432.01" cy="178.96" rx="6.11" ry="6.06"/><ellipse class="cls-1" cx="417.49" cy="182.24" rx="6.11" ry="6.06"/><ellipse class="cls-1" cx="402.97" cy="186.14" rx="6.11" ry="6.06"/></svg>