<svg id="Artwork" xmlns="http://www.w3.org/2000/svg" viewBox="0 0 480 320"><defs><style>.cls-1{fill:#000;}</style></defs><ellipse class="cls-1" cx="433.02" cy="142.52" rx="6.93" ry="11.63"/><path class="cls-1" d="M366.36,145.66l.57,30.92L419,160.71l-.44-29.19Zm8,20.67-.28-14.86,37-10,.2,13.62Z"/><path class="cls-1" d="M453.35,160.46V113.52l-1.64-1.75L448,109.53l-1.87-.69h-.21L299.68,71.31a1.15,1.15,0,0,0-.49,0L30.4,117.14l-.52.1a4.1,4.1,0,0,0-3.26,4h0l.1,41.48,126.79,84a9.51,9.51,0,0,0,7.93,1.2L450.9,162.78l2.48-.93ZM34.74,158.32,34.67,128l117.9,64.25v40.77ZM156,185,42.73,123.27,298.88,79.36l130,33.34L159.25,185.39A4.45,4.45,0,0,1,156,185Zm15.59,51.48-.05-39.82,275.16-75.24v33.06Z"/></svg>