<svg id="Artwork" xmlns="http://www.w3.org/2000/svg" viewBox="0 0 480 320"><defs><style>.cls-1{fill:#000;}</style></defs><path class="cls-1" d="M442.85,122.05l-3.3-4.8-6.8-1-3.4.7L213.65,62.38a.47.47,0,0,0-.2,0L40.89,86.74a4.24,4.24,0,0,0-3.65,4.19l-.09,67.82,203.1,91.4V256l6.9,1.7,4.6-1.3h0l188.9-54.5.1-.1,2-.5-.1-2.3h.1Zm-229.7-53.6L416.45,120l-170.8,38.44a9,9,0,0,1-4.92-.3L52.15,91Zm-170,86.4V94.05l196.9,70,.3,79.4Zm393.7,39.4-178.3,51.8v-76.2l178.3-40.2Z"/><path class="cls-1" d="M401.55,191.15a13.41,13.41,0,0,0,6.5,1.7,16.19,16.19,0,0,0,4.4-.7c5.1-1.7,9.4-6.1,11.9-12.2,4.4-10.6,1.8-22.5-6-27h0a12.8,12.8,0,0,0-10.8-1c-5.1,1.7-9.4,6.1-12,12.2C391.05,174.75,393.75,186.55,401.55,191.15Zm-.5-24.7c1.8-4.4,4.9-7.6,8.3-8.8a6.9,6.9,0,0,1,2.5-.4,6.65,6.65,0,0,1,3.4.9h0c5.1,2.9,6.7,11.9,3.5,19.5-1.8,4.4-4.9,7.6-8.3,8.8a7.18,7.18,0,0,1-5.9-.5C399.45,183,397.85,174.05,401.05,166.45Z"/><path class="cls-1" d="M383.65,155.85l-86.4,21.8v47.4l86.2-24.6Zm-6.1,40-74.3,21.2v-34.8l74.4-18.8Z"/></svg>