<svg id="Artwork" xmlns="http://www.w3.org/2000/svg" viewBox="0 0 480 320"><defs><style>.cls-1{fill:#000;}</style></defs><ellipse class="cls-1" cx="433.02" cy="142" rx="6.93" ry="11.63"/><path class="cls-1" d="M366.36,145.14l.57,30.92L419,160.19,418.58,131Zm8,20.66L374.1,151l37-10,.2,13.62Z"/><path class="cls-1" d="M453.35,159.94V113l-1.64-1.75L448,109l-1.87-.69h-.21L299.68,70.79a1.15,1.15,0,0,0-.49,0L30.4,116.62l-.52.1a4.09,4.09,0,0,0-3.26,4h0l.1,41.48,126.79,84a9.47,9.47,0,0,0,7.93,1.19L450.9,162.26l2.48-.93ZM34.74,157.79l-.07-30.29,117.9,64.25v40.77ZM156,184.48,42.73,122.75,298.88,78.84l130,33.34L159.25,184.87A4.41,4.41,0,0,1,156,184.48ZM171.56,236l-.05-39.82,275.16-75.24V154Z"/></svg>