<?xml version="1.0" encoding="UTF-8"?>
<svg id="Layer_1" data-name="Layer 1" xmlns="http://www.w3.org/2000/svg" viewBox="0 0 480 320">
  <defs>
    <style>
      .cls-1 {
        fill: #000;
      }
    </style>
  </defs>
  <path class="cls-1" d="m338.69,189.13l56.22-16.67,1.4-24.1-57.61,15.45v25.33Zm6-20.73l45.14-12.11-.67,11.6-44.47,13.19v-12.69Z"/>
  <path class="cls-1" d="m202.83,212.45c-1.78.13-3.31,2.02-3.42,4.21-.11,2.19,1.25,3.87,3.03,3.74,1.78-.13,3.31-2.02,3.42-4.21.11-2.19-1.25-3.87-3.03-3.74Z"/>
  <path class="cls-1" d="m429.27,142.76c-.99-.58-2.06-.87-3.17-.91-.33-.27-.67-.52-1.04-.74h0c-1.95-1.13-4.24-1.35-6.46-.6-3,1.01-5.57,3.62-7.04,7.16-2.6,6.23-1.02,13.21,3.58,15.89,1.19.69,2.5,1.04,3.85,1.04.37,0,.75-.04,1.12-.09,1.04.6,2.16.9,3.33.9.77,0,1.56-.13,2.35-.4,2.83-.95,5.28-3.47,6.71-6.91,2.49-5.98,1.04-12.86-3.22-15.34Zm-14.02,6.45c1.02-2.44,2.75-4.27,4.62-4.91.14-.05.28-.07.42-.11-1.41,1.25-2.6,2.94-3.44,4.95-1.44,3.47-1.56,7.24-.57,10.28-2.1-2.07-2.61-6.42-1.03-10.22Z"/>
  <path class="cls-1" d="m296.44,64.49L25.06,121.89v52.79l131.6,80.83,297.37-81.78.91-53.9-158.5-55.33Zm140.85,57.65l-279.51,74.59L39.93,126.92l255.98-54.14,141.38,49.36Zm-404.23,10.01l120.13,71.16.06,40.72-120.2-73.83v-38.06Zm128.2,113.79l-.07-41.84,285.61-76.21-.67,39.72-284.87,78.34Z"/>
</svg>