<svg id="Layer_6" data-name="Layer 6" xmlns="http://www.w3.org/2000/svg" viewBox="0 0 480 320"><defs><style>.cls-1{fill:#f6f6f6;fill-rule:evenodd;}</style></defs><title>Whirl Audio - Whirlwind</title><path class="cls-1" d="M449.86,103.34a50.67,50.67,0,0,0-8.34-2.78c-.93-.25-1.85-.5-2.72-.75l-4.4-1.29c-3.33-1-6.55-1.9-10-2.94l-2-.6c-24.17-7.38-32.95-9.66-32.95-9.66l-.4-.12-5.57-1.63L347.87,73.14,345,72.31c-3-.89-6.15-1.81-9.34-2.59-4.33-1.06-8.72-.2-12.6.57-.74.15-1.49.3-2.22.43-6.14,1.09-12.32,2.15-18.48,3.21l-7.73,1.33c-2.24.38-262.53,50.34-266.33,51.49l-.46.17a4.81,4.81,0,0,0-2.82,3.55,4,4,0,0,0-.22,2.95,42.69,42.69,0,0,0,.89,6.08c.12.61.23,1.12.27,1.42.28,2.24.57,4.4.87,6.55l.46,3.46c.08.59.19,1.59.34,2.83,1.6,14,2.33,17.05,3.58,18.68l.19.25c1.67,1.85,6.17,7,11.88,13.53C84.25,233,94.22,244,97,246.09h0a22,22,0,0,0,13.73,4.69c4.26,0,8.57-1,13.1-2.32,4.07-.8,19.85-5.56,97.7-30.16,17.25-5.45,30.87-9.75,34.94-11,14.65-4.41,29.59-9.1,44.42-13.92,21.95-7.14,44.5-14.08,66.31-20.8s44.2-13.6,66.08-20.72c.73-.24,1.8-.54,3-.89a51.89,51.89,0,0,0,8.48-2.89,5.49,5.49,0,0,0,3.16-4.56c0-.15.06-.33.09-.49l1.84-9.21c.41-2.15,1.2-5.71,2-9.49,1.34-6.06,2.73-12.33,3.06-15C455,109.38,456.36,105.28,449.86,103.34ZM296,83.14l7.72-1.33c6.18-1.06,12.38-2.12,18.54-3.22l2.36-.45c3.36-.66,6.53-1.29,9.14-.65,3,.74,6.06,1.63,9,2.5l2.85.83,35.66,10.44c2,.56,3.65,1.06,5.52,1.61,0,0,13.68,3.78,33.29,9.76l2,.61c3.46,1.05,6.71,2,10.07,3l3.43,1L296.73,145.56l-96.29-44.08C251.87,91.59,295.2,83.28,296,83.14ZM44.5,131.75l71.25,65.31c-9.22,2.78-12.34,1.87-13.06,1.54a4.23,4.23,0,0,0-.91-1.35L35.61,133.38l8.8-1.74Zm399.58-9.12c-.85,3.83-1.65,7.46-2.08,9.68l-1.82,9.1c-1.53.57-4.43,1.42-6.14,1.91-1.27.37-2.42.71-3.21,1-21.82,7.1-44.26,14-66,20.69s-44.43,13.67-66.44,20.83c-14.77,4.81-29.66,9.47-44.24,13.87-4.13,1.25-17.78,5.55-35.05,11-34.62,10.94-97.46,30.09-97.46,30.09-8.09,2.28-13.85,3.44-19.86-1.07l-.51-.32a1.48,1.48,0,0,1,.36.23c-3.44-2.74-36.46-40.5-52.33-58.65-5.32-6.09-9.6-11-11.54-13.16-.75-2.41-1.82-11.79-2.19-15-.14-1.3-.27-2.35-.35-3l-.47-3.48c-.13-1-.27-2-.41-3.07L95.59,202.4a7.22,7.22,0,0,0,2.86,3,13.29,13.29,0,0,0,7,1.6c4.84,0,11.28-1.52,19.43-4.58a4,4,0,0,0,1.3-6.69l-72-66,6.09-1.19a1.8,1.8,0,0,0,.19.2l79.63,67.55a4,4,0,1,0,5.17-6.1l-75-63.6,5.82-1.12a3.63,3.63,0,0,0,.28.27l83,65.21a4,4,0,1,0,4.94-6.29l-77.92-61.2,5.51-1.06c.12.11.23.22.36.32l86.45,62.89a4,4,0,1,0,4.71-6.46L102.6,120.33l5.17-1a3.91,3.91,0,0,0,.44.37l89.86,60.57a4,4,0,0,0,5.55-1.08,4,4,0,0,0-1.08-5.56L118.81,117.2l4.81-.93a4.21,4.21,0,0,0,.52.4l93.26,58.24a3.91,3.91,0,0,0,2.12.61,4,4,0,0,0,2.12-7.39l-86.58-54.07,4.42-.85a3.19,3.19,0,0,0,.59.43l96.66,55.92a4,4,0,0,0,2,.53,4,4,0,0,0,2-7.46l-89.39-51.71,4-.76a5,5,0,0,0,.66.44l100.08,53.59a4,4,0,0,0,3.77-7.05l-92.17-49.36,3.54-.68a3.94,3.94,0,0,0,.71.46L275.4,158.82a4,4,0,0,0,3.55-7.17l-94.91-47,3-.58a3.81,3.81,0,0,0,.76.45l106.89,48.94a4,4,0,0,0,1.66.37,3.89,3.89,0,0,0,1.07-.15l148.8-41.1C445.67,115.46,444.84,119.18,444.08,122.63Z"/><path class="cls-1" d="M139.37,208.19c-2.1.35-5.56,1.62-7.77,2.23-8.26,2.25-7.63,2.38-6.89,13.05.57,8.12.38,7.72,11.36,4.31,8.41-2.62,7.53-2.15,7.07-13.45C143,211.22,143.34,207.51,139.37,208.19Z"/><path class="cls-1" d="M287.09,165.43a8.88,8.88,0,0,0-8.68,8,7.2,7.2,0,0,0,7.28,8,8.88,8.88,0,0,0,8.68-8A7.19,7.19,0,0,0,287.09,165.43Z"/></svg>