<svg xmlns="http://www.w3.org/2000/svg" viewBox="0 0 480 320"><defs><style>.cls-1{fill:#000;}</style></defs><g id="Layer_1" data-name="Layer 1"><path class="cls-1" d="M456.63,107.28a1.09,1.09,0,0,0-.11-.1,4.32,4.32,0,0,0-3.58-2.36l-4-.24L301.13,68.19a17.35,17.35,0,0,0-4.77-.49L27.82,78a5.82,5.82,0,0,0-5.66,5.85l.05,89.25a9.4,9.4,0,0,0,4.59,8.17l10.59,6.51a4.34,4.34,0,0,0-2.4,3.85,5,5,0,0,0,.52,2.23v.87a5.16,5.16,0,0,0,.39,1.85c.48,2.74,3.07,4.12,5.33,4.81a29.35,29.35,0,0,0,3.36.79c1.85.34,3.84.6,6.26.82,3.28.28,6.6.42,10.16.42h1.81l69.77,42.88,16.55-1.59c2.89,2.8,13.5,4.29,26,3.39,14.15-1,25.47-4.73,25.78-8.37l174.89-16.84c2,3.16,13.16,4.91,26.43,3.95,14.51-1,26.05-4.92,25.79-8.65a1.8,1.8,0,0,0-.06-.32l21.82-2.1a4.69,4.69,0,0,0,.65.14l.52,0a4.36,4.36,0,0,0,4.34-4.23l2.55-101.26A4.29,4.29,0,0,0,456.63,107.28ZM128.81,234.53,66.14,196a4.42,4.42,0,0,0-1.78-1.1L30.91,174.37a1.45,1.45,0,0,1-.7-1.28l0-83.26,99.19,41.82ZM134.54,121h-.16l-.24,0-.42.09a5.57,5.57,0,0,0-3.3,2.25l-90-37.93,256.22-9.79a10.12,10.12,0,0,1,2.57.27L419.63,105.6,134.74,121Zm312.14,87L144.25,237.09l.64-108L444,113l5.08.3Z"/><path class="cls-1" d="M435.61,156.6a25.38,25.38,0,0,0-5.49-16.43,18.87,18.87,0,0,0-12.94-7l-.26-.07-4-.58a19.35,19.35,0,0,0-19.21,2.94A27.79,27.79,0,0,0,387.22,171a21.18,21.18,0,0,0,5.92,6.24,3.85,3.85,0,0,0,.71.48l.09,0a18.57,18.57,0,0,0,9.83,2.85h.35l4.63,1,.18,0a18.22,18.22,0,0,0,4.37.53,19.19,19.19,0,0,0,2-.11,21.83,21.83,0,0,0,15-9.24,28.44,28.44,0,0,0,5.27-16.23h0Zm-37.15-14.15a28.45,28.45,0,0,0-5.24,16.28h0A27,27,0,0,0,395.11,169a14.63,14.63,0,0,1-1.47-2,20.21,20.21,0,0,1,4.64-25.54,13.59,13.59,0,0,1,2.06-1.29A25.06,25.06,0,0,0,398.46,142.45Zm25.74,25.7a13.81,13.81,0,0,1-9.4,5.95,10.82,10.82,0,0,1-9.58-4.12,17.15,17.15,0,0,1-3.66-11.16,20.11,20.11,0,0,1,3.7-11.55,13.83,13.83,0,0,1,9.42-6,10.82,10.82,0,0,1,9.59,4.15,17.24,17.24,0,0,1,3.65,11.2A20.2,20.2,0,0,1,424.2,168.15Z"/><path class="cls-1" d="M384.77,193.09l0,11.94,19.77-1.91,0-11.94Zm3,8.64,0-5.92,13.77-1.33v5.92Z"/><path class="cls-1" d="M413.67,190.3l0,11.94,19.77-1.9,0-11.94Zm3,8.64V193l13.77-1.33v5.91Z"/><path class="cls-1" d="M181.74,179.22a11.46,11.46,0,0,0,10-11.31,9.11,9.11,0,0,0-10.08-9.36,11.45,11.45,0,0,0-10,11.3A9.13,9.13,0,0,0,181.74,179.22Z"/><path class="cls-1" d="M181.26,152.87a2.79,2.79,0,0,0,2.44-2.75,2.22,2.22,0,0,0-2.45-2.27,2.78,2.78,0,0,0-2.43,2.74A2.21,2.21,0,0,0,181.26,152.87Z"/><path class="cls-1" d="M169,208.13a9,9,0,0,0-7.87,8.81,7.69,7.69,0,0,0,2.49,5.76,7.4,7.4,0,0,0,5,1.92,6.79,6.79,0,0,0,.78,0,9,9,0,0,0,7.87-8.81,7.7,7.7,0,0,0-2.5-5.77A7.41,7.41,0,0,0,169,208.13Zm4.28,7.64A5,5,0,0,1,169,220.6a3.48,3.48,0,0,1-2.71-.86,3.71,3.71,0,0,1-1.18-2.8,5,5,0,0,1,4.25-4.83l.38,0a3.45,3.45,0,0,1,2.34.88,3.73,3.73,0,0,1,1.18,2.8Z"/><path class="cls-1" d="M191.22,205.71a9,9,0,0,0-7.93,8.89,7.68,7.68,0,0,0,2.51,5.8,7.44,7.44,0,0,0,5,1.93,6.79,6.79,0,0,0,.78,0,9,9,0,0,0,7.93-8.89,7.68,7.68,0,0,0-2.51-5.8A7.45,7.45,0,0,0,191.22,205.71Zm0,12.6a3.5,3.5,0,0,1-2.75-.87,3.78,3.78,0,0,1-1.2-2.85,5,5,0,0,1,4.31-4.9,2.55,2.55,0,0,1,.39,0,3.49,3.49,0,0,1,2.37.89,3.78,3.78,0,0,1,1.2,2.85A5,5,0,0,1,191.24,218.31Z"/><path class="cls-1" d="M362.39,148.68a2.44,2.44,0,0,0-.26-.06l-2.09-.3a12.41,12.41,0,0,0-12.14,1.92,17.19,17.19,0,0,0-4,22,13.52,13.52,0,0,0,3.63,3.85,3.45,3.45,0,0,0,.71.49l.06,0a11.91,11.91,0,0,0,6.21,1.77h.05l2.5.57.17,0h.06l.16,0h0a11.41,11.41,0,0,0,2.41.27c.44,0,.88,0,1.3-.07a13.86,13.86,0,0,0,9.53-5.83,17.46,17.46,0,0,0,3.25-10h0a15.75,15.75,0,0,0-3.44-10.25A12.16,12.16,0,0,0,362.39,148.68Zm4.17,14.69h0a9.82,9.82,0,0,1-1.79,5.6,6.26,6.26,0,0,1-4.22,2.73,4.52,4.52,0,0,1-4.05-1.77,8.18,8.18,0,0,1-1.71-5.3,9.85,9.85,0,0,1,1.79-5.61,6.3,6.3,0,0,1,4.23-2.74,4.52,4.52,0,0,1,4.05,1.78,8.13,8.13,0,0,1,1.7,5.31Z"/><path class="cls-1" d="M303.92,135.21l-86.66,5.59a10.62,10.62,0,0,0-9.91,10.57v53.7a10.14,10.14,0,0,0,10.19,10.19l.66,0,86.65-5.59a10.61,10.61,0,0,0,9.91-10.57v-53.7a10.17,10.17,0,0,0-10.84-10.17Zm2.84,63.87a2.6,2.6,0,0,1-2.42,2.59l-86.66,5.59h-.14a2.15,2.15,0,0,1-2.19-2.19v-53.7a2.59,2.59,0,0,1,2.43-2.58l86.64-5.59a2.15,2.15,0,0,1,2.34,2.18Z"/><path class="cls-1" d="M331,137.28a7.43,7.43,0,0,0-6.61,7.4,6.47,6.47,0,0,0,2.11,4.87,6.24,6.24,0,0,0,4.24,1.62q.33,0,.66,0a7.43,7.43,0,0,0,6.6-7.4,6.43,6.43,0,0,0-2.11-4.86A6.24,6.24,0,0,0,331,137.28Z"/><path class="cls-1" d="M331,187.31a7.41,7.41,0,0,0-6.6,7.39,6.47,6.47,0,0,0,2.11,4.87,6.25,6.25,0,0,0,4.24,1.63c.22,0,.44,0,.66,0a7.41,7.41,0,0,0,6.6-7.39,6.47,6.47,0,0,0-2.11-4.87A6.28,6.28,0,0,0,331,187.31Z"/><path class="cls-1" d="M185.42,197.73h0a5.7,5.7,0,0,0-1.84-4.23,5.47,5.47,0,0,0-4.26-1.39,6.4,6.4,0,0,0-5.69,6.38,5.69,5.69,0,0,0,1.83,4.22,5.5,5.5,0,0,0,4.26,1.39A6.41,6.41,0,0,0,185.42,197.73Z"/></g></svg>