<svg xmlns="http://www.w3.org/2000/svg" viewBox="0 0 480 320"><defs><style>.cls-1{fill:#000;}</style></defs><g id="Layer_5" data-name="Layer 5"><path class="cls-1" d="M452.58,121.43,289,100.76a14.34,14.34,0,0,0-2.17-.11l-261,6.5a6.12,6.12,0,0,0-5.94,6.23l.94,46.28a12.4,12.4,0,0,0,6.62,10.72l82.74,43.52a14.14,14.14,0,0,0,6.62,1.64c.33,0,.66,0,1,0l14.81-1a4.82,4.82,0,0,0,.75.95l.23.21h0l0,0,0,0a7.39,7.39,0,0,0,1.91,1.25h0c3.46,1.59,10.42,2.4,20.69,2.4,1.42,0,2.45,0,2.83,0,13.43-.29,21.64-1.84,24.4-4.58h0l1-1a5.21,5.21,0,0,0,1.68-3l190.53-13.27a4.61,4.61,0,0,0,2.68,2.2,23.59,23.59,0,0,0,2.59.63h.12a117,117,0,0,0,17.75,1.47l2,0c15,0,17-1.84,18.08-2.84h0l1-.93h0a4.71,4.71,0,0,0,1.67-3.67h0v-.09l31-2.16a6.66,6.66,0,0,0,6.18-6.58l.33-55.48A8.65,8.65,0,0,0,452.58,121.43ZM334.77,138.52l-2.21-4.81L452.13,130s0,0,0,0l0,4.18ZM118.6,207.42V151.53l129.79-4.81v51.67Zm126.58-71,2.45,5.32-129,4.77v-6.14Zm8.21,10.11,77.82-2.88v49L253.39,198Zm-.35-5-2.43-5.29,76.52-2.38,2.23,4.84ZM287,108.65a6.31,6.31,0,0,1,1,0l116.81,14.75-291.66,9.1-63-18ZM31.15,163.3a4.4,4.4,0,0,1-2.34-3.8l-.88-43,82.67,23.62v64.93Zm305.06,29v-48.8l115.87-4.28-.26,45Z"/></g></svg>