<svg id="Artwork" xmlns="http://www.w3.org/2000/svg" viewBox="0 0 480 320"><defs><style>.cls-1{fill:#000;}</style></defs><path class="cls-1" d="M408.44,190.59c-.36-2.73-2.8-5.24-6.07-6.14L276.82,145.72l-.11,0a21.62,21.62,0,0,0-10.15-.26l-12.31,2.8V90.49L252.7,21.15c-.09-1.71-3.37-2-5.08-2s-5.46.22-5.58,1.91l-2.59,69.26c0,.15,0,.29,0,.44v59.66a3.07,3.07,0,0,0,.21,1.1L98.87,183.64V127a1,1,0,0,0,0-.17L97.31,57.49c-.09-1.7-3.37-2-5.07-2s-5.47.22-5.58,1.9l-2.6,69.26c0,.15,0,.3,0,.45v59.66a1.36,1.36,0,0,0,0,.2L77,188.63a6.81,6.81,0,0,0-5.45,6.11,7.81,7.81,0,0,0,0,1.28V241.8a10.17,10.17,0,0,0,6,9.65l111.76,47.44a24.66,24.66,0,0,0,16.07,1l196.11-52.39a9.28,9.28,0,0,0,7-8.63V190.59ZM78.27,194.48l189.57-43.2a15.67,15.67,0,0,1,7.27.18l125.54,38.73.11,0a3.41,3.41,0,0,1,1.21.59L203.83,242a18.84,18.84,0,0,1-12.23-.81L78,196.23a.85.85,0,0,1-.54-.93A.87.87,0,0,1,78.27,194.48Zm1.64,51.46a4.31,4.31,0,0,1-2.39-4.14V202.47l111.81,44.27a24.6,24.6,0,0,0,4.8,1.46v46a19.18,19.18,0,0,1-2.46-.82Zm175.41,34.45-51.49,13.76a18.78,18.78,0,0,1-3.71.61V248.63a24.14,24.14,0,0,0,5.26-.84l51-13.16Zm147.2-41.48a3.35,3.35,0,0,1-2.56,2.84l-45.45,12.14.76-44.82,47.25-12.21Z"/></svg>