<svg xmlns="http://www.w3.org/2000/svg" viewBox="0 0 480 320"><defs><style>.cls-1{fill:#000;}</style></defs><g id="Layer_4" data-name="Layer 4"><path class="cls-1" d="M461.3,128.45h0a5.74,5.74,0,0,0-1.65-4.17,5.43,5.43,0,0,0-2.45-1.35l-.16,0-.32-.05a3.31,3.31,0,0,0-.55-.07l-1.81-.09-3.66-.33,0,.15-1.19,0L287.55,100.86a.85.85,0,0,0-.16,0l-.13,0h-.15l-.15,0h-.25l-.24,0h-.12c-.12,0-.22,0-.34,0l-261.79,6.7-.21,0c-.2,0-.41,0-.61.06h0l-.11,0a5.43,5.43,0,0,0-2.2,1l-.06,0a4,4,0,0,0-.44.38c-.07.07-.15.11-.21.18l0,0-.16.2a5.52,5.52,0,0,0-1.32,2.67,4.83,4.83,0,0,0-.15,1.15l.13,7.82a4.48,4.48,0,0,0-.06.64l.68,43.74h0a5.39,5.39,0,0,0,2.95,4.79l.08.05L112.73,217l.1.06h0l.13.07a4.4,4.4,0,0,0,.5.21l.24.09,1,.31c.12,0,.25.06.37.09l.23,0a4.36,4.36,0,0,0,.81.08h.19L135,216.6l.33.16h0c3.46,1.59,10.42,2.4,20.69,2.4,1.42,0,2.45,0,2.83,0,13.43-.29,21.64-1.84,24.4-4.58h0l1-1c.18-.17.34-.34.49-.51l109.75-7.82h0l.11,0,.44-.08h0l.2,0h.37l.12,0,21.36-1.51h0c.19,0,.36-.06.54-.09l.25,0h.25l52.86-3.76,1.66.38H373a117.22,117.22,0,0,0,17.76,1.47l2,0c15,0,17-1.85,18.07-2.84h0l1-.92a4.92,4.92,0,0,0,.94-1.09l42.41-3h0l.07,0a5.58,5.58,0,0,0,5-5.57h0l1-59.72ZM322.36,193.93l.36-57,129.22-4.71L451,184.75Zm-36.27-83.82c.12,0,.22,0,.34,0l.07,0h.06l110,14.65-79.67,2.9h-.07a5.79,5.79,0,0,0-.6.07l-21.51.47h-.12c-.12,0-.23,0-.35.05l-.55,0h-.35l-180.87,4.18c-.13,0-.25-.1-.39-.13L54,116.05Zm14,27.34,12.88-.28-.09,14.15-12.85.51Zm-10,.09L289.83,196,119.93,208l-.7-66.76ZM28.69,163.06l-.63-41.14c0-.21.05-.41.05-.63l0-2.83,78,21.73.62,57.27h0l.07,6ZM300,161.69l12.82-.51-.21,33.44-12.77.91Z"/></g></svg>