<svg xmlns="http://www.w3.org/2000/svg" viewBox="0 0 480 320"><defs><style>.cls-1{fill:#000;}</style></defs><g id="Layer_1" data-name="Layer 1"><path class="cls-1" d="M241.19,221c-38,0-78.45,10.1-78.45,28.81s40.42,28.81,78.45,28.81,78.44-10.1,78.44-28.81S279.21,221,241.19,221Zm30,13c6.51,2.62,10.55,6.07,10.55,9s-4,6.36-10.55,9c-8,3.2-18.63,5-30,5s-22.08-1.77-30-5c-6.51-2.63-10.56-6.07-10.56-9s4-6.37,10.56-9c8-3.2,18.63-5,30-5S263.27,230.73,271.23,233.93Zm-30,36.65c-43.65,0-70.45-12.12-70.45-20.81,0-5.08,9.19-11.34,25.54-15.65a12.91,12.91,0,0,0-3.69,8.8c0,14.26,25,22,48.6,22s48.59-7.7,48.59-22a12.9,12.9,0,0,0-3.68-8.8c16.35,4.31,25.53,10.57,25.53,15.65C311.63,258.46,284.83,270.58,241.19,270.58Z"/><path class="cls-1" d="M345.26,209.34a14.22,14.22,0,0,0,2.8-8.43c0-8.23-7.13-14.91-15.89-14.91a16.43,16.43,0,0,0-9.89,3.26V69c0-23.6-36.55-42.09-83.2-42.09-46.33,0-82.67,18.23-83.17,41.59h0V69h0V187.8a16.56,16.56,0,0,0-7.56-1.8c-8.76,0-15.89,6.68-15.89,14.91a14.18,14.18,0,0,0,.72,4.43l-.17.08,8.74,20.87c-6.29,6-9.78,12.74-9.78,19.89,0,26.29,47.11,46.89,107.25,46.89s107.26-20.6,107.26-46.89c0-6.74-3.11-13.11-8.73-18.85Zm-23,6.86v-3.65a16.43,16.43,0,0,0,9.89,3.26,16.71,16.71,0,0,0,6.62-1.37l-4.19,10A69.24,69.24,0,0,0,322.28,216.2Zm9.89-26.2c6.56,0,11.89,4.89,11.89,10.91a10.08,10.08,0,0,1-.5,3.11l-.35-.15-1.44,3.44a12.49,12.49,0,0,1-19.49-.36V194.86A12.19,12.19,0,0,1,332.17,190ZM239.08,34.93c40.76,0,75.2,15.61,75.2,34.09V212.41c-19.21-8.16-45.58-13.12-75.09-13.12s-56.08,5-75.31,13.21v-8.58a13.94,13.94,0,0,0,0-6V69C163.94,50.52,198.35,34.93,239.08,34.93ZM148.32,190a12.47,12.47,0,0,1,7.56,2.49v16.83a12.47,12.47,0,0,1-7.56,2.49c-6.55,0-11.89-4.89-11.89-10.9S141.77,190,148.32,190ZM141,214.1a16.76,16.76,0,0,0,14.93-.09v2.32a70.28,70.28,0,0,0-11,7.17Zm98.24,71c-59.37,0-99.25-20.11-99.25-38.89s39.88-38.89,99.25-38.89,99.26,20.11,99.26,38.89S298.57,285.07,239.19,285.07Z"/></g></svg>